%TF.GenerationSoftware,KiCad,Pcbnew,10.0.5*%
%TF.CreationDate,2026-08-14T00:31:49+02:00*%
%TF.ProjectId,Levelmeter,4c657665-6c6d-4657-9465-722e6b696361,rev?*%
%TF.SameCoordinates,Original*%
%TF.FileFunction,Legend,Top*%
%TF.FilePolarity,Positive*%
%FSLAX46Y46*%
G04 Gerber Fmt 4.6, Leading zero omitted, Abs format (unit mm)*
G04 Created by KiCad (PCBNEW 10.0.5) date 2026-08-14 00:31:49*
%MOMM*%
%LPD*%
G01*
G04 APERTURE LIST*
%ADD10C,0.903233*%
%ADD11C,0.100000*%
%ADD12C,0.702514*%
%ADD13C,0.501796*%
%ADD14C,0.150000*%
%ADD15C,0.120000*%
%ADD16C,0.250000*%
%ADD17C,0.060000*%
%ADD18C,0.000000*%
%ADD19C,0.300000*%
%ADD20C,0.080000*%
%ADD21C,0.400000*%
G04 APERTURE END LIST*
D10*
X89445970Y-77267116D02*
X76600000Y-82485794D01*
X76600000Y-72048437D01*
X89445970Y-77267116D01*
D11*
X74994254Y-75059215D02*
X76600000Y-75059215D01*
D12*
X74994254Y-75059215D02*
X76600000Y-75059215D01*
D11*
X74994254Y-79475015D02*
X76600000Y-79475015D01*
D12*
X74994254Y-79475015D02*
X76600000Y-79475015D01*
D11*
X77804306Y-75059215D02*
X79410056Y-75059215D01*
D13*
X77804306Y-75059215D02*
X79410056Y-75059215D01*
D11*
X77804306Y-79475015D02*
X79410056Y-79475015D01*
D13*
X77804306Y-79475015D02*
X79410056Y-79475015D01*
D11*
X78607182Y-74256340D02*
X78607182Y-75862089D01*
D13*
X78607182Y-74256340D02*
X78607182Y-75862089D01*
D11*
X89445970Y-77267116D02*
X91051716Y-77267116D01*
D12*
X89445970Y-77267116D02*
X91051716Y-77267116D01*
D14*
X70872745Y-58747342D02*
X70872745Y-57547342D01*
X70872745Y-57547342D02*
X71329888Y-57547342D01*
X71329888Y-57547342D02*
X71444173Y-57604485D01*
X71444173Y-57604485D02*
X71501316Y-57661628D01*
X71501316Y-57661628D02*
X71558459Y-57775914D01*
X71558459Y-57775914D02*
X71558459Y-57947342D01*
X71558459Y-57947342D02*
X71501316Y-58061628D01*
X71501316Y-58061628D02*
X71444173Y-58118771D01*
X71444173Y-58118771D02*
X71329888Y-58175914D01*
X71329888Y-58175914D02*
X70872745Y-58175914D01*
X72244173Y-58747342D02*
X72129888Y-58690200D01*
X72129888Y-58690200D02*
X72072745Y-58633057D01*
X72072745Y-58633057D02*
X72015602Y-58518771D01*
X72015602Y-58518771D02*
X72015602Y-58175914D01*
X72015602Y-58175914D02*
X72072745Y-58061628D01*
X72072745Y-58061628D02*
X72129888Y-58004485D01*
X72129888Y-58004485D02*
X72244173Y-57947342D01*
X72244173Y-57947342D02*
X72415602Y-57947342D01*
X72415602Y-57947342D02*
X72529888Y-58004485D01*
X72529888Y-58004485D02*
X72587031Y-58061628D01*
X72587031Y-58061628D02*
X72644173Y-58175914D01*
X72644173Y-58175914D02*
X72644173Y-58518771D01*
X72644173Y-58518771D02*
X72587031Y-58633057D01*
X72587031Y-58633057D02*
X72529888Y-58690200D01*
X72529888Y-58690200D02*
X72415602Y-58747342D01*
X72415602Y-58747342D02*
X72244173Y-58747342D01*
X73044173Y-57947342D02*
X73272745Y-58747342D01*
X73272745Y-58747342D02*
X73501316Y-58175914D01*
X73501316Y-58175914D02*
X73729887Y-58747342D01*
X73729887Y-58747342D02*
X73958459Y-57947342D01*
X74872745Y-58690200D02*
X74758459Y-58747342D01*
X74758459Y-58747342D02*
X74529888Y-58747342D01*
X74529888Y-58747342D02*
X74415602Y-58690200D01*
X74415602Y-58690200D02*
X74358459Y-58575914D01*
X74358459Y-58575914D02*
X74358459Y-58118771D01*
X74358459Y-58118771D02*
X74415602Y-58004485D01*
X74415602Y-58004485D02*
X74529888Y-57947342D01*
X74529888Y-57947342D02*
X74758459Y-57947342D01*
X74758459Y-57947342D02*
X74872745Y-58004485D01*
X74872745Y-58004485D02*
X74929888Y-58118771D01*
X74929888Y-58118771D02*
X74929888Y-58233057D01*
X74929888Y-58233057D02*
X74358459Y-58347342D01*
X75444173Y-58747342D02*
X75444173Y-57947342D01*
X75444173Y-58175914D02*
X75501316Y-58061628D01*
X75501316Y-58061628D02*
X75558459Y-58004485D01*
X75558459Y-58004485D02*
X75672744Y-57947342D01*
X75672744Y-57947342D02*
X75787030Y-57947342D01*
X70672745Y-60490200D02*
X70844174Y-60547342D01*
X70844174Y-60547342D02*
X71129888Y-60547342D01*
X71129888Y-60547342D02*
X71244174Y-60490200D01*
X71244174Y-60490200D02*
X71301316Y-60433057D01*
X71301316Y-60433057D02*
X71358459Y-60318771D01*
X71358459Y-60318771D02*
X71358459Y-60204485D01*
X71358459Y-60204485D02*
X71301316Y-60090200D01*
X71301316Y-60090200D02*
X71244174Y-60033057D01*
X71244174Y-60033057D02*
X71129888Y-59975914D01*
X71129888Y-59975914D02*
X70901316Y-59918771D01*
X70901316Y-59918771D02*
X70787031Y-59861628D01*
X70787031Y-59861628D02*
X70729888Y-59804485D01*
X70729888Y-59804485D02*
X70672745Y-59690200D01*
X70672745Y-59690200D02*
X70672745Y-59575914D01*
X70672745Y-59575914D02*
X70729888Y-59461628D01*
X70729888Y-59461628D02*
X70787031Y-59404485D01*
X70787031Y-59404485D02*
X70901316Y-59347342D01*
X70901316Y-59347342D02*
X71187031Y-59347342D01*
X71187031Y-59347342D02*
X71358459Y-59404485D01*
X71701316Y-59747342D02*
X72158459Y-59747342D01*
X71872745Y-59347342D02*
X71872745Y-60375914D01*
X71872745Y-60375914D02*
X71929888Y-60490200D01*
X71929888Y-60490200D02*
X72044173Y-60547342D01*
X72044173Y-60547342D02*
X72158459Y-60547342D01*
X73072745Y-60547342D02*
X73072745Y-59918771D01*
X73072745Y-59918771D02*
X73015602Y-59804485D01*
X73015602Y-59804485D02*
X72901316Y-59747342D01*
X72901316Y-59747342D02*
X72672745Y-59747342D01*
X72672745Y-59747342D02*
X72558459Y-59804485D01*
X73072745Y-60490200D02*
X72958459Y-60547342D01*
X72958459Y-60547342D02*
X72672745Y-60547342D01*
X72672745Y-60547342D02*
X72558459Y-60490200D01*
X72558459Y-60490200D02*
X72501316Y-60375914D01*
X72501316Y-60375914D02*
X72501316Y-60261628D01*
X72501316Y-60261628D02*
X72558459Y-60147342D01*
X72558459Y-60147342D02*
X72672745Y-60090200D01*
X72672745Y-60090200D02*
X72958459Y-60090200D01*
X72958459Y-60090200D02*
X73072745Y-60033057D01*
X73472744Y-59747342D02*
X73929887Y-59747342D01*
X73644173Y-59347342D02*
X73644173Y-60375914D01*
X73644173Y-60375914D02*
X73701316Y-60490200D01*
X73701316Y-60490200D02*
X73815601Y-60547342D01*
X73815601Y-60547342D02*
X73929887Y-60547342D01*
X74844173Y-59747342D02*
X74844173Y-60547342D01*
X74329887Y-59747342D02*
X74329887Y-60375914D01*
X74329887Y-60375914D02*
X74387030Y-60490200D01*
X74387030Y-60490200D02*
X74501315Y-60547342D01*
X74501315Y-60547342D02*
X74672744Y-60547342D01*
X74672744Y-60547342D02*
X74787030Y-60490200D01*
X74787030Y-60490200D02*
X74844173Y-60433057D01*
X75358458Y-60490200D02*
X75472744Y-60547342D01*
X75472744Y-60547342D02*
X75701315Y-60547342D01*
X75701315Y-60547342D02*
X75815601Y-60490200D01*
X75815601Y-60490200D02*
X75872744Y-60375914D01*
X75872744Y-60375914D02*
X75872744Y-60318771D01*
X75872744Y-60318771D02*
X75815601Y-60204485D01*
X75815601Y-60204485D02*
X75701315Y-60147342D01*
X75701315Y-60147342D02*
X75529887Y-60147342D01*
X75529887Y-60147342D02*
X75415601Y-60090200D01*
X75415601Y-60090200D02*
X75358458Y-59975914D01*
X75358458Y-59975914D02*
X75358458Y-59918771D01*
X75358458Y-59918771D02*
X75415601Y-59804485D01*
X75415601Y-59804485D02*
X75529887Y-59747342D01*
X75529887Y-59747342D02*
X75701315Y-59747342D01*
X75701315Y-59747342D02*
X75815601Y-59804485D01*
X61404485Y-38241541D02*
X61347342Y-38355827D01*
X61347342Y-38355827D02*
X61347342Y-38527255D01*
X61347342Y-38527255D02*
X61404485Y-38698684D01*
X61404485Y-38698684D02*
X61518771Y-38812969D01*
X61518771Y-38812969D02*
X61633057Y-38870112D01*
X61633057Y-38870112D02*
X61861628Y-38927255D01*
X61861628Y-38927255D02*
X62033057Y-38927255D01*
X62033057Y-38927255D02*
X62261628Y-38870112D01*
X62261628Y-38870112D02*
X62375914Y-38812969D01*
X62375914Y-38812969D02*
X62490200Y-38698684D01*
X62490200Y-38698684D02*
X62547342Y-38527255D01*
X62547342Y-38527255D02*
X62547342Y-38412969D01*
X62547342Y-38412969D02*
X62490200Y-38241541D01*
X62490200Y-38241541D02*
X62433057Y-38184398D01*
X62433057Y-38184398D02*
X62033057Y-38184398D01*
X62033057Y-38184398D02*
X62033057Y-38412969D01*
X62547342Y-37670112D02*
X61347342Y-37670112D01*
X61347342Y-37670112D02*
X62547342Y-36984398D01*
X62547342Y-36984398D02*
X61347342Y-36984398D01*
X62547342Y-36412969D02*
X61347342Y-36412969D01*
X61347342Y-36412969D02*
X61347342Y-36127255D01*
X61347342Y-36127255D02*
X61404485Y-35955826D01*
X61404485Y-35955826D02*
X61518771Y-35841541D01*
X61518771Y-35841541D02*
X61633057Y-35784398D01*
X61633057Y-35784398D02*
X61861628Y-35727255D01*
X61861628Y-35727255D02*
X62033057Y-35727255D01*
X62033057Y-35727255D02*
X62261628Y-35784398D01*
X62261628Y-35784398D02*
X62375914Y-35841541D01*
X62375914Y-35841541D02*
X62490200Y-35955826D01*
X62490200Y-35955826D02*
X62547342Y-36127255D01*
X62547342Y-36127255D02*
X62547342Y-36412969D01*
X64490200Y-38870111D02*
X64490200Y-37955826D01*
X64947342Y-38412968D02*
X64033057Y-38412968D01*
X63747342Y-36812969D02*
X63747342Y-37384397D01*
X63747342Y-37384397D02*
X64318771Y-37441540D01*
X64318771Y-37441540D02*
X64261628Y-37384397D01*
X64261628Y-37384397D02*
X64204485Y-37270112D01*
X64204485Y-37270112D02*
X64204485Y-36984397D01*
X64204485Y-36984397D02*
X64261628Y-36870112D01*
X64261628Y-36870112D02*
X64318771Y-36812969D01*
X64318771Y-36812969D02*
X64433057Y-36755826D01*
X64433057Y-36755826D02*
X64718771Y-36755826D01*
X64718771Y-36755826D02*
X64833057Y-36812969D01*
X64833057Y-36812969D02*
X64890200Y-36870112D01*
X64890200Y-36870112D02*
X64947342Y-36984397D01*
X64947342Y-36984397D02*
X64947342Y-37270112D01*
X64947342Y-37270112D02*
X64890200Y-37384397D01*
X64890200Y-37384397D02*
X64833057Y-37441540D01*
X63747342Y-36412969D02*
X64947342Y-36012969D01*
X64947342Y-36012969D02*
X63747342Y-35612969D01*
X67090200Y-38870111D02*
X67090200Y-37955826D01*
X66347342Y-36812969D02*
X66347342Y-37384397D01*
X66347342Y-37384397D02*
X66918771Y-37441540D01*
X66918771Y-37441540D02*
X66861628Y-37384397D01*
X66861628Y-37384397D02*
X66804485Y-37270112D01*
X66804485Y-37270112D02*
X66804485Y-36984397D01*
X66804485Y-36984397D02*
X66861628Y-36870112D01*
X66861628Y-36870112D02*
X66918771Y-36812969D01*
X66918771Y-36812969D02*
X67033057Y-36755826D01*
X67033057Y-36755826D02*
X67318771Y-36755826D01*
X67318771Y-36755826D02*
X67433057Y-36812969D01*
X67433057Y-36812969D02*
X67490200Y-36870112D01*
X67490200Y-36870112D02*
X67547342Y-36984397D01*
X67547342Y-36984397D02*
X67547342Y-37270112D01*
X67547342Y-37270112D02*
X67490200Y-37384397D01*
X67490200Y-37384397D02*
X67433057Y-37441540D01*
X66347342Y-36412969D02*
X67547342Y-36012969D01*
X67547342Y-36012969D02*
X66347342Y-35612969D01*
X69804485Y-36498683D02*
X69804485Y-35927255D01*
X70147342Y-36612969D02*
X68947342Y-36212969D01*
X68947342Y-36212969D02*
X70147342Y-35812969D01*
X72118771Y-36012969D02*
X72175914Y-35841541D01*
X72175914Y-35841541D02*
X72233057Y-35784398D01*
X72233057Y-35784398D02*
X72347342Y-35727255D01*
X72347342Y-35727255D02*
X72518771Y-35727255D01*
X72518771Y-35727255D02*
X72633057Y-35784398D01*
X72633057Y-35784398D02*
X72690200Y-35841541D01*
X72690200Y-35841541D02*
X72747342Y-35955826D01*
X72747342Y-35955826D02*
X72747342Y-36412969D01*
X72747342Y-36412969D02*
X71547342Y-36412969D01*
X71547342Y-36412969D02*
X71547342Y-36012969D01*
X71547342Y-36012969D02*
X71604485Y-35898684D01*
X71604485Y-35898684D02*
X71661628Y-35841541D01*
X71661628Y-35841541D02*
X71775914Y-35784398D01*
X71775914Y-35784398D02*
X71890200Y-35784398D01*
X71890200Y-35784398D02*
X72004485Y-35841541D01*
X72004485Y-35841541D02*
X72061628Y-35898684D01*
X72061628Y-35898684D02*
X72118771Y-36012969D01*
X72118771Y-36012969D02*
X72118771Y-36412969D01*
X75090200Y-37555826D02*
X75147342Y-37384398D01*
X75147342Y-37384398D02*
X75147342Y-37098683D01*
X75147342Y-37098683D02*
X75090200Y-36984398D01*
X75090200Y-36984398D02*
X75033057Y-36927255D01*
X75033057Y-36927255D02*
X74918771Y-36870112D01*
X74918771Y-36870112D02*
X74804485Y-36870112D01*
X74804485Y-36870112D02*
X74690200Y-36927255D01*
X74690200Y-36927255D02*
X74633057Y-36984398D01*
X74633057Y-36984398D02*
X74575914Y-37098683D01*
X74575914Y-37098683D02*
X74518771Y-37327255D01*
X74518771Y-37327255D02*
X74461628Y-37441540D01*
X74461628Y-37441540D02*
X74404485Y-37498683D01*
X74404485Y-37498683D02*
X74290200Y-37555826D01*
X74290200Y-37555826D02*
X74175914Y-37555826D01*
X74175914Y-37555826D02*
X74061628Y-37498683D01*
X74061628Y-37498683D02*
X74004485Y-37441540D01*
X74004485Y-37441540D02*
X73947342Y-37327255D01*
X73947342Y-37327255D02*
X73947342Y-37041540D01*
X73947342Y-37041540D02*
X74004485Y-36870112D01*
X75147342Y-35727255D02*
X75147342Y-36412969D01*
X75147342Y-36070112D02*
X73947342Y-36070112D01*
X73947342Y-36070112D02*
X74118771Y-36184398D01*
X74118771Y-36184398D02*
X74233057Y-36298683D01*
X74233057Y-36298683D02*
X74290200Y-36412969D01*
X115890200Y-37555826D02*
X115947342Y-37384398D01*
X115947342Y-37384398D02*
X115947342Y-37098683D01*
X115947342Y-37098683D02*
X115890200Y-36984398D01*
X115890200Y-36984398D02*
X115833057Y-36927255D01*
X115833057Y-36927255D02*
X115718771Y-36870112D01*
X115718771Y-36870112D02*
X115604485Y-36870112D01*
X115604485Y-36870112D02*
X115490200Y-36927255D01*
X115490200Y-36927255D02*
X115433057Y-36984398D01*
X115433057Y-36984398D02*
X115375914Y-37098683D01*
X115375914Y-37098683D02*
X115318771Y-37327255D01*
X115318771Y-37327255D02*
X115261628Y-37441540D01*
X115261628Y-37441540D02*
X115204485Y-37498683D01*
X115204485Y-37498683D02*
X115090200Y-37555826D01*
X115090200Y-37555826D02*
X114975914Y-37555826D01*
X114975914Y-37555826D02*
X114861628Y-37498683D01*
X114861628Y-37498683D02*
X114804485Y-37441540D01*
X114804485Y-37441540D02*
X114747342Y-37327255D01*
X114747342Y-37327255D02*
X114747342Y-37041540D01*
X114747342Y-37041540D02*
X114804485Y-36870112D01*
X114861628Y-36412969D02*
X114804485Y-36355826D01*
X114804485Y-36355826D02*
X114747342Y-36241541D01*
X114747342Y-36241541D02*
X114747342Y-35955826D01*
X114747342Y-35955826D02*
X114804485Y-35841541D01*
X114804485Y-35841541D02*
X114861628Y-35784398D01*
X114861628Y-35784398D02*
X114975914Y-35727255D01*
X114975914Y-35727255D02*
X115090200Y-35727255D01*
X115090200Y-35727255D02*
X115261628Y-35784398D01*
X115261628Y-35784398D02*
X115947342Y-36470112D01*
X115947342Y-36470112D02*
X115947342Y-35727255D01*
X117718771Y-36012969D02*
X117775914Y-35841541D01*
X117775914Y-35841541D02*
X117833057Y-35784398D01*
X117833057Y-35784398D02*
X117947342Y-35727255D01*
X117947342Y-35727255D02*
X118118771Y-35727255D01*
X118118771Y-35727255D02*
X118233057Y-35784398D01*
X118233057Y-35784398D02*
X118290200Y-35841541D01*
X118290200Y-35841541D02*
X118347342Y-35955826D01*
X118347342Y-35955826D02*
X118347342Y-36412969D01*
X118347342Y-36412969D02*
X117147342Y-36412969D01*
X117147342Y-36412969D02*
X117147342Y-36012969D01*
X117147342Y-36012969D02*
X117204485Y-35898684D01*
X117204485Y-35898684D02*
X117261628Y-35841541D01*
X117261628Y-35841541D02*
X117375914Y-35784398D01*
X117375914Y-35784398D02*
X117490200Y-35784398D01*
X117490200Y-35784398D02*
X117604485Y-35841541D01*
X117604485Y-35841541D02*
X117661628Y-35898684D01*
X117661628Y-35898684D02*
X117718771Y-36012969D01*
X117718771Y-36012969D02*
X117718771Y-36412969D01*
X120604485Y-36498683D02*
X120604485Y-35927255D01*
X120947342Y-36612969D02*
X119747342Y-36212969D01*
X119747342Y-36212969D02*
X120947342Y-35812969D01*
X122890200Y-38470111D02*
X122890200Y-37555826D01*
X122147342Y-36412969D02*
X122147342Y-36984397D01*
X122147342Y-36984397D02*
X122718771Y-37041540D01*
X122718771Y-37041540D02*
X122661628Y-36984397D01*
X122661628Y-36984397D02*
X122604485Y-36870112D01*
X122604485Y-36870112D02*
X122604485Y-36584397D01*
X122604485Y-36584397D02*
X122661628Y-36470112D01*
X122661628Y-36470112D02*
X122718771Y-36412969D01*
X122718771Y-36412969D02*
X122833057Y-36355826D01*
X122833057Y-36355826D02*
X123118771Y-36355826D01*
X123118771Y-36355826D02*
X123233057Y-36412969D01*
X123233057Y-36412969D02*
X123290200Y-36470112D01*
X123290200Y-36470112D02*
X123347342Y-36584397D01*
X123347342Y-36584397D02*
X123347342Y-36870112D01*
X123347342Y-36870112D02*
X123290200Y-36984397D01*
X123290200Y-36984397D02*
X123233057Y-37041540D01*
X122147342Y-36012969D02*
X123347342Y-35612969D01*
X123347342Y-35612969D02*
X122147342Y-35212969D01*
X125690200Y-38470111D02*
X125690200Y-37555826D01*
X126147342Y-38012968D02*
X125233057Y-38012968D01*
X124947342Y-36412969D02*
X124947342Y-36984397D01*
X124947342Y-36984397D02*
X125518771Y-37041540D01*
X125518771Y-37041540D02*
X125461628Y-36984397D01*
X125461628Y-36984397D02*
X125404485Y-36870112D01*
X125404485Y-36870112D02*
X125404485Y-36584397D01*
X125404485Y-36584397D02*
X125461628Y-36470112D01*
X125461628Y-36470112D02*
X125518771Y-36412969D01*
X125518771Y-36412969D02*
X125633057Y-36355826D01*
X125633057Y-36355826D02*
X125918771Y-36355826D01*
X125918771Y-36355826D02*
X126033057Y-36412969D01*
X126033057Y-36412969D02*
X126090200Y-36470112D01*
X126090200Y-36470112D02*
X126147342Y-36584397D01*
X126147342Y-36584397D02*
X126147342Y-36870112D01*
X126147342Y-36870112D02*
X126090200Y-36984397D01*
X126090200Y-36984397D02*
X126033057Y-37041540D01*
X124947342Y-36012969D02*
X126147342Y-35612969D01*
X126147342Y-35612969D02*
X124947342Y-35212969D01*
X127404485Y-37841541D02*
X127347342Y-37955827D01*
X127347342Y-37955827D02*
X127347342Y-38127255D01*
X127347342Y-38127255D02*
X127404485Y-38298684D01*
X127404485Y-38298684D02*
X127518771Y-38412969D01*
X127518771Y-38412969D02*
X127633057Y-38470112D01*
X127633057Y-38470112D02*
X127861628Y-38527255D01*
X127861628Y-38527255D02*
X128033057Y-38527255D01*
X128033057Y-38527255D02*
X128261628Y-38470112D01*
X128261628Y-38470112D02*
X128375914Y-38412969D01*
X128375914Y-38412969D02*
X128490200Y-38298684D01*
X128490200Y-38298684D02*
X128547342Y-38127255D01*
X128547342Y-38127255D02*
X128547342Y-38012969D01*
X128547342Y-38012969D02*
X128490200Y-37841541D01*
X128490200Y-37841541D02*
X128433057Y-37784398D01*
X128433057Y-37784398D02*
X128033057Y-37784398D01*
X128033057Y-37784398D02*
X128033057Y-38012969D01*
X128547342Y-37270112D02*
X127347342Y-37270112D01*
X127347342Y-37270112D02*
X128547342Y-36584398D01*
X128547342Y-36584398D02*
X127347342Y-36584398D01*
X128547342Y-36012969D02*
X127347342Y-36012969D01*
X127347342Y-36012969D02*
X127347342Y-35727255D01*
X127347342Y-35727255D02*
X127404485Y-35555826D01*
X127404485Y-35555826D02*
X127518771Y-35441541D01*
X127518771Y-35441541D02*
X127633057Y-35384398D01*
X127633057Y-35384398D02*
X127861628Y-35327255D01*
X127861628Y-35327255D02*
X128033057Y-35327255D01*
X128033057Y-35327255D02*
X128261628Y-35384398D01*
X128261628Y-35384398D02*
X128375914Y-35441541D01*
X128375914Y-35441541D02*
X128490200Y-35555826D01*
X128490200Y-35555826D02*
X128547342Y-35727255D01*
X128547342Y-35727255D02*
X128547342Y-36012969D01*
X82127255Y-83490200D02*
X82298684Y-83547342D01*
X82298684Y-83547342D02*
X82584398Y-83547342D01*
X82584398Y-83547342D02*
X82698684Y-83490200D01*
X82698684Y-83490200D02*
X82755826Y-83433057D01*
X82755826Y-83433057D02*
X82812969Y-83318771D01*
X82812969Y-83318771D02*
X82812969Y-83204485D01*
X82812969Y-83204485D02*
X82755826Y-83090200D01*
X82755826Y-83090200D02*
X82698684Y-83033057D01*
X82698684Y-83033057D02*
X82584398Y-82975914D01*
X82584398Y-82975914D02*
X82355826Y-82918771D01*
X82355826Y-82918771D02*
X82241541Y-82861628D01*
X82241541Y-82861628D02*
X82184398Y-82804485D01*
X82184398Y-82804485D02*
X82127255Y-82690200D01*
X82127255Y-82690200D02*
X82127255Y-82575914D01*
X82127255Y-82575914D02*
X82184398Y-82461628D01*
X82184398Y-82461628D02*
X82241541Y-82404485D01*
X82241541Y-82404485D02*
X82355826Y-82347342D01*
X82355826Y-82347342D02*
X82641541Y-82347342D01*
X82641541Y-82347342D02*
X82812969Y-82404485D01*
X83327255Y-83547342D02*
X83327255Y-82347342D01*
X83327255Y-82347342D02*
X83784398Y-82347342D01*
X83784398Y-82347342D02*
X83898683Y-82404485D01*
X83898683Y-82404485D02*
X83955826Y-82461628D01*
X83955826Y-82461628D02*
X84012969Y-82575914D01*
X84012969Y-82575914D02*
X84012969Y-82747342D01*
X84012969Y-82747342D02*
X83955826Y-82861628D01*
X83955826Y-82861628D02*
X83898683Y-82918771D01*
X83898683Y-82918771D02*
X83784398Y-82975914D01*
X83784398Y-82975914D02*
X83327255Y-82975914D01*
X84527255Y-83547342D02*
X84527255Y-82347342D01*
X85041541Y-82461628D02*
X85098684Y-82404485D01*
X85098684Y-82404485D02*
X85212970Y-82347342D01*
X85212970Y-82347342D02*
X85498684Y-82347342D01*
X85498684Y-82347342D02*
X85612970Y-82404485D01*
X85612970Y-82404485D02*
X85670112Y-82461628D01*
X85670112Y-82461628D02*
X85727255Y-82575914D01*
X85727255Y-82575914D02*
X85727255Y-82690200D01*
X85727255Y-82690200D02*
X85670112Y-82861628D01*
X85670112Y-82861628D02*
X84984398Y-83547342D01*
X84984398Y-83547342D02*
X85727255Y-83547342D01*
X87927255Y-44490200D02*
X88098684Y-44547342D01*
X88098684Y-44547342D02*
X88384398Y-44547342D01*
X88384398Y-44547342D02*
X88498684Y-44490200D01*
X88498684Y-44490200D02*
X88555826Y-44433057D01*
X88555826Y-44433057D02*
X88612969Y-44318771D01*
X88612969Y-44318771D02*
X88612969Y-44204485D01*
X88612969Y-44204485D02*
X88555826Y-44090200D01*
X88555826Y-44090200D02*
X88498684Y-44033057D01*
X88498684Y-44033057D02*
X88384398Y-43975914D01*
X88384398Y-43975914D02*
X88155826Y-43918771D01*
X88155826Y-43918771D02*
X88041541Y-43861628D01*
X88041541Y-43861628D02*
X87984398Y-43804485D01*
X87984398Y-43804485D02*
X87927255Y-43690200D01*
X87927255Y-43690200D02*
X87927255Y-43575914D01*
X87927255Y-43575914D02*
X87984398Y-43461628D01*
X87984398Y-43461628D02*
X88041541Y-43404485D01*
X88041541Y-43404485D02*
X88155826Y-43347342D01*
X88155826Y-43347342D02*
X88441541Y-43347342D01*
X88441541Y-43347342D02*
X88612969Y-43404485D01*
X89127255Y-44547342D02*
X89127255Y-43347342D01*
X89127255Y-43347342D02*
X89584398Y-43347342D01*
X89584398Y-43347342D02*
X89698683Y-43404485D01*
X89698683Y-43404485D02*
X89755826Y-43461628D01*
X89755826Y-43461628D02*
X89812969Y-43575914D01*
X89812969Y-43575914D02*
X89812969Y-43747342D01*
X89812969Y-43747342D02*
X89755826Y-43861628D01*
X89755826Y-43861628D02*
X89698683Y-43918771D01*
X89698683Y-43918771D02*
X89584398Y-43975914D01*
X89584398Y-43975914D02*
X89127255Y-43975914D01*
X90327255Y-44547342D02*
X90327255Y-43347342D01*
X91527255Y-44547342D02*
X90841541Y-44547342D01*
X91184398Y-44547342D02*
X91184398Y-43347342D01*
X91184398Y-43347342D02*
X91070112Y-43518771D01*
X91070112Y-43518771D02*
X90955827Y-43633057D01*
X90955827Y-43633057D02*
X90841541Y-43690200D01*
X107984398Y-53147342D02*
X107984398Y-51947342D01*
X108498684Y-52061628D02*
X108555827Y-52004485D01*
X108555827Y-52004485D02*
X108670113Y-51947342D01*
X108670113Y-51947342D02*
X108955827Y-51947342D01*
X108955827Y-51947342D02*
X109070113Y-52004485D01*
X109070113Y-52004485D02*
X109127255Y-52061628D01*
X109127255Y-52061628D02*
X109184398Y-52175914D01*
X109184398Y-52175914D02*
X109184398Y-52290200D01*
X109184398Y-52290200D02*
X109127255Y-52461628D01*
X109127255Y-52461628D02*
X108441541Y-53147342D01*
X108441541Y-53147342D02*
X109184398Y-53147342D01*
X110384398Y-53033057D02*
X110327255Y-53090200D01*
X110327255Y-53090200D02*
X110155827Y-53147342D01*
X110155827Y-53147342D02*
X110041541Y-53147342D01*
X110041541Y-53147342D02*
X109870112Y-53090200D01*
X109870112Y-53090200D02*
X109755827Y-52975914D01*
X109755827Y-52975914D02*
X109698684Y-52861628D01*
X109698684Y-52861628D02*
X109641541Y-52633057D01*
X109641541Y-52633057D02*
X109641541Y-52461628D01*
X109641541Y-52461628D02*
X109698684Y-52233057D01*
X109698684Y-52233057D02*
X109755827Y-52118771D01*
X109755827Y-52118771D02*
X109870112Y-52004485D01*
X109870112Y-52004485D02*
X110041541Y-51947342D01*
X110041541Y-51947342D02*
X110155827Y-51947342D01*
X110155827Y-51947342D02*
X110327255Y-52004485D01*
X110327255Y-52004485D02*
X110384398Y-52061628D01*
X110784398Y-51947342D02*
X111527255Y-51947342D01*
X111527255Y-51947342D02*
X111127255Y-52404485D01*
X111127255Y-52404485D02*
X111298684Y-52404485D01*
X111298684Y-52404485D02*
X111412970Y-52461628D01*
X111412970Y-52461628D02*
X111470112Y-52518771D01*
X111470112Y-52518771D02*
X111527255Y-52633057D01*
X111527255Y-52633057D02*
X111527255Y-52918771D01*
X111527255Y-52918771D02*
X111470112Y-53033057D01*
X111470112Y-53033057D02*
X111412970Y-53090200D01*
X111412970Y-53090200D02*
X111298684Y-53147342D01*
X111298684Y-53147342D02*
X110955827Y-53147342D01*
X110955827Y-53147342D02*
X110841541Y-53090200D01*
X110841541Y-53090200D02*
X110784398Y-53033057D01*
X124527255Y-66090200D02*
X124698684Y-66147342D01*
X124698684Y-66147342D02*
X124984398Y-66147342D01*
X124984398Y-66147342D02*
X125098684Y-66090200D01*
X125098684Y-66090200D02*
X125155826Y-66033057D01*
X125155826Y-66033057D02*
X125212969Y-65918771D01*
X125212969Y-65918771D02*
X125212969Y-65804485D01*
X125212969Y-65804485D02*
X125155826Y-65690200D01*
X125155826Y-65690200D02*
X125098684Y-65633057D01*
X125098684Y-65633057D02*
X124984398Y-65575914D01*
X124984398Y-65575914D02*
X124755826Y-65518771D01*
X124755826Y-65518771D02*
X124641541Y-65461628D01*
X124641541Y-65461628D02*
X124584398Y-65404485D01*
X124584398Y-65404485D02*
X124527255Y-65290200D01*
X124527255Y-65290200D02*
X124527255Y-65175914D01*
X124527255Y-65175914D02*
X124584398Y-65061628D01*
X124584398Y-65061628D02*
X124641541Y-65004485D01*
X124641541Y-65004485D02*
X124755826Y-64947342D01*
X124755826Y-64947342D02*
X125041541Y-64947342D01*
X125041541Y-64947342D02*
X125212969Y-65004485D01*
X125727255Y-66147342D02*
X125727255Y-64947342D01*
X125727255Y-64947342D02*
X126184398Y-64947342D01*
X126184398Y-64947342D02*
X126298683Y-65004485D01*
X126298683Y-65004485D02*
X126355826Y-65061628D01*
X126355826Y-65061628D02*
X126412969Y-65175914D01*
X126412969Y-65175914D02*
X126412969Y-65347342D01*
X126412969Y-65347342D02*
X126355826Y-65461628D01*
X126355826Y-65461628D02*
X126298683Y-65518771D01*
X126298683Y-65518771D02*
X126184398Y-65575914D01*
X126184398Y-65575914D02*
X125727255Y-65575914D01*
X126927255Y-66147342D02*
X126927255Y-64947342D01*
X127384398Y-64947342D02*
X128127255Y-64947342D01*
X128127255Y-64947342D02*
X127727255Y-65404485D01*
X127727255Y-65404485D02*
X127898684Y-65404485D01*
X127898684Y-65404485D02*
X128012970Y-65461628D01*
X128012970Y-65461628D02*
X128070112Y-65518771D01*
X128070112Y-65518771D02*
X128127255Y-65633057D01*
X128127255Y-65633057D02*
X128127255Y-65918771D01*
X128127255Y-65918771D02*
X128070112Y-66033057D01*
X128070112Y-66033057D02*
X128012970Y-66090200D01*
X128012970Y-66090200D02*
X127898684Y-66147342D01*
X127898684Y-66147342D02*
X127555827Y-66147342D01*
X127555827Y-66147342D02*
X127441541Y-66090200D01*
X127441541Y-66090200D02*
X127384398Y-66033057D01*
X124784398Y-84947342D02*
X124784398Y-83747342D01*
X125298684Y-83861628D02*
X125355827Y-83804485D01*
X125355827Y-83804485D02*
X125470113Y-83747342D01*
X125470113Y-83747342D02*
X125755827Y-83747342D01*
X125755827Y-83747342D02*
X125870113Y-83804485D01*
X125870113Y-83804485D02*
X125927255Y-83861628D01*
X125927255Y-83861628D02*
X125984398Y-83975914D01*
X125984398Y-83975914D02*
X125984398Y-84090200D01*
X125984398Y-84090200D02*
X125927255Y-84261628D01*
X125927255Y-84261628D02*
X125241541Y-84947342D01*
X125241541Y-84947342D02*
X125984398Y-84947342D01*
X127184398Y-84833057D02*
X127127255Y-84890200D01*
X127127255Y-84890200D02*
X126955827Y-84947342D01*
X126955827Y-84947342D02*
X126841541Y-84947342D01*
X126841541Y-84947342D02*
X126670112Y-84890200D01*
X126670112Y-84890200D02*
X126555827Y-84775914D01*
X126555827Y-84775914D02*
X126498684Y-84661628D01*
X126498684Y-84661628D02*
X126441541Y-84433057D01*
X126441541Y-84433057D02*
X126441541Y-84261628D01*
X126441541Y-84261628D02*
X126498684Y-84033057D01*
X126498684Y-84033057D02*
X126555827Y-83918771D01*
X126555827Y-83918771D02*
X126670112Y-83804485D01*
X126670112Y-83804485D02*
X126841541Y-83747342D01*
X126841541Y-83747342D02*
X126955827Y-83747342D01*
X126955827Y-83747342D02*
X127127255Y-83804485D01*
X127127255Y-83804485D02*
X127184398Y-83861628D01*
X128327255Y-84947342D02*
X127641541Y-84947342D01*
X127984398Y-84947342D02*
X127984398Y-83747342D01*
X127984398Y-83747342D02*
X127870112Y-83918771D01*
X127870112Y-83918771D02*
X127755827Y-84033057D01*
X127755827Y-84033057D02*
X127641541Y-84090200D01*
X60347342Y-81815601D02*
X61318771Y-81815601D01*
X61318771Y-81815601D02*
X61433057Y-81758458D01*
X61433057Y-81758458D02*
X61490200Y-81701316D01*
X61490200Y-81701316D02*
X61547342Y-81587030D01*
X61547342Y-81587030D02*
X61547342Y-81358458D01*
X61547342Y-81358458D02*
X61490200Y-81244173D01*
X61490200Y-81244173D02*
X61433057Y-81187030D01*
X61433057Y-81187030D02*
X61318771Y-81129887D01*
X61318771Y-81129887D02*
X60347342Y-81129887D01*
X61204485Y-80615601D02*
X61204485Y-80044173D01*
X61547342Y-80729887D02*
X60347342Y-80329887D01*
X60347342Y-80329887D02*
X61547342Y-79929887D01*
X61547342Y-78844173D02*
X60975914Y-79244173D01*
X61547342Y-79529887D02*
X60347342Y-79529887D01*
X60347342Y-79529887D02*
X60347342Y-79072744D01*
X60347342Y-79072744D02*
X60404485Y-78958459D01*
X60404485Y-78958459D02*
X60461628Y-78901316D01*
X60461628Y-78901316D02*
X60575914Y-78844173D01*
X60575914Y-78844173D02*
X60747342Y-78844173D01*
X60747342Y-78844173D02*
X60861628Y-78901316D01*
X60861628Y-78901316D02*
X60918771Y-78958459D01*
X60918771Y-78958459D02*
X60975914Y-79072744D01*
X60975914Y-79072744D02*
X60975914Y-79529887D01*
X60347342Y-78501316D02*
X60347342Y-77815602D01*
X61547342Y-78158459D02*
X60347342Y-78158459D01*
X60347342Y-77529887D02*
X60347342Y-76787030D01*
X60347342Y-76787030D02*
X60804485Y-77187030D01*
X60804485Y-77187030D02*
X60804485Y-77015601D01*
X60804485Y-77015601D02*
X60861628Y-76901316D01*
X60861628Y-76901316D02*
X60918771Y-76844173D01*
X60918771Y-76844173D02*
X61033057Y-76787030D01*
X61033057Y-76787030D02*
X61318771Y-76787030D01*
X61318771Y-76787030D02*
X61433057Y-76844173D01*
X61433057Y-76844173D02*
X61490200Y-76901316D01*
X61490200Y-76901316D02*
X61547342Y-77015601D01*
X61547342Y-77015601D02*
X61547342Y-77358458D01*
X61547342Y-77358458D02*
X61490200Y-77472744D01*
X61490200Y-77472744D02*
X61433057Y-77529887D01*
X69833057Y-79429887D02*
X69890200Y-79487030D01*
X69890200Y-79487030D02*
X69947342Y-79658458D01*
X69947342Y-79658458D02*
X69947342Y-79772744D01*
X69947342Y-79772744D02*
X69890200Y-79944173D01*
X69890200Y-79944173D02*
X69775914Y-80058458D01*
X69775914Y-80058458D02*
X69661628Y-80115601D01*
X69661628Y-80115601D02*
X69433057Y-80172744D01*
X69433057Y-80172744D02*
X69261628Y-80172744D01*
X69261628Y-80172744D02*
X69033057Y-80115601D01*
X69033057Y-80115601D02*
X68918771Y-80058458D01*
X68918771Y-80058458D02*
X68804485Y-79944173D01*
X68804485Y-79944173D02*
X68747342Y-79772744D01*
X68747342Y-79772744D02*
X68747342Y-79658458D01*
X68747342Y-79658458D02*
X68804485Y-79487030D01*
X68804485Y-79487030D02*
X68861628Y-79429887D01*
X69947342Y-78915601D02*
X68747342Y-78915601D01*
X69947342Y-78401316D02*
X69318771Y-78401316D01*
X69318771Y-78401316D02*
X69204485Y-78458458D01*
X69204485Y-78458458D02*
X69147342Y-78572744D01*
X69147342Y-78572744D02*
X69147342Y-78744173D01*
X69147342Y-78744173D02*
X69204485Y-78858458D01*
X69204485Y-78858458D02*
X69261628Y-78915601D01*
X69947342Y-77315602D02*
X69318771Y-77315602D01*
X69318771Y-77315602D02*
X69204485Y-77372744D01*
X69204485Y-77372744D02*
X69147342Y-77487030D01*
X69147342Y-77487030D02*
X69147342Y-77715602D01*
X69147342Y-77715602D02*
X69204485Y-77829887D01*
X69890200Y-77315602D02*
X69947342Y-77429887D01*
X69947342Y-77429887D02*
X69947342Y-77715602D01*
X69947342Y-77715602D02*
X69890200Y-77829887D01*
X69890200Y-77829887D02*
X69775914Y-77887030D01*
X69775914Y-77887030D02*
X69661628Y-77887030D01*
X69661628Y-77887030D02*
X69547342Y-77829887D01*
X69547342Y-77829887D02*
X69490200Y-77715602D01*
X69490200Y-77715602D02*
X69490200Y-77429887D01*
X69490200Y-77429887D02*
X69433057Y-77315602D01*
X69947342Y-76744173D02*
X69147342Y-76744173D01*
X69375914Y-76744173D02*
X69261628Y-76687030D01*
X69261628Y-76687030D02*
X69204485Y-76629888D01*
X69204485Y-76629888D02*
X69147342Y-76515602D01*
X69147342Y-76515602D02*
X69147342Y-76401316D01*
X69147342Y-75487031D02*
X70118771Y-75487031D01*
X70118771Y-75487031D02*
X70233057Y-75544173D01*
X70233057Y-75544173D02*
X70290200Y-75601316D01*
X70290200Y-75601316D02*
X70347342Y-75715602D01*
X70347342Y-75715602D02*
X70347342Y-75887031D01*
X70347342Y-75887031D02*
X70290200Y-76001316D01*
X69890200Y-75487031D02*
X69947342Y-75601316D01*
X69947342Y-75601316D02*
X69947342Y-75829888D01*
X69947342Y-75829888D02*
X69890200Y-75944173D01*
X69890200Y-75944173D02*
X69833057Y-76001316D01*
X69833057Y-76001316D02*
X69718771Y-76058459D01*
X69718771Y-76058459D02*
X69375914Y-76058459D01*
X69375914Y-76058459D02*
X69261628Y-76001316D01*
X69261628Y-76001316D02*
X69204485Y-75944173D01*
X69204485Y-75944173D02*
X69147342Y-75829888D01*
X69147342Y-75829888D02*
X69147342Y-75601316D01*
X69147342Y-75601316D02*
X69204485Y-75487031D01*
X69890200Y-74458459D02*
X69947342Y-74572745D01*
X69947342Y-74572745D02*
X69947342Y-74801317D01*
X69947342Y-74801317D02*
X69890200Y-74915602D01*
X69890200Y-74915602D02*
X69775914Y-74972745D01*
X69775914Y-74972745D02*
X69318771Y-74972745D01*
X69318771Y-74972745D02*
X69204485Y-74915602D01*
X69204485Y-74915602D02*
X69147342Y-74801317D01*
X69147342Y-74801317D02*
X69147342Y-74572745D01*
X69147342Y-74572745D02*
X69204485Y-74458459D01*
X69204485Y-74458459D02*
X69318771Y-74401317D01*
X69318771Y-74401317D02*
X69433057Y-74401317D01*
X69433057Y-74401317D02*
X69547342Y-74972745D01*
X71690200Y-80172744D02*
X71747342Y-80001316D01*
X71747342Y-80001316D02*
X71747342Y-79715601D01*
X71747342Y-79715601D02*
X71690200Y-79601316D01*
X71690200Y-79601316D02*
X71633057Y-79544173D01*
X71633057Y-79544173D02*
X71518771Y-79487030D01*
X71518771Y-79487030D02*
X71404485Y-79487030D01*
X71404485Y-79487030D02*
X71290200Y-79544173D01*
X71290200Y-79544173D02*
X71233057Y-79601316D01*
X71233057Y-79601316D02*
X71175914Y-79715601D01*
X71175914Y-79715601D02*
X71118771Y-79944173D01*
X71118771Y-79944173D02*
X71061628Y-80058458D01*
X71061628Y-80058458D02*
X71004485Y-80115601D01*
X71004485Y-80115601D02*
X70890200Y-80172744D01*
X70890200Y-80172744D02*
X70775914Y-80172744D01*
X70775914Y-80172744D02*
X70661628Y-80115601D01*
X70661628Y-80115601D02*
X70604485Y-80058458D01*
X70604485Y-80058458D02*
X70547342Y-79944173D01*
X70547342Y-79944173D02*
X70547342Y-79658458D01*
X70547342Y-79658458D02*
X70604485Y-79487030D01*
X70947342Y-79144173D02*
X70947342Y-78687030D01*
X70547342Y-78972744D02*
X71575914Y-78972744D01*
X71575914Y-78972744D02*
X71690200Y-78915601D01*
X71690200Y-78915601D02*
X71747342Y-78801316D01*
X71747342Y-78801316D02*
X71747342Y-78687030D01*
X71747342Y-77772745D02*
X71118771Y-77772745D01*
X71118771Y-77772745D02*
X71004485Y-77829887D01*
X71004485Y-77829887D02*
X70947342Y-77944173D01*
X70947342Y-77944173D02*
X70947342Y-78172745D01*
X70947342Y-78172745D02*
X71004485Y-78287030D01*
X71690200Y-77772745D02*
X71747342Y-77887030D01*
X71747342Y-77887030D02*
X71747342Y-78172745D01*
X71747342Y-78172745D02*
X71690200Y-78287030D01*
X71690200Y-78287030D02*
X71575914Y-78344173D01*
X71575914Y-78344173D02*
X71461628Y-78344173D01*
X71461628Y-78344173D02*
X71347342Y-78287030D01*
X71347342Y-78287030D02*
X71290200Y-78172745D01*
X71290200Y-78172745D02*
X71290200Y-77887030D01*
X71290200Y-77887030D02*
X71233057Y-77772745D01*
X70947342Y-77201316D02*
X71747342Y-77201316D01*
X71061628Y-77201316D02*
X71004485Y-77144173D01*
X71004485Y-77144173D02*
X70947342Y-77029888D01*
X70947342Y-77029888D02*
X70947342Y-76858459D01*
X70947342Y-76858459D02*
X71004485Y-76744173D01*
X71004485Y-76744173D02*
X71118771Y-76687031D01*
X71118771Y-76687031D02*
X71747342Y-76687031D01*
X71747342Y-75601317D02*
X70547342Y-75601317D01*
X71690200Y-75601317D02*
X71747342Y-75715602D01*
X71747342Y-75715602D02*
X71747342Y-75944174D01*
X71747342Y-75944174D02*
X71690200Y-76058459D01*
X71690200Y-76058459D02*
X71633057Y-76115602D01*
X71633057Y-76115602D02*
X71518771Y-76172745D01*
X71518771Y-76172745D02*
X71175914Y-76172745D01*
X71175914Y-76172745D02*
X71061628Y-76115602D01*
X71061628Y-76115602D02*
X71004485Y-76058459D01*
X71004485Y-76058459D02*
X70947342Y-75944174D01*
X70947342Y-75944174D02*
X70947342Y-75715602D01*
X70947342Y-75715602D02*
X71004485Y-75601317D01*
X71747342Y-75029888D02*
X70547342Y-75029888D01*
X71004485Y-75029888D02*
X70947342Y-74915603D01*
X70947342Y-74915603D02*
X70947342Y-74687031D01*
X70947342Y-74687031D02*
X71004485Y-74572745D01*
X71004485Y-74572745D02*
X71061628Y-74515603D01*
X71061628Y-74515603D02*
X71175914Y-74458460D01*
X71175914Y-74458460D02*
X71518771Y-74458460D01*
X71518771Y-74458460D02*
X71633057Y-74515603D01*
X71633057Y-74515603D02*
X71690200Y-74572745D01*
X71690200Y-74572745D02*
X71747342Y-74687031D01*
X71747342Y-74687031D02*
X71747342Y-74915603D01*
X71747342Y-74915603D02*
X71690200Y-75029888D01*
X70947342Y-74058460D02*
X71747342Y-73772746D01*
X70947342Y-73487031D02*
X71747342Y-73772746D01*
X71747342Y-73772746D02*
X72033057Y-73887031D01*
X72033057Y-73887031D02*
X72090200Y-73944174D01*
X72090200Y-73944174D02*
X72147342Y-74058460D01*
X116947342Y-87415601D02*
X117918771Y-87415601D01*
X117918771Y-87415601D02*
X118033057Y-87358458D01*
X118033057Y-87358458D02*
X118090200Y-87301316D01*
X118090200Y-87301316D02*
X118147342Y-87187030D01*
X118147342Y-87187030D02*
X118147342Y-86958458D01*
X118147342Y-86958458D02*
X118090200Y-86844173D01*
X118090200Y-86844173D02*
X118033057Y-86787030D01*
X118033057Y-86787030D02*
X117918771Y-86729887D01*
X117918771Y-86729887D02*
X116947342Y-86729887D01*
X117804485Y-86215601D02*
X117804485Y-85644173D01*
X118147342Y-86329887D02*
X116947342Y-85929887D01*
X116947342Y-85929887D02*
X118147342Y-85529887D01*
X118147342Y-84444173D02*
X117575914Y-84844173D01*
X118147342Y-85129887D02*
X116947342Y-85129887D01*
X116947342Y-85129887D02*
X116947342Y-84672744D01*
X116947342Y-84672744D02*
X117004485Y-84558459D01*
X117004485Y-84558459D02*
X117061628Y-84501316D01*
X117061628Y-84501316D02*
X117175914Y-84444173D01*
X117175914Y-84444173D02*
X117347342Y-84444173D01*
X117347342Y-84444173D02*
X117461628Y-84501316D01*
X117461628Y-84501316D02*
X117518771Y-84558459D01*
X117518771Y-84558459D02*
X117575914Y-84672744D01*
X117575914Y-84672744D02*
X117575914Y-85129887D01*
X116947342Y-84101316D02*
X116947342Y-83415602D01*
X118147342Y-83758459D02*
X116947342Y-83758459D01*
X116947342Y-82501316D02*
X116947342Y-82729887D01*
X116947342Y-82729887D02*
X117004485Y-82844173D01*
X117004485Y-82844173D02*
X117061628Y-82901316D01*
X117061628Y-82901316D02*
X117233057Y-83015601D01*
X117233057Y-83015601D02*
X117461628Y-83072744D01*
X117461628Y-83072744D02*
X117918771Y-83072744D01*
X117918771Y-83072744D02*
X118033057Y-83015601D01*
X118033057Y-83015601D02*
X118090200Y-82958458D01*
X118090200Y-82958458D02*
X118147342Y-82844173D01*
X118147342Y-82844173D02*
X118147342Y-82615601D01*
X118147342Y-82615601D02*
X118090200Y-82501316D01*
X118090200Y-82501316D02*
X118033057Y-82444173D01*
X118033057Y-82444173D02*
X117918771Y-82387030D01*
X117918771Y-82387030D02*
X117633057Y-82387030D01*
X117633057Y-82387030D02*
X117518771Y-82444173D01*
X117518771Y-82444173D02*
X117461628Y-82501316D01*
X117461628Y-82501316D02*
X117404485Y-82615601D01*
X117404485Y-82615601D02*
X117404485Y-82844173D01*
X117404485Y-82844173D02*
X117461628Y-82958458D01*
X117461628Y-82958458D02*
X117518771Y-83015601D01*
X117518771Y-83015601D02*
X117633057Y-83072744D01*
X138718771Y-85215601D02*
X138775914Y-85044173D01*
X138775914Y-85044173D02*
X138833057Y-84987030D01*
X138833057Y-84987030D02*
X138947342Y-84929887D01*
X138947342Y-84929887D02*
X139118771Y-84929887D01*
X139118771Y-84929887D02*
X139233057Y-84987030D01*
X139233057Y-84987030D02*
X139290200Y-85044173D01*
X139290200Y-85044173D02*
X139347342Y-85158458D01*
X139347342Y-85158458D02*
X139347342Y-85615601D01*
X139347342Y-85615601D02*
X138147342Y-85615601D01*
X138147342Y-85615601D02*
X138147342Y-85215601D01*
X138147342Y-85215601D02*
X138204485Y-85101316D01*
X138204485Y-85101316D02*
X138261628Y-85044173D01*
X138261628Y-85044173D02*
X138375914Y-84987030D01*
X138375914Y-84987030D02*
X138490200Y-84987030D01*
X138490200Y-84987030D02*
X138604485Y-85044173D01*
X138604485Y-85044173D02*
X138661628Y-85101316D01*
X138661628Y-85101316D02*
X138718771Y-85215601D01*
X138718771Y-85215601D02*
X138718771Y-85615601D01*
X139347342Y-84415601D02*
X138147342Y-84415601D01*
X138147342Y-84415601D02*
X139004485Y-84015601D01*
X139004485Y-84015601D02*
X138147342Y-83615601D01*
X138147342Y-83615601D02*
X139347342Y-83615601D01*
X138718771Y-83044172D02*
X138718771Y-82644172D01*
X139347342Y-82472744D02*
X139347342Y-83044172D01*
X139347342Y-83044172D02*
X138147342Y-83044172D01*
X138147342Y-83044172D02*
X138147342Y-82472744D01*
X138261628Y-82015601D02*
X138204485Y-81958458D01*
X138204485Y-81958458D02*
X138147342Y-81844173D01*
X138147342Y-81844173D02*
X138147342Y-81558458D01*
X138147342Y-81558458D02*
X138204485Y-81444173D01*
X138204485Y-81444173D02*
X138261628Y-81387030D01*
X138261628Y-81387030D02*
X138375914Y-81329887D01*
X138375914Y-81329887D02*
X138490200Y-81329887D01*
X138490200Y-81329887D02*
X138661628Y-81387030D01*
X138661628Y-81387030D02*
X139347342Y-82072744D01*
X139347342Y-82072744D02*
X139347342Y-81329887D01*
X138661628Y-80644173D02*
X138604485Y-80758458D01*
X138604485Y-80758458D02*
X138547342Y-80815601D01*
X138547342Y-80815601D02*
X138433057Y-80872744D01*
X138433057Y-80872744D02*
X138375914Y-80872744D01*
X138375914Y-80872744D02*
X138261628Y-80815601D01*
X138261628Y-80815601D02*
X138204485Y-80758458D01*
X138204485Y-80758458D02*
X138147342Y-80644173D01*
X138147342Y-80644173D02*
X138147342Y-80415601D01*
X138147342Y-80415601D02*
X138204485Y-80301316D01*
X138204485Y-80301316D02*
X138261628Y-80244173D01*
X138261628Y-80244173D02*
X138375914Y-80187030D01*
X138375914Y-80187030D02*
X138433057Y-80187030D01*
X138433057Y-80187030D02*
X138547342Y-80244173D01*
X138547342Y-80244173D02*
X138604485Y-80301316D01*
X138604485Y-80301316D02*
X138661628Y-80415601D01*
X138661628Y-80415601D02*
X138661628Y-80644173D01*
X138661628Y-80644173D02*
X138718771Y-80758458D01*
X138718771Y-80758458D02*
X138775914Y-80815601D01*
X138775914Y-80815601D02*
X138890200Y-80872744D01*
X138890200Y-80872744D02*
X139118771Y-80872744D01*
X139118771Y-80872744D02*
X139233057Y-80815601D01*
X139233057Y-80815601D02*
X139290200Y-80758458D01*
X139290200Y-80758458D02*
X139347342Y-80644173D01*
X139347342Y-80644173D02*
X139347342Y-80415601D01*
X139347342Y-80415601D02*
X139290200Y-80301316D01*
X139290200Y-80301316D02*
X139233057Y-80244173D01*
X139233057Y-80244173D02*
X139118771Y-80187030D01*
X139118771Y-80187030D02*
X138890200Y-80187030D01*
X138890200Y-80187030D02*
X138775914Y-80244173D01*
X138775914Y-80244173D02*
X138718771Y-80301316D01*
X138718771Y-80301316D02*
X138661628Y-80415601D01*
X138147342Y-79444173D02*
X138147342Y-79329887D01*
X138147342Y-79329887D02*
X138204485Y-79215601D01*
X138204485Y-79215601D02*
X138261628Y-79158459D01*
X138261628Y-79158459D02*
X138375914Y-79101316D01*
X138375914Y-79101316D02*
X138604485Y-79044173D01*
X138604485Y-79044173D02*
X138890200Y-79044173D01*
X138890200Y-79044173D02*
X139118771Y-79101316D01*
X139118771Y-79101316D02*
X139233057Y-79158459D01*
X139233057Y-79158459D02*
X139290200Y-79215601D01*
X139290200Y-79215601D02*
X139347342Y-79329887D01*
X139347342Y-79329887D02*
X139347342Y-79444173D01*
X139347342Y-79444173D02*
X139290200Y-79558459D01*
X139290200Y-79558459D02*
X139233057Y-79615601D01*
X139233057Y-79615601D02*
X139118771Y-79672744D01*
X139118771Y-79672744D02*
X138890200Y-79729887D01*
X138890200Y-79729887D02*
X138604485Y-79729887D01*
X138604485Y-79729887D02*
X138375914Y-79672744D01*
X138375914Y-79672744D02*
X138261628Y-79615601D01*
X138261628Y-79615601D02*
X138204485Y-79558459D01*
X138204485Y-79558459D02*
X138147342Y-79444173D01*
D11*
G36*
X53304795Y-56581605D02*
G01*
X53407667Y-56592335D01*
X53494899Y-56623004D01*
X53569809Y-56673125D01*
X53634413Y-56744601D01*
X53682524Y-56827599D01*
X53719024Y-56928548D01*
X53742633Y-57050931D01*
X53751136Y-57198856D01*
X53747222Y-57288437D01*
X53733771Y-57408563D01*
X53713497Y-57527305D01*
X53691785Y-57612005D01*
X53322050Y-57612005D01*
X53384746Y-57453316D01*
X53417753Y-57325758D01*
X53427563Y-57223476D01*
X53420421Y-57145097D01*
X53403216Y-57100363D01*
X53379477Y-57077298D01*
X53348099Y-57069713D01*
X53318818Y-57078088D01*
X53293694Y-57105433D01*
X53270638Y-57155723D01*
X53222143Y-57292279D01*
X53179978Y-57400574D01*
X53133212Y-57479806D01*
X53082668Y-57535838D01*
X53020838Y-57577223D01*
X52946548Y-57602903D01*
X52856475Y-57612005D01*
X52762854Y-57601960D01*
X52682057Y-57573004D01*
X52611276Y-57525220D01*
X52548839Y-57456483D01*
X52502276Y-57377122D01*
X52466912Y-57280207D01*
X52444004Y-57162281D01*
X52435742Y-57019264D01*
X52447287Y-56852789D01*
X52483662Y-56670082D01*
X52836691Y-56670082D01*
X52806689Y-56749980D01*
X52781407Y-56839782D01*
X52764253Y-56928825D01*
X52759315Y-56994754D01*
X52764042Y-57043245D01*
X52776461Y-57077186D01*
X52797421Y-57100478D01*
X52824161Y-57107851D01*
X52855762Y-57099819D01*
X52881644Y-57074658D01*
X52902649Y-57032593D01*
X52934181Y-56941888D01*
X52979366Y-56815800D01*
X53027826Y-56726271D01*
X53078491Y-56665246D01*
X53141589Y-56619408D01*
X53215962Y-56591420D01*
X53304795Y-56581605D01*
G37*
G36*
X53198775Y-54995661D02*
G01*
X53310139Y-55019949D01*
X53407875Y-55058784D01*
X53493977Y-55111819D01*
X53569896Y-55179603D01*
X53646253Y-55280461D01*
X53702603Y-55400948D01*
X53738378Y-55544960D01*
X53751136Y-55717499D01*
X53738649Y-55889088D01*
X53703658Y-56032222D01*
X53648618Y-56151855D01*
X53574182Y-56251878D01*
X53479823Y-56333782D01*
X53369347Y-56392974D01*
X53239564Y-56429952D01*
X53086075Y-56443010D01*
X52955535Y-56432490D01*
X52840950Y-56402273D01*
X52739531Y-56353324D01*
X52649736Y-56285563D01*
X52574899Y-56201011D01*
X52514107Y-56097565D01*
X52471465Y-55984361D01*
X52444964Y-55857635D01*
X52435742Y-55715081D01*
X52822623Y-55715081D01*
X52832845Y-55784942D01*
X52861294Y-55836934D01*
X52908618Y-55875646D01*
X52980436Y-55901752D01*
X53086185Y-55911818D01*
X53198630Y-55901444D01*
X53274541Y-55874653D01*
X53324143Y-55835215D01*
X53353697Y-55782715D01*
X53364256Y-55712663D01*
X53353619Y-55645366D01*
X53323556Y-55594349D01*
X53272363Y-55555475D01*
X53192952Y-55528757D01*
X53074205Y-55518343D01*
X52974158Y-55528206D01*
X52905750Y-55553909D01*
X52860242Y-55592345D01*
X52832615Y-55644479D01*
X52822623Y-55715081D01*
X52435742Y-55715081D01*
X52445521Y-55567731D01*
X52473382Y-55439410D01*
X52517844Y-55327211D01*
X52580649Y-55224795D01*
X52656294Y-55141450D01*
X52745576Y-55075079D01*
X52845858Y-55026487D01*
X52953798Y-54997155D01*
X53071347Y-54987151D01*
X53198775Y-54995661D01*
G37*
G36*
X53723000Y-54790963D02*
G01*
X51858938Y-54790963D01*
X51858938Y-54267136D01*
X53723000Y-54267136D01*
X53723000Y-54790963D01*
G37*
G36*
X53723000Y-53174418D02*
G01*
X53575281Y-53174418D01*
X53575281Y-53179364D01*
X53647755Y-53250794D01*
X53704095Y-53342909D01*
X53739730Y-53444602D01*
X53751136Y-53542064D01*
X53742030Y-53647069D01*
X53715601Y-53741038D01*
X53672221Y-53826070D01*
X53612933Y-53900748D01*
X53539825Y-53961773D01*
X53451084Y-54009948D01*
X53354496Y-54042722D01*
X53243433Y-54063429D01*
X53115531Y-54070728D01*
X52983990Y-54062209D01*
X52866674Y-54037695D01*
X52761513Y-53998188D01*
X52664822Y-53942259D01*
X52585462Y-53874428D01*
X52521471Y-53794086D01*
X52473985Y-53703175D01*
X52445454Y-53605450D01*
X52435742Y-53498980D01*
X52441389Y-53423451D01*
X52457724Y-53355768D01*
X52461090Y-53347745D01*
X52822623Y-53347745D01*
X52831066Y-53400351D01*
X52856116Y-53445775D01*
X52900109Y-53486120D01*
X52954230Y-53514561D01*
X53021988Y-53532887D01*
X53106738Y-53539536D01*
X53214255Y-53529818D01*
X53286562Y-53504786D01*
X53333550Y-53468115D01*
X53361385Y-53419576D01*
X53371290Y-53355109D01*
X53363266Y-53300516D01*
X53339925Y-53254790D01*
X53299959Y-53215634D01*
X53249609Y-53188280D01*
X53181977Y-53170100D01*
X53092120Y-53163317D01*
X53059147Y-53163317D01*
X52985914Y-53169578D01*
X52928976Y-53186678D01*
X52884831Y-53213106D01*
X52850366Y-53250053D01*
X52829795Y-53294165D01*
X52822623Y-53347745D01*
X52461090Y-53347745D01*
X52483870Y-53293450D01*
X52516745Y-53241462D01*
X52555948Y-53199834D01*
X52590494Y-53179364D01*
X52590494Y-53174418D01*
X51858938Y-53174418D01*
X51858938Y-52650590D01*
X53723000Y-52650590D01*
X53723000Y-53174418D01*
G37*
G36*
X53244674Y-51946291D02*
G01*
X53292845Y-51930283D01*
X53333726Y-51899953D01*
X53368652Y-51852869D01*
X53392345Y-51797741D01*
X53407838Y-51728339D01*
X53413495Y-51641403D01*
X53405583Y-51520722D01*
X53382133Y-51405496D01*
X53343153Y-51294639D01*
X53674969Y-51294639D01*
X53715677Y-51423920D01*
X53741809Y-51576695D01*
X53751136Y-51756918D01*
X53739271Y-51921852D01*
X53706053Y-52059268D01*
X53653869Y-52173943D01*
X53583415Y-52269644D01*
X53493789Y-52348295D01*
X53389118Y-52405015D01*
X53266426Y-52440387D01*
X53121576Y-52452863D01*
X52988873Y-52443425D01*
X52870869Y-52416245D01*
X52765250Y-52372300D01*
X52670052Y-52310206D01*
X52589824Y-52231301D01*
X52523340Y-52133797D01*
X52474924Y-52025537D01*
X52445691Y-51909927D01*
X52435944Y-51787692D01*
X52752281Y-51787692D01*
X52758720Y-51828160D01*
X52778006Y-51864113D01*
X52812071Y-51897052D01*
X52878586Y-51931152D01*
X52970341Y-51948709D01*
X52970341Y-51631511D01*
X52882164Y-51639647D01*
X52822635Y-51660657D01*
X52783737Y-51691584D01*
X52760561Y-51732755D01*
X52752281Y-51787692D01*
X52435944Y-51787692D01*
X52435742Y-51785164D01*
X52444869Y-51656664D01*
X52470770Y-51546156D01*
X52512019Y-51450710D01*
X52570049Y-51365046D01*
X52640940Y-51295267D01*
X52725903Y-51239904D01*
X52820209Y-51200756D01*
X52926794Y-51176410D01*
X53047937Y-51167914D01*
X53244674Y-51167914D01*
X53244674Y-51946291D01*
G37*
G36*
X52914067Y-50040355D02*
G01*
X52889887Y-50120369D01*
X52878896Y-50203900D01*
X52887719Y-50285344D01*
X52911938Y-50347675D01*
X52950273Y-50395441D01*
X53004320Y-50431105D01*
X53078263Y-50454613D01*
X53178289Y-50463395D01*
X53723000Y-50463395D01*
X53723000Y-50987223D01*
X52463879Y-50987223D01*
X52463879Y-50463395D01*
X52681939Y-50463395D01*
X52681939Y-50458449D01*
X52608070Y-50420740D01*
X52549393Y-50375312D01*
X52503776Y-50322052D01*
X52470218Y-50260519D01*
X52449812Y-50192202D01*
X52442776Y-50115423D01*
X52446648Y-50074160D01*
X52457504Y-50040355D01*
X52914067Y-50040355D01*
G37*
G36*
X53723000Y-49073373D02*
G01*
X53034748Y-49073373D01*
X52927234Y-49083693D01*
X52866696Y-49108434D01*
X52839080Y-49135541D01*
X52821875Y-49172358D01*
X52815588Y-49222190D01*
X52821650Y-49264548D01*
X52839078Y-49299148D01*
X52868565Y-49327923D01*
X52926810Y-49355941D01*
X53003973Y-49366061D01*
X53723000Y-49366061D01*
X53723000Y-49889889D01*
X52463879Y-49889889D01*
X52463879Y-49366061D01*
X52660836Y-49366061D01*
X52660836Y-49361115D01*
X52594411Y-49314228D01*
X52539378Y-49258351D01*
X52494763Y-49192734D01*
X52462018Y-49120259D01*
X52442383Y-49043953D01*
X52435742Y-48962694D01*
X52446627Y-48851822D01*
X52476933Y-48762910D01*
X52525111Y-48691206D01*
X52592349Y-48633720D01*
X52682401Y-48589628D01*
X52801135Y-48560387D01*
X52956053Y-48549545D01*
X53723000Y-48549545D01*
X53723000Y-49073373D01*
G37*
G36*
X53244674Y-47861183D02*
G01*
X53292845Y-47845175D01*
X53333726Y-47814845D01*
X53368652Y-47767760D01*
X53392345Y-47712633D01*
X53407838Y-47643231D01*
X53413495Y-47556295D01*
X53405583Y-47435614D01*
X53382133Y-47320387D01*
X53343153Y-47209531D01*
X53674969Y-47209531D01*
X53715677Y-47338812D01*
X53741809Y-47491587D01*
X53751136Y-47671810D01*
X53739271Y-47836744D01*
X53706053Y-47974160D01*
X53653869Y-48088835D01*
X53583415Y-48184536D01*
X53493789Y-48263187D01*
X53389118Y-48319907D01*
X53266426Y-48355279D01*
X53121576Y-48367755D01*
X52988873Y-48358317D01*
X52870869Y-48331137D01*
X52765250Y-48287192D01*
X52670052Y-48225098D01*
X52589824Y-48146192D01*
X52523340Y-48048688D01*
X52474924Y-47940429D01*
X52445691Y-47824819D01*
X52435944Y-47702584D01*
X52752281Y-47702584D01*
X52758720Y-47743052D01*
X52778006Y-47779005D01*
X52812071Y-47811944D01*
X52878586Y-47846044D01*
X52970341Y-47863601D01*
X52970341Y-47546403D01*
X52882164Y-47554538D01*
X52822635Y-47575549D01*
X52783737Y-47606476D01*
X52760561Y-47647647D01*
X52752281Y-47702584D01*
X52435944Y-47702584D01*
X52435742Y-47700056D01*
X52444869Y-47571555D01*
X52470770Y-47461048D01*
X52512019Y-47365602D01*
X52570049Y-47279938D01*
X52640940Y-47210159D01*
X52725903Y-47154796D01*
X52820209Y-47115648D01*
X52926794Y-47091302D01*
X53047937Y-47082806D01*
X53244674Y-47082806D01*
X53244674Y-47861183D01*
G37*
G36*
X52914067Y-45955246D02*
G01*
X52889887Y-46035260D01*
X52878896Y-46118791D01*
X52887719Y-46200235D01*
X52911938Y-46262567D01*
X52950273Y-46310333D01*
X53004320Y-46345997D01*
X53078263Y-46369505D01*
X53178289Y-46378287D01*
X53723000Y-46378287D01*
X53723000Y-46902115D01*
X52463879Y-46902115D01*
X52463879Y-46378287D01*
X52681939Y-46378287D01*
X52681939Y-46373341D01*
X52608070Y-46335632D01*
X52549393Y-46290204D01*
X52503776Y-46236944D01*
X52470218Y-46175411D01*
X52449812Y-46107094D01*
X52442776Y-46030314D01*
X52446648Y-45989052D01*
X52457504Y-45955246D01*
X52914067Y-45955246D01*
G37*
G36*
X53723000Y-44963755D02*
G01*
X53575281Y-44963755D01*
X53575281Y-44968701D01*
X53647755Y-45040131D01*
X53704095Y-45132246D01*
X53739730Y-45233939D01*
X53751136Y-45331401D01*
X53742030Y-45436406D01*
X53715601Y-45530375D01*
X53672221Y-45615407D01*
X53612933Y-45690085D01*
X53539825Y-45751110D01*
X53451084Y-45799285D01*
X53354496Y-45832059D01*
X53243433Y-45852766D01*
X53115531Y-45860065D01*
X52983990Y-45851546D01*
X52866674Y-45827032D01*
X52761513Y-45787525D01*
X52664822Y-45731596D01*
X52585462Y-45663765D01*
X52521471Y-45583423D01*
X52473985Y-45492512D01*
X52445454Y-45394787D01*
X52435742Y-45288317D01*
X52441389Y-45212788D01*
X52457724Y-45145105D01*
X52461090Y-45137082D01*
X52822623Y-45137082D01*
X52831066Y-45189688D01*
X52856116Y-45235112D01*
X52900109Y-45275457D01*
X52954230Y-45303898D01*
X53021988Y-45322224D01*
X53106738Y-45328873D01*
X53214255Y-45319155D01*
X53286562Y-45294123D01*
X53333550Y-45257452D01*
X53361385Y-45208913D01*
X53371290Y-45144446D01*
X53363266Y-45089853D01*
X53339925Y-45044127D01*
X53299959Y-45004971D01*
X53249609Y-44977617D01*
X53181977Y-44959437D01*
X53092120Y-44952654D01*
X53059147Y-44952654D01*
X52985914Y-44958915D01*
X52928976Y-44976015D01*
X52884831Y-45002443D01*
X52850366Y-45039390D01*
X52829795Y-45083502D01*
X52822623Y-45137082D01*
X52461090Y-45137082D01*
X52483870Y-45082787D01*
X52516745Y-45030799D01*
X52555948Y-44989171D01*
X52590494Y-44968701D01*
X52590494Y-44963755D01*
X51858938Y-44963755D01*
X51858938Y-44439927D01*
X53723000Y-44439927D01*
X53723000Y-44963755D01*
G37*
G36*
X53501203Y-43617586D02*
G01*
X53572370Y-43626663D01*
X53631772Y-43652744D01*
X53682223Y-43696281D01*
X53719140Y-43752539D01*
X53742628Y-43823708D01*
X53751136Y-43913901D01*
X53742616Y-43995570D01*
X53718428Y-44063667D01*
X53679146Y-44121080D01*
X53626820Y-44166196D01*
X53568270Y-44192634D01*
X53501203Y-44201644D01*
X53432698Y-44192582D01*
X53375161Y-44166416D01*
X53325897Y-44122399D01*
X53289769Y-44065952D01*
X53266946Y-43996001D01*
X53258743Y-43908955D01*
X53266839Y-43824500D01*
X53289567Y-43755279D01*
X53325897Y-43698149D01*
X53375259Y-43653335D01*
X53432795Y-43626770D01*
X53501203Y-43617586D01*
G37*
G36*
X53684202Y-42343737D02*
G01*
X53709162Y-42402165D01*
X53732562Y-42502446D01*
X53746176Y-42614725D01*
X53751136Y-42751940D01*
X53741820Y-42882756D01*
X53714826Y-43000744D01*
X53670903Y-43107937D01*
X53609564Y-43205493D01*
X53534963Y-43285843D01*
X53446138Y-43350726D01*
X53346733Y-43398208D01*
X53239200Y-43426957D01*
X53121576Y-43436785D01*
X52980353Y-43425909D01*
X52858387Y-43394923D01*
X52752391Y-43345231D01*
X52658360Y-43275863D01*
X52580315Y-43189463D01*
X52517185Y-43083976D01*
X52472921Y-42968203D01*
X52445356Y-42837884D01*
X52435742Y-42690501D01*
X52440016Y-42570675D01*
X52451899Y-42469803D01*
X52471677Y-42381271D01*
X52488938Y-42343737D01*
X52899999Y-42343737D01*
X52872751Y-42388424D01*
X52846033Y-42456834D01*
X52828166Y-42529663D01*
X52822623Y-42593341D01*
X52831719Y-42693397D01*
X52856356Y-42769211D01*
X52894284Y-42826349D01*
X52946799Y-42869388D01*
X53012655Y-42896050D01*
X53095857Y-42905594D01*
X53177498Y-42896206D01*
X53242213Y-42869961D01*
X53293914Y-42827558D01*
X53331733Y-42771574D01*
X53355636Y-42701370D01*
X53364256Y-42613015D01*
X53356319Y-42517369D01*
X53332905Y-42428074D01*
X53293914Y-42343737D01*
X53684202Y-42343737D01*
G37*
G36*
X53198775Y-40742625D02*
G01*
X53310139Y-40766913D01*
X53407875Y-40805749D01*
X53493977Y-40858783D01*
X53569896Y-40926567D01*
X53646253Y-41027425D01*
X53702603Y-41147912D01*
X53738378Y-41291925D01*
X53751136Y-41464463D01*
X53738649Y-41636052D01*
X53703658Y-41779187D01*
X53648618Y-41898820D01*
X53574182Y-41998842D01*
X53479823Y-42080747D01*
X53369347Y-42139939D01*
X53239564Y-42176916D01*
X53086075Y-42189974D01*
X52955535Y-42179455D01*
X52840950Y-42149237D01*
X52739531Y-42100288D01*
X52649736Y-42032528D01*
X52574899Y-41947976D01*
X52514107Y-41844529D01*
X52471465Y-41731325D01*
X52444964Y-41604600D01*
X52435742Y-41462045D01*
X52822623Y-41462045D01*
X52832845Y-41531907D01*
X52861294Y-41583898D01*
X52908618Y-41622610D01*
X52980436Y-41648717D01*
X53086185Y-41658783D01*
X53198630Y-41648409D01*
X53274541Y-41621617D01*
X53324143Y-41582180D01*
X53353697Y-41529680D01*
X53364256Y-41459627D01*
X53353619Y-41392330D01*
X53323556Y-41341313D01*
X53272363Y-41302440D01*
X53192952Y-41275721D01*
X53074205Y-41265307D01*
X52974158Y-41275170D01*
X52905750Y-41300873D01*
X52860242Y-41339310D01*
X52832615Y-41391444D01*
X52822623Y-41462045D01*
X52435742Y-41462045D01*
X52445521Y-41314696D01*
X52473382Y-41186374D01*
X52517844Y-41074175D01*
X52580649Y-40971760D01*
X52656294Y-40888415D01*
X52745576Y-40822043D01*
X52845858Y-40773452D01*
X52953798Y-40744120D01*
X53071347Y-40734116D01*
X53198775Y-40742625D01*
G37*
G36*
X53723000Y-38905006D02*
G01*
X52996609Y-38905006D01*
X52912607Y-38914276D01*
X52860541Y-38937649D01*
X52836425Y-38962615D01*
X52821198Y-38996969D01*
X52815588Y-39043931D01*
X52821919Y-39089530D01*
X52840027Y-39126524D01*
X52870433Y-39157028D01*
X52932286Y-39186479D01*
X53022438Y-39197584D01*
X53723000Y-39197584D01*
X53723000Y-39721412D01*
X53008919Y-39721412D01*
X52914656Y-39732035D01*
X52858025Y-39758575D01*
X52826583Y-39797707D01*
X52815588Y-39852973D01*
X52822254Y-39903464D01*
X52840935Y-39942742D01*
X52871642Y-39973544D01*
X52935418Y-40002819D01*
X53032330Y-40014100D01*
X53723000Y-40014100D01*
X53723000Y-40537928D01*
X52463879Y-40537928D01*
X52463879Y-40014100D01*
X52660836Y-40014100D01*
X52660836Y-40009154D01*
X52610993Y-39973026D01*
X52555543Y-39915182D01*
X52507266Y-39846804D01*
X52468825Y-39769442D01*
X52444167Y-39685682D01*
X52435742Y-39593587D01*
X52442008Y-39505432D01*
X52459648Y-39430988D01*
X52487509Y-39367944D01*
X52527230Y-39311805D01*
X52580996Y-39260850D01*
X52651054Y-39214840D01*
X52587318Y-39165604D01*
X52534451Y-39106899D01*
X52491686Y-39037776D01*
X52460912Y-38962228D01*
X52442162Y-38880639D01*
X52435742Y-38791799D01*
X52444565Y-38694546D01*
X52469457Y-38613462D01*
X52509294Y-38545381D01*
X52564666Y-38488120D01*
X52631033Y-38444512D01*
X52712859Y-38411505D01*
X52813348Y-38390119D01*
X52936379Y-38382387D01*
X53723000Y-38382387D01*
X53723000Y-38905006D01*
G37*
G36*
X56747000Y-55755968D02*
G01*
X54981417Y-55755968D01*
X54981417Y-55224776D01*
X56331982Y-55224776D01*
X56331982Y-54617307D01*
X56747000Y-54617307D01*
X56747000Y-55755968D01*
G37*
G36*
X56747000Y-54393092D02*
G01*
X54981417Y-54393092D01*
X54981417Y-53294989D01*
X55396434Y-53294989D01*
X55396434Y-53861901D01*
X55656699Y-53861901D01*
X55656699Y-53329390D01*
X56071717Y-53329390D01*
X56071717Y-53861901D01*
X56331982Y-53861901D01*
X56331982Y-53254432D01*
X56747000Y-53254432D01*
X56747000Y-54393092D01*
G37*
G36*
X56747000Y-51999158D02*
G01*
X56747000Y-52595526D01*
X54981417Y-53164856D01*
X54981417Y-52593108D01*
X56071167Y-52323830D01*
X56195391Y-52297351D01*
X56268674Y-52288110D01*
X56268674Y-52275800D01*
X56181597Y-52263590D01*
X56063803Y-52237662D01*
X54981417Y-51975748D01*
X54981417Y-51422464D01*
X56747000Y-51999158D01*
G37*
G36*
X56747000Y-51234739D02*
G01*
X54981417Y-51234739D01*
X54981417Y-50136636D01*
X55396434Y-50136636D01*
X55396434Y-50703548D01*
X55656699Y-50703548D01*
X55656699Y-50171037D01*
X56071717Y-50171037D01*
X56071717Y-50703548D01*
X56331982Y-50703548D01*
X56331982Y-50096079D01*
X56747000Y-50096079D01*
X56747000Y-51234739D01*
G37*
G36*
X56747000Y-49845486D02*
G01*
X54981417Y-49845486D01*
X54981417Y-49314295D01*
X56331982Y-49314295D01*
X56331982Y-48706826D01*
X56747000Y-48706826D01*
X56747000Y-49845486D01*
G37*
G36*
X56747000Y-46868044D02*
G01*
X55778479Y-46868044D01*
X55477767Y-46859471D01*
X55396434Y-46855734D01*
X55396434Y-46870572D01*
X55684836Y-46930802D01*
X56747000Y-47190298D01*
X56747000Y-47689506D01*
X55697146Y-47961201D01*
X55396434Y-48019014D01*
X55396434Y-48033741D01*
X55913997Y-48016486D01*
X56747000Y-48016486D01*
X56747000Y-48482611D01*
X54981417Y-48482611D01*
X54981417Y-47686978D01*
X55938946Y-47444738D01*
X56058857Y-47422096D01*
X56198332Y-47404181D01*
X56198332Y-47396817D01*
X55934001Y-47353733D01*
X54981417Y-47127539D01*
X54981417Y-46344216D01*
X56747000Y-46344216D01*
X56747000Y-46868044D01*
G37*
G36*
X56747000Y-45996023D02*
G01*
X54981417Y-45996023D01*
X54981417Y-44897920D01*
X55396434Y-44897920D01*
X55396434Y-45464832D01*
X55656699Y-45464832D01*
X55656699Y-44932321D01*
X56071717Y-44932321D01*
X56071717Y-45464832D01*
X56331982Y-45464832D01*
X56331982Y-44857363D01*
X56747000Y-44857363D01*
X56747000Y-45996023D01*
G37*
G36*
X55396434Y-43715296D02*
G01*
X56747000Y-43715296D01*
X56747000Y-44248905D01*
X55396434Y-44248905D01*
X55396434Y-44741958D01*
X54981417Y-44741958D01*
X54981417Y-43215978D01*
X55396434Y-43215978D01*
X55396434Y-43715296D01*
G37*
G36*
X56747000Y-43004732D02*
G01*
X54981417Y-43004732D01*
X54981417Y-41906629D01*
X55396434Y-41906629D01*
X55396434Y-42473541D01*
X55656699Y-42473541D01*
X55656699Y-41941030D01*
X56071717Y-41941030D01*
X56071717Y-42473541D01*
X56331982Y-42473541D01*
X56331982Y-41866072D01*
X56747000Y-41866072D01*
X56747000Y-43004732D01*
G37*
G36*
X56747000Y-40700594D02*
G01*
X56367483Y-40832266D01*
X56264398Y-40877878D01*
X56191848Y-40931184D01*
X56155157Y-40974796D01*
X56134655Y-41018406D01*
X56127990Y-41063405D01*
X56127990Y-41084288D01*
X56747000Y-41084288D01*
X56747000Y-41615479D01*
X54981417Y-41615479D01*
X54981417Y-40974818D01*
X55347195Y-40974818D01*
X55347195Y-41084288D01*
X55755178Y-41084288D01*
X55755178Y-40988337D01*
X55747909Y-40919424D01*
X55727411Y-40862948D01*
X55694288Y-40816219D01*
X55650124Y-40779985D01*
X55599767Y-40758454D01*
X55541185Y-40751043D01*
X55483830Y-40757506D01*
X55437428Y-40775704D01*
X55399512Y-40805228D01*
X55372108Y-40844650D01*
X55353998Y-40899497D01*
X55347195Y-40974818D01*
X54981417Y-40974818D01*
X54981417Y-40909642D01*
X54990849Y-40718346D01*
X55016345Y-40568292D01*
X55054432Y-40452042D01*
X55102757Y-40363173D01*
X55170216Y-40286595D01*
X55251268Y-40232285D01*
X55348603Y-40198595D01*
X55466556Y-40186658D01*
X55584311Y-40198671D01*
X55684890Y-40233074D01*
X55771884Y-40289314D01*
X55843535Y-40365012D01*
X55903303Y-40465106D01*
X55950377Y-40594861D01*
X55955323Y-40594861D01*
X56001198Y-40491362D01*
X56067430Y-40408565D01*
X56157355Y-40341734D01*
X56297580Y-40275135D01*
X56747000Y-40101808D01*
X56747000Y-40700594D01*
G37*
G36*
X59771000Y-55644519D02*
G01*
X59629766Y-55644519D01*
X59485450Y-55634704D01*
X59369281Y-55607699D01*
X59263004Y-55560700D01*
X59161662Y-55491525D01*
X59061506Y-55394558D01*
X58912278Y-55215323D01*
X58808043Y-55088024D01*
X58753240Y-55029137D01*
X58703750Y-54987583D01*
X58659267Y-54960224D01*
X58612155Y-54943214D01*
X58560898Y-54937472D01*
X58497018Y-54946129D01*
X58450314Y-54969870D01*
X58416318Y-55008489D01*
X58393835Y-55065826D01*
X58385263Y-55148938D01*
X58394582Y-55253195D01*
X58422634Y-55354873D01*
X58470416Y-55455428D01*
X58540016Y-55556042D01*
X58110270Y-55556042D01*
X58045964Y-55410462D01*
X58006846Y-55282478D01*
X57984717Y-55153904D01*
X57977280Y-55021113D01*
X57987147Y-54876411D01*
X58014646Y-54756719D01*
X58057552Y-54657731D01*
X58114996Y-54575981D01*
X58188896Y-54508430D01*
X58275916Y-54459741D01*
X58378678Y-54429339D01*
X58500888Y-54418591D01*
X58625585Y-54428425D01*
X58732281Y-54456350D01*
X58824131Y-54501023D01*
X58905478Y-54563795D01*
X58997056Y-54662499D01*
X59100663Y-54807230D01*
X59205874Y-54962550D01*
X59262339Y-55034083D01*
X59313895Y-55079132D01*
X59348948Y-55091236D01*
X59348948Y-54402654D01*
X59771000Y-54402654D01*
X59771000Y-55644519D01*
G37*
G36*
X59061856Y-52824700D02*
G01*
X59221583Y-52848065D01*
X59356002Y-52884222D01*
X59468688Y-52931557D01*
X59562721Y-52989111D01*
X59647201Y-53063907D01*
X59712253Y-53149861D01*
X59759418Y-53248450D01*
X59788816Y-53362060D01*
X59799136Y-53493814D01*
X59789329Y-53630246D01*
X59761638Y-53746137D01*
X59717752Y-53844907D01*
X59658082Y-53929266D01*
X59581736Y-54001045D01*
X59495482Y-54056148D01*
X59389035Y-54101960D01*
X59258684Y-54137367D01*
X59100101Y-54160509D01*
X58908431Y-54168877D01*
X58718242Y-54160124D01*
X58557594Y-54135671D01*
X58422398Y-54097792D01*
X58309018Y-54048110D01*
X58214354Y-53987527D01*
X58129918Y-53909542D01*
X58064673Y-53820088D01*
X58017256Y-53717606D01*
X57987667Y-53599669D01*
X57979245Y-53488978D01*
X58357127Y-53488978D01*
X58369624Y-53534205D01*
X58410685Y-53574365D01*
X58495166Y-53610565D01*
X58647265Y-53638460D01*
X58898100Y-53649995D01*
X59146407Y-53638887D01*
X59291465Y-53612516D01*
X59368776Y-53578646D01*
X59407278Y-53539501D01*
X59419290Y-53493814D01*
X59406747Y-53448700D01*
X59365451Y-53408563D01*
X59280305Y-53372319D01*
X59126784Y-53344363D01*
X58873370Y-53332797D01*
X58626350Y-53343766D01*
X58483083Y-53369726D01*
X58407208Y-53403157D01*
X58369115Y-53442457D01*
X58357127Y-53488978D01*
X57979245Y-53488978D01*
X57977280Y-53463149D01*
X57988206Y-53328153D01*
X58019113Y-53213771D01*
X58068452Y-53116239D01*
X58136426Y-53032756D01*
X58224966Y-52961715D01*
X58337559Y-52902848D01*
X58479007Y-52857246D01*
X58655178Y-52827258D01*
X58872821Y-52816333D01*
X59061856Y-52824700D01*
G37*
G36*
X59771000Y-52626850D02*
G01*
X59629766Y-52626850D01*
X59485450Y-52617035D01*
X59369281Y-52590030D01*
X59263004Y-52543031D01*
X59161662Y-52473856D01*
X59061506Y-52376889D01*
X58912278Y-52197654D01*
X58808043Y-52070354D01*
X58753240Y-52011468D01*
X58703750Y-51969914D01*
X58659267Y-51942554D01*
X58612155Y-51925545D01*
X58560898Y-51919803D01*
X58497018Y-51928459D01*
X58450314Y-51952201D01*
X58416318Y-51990820D01*
X58393835Y-52048157D01*
X58385263Y-52131269D01*
X58394582Y-52235526D01*
X58422634Y-52337203D01*
X58470416Y-52437759D01*
X58540016Y-52538373D01*
X58110270Y-52538373D01*
X58045964Y-52392793D01*
X58006846Y-52264808D01*
X57984717Y-52136235D01*
X57977280Y-52003444D01*
X57987147Y-51858742D01*
X58014646Y-51739050D01*
X58057552Y-51640062D01*
X58114996Y-51558312D01*
X58188896Y-51490761D01*
X58275916Y-51442072D01*
X58378678Y-51411670D01*
X58500888Y-51400922D01*
X58625585Y-51410756D01*
X58732281Y-51438680D01*
X58824131Y-51483353D01*
X58905478Y-51546126D01*
X58997056Y-51644830D01*
X59100663Y-51789561D01*
X59205874Y-51944880D01*
X59262339Y-52016413D01*
X59313895Y-52061463D01*
X59348948Y-52073566D01*
X59348948Y-51384985D01*
X59771000Y-51384985D01*
X59771000Y-52626850D01*
G37*
G36*
X59277009Y-49803001D02*
G01*
X59384454Y-49830284D01*
X59485125Y-49875491D01*
X59575966Y-49937503D01*
X59652412Y-50014114D01*
X59715605Y-50106740D01*
X59761727Y-50209115D01*
X59789624Y-50318945D01*
X59799136Y-50438006D01*
X59789672Y-50567131D01*
X59762704Y-50678993D01*
X59719533Y-50776415D01*
X59660291Y-50861625D01*
X59583934Y-50936115D01*
X59473009Y-51008444D01*
X59337933Y-51062912D01*
X59173863Y-51098016D01*
X58974927Y-51110651D01*
X58778695Y-51098228D01*
X58603590Y-51062482D01*
X58446593Y-51004918D01*
X58335419Y-50944959D01*
X58241152Y-50875618D01*
X58161984Y-50796837D01*
X58096642Y-50708053D01*
X58045509Y-50610463D01*
X58008293Y-50503228D01*
X57985255Y-50384854D01*
X57977280Y-50253579D01*
X57983161Y-50118952D01*
X57999093Y-50012368D01*
X58022892Y-49929016D01*
X58434503Y-49929016D01*
X58392221Y-50013258D01*
X58366182Y-50108376D01*
X58357127Y-50216759D01*
X58369944Y-50324293D01*
X58406623Y-50414122D01*
X58467256Y-50490323D01*
X58546232Y-50548688D01*
X58641815Y-50587671D01*
X58758076Y-50606497D01*
X58758076Y-50599133D01*
X58694745Y-50532106D01*
X58649071Y-50452427D01*
X58646217Y-50442952D01*
X58969101Y-50442952D01*
X58975854Y-50488152D01*
X58995279Y-50524726D01*
X59028342Y-50554840D01*
X59094276Y-50583430D01*
X59188370Y-50594187D01*
X59277108Y-50582915D01*
X59344222Y-50551762D01*
X59378893Y-50519838D01*
X59398595Y-50484109D01*
X59405221Y-50442952D01*
X59398471Y-50399387D01*
X59378781Y-50363133D01*
X59344771Y-50332274D01*
X59277306Y-50302806D01*
X59180897Y-50291717D01*
X59089220Y-50302014D01*
X59025815Y-50329196D01*
X58994593Y-50358113D01*
X58975788Y-50395144D01*
X58969101Y-50442952D01*
X58646217Y-50442952D01*
X58620492Y-50357542D01*
X58610357Y-50243797D01*
X58620383Y-50142902D01*
X58649131Y-50056217D01*
X58696104Y-49980823D01*
X58762802Y-49914838D01*
X58841568Y-49863566D01*
X58932645Y-49825843D01*
X59038249Y-49802096D01*
X59161113Y-49793718D01*
X59277009Y-49803001D01*
G37*
G36*
X59285640Y-48844102D02*
G01*
X58933930Y-48844102D01*
X58933930Y-48171567D01*
X59285640Y-48171567D01*
X59285640Y-48844102D01*
G37*
G36*
X59771000Y-46206609D02*
G01*
X59391483Y-46338280D01*
X59288398Y-46383893D01*
X59215848Y-46437199D01*
X59179157Y-46480811D01*
X59158655Y-46524420D01*
X59151990Y-46569419D01*
X59151990Y-46590302D01*
X59771000Y-46590302D01*
X59771000Y-47121494D01*
X58005417Y-47121494D01*
X58005417Y-46480833D01*
X58371195Y-46480833D01*
X58371195Y-46590302D01*
X58779178Y-46590302D01*
X58779178Y-46494351D01*
X58771909Y-46425439D01*
X58751411Y-46368963D01*
X58718288Y-46322233D01*
X58674124Y-46285999D01*
X58623767Y-46264469D01*
X58565185Y-46257057D01*
X58507830Y-46263521D01*
X58461428Y-46281719D01*
X58423512Y-46311243D01*
X58396108Y-46350664D01*
X58377998Y-46405512D01*
X58371195Y-46480833D01*
X58005417Y-46480833D01*
X58005417Y-46415656D01*
X58014849Y-46224360D01*
X58040345Y-46074307D01*
X58078432Y-45958057D01*
X58126757Y-45869187D01*
X58194216Y-45792610D01*
X58275268Y-45738300D01*
X58372603Y-45704610D01*
X58490556Y-45692673D01*
X58608311Y-45704686D01*
X58708890Y-45739089D01*
X58795884Y-45795328D01*
X58867535Y-45871027D01*
X58927303Y-45971121D01*
X58974377Y-46100876D01*
X58979323Y-46100876D01*
X59025198Y-45997377D01*
X59091430Y-45914580D01*
X59181355Y-45847749D01*
X59321580Y-45781150D01*
X59771000Y-45607823D01*
X59771000Y-46206609D01*
G37*
G36*
X59292674Y-45000025D02*
G01*
X59340845Y-44984016D01*
X59381726Y-44953687D01*
X59416652Y-44906602D01*
X59440345Y-44851474D01*
X59455838Y-44782073D01*
X59461495Y-44695136D01*
X59453583Y-44574456D01*
X59430133Y-44459229D01*
X59391153Y-44348373D01*
X59722969Y-44348373D01*
X59763677Y-44477654D01*
X59789809Y-44630428D01*
X59799136Y-44810651D01*
X59787271Y-44975585D01*
X59754053Y-45113002D01*
X59701869Y-45227676D01*
X59631415Y-45323378D01*
X59541789Y-45402028D01*
X59437118Y-45458749D01*
X59314426Y-45494120D01*
X59169576Y-45506597D01*
X59036873Y-45497158D01*
X58918869Y-45469979D01*
X58813250Y-45426033D01*
X58718052Y-45363940D01*
X58637824Y-45285034D01*
X58571340Y-45187530D01*
X58522924Y-45079271D01*
X58493691Y-44963661D01*
X58483944Y-44841426D01*
X58800281Y-44841426D01*
X58806720Y-44881894D01*
X58826006Y-44917847D01*
X58860071Y-44950785D01*
X58926586Y-44984885D01*
X59018341Y-45002443D01*
X59018341Y-44685245D01*
X58930164Y-44693380D01*
X58870635Y-44714390D01*
X58831737Y-44745317D01*
X58808561Y-44786489D01*
X58800281Y-44841426D01*
X58483944Y-44841426D01*
X58483742Y-44838898D01*
X58492869Y-44710397D01*
X58518770Y-44599889D01*
X58560019Y-44504444D01*
X58618049Y-44418779D01*
X58688940Y-44349000D01*
X58773903Y-44293638D01*
X58868209Y-44254490D01*
X58974794Y-44230144D01*
X59095937Y-44221647D01*
X59292674Y-44221647D01*
X59292674Y-45000025D01*
G37*
G36*
X59771000Y-43123654D02*
G01*
X59771000Y-43745850D01*
X58511879Y-44166363D01*
X58511879Y-43620443D01*
X59198152Y-43466680D01*
X59354118Y-43436416D01*
X59447427Y-43426124D01*
X59447427Y-43418760D01*
X59397088Y-43411946D01*
X58511879Y-43229386D01*
X58511879Y-42685885D01*
X59771000Y-43123654D01*
G37*
G36*
X59356019Y-40318368D02*
G01*
X59462596Y-40353108D01*
X59553064Y-40409232D01*
X59630096Y-40488139D01*
X59688097Y-40581408D01*
X59732124Y-40696127D01*
X59760678Y-40836661D01*
X59771000Y-41008230D01*
X59771000Y-41812436D01*
X58005417Y-41812436D01*
X58005417Y-41182875D01*
X58364161Y-41182875D01*
X58364161Y-41281244D01*
X58694768Y-41281244D01*
X58694768Y-41127481D01*
X58686501Y-41072197D01*
X59053512Y-41072197D01*
X59053512Y-41281244D01*
X59412256Y-41281244D01*
X59412256Y-41104180D01*
X59406104Y-41033563D01*
X59389150Y-40977614D01*
X59362687Y-40933271D01*
X59325808Y-40898531D01*
X59281502Y-40877768D01*
X59227388Y-40870513D01*
X59179248Y-40876811D01*
X59138219Y-40895084D01*
X59102531Y-40925908D01*
X59075975Y-40965356D01*
X59059411Y-41013353D01*
X59053512Y-41072197D01*
X58686501Y-41072197D01*
X58682472Y-41045257D01*
X58647837Y-40982401D01*
X58613234Y-40950820D01*
X58573351Y-40932203D01*
X58526387Y-40925798D01*
X58470996Y-40934930D01*
X58428563Y-40960978D01*
X58395814Y-41005923D01*
X58373074Y-41076483D01*
X58364161Y-41182875D01*
X58005417Y-41182875D01*
X58005417Y-41063514D01*
X58015177Y-40867308D01*
X58041496Y-40714738D01*
X58080686Y-40597809D01*
X58130238Y-40509636D01*
X58189043Y-40444688D01*
X58257536Y-40399136D01*
X58337663Y-40371211D01*
X58432634Y-40361413D01*
X58521536Y-40372591D01*
X58602004Y-40405707D01*
X58672576Y-40459914D01*
X58736863Y-40540346D01*
X58785312Y-40634839D01*
X58815558Y-40738952D01*
X58820504Y-40738952D01*
X58846880Y-40618852D01*
X58895023Y-40513968D01*
X58963085Y-40424663D01*
X59043950Y-40360204D01*
X59135851Y-40319372D01*
X59229257Y-40306129D01*
X59356019Y-40318368D01*
G37*
G36*
X94609184Y-77711459D02*
G01*
X94592493Y-77871483D01*
X94544786Y-78007177D01*
X94466820Y-78123702D01*
X94355635Y-78224198D01*
X94226527Y-78299038D01*
X94069495Y-78355815D01*
X93879122Y-78392541D01*
X93649016Y-78405768D01*
X93509668Y-78399680D01*
X93322806Y-78378755D01*
X93138096Y-78347218D01*
X93006340Y-78313444D01*
X93006340Y-77738301D01*
X93253189Y-77835828D01*
X93451613Y-77887171D01*
X93610719Y-77902432D01*
X93732641Y-77891321D01*
X93802228Y-77864558D01*
X93838107Y-77827632D01*
X93849906Y-77778821D01*
X93836878Y-77733273D01*
X93794341Y-77694191D01*
X93716112Y-77658326D01*
X93503692Y-77582889D01*
X93335234Y-77517300D01*
X93211982Y-77444553D01*
X93124822Y-77365928D01*
X93060445Y-77269749D01*
X93020498Y-77154186D01*
X93006340Y-77014072D01*
X93021965Y-76868440D01*
X93067009Y-76742756D01*
X93141339Y-76632651D01*
X93248263Y-76535527D01*
X93371714Y-76463096D01*
X93522471Y-76408086D01*
X93705910Y-76372451D01*
X93928381Y-76359599D01*
X94187342Y-76377558D01*
X94471553Y-76434142D01*
X94471553Y-76983297D01*
X94347268Y-76936627D01*
X94207575Y-76897300D01*
X94069064Y-76870617D01*
X93966508Y-76862935D01*
X93891077Y-76870288D01*
X93838280Y-76889606D01*
X93802048Y-76922211D01*
X93790580Y-76963807D01*
X93803074Y-77012964D01*
X93842213Y-77053224D01*
X93907647Y-77085899D01*
X94048744Y-77134948D01*
X94244882Y-77205237D01*
X94384148Y-77280618D01*
X94479076Y-77359431D01*
X94550380Y-77457582D01*
X94593917Y-77573275D01*
X94609184Y-77711459D01*
G37*
G36*
X96186322Y-76374811D02*
G01*
X96385932Y-76418149D01*
X96560464Y-76487314D01*
X96719777Y-76585010D01*
X96849425Y-76702680D01*
X96952670Y-76841563D01*
X97028256Y-76997557D01*
X97073884Y-77165464D01*
X97089446Y-77348318D01*
X97076209Y-77546538D01*
X97038428Y-77719773D01*
X96978017Y-77871807D01*
X96895519Y-78005742D01*
X96790077Y-78123838D01*
X96633186Y-78242616D01*
X96445763Y-78330272D01*
X96221743Y-78385921D01*
X95953350Y-78405768D01*
X95686433Y-78386343D01*
X95463780Y-78331913D01*
X95277684Y-78246295D01*
X95122094Y-78130506D01*
X94994687Y-77983725D01*
X94902610Y-77811873D01*
X94845089Y-77609989D01*
X94824792Y-77371399D01*
X95651075Y-77371399D01*
X95667212Y-77546313D01*
X95708888Y-77664397D01*
X95770235Y-77741556D01*
X95851902Y-77787529D01*
X95960873Y-77803953D01*
X96065556Y-77787408D01*
X96144917Y-77740643D01*
X96205386Y-77661010D01*
X96246949Y-77537481D01*
X96263148Y-77352764D01*
X96247805Y-77197135D01*
X96207823Y-77090723D01*
X96148033Y-77019932D01*
X96066936Y-76976956D01*
X95957111Y-76961413D01*
X95848437Y-76977315D01*
X95767562Y-77021568D01*
X95707343Y-77095184D01*
X95666734Y-77206901D01*
X95651075Y-77371399D01*
X94824792Y-77371399D01*
X94824777Y-77371228D01*
X94841141Y-77168166D01*
X94888146Y-76989923D01*
X94964289Y-76832160D01*
X95069694Y-76692479D01*
X95201220Y-76576065D01*
X95362136Y-76481501D01*
X95538232Y-76415167D01*
X95735360Y-76373944D01*
X95957111Y-76359599D01*
X96186322Y-76374811D01*
G37*
G36*
X97394627Y-78362000D02*
G01*
X97394627Y-75462348D01*
X98209470Y-75462348D01*
X98209470Y-78362000D01*
X97394627Y-78362000D01*
G37*
G36*
X100724097Y-78362000D02*
G01*
X99909254Y-78362000D01*
X99909254Y-78132216D01*
X99901560Y-78132216D01*
X99790446Y-78244953D01*
X99647157Y-78332593D01*
X99488967Y-78388025D01*
X99337359Y-78405768D01*
X99174019Y-78391603D01*
X99027844Y-78350491D01*
X98895573Y-78283011D01*
X98779406Y-78190785D01*
X98684478Y-78077062D01*
X98609540Y-77939020D01*
X98558558Y-77788772D01*
X98526347Y-77616008D01*
X98514993Y-77417048D01*
X98515879Y-77403371D01*
X99341291Y-77403371D01*
X99356409Y-77570620D01*
X99395347Y-77683096D01*
X99452392Y-77756189D01*
X99527896Y-77799487D01*
X99628179Y-77814896D01*
X99713100Y-77802415D01*
X99784230Y-77766106D01*
X99845140Y-77703936D01*
X99887690Y-77625614D01*
X99915970Y-77520409D01*
X99926522Y-77380632D01*
X99926522Y-77329341D01*
X99916783Y-77215422D01*
X99890182Y-77126852D01*
X99849072Y-77058182D01*
X99791598Y-77004570D01*
X99722981Y-76972571D01*
X99639634Y-76961413D01*
X99557803Y-76974548D01*
X99487143Y-77013514D01*
X99424383Y-77081947D01*
X99380142Y-77166136D01*
X99351635Y-77271537D01*
X99341291Y-77403371D01*
X98515879Y-77403371D01*
X98528244Y-77212430D01*
X98566378Y-77029938D01*
X98627834Y-76866354D01*
X98714834Y-76715945D01*
X98820349Y-76592496D01*
X98945325Y-76492956D01*
X99086742Y-76419088D01*
X99238760Y-76374707D01*
X99404379Y-76359599D01*
X99521868Y-76368384D01*
X99627153Y-76393793D01*
X99724093Y-76434465D01*
X99804962Y-76485604D01*
X99869718Y-76546585D01*
X99901560Y-76600325D01*
X99909254Y-76600325D01*
X99909254Y-75462348D01*
X100724097Y-75462348D01*
X100724097Y-78362000D01*
G37*
G36*
X102270205Y-76373797D02*
G01*
X102442106Y-76414086D01*
X102590576Y-76478252D01*
X102723832Y-76568520D01*
X102832377Y-76678795D01*
X102918497Y-76810960D01*
X102979394Y-76957659D01*
X103017265Y-77123458D01*
X103030482Y-77311902D01*
X103030482Y-77617938D01*
X101819672Y-77617938D01*
X101844574Y-77692871D01*
X101891754Y-77756462D01*
X101964997Y-77810792D01*
X102050751Y-77847649D01*
X102158709Y-77871749D01*
X102293943Y-77880548D01*
X102481669Y-77868241D01*
X102660910Y-77831762D01*
X102833354Y-77771127D01*
X102833354Y-78287286D01*
X102632250Y-78350610D01*
X102394600Y-78391258D01*
X102114254Y-78405768D01*
X101857690Y-78387311D01*
X101643931Y-78335638D01*
X101465548Y-78254463D01*
X101316679Y-78144868D01*
X101194333Y-78005450D01*
X101106102Y-77842628D01*
X101051079Y-77651775D01*
X101031672Y-77426452D01*
X101046354Y-77220025D01*
X101052994Y-77191197D01*
X101815911Y-77191197D01*
X102309331Y-77191197D01*
X102296676Y-77054032D01*
X102263993Y-76961432D01*
X102215884Y-76900925D01*
X102151839Y-76864872D01*
X102066382Y-76851993D01*
X102003432Y-76862009D01*
X101947505Y-76892009D01*
X101896267Y-76945000D01*
X101843222Y-77048467D01*
X101815911Y-77191197D01*
X101052994Y-77191197D01*
X101088633Y-77036463D01*
X101156993Y-76872167D01*
X101253583Y-76724081D01*
X101376325Y-76599282D01*
X101527998Y-76495862D01*
X101696401Y-76420549D01*
X101876239Y-76375075D01*
X102070314Y-76359599D01*
X102270205Y-76373797D01*
G37*
G36*
X104784463Y-77103660D02*
G01*
X104659997Y-77066047D01*
X104530060Y-77048950D01*
X104403369Y-77062674D01*
X104306409Y-77100349D01*
X104232106Y-77159981D01*
X104176629Y-77244053D01*
X104140062Y-77359076D01*
X104126400Y-77514672D01*
X104126400Y-78362000D01*
X103311557Y-78362000D01*
X103311557Y-76403367D01*
X104126400Y-76403367D01*
X104126400Y-76742572D01*
X104134093Y-76742572D01*
X104192753Y-76627664D01*
X104263418Y-76536390D01*
X104346267Y-76465429D01*
X104441985Y-76413228D01*
X104548255Y-76381485D01*
X104667691Y-76370541D01*
X104731877Y-76376564D01*
X104784463Y-76393451D01*
X104784463Y-77103660D01*
G37*
G36*
X106288657Y-78362000D02*
G01*
X106288657Y-77291385D01*
X106272604Y-77124142D01*
X106234118Y-77029972D01*
X106191951Y-76987013D01*
X106134681Y-76960250D01*
X106057164Y-76950471D01*
X105991273Y-76959900D01*
X105937451Y-76987010D01*
X105892691Y-77032879D01*
X105849106Y-77123483D01*
X105833364Y-77243514D01*
X105833364Y-78362000D01*
X105018521Y-78362000D01*
X105018521Y-76403367D01*
X105833364Y-76403367D01*
X105833364Y-76709745D01*
X105841058Y-76709745D01*
X105913993Y-76606417D01*
X106000913Y-76520811D01*
X106102984Y-76451410D01*
X106215723Y-76400473D01*
X106334422Y-76369930D01*
X106460824Y-76359599D01*
X106633292Y-76376532D01*
X106771599Y-76423674D01*
X106883139Y-76498617D01*
X106972561Y-76603210D01*
X107041148Y-76743291D01*
X107086636Y-76927987D01*
X107103500Y-77168971D01*
X107103500Y-78362000D01*
X106288657Y-78362000D01*
G37*
G36*
X108624817Y-76373797D02*
G01*
X108796718Y-76414086D01*
X108945189Y-76478252D01*
X109078445Y-76568520D01*
X109186990Y-76678795D01*
X109273109Y-76810960D01*
X109334006Y-76957659D01*
X109371878Y-77123458D01*
X109385095Y-77311902D01*
X109385095Y-77617938D01*
X108174285Y-77617938D01*
X108199187Y-77692871D01*
X108246367Y-77756462D01*
X108319610Y-77810792D01*
X108405363Y-77847649D01*
X108513322Y-77871749D01*
X108648556Y-77880548D01*
X108836281Y-77868241D01*
X109015523Y-77831762D01*
X109187966Y-77771127D01*
X109187966Y-78287286D01*
X108986863Y-78350610D01*
X108749213Y-78391258D01*
X108468866Y-78405768D01*
X108212302Y-78387311D01*
X107998543Y-78335638D01*
X107820160Y-78254463D01*
X107671291Y-78144868D01*
X107548946Y-78005450D01*
X107460714Y-77842628D01*
X107405692Y-77651775D01*
X107386284Y-77426452D01*
X107400967Y-77220025D01*
X107407607Y-77191197D01*
X108170524Y-77191197D01*
X108663943Y-77191197D01*
X108651288Y-77054032D01*
X108618606Y-76961432D01*
X108570497Y-76900925D01*
X108506452Y-76864872D01*
X108420995Y-76851993D01*
X108358044Y-76862009D01*
X108302117Y-76892009D01*
X108250880Y-76945000D01*
X108197835Y-77048467D01*
X108170524Y-77191197D01*
X107407607Y-77191197D01*
X107443246Y-77036463D01*
X107511605Y-76872167D01*
X107608195Y-76724081D01*
X107730938Y-76599282D01*
X107882610Y-76495862D01*
X108051014Y-76420549D01*
X108230852Y-76375075D01*
X108424927Y-76359599D01*
X108624817Y-76373797D01*
G37*
G36*
X111139076Y-77103660D02*
G01*
X111014610Y-77066047D01*
X110884672Y-77048950D01*
X110757982Y-77062674D01*
X110661021Y-77100349D01*
X110586719Y-77159981D01*
X110531242Y-77244053D01*
X110494674Y-77359076D01*
X110481012Y-77514672D01*
X110481012Y-78362000D01*
X109666169Y-78362000D01*
X109666169Y-76403367D01*
X110481012Y-76403367D01*
X110481012Y-76742572D01*
X110488706Y-76742572D01*
X110547365Y-76627664D01*
X110618031Y-76536390D01*
X110700880Y-76465429D01*
X110796598Y-76413228D01*
X110902868Y-76381485D01*
X111022303Y-76370541D01*
X111086490Y-76376564D01*
X111139076Y-76393451D01*
X111139076Y-77103660D01*
G37*
G36*
X113496239Y-78362000D02*
G01*
X112681396Y-78362000D01*
X112681396Y-78132216D01*
X112673702Y-78132216D01*
X112562588Y-78244953D01*
X112419299Y-78332593D01*
X112261109Y-78388025D01*
X112109501Y-78405768D01*
X111946161Y-78391603D01*
X111799986Y-78350491D01*
X111667715Y-78283011D01*
X111551549Y-78190785D01*
X111456621Y-78077062D01*
X111381682Y-77939020D01*
X111330700Y-77788772D01*
X111298489Y-77616008D01*
X111287136Y-77417048D01*
X111288022Y-77403371D01*
X112113434Y-77403371D01*
X112128551Y-77570620D01*
X112167489Y-77683096D01*
X112224534Y-77756189D01*
X112300038Y-77799487D01*
X112400321Y-77814896D01*
X112485243Y-77802415D01*
X112556373Y-77766106D01*
X112617282Y-77703936D01*
X112659833Y-77625614D01*
X112688112Y-77520409D01*
X112698664Y-77380632D01*
X112698664Y-77329341D01*
X112688925Y-77215422D01*
X112662324Y-77126852D01*
X112621215Y-77058182D01*
X112563741Y-77004570D01*
X112495123Y-76972571D01*
X112411776Y-76961413D01*
X112329945Y-76974548D01*
X112259285Y-77013514D01*
X112196525Y-77081947D01*
X112152285Y-77166136D01*
X112123778Y-77271537D01*
X112113434Y-77403371D01*
X111288022Y-77403371D01*
X111300387Y-77212430D01*
X111338520Y-77029938D01*
X111399976Y-76866354D01*
X111486977Y-76715945D01*
X111592492Y-76592496D01*
X111717467Y-76492956D01*
X111858884Y-76419088D01*
X112010902Y-76374707D01*
X112176522Y-76359599D01*
X112294011Y-76368384D01*
X112399296Y-76393793D01*
X112496235Y-76434465D01*
X112577104Y-76485604D01*
X112641860Y-76546585D01*
X112673702Y-76600325D01*
X112681396Y-76600325D01*
X112681396Y-75462348D01*
X113496239Y-75462348D01*
X113496239Y-78362000D01*
G37*
D14*
X59104819Y-33438333D02*
X59819104Y-33438333D01*
X59819104Y-33438333D02*
X59961961Y-33485952D01*
X59961961Y-33485952D02*
X60057200Y-33581190D01*
X60057200Y-33581190D02*
X60104819Y-33724047D01*
X60104819Y-33724047D02*
X60104819Y-33819285D01*
X59104819Y-32485952D02*
X59104819Y-32962142D01*
X59104819Y-32962142D02*
X59581009Y-33009761D01*
X59581009Y-33009761D02*
X59533390Y-32962142D01*
X59533390Y-32962142D02*
X59485771Y-32866904D01*
X59485771Y-32866904D02*
X59485771Y-32628809D01*
X59485771Y-32628809D02*
X59533390Y-32533571D01*
X59533390Y-32533571D02*
X59581009Y-32485952D01*
X59581009Y-32485952D02*
X59676247Y-32438333D01*
X59676247Y-32438333D02*
X59914342Y-32438333D01*
X59914342Y-32438333D02*
X60009580Y-32485952D01*
X60009580Y-32485952D02*
X60057200Y-32533571D01*
X60057200Y-32533571D02*
X60104819Y-32628809D01*
X60104819Y-32628809D02*
X60104819Y-32866904D01*
X60104819Y-32866904D02*
X60057200Y-32962142D01*
X60057200Y-32962142D02*
X60009580Y-33009761D01*
X89731009Y-93080952D02*
X89778628Y-92938095D01*
X89778628Y-92938095D02*
X89826247Y-92890476D01*
X89826247Y-92890476D02*
X89921485Y-92842857D01*
X89921485Y-92842857D02*
X90064342Y-92842857D01*
X90064342Y-92842857D02*
X90159580Y-92890476D01*
X90159580Y-92890476D02*
X90207200Y-92938095D01*
X90207200Y-92938095D02*
X90254819Y-93033333D01*
X90254819Y-93033333D02*
X90254819Y-93414285D01*
X90254819Y-93414285D02*
X89254819Y-93414285D01*
X89254819Y-93414285D02*
X89254819Y-93080952D01*
X89254819Y-93080952D02*
X89302438Y-92985714D01*
X89302438Y-92985714D02*
X89350057Y-92938095D01*
X89350057Y-92938095D02*
X89445295Y-92890476D01*
X89445295Y-92890476D02*
X89540533Y-92890476D01*
X89540533Y-92890476D02*
X89635771Y-92938095D01*
X89635771Y-92938095D02*
X89683390Y-92985714D01*
X89683390Y-92985714D02*
X89731009Y-93080952D01*
X89731009Y-93080952D02*
X89731009Y-93414285D01*
X89254819Y-92509523D02*
X89254819Y-91842857D01*
X89254819Y-91842857D02*
X90254819Y-92509523D01*
X90254819Y-92509523D02*
X90254819Y-91842857D01*
X90254819Y-90938095D02*
X90254819Y-91509523D01*
X90254819Y-91223809D02*
X89254819Y-91223809D01*
X89254819Y-91223809D02*
X89397676Y-91319047D01*
X89397676Y-91319047D02*
X89492914Y-91414285D01*
X89492914Y-91414285D02*
X89540533Y-91509523D01*
X85590476Y-39254819D02*
X85590476Y-39969104D01*
X85590476Y-39969104D02*
X85542857Y-40111961D01*
X85542857Y-40111961D02*
X85447619Y-40207200D01*
X85447619Y-40207200D02*
X85304762Y-40254819D01*
X85304762Y-40254819D02*
X85209524Y-40254819D01*
X86590476Y-40254819D02*
X86019048Y-40254819D01*
X86304762Y-40254819D02*
X86304762Y-39254819D01*
X86304762Y-39254819D02*
X86209524Y-39397676D01*
X86209524Y-39397676D02*
X86114286Y-39492914D01*
X86114286Y-39492914D02*
X86019048Y-39540533D01*
X87209524Y-39254819D02*
X87304762Y-39254819D01*
X87304762Y-39254819D02*
X87400000Y-39302438D01*
X87400000Y-39302438D02*
X87447619Y-39350057D01*
X87447619Y-39350057D02*
X87495238Y-39445295D01*
X87495238Y-39445295D02*
X87542857Y-39635771D01*
X87542857Y-39635771D02*
X87542857Y-39873866D01*
X87542857Y-39873866D02*
X87495238Y-40064342D01*
X87495238Y-40064342D02*
X87447619Y-40159580D01*
X87447619Y-40159580D02*
X87400000Y-40207200D01*
X87400000Y-40207200D02*
X87304762Y-40254819D01*
X87304762Y-40254819D02*
X87209524Y-40254819D01*
X87209524Y-40254819D02*
X87114286Y-40207200D01*
X87114286Y-40207200D02*
X87066667Y-40159580D01*
X87066667Y-40159580D02*
X87019048Y-40064342D01*
X87019048Y-40064342D02*
X86971429Y-39873866D01*
X86971429Y-39873866D02*
X86971429Y-39635771D01*
X86971429Y-39635771D02*
X87019048Y-39445295D01*
X87019048Y-39445295D02*
X87066667Y-39350057D01*
X87066667Y-39350057D02*
X87114286Y-39302438D01*
X87114286Y-39302438D02*
X87209524Y-39254819D01*
X119454819Y-71011904D02*
X120264342Y-71011904D01*
X120264342Y-71011904D02*
X120359580Y-70964285D01*
X120359580Y-70964285D02*
X120407200Y-70916666D01*
X120407200Y-70916666D02*
X120454819Y-70821428D01*
X120454819Y-70821428D02*
X120454819Y-70630952D01*
X120454819Y-70630952D02*
X120407200Y-70535714D01*
X120407200Y-70535714D02*
X120359580Y-70488095D01*
X120359580Y-70488095D02*
X120264342Y-70440476D01*
X120264342Y-70440476D02*
X119454819Y-70440476D01*
X120454819Y-69440476D02*
X120454819Y-70011904D01*
X120454819Y-69726190D02*
X119454819Y-69726190D01*
X119454819Y-69726190D02*
X119597676Y-69821428D01*
X119597676Y-69821428D02*
X119692914Y-69916666D01*
X119692914Y-69916666D02*
X119740533Y-70011904D01*
X94238095Y-87654819D02*
X94238095Y-88464342D01*
X94238095Y-88464342D02*
X94285714Y-88559580D01*
X94285714Y-88559580D02*
X94333333Y-88607200D01*
X94333333Y-88607200D02*
X94428571Y-88654819D01*
X94428571Y-88654819D02*
X94619047Y-88654819D01*
X94619047Y-88654819D02*
X94714285Y-88607200D01*
X94714285Y-88607200D02*
X94761904Y-88559580D01*
X94761904Y-88559580D02*
X94809523Y-88464342D01*
X94809523Y-88464342D02*
X94809523Y-87654819D01*
X95333333Y-88654819D02*
X95523809Y-88654819D01*
X95523809Y-88654819D02*
X95619047Y-88607200D01*
X95619047Y-88607200D02*
X95666666Y-88559580D01*
X95666666Y-88559580D02*
X95761904Y-88416723D01*
X95761904Y-88416723D02*
X95809523Y-88226247D01*
X95809523Y-88226247D02*
X95809523Y-87845295D01*
X95809523Y-87845295D02*
X95761904Y-87750057D01*
X95761904Y-87750057D02*
X95714285Y-87702438D01*
X95714285Y-87702438D02*
X95619047Y-87654819D01*
X95619047Y-87654819D02*
X95428571Y-87654819D01*
X95428571Y-87654819D02*
X95333333Y-87702438D01*
X95333333Y-87702438D02*
X95285714Y-87750057D01*
X95285714Y-87750057D02*
X95238095Y-87845295D01*
X95238095Y-87845295D02*
X95238095Y-88083390D01*
X95238095Y-88083390D02*
X95285714Y-88178628D01*
X95285714Y-88178628D02*
X95333333Y-88226247D01*
X95333333Y-88226247D02*
X95428571Y-88273866D01*
X95428571Y-88273866D02*
X95619047Y-88273866D01*
X95619047Y-88273866D02*
X95714285Y-88226247D01*
X95714285Y-88226247D02*
X95761904Y-88178628D01*
X95761904Y-88178628D02*
X95809523Y-88083390D01*
X130254819Y-33533333D02*
X130969104Y-33533333D01*
X130969104Y-33533333D02*
X131111961Y-33580952D01*
X131111961Y-33580952D02*
X131207200Y-33676190D01*
X131207200Y-33676190D02*
X131254819Y-33819047D01*
X131254819Y-33819047D02*
X131254819Y-33914285D01*
X130254819Y-32628571D02*
X130254819Y-32819047D01*
X130254819Y-32819047D02*
X130302438Y-32914285D01*
X130302438Y-32914285D02*
X130350057Y-32961904D01*
X130350057Y-32961904D02*
X130492914Y-33057142D01*
X130492914Y-33057142D02*
X130683390Y-33104761D01*
X130683390Y-33104761D02*
X131064342Y-33104761D01*
X131064342Y-33104761D02*
X131159580Y-33057142D01*
X131159580Y-33057142D02*
X131207200Y-33009523D01*
X131207200Y-33009523D02*
X131254819Y-32914285D01*
X131254819Y-32914285D02*
X131254819Y-32723809D01*
X131254819Y-32723809D02*
X131207200Y-32628571D01*
X131207200Y-32628571D02*
X131159580Y-32580952D01*
X131159580Y-32580952D02*
X131064342Y-32533333D01*
X131064342Y-32533333D02*
X130826247Y-32533333D01*
X130826247Y-32533333D02*
X130731009Y-32580952D01*
X130731009Y-32580952D02*
X130683390Y-32628571D01*
X130683390Y-32628571D02*
X130635771Y-32723809D01*
X130635771Y-32723809D02*
X130635771Y-32914285D01*
X130635771Y-32914285D02*
X130683390Y-33009523D01*
X130683390Y-33009523D02*
X130731009Y-33057142D01*
X130731009Y-33057142D02*
X130826247Y-33104761D01*
X132961905Y-47254819D02*
X132961905Y-48064342D01*
X132961905Y-48064342D02*
X133009524Y-48159580D01*
X133009524Y-48159580D02*
X133057143Y-48207200D01*
X133057143Y-48207200D02*
X133152381Y-48254819D01*
X133152381Y-48254819D02*
X133342857Y-48254819D01*
X133342857Y-48254819D02*
X133438095Y-48207200D01*
X133438095Y-48207200D02*
X133485714Y-48159580D01*
X133485714Y-48159580D02*
X133533333Y-48064342D01*
X133533333Y-48064342D02*
X133533333Y-47254819D01*
X134533333Y-48254819D02*
X133961905Y-48254819D01*
X134247619Y-48254819D02*
X134247619Y-47254819D01*
X134247619Y-47254819D02*
X134152381Y-47397676D01*
X134152381Y-47397676D02*
X134057143Y-47492914D01*
X134057143Y-47492914D02*
X133961905Y-47540533D01*
X135390476Y-47254819D02*
X135200000Y-47254819D01*
X135200000Y-47254819D02*
X135104762Y-47302438D01*
X135104762Y-47302438D02*
X135057143Y-47350057D01*
X135057143Y-47350057D02*
X134961905Y-47492914D01*
X134961905Y-47492914D02*
X134914286Y-47683390D01*
X134914286Y-47683390D02*
X134914286Y-48064342D01*
X134914286Y-48064342D02*
X134961905Y-48159580D01*
X134961905Y-48159580D02*
X135009524Y-48207200D01*
X135009524Y-48207200D02*
X135104762Y-48254819D01*
X135104762Y-48254819D02*
X135295238Y-48254819D01*
X135295238Y-48254819D02*
X135390476Y-48207200D01*
X135390476Y-48207200D02*
X135438095Y-48159580D01*
X135438095Y-48159580D02*
X135485714Y-48064342D01*
X135485714Y-48064342D02*
X135485714Y-47826247D01*
X135485714Y-47826247D02*
X135438095Y-47731009D01*
X135438095Y-47731009D02*
X135390476Y-47683390D01*
X135390476Y-47683390D02*
X135295238Y-47635771D01*
X135295238Y-47635771D02*
X135104762Y-47635771D01*
X135104762Y-47635771D02*
X135009524Y-47683390D01*
X135009524Y-47683390D02*
X134961905Y-47731009D01*
X134961905Y-47731009D02*
X134914286Y-47826247D01*
X66454819Y-93761904D02*
X67264342Y-93761904D01*
X67264342Y-93761904D02*
X67359580Y-93714285D01*
X67359580Y-93714285D02*
X67407200Y-93666666D01*
X67407200Y-93666666D02*
X67454819Y-93571428D01*
X67454819Y-93571428D02*
X67454819Y-93380952D01*
X67454819Y-93380952D02*
X67407200Y-93285714D01*
X67407200Y-93285714D02*
X67359580Y-93238095D01*
X67359580Y-93238095D02*
X67264342Y-93190476D01*
X67264342Y-93190476D02*
X66454819Y-93190476D01*
X66788152Y-92285714D02*
X67454819Y-92285714D01*
X66407200Y-92523809D02*
X67121485Y-92761904D01*
X67121485Y-92761904D02*
X67121485Y-92142857D01*
X120238095Y-89854819D02*
X120238095Y-90664342D01*
X120238095Y-90664342D02*
X120285714Y-90759580D01*
X120285714Y-90759580D02*
X120333333Y-90807200D01*
X120333333Y-90807200D02*
X120428571Y-90854819D01*
X120428571Y-90854819D02*
X120619047Y-90854819D01*
X120619047Y-90854819D02*
X120714285Y-90807200D01*
X120714285Y-90807200D02*
X120761904Y-90759580D01*
X120761904Y-90759580D02*
X120809523Y-90664342D01*
X120809523Y-90664342D02*
X120809523Y-89854819D01*
X121428571Y-90283390D02*
X121333333Y-90235771D01*
X121333333Y-90235771D02*
X121285714Y-90188152D01*
X121285714Y-90188152D02*
X121238095Y-90092914D01*
X121238095Y-90092914D02*
X121238095Y-90045295D01*
X121238095Y-90045295D02*
X121285714Y-89950057D01*
X121285714Y-89950057D02*
X121333333Y-89902438D01*
X121333333Y-89902438D02*
X121428571Y-89854819D01*
X121428571Y-89854819D02*
X121619047Y-89854819D01*
X121619047Y-89854819D02*
X121714285Y-89902438D01*
X121714285Y-89902438D02*
X121761904Y-89950057D01*
X121761904Y-89950057D02*
X121809523Y-90045295D01*
X121809523Y-90045295D02*
X121809523Y-90092914D01*
X121809523Y-90092914D02*
X121761904Y-90188152D01*
X121761904Y-90188152D02*
X121714285Y-90235771D01*
X121714285Y-90235771D02*
X121619047Y-90283390D01*
X121619047Y-90283390D02*
X121428571Y-90283390D01*
X121428571Y-90283390D02*
X121333333Y-90331009D01*
X121333333Y-90331009D02*
X121285714Y-90378628D01*
X121285714Y-90378628D02*
X121238095Y-90473866D01*
X121238095Y-90473866D02*
X121238095Y-90664342D01*
X121238095Y-90664342D02*
X121285714Y-90759580D01*
X121285714Y-90759580D02*
X121333333Y-90807200D01*
X121333333Y-90807200D02*
X121428571Y-90854819D01*
X121428571Y-90854819D02*
X121619047Y-90854819D01*
X121619047Y-90854819D02*
X121714285Y-90807200D01*
X121714285Y-90807200D02*
X121761904Y-90759580D01*
X121761904Y-90759580D02*
X121809523Y-90664342D01*
X121809523Y-90664342D02*
X121809523Y-90473866D01*
X121809523Y-90473866D02*
X121761904Y-90378628D01*
X121761904Y-90378628D02*
X121714285Y-90331009D01*
X121714285Y-90331009D02*
X121619047Y-90283390D01*
X103978628Y-68626190D02*
X104454819Y-68626190D01*
X103454819Y-68959523D02*
X103978628Y-68626190D01*
X103978628Y-68626190D02*
X103454819Y-68292857D01*
X104454819Y-67435714D02*
X104454819Y-68007142D01*
X104454819Y-67721428D02*
X103454819Y-67721428D01*
X103454819Y-67721428D02*
X103597676Y-67816666D01*
X103597676Y-67816666D02*
X103692914Y-67911904D01*
X103692914Y-67911904D02*
X103740533Y-68007142D01*
X90454819Y-37638094D02*
X91264342Y-37638094D01*
X91264342Y-37638094D02*
X91359580Y-37590475D01*
X91359580Y-37590475D02*
X91407200Y-37542856D01*
X91407200Y-37542856D02*
X91454819Y-37447618D01*
X91454819Y-37447618D02*
X91454819Y-37257142D01*
X91454819Y-37257142D02*
X91407200Y-37161904D01*
X91407200Y-37161904D02*
X91359580Y-37114285D01*
X91359580Y-37114285D02*
X91264342Y-37066666D01*
X91264342Y-37066666D02*
X90454819Y-37066666D01*
X91454819Y-36066666D02*
X91454819Y-36638094D01*
X91454819Y-36352380D02*
X90454819Y-36352380D01*
X90454819Y-36352380D02*
X90597676Y-36447618D01*
X90597676Y-36447618D02*
X90692914Y-36542856D01*
X90692914Y-36542856D02*
X90740533Y-36638094D01*
X90454819Y-35161904D02*
X90454819Y-35638094D01*
X90454819Y-35638094D02*
X90931009Y-35685713D01*
X90931009Y-35685713D02*
X90883390Y-35638094D01*
X90883390Y-35638094D02*
X90835771Y-35542856D01*
X90835771Y-35542856D02*
X90835771Y-35304761D01*
X90835771Y-35304761D02*
X90883390Y-35209523D01*
X90883390Y-35209523D02*
X90931009Y-35161904D01*
X90931009Y-35161904D02*
X91026247Y-35114285D01*
X91026247Y-35114285D02*
X91264342Y-35114285D01*
X91264342Y-35114285D02*
X91359580Y-35161904D01*
X91359580Y-35161904D02*
X91407200Y-35209523D01*
X91407200Y-35209523D02*
X91454819Y-35304761D01*
X91454819Y-35304761D02*
X91454819Y-35542856D01*
X91454819Y-35542856D02*
X91407200Y-35638094D01*
X91407200Y-35638094D02*
X91359580Y-35685713D01*
X107854819Y-91561904D02*
X108664342Y-91561904D01*
X108664342Y-91561904D02*
X108759580Y-91514285D01*
X108759580Y-91514285D02*
X108807200Y-91466666D01*
X108807200Y-91466666D02*
X108854819Y-91371428D01*
X108854819Y-91371428D02*
X108854819Y-91180952D01*
X108854819Y-91180952D02*
X108807200Y-91085714D01*
X108807200Y-91085714D02*
X108759580Y-91038095D01*
X108759580Y-91038095D02*
X108664342Y-90990476D01*
X108664342Y-90990476D02*
X107854819Y-90990476D01*
X107854819Y-90038095D02*
X107854819Y-90514285D01*
X107854819Y-90514285D02*
X108331009Y-90561904D01*
X108331009Y-90561904D02*
X108283390Y-90514285D01*
X108283390Y-90514285D02*
X108235771Y-90419047D01*
X108235771Y-90419047D02*
X108235771Y-90180952D01*
X108235771Y-90180952D02*
X108283390Y-90085714D01*
X108283390Y-90085714D02*
X108331009Y-90038095D01*
X108331009Y-90038095D02*
X108426247Y-89990476D01*
X108426247Y-89990476D02*
X108664342Y-89990476D01*
X108664342Y-89990476D02*
X108759580Y-90038095D01*
X108759580Y-90038095D02*
X108807200Y-90085714D01*
X108807200Y-90085714D02*
X108854819Y-90180952D01*
X108854819Y-90180952D02*
X108854819Y-90419047D01*
X108854819Y-90419047D02*
X108807200Y-90514285D01*
X108807200Y-90514285D02*
X108759580Y-90561904D01*
X61266666Y-89654819D02*
X61266666Y-90369104D01*
X61266666Y-90369104D02*
X61219047Y-90511961D01*
X61219047Y-90511961D02*
X61123809Y-90607200D01*
X61123809Y-90607200D02*
X60980952Y-90654819D01*
X60980952Y-90654819D02*
X60885714Y-90654819D01*
X62171428Y-89988152D02*
X62171428Y-90654819D01*
X61933333Y-89607200D02*
X61695238Y-90321485D01*
X61695238Y-90321485D02*
X62314285Y-90321485D01*
X134866666Y-79454819D02*
X134866666Y-80169104D01*
X134866666Y-80169104D02*
X134819047Y-80311961D01*
X134819047Y-80311961D02*
X134723809Y-80407200D01*
X134723809Y-80407200D02*
X134580952Y-80454819D01*
X134580952Y-80454819D02*
X134485714Y-80454819D01*
X135247619Y-79454819D02*
X135914285Y-79454819D01*
X135914285Y-79454819D02*
X135485714Y-80454819D01*
X56266666Y-85254819D02*
X56266666Y-85969104D01*
X56266666Y-85969104D02*
X56219047Y-86111961D01*
X56219047Y-86111961D02*
X56123809Y-86207200D01*
X56123809Y-86207200D02*
X55980952Y-86254819D01*
X55980952Y-86254819D02*
X55885714Y-86254819D01*
X56647619Y-85254819D02*
X57266666Y-85254819D01*
X57266666Y-85254819D02*
X56933333Y-85635771D01*
X56933333Y-85635771D02*
X57076190Y-85635771D01*
X57076190Y-85635771D02*
X57171428Y-85683390D01*
X57171428Y-85683390D02*
X57219047Y-85731009D01*
X57219047Y-85731009D02*
X57266666Y-85826247D01*
X57266666Y-85826247D02*
X57266666Y-86064342D01*
X57266666Y-86064342D02*
X57219047Y-86159580D01*
X57219047Y-86159580D02*
X57171428Y-86207200D01*
X57171428Y-86207200D02*
X57076190Y-86254819D01*
X57076190Y-86254819D02*
X56790476Y-86254819D01*
X56790476Y-86254819D02*
X56695238Y-86207200D01*
X56695238Y-86207200D02*
X56647619Y-86159580D01*
X125866666Y-60854819D02*
X125866666Y-61569104D01*
X125866666Y-61569104D02*
X125819047Y-61711961D01*
X125819047Y-61711961D02*
X125723809Y-61807200D01*
X125723809Y-61807200D02*
X125580952Y-61854819D01*
X125580952Y-61854819D02*
X125485714Y-61854819D01*
X126390476Y-61854819D02*
X126580952Y-61854819D01*
X126580952Y-61854819D02*
X126676190Y-61807200D01*
X126676190Y-61807200D02*
X126723809Y-61759580D01*
X126723809Y-61759580D02*
X126819047Y-61616723D01*
X126819047Y-61616723D02*
X126866666Y-61426247D01*
X126866666Y-61426247D02*
X126866666Y-61045295D01*
X126866666Y-61045295D02*
X126819047Y-60950057D01*
X126819047Y-60950057D02*
X126771428Y-60902438D01*
X126771428Y-60902438D02*
X126676190Y-60854819D01*
X126676190Y-60854819D02*
X126485714Y-60854819D01*
X126485714Y-60854819D02*
X126390476Y-60902438D01*
X126390476Y-60902438D02*
X126342857Y-60950057D01*
X126342857Y-60950057D02*
X126295238Y-61045295D01*
X126295238Y-61045295D02*
X126295238Y-61283390D01*
X126295238Y-61283390D02*
X126342857Y-61378628D01*
X126342857Y-61378628D02*
X126390476Y-61426247D01*
X126390476Y-61426247D02*
X126485714Y-61473866D01*
X126485714Y-61473866D02*
X126676190Y-61473866D01*
X126676190Y-61473866D02*
X126771428Y-61426247D01*
X126771428Y-61426247D02*
X126819047Y-61378628D01*
X126819047Y-61378628D02*
X126866666Y-61283390D01*
X127761905Y-75254819D02*
X127761905Y-76064342D01*
X127761905Y-76064342D02*
X127809524Y-76159580D01*
X127809524Y-76159580D02*
X127857143Y-76207200D01*
X127857143Y-76207200D02*
X127952381Y-76254819D01*
X127952381Y-76254819D02*
X128142857Y-76254819D01*
X128142857Y-76254819D02*
X128238095Y-76207200D01*
X128238095Y-76207200D02*
X128285714Y-76159580D01*
X128285714Y-76159580D02*
X128333333Y-76064342D01*
X128333333Y-76064342D02*
X128333333Y-75254819D01*
X129333333Y-76254819D02*
X128761905Y-76254819D01*
X129047619Y-76254819D02*
X129047619Y-75254819D01*
X129047619Y-75254819D02*
X128952381Y-75397676D01*
X128952381Y-75397676D02*
X128857143Y-75492914D01*
X128857143Y-75492914D02*
X128761905Y-75540533D01*
X129952381Y-75254819D02*
X130047619Y-75254819D01*
X130047619Y-75254819D02*
X130142857Y-75302438D01*
X130142857Y-75302438D02*
X130190476Y-75350057D01*
X130190476Y-75350057D02*
X130238095Y-75445295D01*
X130238095Y-75445295D02*
X130285714Y-75635771D01*
X130285714Y-75635771D02*
X130285714Y-75873866D01*
X130285714Y-75873866D02*
X130238095Y-76064342D01*
X130238095Y-76064342D02*
X130190476Y-76159580D01*
X130190476Y-76159580D02*
X130142857Y-76207200D01*
X130142857Y-76207200D02*
X130047619Y-76254819D01*
X130047619Y-76254819D02*
X129952381Y-76254819D01*
X129952381Y-76254819D02*
X129857143Y-76207200D01*
X129857143Y-76207200D02*
X129809524Y-76159580D01*
X129809524Y-76159580D02*
X129761905Y-76064342D01*
X129761905Y-76064342D02*
X129714286Y-75873866D01*
X129714286Y-75873866D02*
X129714286Y-75635771D01*
X129714286Y-75635771D02*
X129761905Y-75445295D01*
X129761905Y-75445295D02*
X129809524Y-75350057D01*
X129809524Y-75350057D02*
X129857143Y-75302438D01*
X129857143Y-75302438D02*
X129952381Y-75254819D01*
X134654819Y-87488094D02*
X135464342Y-87488094D01*
X135464342Y-87488094D02*
X135559580Y-87440475D01*
X135559580Y-87440475D02*
X135607200Y-87392856D01*
X135607200Y-87392856D02*
X135654819Y-87297618D01*
X135654819Y-87297618D02*
X135654819Y-87107142D01*
X135654819Y-87107142D02*
X135607200Y-87011904D01*
X135607200Y-87011904D02*
X135559580Y-86964285D01*
X135559580Y-86964285D02*
X135464342Y-86916666D01*
X135464342Y-86916666D02*
X134654819Y-86916666D01*
X135654819Y-85916666D02*
X135654819Y-86488094D01*
X135654819Y-86202380D02*
X134654819Y-86202380D01*
X134654819Y-86202380D02*
X134797676Y-86297618D01*
X134797676Y-86297618D02*
X134892914Y-86392856D01*
X134892914Y-86392856D02*
X134940533Y-86488094D01*
X135654819Y-84964285D02*
X135654819Y-85535713D01*
X135654819Y-85249999D02*
X134654819Y-85249999D01*
X134654819Y-85249999D02*
X134797676Y-85345237D01*
X134797676Y-85345237D02*
X134892914Y-85440475D01*
X134892914Y-85440475D02*
X134940533Y-85535713D01*
X53666666Y-69654819D02*
X53666666Y-70369104D01*
X53666666Y-70369104D02*
X53619047Y-70511961D01*
X53619047Y-70511961D02*
X53523809Y-70607200D01*
X53523809Y-70607200D02*
X53380952Y-70654819D01*
X53380952Y-70654819D02*
X53285714Y-70654819D01*
X54095238Y-69750057D02*
X54142857Y-69702438D01*
X54142857Y-69702438D02*
X54238095Y-69654819D01*
X54238095Y-69654819D02*
X54476190Y-69654819D01*
X54476190Y-69654819D02*
X54571428Y-69702438D01*
X54571428Y-69702438D02*
X54619047Y-69750057D01*
X54619047Y-69750057D02*
X54666666Y-69845295D01*
X54666666Y-69845295D02*
X54666666Y-69940533D01*
X54666666Y-69940533D02*
X54619047Y-70083390D01*
X54619047Y-70083390D02*
X54047619Y-70654819D01*
X54047619Y-70654819D02*
X54666666Y-70654819D01*
X126238095Y-66954819D02*
X126238095Y-67764342D01*
X126238095Y-67764342D02*
X126285714Y-67859580D01*
X126285714Y-67859580D02*
X126333333Y-67907200D01*
X126333333Y-67907200D02*
X126428571Y-67954819D01*
X126428571Y-67954819D02*
X126619047Y-67954819D01*
X126619047Y-67954819D02*
X126714285Y-67907200D01*
X126714285Y-67907200D02*
X126761904Y-67859580D01*
X126761904Y-67859580D02*
X126809523Y-67764342D01*
X126809523Y-67764342D02*
X126809523Y-66954819D01*
X127238095Y-67050057D02*
X127285714Y-67002438D01*
X127285714Y-67002438D02*
X127380952Y-66954819D01*
X127380952Y-66954819D02*
X127619047Y-66954819D01*
X127619047Y-66954819D02*
X127714285Y-67002438D01*
X127714285Y-67002438D02*
X127761904Y-67050057D01*
X127761904Y-67050057D02*
X127809523Y-67145295D01*
X127809523Y-67145295D02*
X127809523Y-67240533D01*
X127809523Y-67240533D02*
X127761904Y-67383390D01*
X127761904Y-67383390D02*
X127190476Y-67954819D01*
X127190476Y-67954819D02*
X127809523Y-67954819D01*
X114454819Y-87561904D02*
X115264342Y-87561904D01*
X115264342Y-87561904D02*
X115359580Y-87514285D01*
X115359580Y-87514285D02*
X115407200Y-87466666D01*
X115407200Y-87466666D02*
X115454819Y-87371428D01*
X115454819Y-87371428D02*
X115454819Y-87180952D01*
X115454819Y-87180952D02*
X115407200Y-87085714D01*
X115407200Y-87085714D02*
X115359580Y-87038095D01*
X115359580Y-87038095D02*
X115264342Y-86990476D01*
X115264342Y-86990476D02*
X114454819Y-86990476D01*
X114454819Y-86085714D02*
X114454819Y-86276190D01*
X114454819Y-86276190D02*
X114502438Y-86371428D01*
X114502438Y-86371428D02*
X114550057Y-86419047D01*
X114550057Y-86419047D02*
X114692914Y-86514285D01*
X114692914Y-86514285D02*
X114883390Y-86561904D01*
X114883390Y-86561904D02*
X115264342Y-86561904D01*
X115264342Y-86561904D02*
X115359580Y-86514285D01*
X115359580Y-86514285D02*
X115407200Y-86466666D01*
X115407200Y-86466666D02*
X115454819Y-86371428D01*
X115454819Y-86371428D02*
X115454819Y-86180952D01*
X115454819Y-86180952D02*
X115407200Y-86085714D01*
X115407200Y-86085714D02*
X115359580Y-86038095D01*
X115359580Y-86038095D02*
X115264342Y-85990476D01*
X115264342Y-85990476D02*
X115026247Y-85990476D01*
X115026247Y-85990476D02*
X114931009Y-86038095D01*
X114931009Y-86038095D02*
X114883390Y-86085714D01*
X114883390Y-86085714D02*
X114835771Y-86180952D01*
X114835771Y-86180952D02*
X114835771Y-86371428D01*
X114835771Y-86371428D02*
X114883390Y-86466666D01*
X114883390Y-86466666D02*
X114931009Y-86514285D01*
X114931009Y-86514285D02*
X115026247Y-86561904D01*
X123504761Y-68050057D02*
X123409523Y-68002438D01*
X123409523Y-68002438D02*
X123314285Y-67907200D01*
X123314285Y-67907200D02*
X123171428Y-67764342D01*
X123171428Y-67764342D02*
X123076190Y-67716723D01*
X123076190Y-67716723D02*
X122980952Y-67716723D01*
X123028571Y-67954819D02*
X122933333Y-67907200D01*
X122933333Y-67907200D02*
X122838095Y-67811961D01*
X122838095Y-67811961D02*
X122790476Y-67621485D01*
X122790476Y-67621485D02*
X122790476Y-67288152D01*
X122790476Y-67288152D02*
X122838095Y-67097676D01*
X122838095Y-67097676D02*
X122933333Y-67002438D01*
X122933333Y-67002438D02*
X123028571Y-66954819D01*
X123028571Y-66954819D02*
X123219047Y-66954819D01*
X123219047Y-66954819D02*
X123314285Y-67002438D01*
X123314285Y-67002438D02*
X123409523Y-67097676D01*
X123409523Y-67097676D02*
X123457142Y-67288152D01*
X123457142Y-67288152D02*
X123457142Y-67621485D01*
X123457142Y-67621485D02*
X123409523Y-67811961D01*
X123409523Y-67811961D02*
X123314285Y-67907200D01*
X123314285Y-67907200D02*
X123219047Y-67954819D01*
X123219047Y-67954819D02*
X123028571Y-67954819D01*
X123790476Y-66954819D02*
X124409523Y-66954819D01*
X124409523Y-66954819D02*
X124076190Y-67335771D01*
X124076190Y-67335771D02*
X124219047Y-67335771D01*
X124219047Y-67335771D02*
X124314285Y-67383390D01*
X124314285Y-67383390D02*
X124361904Y-67431009D01*
X124361904Y-67431009D02*
X124409523Y-67526247D01*
X124409523Y-67526247D02*
X124409523Y-67764342D01*
X124409523Y-67764342D02*
X124361904Y-67859580D01*
X124361904Y-67859580D02*
X124314285Y-67907200D01*
X124314285Y-67907200D02*
X124219047Y-67954819D01*
X124219047Y-67954819D02*
X123933333Y-67954819D01*
X123933333Y-67954819D02*
X123838095Y-67907200D01*
X123838095Y-67907200D02*
X123790476Y-67859580D01*
X82404761Y-68800057D02*
X82309523Y-68752438D01*
X82309523Y-68752438D02*
X82214285Y-68657200D01*
X82214285Y-68657200D02*
X82071428Y-68514342D01*
X82071428Y-68514342D02*
X81976190Y-68466723D01*
X81976190Y-68466723D02*
X81880952Y-68466723D01*
X81928571Y-68704819D02*
X81833333Y-68657200D01*
X81833333Y-68657200D02*
X81738095Y-68561961D01*
X81738095Y-68561961D02*
X81690476Y-68371485D01*
X81690476Y-68371485D02*
X81690476Y-68038152D01*
X81690476Y-68038152D02*
X81738095Y-67847676D01*
X81738095Y-67847676D02*
X81833333Y-67752438D01*
X81833333Y-67752438D02*
X81928571Y-67704819D01*
X81928571Y-67704819D02*
X82119047Y-67704819D01*
X82119047Y-67704819D02*
X82214285Y-67752438D01*
X82214285Y-67752438D02*
X82309523Y-67847676D01*
X82309523Y-67847676D02*
X82357142Y-68038152D01*
X82357142Y-68038152D02*
X82357142Y-68371485D01*
X82357142Y-68371485D02*
X82309523Y-68561961D01*
X82309523Y-68561961D02*
X82214285Y-68657200D01*
X82214285Y-68657200D02*
X82119047Y-68704819D01*
X82119047Y-68704819D02*
X81928571Y-68704819D01*
X83261904Y-67704819D02*
X82785714Y-67704819D01*
X82785714Y-67704819D02*
X82738095Y-68181009D01*
X82738095Y-68181009D02*
X82785714Y-68133390D01*
X82785714Y-68133390D02*
X82880952Y-68085771D01*
X82880952Y-68085771D02*
X83119047Y-68085771D01*
X83119047Y-68085771D02*
X83214285Y-68133390D01*
X83214285Y-68133390D02*
X83261904Y-68181009D01*
X83261904Y-68181009D02*
X83309523Y-68276247D01*
X83309523Y-68276247D02*
X83309523Y-68514342D01*
X83309523Y-68514342D02*
X83261904Y-68609580D01*
X83261904Y-68609580D02*
X83214285Y-68657200D01*
X83214285Y-68657200D02*
X83119047Y-68704819D01*
X83119047Y-68704819D02*
X82880952Y-68704819D01*
X82880952Y-68704819D02*
X82785714Y-68657200D01*
X82785714Y-68657200D02*
X82738095Y-68609580D01*
X114054819Y-55409523D02*
X114769104Y-55409523D01*
X114769104Y-55409523D02*
X114911961Y-55457142D01*
X114911961Y-55457142D02*
X115007200Y-55552380D01*
X115007200Y-55552380D02*
X115054819Y-55695237D01*
X115054819Y-55695237D02*
X115054819Y-55790475D01*
X115054819Y-54409523D02*
X115054819Y-54980951D01*
X115054819Y-54695237D02*
X114054819Y-54695237D01*
X114054819Y-54695237D02*
X114197676Y-54790475D01*
X114197676Y-54790475D02*
X114292914Y-54885713D01*
X114292914Y-54885713D02*
X114340533Y-54980951D01*
X114150057Y-54028570D02*
X114102438Y-53980951D01*
X114102438Y-53980951D02*
X114054819Y-53885713D01*
X114054819Y-53885713D02*
X114054819Y-53647618D01*
X114054819Y-53647618D02*
X114102438Y-53552380D01*
X114102438Y-53552380D02*
X114150057Y-53504761D01*
X114150057Y-53504761D02*
X114245295Y-53457142D01*
X114245295Y-53457142D02*
X114340533Y-53457142D01*
X114340533Y-53457142D02*
X114483390Y-53504761D01*
X114483390Y-53504761D02*
X115054819Y-54076189D01*
X115054819Y-54076189D02*
X115054819Y-53457142D01*
X66761905Y-63454819D02*
X66761905Y-64264342D01*
X66761905Y-64264342D02*
X66809524Y-64359580D01*
X66809524Y-64359580D02*
X66857143Y-64407200D01*
X66857143Y-64407200D02*
X66952381Y-64454819D01*
X66952381Y-64454819D02*
X67142857Y-64454819D01*
X67142857Y-64454819D02*
X67238095Y-64407200D01*
X67238095Y-64407200D02*
X67285714Y-64359580D01*
X67285714Y-64359580D02*
X67333333Y-64264342D01*
X67333333Y-64264342D02*
X67333333Y-63454819D01*
X68333333Y-64454819D02*
X67761905Y-64454819D01*
X68047619Y-64454819D02*
X68047619Y-63454819D01*
X68047619Y-63454819D02*
X67952381Y-63597676D01*
X67952381Y-63597676D02*
X67857143Y-63692914D01*
X67857143Y-63692914D02*
X67761905Y-63740533D01*
X68666667Y-63454819D02*
X69285714Y-63454819D01*
X69285714Y-63454819D02*
X68952381Y-63835771D01*
X68952381Y-63835771D02*
X69095238Y-63835771D01*
X69095238Y-63835771D02*
X69190476Y-63883390D01*
X69190476Y-63883390D02*
X69238095Y-63931009D01*
X69238095Y-63931009D02*
X69285714Y-64026247D01*
X69285714Y-64026247D02*
X69285714Y-64264342D01*
X69285714Y-64264342D02*
X69238095Y-64359580D01*
X69238095Y-64359580D02*
X69190476Y-64407200D01*
X69190476Y-64407200D02*
X69095238Y-64454819D01*
X69095238Y-64454819D02*
X68809524Y-64454819D01*
X68809524Y-64454819D02*
X68714286Y-64407200D01*
X68714286Y-64407200D02*
X68666667Y-64359580D01*
X77704761Y-88550057D02*
X77609523Y-88502438D01*
X77609523Y-88502438D02*
X77514285Y-88407200D01*
X77514285Y-88407200D02*
X77371428Y-88264342D01*
X77371428Y-88264342D02*
X77276190Y-88216723D01*
X77276190Y-88216723D02*
X77180952Y-88216723D01*
X77228571Y-88454819D02*
X77133333Y-88407200D01*
X77133333Y-88407200D02*
X77038095Y-88311961D01*
X77038095Y-88311961D02*
X76990476Y-88121485D01*
X76990476Y-88121485D02*
X76990476Y-87788152D01*
X76990476Y-87788152D02*
X77038095Y-87597676D01*
X77038095Y-87597676D02*
X77133333Y-87502438D01*
X77133333Y-87502438D02*
X77228571Y-87454819D01*
X77228571Y-87454819D02*
X77419047Y-87454819D01*
X77419047Y-87454819D02*
X77514285Y-87502438D01*
X77514285Y-87502438D02*
X77609523Y-87597676D01*
X77609523Y-87597676D02*
X77657142Y-87788152D01*
X77657142Y-87788152D02*
X77657142Y-88121485D01*
X77657142Y-88121485D02*
X77609523Y-88311961D01*
X77609523Y-88311961D02*
X77514285Y-88407200D01*
X77514285Y-88407200D02*
X77419047Y-88454819D01*
X77419047Y-88454819D02*
X77228571Y-88454819D01*
X78514285Y-87788152D02*
X78514285Y-88454819D01*
X78276190Y-87407200D02*
X78038095Y-88121485D01*
X78038095Y-88121485D02*
X78657142Y-88121485D01*
X120588095Y-56354819D02*
X120588095Y-57164342D01*
X120588095Y-57164342D02*
X120635714Y-57259580D01*
X120635714Y-57259580D02*
X120683333Y-57307200D01*
X120683333Y-57307200D02*
X120778571Y-57354819D01*
X120778571Y-57354819D02*
X120969047Y-57354819D01*
X120969047Y-57354819D02*
X121064285Y-57307200D01*
X121064285Y-57307200D02*
X121111904Y-57259580D01*
X121111904Y-57259580D02*
X121159523Y-57164342D01*
X121159523Y-57164342D02*
X121159523Y-56354819D01*
X121540476Y-56354819D02*
X122159523Y-56354819D01*
X122159523Y-56354819D02*
X121826190Y-56735771D01*
X121826190Y-56735771D02*
X121969047Y-56735771D01*
X121969047Y-56735771D02*
X122064285Y-56783390D01*
X122064285Y-56783390D02*
X122111904Y-56831009D01*
X122111904Y-56831009D02*
X122159523Y-56926247D01*
X122159523Y-56926247D02*
X122159523Y-57164342D01*
X122159523Y-57164342D02*
X122111904Y-57259580D01*
X122111904Y-57259580D02*
X122064285Y-57307200D01*
X122064285Y-57307200D02*
X121969047Y-57354819D01*
X121969047Y-57354819D02*
X121683333Y-57354819D01*
X121683333Y-57354819D02*
X121588095Y-57307200D01*
X121588095Y-57307200D02*
X121540476Y-57259580D01*
X86454819Y-85809523D02*
X87169104Y-85809523D01*
X87169104Y-85809523D02*
X87311961Y-85857142D01*
X87311961Y-85857142D02*
X87407200Y-85952380D01*
X87407200Y-85952380D02*
X87454819Y-86095237D01*
X87454819Y-86095237D02*
X87454819Y-86190475D01*
X87454819Y-84809523D02*
X87454819Y-85380951D01*
X87454819Y-85095237D02*
X86454819Y-85095237D01*
X86454819Y-85095237D02*
X86597676Y-85190475D01*
X86597676Y-85190475D02*
X86692914Y-85285713D01*
X86692914Y-85285713D02*
X86740533Y-85380951D01*
X87454819Y-83857142D02*
X87454819Y-84428570D01*
X87454819Y-84142856D02*
X86454819Y-84142856D01*
X86454819Y-84142856D02*
X86597676Y-84238094D01*
X86597676Y-84238094D02*
X86692914Y-84333332D01*
X86692914Y-84333332D02*
X86740533Y-84428570D01*
X99638095Y-68054819D02*
X99638095Y-68864342D01*
X99638095Y-68864342D02*
X99685714Y-68959580D01*
X99685714Y-68959580D02*
X99733333Y-69007200D01*
X99733333Y-69007200D02*
X99828571Y-69054819D01*
X99828571Y-69054819D02*
X100019047Y-69054819D01*
X100019047Y-69054819D02*
X100114285Y-69007200D01*
X100114285Y-69007200D02*
X100161904Y-68959580D01*
X100161904Y-68959580D02*
X100209523Y-68864342D01*
X100209523Y-68864342D02*
X100209523Y-68054819D01*
X100590476Y-68054819D02*
X101257142Y-68054819D01*
X101257142Y-68054819D02*
X100828571Y-69054819D01*
X121254819Y-85333333D02*
X121969104Y-85333333D01*
X121969104Y-85333333D02*
X122111961Y-85380952D01*
X122111961Y-85380952D02*
X122207200Y-85476190D01*
X122207200Y-85476190D02*
X122254819Y-85619047D01*
X122254819Y-85619047D02*
X122254819Y-85714285D01*
X121683390Y-84714285D02*
X121635771Y-84809523D01*
X121635771Y-84809523D02*
X121588152Y-84857142D01*
X121588152Y-84857142D02*
X121492914Y-84904761D01*
X121492914Y-84904761D02*
X121445295Y-84904761D01*
X121445295Y-84904761D02*
X121350057Y-84857142D01*
X121350057Y-84857142D02*
X121302438Y-84809523D01*
X121302438Y-84809523D02*
X121254819Y-84714285D01*
X121254819Y-84714285D02*
X121254819Y-84523809D01*
X121254819Y-84523809D02*
X121302438Y-84428571D01*
X121302438Y-84428571D02*
X121350057Y-84380952D01*
X121350057Y-84380952D02*
X121445295Y-84333333D01*
X121445295Y-84333333D02*
X121492914Y-84333333D01*
X121492914Y-84333333D02*
X121588152Y-84380952D01*
X121588152Y-84380952D02*
X121635771Y-84428571D01*
X121635771Y-84428571D02*
X121683390Y-84523809D01*
X121683390Y-84523809D02*
X121683390Y-84714285D01*
X121683390Y-84714285D02*
X121731009Y-84809523D01*
X121731009Y-84809523D02*
X121778628Y-84857142D01*
X121778628Y-84857142D02*
X121873866Y-84904761D01*
X121873866Y-84904761D02*
X122064342Y-84904761D01*
X122064342Y-84904761D02*
X122159580Y-84857142D01*
X122159580Y-84857142D02*
X122207200Y-84809523D01*
X122207200Y-84809523D02*
X122254819Y-84714285D01*
X122254819Y-84714285D02*
X122254819Y-84523809D01*
X122254819Y-84523809D02*
X122207200Y-84428571D01*
X122207200Y-84428571D02*
X122159580Y-84380952D01*
X122159580Y-84380952D02*
X122064342Y-84333333D01*
X122064342Y-84333333D02*
X121873866Y-84333333D01*
X121873866Y-84333333D02*
X121778628Y-84380952D01*
X121778628Y-84380952D02*
X121731009Y-84428571D01*
X121731009Y-84428571D02*
X121683390Y-84523809D01*
X93761905Y-50054819D02*
X93761905Y-50864342D01*
X93761905Y-50864342D02*
X93809524Y-50959580D01*
X93809524Y-50959580D02*
X93857143Y-51007200D01*
X93857143Y-51007200D02*
X93952381Y-51054819D01*
X93952381Y-51054819D02*
X94142857Y-51054819D01*
X94142857Y-51054819D02*
X94238095Y-51007200D01*
X94238095Y-51007200D02*
X94285714Y-50959580D01*
X94285714Y-50959580D02*
X94333333Y-50864342D01*
X94333333Y-50864342D02*
X94333333Y-50054819D01*
X95333333Y-51054819D02*
X94761905Y-51054819D01*
X95047619Y-51054819D02*
X95047619Y-50054819D01*
X95047619Y-50054819D02*
X94952381Y-50197676D01*
X94952381Y-50197676D02*
X94857143Y-50292914D01*
X94857143Y-50292914D02*
X94761905Y-50340533D01*
X95714286Y-50150057D02*
X95761905Y-50102438D01*
X95761905Y-50102438D02*
X95857143Y-50054819D01*
X95857143Y-50054819D02*
X96095238Y-50054819D01*
X96095238Y-50054819D02*
X96190476Y-50102438D01*
X96190476Y-50102438D02*
X96238095Y-50150057D01*
X96238095Y-50150057D02*
X96285714Y-50245295D01*
X96285714Y-50245295D02*
X96285714Y-50340533D01*
X96285714Y-50340533D02*
X96238095Y-50483390D01*
X96238095Y-50483390D02*
X95666667Y-51054819D01*
X95666667Y-51054819D02*
X96285714Y-51054819D01*
X115150057Y-66295238D02*
X115102438Y-66390476D01*
X115102438Y-66390476D02*
X115007200Y-66485714D01*
X115007200Y-66485714D02*
X114864342Y-66628571D01*
X114864342Y-66628571D02*
X114816723Y-66723809D01*
X114816723Y-66723809D02*
X114816723Y-66819047D01*
X115054819Y-66771428D02*
X115007200Y-66866666D01*
X115007200Y-66866666D02*
X114911961Y-66961904D01*
X114911961Y-66961904D02*
X114721485Y-67009523D01*
X114721485Y-67009523D02*
X114388152Y-67009523D01*
X114388152Y-67009523D02*
X114197676Y-66961904D01*
X114197676Y-66961904D02*
X114102438Y-66866666D01*
X114102438Y-66866666D02*
X114054819Y-66771428D01*
X114054819Y-66771428D02*
X114054819Y-66580952D01*
X114054819Y-66580952D02*
X114102438Y-66485714D01*
X114102438Y-66485714D02*
X114197676Y-66390476D01*
X114197676Y-66390476D02*
X114388152Y-66342857D01*
X114388152Y-66342857D02*
X114721485Y-66342857D01*
X114721485Y-66342857D02*
X114911961Y-66390476D01*
X114911961Y-66390476D02*
X115007200Y-66485714D01*
X115007200Y-66485714D02*
X115054819Y-66580952D01*
X115054819Y-66580952D02*
X115054819Y-66771428D01*
X114150057Y-65961904D02*
X114102438Y-65914285D01*
X114102438Y-65914285D02*
X114054819Y-65819047D01*
X114054819Y-65819047D02*
X114054819Y-65580952D01*
X114054819Y-65580952D02*
X114102438Y-65485714D01*
X114102438Y-65485714D02*
X114150057Y-65438095D01*
X114150057Y-65438095D02*
X114245295Y-65390476D01*
X114245295Y-65390476D02*
X114340533Y-65390476D01*
X114340533Y-65390476D02*
X114483390Y-65438095D01*
X114483390Y-65438095D02*
X115054819Y-66009523D01*
X115054819Y-66009523D02*
X115054819Y-65390476D01*
X133561905Y-55454819D02*
X133561905Y-56264342D01*
X133561905Y-56264342D02*
X133609524Y-56359580D01*
X133609524Y-56359580D02*
X133657143Y-56407200D01*
X133657143Y-56407200D02*
X133752381Y-56454819D01*
X133752381Y-56454819D02*
X133942857Y-56454819D01*
X133942857Y-56454819D02*
X134038095Y-56407200D01*
X134038095Y-56407200D02*
X134085714Y-56359580D01*
X134085714Y-56359580D02*
X134133333Y-56264342D01*
X134133333Y-56264342D02*
X134133333Y-55454819D01*
X135133333Y-56454819D02*
X134561905Y-56454819D01*
X134847619Y-56454819D02*
X134847619Y-55454819D01*
X134847619Y-55454819D02*
X134752381Y-55597676D01*
X134752381Y-55597676D02*
X134657143Y-55692914D01*
X134657143Y-55692914D02*
X134561905Y-55740533D01*
X135990476Y-55788152D02*
X135990476Y-56454819D01*
X135752381Y-55407200D02*
X135514286Y-56121485D01*
X135514286Y-56121485D02*
X136133333Y-56121485D01*
X137750057Y-68095238D02*
X137702438Y-68190476D01*
X137702438Y-68190476D02*
X137607200Y-68285714D01*
X137607200Y-68285714D02*
X137464342Y-68428571D01*
X137464342Y-68428571D02*
X137416723Y-68523809D01*
X137416723Y-68523809D02*
X137416723Y-68619047D01*
X137654819Y-68571428D02*
X137607200Y-68666666D01*
X137607200Y-68666666D02*
X137511961Y-68761904D01*
X137511961Y-68761904D02*
X137321485Y-68809523D01*
X137321485Y-68809523D02*
X136988152Y-68809523D01*
X136988152Y-68809523D02*
X136797676Y-68761904D01*
X136797676Y-68761904D02*
X136702438Y-68666666D01*
X136702438Y-68666666D02*
X136654819Y-68571428D01*
X136654819Y-68571428D02*
X136654819Y-68380952D01*
X136654819Y-68380952D02*
X136702438Y-68285714D01*
X136702438Y-68285714D02*
X136797676Y-68190476D01*
X136797676Y-68190476D02*
X136988152Y-68142857D01*
X136988152Y-68142857D02*
X137321485Y-68142857D01*
X137321485Y-68142857D02*
X137511961Y-68190476D01*
X137511961Y-68190476D02*
X137607200Y-68285714D01*
X137607200Y-68285714D02*
X137654819Y-68380952D01*
X137654819Y-68380952D02*
X137654819Y-68571428D01*
X137654819Y-67190476D02*
X137654819Y-67761904D01*
X137654819Y-67476190D02*
X136654819Y-67476190D01*
X136654819Y-67476190D02*
X136797676Y-67571428D01*
X136797676Y-67571428D02*
X136892914Y-67666666D01*
X136892914Y-67666666D02*
X136940533Y-67761904D01*
X106517232Y-59926190D02*
X106993423Y-59926190D01*
X105993423Y-60259523D02*
X106517232Y-59926190D01*
X106517232Y-59926190D02*
X105993423Y-59592857D01*
X106088661Y-59307142D02*
X106041042Y-59259523D01*
X106041042Y-59259523D02*
X105993423Y-59164285D01*
X105993423Y-59164285D02*
X105993423Y-58926190D01*
X105993423Y-58926190D02*
X106041042Y-58830952D01*
X106041042Y-58830952D02*
X106088661Y-58783333D01*
X106088661Y-58783333D02*
X106183899Y-58735714D01*
X106183899Y-58735714D02*
X106279137Y-58735714D01*
X106279137Y-58735714D02*
X106421994Y-58783333D01*
X106421994Y-58783333D02*
X106993423Y-59354761D01*
X106993423Y-59354761D02*
X106993423Y-58735714D01*
X133204819Y-74983333D02*
X133919104Y-74983333D01*
X133919104Y-74983333D02*
X134061961Y-75030952D01*
X134061961Y-75030952D02*
X134157200Y-75126190D01*
X134157200Y-75126190D02*
X134204819Y-75269047D01*
X134204819Y-75269047D02*
X134204819Y-75364285D01*
X134204819Y-73983333D02*
X134204819Y-74554761D01*
X134204819Y-74269047D02*
X133204819Y-74269047D01*
X133204819Y-74269047D02*
X133347676Y-74364285D01*
X133347676Y-74364285D02*
X133442914Y-74459523D01*
X133442914Y-74459523D02*
X133490533Y-74554761D01*
%TO.C,R57*%
D15*
X111637258Y-69522500D02*
X111162742Y-69522500D01*
X111637258Y-68477500D02*
X111162742Y-68477500D01*
%TO.C,J5*%
X60670000Y-31775000D02*
X76030000Y-31775000D01*
X60670000Y-33105000D02*
X60670000Y-31775000D01*
X76030000Y-31775000D02*
X76030000Y-34435000D01*
X76030000Y-34435000D02*
X60670000Y-34435000D01*
D16*
X62250000Y-34735000D02*
G75*
G02*
X61750000Y-34735000I-250000J0D01*
G01*
X61750000Y-34735000D02*
G75*
G02*
X62250000Y-34735000I250000J0D01*
G01*
%TO.C,C38*%
D15*
X94640580Y-96260000D02*
X94359420Y-96260000D01*
X94640580Y-95240000D02*
X94359420Y-95240000D01*
%TO.C,R29*%
X59262742Y-62227500D02*
X59737258Y-62227500D01*
X59262742Y-63272500D02*
X59737258Y-63272500D01*
%TO.C,R32*%
X55362742Y-88677500D02*
X55837258Y-88677500D01*
X55362742Y-89722500D02*
X55837258Y-89722500D01*
%TO.C,R33*%
X55837258Y-88022500D02*
X55362742Y-88022500D01*
X55837258Y-86977500D02*
X55362742Y-86977500D01*
%TO.C,BZ1*%
D16*
X88700000Y-87750000D02*
X88700000Y-96750000D01*
X88700000Y-96750000D02*
X86330000Y-96750000D01*
X82070000Y-96750000D02*
X79700000Y-96750000D01*
X79700000Y-96750000D02*
X79700000Y-87750000D01*
X79700000Y-87750000D02*
X82070000Y-87750000D01*
X86330000Y-87750000D02*
X88700000Y-87750000D01*
D17*
X79730000Y-87750000D02*
G75*
G02*
X79670000Y-87750000I-30000J0D01*
G01*
X79670000Y-87750000D02*
G75*
G02*
X79730000Y-87750000I30000J0D01*
G01*
D16*
X81100000Y-88690000D02*
G75*
G02*
X80180000Y-88690000I-460000J0D01*
G01*
X80180000Y-88690000D02*
G75*
G02*
X81100000Y-88690000I460000J0D01*
G01*
%TO.C,R39*%
D15*
X111777500Y-36437258D02*
X111777500Y-35962742D01*
X112822500Y-36437258D02*
X112822500Y-35962742D01*
%TO.C,C14*%
X105538748Y-87065000D02*
X106061252Y-87065000D01*
X105538748Y-88535000D02*
X106061252Y-88535000D01*
%TO.C,C61*%
X131659420Y-50490000D02*
X131940580Y-50490000D01*
X131659420Y-51510000D02*
X131940580Y-51510000D01*
%TO.C,C47*%
X135735000Y-58138748D02*
X135735000Y-58661252D01*
X134265000Y-58138748D02*
X134265000Y-58661252D01*
%TO.C,R37*%
X112822500Y-32762742D02*
X112822500Y-33237258D01*
X111777500Y-32762742D02*
X111777500Y-33237258D01*
%TO.C,J10*%
X80850000Y-40740000D02*
X91150000Y-40740000D01*
X91150000Y-40740000D02*
X91150000Y-42860000D01*
X91150000Y-42860000D02*
X80850000Y-42860000D01*
X80850000Y-42860000D02*
X80850000Y-40740000D01*
D16*
X80800000Y-41800000D02*
G75*
G02*
X80300000Y-41800000I-250000J0D01*
G01*
X80300000Y-41800000D02*
G75*
G02*
X80800000Y-41800000I250000J0D01*
G01*
%TO.C,U1*%
D11*
X116100000Y-71150000D02*
X115950000Y-71150000D01*
X117050000Y-71150000D02*
X117000000Y-71150000D01*
X118000000Y-71150000D02*
X117950000Y-71150000D01*
X119050000Y-71150000D02*
X118900000Y-71150000D01*
X116100000Y-69350000D02*
X115950000Y-69350000D01*
X118000000Y-69350000D02*
X117000000Y-69350000D01*
X119050000Y-69350000D02*
X118900000Y-69350000D01*
X119050000Y-69350000D02*
X119050000Y-71150000D01*
X115950000Y-69350000D02*
X115950000Y-71150000D01*
D17*
X116080000Y-71650000D02*
G75*
G02*
X116020000Y-71650000I-30000J0D01*
G01*
X116020000Y-71650000D02*
G75*
G02*
X116080000Y-71650000I30000J0D01*
G01*
D18*
%TO.C,U9*%
D14*
X97220000Y-87180000D02*
X92780000Y-87180000D01*
X92780000Y-87180000D02*
X92780000Y-79820000D01*
X92780000Y-79820000D02*
X97220000Y-79820000D01*
X97220000Y-79820000D02*
X97220000Y-87180000D01*
D17*
X98930000Y-87100000D02*
G75*
G02*
X98870000Y-87100000I-30000J0D01*
G01*
X98870000Y-87100000D02*
G75*
G02*
X98930000Y-87100000I30000J0D01*
G01*
D19*
X96630000Y-86430000D02*
G75*
G02*
X96310000Y-86430000I-160000J0D01*
G01*
X96310000Y-86430000D02*
G75*
G02*
X96630000Y-86430000I160000J0D01*
G01*
X98640000Y-87060000D02*
G75*
G02*
X98340000Y-87060000I-150000J0D01*
G01*
X98340000Y-87060000D02*
G75*
G02*
X98640000Y-87060000I150000J0D01*
G01*
%TO.C,C10*%
D15*
X105459420Y-93240000D02*
X105740580Y-93240000D01*
X105459420Y-94260000D02*
X105740580Y-94260000D01*
%TO.C,J6*%
X129330000Y-34345000D02*
X113970000Y-34345000D01*
X129330000Y-33015000D02*
X129330000Y-34345000D01*
X113970000Y-34345000D02*
X113970000Y-31685000D01*
X113970000Y-31685000D02*
X129330000Y-31685000D01*
D16*
X128250000Y-31385000D02*
G75*
G02*
X127750000Y-31385000I-250000J0D01*
G01*
X127750000Y-31385000D02*
G75*
G02*
X128250000Y-31385000I250000J0D01*
G01*
%TO.C,R41*%
D15*
X114422500Y-36362742D02*
X114422500Y-36837258D01*
X113377500Y-36362742D02*
X113377500Y-36837258D01*
%TO.C,R12*%
X81487258Y-58772500D02*
X81012742Y-58772500D01*
X81487258Y-57727500D02*
X81012742Y-57727500D01*
%TO.C,R19*%
X104227500Y-51787258D02*
X104227500Y-51312742D01*
X105272500Y-51787258D02*
X105272500Y-51312742D01*
%TO.C,R51*%
X128877500Y-54837258D02*
X128877500Y-54362742D01*
X129922500Y-54837258D02*
X129922500Y-54362742D01*
%TO.C,D12*%
X123410000Y-44450000D02*
X123410000Y-42750000D01*
X123410000Y-44450000D02*
X120750000Y-44450000D01*
X123410000Y-42750000D02*
X120750000Y-42750000D01*
%TO.C,R30*%
X59272500Y-60012742D02*
X59272500Y-60487258D01*
X58227500Y-60012742D02*
X58227500Y-60487258D01*
%TO.C,R56*%
X132237258Y-39322500D02*
X131762742Y-39322500D01*
X132237258Y-38277500D02*
X131762742Y-38277500D01*
%TO.C,C48*%
X131959420Y-62190000D02*
X132240580Y-62190000D01*
X131959420Y-63210000D02*
X132240580Y-63210000D01*
%TO.C,C20*%
X110535000Y-87538748D02*
X110535000Y-88061252D01*
X109065000Y-87538748D02*
X109065000Y-88061252D01*
%TO.C,U16*%
D14*
X129470000Y-44920000D02*
X134530000Y-44920000D01*
X129470000Y-41880000D02*
X134530000Y-41880000D01*
X129470000Y-43840000D02*
X129470000Y-44920000D01*
X129470000Y-42950000D02*
X129470000Y-41880000D01*
X129930000Y-44920000D02*
X129470000Y-44920000D01*
X131200000Y-44920000D02*
X130260000Y-44920000D01*
X132470000Y-44920000D02*
X131530000Y-44920000D01*
X133740000Y-44920000D02*
X132800000Y-44920000D01*
X134530000Y-44920000D02*
X134070000Y-44920000D01*
X134530000Y-41880000D02*
X134530000Y-44920000D01*
X129930000Y-41880000D02*
X129470000Y-41880000D01*
X131200000Y-41880000D02*
X130260000Y-41880000D01*
X132470000Y-41880000D02*
X131530000Y-41880000D01*
X133740000Y-41880000D02*
X132800000Y-41880000D01*
X134530000Y-41880000D02*
X134070000Y-41880000D01*
D17*
X129580000Y-46400000D02*
G75*
G02*
X129520000Y-46400000I-30000J0D01*
G01*
X129520000Y-46400000D02*
G75*
G02*
X129580000Y-46400000I30000J0D01*
G01*
D19*
X130250000Y-44420000D02*
G75*
G02*
X129950000Y-44420000I-150000J0D01*
G01*
X129950000Y-44420000D02*
G75*
G02*
X130250000Y-44420000I150000J0D01*
G01*
D14*
X129470000Y-42950000D02*
G75*
G02*
X129468694Y-43829998I0J-440000D01*
G01*
%TO.C,R55*%
D15*
X127877500Y-45237258D02*
X127877500Y-44762742D01*
X128922500Y-45237258D02*
X128922500Y-44762742D01*
%TO.C,C13*%
X102335000Y-91238748D02*
X102335000Y-91761252D01*
X100865000Y-91238748D02*
X100865000Y-91761252D01*
%TO.C,C69*%
X102138748Y-53465000D02*
X102661252Y-53465000D01*
X102138748Y-54935000D02*
X102661252Y-54935000D01*
%TO.C,D8*%
X73190000Y-43150000D02*
X73190000Y-44850000D01*
X73190000Y-43150000D02*
X75850000Y-43150000D01*
X73190000Y-44850000D02*
X75850000Y-44850000D01*
%TO.C,R40*%
X78322500Y-35162742D02*
X78322500Y-35637258D01*
X77277500Y-35162742D02*
X77277500Y-35637258D01*
%TO.C,C72*%
X86910000Y-57259420D02*
X86910000Y-57540580D01*
X85890000Y-57259420D02*
X85890000Y-57540580D01*
%TO.C,R26*%
X84022500Y-51312742D02*
X84022500Y-51787258D01*
X82977500Y-51312742D02*
X82977500Y-51787258D01*
%TO.C,D2*%
X71935000Y-84085000D02*
X70465000Y-84085000D01*
X70465000Y-84085000D02*
X70465000Y-81800000D01*
X71935000Y-81800000D02*
X71935000Y-84085000D01*
%TO.C,U4*%
D16*
X67950000Y-90875000D02*
X73050000Y-90875000D01*
X73050000Y-90875000D02*
X73050000Y-94975000D01*
X73050000Y-94975000D02*
X67950000Y-94975000D01*
X67950000Y-92125000D02*
X67950000Y-90875000D01*
X67950000Y-93725000D02*
X67950000Y-94975000D01*
D17*
X68080000Y-95875000D02*
G75*
G02*
X68020000Y-95875000I-30000J0D01*
G01*
X68020000Y-95875000D02*
G75*
G02*
X68080000Y-95875000I30000J0D01*
G01*
D16*
X67640000Y-95425000D02*
G75*
G02*
X67300000Y-95425000I-170000J0D01*
G01*
X67300000Y-95425000D02*
G75*
G02*
X67640000Y-95425000I170000J0D01*
G01*
X67992227Y-92121354D02*
G75*
G02*
X68000000Y-93725000I-372227J-803646D01*
G01*
%TO.C,U8*%
D14*
X125580000Y-103636250D02*
X124490000Y-103636250D01*
X125580000Y-100696250D02*
X125580000Y-103636250D01*
X125580000Y-100696250D02*
X125580000Y-99286250D01*
X125580000Y-98226250D02*
X125580000Y-98086250D01*
X125580000Y-97026250D02*
X125580000Y-96886250D01*
X125580000Y-95826250D02*
X125580000Y-95686250D01*
X125580000Y-94626250D02*
X125580000Y-94486250D01*
X125580000Y-93426250D02*
X125580000Y-93046250D01*
X125570000Y-91966250D02*
X125570000Y-93046250D01*
X124650000Y-103636250D02*
X117220000Y-103636250D01*
X124520000Y-91966250D02*
X125570000Y-91966250D01*
D16*
X124350000Y-102926250D02*
X122200000Y-102926250D01*
X124350000Y-101326250D02*
X124350000Y-102926250D01*
X123750000Y-99586250D02*
X118240000Y-99586250D01*
X123750000Y-93486250D02*
X123750000Y-99586250D01*
D14*
X123470000Y-91966250D02*
X123330000Y-91966250D01*
X122270000Y-91966250D02*
X122130000Y-91966250D01*
D16*
X122200000Y-102926250D02*
X122200000Y-101326250D01*
X122200000Y-101326250D02*
X124350000Y-101326250D01*
D14*
X121070000Y-91966250D02*
X120930000Y-91966250D01*
X119870000Y-91966250D02*
X119730000Y-91966250D01*
X118670000Y-91966250D02*
X118530000Y-91966250D01*
D16*
X118240000Y-99586250D02*
X118240000Y-93486250D01*
X118240000Y-93486250D02*
X123750000Y-93486250D01*
D14*
X117530000Y-103636250D02*
X116430000Y-103636250D01*
X117470000Y-91966250D02*
X116430000Y-91966250D01*
X116430000Y-103636250D02*
X116430000Y-99646250D01*
X116430000Y-99646250D02*
X116430000Y-99286250D01*
X116430000Y-98226250D02*
X116430000Y-98086250D01*
X116430000Y-97026250D02*
X116430000Y-96886250D01*
X116430000Y-95826250D02*
X116430000Y-95686250D01*
X116430000Y-94626250D02*
X116430000Y-94486250D01*
X116430000Y-93426250D02*
X116430000Y-93046250D01*
X116430000Y-91966250D02*
X116430000Y-93046250D01*
X116420000Y-99936250D02*
X125520000Y-99936250D01*
D17*
X125530000Y-103556250D02*
G75*
G02*
X125470000Y-103556250I-30000J0D01*
G01*
X125470000Y-103556250D02*
G75*
G02*
X125530000Y-103556250I30000J0D01*
G01*
%TO.C,D6*%
D15*
X76410000Y-47050000D02*
X76410000Y-45350000D01*
X76410000Y-47050000D02*
X73750000Y-47050000D01*
X76410000Y-45350000D02*
X73750000Y-45350000D01*
%TO.C,Y1*%
X106850000Y-66250000D02*
X106850000Y-70050000D01*
X106350000Y-66250000D02*
X106850000Y-66250000D01*
X104950000Y-66250000D02*
X105450000Y-66250000D01*
X106850000Y-70050000D02*
X106350000Y-70050000D01*
X105450000Y-70050000D02*
X104950000Y-70050000D01*
X104950000Y-70050000D02*
X104950000Y-66250000D01*
%TO.C,U15*%
D14*
X98530000Y-34630000D02*
X98530000Y-38170000D01*
X98530000Y-38170000D02*
X91870000Y-38170000D01*
X91870000Y-38170000D02*
X91870000Y-34630000D01*
X91870000Y-34630000D02*
X98530000Y-34630000D01*
D19*
X98290000Y-35380000D02*
G75*
G02*
X97970000Y-35380000I-160000J0D01*
G01*
X97970000Y-35380000D02*
G75*
G02*
X98290000Y-35380000I160000J0D01*
G01*
X98910000Y-33530000D02*
G75*
G02*
X98610000Y-33530000I-150000J0D01*
G01*
X98610000Y-33530000D02*
G75*
G02*
X98910000Y-33530000I150000J0D01*
G01*
%TO.C,C2*%
D15*
X117259420Y-66890000D02*
X117540580Y-66890000D01*
X117259420Y-67910000D02*
X117540580Y-67910000D01*
%TO.C,C35*%
X93011252Y-89735000D02*
X92488748Y-89735000D01*
X93011252Y-88265000D02*
X92488748Y-88265000D01*
%TO.C,U5*%
D14*
X104270000Y-91590000D02*
X104270000Y-89810000D01*
X107350000Y-91590000D02*
X107350000Y-89810000D01*
D19*
X104860000Y-91000000D02*
G75*
G02*
X104560000Y-91000000I-150000J0D01*
G01*
X104560000Y-91000000D02*
G75*
G02*
X104860000Y-91000000I150000J0D01*
G01*
%TO.C,J4*%
D15*
X64450000Y-91200000D02*
X64450000Y-99200000D01*
X59950000Y-91200000D02*
X64450000Y-91200000D01*
X64450000Y-99200000D02*
X59950000Y-99200000D01*
X59950000Y-99200000D02*
X59950000Y-91200000D01*
%TO.C,C4*%
X123615000Y-60161252D02*
X123615000Y-59638748D01*
X125085000Y-60161252D02*
X125085000Y-59638748D01*
%TO.C,C9*%
X73465000Y-97261252D02*
X73465000Y-96738748D01*
X74935000Y-97261252D02*
X74935000Y-96738748D01*
%TO.C,J7*%
X137680000Y-83475000D02*
X122320000Y-83475000D01*
X137680000Y-82145000D02*
X137680000Y-83475000D01*
X122320000Y-83475000D02*
X122320000Y-80815000D01*
X122320000Y-80815000D02*
X137680000Y-80815000D01*
D16*
X136600000Y-80515000D02*
G75*
G02*
X136100000Y-80515000I-250000J0D01*
G01*
X136100000Y-80515000D02*
G75*
G02*
X136600000Y-80515000I250000J0D01*
G01*
%TO.C,D7*%
D15*
X69790000Y-43150000D02*
X69790000Y-44850000D01*
X69790000Y-43150000D02*
X72450000Y-43150000D01*
X69790000Y-44850000D02*
X72450000Y-44850000D01*
%TO.C,C36*%
X93140580Y-91510000D02*
X92859420Y-91510000D01*
X93140580Y-90490000D02*
X92859420Y-90490000D01*
%TO.C,R1*%
X135462258Y-67522500D02*
X134987742Y-67522500D01*
X135462258Y-66477500D02*
X134987742Y-66477500D01*
%TO.C,R22*%
X85772500Y-44812742D02*
X85772500Y-45287258D01*
X84727500Y-44812742D02*
X84727500Y-45287258D01*
%TO.C,R31*%
X59262742Y-65227500D02*
X59737258Y-65227500D01*
X59262742Y-66272500D02*
X59737258Y-66272500D01*
%TO.C,C45*%
X61510000Y-83359420D02*
X61510000Y-83640580D01*
X60490000Y-83359420D02*
X60490000Y-83640580D01*
%TO.C,J3*%
D16*
X58245000Y-75800000D02*
X54815000Y-75800000D01*
X58245000Y-84700000D02*
X54815000Y-84700000D01*
D11*
X54680000Y-75800000D02*
G75*
G02*
X54380000Y-75800000I-150000J0D01*
G01*
X54380000Y-75800000D02*
G75*
G02*
X54680000Y-75800000I150000J0D01*
G01*
%TO.C,J9*%
D15*
X122970000Y-62340000D02*
X129430000Y-62340000D01*
X129430000Y-62340000D02*
X129430000Y-64460000D01*
X129430000Y-64460000D02*
X122970000Y-64460000D01*
X122970000Y-64460000D02*
X122970000Y-62340000D01*
D16*
X122920000Y-63400000D02*
G75*
G02*
X122420000Y-63400000I-250000J0D01*
G01*
X122420000Y-63400000D02*
G75*
G02*
X122920000Y-63400000I250000J0D01*
G01*
%TO.C,C26*%
D15*
X108410000Y-66409420D02*
X108410000Y-66690580D01*
X107390000Y-66409420D02*
X107390000Y-66690580D01*
%TO.C,C67*%
X135090000Y-45740580D02*
X135090000Y-45459420D01*
X136110000Y-45740580D02*
X136110000Y-45459420D01*
%TO.C,R52*%
X128877500Y-51837258D02*
X128877500Y-51362742D01*
X129922500Y-51837258D02*
X129922500Y-51362742D01*
%TO.C,U10*%
D16*
X131110000Y-79750000D02*
X131110000Y-76750000D01*
X131110000Y-76750000D02*
X126840000Y-76750000D01*
X126840000Y-76790000D02*
X126840000Y-79750000D01*
X128240000Y-79750000D02*
X126840000Y-79750000D01*
X131110000Y-79750000D02*
X129710000Y-79750000D01*
D11*
X132250000Y-79750000D02*
G75*
G02*
X132150000Y-79750000I-50000J0D01*
G01*
X132150000Y-79750000D02*
G75*
G02*
X132250000Y-79750000I50000J0D01*
G01*
D19*
X131570000Y-79980000D02*
G75*
G02*
X131569852Y-79982541I150000J-10000D01*
G01*
D16*
X128230000Y-79750000D02*
G75*
G02*
X129690000Y-79750000I730000J0D01*
G01*
%TO.C,R20*%
D15*
X119677500Y-78237258D02*
X119677500Y-77762742D01*
X120722500Y-78237258D02*
X120722500Y-77762742D01*
%TO.C,C53*%
X81659420Y-34090000D02*
X81940580Y-34090000D01*
X81659420Y-35110000D02*
X81940580Y-35110000D01*
%TO.C,R10*%
X86012742Y-72727500D02*
X86487258Y-72727500D01*
X86012742Y-73772500D02*
X86487258Y-73772500D01*
%TO.C,R15*%
X105272500Y-44737742D02*
X105272500Y-45212258D01*
X104227500Y-44737742D02*
X104227500Y-45212258D01*
%TO.C,C23*%
X104251396Y-63015580D02*
X104251396Y-62734420D01*
X105271396Y-63015580D02*
X105271396Y-62734420D01*
%TO.C,D5*%
X73010000Y-47050000D02*
X73010000Y-45350000D01*
X73010000Y-47050000D02*
X70350000Y-47050000D01*
X73010000Y-45350000D02*
X70350000Y-45350000D01*
%TO.C,R48*%
X86362742Y-34077500D02*
X86837258Y-34077500D01*
X86362742Y-35122500D02*
X86837258Y-35122500D01*
%TO.C,R50*%
X131562742Y-53677500D02*
X132037258Y-53677500D01*
X131562742Y-54722500D02*
X132037258Y-54722500D01*
%TO.C,C8*%
X105338748Y-95015000D02*
X105861252Y-95015000D01*
X105338748Y-96485000D02*
X105861252Y-96485000D01*
%TO.C,C60*%
X131659420Y-52090000D02*
X131940580Y-52090000D01*
X131659420Y-53110000D02*
X131940580Y-53110000D01*
%TO.C,C52*%
X110040580Y-39110000D02*
X109759420Y-39110000D01*
X110040580Y-38090000D02*
X109759420Y-38090000D01*
%TO.C,C58*%
X103210000Y-36059420D02*
X103210000Y-36340580D01*
X102190000Y-36059420D02*
X102190000Y-36340580D01*
%TO.C,R49*%
X105337258Y-35922500D02*
X104862742Y-35922500D01*
X105337258Y-34877500D02*
X104862742Y-34877500D01*
%TO.C,C73*%
X136665000Y-46061252D02*
X136665000Y-45538748D01*
X138135000Y-46061252D02*
X138135000Y-45538748D01*
%TO.C,U11*%
D11*
X131150000Y-85475000D02*
G75*
G02*
X131050000Y-85475000I-50000J0D01*
G01*
X131050000Y-85475000D02*
G75*
G02*
X131150000Y-85475000I50000J0D01*
G01*
%TO.C,R17*%
D15*
X107022500Y-48062742D02*
X107022500Y-48537258D01*
X105977500Y-48062742D02*
X105977500Y-48537258D01*
%TO.C,J2*%
X57200000Y-59070000D02*
X57200000Y-68930000D01*
%TO.C,R5*%
X76577500Y-94912258D02*
X76577500Y-94437742D01*
X77622500Y-94912258D02*
X77622500Y-94437742D01*
%TO.C,C12*%
X104060000Y-91359420D02*
X104060000Y-91640580D01*
X103040000Y-91359420D02*
X103040000Y-91640580D01*
%TO.C,C68*%
X128910000Y-41659420D02*
X128910000Y-41940580D01*
X127890000Y-41659420D02*
X127890000Y-41940580D01*
%TO.C,C32*%
X122890000Y-78940580D02*
X122890000Y-78659420D01*
X123910000Y-78940580D02*
X123910000Y-78659420D01*
%TO.C,U2*%
D14*
X125570000Y-70890000D02*
X125570000Y-69110000D01*
X128650000Y-70890000D02*
X128650000Y-69110000D01*
D19*
X126160000Y-70300000D02*
G75*
G02*
X125860000Y-70300000I-150000J0D01*
G01*
X125860000Y-70300000D02*
G75*
G02*
X126160000Y-70300000I150000J0D01*
G01*
%TO.C,C74*%
D15*
X127335000Y-41738748D02*
X127335000Y-42261252D01*
X125865000Y-41738748D02*
X125865000Y-42261252D01*
%TO.C,C56*%
X103210000Y-39259420D02*
X103210000Y-39540580D01*
X102190000Y-39259420D02*
X102190000Y-39540580D01*
%TO.C,U6*%
D11*
X113880000Y-83520000D02*
X111720000Y-83520000D01*
X113880000Y-85680000D02*
X111720000Y-85680000D01*
D20*
X111510000Y-83600000D02*
G75*
G02*
X111390000Y-83600000I-60000J0D01*
G01*
X111390000Y-83600000D02*
G75*
G02*
X111510000Y-83600000I60000J0D01*
G01*
%TO.C,R18*%
D15*
X107022500Y-51312742D02*
X107022500Y-51787258D01*
X105977500Y-51312742D02*
X105977500Y-51787258D01*
%TO.C,Q3*%
D14*
X125130000Y-69110000D02*
X125130000Y-70890000D01*
X122050000Y-69110000D02*
X122050000Y-70890000D01*
D19*
X124840000Y-69700000D02*
G75*
G02*
X124540000Y-69700000I-150000J0D01*
G01*
X124540000Y-69700000D02*
G75*
G02*
X124840000Y-69700000I150000J0D01*
G01*
%TO.C,C34*%
D15*
X103510000Y-51409420D02*
X103510000Y-51690580D01*
X102490000Y-51409420D02*
X102490000Y-51690580D01*
%TO.C,R23*%
X85772500Y-48062742D02*
X85772500Y-48537258D01*
X84727500Y-48062742D02*
X84727500Y-48537258D01*
%TO.C,C40*%
X132540580Y-89235000D02*
X132259420Y-89235000D01*
X132540580Y-88215000D02*
X132259420Y-88215000D01*
%TO.C,C49*%
X129910000Y-60459420D02*
X129910000Y-60740580D01*
X128890000Y-60459420D02*
X128890000Y-60740580D01*
%TO.C,Q5*%
D14*
X81770000Y-72280000D02*
X83230000Y-72280000D01*
X83230000Y-72280000D02*
X83230000Y-71240000D01*
X81770000Y-69220000D02*
X83230000Y-69220000D01*
X83230000Y-69220000D02*
X83230000Y-70260000D01*
X81770000Y-71210000D02*
X81770000Y-70290000D01*
D17*
X81330000Y-69300000D02*
G75*
G02*
X81270000Y-69300000I-30000J0D01*
G01*
X81270000Y-69300000D02*
G75*
G02*
X81330000Y-69300000I30000J0D01*
G01*
%TO.C,C55*%
D15*
X89510000Y-38659420D02*
X89510000Y-38940580D01*
X88490000Y-38659420D02*
X88490000Y-38940580D01*
%TO.C,J12*%
X113270000Y-55660000D02*
X105530000Y-55660000D01*
X105530000Y-55660000D02*
X105530000Y-53540000D01*
X105530000Y-53540000D02*
X113270000Y-53540000D01*
X113270000Y-53540000D02*
X113270000Y-55660000D01*
D16*
X113820000Y-54600000D02*
G75*
G02*
X113320000Y-54600000I-250000J0D01*
G01*
X113320000Y-54600000D02*
G75*
G02*
X113820000Y-54600000I250000J0D01*
G01*
%TO.C,R58*%
D15*
X107037258Y-73122500D02*
X106562742Y-73122500D01*
X107037258Y-72077500D02*
X106562742Y-72077500D01*
%TO.C,U13*%
D14*
X69530000Y-62130000D02*
X69530000Y-60670000D01*
X69530000Y-60670000D02*
X68490000Y-60670000D01*
X66470000Y-62130000D02*
X66470000Y-60670000D01*
X66470000Y-60670000D02*
X67510000Y-60670000D01*
X68460000Y-62130000D02*
X67540000Y-62130000D01*
D17*
X66580000Y-62600000D02*
G75*
G02*
X66520000Y-62600000I-30000J0D01*
G01*
X66520000Y-62600000D02*
G75*
G02*
X66580000Y-62600000I30000J0D01*
G01*
%TO.C,R35*%
D15*
X83437258Y-62122500D02*
X82962742Y-62122500D01*
X83437258Y-61077500D02*
X82962742Y-61077500D01*
%TO.C,Q4*%
D14*
X76270000Y-89670000D02*
X76270000Y-91130000D01*
X76270000Y-91130000D02*
X77310000Y-91130000D01*
X79330000Y-89670000D02*
X79330000Y-91130000D01*
X79330000Y-91130000D02*
X78290000Y-91130000D01*
X77340000Y-89670000D02*
X78260000Y-89670000D01*
D17*
X79280000Y-89200000D02*
G75*
G02*
X79220000Y-89200000I-30000J0D01*
G01*
X79220000Y-89200000D02*
G75*
G02*
X79280000Y-89200000I30000J0D01*
G01*
%TO.C,U3*%
D11*
X122250000Y-60800000D02*
X122250000Y-60950000D01*
X122250000Y-59850000D02*
X122250000Y-59900000D01*
X122250000Y-58900000D02*
X122250000Y-58950000D01*
X122250000Y-57850000D02*
X122250000Y-58000000D01*
X120450000Y-60800000D02*
X120450000Y-60950000D01*
X120450000Y-58900000D02*
X120450000Y-59900000D01*
X120450000Y-57850000D02*
X120450000Y-58000000D01*
X120450000Y-57850000D02*
X122250000Y-57850000D01*
X120450000Y-60950000D02*
X122250000Y-60950000D01*
D17*
X122780000Y-60850000D02*
G75*
G02*
X122720000Y-60850000I-30000J0D01*
G01*
X122720000Y-60850000D02*
G75*
G02*
X122780000Y-60850000I30000J0D01*
G01*
D18*
%TO.C,C65*%
D15*
X99110000Y-42059420D02*
X99110000Y-42340580D01*
X98090000Y-42059420D02*
X98090000Y-42340580D01*
%TO.C,R34*%
X62227500Y-83737258D02*
X62227500Y-83262742D01*
X63272500Y-83737258D02*
X63272500Y-83262742D01*
%TO.C,C70*%
X102138748Y-55465000D02*
X102661252Y-55465000D01*
X102138748Y-56935000D02*
X102661252Y-56935000D01*
%TO.C,R21*%
X121277500Y-79037258D02*
X121277500Y-78562742D01*
X122322500Y-79037258D02*
X122322500Y-78562742D01*
%TO.C,J11*%
X79570000Y-83940000D02*
X86030000Y-83940000D01*
X86030000Y-83940000D02*
X86030000Y-86060000D01*
X86030000Y-86060000D02*
X79570000Y-86060000D01*
X79570000Y-86060000D02*
X79570000Y-83940000D01*
D16*
X79520000Y-85000000D02*
G75*
G02*
X79020000Y-85000000I-250000J0D01*
G01*
X79020000Y-85000000D02*
G75*
G02*
X79520000Y-85000000I250000J0D01*
G01*
%TO.C,R45*%
D15*
X108022500Y-35962742D02*
X108022500Y-36437258D01*
X106977500Y-35962742D02*
X106977500Y-36437258D01*
%TO.C,C42*%
X64890000Y-61740580D02*
X64890000Y-61459420D01*
X65910000Y-61740580D02*
X65910000Y-61459420D01*
%TO.C,D9*%
X116790000Y-44750000D02*
X116790000Y-46450000D01*
X116790000Y-44750000D02*
X119450000Y-44750000D01*
X116790000Y-46450000D02*
X119450000Y-46450000D01*
%TO.C,C41*%
X87510000Y-51409420D02*
X87510000Y-51690580D01*
X86490000Y-51409420D02*
X86490000Y-51690580D01*
%TO.C,C21*%
X112259420Y-86290000D02*
X112540580Y-86290000D01*
X112259420Y-87310000D02*
X112540580Y-87310000D01*
%TO.C,C30*%
X103510000Y-48159420D02*
X103510000Y-48440580D01*
X102490000Y-48159420D02*
X102490000Y-48440580D01*
%TO.C,R28*%
X84237258Y-57122500D02*
X83762742Y-57122500D01*
X84237258Y-56077500D02*
X83762742Y-56077500D01*
%TO.C,C57*%
X89510000Y-35259420D02*
X89510000Y-35540580D01*
X88490000Y-35259420D02*
X88490000Y-35540580D01*
%TO.C,U7*%
X100110000Y-67610000D02*
X99160000Y-67610000D01*
X100110000Y-66660000D02*
X100110000Y-67610000D01*
X100110000Y-57390000D02*
X100110000Y-58340000D01*
X99160000Y-57390000D02*
X100110000Y-57390000D01*
X90840000Y-67610000D02*
X89890000Y-67610000D01*
X89890000Y-67610000D02*
X89890000Y-66660000D01*
X89890000Y-58340000D02*
X89890000Y-57390000D01*
X89890000Y-57390000D02*
X90840000Y-57390000D01*
X100750000Y-66660000D02*
X101090000Y-67130000D01*
X100410000Y-67130000D01*
X100750000Y-66660000D01*
G36*
X101090000Y-67130000D02*
G01*
X100410000Y-67130000D01*
X100750000Y-66660000D01*
X101090000Y-67130000D01*
G37*
%TO.C,C27*%
X112040000Y-61365580D02*
X112040000Y-61084420D01*
X113060000Y-61365580D02*
X113060000Y-61084420D01*
%TO.C,C63*%
X100738748Y-31865000D02*
X101261252Y-31865000D01*
X100738748Y-33335000D02*
X101261252Y-33335000D01*
%TO.C,C22*%
X105865000Y-63136252D02*
X105865000Y-62613748D01*
X107335000Y-63136252D02*
X107335000Y-62613748D01*
%TO.C,R46*%
X86362742Y-37477500D02*
X86837258Y-37477500D01*
X86362742Y-38522500D02*
X86837258Y-38522500D01*
%TO.C,R42*%
X84722500Y-38562742D02*
X84722500Y-39037258D01*
X83677500Y-38562742D02*
X83677500Y-39037258D01*
%TO.C,R13*%
X81487258Y-60522500D02*
X81012742Y-60522500D01*
X81487258Y-59477500D02*
X81012742Y-59477500D01*
%TO.C,R53*%
X130538748Y-47465000D02*
X131061252Y-47465000D01*
X130538748Y-48935000D02*
X131061252Y-48935000D01*
%TO.C,R36*%
X79922500Y-31962742D02*
X79922500Y-32437258D01*
X78877500Y-31962742D02*
X78877500Y-32437258D01*
%TO.C,C62*%
X100510000Y-35659420D02*
X100510000Y-35940580D01*
X99490000Y-35659420D02*
X99490000Y-35940580D01*
%TO.C,C11*%
X73138748Y-87665000D02*
X73661252Y-87665000D01*
X73138748Y-89135000D02*
X73661252Y-89135000D01*
%TO.C,D4*%
X76515000Y-60735000D02*
X76515000Y-59265000D01*
X76515000Y-59265000D02*
X78800000Y-59265000D01*
X78800000Y-60735000D02*
X76515000Y-60735000D01*
%TO.C,J8*%
X120660000Y-83030000D02*
X120660000Y-86970000D01*
X120660000Y-86970000D02*
X118540000Y-86970000D01*
X118540000Y-86970000D02*
X118540000Y-83030000D01*
X118540000Y-83030000D02*
X120660000Y-83030000D01*
D16*
X119850000Y-82730000D02*
G75*
G02*
X119350000Y-82730000I-250000J0D01*
G01*
X119350000Y-82730000D02*
G75*
G02*
X119850000Y-82730000I250000J0D01*
G01*
%TO.C,C18*%
D15*
X112659420Y-81890000D02*
X112940580Y-81890000D01*
X112659420Y-82910000D02*
X112940580Y-82910000D01*
%TO.C,C28*%
X113060000Y-57809420D02*
X113060000Y-58090580D01*
X112040000Y-57809420D02*
X112040000Y-58090580D01*
%TO.C,C7*%
X115865000Y-59461252D02*
X115865000Y-58938748D01*
X117335000Y-59461252D02*
X117335000Y-58938748D01*
%TO.C,C1*%
X116926248Y-72865000D02*
X117448752Y-72865000D01*
X116926248Y-74335000D02*
X117448752Y-74335000D01*
%TO.C,R25*%
X84022500Y-44812742D02*
X84022500Y-45287258D01*
X82977500Y-44812742D02*
X82977500Y-45287258D01*
%TO.C,C3*%
X117138748Y-64865000D02*
X117661252Y-64865000D01*
X117138748Y-66335000D02*
X117661252Y-66335000D01*
%TO.C,C25*%
X107390000Y-69940580D02*
X107390000Y-69659420D01*
X108410000Y-69940580D02*
X108410000Y-69659420D01*
%TO.C,C50*%
X132659420Y-63690000D02*
X132940580Y-63690000D01*
X132659420Y-64710000D02*
X132940580Y-64710000D01*
%TO.C,C31*%
X103510000Y-44834420D02*
X103510000Y-45115580D01*
X102490000Y-44834420D02*
X102490000Y-45115580D01*
%TO.C,C24*%
X102751396Y-63015580D02*
X102751396Y-62734420D01*
X103771396Y-63015580D02*
X103771396Y-62734420D01*
%TO.C,C17*%
X109661252Y-83335000D02*
X109138748Y-83335000D01*
X109661252Y-81865000D02*
X109138748Y-81865000D01*
%TO.C,R54*%
X135065000Y-42461252D02*
X135065000Y-41938748D01*
X136535000Y-42461252D02*
X136535000Y-41938748D01*
%TO.C,C66*%
X97510000Y-42059420D02*
X97510000Y-42340580D01*
X96490000Y-42059420D02*
X96490000Y-42340580D01*
%TO.C,R7*%
X71772500Y-85512742D02*
X71772500Y-85987258D01*
X70727500Y-85512742D02*
X70727500Y-85987258D01*
%TO.C,R47*%
X105337258Y-39122500D02*
X104862742Y-39122500D01*
X105337258Y-38077500D02*
X104862742Y-38077500D01*
%TO.C,C39*%
X87510000Y-48159420D02*
X87510000Y-48440580D01*
X86490000Y-48159420D02*
X86490000Y-48440580D01*
%TO.C,C43*%
X91390580Y-50810000D02*
X91109420Y-50810000D01*
X91390580Y-49790000D02*
X91109420Y-49790000D01*
%TO.C,C15*%
X116335000Y-83738748D02*
X116335000Y-84261252D01*
X114865000Y-83738748D02*
X114865000Y-84261252D01*
%TO.C,D10*%
X120190000Y-44750000D02*
X120190000Y-46450000D01*
X120190000Y-44750000D02*
X122850000Y-44750000D01*
X120190000Y-46450000D02*
X122850000Y-46450000D01*
%TO.C,R6*%
X70022500Y-85512742D02*
X70022500Y-85987258D01*
X68977500Y-85512742D02*
X68977500Y-85987258D01*
%TO.C,C37*%
X87510000Y-44909420D02*
X87510000Y-45190580D01*
X86490000Y-44909420D02*
X86490000Y-45190580D01*
%TO.C,U12*%
D16*
X93260000Y-44550000D02*
X96740000Y-44550000D01*
X94310000Y-49560000D02*
X93260000Y-49560000D01*
X96600000Y-49560000D02*
X95690000Y-49560000D01*
X96740000Y-49560000D02*
X96740000Y-44550000D01*
X93260000Y-49560000D02*
X93260000Y-44550000D01*
D17*
X97650000Y-49080000D02*
G75*
G02*
X97590000Y-49080000I-30000J0D01*
G01*
X97590000Y-49080000D02*
G75*
G02*
X97650000Y-49080000I30000J0D01*
G01*
D21*
X96310000Y-48680000D02*
G75*
G02*
X95910000Y-48680000I-200000J0D01*
G01*
X95910000Y-48680000D02*
G75*
G02*
X96310000Y-48680000I200000J0D01*
G01*
D16*
X94310000Y-49560000D02*
G75*
G02*
X95690000Y-49560000I690000J0D01*
G01*
%TO.C,C64*%
D15*
X99465000Y-39261252D02*
X99465000Y-38738748D01*
X100935000Y-39261252D02*
X100935000Y-38738748D01*
%TO.C,R43*%
X108022500Y-39162742D02*
X108022500Y-39637258D01*
X106977500Y-39162742D02*
X106977500Y-39637258D01*
%TO.C,C54*%
X110040580Y-35910000D02*
X109759420Y-35910000D01*
X110040580Y-34890000D02*
X109759420Y-34890000D01*
%TO.C,R27*%
X84727500Y-51787258D02*
X84727500Y-51312742D01*
X85772500Y-51787258D02*
X85772500Y-51312742D01*
%TO.C,C5*%
X132029420Y-68690000D02*
X132310580Y-68690000D01*
X132029420Y-69710000D02*
X132310580Y-69710000D01*
%TO.C,Q2*%
D14*
X113730000Y-66980000D02*
X113730000Y-65520000D01*
X113730000Y-65520000D02*
X112690000Y-65520000D01*
X110670000Y-66980000D02*
X110670000Y-65520000D01*
X110670000Y-65520000D02*
X111710000Y-65520000D01*
X112660000Y-66980000D02*
X111740000Y-66980000D01*
D17*
X110780000Y-67450000D02*
G75*
G02*
X110720000Y-67450000I-30000J0D01*
G01*
X110720000Y-67450000D02*
G75*
G02*
X110780000Y-67450000I30000J0D01*
G01*
%TO.C,C6*%
D15*
X117890000Y-59540580D02*
X117890000Y-59259420D01*
X118910000Y-59540580D02*
X118910000Y-59259420D01*
%TO.C,R2*%
X126377258Y-73732500D02*
X125902742Y-73732500D01*
X126377258Y-72687500D02*
X125902742Y-72687500D01*
%TO.C,R4*%
X69012742Y-97152500D02*
X69487258Y-97152500D01*
X69012742Y-98197500D02*
X69487258Y-98197500D01*
%TO.C,C19*%
X86390580Y-70510000D02*
X86109420Y-70510000D01*
X86390580Y-69490000D02*
X86109420Y-69490000D01*
%TO.C,C33*%
X88240000Y-85890580D02*
X88240000Y-85609420D01*
X89260000Y-85890580D02*
X89260000Y-85609420D01*
%TO.C,C46*%
X65240000Y-96640580D02*
X65240000Y-96359420D01*
X66260000Y-96640580D02*
X66260000Y-96359420D01*
%TO.C,U14*%
D14*
X130520000Y-59770000D02*
X130520000Y-57630000D01*
X130520000Y-57630000D02*
X133680000Y-57630000D01*
X133680000Y-57630000D02*
X133680000Y-59770000D01*
X133680000Y-59770000D02*
X130520000Y-59770000D01*
D19*
X131250000Y-59020000D02*
G75*
G02*
X130950000Y-59020000I-150000J0D01*
G01*
X130950000Y-59020000D02*
G75*
G02*
X131250000Y-59020000I150000J0D01*
G01*
X130660000Y-60810000D02*
G75*
G02*
X130360000Y-60810000I-150000J0D01*
G01*
X130360000Y-60810000D02*
G75*
G02*
X130660000Y-60810000I150000J0D01*
G01*
D17*
X130630000Y-61150000D02*
G75*
G02*
X130570000Y-61150000I-30000J0D01*
G01*
X130570000Y-61150000D02*
G75*
G02*
X130630000Y-61150000I30000J0D01*
G01*
%TO.C,Q1*%
D14*
X134870000Y-70930000D02*
X136330000Y-70930000D01*
X136330000Y-70930000D02*
X136330000Y-69890000D01*
X134870000Y-67870000D02*
X136330000Y-67870000D01*
X136330000Y-67870000D02*
X136330000Y-68910000D01*
X134870000Y-69860000D02*
X134870000Y-68940000D01*
D17*
X134430000Y-67950000D02*
G75*
G02*
X134370000Y-67950000I-30000J0D01*
G01*
X134370000Y-67950000D02*
G75*
G02*
X134430000Y-67950000I30000J0D01*
G01*
%TO.C,C16*%
D15*
X109661252Y-85535000D02*
X109138748Y-85535000D01*
X109661252Y-84065000D02*
X109138748Y-84065000D01*
%TO.C,D3*%
X76515000Y-58985000D02*
X76515000Y-57515000D01*
X76515000Y-57515000D02*
X78800000Y-57515000D01*
X78800000Y-58985000D02*
X76515000Y-58985000D01*
%TO.C,D1*%
X70235000Y-84085000D02*
X68765000Y-84085000D01*
X68765000Y-84085000D02*
X68765000Y-81800000D01*
X70235000Y-81800000D02*
X70235000Y-84085000D01*
%TO.C,D11*%
X120010000Y-44450000D02*
X120010000Y-42750000D01*
X120010000Y-44450000D02*
X117350000Y-44450000D01*
X120010000Y-42750000D02*
X117350000Y-42750000D01*
%TO.C,R11*%
X86487258Y-72272500D02*
X86012742Y-72272500D01*
X86487258Y-71227500D02*
X86012742Y-71227500D01*
%TO.C,C44*%
X61010000Y-60109420D02*
X61010000Y-60390580D01*
X59990000Y-60109420D02*
X59990000Y-60390580D01*
%TO.C,Y2*%
D16*
X111400000Y-56130000D02*
X111400000Y-62770000D01*
X110250000Y-56130000D02*
X111400000Y-56130000D01*
X108850000Y-56130000D02*
X110250000Y-56130000D01*
X107700000Y-56130000D02*
X108850000Y-56130000D01*
D11*
X109550000Y-58510000D02*
X109550000Y-58870000D01*
X110540000Y-58970000D02*
X108440000Y-58970000D01*
X110440000Y-59270000D02*
X108540000Y-59270000D01*
X108540000Y-59270000D02*
X108540000Y-59670000D01*
X110440000Y-59670000D02*
X110440000Y-59270000D01*
X108540000Y-59670000D02*
X110440000Y-59670000D01*
X110540000Y-59970000D02*
X108440000Y-59970000D01*
X109540000Y-60070000D02*
X109540000Y-60370000D01*
D16*
X111400000Y-62770000D02*
X110250000Y-62770000D01*
X108850000Y-62770000D02*
X107700000Y-62770000D01*
X107700000Y-62770000D02*
X107700000Y-56130000D01*
X110250000Y-62780000D02*
X108850000Y-62780000D01*
D17*
X107980000Y-56950000D02*
G75*
G02*
X107920000Y-56950000I-30000J0D01*
G01*
X107920000Y-56950000D02*
G75*
G02*
X107980000Y-56950000I30000J0D01*
G01*
%TO.C,R8*%
D15*
X112162742Y-87877500D02*
X112637258Y-87877500D01*
X112162742Y-88922500D02*
X112637258Y-88922500D01*
%TO.C,C29*%
X114065000Y-95661252D02*
X114065000Y-95138748D01*
X115535000Y-95661252D02*
X115535000Y-95138748D01*
%TO.C,R38*%
X78877500Y-35637258D02*
X78877500Y-35162742D01*
X79922500Y-35637258D02*
X79922500Y-35162742D01*
%TO.C,C71*%
X86259420Y-61090000D02*
X86540580Y-61090000D01*
X86259420Y-62110000D02*
X86540580Y-62110000D01*
%TO.C,R9*%
X112637258Y-90522500D02*
X112162742Y-90522500D01*
X112637258Y-89477500D02*
X112162742Y-89477500D01*
%TO.C,C51*%
X81659420Y-37490000D02*
X81940580Y-37490000D01*
X81659420Y-38510000D02*
X81940580Y-38510000D01*
%TO.C,C59*%
X128740580Y-57510000D02*
X128459420Y-57510000D01*
X128740580Y-56490000D02*
X128459420Y-56490000D01*
%TO.C,R3*%
X130422500Y-70012742D02*
X130422500Y-70487258D01*
X129377500Y-70012742D02*
X129377500Y-70487258D01*
%TO.C,J1*%
X134550000Y-77650000D02*
X134550000Y-71650000D01*
X139050000Y-77650000D02*
X134550000Y-77650000D01*
X134550000Y-71650000D02*
X139050000Y-71650000D01*
X139050000Y-71650000D02*
X139050000Y-77650000D01*
%TO.C,R44*%
X84722500Y-35162742D02*
X84722500Y-35637258D01*
X83677500Y-35162742D02*
X83677500Y-35637258D01*
%TO.C,R24*%
X84022500Y-48062742D02*
X84022500Y-48537258D01*
X82977500Y-48062742D02*
X82977500Y-48537258D01*
%TO.C,R16*%
X107022500Y-44737742D02*
X107022500Y-45212258D01*
X105977500Y-44737742D02*
X105977500Y-45212258D01*
%TO.C,R14*%
X105272500Y-48062742D02*
X105272500Y-48537258D01*
X104227500Y-48062742D02*
X104227500Y-48537258D01*
%TO.C,R59*%
X88762742Y-55077500D02*
X89237258Y-55077500D01*
X88762742Y-56122500D02*
X89237258Y-56122500D01*
%TD*%
M02*
