%TF.GenerationSoftware,KiCad,Pcbnew,10.0.1*%
%TF.CreationDate,2026-08-01T16:08:07+02:00*%
%TF.ProjectId,Levelmeter,4c657665-6c6d-4657-9465-722e6b696361,rev?*%
%TF.SameCoordinates,Original*%
%TF.FileFunction,Copper,L3,Inr*%
%TF.FilePolarity,Positive*%
%FSLAX46Y46*%
G04 Gerber Fmt 4.6, Leading zero omitted, Abs format (unit mm)*
G04 Created by KiCad (PCBNEW 10.0.1) date 2026-08-01 16:08:07*
%MOMM*%
%LPD*%
G01*
G04 APERTURE LIST*
G04 Aperture macros list*
%AMFreePoly0*
4,1,5,1.500000,-2.000000,-1.500000,-2.000000,-1.500000,2.000000,1.500000,2.000000,1.500000,-2.000000,1.500000,-2.000000,$1*%
G04 Aperture macros list end*
%TA.AperFunction,ComponentPad*%
%ADD10R,1.700000X1.700000*%
%TD*%
%TA.AperFunction,ComponentPad*%
%ADD11C,1.700000*%
%TD*%
%TA.AperFunction,ComponentPad*%
%ADD12R,1.500000X1.500000*%
%TD*%
%TA.AperFunction,ComponentPad*%
%ADD13C,1.500000*%
%TD*%
%TA.AperFunction,ComponentPad*%
%ADD14C,3.600000*%
%TD*%
%TA.AperFunction,ComponentPad*%
%ADD15FreePoly0,90.000000*%
%TD*%
%TA.AperFunction,ComponentPad*%
%ADD16FreePoly0,270.000000*%
%TD*%
%TA.AperFunction,ViaPad*%
%ADD17C,0.600000*%
%TD*%
G04 APERTURE END LIST*
D10*
%TO.N,5V0*%
%TO.C,J5*%
X62000000Y-33105000D03*
D11*
%TO.N,-4V5*%
X64540000Y-33105000D03*
%TO.N,GND*%
X67080000Y-33105000D03*
%TO.N,ExciterA*%
X69620000Y-33105000D03*
%TO.N,ExciterB*%
X72160000Y-33105000D03*
%TO.N,Sensor1*%
X74700000Y-33105000D03*
%TD*%
D10*
%TO.N,5V0*%
%TO.C,J6*%
X128000000Y-33015000D03*
D11*
%TO.N,-4V5*%
X125460000Y-33015000D03*
%TO.N,GND*%
X122920000Y-33015000D03*
%TO.N,ExciterA*%
X120380000Y-33015000D03*
%TO.N,ExciterB*%
X117840000Y-33015000D03*
%TO.N,Sensor2*%
X115300000Y-33015000D03*
%TD*%
D12*
%TO.N,5V0*%
%TO.C,J4*%
X61700000Y-97250000D03*
D13*
%TO.N,GND*%
X61700000Y-95250000D03*
%TO.N,Net-(J4-Pad3)*%
X61700000Y-93250000D03*
%TD*%
D14*
%TO.N,GND*%
%TO.C,H2*%
X54000000Y-34000000D03*
%TD*%
%TO.N,GND*%
%TO.C,H3*%
X136000000Y-34000000D03*
%TD*%
%TO.N,GND*%
%TO.C,H4*%
X54000000Y-96000000D03*
%TD*%
%TO.N,GND*%
%TO.C,H1*%
X136000000Y-96000000D03*
%TD*%
D12*
%TO.N,BAT+*%
%TO.C,J1*%
X137350000Y-73650000D03*
D13*
%TO.N,BAT-*%
X137350000Y-75650000D03*
%TD*%
D11*
%TO.N,Net-(SW1-A)*%
%TO.C,SW1*%
X110500000Y-49000000D03*
D10*
%TO.N,GND*%
X110500000Y-46500000D03*
D11*
%TO.N,Net-(SW1-B)*%
X110500000Y-44000000D03*
%TO.N,Net-(SW1-SW1)*%
X125000000Y-49000000D03*
%TO.N,GND*%
X125000000Y-44000000D03*
D15*
X118000000Y-52300000D03*
X118000000Y-40700000D03*
%TD*%
D11*
%TO.N,Net-(SW2-A)*%
%TO.C,SW2*%
X79500000Y-44000000D03*
D10*
%TO.N,GND*%
X79500000Y-46500000D03*
D11*
%TO.N,Net-(SW2-B)*%
X79500000Y-49000000D03*
%TO.N,Net-(SW2-SW1)*%
X65000000Y-44000000D03*
%TO.N,GND*%
X65000000Y-49000000D03*
D16*
X72000000Y-40700000D03*
X72000000Y-52300000D03*
%TD*%
D17*
%TO.N,GND*%
X101200000Y-97000000D03*
X106000000Y-96200000D03*
%TO.N,5V0*%
X67250000Y-94500000D03*
X131475735Y-42875735D03*
X93750000Y-92000000D03*
X137400000Y-66200000D03*
X114200000Y-89400000D03*
X111200000Y-93200000D03*
X78200000Y-94600000D03*
X82000000Y-76750000D03*
X123000000Y-90200000D03*
X132600000Y-71200000D03*
X137000000Y-46400000D03*
X86500000Y-81250000D03*
%TO.N,-4V5*%
X122800000Y-89400000D03*
X115000000Y-89800000D03*
X132200000Y-37400000D03*
X137000000Y-65200000D03*
X129000000Y-37400000D03*
X131600000Y-71200000D03*
%TO.N,GND*%
X107800000Y-82000000D03*
X56500000Y-84000000D03*
X134600000Y-52200000D03*
X103200000Y-94000000D03*
X67250000Y-97000000D03*
X91800000Y-77400000D03*
X108300000Y-34000000D03*
X132500000Y-86250000D03*
X75500000Y-70250000D03*
X71250000Y-97000000D03*
X113250000Y-95285000D03*
X73400000Y-91800000D03*
X119500000Y-64750000D03*
X99250000Y-75250000D03*
X107800000Y-83600000D03*
X97500000Y-44300000D03*
X116600000Y-57150000D03*
X95700000Y-42900000D03*
X97400000Y-37700000D03*
X52000000Y-80250000D03*
X76250000Y-61500000D03*
X136400000Y-44400000D03*
X137250000Y-81000000D03*
X90500000Y-49300000D03*
X90000000Y-84750000D03*
X119187500Y-74100000D03*
X125160000Y-74410000D03*
X117687500Y-74850000D03*
X75500000Y-69400000D03*
X128250000Y-83500000D03*
X106100000Y-61000000D03*
X67750000Y-96250000D03*
X61500000Y-62750000D03*
X123300000Y-67800000D03*
X137250000Y-80250000D03*
X130000000Y-66400000D03*
X79400000Y-37400000D03*
X137250000Y-78750000D03*
X86500000Y-53400000D03*
X88200000Y-33700000D03*
X77800000Y-37400000D03*
X107800000Y-81200000D03*
X98750000Y-65250000D03*
X109000000Y-66000000D03*
X126800000Y-97550000D03*
X123660000Y-74410000D03*
X94750000Y-64000000D03*
X92500000Y-96000000D03*
X124600000Y-57900000D03*
X88250000Y-48550000D03*
X98100000Y-35000000D03*
X53750000Y-86750000D03*
X91000000Y-91500000D03*
X123850000Y-57900000D03*
X106000000Y-95400000D03*
X89500000Y-50050000D03*
X75500000Y-66200000D03*
X87250000Y-53400000D03*
X134200000Y-42400000D03*
X119187500Y-73350000D03*
X119600000Y-57150000D03*
X88250000Y-46550000D03*
X133600000Y-51000000D03*
X128600000Y-64400000D03*
X122910000Y-74410000D03*
X112800000Y-84200000D03*
X88250000Y-45050000D03*
X88250000Y-45800000D03*
X113538604Y-59500000D03*
X92250000Y-61500000D03*
X90000000Y-85500000D03*
X118850000Y-57150000D03*
X110000000Y-89400000D03*
X87900000Y-39600000D03*
X101000000Y-33800000D03*
X88250000Y-83750000D03*
X99000000Y-38800000D03*
X112800000Y-85000000D03*
X119187500Y-74850000D03*
X94750000Y-58750000D03*
X58750000Y-61750000D03*
X73400000Y-93800000D03*
X52000000Y-79000000D03*
X99000000Y-37800000D03*
X98500000Y-87000000D03*
X83200000Y-95500000D03*
X123000000Y-63250000D03*
X114200000Y-86800000D03*
X99400000Y-62600000D03*
X126750000Y-82750000D03*
X97500000Y-73250000D03*
X90500000Y-90000000D03*
X100000000Y-93000000D03*
X122600000Y-67800000D03*
X99400000Y-61900000D03*
X60750000Y-74750000D03*
X55000000Y-80250000D03*
X105500000Y-61000000D03*
X76200000Y-92000000D03*
X90100000Y-36200000D03*
X89500000Y-50800000D03*
X112000000Y-91200000D03*
X111800000Y-38000000D03*
X67250000Y-97750000D03*
X125910000Y-74410000D03*
X73400000Y-92800000D03*
X98250000Y-44300000D03*
X119500000Y-65500000D03*
X54000000Y-75000000D03*
X109000000Y-66750000D03*
X80950000Y-47050000D03*
X117550000Y-66950000D03*
X118437500Y-74850000D03*
X102000000Y-92000000D03*
X111200000Y-37000000D03*
X90300000Y-39600000D03*
X135400000Y-52200000D03*
X102700000Y-41300000D03*
X69250000Y-92175000D03*
X89000000Y-96000000D03*
X70500000Y-93675000D03*
X125600000Y-59400000D03*
X132000000Y-88000000D03*
X128000000Y-80500000D03*
X71750000Y-93675000D03*
X101750000Y-52300000D03*
X100000000Y-93800000D03*
X57750000Y-74750000D03*
X134000000Y-63000000D03*
X58000000Y-67750000D03*
X100250000Y-79750000D03*
X77750000Y-61500000D03*
X112800000Y-38000000D03*
X109000000Y-68250000D03*
X106700000Y-61000000D03*
X137250000Y-79500000D03*
X74500000Y-84250000D03*
X134000000Y-62200000D03*
X90500000Y-89250000D03*
X57750000Y-60250000D03*
X90250000Y-51550000D03*
X104900000Y-61000000D03*
X112800000Y-85800000D03*
X55000000Y-74000000D03*
X88750000Y-68000000D03*
X99250000Y-45050000D03*
X130000000Y-64400000D03*
X131600000Y-55400000D03*
X101200000Y-92000000D03*
X101750000Y-46800000D03*
X93300000Y-35000000D03*
X66000000Y-94600000D03*
X102200000Y-48550000D03*
X113538604Y-60400000D03*
X53750000Y-86000000D03*
X109200000Y-89400000D03*
X70500000Y-92175000D03*
X119500000Y-64000000D03*
X109000000Y-69750000D03*
X115850000Y-57150000D03*
X99000000Y-36700000D03*
X131000000Y-85500000D03*
X58000000Y-67000000D03*
X113538604Y-58700000D03*
X52000000Y-84000000D03*
X99500000Y-79750000D03*
X137400000Y-41800000D03*
X111200000Y-91200000D03*
X130750000Y-89250000D03*
X127500000Y-83500000D03*
X117350000Y-57150000D03*
X92300000Y-75600000D03*
X60500000Y-61750000D03*
X84300000Y-68900000D03*
X80950000Y-46050000D03*
X98000000Y-79750000D03*
X80500000Y-36300000D03*
X109000000Y-69000000D03*
X124410000Y-74410000D03*
X134800000Y-64600000D03*
X114400000Y-81800000D03*
X77000000Y-61500000D03*
X122600000Y-69800000D03*
X98800000Y-61900000D03*
X92500000Y-95250000D03*
X104300000Y-61000000D03*
X60250000Y-85000000D03*
X106350000Y-90800000D03*
X106300000Y-37000000D03*
X133600000Y-52600000D03*
X69250000Y-93675000D03*
X87900000Y-36200000D03*
X58750000Y-84750000D03*
X55000000Y-82750000D03*
X89000000Y-83750000D03*
X107800000Y-84400000D03*
X107350000Y-94000000D03*
X103900000Y-37000000D03*
X55000000Y-79000000D03*
X103200000Y-53400000D03*
X77200000Y-57050000D03*
X118100000Y-57150000D03*
X126750000Y-81750000D03*
X99800000Y-43000000D03*
X129600000Y-42600000D03*
X107800000Y-82800000D03*
X88250000Y-49300000D03*
X99231000Y-87000000D03*
X125600000Y-58650000D03*
X127200000Y-42200000D03*
X97600000Y-40500000D03*
X91000000Y-51550000D03*
X113538604Y-57750000D03*
X88750000Y-70000000D03*
X93250000Y-60000000D03*
X115200000Y-81800000D03*
X130750000Y-88500000D03*
X76800000Y-88150000D03*
X135400000Y-55200000D03*
X61500000Y-65750000D03*
X83100000Y-39600000D03*
X103600000Y-93300000D03*
X105850000Y-92750000D03*
X101800000Y-33800000D03*
X71750000Y-92925000D03*
X107500000Y-41300000D03*
X80500000Y-70900000D03*
X131250000Y-88000000D03*
X134600000Y-55200000D03*
X113538604Y-61250000D03*
X108700000Y-37000000D03*
X128000000Y-66400000D03*
X71750000Y-92175000D03*
X107000000Y-90800000D03*
X107800000Y-85200000D03*
X108200000Y-94000000D03*
X96750000Y-63250000D03*
X110238604Y-59400000D03*
X127200000Y-43000000D03*
X100250000Y-80500000D03*
X85300000Y-36200000D03*
X76800000Y-87300000D03*
X133600000Y-54200000D03*
X98750000Y-79750000D03*
X122160000Y-74410000D03*
X137400000Y-41000000D03*
X86500000Y-57350000D03*
X91000000Y-90750000D03*
X83300000Y-33700000D03*
X84200000Y-95500000D03*
X95800000Y-35000000D03*
X117550000Y-67650000D03*
X137400000Y-42600000D03*
X113250000Y-94535000D03*
X131750000Y-86250000D03*
X101200000Y-96000000D03*
X117550000Y-66250000D03*
X103600000Y-49800000D03*
X112800000Y-83400000D03*
X129600000Y-43400000D03*
X65200000Y-94600000D03*
X83100000Y-36200000D03*
X105100000Y-34000000D03*
X107350000Y-93250000D03*
X80500000Y-72400000D03*
X103700000Y-61000000D03*
X133400000Y-59400000D03*
X101750000Y-45300000D03*
X96750000Y-65250000D03*
X97400000Y-35000000D03*
X85300000Y-39600000D03*
X131000000Y-80500000D03*
X125350000Y-57900000D03*
X84300000Y-69700000D03*
X85200000Y-95500000D03*
X114200000Y-87600000D03*
X132600000Y-59600000D03*
X132750000Y-87750000D03*
X77000000Y-83250000D03*
X69250000Y-92925000D03*
X97750000Y-87000000D03*
X98800000Y-62600000D03*
X98100000Y-37700000D03*
X57750000Y-61000000D03*
X99000000Y-44300000D03*
X131000000Y-86250000D03*
X134800000Y-63800000D03*
X89000000Y-97250000D03*
X52000000Y-82790000D03*
X90500000Y-88500000D03*
X127500000Y-97550000D03*
X101750000Y-46050000D03*
%TO.N,DISP_ON_5V*%
X95000000Y-92000000D03*
X95250000Y-94750000D03*
%TO.N,VBUS_SENSE*%
X91250000Y-72250000D03*
X92750000Y-66000000D03*
%TO.N,BUZZER_5V*%
X92000000Y-87500000D03*
X98250000Y-88750000D03*
%TO.N,3V3_Sensors*%
X120000000Y-61250000D03*
X128000000Y-61950000D03*
X115100000Y-50100000D03*
X117300000Y-47350000D03*
%TO.N,VCC*%
X72500000Y-85250000D03*
X72500000Y-87500000D03*
X101419236Y-76535356D03*
X81232059Y-79532059D03*
X98000000Y-76500000D03*
X120400000Y-64600000D03*
X85401729Y-75362390D03*
X79750000Y-81550000D03*
X106800000Y-76600000D03*
X121200000Y-70600000D03*
%TO.N,3V3_STANDBY*%
X98000000Y-61350000D03*
X92600000Y-51400000D03*
X100100000Y-52000000D03*
X100600000Y-57900000D03*
%TO.N,DISP_SCK_5V*%
X97250000Y-89000000D03*
%TO.N,DISP_CS*%
X94150000Y-74500000D03*
X96500000Y-75750000D03*
%TO.N,BUZZER*%
X94150000Y-78700735D03*
X94018329Y-80536657D03*
%TO.N,DISP_MOSI_5V*%
X96650000Y-90750000D03*
%TO.N,DISP_CS_5V*%
X96050000Y-90000000D03*
%TO.N,DISP_VCOM_5V*%
X95650000Y-91500000D03*
%TO.N,LED_PWR*%
X90997017Y-59741051D03*
X83500000Y-58250000D03*
%TO.N,Net-(SW1-SW1)*%
X116327220Y-49487882D03*
X117500000Y-48500000D03*
%TO.N,Net-(SW2-SW1)*%
X77517893Y-52182107D03*
X78500000Y-51300000D03*
%TO.N,3V3*%
X129550000Y-81500000D03*
X76400000Y-51950000D03*
X82250000Y-45700000D03*
X114500000Y-74750000D03*
X63850000Y-84250000D03*
X107700000Y-45200000D03*
X62650000Y-84250000D03*
X100250000Y-45050000D03*
X122800000Y-88000000D03*
X70700000Y-64900000D03*
X116800000Y-88000000D03*
X116600000Y-63000000D03*
X82250000Y-44500000D03*
X72750000Y-79500000D03*
X92450000Y-44399998D03*
X77500000Y-50400000D03*
X115600000Y-64400000D03*
X72250000Y-81550000D03*
X107700000Y-46400000D03*
X112200000Y-70200000D03*
X72400000Y-63150000D03*
X129500000Y-78000000D03*
%TO.N,STANDBY_SENSE*%
X92250000Y-73250000D03*
X94512744Y-70987256D03*
%TO.N,CHARGE_SENSE*%
X92000000Y-66400000D03*
X91250000Y-73250000D03*
%TO.N,ADC_SYNC_RESET*%
X99500000Y-51282821D03*
X91325506Y-43608612D03*
%TO.N,ADC_CS*%
X92870000Y-42000000D03*
X96100000Y-44300000D03*
%TO.N,ADC_READY*%
X97531493Y-50650000D03*
X92200000Y-43600000D03*
%TO.N,ADC_SCK*%
X95470000Y-43666225D03*
X94200000Y-41600000D03*
%TO.N,ADC_MOSI*%
X94270000Y-42600000D03*
X95470000Y-42000000D03*
%TO.N,ADC_CLOCK*%
X91670000Y-41000000D03*
X96200000Y-40600000D03*
%TO.N,5V_EN*%
X90924783Y-64000000D03*
X96474783Y-71025217D03*
%TO.N,DEBUG_UART_PC_TO_MCU*%
X69950735Y-65950735D03*
X75000000Y-62750000D03*
%TO.N,DEBUG_UART_MCU_TO_PC*%
X74203652Y-62673619D03*
X71500000Y-65250000D03*
%TO.N,SWO*%
X89163235Y-72238235D03*
X95750000Y-72000000D03*
%TO.N,EEPROM_SDA*%
X118250000Y-78750000D03*
X114136367Y-78869593D03*
%TO.N,EEPROM_SCL*%
X114703713Y-79433615D03*
X118799265Y-79450735D03*
%TO.N,TEMP_SENSE_EXT*%
X74000000Y-66000000D03*
X75750000Y-63150000D03*
%TO.N,~{CHARGE_EN}*%
X92815687Y-73815687D03*
X95078431Y-71552944D03*
%TO.N,DAC_FSYNC*%
X119400000Y-68800000D03*
X115378655Y-69320543D03*
%TO.N,ENC_1SW*%
X99500000Y-48400000D03*
X99500000Y-49600000D03*
%TO.N,ENC_1A*%
X97086079Y-52987549D03*
X94650000Y-54022793D03*
%TO.N,ENC_2SW*%
X92150000Y-54600000D03*
X90750000Y-47800000D03*
X93000000Y-50050000D03*
X93000000Y-58250000D03*
%TO.N,ENC_1B*%
X93893218Y-53763400D03*
X96520392Y-52421862D03*
%TO.N,LED_STATUS*%
X85250000Y-60500000D03*
X91250000Y-60500000D03*
%TO.N, ~{3v3_EN}*%
X104000000Y-65200000D03*
X101650000Y-67500000D03*
X91524783Y-65000000D03*
X94100000Y-66099999D03*
%TO.N,DAC_SCK*%
X98650000Y-69800000D03*
X100800000Y-69400000D03*
%TO.N,Net-(C44-Pad1)*%
X51530000Y-68330000D03*
X54500000Y-68500000D03*
%TO.N,Net-(J4-Pad3)*%
X68500000Y-82462500D03*
X68250000Y-79500000D03*
%TD*%
%TA.AperFunction,Conductor*%
%TO.N,GND*%
G36*
X137003736Y-30500726D02*
G01*
X137293796Y-30518271D01*
X137308659Y-30520076D01*
X137590797Y-30571780D01*
X137605334Y-30575363D01*
X137879182Y-30660698D01*
X137893163Y-30666000D01*
X138154734Y-30783724D01*
X138167987Y-30790680D01*
X138413458Y-30939071D01*
X138425776Y-30947573D01*
X138651573Y-31124474D01*
X138662781Y-31134404D01*
X138865595Y-31337218D01*
X138875525Y-31348426D01*
X139052422Y-31574217D01*
X139060928Y-31586541D01*
X139209319Y-31832012D01*
X139216277Y-31845269D01*
X139253977Y-31929034D01*
X139324229Y-32085128D01*
X139333994Y-32106823D01*
X139339304Y-32120825D01*
X139424635Y-32394664D01*
X139428219Y-32409202D01*
X139479923Y-32691340D01*
X139481728Y-32706205D01*
X139499274Y-32996263D01*
X139499500Y-33003750D01*
X139499500Y-96996249D01*
X139499274Y-97003736D01*
X139481728Y-97293794D01*
X139479923Y-97308659D01*
X139428219Y-97590797D01*
X139424635Y-97605335D01*
X139339304Y-97879174D01*
X139333994Y-97893176D01*
X139216277Y-98154730D01*
X139209319Y-98167987D01*
X139060928Y-98413458D01*
X139052422Y-98425782D01*
X138875525Y-98651573D01*
X138865595Y-98662781D01*
X138662781Y-98865595D01*
X138651573Y-98875525D01*
X138425782Y-99052422D01*
X138413458Y-99060928D01*
X138167987Y-99209319D01*
X138154730Y-99216277D01*
X137893176Y-99333994D01*
X137879174Y-99339304D01*
X137605335Y-99424635D01*
X137590797Y-99428219D01*
X137308659Y-99479923D01*
X137293794Y-99481728D01*
X137003736Y-99499274D01*
X136996249Y-99499500D01*
X53003751Y-99499500D01*
X52996264Y-99499274D01*
X52706205Y-99481728D01*
X52691340Y-99479923D01*
X52409202Y-99428219D01*
X52394664Y-99424635D01*
X52120825Y-99339304D01*
X52106827Y-99333995D01*
X51954096Y-99265256D01*
X51845269Y-99216277D01*
X51832012Y-99209319D01*
X51586541Y-99060928D01*
X51574217Y-99052422D01*
X51348426Y-98875525D01*
X51337218Y-98865595D01*
X51134404Y-98662781D01*
X51124474Y-98651573D01*
X50947573Y-98425776D01*
X50939071Y-98413458D01*
X50790680Y-98167987D01*
X50783722Y-98154730D01*
X50758073Y-98097740D01*
X50666000Y-97893163D01*
X50660698Y-97879182D01*
X50575363Y-97605334D01*
X50571780Y-97590797D01*
X50520076Y-97308659D01*
X50518271Y-97293794D01*
X50500726Y-97003736D01*
X50500500Y-96996249D01*
X50500500Y-96475321D01*
X60699500Y-96475321D01*
X60699500Y-98024678D01*
X60714032Y-98097735D01*
X60714033Y-98097739D01*
X60714034Y-98097740D01*
X60769399Y-98180601D01*
X60852260Y-98235966D01*
X60852264Y-98235967D01*
X60925321Y-98250499D01*
X60925324Y-98250500D01*
X60925326Y-98250500D01*
X62474676Y-98250500D01*
X62474677Y-98250499D01*
X62547740Y-98235966D01*
X62630601Y-98180601D01*
X62685966Y-98097740D01*
X62700500Y-98024674D01*
X62700500Y-96475326D01*
X62700500Y-96475323D01*
X62700499Y-96475321D01*
X62685967Y-96402264D01*
X62685966Y-96402260D01*
X62630601Y-96319399D01*
X62547740Y-96264034D01*
X62547739Y-96264033D01*
X62547735Y-96264032D01*
X62474677Y-96249500D01*
X62474674Y-96249500D01*
X60925326Y-96249500D01*
X60925323Y-96249500D01*
X60852264Y-96264032D01*
X60852260Y-96264033D01*
X60769399Y-96319399D01*
X60714033Y-96402260D01*
X60714032Y-96402264D01*
X60699500Y-96475321D01*
X50500500Y-96475321D01*
X50500500Y-94427525D01*
X66699500Y-94427525D01*
X66699500Y-94572475D01*
X66727649Y-94677527D01*
X66737017Y-94712488D01*
X66809488Y-94838011D01*
X66809490Y-94838013D01*
X66809491Y-94838015D01*
X66911985Y-94940509D01*
X66911986Y-94940510D01*
X66911988Y-94940511D01*
X67037511Y-95012982D01*
X67037512Y-95012982D01*
X67037515Y-95012984D01*
X67177525Y-95050500D01*
X67177528Y-95050500D01*
X67322472Y-95050500D01*
X67322475Y-95050500D01*
X67462485Y-95012984D01*
X67588015Y-94940509D01*
X67690509Y-94838015D01*
X67762984Y-94712485D01*
X67800500Y-94572475D01*
X67800500Y-94527525D01*
X77649500Y-94527525D01*
X77649500Y-94672475D01*
X77650854Y-94677527D01*
X77687017Y-94812488D01*
X77759488Y-94938011D01*
X77759490Y-94938013D01*
X77759491Y-94938015D01*
X77861985Y-95040509D01*
X77861986Y-95040510D01*
X77861988Y-95040511D01*
X77987511Y-95112982D01*
X77987512Y-95112982D01*
X77987515Y-95112984D01*
X78127525Y-95150500D01*
X78127528Y-95150500D01*
X78272472Y-95150500D01*
X78272475Y-95150500D01*
X78412485Y-95112984D01*
X78538015Y-95040509D01*
X78640509Y-94938015D01*
X78712984Y-94812485D01*
X78749147Y-94677525D01*
X94699500Y-94677525D01*
X94699500Y-94822475D01*
X94731128Y-94940511D01*
X94737017Y-94962488D01*
X94809488Y-95088011D01*
X94809490Y-95088013D01*
X94809491Y-95088015D01*
X94911985Y-95190509D01*
X94911986Y-95190510D01*
X94911988Y-95190511D01*
X95037511Y-95262982D01*
X95037512Y-95262982D01*
X95037515Y-95262984D01*
X95177525Y-95300500D01*
X95177528Y-95300500D01*
X95322472Y-95300500D01*
X95322475Y-95300500D01*
X95462485Y-95262984D01*
X95588015Y-95190509D01*
X95690509Y-95088015D01*
X95762984Y-94962485D01*
X95800500Y-94822475D01*
X95800500Y-94677525D01*
X95762984Y-94537515D01*
X95757217Y-94527527D01*
X95690511Y-94411988D01*
X95690506Y-94411982D01*
X95588017Y-94309493D01*
X95588011Y-94309488D01*
X95462488Y-94237017D01*
X95462489Y-94237017D01*
X95451006Y-94233940D01*
X95322475Y-94199500D01*
X95177525Y-94199500D01*
X95048993Y-94233940D01*
X95037511Y-94237017D01*
X94911988Y-94309488D01*
X94911982Y-94309493D01*
X94809493Y-94411982D01*
X94809488Y-94411988D01*
X94737017Y-94537511D01*
X94737016Y-94537515D01*
X94699500Y-94677525D01*
X78749147Y-94677525D01*
X78750500Y-94672475D01*
X78750500Y-94527525D01*
X78712984Y-94387515D01*
X78655246Y-94287511D01*
X78640511Y-94261988D01*
X78640506Y-94261982D01*
X78538017Y-94159493D01*
X78538011Y-94159488D01*
X78412488Y-94087017D01*
X78412489Y-94087017D01*
X78401006Y-94083940D01*
X78272475Y-94049500D01*
X78127525Y-94049500D01*
X77998993Y-94083940D01*
X77987511Y-94087017D01*
X77861988Y-94159488D01*
X77861982Y-94159493D01*
X77759493Y-94261982D01*
X77759488Y-94261988D01*
X77687017Y-94387511D01*
X77687016Y-94387515D01*
X77649500Y-94527525D01*
X67800500Y-94527525D01*
X67800500Y-94427525D01*
X67762984Y-94287515D01*
X67748244Y-94261985D01*
X67690511Y-94161988D01*
X67690506Y-94161982D01*
X67588017Y-94059493D01*
X67588011Y-94059488D01*
X67462488Y-93987017D01*
X67462489Y-93987017D01*
X67451006Y-93983940D01*
X67322475Y-93949500D01*
X67177525Y-93949500D01*
X67048993Y-93983940D01*
X67037511Y-93987017D01*
X66911988Y-94059488D01*
X66911982Y-94059493D01*
X66809493Y-94161982D01*
X66809488Y-94161988D01*
X66737017Y-94287511D01*
X66737016Y-94287515D01*
X66699500Y-94427525D01*
X50500500Y-94427525D01*
X50500500Y-93348543D01*
X60699499Y-93348543D01*
X60737947Y-93541829D01*
X60737950Y-93541839D01*
X60813364Y-93723907D01*
X60813371Y-93723920D01*
X60922860Y-93887781D01*
X60922863Y-93887785D01*
X61062214Y-94027136D01*
X61062218Y-94027139D01*
X61226079Y-94136628D01*
X61226092Y-94136635D01*
X61377864Y-94199500D01*
X61408165Y-94212051D01*
X61408169Y-94212051D01*
X61408170Y-94212052D01*
X61601456Y-94250500D01*
X61601459Y-94250500D01*
X61798543Y-94250500D01*
X61928582Y-94224632D01*
X61991835Y-94212051D01*
X62173914Y-94136632D01*
X62337782Y-94027139D01*
X62477139Y-93887782D01*
X62586632Y-93723914D01*
X62662051Y-93541835D01*
X62700500Y-93348541D01*
X62700500Y-93151459D01*
X62700499Y-93151456D01*
X62698935Y-93143591D01*
X62698935Y-93143589D01*
X62695740Y-93127525D01*
X110649500Y-93127525D01*
X110649500Y-93272475D01*
X110669883Y-93348543D01*
X110687017Y-93412488D01*
X110759488Y-93538011D01*
X110759490Y-93538013D01*
X110759491Y-93538015D01*
X110861985Y-93640509D01*
X110861986Y-93640510D01*
X110861988Y-93640511D01*
X110987511Y-93712982D01*
X110987512Y-93712982D01*
X110987515Y-93712984D01*
X111127525Y-93750500D01*
X111127528Y-93750500D01*
X111272472Y-93750500D01*
X111272475Y-93750500D01*
X111412485Y-93712984D01*
X111538015Y-93640509D01*
X111640509Y-93538015D01*
X111712984Y-93412485D01*
X111750500Y-93272475D01*
X111750500Y-93127525D01*
X111712984Y-92987515D01*
X111640509Y-92861985D01*
X111538015Y-92759491D01*
X111538013Y-92759490D01*
X111538011Y-92759488D01*
X111412488Y-92687017D01*
X111412489Y-92687017D01*
X111401006Y-92683940D01*
X111272475Y-92649500D01*
X111127525Y-92649500D01*
X110998993Y-92683940D01*
X110987511Y-92687017D01*
X110861988Y-92759488D01*
X110861982Y-92759493D01*
X110759493Y-92861982D01*
X110759488Y-92861988D01*
X110687017Y-92987511D01*
X110687016Y-92987515D01*
X110649500Y-93127525D01*
X62695740Y-93127525D01*
X62662052Y-92958172D01*
X62662052Y-92958170D01*
X62662051Y-92958165D01*
X62662049Y-92958160D01*
X62586635Y-92776092D01*
X62586628Y-92776079D01*
X62477139Y-92612218D01*
X62477136Y-92612214D01*
X62337785Y-92472863D01*
X62337781Y-92472860D01*
X62173920Y-92363371D01*
X62173907Y-92363364D01*
X61991839Y-92287950D01*
X61991829Y-92287947D01*
X61798543Y-92249500D01*
X61798541Y-92249500D01*
X61601459Y-92249500D01*
X61601457Y-92249500D01*
X61408170Y-92287947D01*
X61408160Y-92287950D01*
X61226092Y-92363364D01*
X61226079Y-92363371D01*
X61062218Y-92472860D01*
X61062214Y-92472863D01*
X60922863Y-92612214D01*
X60922860Y-92612218D01*
X60813371Y-92776079D01*
X60813364Y-92776092D01*
X60737950Y-92958160D01*
X60737947Y-92958170D01*
X60699500Y-93151456D01*
X60699500Y-93151458D01*
X60699500Y-93151459D01*
X60699500Y-93348541D01*
X60699500Y-93348543D01*
X60699499Y-93348543D01*
X50500500Y-93348543D01*
X50500500Y-91927525D01*
X93199500Y-91927525D01*
X93199500Y-92072475D01*
X93224090Y-92164244D01*
X93237017Y-92212488D01*
X93309488Y-92338011D01*
X93309490Y-92338013D01*
X93309491Y-92338015D01*
X93411985Y-92440509D01*
X93411986Y-92440510D01*
X93411988Y-92440511D01*
X93537511Y-92512982D01*
X93537512Y-92512982D01*
X93537515Y-92512984D01*
X93677525Y-92550500D01*
X93677528Y-92550500D01*
X93822472Y-92550500D01*
X93822475Y-92550500D01*
X93962485Y-92512984D01*
X94088015Y-92440509D01*
X94190509Y-92338015D01*
X94219416Y-92287947D01*
X94267048Y-92205447D01*
X94269791Y-92207031D01*
X94304254Y-92164244D01*
X94370543Y-92142162D01*
X94438247Y-92159424D01*
X94481758Y-92206136D01*
X94482952Y-92205447D01*
X94559488Y-92338011D01*
X94559490Y-92338013D01*
X94559491Y-92338015D01*
X94661985Y-92440509D01*
X94661986Y-92440510D01*
X94661988Y-92440511D01*
X94787511Y-92512982D01*
X94787512Y-92512982D01*
X94787515Y-92512984D01*
X94927525Y-92550500D01*
X94927528Y-92550500D01*
X95072472Y-92550500D01*
X95072475Y-92550500D01*
X95212485Y-92512984D01*
X95338015Y-92440509D01*
X95440509Y-92338015D01*
X95512984Y-92212485D01*
X95531762Y-92142403D01*
X95568126Y-92082746D01*
X95630973Y-92052217D01*
X95651536Y-92050500D01*
X95722472Y-92050500D01*
X95722475Y-92050500D01*
X95862485Y-92012984D01*
X95988015Y-91940509D01*
X96090509Y-91838015D01*
X96162984Y-91712485D01*
X96200500Y-91572475D01*
X96200500Y-91427525D01*
X96182445Y-91360144D01*
X96184108Y-91290299D01*
X96223270Y-91232436D01*
X96287498Y-91204931D01*
X96356400Y-91216517D01*
X96364209Y-91220660D01*
X96437515Y-91262984D01*
X96577525Y-91300500D01*
X96577528Y-91300500D01*
X96722472Y-91300500D01*
X96722475Y-91300500D01*
X96862485Y-91262984D01*
X96988015Y-91190509D01*
X97090509Y-91088015D01*
X97162984Y-90962485D01*
X97200500Y-90822475D01*
X97200500Y-90677525D01*
X97162984Y-90537515D01*
X97106977Y-90440509D01*
X97090511Y-90411988D01*
X97090506Y-90411982D01*
X96988017Y-90309493D01*
X96988011Y-90309488D01*
X96862488Y-90237017D01*
X96862489Y-90237017D01*
X96722471Y-90199499D01*
X96714415Y-90198439D01*
X96714655Y-90196609D01*
X96657461Y-90179815D01*
X96611706Y-90127011D01*
X96600500Y-90075500D01*
X96600500Y-89927527D01*
X96600500Y-89927525D01*
X96562984Y-89787515D01*
X96546804Y-89759491D01*
X96490511Y-89661988D01*
X96490506Y-89661982D01*
X96388017Y-89559493D01*
X96388011Y-89559488D01*
X96262488Y-89487017D01*
X96262489Y-89487017D01*
X96251006Y-89483940D01*
X96122475Y-89449500D01*
X95977525Y-89449500D01*
X95848993Y-89483940D01*
X95837511Y-89487017D01*
X95711988Y-89559488D01*
X95711982Y-89559493D01*
X95609493Y-89661982D01*
X95609488Y-89661988D01*
X95537017Y-89787511D01*
X95537016Y-89787515D01*
X95499500Y-89927525D01*
X95499500Y-90072475D01*
X95533537Y-90199500D01*
X95537017Y-90212488D01*
X95609488Y-90338011D01*
X95609490Y-90338013D01*
X95609491Y-90338015D01*
X95711985Y-90440509D01*
X95711986Y-90440510D01*
X95711988Y-90440511D01*
X95837511Y-90512982D01*
X95837512Y-90512982D01*
X95837515Y-90512984D01*
X95977525Y-90550500D01*
X95977528Y-90550500D01*
X95980919Y-90550946D01*
X95982070Y-90550674D01*
X95983993Y-90551351D01*
X95985585Y-90551561D01*
X95985540Y-90551896D01*
X96012052Y-90561233D01*
X96042539Y-90570185D01*
X96044764Y-90572753D01*
X96047972Y-90573883D01*
X96067487Y-90598977D01*
X96088294Y-90622989D01*
X96089396Y-90627148D01*
X96090865Y-90629037D01*
X96093312Y-90641921D01*
X96099000Y-90663380D01*
X96100079Y-90675364D01*
X96099500Y-90677525D01*
X96099500Y-90822475D01*
X96120320Y-90900176D01*
X96121279Y-90910825D01*
X96116478Y-90935029D01*
X96115891Y-90959701D01*
X96109800Y-90968700D01*
X96107686Y-90979360D01*
X96090560Y-90997127D01*
X96076729Y-91017564D01*
X96066739Y-91021841D01*
X96059198Y-91029666D01*
X96035183Y-91035354D01*
X96012500Y-91045068D01*
X96001783Y-91043266D01*
X95991209Y-91045771D01*
X95967934Y-91037574D01*
X95943598Y-91033482D01*
X95935779Y-91029332D01*
X95862488Y-90987017D01*
X95862489Y-90987017D01*
X95851006Y-90983940D01*
X95722475Y-90949500D01*
X95577525Y-90949500D01*
X95448993Y-90983940D01*
X95437511Y-90987017D01*
X95311988Y-91059488D01*
X95311982Y-91059493D01*
X95209493Y-91161982D01*
X95209488Y-91161988D01*
X95137017Y-91287511D01*
X95137016Y-91287515D01*
X95118237Y-91357596D01*
X95081874Y-91417254D01*
X95019027Y-91447783D01*
X94998464Y-91449500D01*
X94927525Y-91449500D01*
X94798993Y-91483940D01*
X94787511Y-91487017D01*
X94661988Y-91559488D01*
X94661982Y-91559493D01*
X94559493Y-91661982D01*
X94559488Y-91661988D01*
X94482952Y-91794553D01*
X94480212Y-91792971D01*
X94445719Y-91835774D01*
X94379425Y-91857838D01*
X94311726Y-91840558D01*
X94268248Y-91793859D01*
X94267048Y-91794553D01*
X94190511Y-91661988D01*
X94190506Y-91661982D01*
X94088017Y-91559493D01*
X94088011Y-91559488D01*
X93962488Y-91487017D01*
X93962489Y-91487017D01*
X93951006Y-91483940D01*
X93822475Y-91449500D01*
X93677525Y-91449500D01*
X93548993Y-91483940D01*
X93537511Y-91487017D01*
X93411988Y-91559488D01*
X93411982Y-91559493D01*
X93309493Y-91661982D01*
X93309488Y-91661988D01*
X93237017Y-91787511D01*
X93237016Y-91787515D01*
X93199500Y-91927525D01*
X50500500Y-91927525D01*
X50500500Y-88927525D01*
X96699500Y-88927525D01*
X96699500Y-89072475D01*
X96732217Y-89194574D01*
X96737017Y-89212488D01*
X96809488Y-89338011D01*
X96809490Y-89338013D01*
X96809491Y-89338015D01*
X96911985Y-89440509D01*
X96911986Y-89440510D01*
X96911988Y-89440511D01*
X97037511Y-89512982D01*
X97037512Y-89512982D01*
X97037515Y-89512984D01*
X97177525Y-89550500D01*
X97177528Y-89550500D01*
X97322472Y-89550500D01*
X97322475Y-89550500D01*
X97462485Y-89512984D01*
X97588015Y-89440509D01*
X97690509Y-89338015D01*
X97696565Y-89327525D01*
X113649500Y-89327525D01*
X113649500Y-89472475D01*
X113687016Y-89612485D01*
X113687017Y-89612488D01*
X113759488Y-89738011D01*
X113759490Y-89738013D01*
X113759491Y-89738015D01*
X113861985Y-89840509D01*
X113861986Y-89840510D01*
X113861988Y-89840511D01*
X113987511Y-89912982D01*
X113987512Y-89912982D01*
X113987515Y-89912984D01*
X114127525Y-89950500D01*
X114127528Y-89950500D01*
X114272473Y-89950500D01*
X114272475Y-89950500D01*
X114337434Y-89933094D01*
X114407282Y-89934756D01*
X114465145Y-89973917D01*
X114484090Y-90005421D01*
X114487016Y-90012486D01*
X114559488Y-90138011D01*
X114559490Y-90138013D01*
X114559491Y-90138015D01*
X114661985Y-90240509D01*
X114661986Y-90240510D01*
X114661988Y-90240511D01*
X114787511Y-90312982D01*
X114787512Y-90312982D01*
X114787515Y-90312984D01*
X114927525Y-90350500D01*
X114927528Y-90350500D01*
X115072472Y-90350500D01*
X115072475Y-90350500D01*
X115212485Y-90312984D01*
X115338015Y-90240509D01*
X115440509Y-90138015D01*
X115512984Y-90012485D01*
X115550500Y-89872475D01*
X115550500Y-89727525D01*
X115512984Y-89587515D01*
X115496805Y-89559493D01*
X115440511Y-89461988D01*
X115440506Y-89461982D01*
X115338017Y-89359493D01*
X115338011Y-89359488D01*
X115282650Y-89327525D01*
X122249500Y-89327525D01*
X122249500Y-89472475D01*
X122287016Y-89612485D01*
X122287017Y-89612488D01*
X122359488Y-89738011D01*
X122359493Y-89738017D01*
X122464381Y-89842905D01*
X122497866Y-89904228D01*
X122492882Y-89973920D01*
X122490034Y-89979966D01*
X122490127Y-89980005D01*
X122487016Y-89987513D01*
X122482218Y-90005421D01*
X122449500Y-90127525D01*
X122449500Y-90272475D01*
X122470407Y-90350500D01*
X122487017Y-90412488D01*
X122559488Y-90538011D01*
X122559490Y-90538013D01*
X122559491Y-90538015D01*
X122661985Y-90640509D01*
X122661986Y-90640510D01*
X122661988Y-90640511D01*
X122787511Y-90712982D01*
X122787512Y-90712982D01*
X122787515Y-90712984D01*
X122927525Y-90750500D01*
X122927528Y-90750500D01*
X123072472Y-90750500D01*
X123072475Y-90750500D01*
X123212485Y-90712984D01*
X123338015Y-90640509D01*
X123440509Y-90538015D01*
X123512984Y-90412485D01*
X123550500Y-90272475D01*
X123550500Y-90127525D01*
X123512984Y-89987515D01*
X123491613Y-89950500D01*
X123440511Y-89861988D01*
X123440506Y-89861982D01*
X123335618Y-89757094D01*
X123302133Y-89695771D01*
X123307117Y-89626079D01*
X123309964Y-89620037D01*
X123309872Y-89619999D01*
X123312982Y-89612489D01*
X123312982Y-89612487D01*
X123312984Y-89612485D01*
X123350500Y-89472475D01*
X123350500Y-89327525D01*
X123312984Y-89187515D01*
X123255537Y-89088015D01*
X123240511Y-89061988D01*
X123240506Y-89061982D01*
X123138017Y-88959493D01*
X123138011Y-88959488D01*
X123012488Y-88887017D01*
X123012489Y-88887017D01*
X123001006Y-88883940D01*
X122872475Y-88849500D01*
X122727525Y-88849500D01*
X122598993Y-88883940D01*
X122587511Y-88887017D01*
X122461988Y-88959488D01*
X122461982Y-88959493D01*
X122359493Y-89061982D01*
X122359488Y-89061988D01*
X122287017Y-89187511D01*
X122282583Y-89204055D01*
X122249500Y-89327525D01*
X115282650Y-89327525D01*
X115212488Y-89287017D01*
X115212489Y-89287017D01*
X115201006Y-89283940D01*
X115072475Y-89249500D01*
X114927525Y-89249500D01*
X114862565Y-89266906D01*
X114792715Y-89265243D01*
X114734853Y-89226080D01*
X114715907Y-89194574D01*
X114712984Y-89187518D01*
X114712984Y-89187515D01*
X114655537Y-89088015D01*
X114640511Y-89061988D01*
X114640506Y-89061982D01*
X114538017Y-88959493D01*
X114538011Y-88959488D01*
X114412488Y-88887017D01*
X114412489Y-88887017D01*
X114401006Y-88883940D01*
X114272475Y-88849500D01*
X114127525Y-88849500D01*
X113998993Y-88883940D01*
X113987511Y-88887017D01*
X113861988Y-88959488D01*
X113861982Y-88959493D01*
X113759493Y-89061982D01*
X113759488Y-89061988D01*
X113687017Y-89187511D01*
X113682583Y-89204055D01*
X113649500Y-89327525D01*
X97696565Y-89327525D01*
X97747751Y-89238868D01*
X97798317Y-89190655D01*
X97866924Y-89177431D01*
X97917133Y-89193481D01*
X98037515Y-89262984D01*
X98177525Y-89300500D01*
X98177528Y-89300500D01*
X98322472Y-89300500D01*
X98322475Y-89300500D01*
X98462485Y-89262984D01*
X98588015Y-89190509D01*
X98690509Y-89088015D01*
X98762984Y-88962485D01*
X98800500Y-88822475D01*
X98800500Y-88677525D01*
X98762984Y-88537515D01*
X98733828Y-88487016D01*
X98690511Y-88411988D01*
X98690506Y-88411982D01*
X98588017Y-88309493D01*
X98588011Y-88309488D01*
X98462488Y-88237017D01*
X98462489Y-88237017D01*
X98451006Y-88233940D01*
X98322475Y-88199500D01*
X98177525Y-88199500D01*
X98048993Y-88233940D01*
X98037511Y-88237017D01*
X97911988Y-88309488D01*
X97911982Y-88309493D01*
X97809493Y-88411982D01*
X97809491Y-88411985D01*
X97752249Y-88511130D01*
X97701681Y-88559345D01*
X97633074Y-88572567D01*
X97582863Y-88556516D01*
X97462485Y-88487016D01*
X97322475Y-88449500D01*
X97177525Y-88449500D01*
X97048993Y-88483940D01*
X97037511Y-88487017D01*
X96911988Y-88559488D01*
X96911982Y-88559493D01*
X96809493Y-88661982D01*
X96809488Y-88661988D01*
X96737017Y-88787511D01*
X96737016Y-88787515D01*
X96699500Y-88927525D01*
X50500500Y-88927525D01*
X50500500Y-87427525D01*
X71949500Y-87427525D01*
X71949500Y-87572475D01*
X71987016Y-87712485D01*
X71987017Y-87712488D01*
X72059488Y-87838011D01*
X72059490Y-87838013D01*
X72059491Y-87838015D01*
X72161985Y-87940509D01*
X72161986Y-87940510D01*
X72161988Y-87940511D01*
X72287511Y-88012982D01*
X72287512Y-88012982D01*
X72287515Y-88012984D01*
X72427525Y-88050500D01*
X72427528Y-88050500D01*
X72572472Y-88050500D01*
X72572475Y-88050500D01*
X72712485Y-88012984D01*
X72838015Y-87940509D01*
X72940509Y-87838015D01*
X73012984Y-87712485D01*
X73050500Y-87572475D01*
X73050500Y-87427525D01*
X91449500Y-87427525D01*
X91449500Y-87572475D01*
X91487016Y-87712485D01*
X91487017Y-87712488D01*
X91559488Y-87838011D01*
X91559490Y-87838013D01*
X91559491Y-87838015D01*
X91661985Y-87940509D01*
X91661986Y-87940510D01*
X91661988Y-87940511D01*
X91787511Y-88012982D01*
X91787512Y-88012982D01*
X91787515Y-88012984D01*
X91927525Y-88050500D01*
X91927528Y-88050500D01*
X92072472Y-88050500D01*
X92072475Y-88050500D01*
X92212485Y-88012984D01*
X92338015Y-87940509D01*
X92350999Y-87927525D01*
X116249500Y-87927525D01*
X116249500Y-88072475D01*
X116283537Y-88199500D01*
X116287017Y-88212488D01*
X116359488Y-88338011D01*
X116359490Y-88338013D01*
X116359491Y-88338015D01*
X116461985Y-88440509D01*
X116461986Y-88440510D01*
X116461988Y-88440511D01*
X116587511Y-88512982D01*
X116587512Y-88512982D01*
X116587515Y-88512984D01*
X116727525Y-88550500D01*
X116727528Y-88550500D01*
X116872472Y-88550500D01*
X116872475Y-88550500D01*
X117012485Y-88512984D01*
X117138015Y-88440509D01*
X117240509Y-88338015D01*
X117312984Y-88212485D01*
X117350500Y-88072475D01*
X117350500Y-87927525D01*
X122249500Y-87927525D01*
X122249500Y-88072475D01*
X122283537Y-88199500D01*
X122287017Y-88212488D01*
X122359488Y-88338011D01*
X122359490Y-88338013D01*
X122359491Y-88338015D01*
X122461985Y-88440509D01*
X122461986Y-88440510D01*
X122461988Y-88440511D01*
X122587511Y-88512982D01*
X122587512Y-88512982D01*
X122587515Y-88512984D01*
X122727525Y-88550500D01*
X122727528Y-88550500D01*
X122872472Y-88550500D01*
X122872475Y-88550500D01*
X123012485Y-88512984D01*
X123138015Y-88440509D01*
X123240509Y-88338015D01*
X123312984Y-88212485D01*
X123350500Y-88072475D01*
X123350500Y-87927525D01*
X123312984Y-87787515D01*
X123269665Y-87712485D01*
X123240511Y-87661988D01*
X123240506Y-87661982D01*
X123138017Y-87559493D01*
X123138011Y-87559488D01*
X123012488Y-87487017D01*
X123012489Y-87487017D01*
X123001006Y-87483940D01*
X122872475Y-87449500D01*
X122727525Y-87449500D01*
X122598993Y-87483940D01*
X122587511Y-87487017D01*
X122461988Y-87559488D01*
X122461982Y-87559493D01*
X122359493Y-87661982D01*
X122359488Y-87661988D01*
X122287017Y-87787511D01*
X122287016Y-87787515D01*
X122249500Y-87927525D01*
X117350500Y-87927525D01*
X117312984Y-87787515D01*
X117269665Y-87712485D01*
X117240511Y-87661988D01*
X117240506Y-87661982D01*
X117138017Y-87559493D01*
X117138011Y-87559488D01*
X117012488Y-87487017D01*
X117012489Y-87487017D01*
X117001006Y-87483940D01*
X116872475Y-87449500D01*
X116727525Y-87449500D01*
X116598993Y-87483940D01*
X116587511Y-87487017D01*
X116461988Y-87559488D01*
X116461982Y-87559493D01*
X116359493Y-87661982D01*
X116359488Y-87661988D01*
X116287017Y-87787511D01*
X116287016Y-87787515D01*
X116249500Y-87927525D01*
X92350999Y-87927525D01*
X92440509Y-87838015D01*
X92512984Y-87712485D01*
X92550500Y-87572475D01*
X92550500Y-87427525D01*
X92512984Y-87287515D01*
X92440509Y-87161985D01*
X92338015Y-87059491D01*
X92338013Y-87059490D01*
X92338011Y-87059488D01*
X92212488Y-86987017D01*
X92212489Y-86987017D01*
X92201006Y-86983940D01*
X92072475Y-86949500D01*
X91927525Y-86949500D01*
X91798993Y-86983940D01*
X91787511Y-86987017D01*
X91661988Y-87059488D01*
X91661982Y-87059493D01*
X91559493Y-87161982D01*
X91559488Y-87161988D01*
X91487017Y-87287511D01*
X91487016Y-87287515D01*
X91449500Y-87427525D01*
X73050500Y-87427525D01*
X73012984Y-87287515D01*
X72940509Y-87161985D01*
X72838015Y-87059491D01*
X72838013Y-87059490D01*
X72838011Y-87059488D01*
X72712488Y-86987017D01*
X72712489Y-86987017D01*
X72701006Y-86983940D01*
X72572475Y-86949500D01*
X72427525Y-86949500D01*
X72298993Y-86983940D01*
X72287511Y-86987017D01*
X72161988Y-87059488D01*
X72161982Y-87059493D01*
X72059493Y-87161982D01*
X72059488Y-87161988D01*
X71987017Y-87287511D01*
X71987016Y-87287515D01*
X71949500Y-87427525D01*
X50500500Y-87427525D01*
X50500500Y-85177525D01*
X71949500Y-85177525D01*
X71949500Y-85322475D01*
X71987016Y-85462485D01*
X71987017Y-85462488D01*
X72059488Y-85588011D01*
X72059490Y-85588013D01*
X72059491Y-85588015D01*
X72161985Y-85690509D01*
X72161986Y-85690510D01*
X72161988Y-85690511D01*
X72287511Y-85762982D01*
X72287512Y-85762982D01*
X72287515Y-85762984D01*
X72427525Y-85800500D01*
X72427528Y-85800500D01*
X72572472Y-85800500D01*
X72572475Y-85800500D01*
X72712485Y-85762984D01*
X72838015Y-85690509D01*
X72940509Y-85588015D01*
X73012984Y-85462485D01*
X73050500Y-85322475D01*
X73050500Y-85177525D01*
X73012984Y-85037515D01*
X72940509Y-84911985D01*
X72838015Y-84809491D01*
X72838013Y-84809490D01*
X72838011Y-84809488D01*
X72712488Y-84737017D01*
X72712489Y-84737017D01*
X72701006Y-84733940D01*
X72572475Y-84699500D01*
X72427525Y-84699500D01*
X72298993Y-84733940D01*
X72287511Y-84737017D01*
X72161988Y-84809488D01*
X72161982Y-84809493D01*
X72059493Y-84911982D01*
X72059488Y-84911988D01*
X71987017Y-85037511D01*
X71987016Y-85037515D01*
X71949500Y-85177525D01*
X50500500Y-85177525D01*
X50500500Y-84177525D01*
X62099500Y-84177525D01*
X62099500Y-84322475D01*
X62130008Y-84436331D01*
X62137017Y-84462488D01*
X62209488Y-84588011D01*
X62209490Y-84588013D01*
X62209491Y-84588015D01*
X62311985Y-84690509D01*
X62311986Y-84690510D01*
X62311988Y-84690511D01*
X62437511Y-84762982D01*
X62437512Y-84762982D01*
X62437515Y-84762984D01*
X62577525Y-84800500D01*
X62577528Y-84800500D01*
X62722472Y-84800500D01*
X62722475Y-84800500D01*
X62862485Y-84762984D01*
X62988015Y-84690509D01*
X63090509Y-84588015D01*
X63142613Y-84497769D01*
X63193180Y-84449553D01*
X63261787Y-84436331D01*
X63326652Y-84462299D01*
X63357387Y-84497769D01*
X63409491Y-84588015D01*
X63511985Y-84690509D01*
X63511986Y-84690510D01*
X63511988Y-84690511D01*
X63637511Y-84762982D01*
X63637512Y-84762982D01*
X63637515Y-84762984D01*
X63777525Y-84800500D01*
X63777528Y-84800500D01*
X63922472Y-84800500D01*
X63922475Y-84800500D01*
X64062485Y-84762984D01*
X64188015Y-84690509D01*
X64290509Y-84588015D01*
X64362984Y-84462485D01*
X64400500Y-84322475D01*
X64400500Y-84177525D01*
X64362984Y-84037515D01*
X64290509Y-83911985D01*
X64188015Y-83809491D01*
X64188013Y-83809490D01*
X64188011Y-83809488D01*
X64062488Y-83737017D01*
X64062489Y-83737017D01*
X64051006Y-83733940D01*
X63922475Y-83699500D01*
X63777525Y-83699500D01*
X63648993Y-83733940D01*
X63637511Y-83737017D01*
X63511988Y-83809488D01*
X63511982Y-83809493D01*
X63409493Y-83911982D01*
X63409491Y-83911985D01*
X63357387Y-84002231D01*
X63306819Y-84050446D01*
X63238212Y-84063668D01*
X63173347Y-84037700D01*
X63142613Y-84002231D01*
X63130932Y-83982000D01*
X63090509Y-83911985D01*
X62988015Y-83809491D01*
X62988013Y-83809490D01*
X62988011Y-83809488D01*
X62862488Y-83737017D01*
X62862489Y-83737017D01*
X62851006Y-83733940D01*
X62722475Y-83699500D01*
X62577525Y-83699500D01*
X62448993Y-83733940D01*
X62437511Y-83737017D01*
X62311988Y-83809488D01*
X62311982Y-83809493D01*
X62209493Y-83911982D01*
X62209488Y-83911988D01*
X62137017Y-84037511D01*
X62137016Y-84037515D01*
X62099500Y-84177525D01*
X50500500Y-84177525D01*
X50500500Y-82390025D01*
X67949500Y-82390025D01*
X67949500Y-82534975D01*
X67987016Y-82674985D01*
X67987017Y-82674988D01*
X68059488Y-82800511D01*
X68059490Y-82800513D01*
X68059491Y-82800515D01*
X68161985Y-82903009D01*
X68161986Y-82903010D01*
X68161988Y-82903011D01*
X68287511Y-82975482D01*
X68287512Y-82975482D01*
X68287515Y-82975484D01*
X68427525Y-83013000D01*
X68427528Y-83013000D01*
X68572472Y-83013000D01*
X68572475Y-83013000D01*
X68712485Y-82975484D01*
X68838015Y-82903009D01*
X68940509Y-82800515D01*
X69012984Y-82674985D01*
X69050500Y-82534975D01*
X69050500Y-82390025D01*
X69012984Y-82250015D01*
X68940509Y-82124485D01*
X68838015Y-82021991D01*
X68838013Y-82021990D01*
X68838011Y-82021988D01*
X68712488Y-81949517D01*
X68712489Y-81949517D01*
X68678878Y-81940511D01*
X68572475Y-81912000D01*
X68427525Y-81912000D01*
X68321122Y-81940511D01*
X68287511Y-81949517D01*
X68161988Y-82021988D01*
X68161982Y-82021993D01*
X68059493Y-82124482D01*
X68059488Y-82124488D01*
X67987017Y-82250011D01*
X67987016Y-82250015D01*
X67949500Y-82390025D01*
X50500500Y-82390025D01*
X50500500Y-81477525D01*
X71699500Y-81477525D01*
X71699500Y-81622475D01*
X71737016Y-81762485D01*
X71737017Y-81762488D01*
X71809488Y-81888011D01*
X71809490Y-81888013D01*
X71809491Y-81888015D01*
X71911985Y-81990509D01*
X71911986Y-81990510D01*
X71911988Y-81990511D01*
X72037511Y-82062982D01*
X72037512Y-82062982D01*
X72037515Y-82062984D01*
X72177525Y-82100500D01*
X72177528Y-82100500D01*
X72322472Y-82100500D01*
X72322475Y-82100500D01*
X72462485Y-82062984D01*
X72588015Y-81990509D01*
X72690509Y-81888015D01*
X72762984Y-81762485D01*
X72800500Y-81622475D01*
X72800500Y-81477525D01*
X79199500Y-81477525D01*
X79199500Y-81622475D01*
X79237016Y-81762485D01*
X79237017Y-81762488D01*
X79309488Y-81888011D01*
X79309490Y-81888013D01*
X79309491Y-81888015D01*
X79411985Y-81990509D01*
X79411986Y-81990510D01*
X79411988Y-81990511D01*
X79537511Y-82062982D01*
X79537512Y-82062982D01*
X79537515Y-82062984D01*
X79677525Y-82100500D01*
X79677528Y-82100500D01*
X79822472Y-82100500D01*
X79822475Y-82100500D01*
X79962485Y-82062984D01*
X80088015Y-81990509D01*
X80190509Y-81888015D01*
X80262984Y-81762485D01*
X80300500Y-81622475D01*
X80300500Y-81477525D01*
X80262984Y-81337515D01*
X80190509Y-81211985D01*
X80156049Y-81177525D01*
X85949500Y-81177525D01*
X85949500Y-81322475D01*
X85977649Y-81427527D01*
X85987017Y-81462488D01*
X86059488Y-81588011D01*
X86059490Y-81588013D01*
X86059491Y-81588015D01*
X86161985Y-81690509D01*
X86161986Y-81690510D01*
X86161988Y-81690511D01*
X86287511Y-81762982D01*
X86287512Y-81762982D01*
X86287515Y-81762984D01*
X86427525Y-81800500D01*
X86427528Y-81800500D01*
X86572472Y-81800500D01*
X86572475Y-81800500D01*
X86712485Y-81762984D01*
X86838015Y-81690509D01*
X86940509Y-81588015D01*
X87012984Y-81462485D01*
X87022352Y-81427525D01*
X128999500Y-81427525D01*
X128999500Y-81572475D01*
X129031128Y-81690511D01*
X129037017Y-81712488D01*
X129109488Y-81838011D01*
X129109490Y-81838013D01*
X129109491Y-81838015D01*
X129211985Y-81940509D01*
X129211986Y-81940510D01*
X129211988Y-81940511D01*
X129337511Y-82012982D01*
X129337512Y-82012982D01*
X129337515Y-82012984D01*
X129477525Y-82050500D01*
X129477528Y-82050500D01*
X129622472Y-82050500D01*
X129622475Y-82050500D01*
X129762485Y-82012984D01*
X129888015Y-81940509D01*
X129990509Y-81838015D01*
X130062984Y-81712485D01*
X130100500Y-81572475D01*
X130100500Y-81427525D01*
X130062984Y-81287515D01*
X130030585Y-81231399D01*
X129990511Y-81161988D01*
X129990506Y-81161982D01*
X129888017Y-81059493D01*
X129888011Y-81059488D01*
X129762488Y-80987017D01*
X129762489Y-80987017D01*
X129725732Y-80977168D01*
X129622475Y-80949500D01*
X129477525Y-80949500D01*
X129374268Y-80977168D01*
X129337511Y-80987017D01*
X129211988Y-81059488D01*
X129211982Y-81059493D01*
X129109493Y-81161982D01*
X129109488Y-81161988D01*
X129037017Y-81287511D01*
X129037016Y-81287515D01*
X128999500Y-81427525D01*
X87022352Y-81427525D01*
X87050500Y-81322475D01*
X87050500Y-81177525D01*
X87012984Y-81037515D01*
X87012696Y-81037017D01*
X86940511Y-80911988D01*
X86940506Y-80911982D01*
X86838017Y-80809493D01*
X86838011Y-80809488D01*
X86712488Y-80737017D01*
X86712489Y-80737017D01*
X86701006Y-80733940D01*
X86572475Y-80699500D01*
X86427525Y-80699500D01*
X86298993Y-80733940D01*
X86287511Y-80737017D01*
X86161988Y-80809488D01*
X86161982Y-80809493D01*
X86059493Y-80911982D01*
X86059488Y-80911988D01*
X85987017Y-81037511D01*
X85987016Y-81037515D01*
X85949500Y-81177525D01*
X80156049Y-81177525D01*
X80088015Y-81109491D01*
X80088013Y-81109490D01*
X80088011Y-81109488D01*
X79962488Y-81037017D01*
X79962489Y-81037017D01*
X79951006Y-81033940D01*
X79822475Y-80999500D01*
X79677525Y-80999500D01*
X79548993Y-81033940D01*
X79537511Y-81037017D01*
X79411988Y-81109488D01*
X79411982Y-81109493D01*
X79309493Y-81211982D01*
X79309488Y-81211988D01*
X79237017Y-81337511D01*
X79237016Y-81337515D01*
X79199500Y-81477525D01*
X72800500Y-81477525D01*
X72762984Y-81337515D01*
X72734116Y-81287515D01*
X72690511Y-81211988D01*
X72690506Y-81211982D01*
X72588017Y-81109493D01*
X72588011Y-81109488D01*
X72462488Y-81037017D01*
X72462489Y-81037017D01*
X72451006Y-81033940D01*
X72322475Y-80999500D01*
X72177525Y-80999500D01*
X72048993Y-81033940D01*
X72037511Y-81037017D01*
X71911988Y-81109488D01*
X71911982Y-81109493D01*
X71809493Y-81211982D01*
X71809488Y-81211988D01*
X71737017Y-81337511D01*
X71737016Y-81337515D01*
X71699500Y-81477525D01*
X50500500Y-81477525D01*
X50500500Y-80464182D01*
X93467829Y-80464182D01*
X93467829Y-80609132D01*
X93502096Y-80737016D01*
X93505346Y-80749145D01*
X93577817Y-80874668D01*
X93577819Y-80874670D01*
X93577820Y-80874672D01*
X93680314Y-80977166D01*
X93680315Y-80977167D01*
X93680317Y-80977168D01*
X93805840Y-81049639D01*
X93805841Y-81049639D01*
X93805844Y-81049641D01*
X93945854Y-81087157D01*
X93945857Y-81087157D01*
X94090801Y-81087157D01*
X94090804Y-81087157D01*
X94230814Y-81049641D01*
X94356344Y-80977166D01*
X94458838Y-80874672D01*
X94531313Y-80749142D01*
X94568829Y-80609132D01*
X94568829Y-80464182D01*
X94531313Y-80324172D01*
X94458838Y-80198642D01*
X94356344Y-80096148D01*
X94356342Y-80096147D01*
X94356340Y-80096145D01*
X94230817Y-80023674D01*
X94230818Y-80023674D01*
X94219335Y-80020597D01*
X94090804Y-79986157D01*
X93945854Y-79986157D01*
X93817322Y-80020597D01*
X93805840Y-80023674D01*
X93680317Y-80096145D01*
X93680311Y-80096150D01*
X93577822Y-80198639D01*
X93577817Y-80198645D01*
X93505346Y-80324168D01*
X93505345Y-80324172D01*
X93467829Y-80464182D01*
X50500500Y-80464182D01*
X50500500Y-79427525D01*
X67699500Y-79427525D01*
X67699500Y-79572475D01*
X67737016Y-79712485D01*
X67737017Y-79712488D01*
X67809488Y-79838011D01*
X67809490Y-79838013D01*
X67809491Y-79838015D01*
X67911985Y-79940509D01*
X67911986Y-79940510D01*
X67911988Y-79940511D01*
X68037511Y-80012982D01*
X68037512Y-80012982D01*
X68037515Y-80012984D01*
X68177525Y-80050500D01*
X68177528Y-80050500D01*
X68322472Y-80050500D01*
X68322475Y-80050500D01*
X68462485Y-80012984D01*
X68588015Y-79940509D01*
X68690509Y-79838015D01*
X68762984Y-79712485D01*
X68800500Y-79572475D01*
X68800500Y-79427525D01*
X72199500Y-79427525D01*
X72199500Y-79572475D01*
X72237016Y-79712485D01*
X72237017Y-79712488D01*
X72309488Y-79838011D01*
X72309490Y-79838013D01*
X72309491Y-79838015D01*
X72411985Y-79940509D01*
X72411986Y-79940510D01*
X72411988Y-79940511D01*
X72537511Y-80012982D01*
X72537512Y-80012982D01*
X72537515Y-80012984D01*
X72677525Y-80050500D01*
X72677528Y-80050500D01*
X72822472Y-80050500D01*
X72822475Y-80050500D01*
X72962485Y-80012984D01*
X73088015Y-79940509D01*
X73190509Y-79838015D01*
X73262984Y-79712485D01*
X73300500Y-79572475D01*
X73300500Y-79459584D01*
X80681559Y-79459584D01*
X80681559Y-79604534D01*
X80697285Y-79663223D01*
X80719076Y-79744547D01*
X80791547Y-79870070D01*
X80791549Y-79870072D01*
X80791550Y-79870074D01*
X80894044Y-79972568D01*
X80894045Y-79972569D01*
X80894047Y-79972570D01*
X81019570Y-80045041D01*
X81019571Y-80045041D01*
X81019574Y-80045043D01*
X81159584Y-80082559D01*
X81159587Y-80082559D01*
X81304531Y-80082559D01*
X81304534Y-80082559D01*
X81444544Y-80045043D01*
X81570074Y-79972568D01*
X81672568Y-79870074D01*
X81745043Y-79744544D01*
X81782559Y-79604534D01*
X81782559Y-79459584D01*
X81745043Y-79319574D01*
X81739575Y-79310104D01*
X81672570Y-79194047D01*
X81672565Y-79194041D01*
X81570076Y-79091552D01*
X81570070Y-79091547D01*
X81444547Y-79019076D01*
X81444548Y-79019076D01*
X81433065Y-79015999D01*
X81304534Y-78981559D01*
X81159584Y-78981559D01*
X81031052Y-79015999D01*
X81019570Y-79019076D01*
X80894047Y-79091547D01*
X80894041Y-79091552D01*
X80791552Y-79194041D01*
X80791547Y-79194047D01*
X80719076Y-79319570D01*
X80719075Y-79319574D01*
X80681559Y-79459584D01*
X73300500Y-79459584D01*
X73300500Y-79427525D01*
X73262984Y-79287515D01*
X73234538Y-79238246D01*
X73190511Y-79161988D01*
X73190506Y-79161982D01*
X73088017Y-79059493D01*
X73088011Y-79059488D01*
X72962488Y-78987017D01*
X72962489Y-78987017D01*
X72942119Y-78981559D01*
X72822475Y-78949500D01*
X72677525Y-78949500D01*
X72557881Y-78981559D01*
X72537511Y-78987017D01*
X72411988Y-79059488D01*
X72411982Y-79059493D01*
X72309493Y-79161982D01*
X72309488Y-79161988D01*
X72237017Y-79287511D01*
X72237016Y-79287515D01*
X72199500Y-79427525D01*
X68800500Y-79427525D01*
X68762984Y-79287515D01*
X68734538Y-79238246D01*
X68690511Y-79161988D01*
X68690506Y-79161982D01*
X68588017Y-79059493D01*
X68588011Y-79059488D01*
X68462488Y-78987017D01*
X68462489Y-78987017D01*
X68442119Y-78981559D01*
X68322475Y-78949500D01*
X68177525Y-78949500D01*
X68057881Y-78981559D01*
X68037511Y-78987017D01*
X67911988Y-79059488D01*
X67911982Y-79059493D01*
X67809493Y-79161982D01*
X67809488Y-79161988D01*
X67737017Y-79287511D01*
X67737016Y-79287515D01*
X67699500Y-79427525D01*
X50500500Y-79427525D01*
X50500500Y-78628260D01*
X93599500Y-78628260D01*
X93599500Y-78773210D01*
X93633537Y-78900235D01*
X93637017Y-78913223D01*
X93709488Y-79038746D01*
X93709490Y-79038748D01*
X93709491Y-79038750D01*
X93811985Y-79141244D01*
X93811986Y-79141245D01*
X93811988Y-79141246D01*
X93937511Y-79213717D01*
X93937512Y-79213717D01*
X93937515Y-79213719D01*
X94077525Y-79251235D01*
X94077528Y-79251235D01*
X94222472Y-79251235D01*
X94222475Y-79251235D01*
X94362485Y-79213719D01*
X94488015Y-79141244D01*
X94590509Y-79038750D01*
X94662984Y-78913220D01*
X94694094Y-78797118D01*
X113585867Y-78797118D01*
X113585867Y-78942068D01*
X113623383Y-79082078D01*
X113623384Y-79082081D01*
X113695855Y-79207604D01*
X113695857Y-79207606D01*
X113695858Y-79207608D01*
X113798352Y-79310102D01*
X113798353Y-79310103D01*
X113798355Y-79310104D01*
X113923878Y-79382575D01*
X113923879Y-79382575D01*
X113923882Y-79382577D01*
X114063892Y-79420093D01*
X114063895Y-79420093D01*
X114066145Y-79420696D01*
X114125805Y-79457061D01*
X114153825Y-79508376D01*
X114179590Y-79604531D01*
X114190730Y-79646103D01*
X114263201Y-79771626D01*
X114263203Y-79771628D01*
X114263204Y-79771630D01*
X114365698Y-79874124D01*
X114365699Y-79874125D01*
X114365701Y-79874126D01*
X114491224Y-79946597D01*
X114491225Y-79946597D01*
X114491228Y-79946599D01*
X114631238Y-79984115D01*
X114631241Y-79984115D01*
X114776185Y-79984115D01*
X114776188Y-79984115D01*
X114916198Y-79946599D01*
X115041728Y-79874124D01*
X115144222Y-79771630D01*
X115216697Y-79646100D01*
X115254213Y-79506090D01*
X115254213Y-79361140D01*
X115216697Y-79221130D01*
X115212418Y-79213719D01*
X115144224Y-79095603D01*
X115144219Y-79095597D01*
X115041730Y-78993108D01*
X115041724Y-78993103D01*
X114916201Y-78920632D01*
X114916202Y-78920632D01*
X114773934Y-78882511D01*
X114763684Y-78876263D01*
X114751847Y-78874273D01*
X114734402Y-78858415D01*
X114714273Y-78846145D01*
X114707735Y-78834172D01*
X114700147Y-78827274D01*
X114686255Y-78794835D01*
X114654822Y-78677525D01*
X117699500Y-78677525D01*
X117699500Y-78822475D01*
X117733537Y-78949500D01*
X117737017Y-78962488D01*
X117809488Y-79088011D01*
X117809490Y-79088013D01*
X117809491Y-79088015D01*
X117911985Y-79190509D01*
X117911986Y-79190510D01*
X117911988Y-79190511D01*
X118037511Y-79262982D01*
X118037512Y-79262982D01*
X118037515Y-79262984D01*
X118156861Y-79294963D01*
X118216519Y-79331326D01*
X118247048Y-79394173D01*
X118248765Y-79414736D01*
X118248765Y-79523210D01*
X118286281Y-79663220D01*
X118286282Y-79663223D01*
X118358753Y-79788746D01*
X118358755Y-79788748D01*
X118358756Y-79788750D01*
X118461250Y-79891244D01*
X118461251Y-79891245D01*
X118461253Y-79891246D01*
X118586776Y-79963717D01*
X118586777Y-79963717D01*
X118586780Y-79963719D01*
X118726790Y-80001235D01*
X118726793Y-80001235D01*
X118871737Y-80001235D01*
X118871740Y-80001235D01*
X119011750Y-79963719D01*
X119137280Y-79891244D01*
X119239774Y-79788750D01*
X119312249Y-79663220D01*
X119349765Y-79523210D01*
X119349765Y-79378260D01*
X119312249Y-79238250D01*
X119302362Y-79221126D01*
X119239776Y-79112723D01*
X119239771Y-79112717D01*
X119137282Y-79010228D01*
X119137276Y-79010223D01*
X119011753Y-78937752D01*
X119011754Y-78937752D01*
X118996713Y-78933721D01*
X118892404Y-78905772D01*
X118832746Y-78869408D01*
X118802217Y-78806560D01*
X118800500Y-78785998D01*
X118800500Y-78677527D01*
X118800500Y-78677525D01*
X118762984Y-78537515D01*
X118759556Y-78531578D01*
X118690511Y-78411988D01*
X118690506Y-78411982D01*
X118588017Y-78309493D01*
X118588011Y-78309488D01*
X118462488Y-78237017D01*
X118462489Y-78237017D01*
X118451006Y-78233940D01*
X118322475Y-78199500D01*
X118177525Y-78199500D01*
X118048993Y-78233940D01*
X118037511Y-78237017D01*
X117911988Y-78309488D01*
X117911982Y-78309493D01*
X117809493Y-78411982D01*
X117809488Y-78411988D01*
X117737017Y-78537511D01*
X117737016Y-78537515D01*
X117699500Y-78677525D01*
X114654822Y-78677525D01*
X114649351Y-78657108D01*
X114580301Y-78537511D01*
X114576878Y-78531581D01*
X114576873Y-78531575D01*
X114474384Y-78429086D01*
X114474378Y-78429081D01*
X114348855Y-78356610D01*
X114348856Y-78356610D01*
X114337373Y-78353533D01*
X114208842Y-78319093D01*
X114063892Y-78319093D01*
X113935360Y-78353533D01*
X113923878Y-78356610D01*
X113798355Y-78429081D01*
X113798349Y-78429086D01*
X113695860Y-78531575D01*
X113695855Y-78531581D01*
X113623384Y-78657104D01*
X113623383Y-78657108D01*
X113585867Y-78797118D01*
X94694094Y-78797118D01*
X94700500Y-78773210D01*
X94700500Y-78628260D01*
X94662984Y-78488250D01*
X94628824Y-78429084D01*
X94590511Y-78362723D01*
X94590506Y-78362717D01*
X94488017Y-78260228D01*
X94488011Y-78260223D01*
X94362488Y-78187752D01*
X94362489Y-78187752D01*
X94351006Y-78184675D01*
X94222475Y-78150235D01*
X94077525Y-78150235D01*
X93948993Y-78184675D01*
X93937511Y-78187752D01*
X93811988Y-78260223D01*
X93811982Y-78260228D01*
X93709493Y-78362717D01*
X93709488Y-78362723D01*
X93637017Y-78488246D01*
X93637016Y-78488250D01*
X93599500Y-78628260D01*
X50500500Y-78628260D01*
X50500500Y-77927525D01*
X128949500Y-77927525D01*
X128949500Y-78072475D01*
X128980389Y-78187752D01*
X128987017Y-78212488D01*
X129059488Y-78338011D01*
X129059490Y-78338013D01*
X129059491Y-78338015D01*
X129161985Y-78440509D01*
X129161986Y-78440510D01*
X129161988Y-78440511D01*
X129287511Y-78512982D01*
X129287512Y-78512982D01*
X129287515Y-78512984D01*
X129427525Y-78550500D01*
X129427528Y-78550500D01*
X129572472Y-78550500D01*
X129572475Y-78550500D01*
X129712485Y-78512984D01*
X129838015Y-78440509D01*
X129940509Y-78338015D01*
X130012984Y-78212485D01*
X130050500Y-78072475D01*
X130050500Y-77927525D01*
X130012984Y-77787515D01*
X129940509Y-77661985D01*
X129838015Y-77559491D01*
X129838013Y-77559490D01*
X129838011Y-77559488D01*
X129712488Y-77487017D01*
X129712489Y-77487017D01*
X129701006Y-77483940D01*
X129572475Y-77449500D01*
X129427525Y-77449500D01*
X129298993Y-77483940D01*
X129287511Y-77487017D01*
X129161988Y-77559488D01*
X129161982Y-77559493D01*
X129059493Y-77661982D01*
X129059488Y-77661988D01*
X128987017Y-77787511D01*
X128987016Y-77787515D01*
X128949500Y-77927525D01*
X50500500Y-77927525D01*
X50500500Y-76677525D01*
X81449500Y-76677525D01*
X81449500Y-76822475D01*
X81481128Y-76940511D01*
X81487017Y-76962488D01*
X81559488Y-77088011D01*
X81559490Y-77088013D01*
X81559491Y-77088015D01*
X81661985Y-77190509D01*
X81661986Y-77190510D01*
X81661988Y-77190511D01*
X81787511Y-77262982D01*
X81787512Y-77262982D01*
X81787515Y-77262984D01*
X81927525Y-77300500D01*
X81927528Y-77300500D01*
X82072472Y-77300500D01*
X82072475Y-77300500D01*
X82212485Y-77262984D01*
X82338015Y-77190509D01*
X82440509Y-77088015D01*
X82512984Y-76962485D01*
X82550500Y-76822475D01*
X82550500Y-76677525D01*
X82512984Y-76537515D01*
X82512474Y-76536632D01*
X82449481Y-76427525D01*
X97449500Y-76427525D01*
X97449500Y-76572475D01*
X97477649Y-76677527D01*
X97487017Y-76712488D01*
X97559488Y-76838011D01*
X97559490Y-76838013D01*
X97559491Y-76838015D01*
X97661985Y-76940509D01*
X97661986Y-76940510D01*
X97661988Y-76940511D01*
X97787511Y-77012982D01*
X97787512Y-77012982D01*
X97787515Y-77012984D01*
X97927525Y-77050500D01*
X97927528Y-77050500D01*
X98072472Y-77050500D01*
X98072475Y-77050500D01*
X98212485Y-77012984D01*
X98338015Y-76940509D01*
X98440509Y-76838015D01*
X98512984Y-76712485D01*
X98550500Y-76572475D01*
X98550500Y-76462881D01*
X100868736Y-76462881D01*
X100868736Y-76607831D01*
X100896779Y-76712488D01*
X100906253Y-76747844D01*
X100978724Y-76873367D01*
X100978726Y-76873369D01*
X100978727Y-76873371D01*
X101081221Y-76975865D01*
X101081222Y-76975866D01*
X101081224Y-76975867D01*
X101206747Y-77048338D01*
X101206748Y-77048338D01*
X101206751Y-77048340D01*
X101346761Y-77085856D01*
X101346764Y-77085856D01*
X101491708Y-77085856D01*
X101491711Y-77085856D01*
X101631721Y-77048340D01*
X101757251Y-76975865D01*
X101859745Y-76873371D01*
X101932220Y-76747841D01*
X101969736Y-76607831D01*
X101969736Y-76527525D01*
X106249500Y-76527525D01*
X106249500Y-76672475D01*
X106287016Y-76812485D01*
X106287017Y-76812488D01*
X106359488Y-76938011D01*
X106359490Y-76938013D01*
X106359491Y-76938015D01*
X106461985Y-77040509D01*
X106461986Y-77040510D01*
X106461988Y-77040511D01*
X106587511Y-77112982D01*
X106587512Y-77112982D01*
X106587515Y-77112984D01*
X106727525Y-77150500D01*
X106727528Y-77150500D01*
X106872472Y-77150500D01*
X106872475Y-77150500D01*
X107012485Y-77112984D01*
X107138015Y-77040509D01*
X107240509Y-76938015D01*
X107312984Y-76812485D01*
X107350500Y-76672475D01*
X107350500Y-76527525D01*
X107312984Y-76387515D01*
X107275659Y-76322867D01*
X107240511Y-76261988D01*
X107240506Y-76261982D01*
X107138017Y-76159493D01*
X107138011Y-76159488D01*
X107012488Y-76087017D01*
X107012489Y-76087017D01*
X107001006Y-76083940D01*
X106872475Y-76049500D01*
X106727525Y-76049500D01*
X106598993Y-76083940D01*
X106587511Y-76087017D01*
X106461988Y-76159488D01*
X106461982Y-76159493D01*
X106359493Y-76261982D01*
X106359488Y-76261988D01*
X106287017Y-76387511D01*
X106287016Y-76387515D01*
X106249500Y-76527525D01*
X101969736Y-76527525D01*
X101969736Y-76462881D01*
X101932220Y-76322871D01*
X101924493Y-76309488D01*
X101859747Y-76197344D01*
X101859742Y-76197338D01*
X101757253Y-76094849D01*
X101757247Y-76094844D01*
X101631724Y-76022373D01*
X101631725Y-76022373D01*
X101620242Y-76019296D01*
X101491711Y-75984856D01*
X101346761Y-75984856D01*
X101218229Y-76019296D01*
X101206747Y-76022373D01*
X101081224Y-76094844D01*
X101081218Y-76094849D01*
X100978729Y-76197338D01*
X100978724Y-76197344D01*
X100906253Y-76322867D01*
X100906252Y-76322871D01*
X100868736Y-76462881D01*
X98550500Y-76462881D01*
X98550500Y-76427525D01*
X98512984Y-76287515D01*
X98498244Y-76261985D01*
X98440511Y-76161988D01*
X98440506Y-76161982D01*
X98338017Y-76059493D01*
X98338011Y-76059488D01*
X98212488Y-75987017D01*
X98212489Y-75987017D01*
X98201006Y-75983940D01*
X98072475Y-75949500D01*
X97927525Y-75949500D01*
X97798993Y-75983940D01*
X97787511Y-75987017D01*
X97661988Y-76059488D01*
X97661982Y-76059493D01*
X97559493Y-76161982D01*
X97559488Y-76161988D01*
X97487017Y-76287511D01*
X97487016Y-76287515D01*
X97449500Y-76427525D01*
X82449481Y-76427525D01*
X82440511Y-76411988D01*
X82440506Y-76411982D01*
X82338017Y-76309493D01*
X82338011Y-76309488D01*
X82212488Y-76237017D01*
X82212489Y-76237017D01*
X82201006Y-76233940D01*
X82072475Y-76199500D01*
X81927525Y-76199500D01*
X81798993Y-76233940D01*
X81787511Y-76237017D01*
X81661988Y-76309488D01*
X81661982Y-76309493D01*
X81559493Y-76411982D01*
X81559488Y-76411988D01*
X81487017Y-76537511D01*
X81487016Y-76537515D01*
X81449500Y-76677525D01*
X50500500Y-76677525D01*
X50500500Y-75289915D01*
X84851229Y-75289915D01*
X84851229Y-75434865D01*
X84882470Y-75551456D01*
X84888746Y-75574878D01*
X84961217Y-75700401D01*
X84961219Y-75700403D01*
X84961220Y-75700405D01*
X85063714Y-75802899D01*
X85063715Y-75802900D01*
X85063717Y-75802901D01*
X85189240Y-75875372D01*
X85189241Y-75875372D01*
X85189244Y-75875374D01*
X85329254Y-75912890D01*
X85329257Y-75912890D01*
X85474201Y-75912890D01*
X85474204Y-75912890D01*
X85614214Y-75875374D01*
X85739744Y-75802899D01*
X85842238Y-75700405D01*
X85855448Y-75677525D01*
X95949500Y-75677525D01*
X95949500Y-75822475D01*
X95973727Y-75912890D01*
X95987017Y-75962488D01*
X96059488Y-76088011D01*
X96059490Y-76088013D01*
X96059491Y-76088015D01*
X96161985Y-76190509D01*
X96161986Y-76190510D01*
X96161988Y-76190511D01*
X96287511Y-76262982D01*
X96287512Y-76262982D01*
X96287515Y-76262984D01*
X96427525Y-76300500D01*
X96427528Y-76300500D01*
X96572473Y-76300500D01*
X96572475Y-76300500D01*
X96712485Y-76262984D01*
X96838015Y-76190509D01*
X96940509Y-76088015D01*
X97012984Y-75962485D01*
X97050500Y-75822475D01*
X97050500Y-75748543D01*
X136349499Y-75748543D01*
X136387947Y-75941829D01*
X136387950Y-75941839D01*
X136463364Y-76123907D01*
X136463371Y-76123920D01*
X136572860Y-76287781D01*
X136572863Y-76287785D01*
X136712214Y-76427136D01*
X136712218Y-76427139D01*
X136876079Y-76536628D01*
X136876092Y-76536635D01*
X137047977Y-76607831D01*
X137058165Y-76612051D01*
X137058169Y-76612051D01*
X137058170Y-76612052D01*
X137251456Y-76650500D01*
X137251459Y-76650500D01*
X137448543Y-76650500D01*
X137578582Y-76624632D01*
X137641835Y-76612051D01*
X137823914Y-76536632D01*
X137987782Y-76427139D01*
X138127139Y-76287782D01*
X138236632Y-76123914D01*
X138312051Y-75941835D01*
X138325271Y-75875372D01*
X138350500Y-75748543D01*
X138350500Y-75551456D01*
X138312052Y-75358170D01*
X138312051Y-75358169D01*
X138312051Y-75358165D01*
X138291890Y-75309491D01*
X138236635Y-75176092D01*
X138236628Y-75176079D01*
X138127139Y-75012218D01*
X138127136Y-75012214D01*
X137987787Y-74872865D01*
X137984725Y-74870352D01*
X137983552Y-74868630D01*
X137983475Y-74868553D01*
X137983489Y-74868538D01*
X137945392Y-74812605D01*
X137943523Y-74742761D01*
X137979711Y-74682993D01*
X138042468Y-74652278D01*
X138063392Y-74650500D01*
X138124676Y-74650500D01*
X138124677Y-74650499D01*
X138197740Y-74635966D01*
X138280601Y-74580601D01*
X138335966Y-74497740D01*
X138350500Y-74424674D01*
X138350500Y-72875326D01*
X138350500Y-72875323D01*
X138350499Y-72875321D01*
X138335967Y-72802264D01*
X138335966Y-72802260D01*
X138318659Y-72776358D01*
X138280601Y-72719399D01*
X138225235Y-72682405D01*
X138197739Y-72664033D01*
X138197735Y-72664032D01*
X138124677Y-72649500D01*
X138124674Y-72649500D01*
X136575326Y-72649500D01*
X136575323Y-72649500D01*
X136502264Y-72664032D01*
X136502260Y-72664033D01*
X136419399Y-72719399D01*
X136364033Y-72802260D01*
X136364032Y-72802264D01*
X136349500Y-72875321D01*
X136349500Y-74424678D01*
X136364032Y-74497735D01*
X136364033Y-74497739D01*
X136364034Y-74497740D01*
X136419399Y-74580601D01*
X136502260Y-74635966D01*
X136502264Y-74635967D01*
X136575321Y-74650499D01*
X136575324Y-74650500D01*
X136575326Y-74650500D01*
X136636608Y-74650500D01*
X136703647Y-74670185D01*
X136749402Y-74722989D01*
X136759346Y-74792147D01*
X136730321Y-74855703D01*
X136715275Y-74870352D01*
X136712212Y-74872865D01*
X136572863Y-75012214D01*
X136572860Y-75012218D01*
X136463371Y-75176079D01*
X136463364Y-75176092D01*
X136387950Y-75358160D01*
X136387947Y-75358170D01*
X136349500Y-75551456D01*
X136349500Y-75551459D01*
X136349500Y-75748541D01*
X136349500Y-75748543D01*
X136349499Y-75748543D01*
X97050500Y-75748543D01*
X97050500Y-75677525D01*
X97012984Y-75537515D01*
X96940509Y-75411985D01*
X96838015Y-75309491D01*
X96838013Y-75309490D01*
X96838011Y-75309488D01*
X96712488Y-75237017D01*
X96712489Y-75237017D01*
X96701006Y-75233940D01*
X96572475Y-75199500D01*
X96427525Y-75199500D01*
X96298993Y-75233940D01*
X96287511Y-75237017D01*
X96161988Y-75309488D01*
X96161982Y-75309493D01*
X96059493Y-75411982D01*
X96059488Y-75411988D01*
X95987017Y-75537511D01*
X95987016Y-75537515D01*
X95949500Y-75677525D01*
X85855448Y-75677525D01*
X85914713Y-75574875D01*
X85952229Y-75434865D01*
X85952229Y-75289915D01*
X85914713Y-75149905D01*
X85878978Y-75088011D01*
X85842240Y-75024378D01*
X85842235Y-75024372D01*
X85739746Y-74921883D01*
X85739740Y-74921878D01*
X85614217Y-74849407D01*
X85614218Y-74849407D01*
X85602735Y-74846330D01*
X85474204Y-74811890D01*
X85329254Y-74811890D01*
X85200722Y-74846330D01*
X85189240Y-74849407D01*
X85063717Y-74921878D01*
X85063711Y-74921883D01*
X84961222Y-75024372D01*
X84961217Y-75024378D01*
X84888746Y-75149901D01*
X84888745Y-75149905D01*
X84851229Y-75289915D01*
X50500500Y-75289915D01*
X50500500Y-74427525D01*
X93599500Y-74427525D01*
X93599500Y-74572475D01*
X93627649Y-74677527D01*
X93637017Y-74712488D01*
X93709488Y-74838011D01*
X93709490Y-74838013D01*
X93709491Y-74838015D01*
X93811985Y-74940509D01*
X93811986Y-74940510D01*
X93811988Y-74940511D01*
X93937511Y-75012982D01*
X93937512Y-75012982D01*
X93937515Y-75012984D01*
X94077525Y-75050500D01*
X94077528Y-75050500D01*
X94222472Y-75050500D01*
X94222475Y-75050500D01*
X94362485Y-75012984D01*
X94488015Y-74940509D01*
X94590509Y-74838015D01*
X94662984Y-74712485D01*
X94672352Y-74677525D01*
X113949500Y-74677525D01*
X113949500Y-74822475D01*
X113981128Y-74940511D01*
X113987017Y-74962488D01*
X114059488Y-75088011D01*
X114059490Y-75088013D01*
X114059491Y-75088015D01*
X114161985Y-75190509D01*
X114161986Y-75190510D01*
X114161988Y-75190511D01*
X114287511Y-75262982D01*
X114287512Y-75262982D01*
X114287515Y-75262984D01*
X114427525Y-75300500D01*
X114427528Y-75300500D01*
X114572472Y-75300500D01*
X114572475Y-75300500D01*
X114712485Y-75262984D01*
X114838015Y-75190509D01*
X114940509Y-75088015D01*
X115012984Y-74962485D01*
X115050500Y-74822475D01*
X115050500Y-74677525D01*
X115012984Y-74537515D01*
X114990019Y-74497739D01*
X114940511Y-74411988D01*
X114940506Y-74411982D01*
X114838017Y-74309493D01*
X114838011Y-74309488D01*
X114712488Y-74237017D01*
X114712489Y-74237017D01*
X114701006Y-74233940D01*
X114572475Y-74199500D01*
X114427525Y-74199500D01*
X114298993Y-74233940D01*
X114287511Y-74237017D01*
X114161988Y-74309488D01*
X114161982Y-74309493D01*
X114059493Y-74411982D01*
X114059488Y-74411988D01*
X113987017Y-74537511D01*
X113987016Y-74537515D01*
X113949500Y-74677525D01*
X94672352Y-74677525D01*
X94700500Y-74572475D01*
X94700500Y-74427525D01*
X94662984Y-74287515D01*
X94644901Y-74256195D01*
X94590511Y-74161988D01*
X94590506Y-74161982D01*
X94488017Y-74059493D01*
X94488011Y-74059488D01*
X94362488Y-73987017D01*
X94362489Y-73987017D01*
X94351006Y-73983940D01*
X94222475Y-73949500D01*
X94077525Y-73949500D01*
X93948993Y-73983940D01*
X93937511Y-73987017D01*
X93811988Y-74059488D01*
X93811982Y-74059493D01*
X93709493Y-74161982D01*
X93709488Y-74161988D01*
X93637017Y-74287511D01*
X93637016Y-74287515D01*
X93599500Y-74427525D01*
X50500500Y-74427525D01*
X50500500Y-72165760D01*
X88612735Y-72165760D01*
X88612735Y-72310710D01*
X88650251Y-72450720D01*
X88650252Y-72450723D01*
X88722723Y-72576246D01*
X88722725Y-72576248D01*
X88722726Y-72576250D01*
X88825220Y-72678744D01*
X88825221Y-72678745D01*
X88825223Y-72678746D01*
X88950746Y-72751217D01*
X88950747Y-72751217D01*
X88950750Y-72751219D01*
X89090760Y-72788735D01*
X89090763Y-72788735D01*
X89235707Y-72788735D01*
X89235710Y-72788735D01*
X89375720Y-72751219D01*
X89501250Y-72678744D01*
X89603744Y-72576250D01*
X89676219Y-72450720D01*
X89713735Y-72310710D01*
X89713735Y-72177525D01*
X90699500Y-72177525D01*
X90699500Y-72322475D01*
X90737016Y-72462485D01*
X90737017Y-72462488D01*
X90809488Y-72588011D01*
X90809493Y-72588017D01*
X90883795Y-72662319D01*
X90917280Y-72723642D01*
X90912296Y-72793334D01*
X90883795Y-72837681D01*
X90809493Y-72911982D01*
X90809488Y-72911988D01*
X90737017Y-73037511D01*
X90737016Y-73037515D01*
X90699500Y-73177525D01*
X90699500Y-73322475D01*
X90737016Y-73462485D01*
X90737017Y-73462488D01*
X90809488Y-73588011D01*
X90809490Y-73588013D01*
X90809491Y-73588015D01*
X90911985Y-73690509D01*
X90911986Y-73690510D01*
X90911988Y-73690511D01*
X91037511Y-73762982D01*
X91037512Y-73762982D01*
X91037515Y-73762984D01*
X91177525Y-73800500D01*
X91177528Y-73800500D01*
X91322472Y-73800500D01*
X91322475Y-73800500D01*
X91462485Y-73762984D01*
X91588015Y-73690509D01*
X91662319Y-73616205D01*
X91723642Y-73582720D01*
X91793334Y-73587704D01*
X91837681Y-73616205D01*
X91911985Y-73690509D01*
X91911986Y-73690510D01*
X91911988Y-73690511D01*
X92037511Y-73762982D01*
X92037512Y-73762982D01*
X92037515Y-73762984D01*
X92177512Y-73800496D01*
X92237170Y-73836860D01*
X92265190Y-73888175D01*
X92302703Y-74028172D01*
X92302704Y-74028175D01*
X92375175Y-74153698D01*
X92375177Y-74153700D01*
X92375178Y-74153702D01*
X92477672Y-74256196D01*
X92477673Y-74256197D01*
X92477675Y-74256198D01*
X92603198Y-74328669D01*
X92603199Y-74328669D01*
X92603202Y-74328671D01*
X92743212Y-74366187D01*
X92743215Y-74366187D01*
X92888159Y-74366187D01*
X92888162Y-74366187D01*
X93028172Y-74328671D01*
X93153702Y-74256196D01*
X93256196Y-74153702D01*
X93328671Y-74028172D01*
X93366187Y-73888162D01*
X93366187Y-73743212D01*
X93328671Y-73603202D01*
X93319900Y-73588011D01*
X93256198Y-73477675D01*
X93256193Y-73477669D01*
X93153704Y-73375180D01*
X93153698Y-73375175D01*
X93028175Y-73302704D01*
X93028176Y-73302704D01*
X92996806Y-73294298D01*
X92888175Y-73265190D01*
X92828516Y-73228825D01*
X92800496Y-73177513D01*
X92762984Y-73037515D01*
X92750000Y-73015026D01*
X92701623Y-72931234D01*
X92693193Y-72916634D01*
X92690509Y-72911985D01*
X92588015Y-72809491D01*
X92588013Y-72809490D01*
X92588011Y-72809488D01*
X92462488Y-72737017D01*
X92462489Y-72737017D01*
X92451006Y-72733940D01*
X92322475Y-72699500D01*
X92177525Y-72699500D01*
X92048993Y-72733940D01*
X92037511Y-72737017D01*
X91911988Y-72809488D01*
X91911982Y-72809493D01*
X91837681Y-72883795D01*
X91829735Y-72888133D01*
X91824310Y-72895381D01*
X91799550Y-72904615D01*
X91776358Y-72917280D01*
X91767328Y-72916634D01*
X91758846Y-72919798D01*
X91733025Y-72914181D01*
X91706666Y-72912296D01*
X91697612Y-72906477D01*
X91690573Y-72904946D01*
X91662319Y-72883795D01*
X91616205Y-72837681D01*
X91582720Y-72776358D01*
X91587704Y-72706666D01*
X91616205Y-72662319D01*
X91629024Y-72649500D01*
X91690509Y-72588015D01*
X91762984Y-72462485D01*
X91800500Y-72322475D01*
X91800500Y-72177525D01*
X91762984Y-72037515D01*
X91756191Y-72025750D01*
X91690511Y-71911988D01*
X91690506Y-71911982D01*
X91588017Y-71809493D01*
X91588011Y-71809488D01*
X91462488Y-71737017D01*
X91462489Y-71737017D01*
X91451006Y-71733940D01*
X91322475Y-71699500D01*
X91177525Y-71699500D01*
X91048993Y-71733940D01*
X91037511Y-71737017D01*
X90911988Y-71809488D01*
X90911982Y-71809493D01*
X90809493Y-71911982D01*
X90809488Y-71911988D01*
X90737017Y-72037511D01*
X90737016Y-72037515D01*
X90699500Y-72177525D01*
X89713735Y-72177525D01*
X89713735Y-72165760D01*
X89676219Y-72025750D01*
X89657573Y-71993455D01*
X89603746Y-71900223D01*
X89603741Y-71900217D01*
X89501252Y-71797728D01*
X89501246Y-71797723D01*
X89375723Y-71725252D01*
X89375724Y-71725252D01*
X89329939Y-71712984D01*
X89235710Y-71687735D01*
X89090760Y-71687735D01*
X88996531Y-71712984D01*
X88950746Y-71725252D01*
X88825223Y-71797723D01*
X88825217Y-71797728D01*
X88722728Y-71900217D01*
X88722723Y-71900223D01*
X88650252Y-72025746D01*
X88650251Y-72025750D01*
X88612735Y-72165760D01*
X50500500Y-72165760D01*
X50500500Y-70914781D01*
X93962244Y-70914781D01*
X93962244Y-71059731D01*
X93986566Y-71150500D01*
X93999761Y-71199744D01*
X94072232Y-71325267D01*
X94072234Y-71325269D01*
X94072235Y-71325271D01*
X94174729Y-71427765D01*
X94174730Y-71427766D01*
X94174732Y-71427767D01*
X94300255Y-71500238D01*
X94300256Y-71500238D01*
X94300259Y-71500240D01*
X94440256Y-71537752D01*
X94499914Y-71574116D01*
X94527933Y-71625430D01*
X94557834Y-71737016D01*
X94565448Y-71765432D01*
X94637919Y-71890955D01*
X94637921Y-71890957D01*
X94637922Y-71890959D01*
X94740416Y-71993453D01*
X94740417Y-71993454D01*
X94740419Y-71993455D01*
X94865942Y-72065926D01*
X94865943Y-72065926D01*
X94865946Y-72065928D01*
X95005956Y-72103444D01*
X95005959Y-72103444D01*
X95112650Y-72103444D01*
X95179689Y-72123129D01*
X95225444Y-72175933D01*
X95232424Y-72195349D01*
X95237015Y-72212483D01*
X95237017Y-72212488D01*
X95309488Y-72338011D01*
X95309490Y-72338013D01*
X95309491Y-72338015D01*
X95411985Y-72440509D01*
X95411986Y-72440510D01*
X95411988Y-72440511D01*
X95537511Y-72512982D01*
X95537512Y-72512982D01*
X95537515Y-72512984D01*
X95677525Y-72550500D01*
X95677528Y-72550500D01*
X95822472Y-72550500D01*
X95822475Y-72550500D01*
X95962485Y-72512984D01*
X96088015Y-72440509D01*
X96190509Y-72338015D01*
X96262984Y-72212485D01*
X96300500Y-72072475D01*
X96300500Y-71927525D01*
X96262984Y-71787515D01*
X96242505Y-71752045D01*
X96226033Y-71684147D01*
X96248885Y-71618120D01*
X96303806Y-71574929D01*
X96373359Y-71568287D01*
X96381982Y-71570270D01*
X96402308Y-71575717D01*
X96402310Y-71575717D01*
X96547255Y-71575717D01*
X96547258Y-71575717D01*
X96687268Y-71538201D01*
X96812798Y-71465726D01*
X96915292Y-71363232D01*
X96987767Y-71237702D01*
X97025283Y-71097692D01*
X97025283Y-70952742D01*
X96987767Y-70812732D01*
X96987624Y-70812485D01*
X96915294Y-70687205D01*
X96915289Y-70687199D01*
X96812800Y-70584710D01*
X96812794Y-70584705D01*
X96687271Y-70512234D01*
X96687272Y-70512234D01*
X96675789Y-70509157D01*
X96547258Y-70474717D01*
X96402308Y-70474717D01*
X96273776Y-70509157D01*
X96262294Y-70512234D01*
X96136771Y-70584705D01*
X96136765Y-70584710D01*
X96034276Y-70687199D01*
X96034271Y-70687205D01*
X95961800Y-70812728D01*
X95961799Y-70812732D01*
X95924283Y-70952742D01*
X95924283Y-71097692D01*
X95951628Y-71199744D01*
X95961800Y-71237705D01*
X95982276Y-71273170D01*
X95998749Y-71341070D01*
X95975897Y-71407097D01*
X95920975Y-71450288D01*
X95867367Y-71458942D01*
X95854880Y-71458183D01*
X95822475Y-71449500D01*
X95712010Y-71449500D01*
X95708259Y-71449272D01*
X95678791Y-71438638D01*
X95648742Y-71429815D01*
X95646195Y-71426876D01*
X95642537Y-71425556D01*
X95623493Y-71400676D01*
X95602987Y-71377011D01*
X95600868Y-71371118D01*
X95600069Y-71370074D01*
X95599943Y-71368543D01*
X95596007Y-71357595D01*
X95591416Y-71340463D01*
X95591415Y-71340459D01*
X95518940Y-71214929D01*
X95416446Y-71112435D01*
X95416444Y-71112434D01*
X95416442Y-71112432D01*
X95290919Y-71039961D01*
X95290920Y-71039961D01*
X95259550Y-71031555D01*
X95150919Y-71002447D01*
X95091260Y-70966082D01*
X95063240Y-70914769D01*
X95025728Y-70774771D01*
X95016907Y-70759493D01*
X94953255Y-70649244D01*
X94953250Y-70649238D01*
X94850761Y-70546749D01*
X94850755Y-70546744D01*
X94725232Y-70474273D01*
X94725233Y-70474273D01*
X94713750Y-70471196D01*
X94585219Y-70436756D01*
X94440269Y-70436756D01*
X94311737Y-70471196D01*
X94300255Y-70474273D01*
X94174732Y-70546744D01*
X94174726Y-70546749D01*
X94072237Y-70649238D01*
X94072232Y-70649244D01*
X93999761Y-70774767D01*
X93999760Y-70774771D01*
X93962244Y-70914781D01*
X50500500Y-70914781D01*
X50500500Y-69727525D01*
X98099500Y-69727525D01*
X98099500Y-69872475D01*
X98137016Y-70012485D01*
X98137017Y-70012488D01*
X98209488Y-70138011D01*
X98209490Y-70138013D01*
X98209491Y-70138015D01*
X98311985Y-70240509D01*
X98311986Y-70240510D01*
X98311988Y-70240511D01*
X98437511Y-70312982D01*
X98437512Y-70312982D01*
X98437515Y-70312984D01*
X98577525Y-70350500D01*
X98577528Y-70350500D01*
X98722472Y-70350500D01*
X98722475Y-70350500D01*
X98862485Y-70312984D01*
X98988015Y-70240509D01*
X99090509Y-70138015D01*
X99096565Y-70127525D01*
X111649500Y-70127525D01*
X111649500Y-70272475D01*
X111687016Y-70412485D01*
X111687017Y-70412488D01*
X111759488Y-70538011D01*
X111759490Y-70538013D01*
X111759491Y-70538015D01*
X111861985Y-70640509D01*
X111861986Y-70640510D01*
X111861988Y-70640511D01*
X111987511Y-70712982D01*
X111987512Y-70712982D01*
X111987515Y-70712984D01*
X112127525Y-70750500D01*
X112127528Y-70750500D01*
X112272472Y-70750500D01*
X112272475Y-70750500D01*
X112412485Y-70712984D01*
X112538015Y-70640509D01*
X112640509Y-70538015D01*
X112646565Y-70527525D01*
X120649500Y-70527525D01*
X120649500Y-70672475D01*
X120687016Y-70812485D01*
X120687017Y-70812488D01*
X120759488Y-70938011D01*
X120759490Y-70938013D01*
X120759491Y-70938015D01*
X120861985Y-71040509D01*
X120861986Y-71040510D01*
X120861988Y-71040511D01*
X120987511Y-71112982D01*
X120987512Y-71112982D01*
X120987515Y-71112984D01*
X121127525Y-71150500D01*
X121127528Y-71150500D01*
X121272472Y-71150500D01*
X121272475Y-71150500D01*
X121358218Y-71127525D01*
X131049500Y-71127525D01*
X131049500Y-71272475D01*
X131073819Y-71363232D01*
X131087017Y-71412488D01*
X131159488Y-71538011D01*
X131159490Y-71538013D01*
X131159491Y-71538015D01*
X131261985Y-71640509D01*
X131261986Y-71640510D01*
X131261988Y-71640511D01*
X131387511Y-71712982D01*
X131387512Y-71712982D01*
X131387515Y-71712984D01*
X131527525Y-71750500D01*
X131527528Y-71750500D01*
X131672472Y-71750500D01*
X131672475Y-71750500D01*
X131812485Y-71712984D01*
X131938015Y-71640509D01*
X132012319Y-71566205D01*
X132073642Y-71532720D01*
X132143334Y-71537704D01*
X132187681Y-71566205D01*
X132261985Y-71640509D01*
X132261986Y-71640510D01*
X132261988Y-71640511D01*
X132387511Y-71712982D01*
X132387512Y-71712982D01*
X132387515Y-71712984D01*
X132527525Y-71750500D01*
X132527528Y-71750500D01*
X132672472Y-71750500D01*
X132672475Y-71750500D01*
X132812485Y-71712984D01*
X132938015Y-71640509D01*
X133040509Y-71538015D01*
X133112984Y-71412485D01*
X133150500Y-71272475D01*
X133150500Y-71127525D01*
X133112984Y-70987515D01*
X133084406Y-70938017D01*
X133040511Y-70861988D01*
X133040506Y-70861982D01*
X132938017Y-70759493D01*
X132938011Y-70759488D01*
X132812488Y-70687017D01*
X132812489Y-70687017D01*
X132801006Y-70683940D01*
X132672475Y-70649500D01*
X132527525Y-70649500D01*
X132398993Y-70683940D01*
X132387511Y-70687017D01*
X132261988Y-70759488D01*
X132261982Y-70759493D01*
X132187681Y-70833795D01*
X132126358Y-70867280D01*
X132056666Y-70862296D01*
X132012319Y-70833795D01*
X131938017Y-70759493D01*
X131938011Y-70759488D01*
X131812488Y-70687017D01*
X131812489Y-70687017D01*
X131801006Y-70683940D01*
X131672475Y-70649500D01*
X131527525Y-70649500D01*
X131398993Y-70683940D01*
X131387511Y-70687017D01*
X131261988Y-70759488D01*
X131261982Y-70759493D01*
X131159493Y-70861982D01*
X131159488Y-70861988D01*
X131087017Y-70987511D01*
X131087016Y-70987515D01*
X131049500Y-71127525D01*
X121358218Y-71127525D01*
X121412485Y-71112984D01*
X121538015Y-71040509D01*
X121640509Y-70938015D01*
X121712984Y-70812485D01*
X121750500Y-70672475D01*
X121750500Y-70527525D01*
X121712984Y-70387515D01*
X121691613Y-70350500D01*
X121640511Y-70261988D01*
X121640506Y-70261982D01*
X121538017Y-70159493D01*
X121538011Y-70159488D01*
X121412488Y-70087017D01*
X121412489Y-70087017D01*
X121401006Y-70083940D01*
X121272475Y-70049500D01*
X121127525Y-70049500D01*
X120998993Y-70083940D01*
X120987511Y-70087017D01*
X120861988Y-70159488D01*
X120861982Y-70159493D01*
X120759493Y-70261982D01*
X120759488Y-70261988D01*
X120687017Y-70387511D01*
X120687016Y-70387515D01*
X120649500Y-70527525D01*
X112646565Y-70527525D01*
X112712984Y-70412485D01*
X112750500Y-70272475D01*
X112750500Y-70127525D01*
X112712984Y-69987515D01*
X112691613Y-69950500D01*
X112640511Y-69861988D01*
X112640506Y-69861982D01*
X112538017Y-69759493D01*
X112538011Y-69759488D01*
X112412488Y-69687017D01*
X112412489Y-69687017D01*
X112401006Y-69683940D01*
X112272475Y-69649500D01*
X112127525Y-69649500D01*
X111998993Y-69683940D01*
X111987511Y-69687017D01*
X111861988Y-69759488D01*
X111861982Y-69759493D01*
X111759493Y-69861982D01*
X111759488Y-69861988D01*
X111687017Y-69987511D01*
X111687016Y-69987515D01*
X111649500Y-70127525D01*
X99096565Y-70127525D01*
X99162984Y-70012485D01*
X99200500Y-69872475D01*
X99200500Y-69727525D01*
X99162984Y-69587515D01*
X99096565Y-69472475D01*
X99090511Y-69461988D01*
X99090506Y-69461982D01*
X98988017Y-69359493D01*
X98988011Y-69359488D01*
X98932650Y-69327525D01*
X100249500Y-69327525D01*
X100249500Y-69472475D01*
X100287016Y-69612485D01*
X100287017Y-69612488D01*
X100359488Y-69738011D01*
X100359490Y-69738013D01*
X100359491Y-69738015D01*
X100461985Y-69840509D01*
X100461986Y-69840510D01*
X100461988Y-69840511D01*
X100587511Y-69912982D01*
X100587512Y-69912982D01*
X100587515Y-69912984D01*
X100727525Y-69950500D01*
X100727528Y-69950500D01*
X100872472Y-69950500D01*
X100872475Y-69950500D01*
X101012485Y-69912984D01*
X101138015Y-69840509D01*
X101240509Y-69738015D01*
X101312984Y-69612485D01*
X101350500Y-69472475D01*
X101350500Y-69327525D01*
X101329209Y-69248068D01*
X114828155Y-69248068D01*
X114828155Y-69393018D01*
X114846635Y-69461985D01*
X114865672Y-69533031D01*
X114938143Y-69658554D01*
X114938145Y-69658556D01*
X114938146Y-69658558D01*
X115040640Y-69761052D01*
X115040641Y-69761053D01*
X115040643Y-69761054D01*
X115166166Y-69833525D01*
X115166167Y-69833525D01*
X115166170Y-69833527D01*
X115306180Y-69871043D01*
X115306183Y-69871043D01*
X115451127Y-69871043D01*
X115451130Y-69871043D01*
X115591140Y-69833527D01*
X115716670Y-69761052D01*
X115819164Y-69658558D01*
X115891639Y-69533028D01*
X115929155Y-69393018D01*
X115929155Y-69248068D01*
X115891639Y-69108058D01*
X115865040Y-69061988D01*
X115819166Y-68982531D01*
X115819161Y-68982525D01*
X115716672Y-68880036D01*
X115716666Y-68880031D01*
X115624441Y-68826785D01*
X115624440Y-68826785D01*
X115591140Y-68807559D01*
X115451130Y-68770043D01*
X115306180Y-68770043D01*
X115177648Y-68804483D01*
X115166166Y-68807560D01*
X115040643Y-68880031D01*
X115040637Y-68880036D01*
X114938148Y-68982525D01*
X114938143Y-68982531D01*
X114865672Y-69108054D01*
X114865671Y-69108058D01*
X114828155Y-69248068D01*
X101329209Y-69248068D01*
X101312984Y-69187515D01*
X101284406Y-69138017D01*
X101240511Y-69061988D01*
X101240506Y-69061982D01*
X101138017Y-68959493D01*
X101138011Y-68959488D01*
X101012488Y-68887017D01*
X101012489Y-68887017D01*
X100988167Y-68880500D01*
X100872475Y-68849500D01*
X100727525Y-68849500D01*
X100611833Y-68880500D01*
X100587511Y-68887017D01*
X100461988Y-68959488D01*
X100461982Y-68959493D01*
X100359493Y-69061982D01*
X100359488Y-69061988D01*
X100287017Y-69187511D01*
X100287016Y-69187515D01*
X100249500Y-69327525D01*
X98932650Y-69327525D01*
X98862488Y-69287017D01*
X98862489Y-69287017D01*
X98851006Y-69283940D01*
X98722475Y-69249500D01*
X98577525Y-69249500D01*
X98448993Y-69283940D01*
X98437511Y-69287017D01*
X98311988Y-69359488D01*
X98311982Y-69359493D01*
X98209493Y-69461982D01*
X98209488Y-69461988D01*
X98137017Y-69587511D01*
X98137016Y-69587515D01*
X98099500Y-69727525D01*
X50500500Y-69727525D01*
X50500500Y-68257525D01*
X50979500Y-68257525D01*
X50979500Y-68402475D01*
X50995446Y-68461985D01*
X51017017Y-68542488D01*
X51089488Y-68668011D01*
X51089490Y-68668013D01*
X51089491Y-68668015D01*
X51191985Y-68770509D01*
X51191986Y-68770510D01*
X51191988Y-68770511D01*
X51317511Y-68842982D01*
X51317512Y-68842982D01*
X51317515Y-68842984D01*
X51457525Y-68880500D01*
X51457528Y-68880500D01*
X51602472Y-68880500D01*
X51602475Y-68880500D01*
X51742485Y-68842984D01*
X51868015Y-68770509D01*
X51970509Y-68668015D01*
X52042984Y-68542485D01*
X52073788Y-68427525D01*
X53949500Y-68427525D01*
X53949500Y-68572475D01*
X53975101Y-68668017D01*
X53987017Y-68712488D01*
X54059488Y-68838011D01*
X54059490Y-68838013D01*
X54059491Y-68838015D01*
X54161985Y-68940509D01*
X54161986Y-68940510D01*
X54161988Y-68940511D01*
X54287511Y-69012982D01*
X54287512Y-69012982D01*
X54287515Y-69012984D01*
X54427525Y-69050500D01*
X54427528Y-69050500D01*
X54572472Y-69050500D01*
X54572475Y-69050500D01*
X54712485Y-69012984D01*
X54838015Y-68940509D01*
X54940509Y-68838015D01*
X55004301Y-68727525D01*
X118849500Y-68727525D01*
X118849500Y-68872475D01*
X118872817Y-68959493D01*
X118887017Y-69012488D01*
X118959488Y-69138011D01*
X118959490Y-69138013D01*
X118959491Y-69138015D01*
X119061985Y-69240509D01*
X119061986Y-69240510D01*
X119061988Y-69240511D01*
X119187511Y-69312982D01*
X119187512Y-69312982D01*
X119187515Y-69312984D01*
X119327525Y-69350500D01*
X119327528Y-69350500D01*
X119472472Y-69350500D01*
X119472475Y-69350500D01*
X119612485Y-69312984D01*
X119738015Y-69240509D01*
X119840509Y-69138015D01*
X119912984Y-69012485D01*
X119950500Y-68872475D01*
X119950500Y-68727525D01*
X119912984Y-68587515D01*
X119840509Y-68461985D01*
X119738015Y-68359491D01*
X119738013Y-68359490D01*
X119738011Y-68359488D01*
X119612488Y-68287017D01*
X119612489Y-68287017D01*
X119601006Y-68283940D01*
X119472475Y-68249500D01*
X119327525Y-68249500D01*
X119198993Y-68283940D01*
X119187511Y-68287017D01*
X119061988Y-68359488D01*
X119061982Y-68359493D01*
X118959493Y-68461982D01*
X118959488Y-68461988D01*
X118887017Y-68587511D01*
X118887016Y-68587515D01*
X118849500Y-68727525D01*
X55004301Y-68727525D01*
X55012984Y-68712485D01*
X55050500Y-68572475D01*
X55050500Y-68427525D01*
X55012984Y-68287515D01*
X55012696Y-68287017D01*
X54940511Y-68161988D01*
X54940506Y-68161982D01*
X54838017Y-68059493D01*
X54838011Y-68059488D01*
X54712488Y-67987017D01*
X54712489Y-67987017D01*
X54701006Y-67983940D01*
X54572475Y-67949500D01*
X54427525Y-67949500D01*
X54298993Y-67983940D01*
X54287511Y-67987017D01*
X54161988Y-68059488D01*
X54161982Y-68059493D01*
X54059493Y-68161982D01*
X54059488Y-68161988D01*
X53987017Y-68287511D01*
X53987016Y-68287515D01*
X53949500Y-68427525D01*
X52073788Y-68427525D01*
X52080500Y-68402475D01*
X52080500Y-68257525D01*
X52042984Y-68117515D01*
X51970509Y-67991985D01*
X51868015Y-67889491D01*
X51868013Y-67889490D01*
X51868011Y-67889488D01*
X51742488Y-67817017D01*
X51742489Y-67817017D01*
X51731006Y-67813940D01*
X51602475Y-67779500D01*
X51457525Y-67779500D01*
X51328993Y-67813940D01*
X51317511Y-67817017D01*
X51191988Y-67889488D01*
X51191982Y-67889493D01*
X51089493Y-67991982D01*
X51089488Y-67991988D01*
X51017017Y-68117511D01*
X51017016Y-68117515D01*
X50979500Y-68257525D01*
X50500500Y-68257525D01*
X50500500Y-67427525D01*
X101099500Y-67427525D01*
X101099500Y-67572475D01*
X101137016Y-67712485D01*
X101137017Y-67712488D01*
X101209488Y-67838011D01*
X101209490Y-67838013D01*
X101209491Y-67838015D01*
X101311985Y-67940509D01*
X101311986Y-67940510D01*
X101311988Y-67940511D01*
X101437511Y-68012982D01*
X101437512Y-68012982D01*
X101437515Y-68012984D01*
X101577525Y-68050500D01*
X101577528Y-68050500D01*
X101722472Y-68050500D01*
X101722475Y-68050500D01*
X101862485Y-68012984D01*
X101988015Y-67940509D01*
X102090509Y-67838015D01*
X102162984Y-67712485D01*
X102200500Y-67572475D01*
X102200500Y-67427525D01*
X102162984Y-67287515D01*
X102090509Y-67161985D01*
X101988015Y-67059491D01*
X101988013Y-67059490D01*
X101988011Y-67059488D01*
X101862488Y-66987017D01*
X101862489Y-66987017D01*
X101851006Y-66983940D01*
X101722475Y-66949500D01*
X101577525Y-66949500D01*
X101448993Y-66983940D01*
X101437511Y-66987017D01*
X101311988Y-67059488D01*
X101311982Y-67059493D01*
X101209493Y-67161982D01*
X101209488Y-67161988D01*
X101137017Y-67287511D01*
X101137016Y-67287515D01*
X101099500Y-67427525D01*
X50500500Y-67427525D01*
X50500500Y-65878260D01*
X69400235Y-65878260D01*
X69400235Y-66023210D01*
X69428187Y-66127527D01*
X69437752Y-66163223D01*
X69510223Y-66288746D01*
X69510225Y-66288748D01*
X69510226Y-66288750D01*
X69612720Y-66391244D01*
X69612721Y-66391245D01*
X69612723Y-66391246D01*
X69738246Y-66463717D01*
X69738247Y-66463717D01*
X69738250Y-66463719D01*
X69878260Y-66501235D01*
X69878263Y-66501235D01*
X70023207Y-66501235D01*
X70023210Y-66501235D01*
X70163220Y-66463719D01*
X70288750Y-66391244D01*
X70391244Y-66288750D01*
X70463719Y-66163220D01*
X70501235Y-66023210D01*
X70501235Y-65927525D01*
X73449500Y-65927525D01*
X73449500Y-66072475D01*
X73487016Y-66212485D01*
X73487017Y-66212488D01*
X73559488Y-66338011D01*
X73559490Y-66338013D01*
X73559491Y-66338015D01*
X73661985Y-66440509D01*
X73661986Y-66440510D01*
X73661988Y-66440511D01*
X73787511Y-66512982D01*
X73787512Y-66512982D01*
X73787515Y-66512984D01*
X73927525Y-66550500D01*
X73927528Y-66550500D01*
X74072472Y-66550500D01*
X74072475Y-66550500D01*
X74212485Y-66512984D01*
X74338015Y-66440509D01*
X74440509Y-66338015D01*
X74446565Y-66327525D01*
X91449500Y-66327525D01*
X91449500Y-66472475D01*
X91485130Y-66605446D01*
X91487017Y-66612488D01*
X91559488Y-66738011D01*
X91559490Y-66738013D01*
X91559491Y-66738015D01*
X91661985Y-66840509D01*
X91661986Y-66840510D01*
X91661988Y-66840511D01*
X91787511Y-66912982D01*
X91787512Y-66912982D01*
X91787515Y-66912984D01*
X91927525Y-66950500D01*
X91927528Y-66950500D01*
X92072472Y-66950500D01*
X92072475Y-66950500D01*
X92212485Y-66912984D01*
X92338015Y-66840509D01*
X92440509Y-66738015D01*
X92512984Y-66612485D01*
X92512984Y-66612484D01*
X92517048Y-66605446D01*
X92519485Y-66606853D01*
X92554723Y-66563096D01*
X92621010Y-66541009D01*
X92657570Y-66545153D01*
X92677525Y-66550500D01*
X92677526Y-66550500D01*
X92822472Y-66550500D01*
X92822475Y-66550500D01*
X92962485Y-66512984D01*
X93088015Y-66440509D01*
X93190509Y-66338015D01*
X93262984Y-66212485D01*
X93300500Y-66072475D01*
X93300500Y-66027524D01*
X93549500Y-66027524D01*
X93549500Y-66172474D01*
X93580657Y-66288752D01*
X93587017Y-66312487D01*
X93659488Y-66438010D01*
X93659490Y-66438012D01*
X93659491Y-66438014D01*
X93761985Y-66540508D01*
X93761986Y-66540509D01*
X93761988Y-66540510D01*
X93887511Y-66612981D01*
X93887512Y-66612981D01*
X93887515Y-66612983D01*
X94027525Y-66650499D01*
X94027528Y-66650499D01*
X94172472Y-66650499D01*
X94172475Y-66650499D01*
X94312485Y-66612983D01*
X94438015Y-66540508D01*
X94540509Y-66438014D01*
X94612984Y-66312484D01*
X94650500Y-66172474D01*
X94650500Y-66027524D01*
X94612984Y-65887514D01*
X94612696Y-65887016D01*
X94540511Y-65761987D01*
X94540506Y-65761981D01*
X94438017Y-65659492D01*
X94438011Y-65659487D01*
X94312488Y-65587016D01*
X94312489Y-65587016D01*
X94301006Y-65583939D01*
X94172475Y-65549499D01*
X94027525Y-65549499D01*
X93898993Y-65583939D01*
X93887511Y-65587016D01*
X93761988Y-65659487D01*
X93761982Y-65659492D01*
X93659493Y-65761981D01*
X93659488Y-65761987D01*
X93587017Y-65887510D01*
X93587016Y-65887514D01*
X93549500Y-66027524D01*
X93300500Y-66027524D01*
X93300500Y-65927525D01*
X93262984Y-65787515D01*
X93248245Y-65761987D01*
X93190511Y-65661988D01*
X93190506Y-65661982D01*
X93088017Y-65559493D01*
X93088011Y-65559488D01*
X92962488Y-65487017D01*
X92962489Y-65487017D01*
X92951006Y-65483940D01*
X92822475Y-65449500D01*
X92677525Y-65449500D01*
X92548993Y-65483940D01*
X92537511Y-65487017D01*
X92411988Y-65559488D01*
X92411982Y-65559493D01*
X92309493Y-65661982D01*
X92309488Y-65661988D01*
X92232952Y-65794553D01*
X92230526Y-65793152D01*
X92195206Y-65836951D01*
X92128904Y-65858993D01*
X92092431Y-65854847D01*
X92083640Y-65852491D01*
X92072475Y-65849500D01*
X91927525Y-65849500D01*
X91820185Y-65878262D01*
X91787511Y-65887017D01*
X91661988Y-65959488D01*
X91661982Y-65959493D01*
X91559493Y-66061982D01*
X91559488Y-66061988D01*
X91487017Y-66187511D01*
X91487016Y-66187515D01*
X91449500Y-66327525D01*
X74446565Y-66327525D01*
X74512984Y-66212485D01*
X74550500Y-66072475D01*
X74550500Y-65927525D01*
X74512984Y-65787515D01*
X74498245Y-65761987D01*
X74440511Y-65661988D01*
X74440506Y-65661982D01*
X74338017Y-65559493D01*
X74338011Y-65559488D01*
X74212488Y-65487017D01*
X74212489Y-65487017D01*
X74201006Y-65483940D01*
X74072475Y-65449500D01*
X73927525Y-65449500D01*
X73798993Y-65483940D01*
X73787511Y-65487017D01*
X73661988Y-65559488D01*
X73661982Y-65559493D01*
X73559493Y-65661982D01*
X73559488Y-65661988D01*
X73487017Y-65787511D01*
X73487016Y-65787515D01*
X73449500Y-65927525D01*
X70501235Y-65927525D01*
X70501235Y-65878260D01*
X70463719Y-65738250D01*
X70459549Y-65731028D01*
X70387180Y-65605681D01*
X70390115Y-65603986D01*
X70370578Y-65553458D01*
X70384614Y-65485012D01*
X70433425Y-65435020D01*
X70501516Y-65419354D01*
X70526232Y-65423358D01*
X70627525Y-65450500D01*
X70627528Y-65450500D01*
X70772472Y-65450500D01*
X70772475Y-65450500D01*
X70860374Y-65426947D01*
X70930223Y-65428610D01*
X70988086Y-65467772D01*
X70999853Y-65484720D01*
X71059491Y-65588015D01*
X71161985Y-65690509D01*
X71161986Y-65690510D01*
X71161988Y-65690511D01*
X71287511Y-65762982D01*
X71287512Y-65762982D01*
X71287515Y-65762984D01*
X71427525Y-65800500D01*
X71427528Y-65800500D01*
X71572473Y-65800500D01*
X71572475Y-65800500D01*
X71712485Y-65762984D01*
X71838015Y-65690509D01*
X71940509Y-65588015D01*
X72012984Y-65462485D01*
X72050500Y-65322475D01*
X72050500Y-65177525D01*
X72012984Y-65037515D01*
X71984116Y-64987515D01*
X71940511Y-64911988D01*
X71940506Y-64911982D01*
X71838017Y-64809493D01*
X71838011Y-64809488D01*
X71712488Y-64737017D01*
X71712489Y-64737017D01*
X71701006Y-64733940D01*
X71572475Y-64699500D01*
X71427525Y-64699500D01*
X71339625Y-64723053D01*
X71269776Y-64721390D01*
X71211913Y-64682227D01*
X71200145Y-64665278D01*
X71198242Y-64661982D01*
X71140509Y-64561985D01*
X71038015Y-64459491D01*
X71038013Y-64459490D01*
X71038011Y-64459488D01*
X70912488Y-64387017D01*
X70912489Y-64387017D01*
X70875146Y-64377011D01*
X70772475Y-64349500D01*
X70627525Y-64349500D01*
X70524854Y-64377011D01*
X70487511Y-64387017D01*
X70361988Y-64459488D01*
X70361982Y-64459493D01*
X70259493Y-64561982D01*
X70259488Y-64561988D01*
X70187017Y-64687511D01*
X70187016Y-64687515D01*
X70149500Y-64827525D01*
X70149500Y-64972475D01*
X70180269Y-65087304D01*
X70187017Y-65112488D01*
X70263555Y-65245054D01*
X70260623Y-65246746D01*
X70280158Y-65297309D01*
X70266105Y-65365751D01*
X70217280Y-65415730D01*
X70149185Y-65431378D01*
X70124493Y-65427374D01*
X70070789Y-65412984D01*
X70023210Y-65400235D01*
X69878260Y-65400235D01*
X69762034Y-65431378D01*
X69738246Y-65437752D01*
X69612723Y-65510223D01*
X69612717Y-65510228D01*
X69510228Y-65612717D01*
X69510223Y-65612723D01*
X69437752Y-65738246D01*
X69437751Y-65738250D01*
X69400235Y-65878260D01*
X50500500Y-65878260D01*
X50500500Y-63927525D01*
X90374283Y-63927525D01*
X90374283Y-64072475D01*
X90411799Y-64212485D01*
X90411800Y-64212488D01*
X90484271Y-64338011D01*
X90484273Y-64338013D01*
X90484274Y-64338015D01*
X90586768Y-64440509D01*
X90586769Y-64440510D01*
X90586771Y-64440511D01*
X90712294Y-64512982D01*
X90712295Y-64512982D01*
X90712298Y-64512984D01*
X90852308Y-64550500D01*
X90852311Y-64550500D01*
X90933865Y-64550500D01*
X91000904Y-64570185D01*
X91046659Y-64622989D01*
X91056603Y-64692147D01*
X91041252Y-64736500D01*
X91011800Y-64787511D01*
X91011799Y-64787515D01*
X90974283Y-64927525D01*
X90974283Y-65072475D01*
X91002432Y-65177527D01*
X91011800Y-65212488D01*
X91084271Y-65338011D01*
X91084273Y-65338013D01*
X91084274Y-65338015D01*
X91186768Y-65440509D01*
X91186769Y-65440510D01*
X91186771Y-65440511D01*
X91312294Y-65512982D01*
X91312295Y-65512982D01*
X91312298Y-65512984D01*
X91452308Y-65550500D01*
X91452311Y-65550500D01*
X91597255Y-65550500D01*
X91597258Y-65550500D01*
X91737268Y-65512984D01*
X91862798Y-65440509D01*
X91965292Y-65338015D01*
X92037767Y-65212485D01*
X92060532Y-65127525D01*
X103449500Y-65127525D01*
X103449500Y-65272475D01*
X103483734Y-65400235D01*
X103487017Y-65412488D01*
X103559488Y-65538011D01*
X103559490Y-65538013D01*
X103559491Y-65538015D01*
X103661985Y-65640509D01*
X103661986Y-65640510D01*
X103661988Y-65640511D01*
X103787511Y-65712982D01*
X103787512Y-65712982D01*
X103787515Y-65712984D01*
X103927525Y-65750500D01*
X103927528Y-65750500D01*
X104072472Y-65750500D01*
X104072475Y-65750500D01*
X104212485Y-65712984D01*
X104338015Y-65640509D01*
X104440509Y-65538015D01*
X104512984Y-65412485D01*
X104550500Y-65272475D01*
X104550500Y-65127525D01*
X104512984Y-64987515D01*
X104491613Y-64950500D01*
X104440511Y-64861988D01*
X104440506Y-64861982D01*
X104338017Y-64759493D01*
X104338011Y-64759488D01*
X104212488Y-64687017D01*
X104212489Y-64687017D01*
X104194612Y-64682227D01*
X104072475Y-64649500D01*
X103927525Y-64649500D01*
X103805388Y-64682227D01*
X103787511Y-64687017D01*
X103661988Y-64759488D01*
X103661982Y-64759493D01*
X103559493Y-64861982D01*
X103559488Y-64861988D01*
X103487017Y-64987511D01*
X103487016Y-64987515D01*
X103449500Y-65127525D01*
X92060532Y-65127525D01*
X92075283Y-65072475D01*
X92075283Y-64927525D01*
X92037767Y-64787515D01*
X92026297Y-64767649D01*
X91965294Y-64661988D01*
X91965289Y-64661982D01*
X91862800Y-64559493D01*
X91862794Y-64559488D01*
X91737271Y-64487017D01*
X91737272Y-64487017D01*
X91725789Y-64483940D01*
X91597258Y-64449500D01*
X91515701Y-64449500D01*
X91509876Y-64447789D01*
X91503914Y-64448939D01*
X91476735Y-64438058D01*
X91448662Y-64429815D01*
X91444687Y-64425228D01*
X91439049Y-64422971D01*
X91422067Y-64399123D01*
X91402907Y-64377011D01*
X91402042Y-64371002D01*
X91398521Y-64366056D01*
X91397128Y-64336820D01*
X91395792Y-64327525D01*
X115049500Y-64327525D01*
X115049500Y-64472475D01*
X115075682Y-64570185D01*
X115087017Y-64612488D01*
X115159488Y-64738011D01*
X115159490Y-64738013D01*
X115159491Y-64738015D01*
X115261985Y-64840509D01*
X115261986Y-64840510D01*
X115261988Y-64840511D01*
X115387511Y-64912982D01*
X115387512Y-64912982D01*
X115387515Y-64912984D01*
X115527525Y-64950500D01*
X115527528Y-64950500D01*
X115672472Y-64950500D01*
X115672475Y-64950500D01*
X115812485Y-64912984D01*
X115938015Y-64840509D01*
X116040509Y-64738015D01*
X116112984Y-64612485D01*
X116135749Y-64527525D01*
X119849500Y-64527525D01*
X119849500Y-64672475D01*
X119886213Y-64809488D01*
X119887017Y-64812488D01*
X119959488Y-64938011D01*
X119959490Y-64938013D01*
X119959491Y-64938015D01*
X120061985Y-65040509D01*
X120061986Y-65040510D01*
X120061988Y-65040511D01*
X120187511Y-65112982D01*
X120187512Y-65112982D01*
X120187515Y-65112984D01*
X120327525Y-65150500D01*
X120327528Y-65150500D01*
X120472472Y-65150500D01*
X120472475Y-65150500D01*
X120558218Y-65127525D01*
X136449500Y-65127525D01*
X136449500Y-65272475D01*
X136483734Y-65400235D01*
X136487017Y-65412488D01*
X136559488Y-65538011D01*
X136559490Y-65538013D01*
X136559491Y-65538015D01*
X136661985Y-65640509D01*
X136661986Y-65640510D01*
X136661988Y-65640511D01*
X136787511Y-65712982D01*
X136787512Y-65712982D01*
X136787515Y-65712984D01*
X136854858Y-65731028D01*
X136914517Y-65767394D01*
X136945046Y-65830241D01*
X136936751Y-65899616D01*
X136930150Y-65912803D01*
X136887017Y-65987511D01*
X136887016Y-65987515D01*
X136849500Y-66127525D01*
X136849500Y-66272475D01*
X136881325Y-66391246D01*
X136887017Y-66412488D01*
X136959488Y-66538011D01*
X136959490Y-66538013D01*
X136959491Y-66538015D01*
X137061985Y-66640509D01*
X137061986Y-66640510D01*
X137061988Y-66640511D01*
X137187511Y-66712982D01*
X137187512Y-66712982D01*
X137187515Y-66712984D01*
X137327525Y-66750500D01*
X137327528Y-66750500D01*
X137472472Y-66750500D01*
X137472475Y-66750500D01*
X137612485Y-66712984D01*
X137738015Y-66640509D01*
X137840509Y-66538015D01*
X137912984Y-66412485D01*
X137950500Y-66272475D01*
X137950500Y-66127525D01*
X137912984Y-65987515D01*
X137896805Y-65959493D01*
X137840511Y-65861988D01*
X137840506Y-65861982D01*
X137738017Y-65759493D01*
X137738011Y-65759488D01*
X137612488Y-65687017D01*
X137612483Y-65687015D01*
X137545141Y-65668970D01*
X137485481Y-65632605D01*
X137454953Y-65569757D01*
X137463248Y-65500382D01*
X137469850Y-65487195D01*
X137512981Y-65412490D01*
X137512982Y-65412489D01*
X137512982Y-65412487D01*
X137512984Y-65412485D01*
X137550500Y-65272475D01*
X137550500Y-65127525D01*
X137512984Y-64987515D01*
X137491613Y-64950500D01*
X137440511Y-64861988D01*
X137440506Y-64861982D01*
X137338017Y-64759493D01*
X137338011Y-64759488D01*
X137212488Y-64687017D01*
X137212489Y-64687017D01*
X137194612Y-64682227D01*
X137072475Y-64649500D01*
X136927525Y-64649500D01*
X136805388Y-64682227D01*
X136787511Y-64687017D01*
X136661988Y-64759488D01*
X136661982Y-64759493D01*
X136559493Y-64861982D01*
X136559488Y-64861988D01*
X136487017Y-64987511D01*
X136487016Y-64987515D01*
X136449500Y-65127525D01*
X120558218Y-65127525D01*
X120612485Y-65112984D01*
X120738015Y-65040509D01*
X120840509Y-64938015D01*
X120912984Y-64812485D01*
X120950500Y-64672475D01*
X120950500Y-64527525D01*
X120912984Y-64387515D01*
X120912696Y-64387017D01*
X120840511Y-64261988D01*
X120840506Y-64261982D01*
X120738017Y-64159493D01*
X120738011Y-64159488D01*
X120612488Y-64087017D01*
X120612489Y-64087017D01*
X120601006Y-64083940D01*
X120472475Y-64049500D01*
X120327525Y-64049500D01*
X120198993Y-64083940D01*
X120187511Y-64087017D01*
X120061988Y-64159488D01*
X120061982Y-64159493D01*
X119959493Y-64261982D01*
X119959488Y-64261988D01*
X119887017Y-64387511D01*
X119887016Y-64387515D01*
X119849500Y-64527525D01*
X116135749Y-64527525D01*
X116150500Y-64472475D01*
X116150500Y-64327525D01*
X116112984Y-64187515D01*
X116096805Y-64159493D01*
X116040511Y-64061988D01*
X116040506Y-64061982D01*
X115938017Y-63959493D01*
X115938011Y-63959488D01*
X115812488Y-63887017D01*
X115812489Y-63887017D01*
X115801006Y-63883940D01*
X115672475Y-63849500D01*
X115527525Y-63849500D01*
X115398993Y-63883940D01*
X115387511Y-63887017D01*
X115261988Y-63959488D01*
X115261982Y-63959493D01*
X115159493Y-64061982D01*
X115159488Y-64061988D01*
X115087017Y-64187511D01*
X115087016Y-64187515D01*
X115049500Y-64327525D01*
X91395792Y-64327525D01*
X91392963Y-64307853D01*
X91395411Y-64300779D01*
X91395196Y-64296266D01*
X91408314Y-64263500D01*
X91411837Y-64257398D01*
X91437765Y-64212488D01*
X91437764Y-64212488D01*
X91437767Y-64212485D01*
X91475283Y-64072475D01*
X91475283Y-63927525D01*
X91437767Y-63787515D01*
X91365292Y-63661985D01*
X91262798Y-63559491D01*
X91262796Y-63559490D01*
X91262794Y-63559488D01*
X91137271Y-63487017D01*
X91137272Y-63487017D01*
X91125789Y-63483940D01*
X90997258Y-63449500D01*
X90852308Y-63449500D01*
X90723776Y-63483940D01*
X90712294Y-63487017D01*
X90586771Y-63559488D01*
X90586765Y-63559493D01*
X90484276Y-63661982D01*
X90484271Y-63661988D01*
X90411800Y-63787511D01*
X90411799Y-63787515D01*
X90374283Y-63927525D01*
X50500500Y-63927525D01*
X50500500Y-63077525D01*
X71849500Y-63077525D01*
X71849500Y-63222475D01*
X71887016Y-63362485D01*
X71887017Y-63362488D01*
X71959488Y-63488011D01*
X71959490Y-63488013D01*
X71959491Y-63488015D01*
X72061985Y-63590509D01*
X72061986Y-63590510D01*
X72061988Y-63590511D01*
X72187511Y-63662982D01*
X72187512Y-63662982D01*
X72187515Y-63662984D01*
X72327525Y-63700500D01*
X72327528Y-63700500D01*
X72472472Y-63700500D01*
X72472475Y-63700500D01*
X72612485Y-63662984D01*
X72738015Y-63590509D01*
X72840509Y-63488015D01*
X72912984Y-63362485D01*
X72950500Y-63222475D01*
X72950500Y-63077525D01*
X72912984Y-62937515D01*
X72907217Y-62927527D01*
X72840511Y-62811988D01*
X72840506Y-62811982D01*
X72738017Y-62709493D01*
X72738015Y-62709491D01*
X72612485Y-62637016D01*
X72478610Y-62601144D01*
X73653152Y-62601144D01*
X73653152Y-62746094D01*
X73690668Y-62886104D01*
X73690669Y-62886107D01*
X73763140Y-63011630D01*
X73763142Y-63011632D01*
X73763143Y-63011634D01*
X73865637Y-63114128D01*
X73865638Y-63114129D01*
X73865640Y-63114130D01*
X73991163Y-63186601D01*
X73991164Y-63186601D01*
X73991167Y-63186603D01*
X74131177Y-63224119D01*
X74131180Y-63224119D01*
X74276124Y-63224119D01*
X74276127Y-63224119D01*
X74416137Y-63186603D01*
X74487122Y-63145619D01*
X74555020Y-63129147D01*
X74621047Y-63151999D01*
X74636802Y-63165326D01*
X74661985Y-63190509D01*
X74661986Y-63190510D01*
X74661988Y-63190511D01*
X74787511Y-63262982D01*
X74787512Y-63262982D01*
X74787515Y-63262984D01*
X74927525Y-63300500D01*
X74927528Y-63300500D01*
X75072474Y-63300500D01*
X75072475Y-63300500D01*
X75092426Y-63295154D01*
X75162275Y-63296815D01*
X75220139Y-63335977D01*
X75232134Y-63355918D01*
X75232952Y-63355447D01*
X75309488Y-63488011D01*
X75309490Y-63488013D01*
X75309491Y-63488015D01*
X75411985Y-63590509D01*
X75411986Y-63590510D01*
X75411988Y-63590511D01*
X75537511Y-63662982D01*
X75537512Y-63662982D01*
X75537515Y-63662984D01*
X75677525Y-63700500D01*
X75677528Y-63700500D01*
X75822472Y-63700500D01*
X75822475Y-63700500D01*
X75962485Y-63662984D01*
X76088015Y-63590509D01*
X76190509Y-63488015D01*
X76262984Y-63362485D01*
X76300500Y-63222475D01*
X76300500Y-63077525D01*
X76262984Y-62937515D01*
X76257217Y-62927527D01*
X76257216Y-62927525D01*
X116049500Y-62927525D01*
X116049500Y-63072475D01*
X116081128Y-63190511D01*
X116087017Y-63212488D01*
X116159488Y-63338011D01*
X116159490Y-63338013D01*
X116159491Y-63338015D01*
X116261985Y-63440509D01*
X116261986Y-63440510D01*
X116261988Y-63440511D01*
X116387511Y-63512982D01*
X116387512Y-63512982D01*
X116387515Y-63512984D01*
X116527525Y-63550500D01*
X116527528Y-63550500D01*
X116672472Y-63550500D01*
X116672475Y-63550500D01*
X116812485Y-63512984D01*
X116938015Y-63440509D01*
X117040509Y-63338015D01*
X117112984Y-63212485D01*
X117150500Y-63072475D01*
X117150500Y-62927525D01*
X117112984Y-62787515D01*
X117062690Y-62700404D01*
X117040511Y-62661988D01*
X117040506Y-62661982D01*
X116938017Y-62559493D01*
X116938011Y-62559488D01*
X116812488Y-62487017D01*
X116812489Y-62487017D01*
X116801006Y-62483940D01*
X116672475Y-62449500D01*
X116527525Y-62449500D01*
X116398993Y-62483940D01*
X116387511Y-62487017D01*
X116261988Y-62559488D01*
X116261982Y-62559493D01*
X116159493Y-62661982D01*
X116159488Y-62661988D01*
X116087017Y-62787511D01*
X116087016Y-62787515D01*
X116049500Y-62927525D01*
X76257216Y-62927525D01*
X76190511Y-62811988D01*
X76190506Y-62811982D01*
X76088017Y-62709493D01*
X76088011Y-62709488D01*
X75962488Y-62637017D01*
X75962489Y-62637017D01*
X75951006Y-62633940D01*
X75822475Y-62599500D01*
X75677525Y-62599500D01*
X75677520Y-62599500D01*
X75657565Y-62604847D01*
X75587715Y-62603181D01*
X75529855Y-62564016D01*
X75517868Y-62544080D01*
X75517048Y-62544554D01*
X75462168Y-62449500D01*
X75440509Y-62411985D01*
X75338015Y-62309491D01*
X75338013Y-62309490D01*
X75338011Y-62309488D01*
X75212488Y-62237017D01*
X75212489Y-62237017D01*
X75197897Y-62233107D01*
X75072475Y-62199500D01*
X74927525Y-62199500D01*
X74787515Y-62237016D01*
X74787514Y-62237016D01*
X74787512Y-62237017D01*
X74716529Y-62277999D01*
X74648629Y-62294471D01*
X74582602Y-62271618D01*
X74566849Y-62258292D01*
X74541669Y-62233112D01*
X74541663Y-62233107D01*
X74416140Y-62160636D01*
X74416141Y-62160636D01*
X74404658Y-62157559D01*
X74276127Y-62123119D01*
X74131177Y-62123119D01*
X74002645Y-62157559D01*
X73991163Y-62160636D01*
X73865640Y-62233107D01*
X73865634Y-62233112D01*
X73763145Y-62335601D01*
X73763140Y-62335607D01*
X73690669Y-62461130D01*
X73690668Y-62461134D01*
X73653152Y-62601144D01*
X72478610Y-62601144D01*
X72472475Y-62599500D01*
X72327525Y-62599500D01*
X72198993Y-62633940D01*
X72187511Y-62637017D01*
X72061988Y-62709488D01*
X72061982Y-62709493D01*
X71959493Y-62811982D01*
X71959488Y-62811988D01*
X71887017Y-62937511D01*
X71887016Y-62937515D01*
X71849500Y-63077525D01*
X50500500Y-63077525D01*
X50500500Y-61277525D01*
X97449500Y-61277525D01*
X97449500Y-61422475D01*
X97472817Y-61509493D01*
X97487017Y-61562488D01*
X97559488Y-61688011D01*
X97559490Y-61688013D01*
X97559491Y-61688015D01*
X97661985Y-61790509D01*
X97661986Y-61790510D01*
X97661988Y-61790511D01*
X97787511Y-61862982D01*
X97787512Y-61862982D01*
X97787515Y-61862984D01*
X97927525Y-61900500D01*
X97927528Y-61900500D01*
X98072472Y-61900500D01*
X98072475Y-61900500D01*
X98158218Y-61877525D01*
X127449500Y-61877525D01*
X127449500Y-62022475D01*
X127476468Y-62123119D01*
X127487017Y-62162488D01*
X127559488Y-62288011D01*
X127559490Y-62288013D01*
X127559491Y-62288015D01*
X127661985Y-62390509D01*
X127661986Y-62390510D01*
X127661988Y-62390511D01*
X127787511Y-62462982D01*
X127787512Y-62462982D01*
X127787515Y-62462984D01*
X127927525Y-62500500D01*
X127927528Y-62500500D01*
X128072472Y-62500500D01*
X128072475Y-62500500D01*
X128212485Y-62462984D01*
X128338015Y-62390509D01*
X128440509Y-62288015D01*
X128512984Y-62162485D01*
X128550500Y-62022475D01*
X128550500Y-61877525D01*
X128512984Y-61737515D01*
X128485843Y-61690506D01*
X128440511Y-61611988D01*
X128440506Y-61611982D01*
X128338017Y-61509493D01*
X128338011Y-61509488D01*
X128212488Y-61437017D01*
X128212489Y-61437017D01*
X128201006Y-61433940D01*
X128072475Y-61399500D01*
X127927525Y-61399500D01*
X127798993Y-61433940D01*
X127787511Y-61437017D01*
X127661988Y-61509488D01*
X127661982Y-61509493D01*
X127559493Y-61611982D01*
X127559488Y-61611988D01*
X127487017Y-61737511D01*
X127487016Y-61737515D01*
X127449500Y-61877525D01*
X98158218Y-61877525D01*
X98212485Y-61862984D01*
X98338015Y-61790509D01*
X98440509Y-61688015D01*
X98512984Y-61562485D01*
X98550500Y-61422475D01*
X98550500Y-61277525D01*
X98523705Y-61177525D01*
X119449500Y-61177525D01*
X119449500Y-61322475D01*
X119480192Y-61437016D01*
X119487017Y-61462488D01*
X119559488Y-61588011D01*
X119559490Y-61588013D01*
X119559491Y-61588015D01*
X119661985Y-61690509D01*
X119661986Y-61690510D01*
X119661988Y-61690511D01*
X119787511Y-61762982D01*
X119787512Y-61762982D01*
X119787515Y-61762984D01*
X119927525Y-61800500D01*
X119927528Y-61800500D01*
X120072472Y-61800500D01*
X120072475Y-61800500D01*
X120212485Y-61762984D01*
X120214170Y-61762011D01*
X120214171Y-61762011D01*
X120256605Y-61737511D01*
X120338015Y-61690509D01*
X120440509Y-61588015D01*
X120512984Y-61462485D01*
X120550500Y-61322475D01*
X120550500Y-61177525D01*
X120512984Y-61037515D01*
X120498244Y-61011985D01*
X120440511Y-60911988D01*
X120440506Y-60911982D01*
X120338017Y-60809493D01*
X120338011Y-60809488D01*
X120212488Y-60737017D01*
X120212489Y-60737017D01*
X120201006Y-60733940D01*
X120072475Y-60699500D01*
X119927525Y-60699500D01*
X119798993Y-60733940D01*
X119787511Y-60737017D01*
X119661988Y-60809488D01*
X119661982Y-60809493D01*
X119559493Y-60911982D01*
X119559488Y-60911988D01*
X119487017Y-61037511D01*
X119487016Y-61037515D01*
X119449500Y-61177525D01*
X98523705Y-61177525D01*
X98512984Y-61137515D01*
X98455246Y-61037511D01*
X98440511Y-61011988D01*
X98440506Y-61011982D01*
X98338017Y-60909493D01*
X98338011Y-60909488D01*
X98212488Y-60837017D01*
X98212489Y-60837017D01*
X98201006Y-60833940D01*
X98072475Y-60799500D01*
X97927525Y-60799500D01*
X97798993Y-60833940D01*
X97787511Y-60837017D01*
X97661988Y-60909488D01*
X97661982Y-60909493D01*
X97559493Y-61011982D01*
X97559488Y-61011988D01*
X97487017Y-61137511D01*
X97487016Y-61137515D01*
X97449500Y-61277525D01*
X50500500Y-61277525D01*
X50500500Y-60427525D01*
X84699500Y-60427525D01*
X84699500Y-60572475D01*
X84733537Y-60699500D01*
X84737017Y-60712488D01*
X84809488Y-60838011D01*
X84809490Y-60838013D01*
X84809491Y-60838015D01*
X84911985Y-60940509D01*
X84911986Y-60940510D01*
X84911988Y-60940511D01*
X85037511Y-61012982D01*
X85037512Y-61012982D01*
X85037515Y-61012984D01*
X85177525Y-61050500D01*
X85177528Y-61050500D01*
X85322472Y-61050500D01*
X85322475Y-61050500D01*
X85462485Y-61012984D01*
X85588015Y-60940509D01*
X85690509Y-60838015D01*
X85762984Y-60712485D01*
X85800500Y-60572475D01*
X85800500Y-60427525D01*
X85762984Y-60287515D01*
X85705059Y-60187187D01*
X85690511Y-60161988D01*
X85690506Y-60161982D01*
X85588017Y-60059493D01*
X85588011Y-60059488D01*
X85462488Y-59987017D01*
X85462489Y-59987017D01*
X85451006Y-59983940D01*
X85322475Y-59949500D01*
X85177525Y-59949500D01*
X85048993Y-59983940D01*
X85037511Y-59987017D01*
X84911988Y-60059488D01*
X84911982Y-60059493D01*
X84809493Y-60161982D01*
X84809488Y-60161988D01*
X84737017Y-60287511D01*
X84737016Y-60287515D01*
X84699500Y-60427525D01*
X50500500Y-60427525D01*
X50500500Y-59668576D01*
X90446517Y-59668576D01*
X90446517Y-59813526D01*
X90478982Y-59934685D01*
X90484034Y-59953539D01*
X90556505Y-60079062D01*
X90556507Y-60079064D01*
X90556508Y-60079066D01*
X90659002Y-60181560D01*
X90659003Y-60181561D01*
X90659005Y-60181562D01*
X90668748Y-60187187D01*
X90716965Y-60237753D01*
X90730189Y-60306360D01*
X90726525Y-60326664D01*
X90699500Y-60427525D01*
X90699500Y-60572475D01*
X90733537Y-60699500D01*
X90737017Y-60712488D01*
X90809488Y-60838011D01*
X90809490Y-60838013D01*
X90809491Y-60838015D01*
X90911985Y-60940509D01*
X90911986Y-60940510D01*
X90911988Y-60940511D01*
X91037511Y-61012982D01*
X91037512Y-61012982D01*
X91037515Y-61012984D01*
X91177525Y-61050500D01*
X91177528Y-61050500D01*
X91322472Y-61050500D01*
X91322475Y-61050500D01*
X91462485Y-61012984D01*
X91588015Y-60940509D01*
X91690509Y-60838015D01*
X91762984Y-60712485D01*
X91800500Y-60572475D01*
X91800500Y-60427525D01*
X91762984Y-60287515D01*
X91705059Y-60187187D01*
X91690511Y-60161988D01*
X91690506Y-60161982D01*
X91588016Y-60059492D01*
X91588008Y-60059486D01*
X91578264Y-60053860D01*
X91530050Y-60003292D01*
X91516829Y-59934685D01*
X91520490Y-59914388D01*
X91547517Y-59813526D01*
X91547517Y-59668576D01*
X91510001Y-59528566D01*
X91437526Y-59403036D01*
X91335032Y-59300542D01*
X91335030Y-59300541D01*
X91335028Y-59300539D01*
X91209505Y-59228068D01*
X91209506Y-59228068D01*
X91198023Y-59224991D01*
X91069492Y-59190551D01*
X90924542Y-59190551D01*
X90796010Y-59224991D01*
X90784528Y-59228068D01*
X90659005Y-59300539D01*
X90658999Y-59300544D01*
X90556510Y-59403033D01*
X90556505Y-59403039D01*
X90484034Y-59528562D01*
X90484033Y-59528566D01*
X90446517Y-59668576D01*
X50500500Y-59668576D01*
X50500500Y-58177525D01*
X82949500Y-58177525D01*
X82949500Y-58322475D01*
X82983805Y-58450500D01*
X82987017Y-58462488D01*
X83059488Y-58588011D01*
X83059490Y-58588013D01*
X83059491Y-58588015D01*
X83161985Y-58690509D01*
X83161986Y-58690510D01*
X83161988Y-58690511D01*
X83287511Y-58762982D01*
X83287512Y-58762982D01*
X83287515Y-58762984D01*
X83427525Y-58800500D01*
X83427528Y-58800500D01*
X83572472Y-58800500D01*
X83572475Y-58800500D01*
X83712485Y-58762984D01*
X83838015Y-58690509D01*
X83940509Y-58588015D01*
X84012984Y-58462485D01*
X84050500Y-58322475D01*
X84050500Y-58177525D01*
X92449500Y-58177525D01*
X92449500Y-58322475D01*
X92483805Y-58450500D01*
X92487017Y-58462488D01*
X92559488Y-58588011D01*
X92559490Y-58588013D01*
X92559491Y-58588015D01*
X92661985Y-58690509D01*
X92661986Y-58690510D01*
X92661988Y-58690511D01*
X92787511Y-58762982D01*
X92787512Y-58762982D01*
X92787515Y-58762984D01*
X92927525Y-58800500D01*
X92927528Y-58800500D01*
X93072472Y-58800500D01*
X93072475Y-58800500D01*
X93212485Y-58762984D01*
X93338015Y-58690509D01*
X93440509Y-58588015D01*
X93512984Y-58462485D01*
X93550500Y-58322475D01*
X93550500Y-58177525D01*
X93512984Y-58037515D01*
X93475431Y-57972472D01*
X93440511Y-57911988D01*
X93440506Y-57911982D01*
X93356049Y-57827525D01*
X100049500Y-57827525D01*
X100049500Y-57972475D01*
X100066927Y-58037511D01*
X100087017Y-58112488D01*
X100159488Y-58238011D01*
X100159490Y-58238013D01*
X100159491Y-58238015D01*
X100261985Y-58340509D01*
X100261986Y-58340510D01*
X100261988Y-58340511D01*
X100387511Y-58412982D01*
X100387512Y-58412982D01*
X100387515Y-58412984D01*
X100527525Y-58450500D01*
X100527528Y-58450500D01*
X100672472Y-58450500D01*
X100672475Y-58450500D01*
X100812485Y-58412984D01*
X100938015Y-58340509D01*
X101040509Y-58238015D01*
X101112984Y-58112485D01*
X101150500Y-57972475D01*
X101150500Y-57827525D01*
X101112984Y-57687515D01*
X101040509Y-57561985D01*
X100938015Y-57459491D01*
X100938013Y-57459490D01*
X100938011Y-57459488D01*
X100812488Y-57387017D01*
X100812489Y-57387017D01*
X100801006Y-57383940D01*
X100672475Y-57349500D01*
X100527525Y-57349500D01*
X100398993Y-57383940D01*
X100387511Y-57387017D01*
X100261988Y-57459488D01*
X100261982Y-57459493D01*
X100159493Y-57561982D01*
X100159488Y-57561988D01*
X100087017Y-57687511D01*
X100087016Y-57687515D01*
X100049500Y-57827525D01*
X93356049Y-57827525D01*
X93338017Y-57809493D01*
X93338011Y-57809488D01*
X93212488Y-57737017D01*
X93212489Y-57737017D01*
X93201006Y-57733940D01*
X93072475Y-57699500D01*
X92927525Y-57699500D01*
X92798993Y-57733940D01*
X92787511Y-57737017D01*
X92661988Y-57809488D01*
X92661982Y-57809493D01*
X92559493Y-57911982D01*
X92559488Y-57911988D01*
X92487017Y-58037511D01*
X92487016Y-58037515D01*
X92449500Y-58177525D01*
X84050500Y-58177525D01*
X84012984Y-58037515D01*
X83975431Y-57972472D01*
X83940511Y-57911988D01*
X83940506Y-57911982D01*
X83838017Y-57809493D01*
X83838011Y-57809488D01*
X83712488Y-57737017D01*
X83712489Y-57737017D01*
X83701006Y-57733940D01*
X83572475Y-57699500D01*
X83427525Y-57699500D01*
X83298993Y-57733940D01*
X83287511Y-57737017D01*
X83161988Y-57809488D01*
X83161982Y-57809493D01*
X83059493Y-57911982D01*
X83059488Y-57911988D01*
X82987017Y-58037511D01*
X82987016Y-58037515D01*
X82949500Y-58177525D01*
X50500500Y-58177525D01*
X50500500Y-54527525D01*
X91599500Y-54527525D01*
X91599500Y-54672475D01*
X91637016Y-54812485D01*
X91637017Y-54812488D01*
X91709488Y-54938011D01*
X91709490Y-54938013D01*
X91709491Y-54938015D01*
X91811985Y-55040509D01*
X91811986Y-55040510D01*
X91811988Y-55040511D01*
X91937511Y-55112982D01*
X91937512Y-55112982D01*
X91937515Y-55112984D01*
X92077525Y-55150500D01*
X92077528Y-55150500D01*
X92222472Y-55150500D01*
X92222475Y-55150500D01*
X92362485Y-55112984D01*
X92488015Y-55040509D01*
X92590509Y-54938015D01*
X92662984Y-54812485D01*
X92700500Y-54672475D01*
X92700500Y-54527525D01*
X92662984Y-54387515D01*
X92647562Y-54360804D01*
X92590511Y-54261988D01*
X92590506Y-54261982D01*
X92488017Y-54159493D01*
X92488011Y-54159488D01*
X92362488Y-54087017D01*
X92362489Y-54087017D01*
X92351006Y-54083940D01*
X92222475Y-54049500D01*
X92077525Y-54049500D01*
X91948993Y-54083940D01*
X91937511Y-54087017D01*
X91811988Y-54159488D01*
X91811982Y-54159493D01*
X91709493Y-54261982D01*
X91709488Y-54261988D01*
X91637017Y-54387511D01*
X91637016Y-54387515D01*
X91599500Y-54527525D01*
X50500500Y-54527525D01*
X50500500Y-53690925D01*
X93342718Y-53690925D01*
X93342718Y-53835875D01*
X93373384Y-53950320D01*
X93380235Y-53975888D01*
X93452706Y-54101411D01*
X93452708Y-54101413D01*
X93452709Y-54101415D01*
X93555203Y-54203909D01*
X93555204Y-54203910D01*
X93555206Y-54203911D01*
X93680729Y-54276382D01*
X93680730Y-54276382D01*
X93680733Y-54276384D01*
X93820743Y-54313900D01*
X93820746Y-54313900D01*
X93965690Y-54313900D01*
X93965693Y-54313900D01*
X94061470Y-54288236D01*
X94131317Y-54289899D01*
X94189179Y-54329061D01*
X94200947Y-54346010D01*
X94209491Y-54360808D01*
X94311985Y-54463302D01*
X94311986Y-54463303D01*
X94311988Y-54463304D01*
X94437511Y-54535775D01*
X94437512Y-54535775D01*
X94437515Y-54535777D01*
X94577525Y-54573293D01*
X94577528Y-54573293D01*
X94722472Y-54573293D01*
X94722475Y-54573293D01*
X94862485Y-54535777D01*
X94988015Y-54463302D01*
X95090509Y-54360808D01*
X95162984Y-54235278D01*
X95200500Y-54095268D01*
X95200500Y-53950318D01*
X95162984Y-53810308D01*
X95090509Y-53684778D01*
X94988015Y-53582284D01*
X94988013Y-53582283D01*
X94988011Y-53582281D01*
X94862488Y-53509810D01*
X94862489Y-53509810D01*
X94851006Y-53506733D01*
X94722475Y-53472293D01*
X94577525Y-53472293D01*
X94481749Y-53497956D01*
X94411899Y-53496293D01*
X94354037Y-53457130D01*
X94342271Y-53440183D01*
X94333727Y-53425385D01*
X94231233Y-53322891D01*
X94231231Y-53322890D01*
X94231229Y-53322888D01*
X94105706Y-53250417D01*
X94105707Y-53250417D01*
X94094224Y-53247340D01*
X93965693Y-53212900D01*
X93820743Y-53212900D01*
X93692211Y-53247340D01*
X93680729Y-53250417D01*
X93555206Y-53322888D01*
X93555200Y-53322893D01*
X93452711Y-53425382D01*
X93452706Y-53425388D01*
X93380235Y-53550911D01*
X93380234Y-53550915D01*
X93342718Y-53690925D01*
X50500500Y-53690925D01*
X50500500Y-51877525D01*
X75849500Y-51877525D01*
X75849500Y-52022475D01*
X75887016Y-52162485D01*
X75887017Y-52162488D01*
X75959488Y-52288011D01*
X75959490Y-52288013D01*
X75959491Y-52288015D01*
X76061985Y-52390509D01*
X76061986Y-52390510D01*
X76061988Y-52390511D01*
X76187511Y-52462982D01*
X76187512Y-52462982D01*
X76187515Y-52462984D01*
X76327525Y-52500500D01*
X76327528Y-52500500D01*
X76472472Y-52500500D01*
X76472475Y-52500500D01*
X76612485Y-52462984D01*
X76738015Y-52390509D01*
X76795779Y-52332744D01*
X76857098Y-52299262D01*
X76926790Y-52304246D01*
X76982724Y-52346117D01*
X77003230Y-52388328D01*
X77004908Y-52394590D01*
X77004910Y-52394595D01*
X77077381Y-52520118D01*
X77077383Y-52520120D01*
X77077384Y-52520122D01*
X77179878Y-52622616D01*
X77179879Y-52622617D01*
X77179881Y-52622618D01*
X77305404Y-52695089D01*
X77305405Y-52695089D01*
X77305408Y-52695091D01*
X77445418Y-52732607D01*
X77445421Y-52732607D01*
X77590365Y-52732607D01*
X77590368Y-52732607D01*
X77730378Y-52695091D01*
X77855908Y-52622616D01*
X77958402Y-52520122D01*
X78030877Y-52394592D01*
X78042990Y-52349387D01*
X95969892Y-52349387D01*
X95969892Y-52494337D01*
X96004264Y-52622613D01*
X96007409Y-52634350D01*
X96079880Y-52759873D01*
X96079882Y-52759875D01*
X96079883Y-52759877D01*
X96182377Y-52862371D01*
X96182378Y-52862372D01*
X96182380Y-52862373D01*
X96307903Y-52934844D01*
X96307904Y-52934844D01*
X96307907Y-52934846D01*
X96447904Y-52972358D01*
X96507562Y-53008722D01*
X96535583Y-53060038D01*
X96573096Y-53200037D01*
X96645567Y-53325560D01*
X96645569Y-53325562D01*
X96645570Y-53325564D01*
X96748064Y-53428058D01*
X96748065Y-53428059D01*
X96748067Y-53428060D01*
X96873590Y-53500531D01*
X96873591Y-53500531D01*
X96873594Y-53500533D01*
X97013604Y-53538049D01*
X97013607Y-53538049D01*
X97158551Y-53538049D01*
X97158554Y-53538049D01*
X97298564Y-53500533D01*
X97424094Y-53428058D01*
X97526588Y-53325564D01*
X97599063Y-53200034D01*
X97636579Y-53060024D01*
X97636579Y-52915074D01*
X97599063Y-52775064D01*
X97590292Y-52759873D01*
X97526590Y-52649537D01*
X97526585Y-52649531D01*
X97424096Y-52547042D01*
X97424090Y-52547037D01*
X97298567Y-52474566D01*
X97298568Y-52474566D01*
X97255336Y-52462982D01*
X97158567Y-52437052D01*
X97098908Y-52400687D01*
X97070888Y-52349375D01*
X97033376Y-52209377D01*
X96960901Y-52083847D01*
X96858407Y-51981353D01*
X96858405Y-51981352D01*
X96858403Y-51981350D01*
X96732880Y-51908879D01*
X96732881Y-51908879D01*
X96721398Y-51905802D01*
X96592867Y-51871362D01*
X96447917Y-51871362D01*
X96319385Y-51905802D01*
X96307903Y-51908879D01*
X96182380Y-51981350D01*
X96182374Y-51981355D01*
X96079885Y-52083844D01*
X96079880Y-52083850D01*
X96007409Y-52209373D01*
X96007408Y-52209377D01*
X95969892Y-52349387D01*
X78042990Y-52349387D01*
X78068393Y-52254582D01*
X78068393Y-52109632D01*
X78030877Y-51969622D01*
X77998291Y-51913182D01*
X77981819Y-51845284D01*
X78004671Y-51779257D01*
X78059592Y-51736066D01*
X78129145Y-51729424D01*
X78167675Y-51743794D01*
X78287515Y-51812984D01*
X78427525Y-51850500D01*
X78427528Y-51850500D01*
X78572472Y-51850500D01*
X78572475Y-51850500D01*
X78712485Y-51812984D01*
X78838015Y-51740509D01*
X78940509Y-51638015D01*
X79012984Y-51512485D01*
X79050500Y-51372475D01*
X79050500Y-51327525D01*
X92049500Y-51327525D01*
X92049500Y-51472475D01*
X92086881Y-51611982D01*
X92087017Y-51612488D01*
X92159488Y-51738011D01*
X92159490Y-51738013D01*
X92159491Y-51738015D01*
X92261985Y-51840509D01*
X92261986Y-51840510D01*
X92261988Y-51840511D01*
X92387511Y-51912982D01*
X92387512Y-51912982D01*
X92387515Y-51912984D01*
X92527525Y-51950500D01*
X92527528Y-51950500D01*
X92672472Y-51950500D01*
X92672475Y-51950500D01*
X92812485Y-51912984D01*
X92938015Y-51840509D01*
X93040509Y-51738015D01*
X93112984Y-51612485D01*
X93150500Y-51472475D01*
X93150500Y-51327525D01*
X93119102Y-51210346D01*
X98949500Y-51210346D01*
X98949500Y-51355296D01*
X98984795Y-51487016D01*
X98987017Y-51495309D01*
X99059488Y-51620832D01*
X99059490Y-51620834D01*
X99059491Y-51620836D01*
X99161985Y-51723330D01*
X99161986Y-51723331D01*
X99161988Y-51723332D01*
X99287511Y-51795803D01*
X99287512Y-51795803D01*
X99287515Y-51795805D01*
X99427525Y-51833321D01*
X99427528Y-51833321D01*
X99435585Y-51834382D01*
X99435344Y-51836211D01*
X99492539Y-51853006D01*
X99538294Y-51905810D01*
X99549500Y-51957321D01*
X99549500Y-52072475D01*
X99586182Y-52209373D01*
X99587017Y-52212488D01*
X99659488Y-52338011D01*
X99659490Y-52338013D01*
X99659491Y-52338015D01*
X99761985Y-52440509D01*
X99761986Y-52440510D01*
X99761988Y-52440511D01*
X99887511Y-52512982D01*
X99887512Y-52512982D01*
X99887515Y-52512984D01*
X100027525Y-52550500D01*
X100027528Y-52550500D01*
X100172472Y-52550500D01*
X100172475Y-52550500D01*
X100312485Y-52512984D01*
X100438015Y-52440509D01*
X100540509Y-52338015D01*
X100612984Y-52212485D01*
X100650500Y-52072475D01*
X100650500Y-51927525D01*
X100612984Y-51787515D01*
X100612102Y-51785988D01*
X100540511Y-51661988D01*
X100540506Y-51661982D01*
X100438017Y-51559493D01*
X100438011Y-51559488D01*
X100312488Y-51487017D01*
X100312489Y-51487017D01*
X100242480Y-51468258D01*
X100172475Y-51449500D01*
X100172471Y-51449499D01*
X100164415Y-51448439D01*
X100164655Y-51446609D01*
X100107461Y-51429815D01*
X100061706Y-51377011D01*
X100050500Y-51325500D01*
X100050500Y-51210348D01*
X100050500Y-51210346D01*
X100012984Y-51070336D01*
X100008164Y-51061988D01*
X99940511Y-50944809D01*
X99940506Y-50944803D01*
X99838017Y-50842314D01*
X99838011Y-50842309D01*
X99712488Y-50769838D01*
X99712489Y-50769838D01*
X99701006Y-50766761D01*
X99572475Y-50732321D01*
X99427525Y-50732321D01*
X99298993Y-50766761D01*
X99287511Y-50769838D01*
X99161988Y-50842309D01*
X99161982Y-50842314D01*
X99059493Y-50944803D01*
X99059488Y-50944809D01*
X98987017Y-51070332D01*
X98987016Y-51070336D01*
X98949500Y-51210346D01*
X93119102Y-51210346D01*
X93112984Y-51187515D01*
X93059473Y-51094832D01*
X93040511Y-51061988D01*
X93040506Y-51061982D01*
X92938017Y-50959493D01*
X92938011Y-50959488D01*
X92812488Y-50887017D01*
X92812489Y-50887017D01*
X92801006Y-50883940D01*
X92672475Y-50849500D01*
X92527525Y-50849500D01*
X92398993Y-50883940D01*
X92387511Y-50887017D01*
X92261988Y-50959488D01*
X92261982Y-50959493D01*
X92159493Y-51061982D01*
X92159488Y-51061988D01*
X92087017Y-51187511D01*
X92087016Y-51187515D01*
X92049500Y-51327525D01*
X79050500Y-51327525D01*
X79050500Y-51227525D01*
X79012984Y-51087515D01*
X79003063Y-51070332D01*
X78940511Y-50961988D01*
X78940506Y-50961982D01*
X78838017Y-50859493D01*
X78838011Y-50859488D01*
X78712488Y-50787017D01*
X78712489Y-50787017D01*
X78701006Y-50783940D01*
X78572475Y-50749500D01*
X78427525Y-50749500D01*
X78298993Y-50783940D01*
X78287511Y-50787017D01*
X78161988Y-50859488D01*
X78161985Y-50859491D01*
X78139644Y-50881831D01*
X78139631Y-50881844D01*
X78059491Y-50961985D01*
X78050046Y-50978342D01*
X78050042Y-50978348D01*
X77987017Y-51087511D01*
X77986214Y-51090508D01*
X77949500Y-51227525D01*
X77949500Y-51372475D01*
X77980192Y-51487016D01*
X77987017Y-51512488D01*
X78019600Y-51568923D01*
X78036073Y-51636823D01*
X78013221Y-51702850D01*
X77958299Y-51746041D01*
X77888746Y-51752682D01*
X77850214Y-51738311D01*
X77730378Y-51669123D01*
X77590368Y-51631607D01*
X77445418Y-51631607D01*
X77332047Y-51661985D01*
X77305404Y-51669124D01*
X77179881Y-51741595D01*
X77122116Y-51799360D01*
X77060792Y-51832844D01*
X76991101Y-51827859D01*
X76935167Y-51785988D01*
X76914661Y-51743774D01*
X76912984Y-51737515D01*
X76912147Y-51736066D01*
X76840511Y-51611988D01*
X76840506Y-51611982D01*
X76738017Y-51509493D01*
X76738011Y-51509488D01*
X76612488Y-51437017D01*
X76612489Y-51437017D01*
X76601006Y-51433940D01*
X76472475Y-51399500D01*
X76327525Y-51399500D01*
X76198993Y-51433940D01*
X76187511Y-51437017D01*
X76061988Y-51509488D01*
X76061982Y-51509493D01*
X75959493Y-51611982D01*
X75959488Y-51611988D01*
X75887017Y-51737511D01*
X75886214Y-51740509D01*
X75849500Y-51877525D01*
X50500500Y-51877525D01*
X50500500Y-50327525D01*
X76949500Y-50327525D01*
X76949500Y-50472475D01*
X76977649Y-50577527D01*
X76987017Y-50612488D01*
X77059488Y-50738011D01*
X77059490Y-50738013D01*
X77059491Y-50738015D01*
X77161985Y-50840509D01*
X77161986Y-50840510D01*
X77161988Y-50840511D01*
X77287511Y-50912982D01*
X77287512Y-50912982D01*
X77287515Y-50912984D01*
X77427525Y-50950500D01*
X77427528Y-50950500D01*
X77572472Y-50950500D01*
X77572475Y-50950500D01*
X77712485Y-50912984D01*
X77838015Y-50840509D01*
X77940509Y-50738015D01*
X78012984Y-50612485D01*
X78050500Y-50472475D01*
X78050500Y-50327525D01*
X78012984Y-50187515D01*
X77991613Y-50150500D01*
X77940511Y-50061988D01*
X77940506Y-50061982D01*
X77838017Y-49959493D01*
X77838011Y-49959488D01*
X77712488Y-49887017D01*
X77712489Y-49887017D01*
X77701006Y-49883940D01*
X77572475Y-49849500D01*
X77427525Y-49849500D01*
X77298993Y-49883940D01*
X77287511Y-49887017D01*
X77161988Y-49959488D01*
X77161982Y-49959493D01*
X77059493Y-50061982D01*
X77059488Y-50061988D01*
X76987017Y-50187511D01*
X76987016Y-50187515D01*
X76949500Y-50327525D01*
X50500500Y-50327525D01*
X50500500Y-48913389D01*
X78399500Y-48913389D01*
X78399500Y-49086611D01*
X78426598Y-49257701D01*
X78480127Y-49422445D01*
X78558768Y-49576788D01*
X78660586Y-49716928D01*
X78783072Y-49839414D01*
X78923212Y-49941232D01*
X79077555Y-50019873D01*
X79242299Y-50073402D01*
X79413389Y-50100500D01*
X79413390Y-50100500D01*
X79586610Y-50100500D01*
X79586611Y-50100500D01*
X79757701Y-50073402D01*
X79922445Y-50019873D01*
X80005558Y-49977525D01*
X92449500Y-49977525D01*
X92449500Y-50122475D01*
X92472817Y-50209493D01*
X92487017Y-50262488D01*
X92559488Y-50388011D01*
X92559490Y-50388013D01*
X92559491Y-50388015D01*
X92661985Y-50490509D01*
X92661986Y-50490510D01*
X92661988Y-50490511D01*
X92787511Y-50562982D01*
X92787512Y-50562982D01*
X92787515Y-50562984D01*
X92927525Y-50600500D01*
X92927528Y-50600500D01*
X93072472Y-50600500D01*
X93072475Y-50600500D01*
X93158218Y-50577525D01*
X96980993Y-50577525D01*
X96980993Y-50722475D01*
X97012621Y-50840511D01*
X97018510Y-50862488D01*
X97090981Y-50988011D01*
X97090983Y-50988013D01*
X97090984Y-50988015D01*
X97193478Y-51090509D01*
X97193479Y-51090510D01*
X97193481Y-51090511D01*
X97319004Y-51162982D01*
X97319005Y-51162982D01*
X97319008Y-51162984D01*
X97459018Y-51200500D01*
X97459021Y-51200500D01*
X97603965Y-51200500D01*
X97603968Y-51200500D01*
X97743978Y-51162984D01*
X97869508Y-51090509D01*
X97972002Y-50988015D01*
X98044477Y-50862485D01*
X98081993Y-50722475D01*
X98081993Y-50577525D01*
X98044477Y-50437515D01*
X98015899Y-50388017D01*
X97972004Y-50311988D01*
X97971999Y-50311982D01*
X97869510Y-50209493D01*
X97869504Y-50209488D01*
X97743981Y-50137017D01*
X97743982Y-50137017D01*
X97732499Y-50133940D01*
X97603968Y-50099500D01*
X97459018Y-50099500D01*
X97330486Y-50133940D01*
X97319004Y-50137017D01*
X97193481Y-50209488D01*
X97193475Y-50209493D01*
X97090986Y-50311982D01*
X97090981Y-50311988D01*
X97018510Y-50437511D01*
X97018509Y-50437515D01*
X96980993Y-50577525D01*
X93158218Y-50577525D01*
X93212485Y-50562984D01*
X93338015Y-50490509D01*
X93440509Y-50388015D01*
X93512984Y-50262485D01*
X93550500Y-50122475D01*
X93550500Y-49977525D01*
X93512984Y-49837515D01*
X93506277Y-49825899D01*
X93440511Y-49711988D01*
X93440506Y-49711982D01*
X93338017Y-49609493D01*
X93338011Y-49609488D01*
X93212488Y-49537017D01*
X93212489Y-49537017D01*
X93201006Y-49533940D01*
X93072475Y-49499500D01*
X92927525Y-49499500D01*
X92798993Y-49533940D01*
X92787511Y-49537017D01*
X92661988Y-49609488D01*
X92661982Y-49609493D01*
X92559493Y-49711982D01*
X92559488Y-49711988D01*
X92487017Y-49837511D01*
X92487016Y-49837515D01*
X92449500Y-49977525D01*
X80005558Y-49977525D01*
X80076788Y-49941232D01*
X80216928Y-49839414D01*
X80339414Y-49716928D01*
X80441232Y-49576788D01*
X80519873Y-49422445D01*
X80573402Y-49257701D01*
X80600500Y-49086611D01*
X80600500Y-48913389D01*
X80573402Y-48742299D01*
X80519873Y-48577555D01*
X80441232Y-48423212D01*
X80339414Y-48283072D01*
X80216928Y-48160586D01*
X80076788Y-48058768D01*
X79922445Y-47980127D01*
X79757701Y-47926598D01*
X79757699Y-47926597D01*
X79757698Y-47926597D01*
X79596239Y-47901025D01*
X79586611Y-47899500D01*
X79413389Y-47899500D01*
X79403761Y-47901025D01*
X79242302Y-47926597D01*
X79077552Y-47980128D01*
X78923211Y-48058768D01*
X78843256Y-48116859D01*
X78783072Y-48160586D01*
X78783070Y-48160588D01*
X78783069Y-48160588D01*
X78660588Y-48283069D01*
X78660588Y-48283070D01*
X78660586Y-48283072D01*
X78616859Y-48343256D01*
X78558768Y-48423211D01*
X78480128Y-48577552D01*
X78480127Y-48577554D01*
X78480127Y-48577555D01*
X78453362Y-48659927D01*
X78426597Y-48742302D01*
X78411043Y-48840508D01*
X78399500Y-48913389D01*
X50500500Y-48913389D01*
X50500500Y-47727525D01*
X90199500Y-47727525D01*
X90199500Y-47872475D01*
X90230192Y-47987016D01*
X90237017Y-48012488D01*
X90309488Y-48138011D01*
X90309490Y-48138013D01*
X90309491Y-48138015D01*
X90411985Y-48240509D01*
X90411986Y-48240510D01*
X90411988Y-48240511D01*
X90537511Y-48312982D01*
X90537512Y-48312982D01*
X90537515Y-48312984D01*
X90677525Y-48350500D01*
X90677528Y-48350500D01*
X90822472Y-48350500D01*
X90822475Y-48350500D01*
X90908218Y-48327525D01*
X98949500Y-48327525D01*
X98949500Y-48472475D01*
X98987016Y-48612485D01*
X98987017Y-48612488D01*
X99059488Y-48738011D01*
X99059490Y-48738013D01*
X99059491Y-48738015D01*
X99161985Y-48840509D01*
X99232000Y-48880932D01*
X99252231Y-48892613D01*
X99300446Y-48943181D01*
X99313668Y-49011788D01*
X99287700Y-49076653D01*
X99252231Y-49107387D01*
X99161985Y-49159491D01*
X99161982Y-49159493D01*
X99059493Y-49261982D01*
X99059488Y-49261988D01*
X98987017Y-49387511D01*
X98987016Y-49387515D01*
X98949500Y-49527525D01*
X98949500Y-49672475D01*
X98987016Y-49812485D01*
X98987017Y-49812488D01*
X99059488Y-49938011D01*
X99059490Y-49938013D01*
X99059491Y-49938015D01*
X99161985Y-50040509D01*
X99161986Y-50040510D01*
X99161988Y-50040511D01*
X99287511Y-50112982D01*
X99287512Y-50112982D01*
X99287515Y-50112984D01*
X99427525Y-50150500D01*
X99427528Y-50150500D01*
X99572472Y-50150500D01*
X99572475Y-50150500D01*
X99712485Y-50112984D01*
X99838015Y-50040509D01*
X99940509Y-49938015D01*
X100012984Y-49812485D01*
X100050500Y-49672475D01*
X100050500Y-49527525D01*
X100012984Y-49387515D01*
X99948252Y-49275397D01*
X99940511Y-49261988D01*
X99940506Y-49261982D01*
X99838017Y-49159493D01*
X99838015Y-49159491D01*
X99791346Y-49132546D01*
X99747769Y-49107387D01*
X99746645Y-49106208D01*
X99745074Y-49105785D01*
X99722632Y-49081025D01*
X99699553Y-49056820D01*
X99699244Y-49055220D01*
X99698152Y-49054015D01*
X99692656Y-49021036D01*
X99686331Y-48988213D01*
X99686935Y-48986702D01*
X99686668Y-48985096D01*
X99699878Y-48954373D01*
X99712299Y-48923348D01*
X99713831Y-48921923D01*
X99714268Y-48920908D01*
X99721433Y-48914855D01*
X99723010Y-48913389D01*
X109399500Y-48913389D01*
X109399500Y-49086611D01*
X109426598Y-49257701D01*
X109480127Y-49422445D01*
X109558768Y-49576788D01*
X109660586Y-49716928D01*
X109783072Y-49839414D01*
X109923212Y-49941232D01*
X110077555Y-50019873D01*
X110242299Y-50073402D01*
X110413389Y-50100500D01*
X110413390Y-50100500D01*
X110586610Y-50100500D01*
X110586611Y-50100500D01*
X110757701Y-50073402D01*
X110898895Y-50027525D01*
X114549500Y-50027525D01*
X114549500Y-50172475D01*
X114586881Y-50311982D01*
X114587017Y-50312488D01*
X114659488Y-50438011D01*
X114659490Y-50438013D01*
X114659491Y-50438015D01*
X114761985Y-50540509D01*
X114761986Y-50540510D01*
X114761988Y-50540511D01*
X114887511Y-50612982D01*
X114887512Y-50612982D01*
X114887515Y-50612984D01*
X115027525Y-50650500D01*
X115027528Y-50650500D01*
X115172472Y-50650500D01*
X115172475Y-50650500D01*
X115312485Y-50612984D01*
X115438015Y-50540509D01*
X115540509Y-50438015D01*
X115612984Y-50312485D01*
X115650500Y-50172475D01*
X115650500Y-50027525D01*
X115612984Y-49887515D01*
X115612696Y-49887017D01*
X115540511Y-49761988D01*
X115540506Y-49761982D01*
X115438017Y-49659493D01*
X115438011Y-49659488D01*
X115312488Y-49587017D01*
X115312489Y-49587017D01*
X115301006Y-49583940D01*
X115172475Y-49549500D01*
X115027525Y-49549500D01*
X114898993Y-49583940D01*
X114887511Y-49587017D01*
X114761988Y-49659488D01*
X114761982Y-49659493D01*
X114659493Y-49761982D01*
X114659488Y-49761988D01*
X114587017Y-49887511D01*
X114587016Y-49887515D01*
X114549500Y-50027525D01*
X110898895Y-50027525D01*
X110922445Y-50019873D01*
X111076788Y-49941232D01*
X111216928Y-49839414D01*
X111339414Y-49716928D01*
X111441232Y-49576788D01*
X111519873Y-49422445D01*
X111522160Y-49415407D01*
X115776720Y-49415407D01*
X115776720Y-49560357D01*
X115814236Y-49700367D01*
X115814237Y-49700370D01*
X115886708Y-49825893D01*
X115886710Y-49825895D01*
X115886711Y-49825897D01*
X115989205Y-49928391D01*
X115989206Y-49928392D01*
X115989208Y-49928393D01*
X116114731Y-50000864D01*
X116114732Y-50000864D01*
X116114735Y-50000866D01*
X116254745Y-50038382D01*
X116254748Y-50038382D01*
X116399692Y-50038382D01*
X116399695Y-50038382D01*
X116539705Y-50000866D01*
X116665235Y-49928391D01*
X116767729Y-49825897D01*
X116840204Y-49700367D01*
X116877720Y-49560357D01*
X116877720Y-49415407D01*
X116840204Y-49275397D01*
X116832462Y-49261988D01*
X116767731Y-49149870D01*
X116767726Y-49149864D01*
X116665237Y-49047375D01*
X116665231Y-49047370D01*
X116539708Y-48974899D01*
X116539709Y-48974899D01*
X116528226Y-48971822D01*
X116399695Y-48937382D01*
X116254745Y-48937382D01*
X116126213Y-48971822D01*
X116114731Y-48974899D01*
X115989208Y-49047370D01*
X115989202Y-49047375D01*
X115886713Y-49149864D01*
X115886708Y-49149870D01*
X115814237Y-49275393D01*
X115814236Y-49275397D01*
X115776720Y-49415407D01*
X111522160Y-49415407D01*
X111573402Y-49257701D01*
X111600500Y-49086611D01*
X111600500Y-48913389D01*
X111573402Y-48742299D01*
X111519873Y-48577555D01*
X111441232Y-48423212D01*
X111339414Y-48283072D01*
X111216928Y-48160586D01*
X111076788Y-48058768D01*
X110922445Y-47980127D01*
X110757701Y-47926598D01*
X110757699Y-47926597D01*
X110757698Y-47926597D01*
X110596239Y-47901025D01*
X110586611Y-47899500D01*
X110413389Y-47899500D01*
X110403761Y-47901025D01*
X110242302Y-47926597D01*
X110077552Y-47980128D01*
X109923211Y-48058768D01*
X109843256Y-48116859D01*
X109783072Y-48160586D01*
X109783070Y-48160588D01*
X109783069Y-48160588D01*
X109660588Y-48283069D01*
X109660588Y-48283070D01*
X109660586Y-48283072D01*
X109616859Y-48343256D01*
X109558768Y-48423211D01*
X109480128Y-48577552D01*
X109480127Y-48577554D01*
X109480127Y-48577555D01*
X109453362Y-48659927D01*
X109426597Y-48742302D01*
X109411043Y-48840508D01*
X109399500Y-48913389D01*
X99723010Y-48913389D01*
X99740419Y-48897206D01*
X99744013Y-48894781D01*
X99838015Y-48840509D01*
X99940509Y-48738015D01*
X100012984Y-48612485D01*
X100050500Y-48472475D01*
X100050500Y-48327525D01*
X100012984Y-48187515D01*
X99998244Y-48161985D01*
X99940511Y-48061988D01*
X99940506Y-48061982D01*
X99838017Y-47959493D01*
X99838011Y-47959488D01*
X99712488Y-47887017D01*
X99712489Y-47887017D01*
X99701006Y-47883940D01*
X99572475Y-47849500D01*
X99427525Y-47849500D01*
X99298993Y-47883940D01*
X99287511Y-47887017D01*
X99161988Y-47959488D01*
X99161982Y-47959493D01*
X99059493Y-48061982D01*
X99059488Y-48061988D01*
X98987017Y-48187511D01*
X98987016Y-48187515D01*
X98949500Y-48327525D01*
X90908218Y-48327525D01*
X90962485Y-48312984D01*
X91088015Y-48240509D01*
X91190509Y-48138015D01*
X91262984Y-48012485D01*
X91300500Y-47872475D01*
X91300500Y-47727525D01*
X91262984Y-47587515D01*
X91190509Y-47461985D01*
X91088015Y-47359491D01*
X91088013Y-47359490D01*
X91088011Y-47359488D01*
X90962488Y-47287017D01*
X90962489Y-47287017D01*
X90951006Y-47283940D01*
X90927065Y-47277525D01*
X116749500Y-47277525D01*
X116749500Y-47422475D01*
X116760087Y-47461985D01*
X116787017Y-47562488D01*
X116859488Y-47688011D01*
X116859490Y-47688013D01*
X116859491Y-47688015D01*
X116961985Y-47790509D01*
X116961986Y-47790510D01*
X116961988Y-47790511D01*
X117087511Y-47862982D01*
X117087512Y-47862982D01*
X117087515Y-47862984D01*
X117093773Y-47864661D01*
X117153432Y-47901025D01*
X117183961Y-47963872D01*
X117175666Y-48033248D01*
X117149360Y-48072116D01*
X117059488Y-48161988D01*
X116987017Y-48287511D01*
X116987016Y-48287515D01*
X116949500Y-48427525D01*
X116949500Y-48572475D01*
X116960221Y-48612485D01*
X116987017Y-48712488D01*
X117059488Y-48838011D01*
X117059490Y-48838013D01*
X117059491Y-48838015D01*
X117161985Y-48940509D01*
X117161986Y-48940510D01*
X117161988Y-48940511D01*
X117287511Y-49012982D01*
X117287512Y-49012982D01*
X117287515Y-49012984D01*
X117427525Y-49050500D01*
X117427528Y-49050500D01*
X117572472Y-49050500D01*
X117572475Y-49050500D01*
X117712485Y-49012984D01*
X117838015Y-48940509D01*
X117865135Y-48913389D01*
X123899500Y-48913389D01*
X123899500Y-49086611D01*
X123926598Y-49257701D01*
X123980127Y-49422445D01*
X124058768Y-49576788D01*
X124160586Y-49716928D01*
X124283072Y-49839414D01*
X124423212Y-49941232D01*
X124577555Y-50019873D01*
X124742299Y-50073402D01*
X124913389Y-50100500D01*
X124913390Y-50100500D01*
X125086610Y-50100500D01*
X125086611Y-50100500D01*
X125257701Y-50073402D01*
X125422445Y-50019873D01*
X125576788Y-49941232D01*
X125716928Y-49839414D01*
X125839414Y-49716928D01*
X125941232Y-49576788D01*
X126019873Y-49422445D01*
X126073402Y-49257701D01*
X126100500Y-49086611D01*
X126100500Y-48913389D01*
X126073402Y-48742299D01*
X126019873Y-48577555D01*
X125941232Y-48423212D01*
X125839414Y-48283072D01*
X125716928Y-48160586D01*
X125576788Y-48058768D01*
X125422445Y-47980127D01*
X125257701Y-47926598D01*
X125257699Y-47926597D01*
X125257698Y-47926597D01*
X125096239Y-47901025D01*
X125086611Y-47899500D01*
X124913389Y-47899500D01*
X124903761Y-47901025D01*
X124742302Y-47926597D01*
X124577552Y-47980128D01*
X124423211Y-48058768D01*
X124343256Y-48116859D01*
X124283072Y-48160586D01*
X124283070Y-48160588D01*
X124283069Y-48160588D01*
X124160588Y-48283069D01*
X124160588Y-48283070D01*
X124160586Y-48283072D01*
X124116859Y-48343256D01*
X124058768Y-48423211D01*
X123980128Y-48577552D01*
X123980127Y-48577554D01*
X123980127Y-48577555D01*
X123953362Y-48659927D01*
X123926597Y-48742302D01*
X123911043Y-48840508D01*
X123899500Y-48913389D01*
X117865135Y-48913389D01*
X117940509Y-48838015D01*
X118012984Y-48712485D01*
X118050500Y-48572475D01*
X118050500Y-48427525D01*
X118012984Y-48287515D01*
X117985843Y-48240506D01*
X117940511Y-48161988D01*
X117940506Y-48161982D01*
X117838017Y-48059493D01*
X117838011Y-48059488D01*
X117712488Y-47987017D01*
X117712483Y-47987015D01*
X117706221Y-47985337D01*
X117646563Y-47948969D01*
X117616037Y-47886121D01*
X117624335Y-47816746D01*
X117650635Y-47777888D01*
X117740509Y-47688015D01*
X117812984Y-47562485D01*
X117850500Y-47422475D01*
X117850500Y-47277525D01*
X117812984Y-47137515D01*
X117740509Y-47011985D01*
X117638015Y-46909491D01*
X117638013Y-46909490D01*
X117638011Y-46909488D01*
X117512488Y-46837017D01*
X117512489Y-46837017D01*
X117501006Y-46833940D01*
X117372475Y-46799500D01*
X117227525Y-46799500D01*
X117098993Y-46833940D01*
X117087511Y-46837017D01*
X116961988Y-46909488D01*
X116961982Y-46909493D01*
X116859493Y-47011982D01*
X116859488Y-47011988D01*
X116787017Y-47137511D01*
X116787016Y-47137515D01*
X116749500Y-47277525D01*
X90927065Y-47277525D01*
X90822475Y-47249500D01*
X90677525Y-47249500D01*
X90548993Y-47283940D01*
X90537511Y-47287017D01*
X90411988Y-47359488D01*
X90411982Y-47359493D01*
X90309493Y-47461982D01*
X90309488Y-47461988D01*
X90237017Y-47587511D01*
X90237016Y-47587515D01*
X90199500Y-47727525D01*
X50500500Y-47727525D01*
X50500500Y-43913389D01*
X63899500Y-43913389D01*
X63899500Y-44086611D01*
X63902840Y-44107698D01*
X63921818Y-44227525D01*
X63926598Y-44257701D01*
X63980127Y-44422445D01*
X64058768Y-44576788D01*
X64160586Y-44716928D01*
X64283072Y-44839414D01*
X64423212Y-44941232D01*
X64577555Y-45019873D01*
X64742299Y-45073402D01*
X64913389Y-45100500D01*
X64913390Y-45100500D01*
X65086610Y-45100500D01*
X65086611Y-45100500D01*
X65257701Y-45073402D01*
X65422445Y-45019873D01*
X65576788Y-44941232D01*
X65716928Y-44839414D01*
X65839414Y-44716928D01*
X65941232Y-44576788D01*
X66019873Y-44422445D01*
X66073402Y-44257701D01*
X66100500Y-44086611D01*
X66100500Y-43913389D01*
X78399500Y-43913389D01*
X78399500Y-44086611D01*
X78402840Y-44107698D01*
X78421818Y-44227525D01*
X78426598Y-44257701D01*
X78480127Y-44422445D01*
X78558768Y-44576788D01*
X78660586Y-44716928D01*
X78783072Y-44839414D01*
X78923212Y-44941232D01*
X79077555Y-45019873D01*
X79242299Y-45073402D01*
X79413389Y-45100500D01*
X79413390Y-45100500D01*
X79586610Y-45100500D01*
X79586611Y-45100500D01*
X79757701Y-45073402D01*
X79922445Y-45019873D01*
X80076788Y-44941232D01*
X80216928Y-44839414D01*
X80339414Y-44716928D01*
X80441232Y-44576788D01*
X80517285Y-44427525D01*
X81699500Y-44427525D01*
X81699500Y-44572475D01*
X81720139Y-44649500D01*
X81737017Y-44712488D01*
X81809488Y-44838011D01*
X81809490Y-44838013D01*
X81809491Y-44838015D01*
X81911985Y-44940509D01*
X81976102Y-44977527D01*
X82002231Y-44992613D01*
X82050446Y-45043181D01*
X82063668Y-45111788D01*
X82037700Y-45176653D01*
X82002231Y-45207387D01*
X81911985Y-45259491D01*
X81911982Y-45259493D01*
X81809493Y-45361982D01*
X81809488Y-45361988D01*
X81737017Y-45487511D01*
X81736214Y-45490509D01*
X81699500Y-45627525D01*
X81699500Y-45772475D01*
X81727415Y-45876653D01*
X81737017Y-45912488D01*
X81809488Y-46038011D01*
X81809490Y-46038013D01*
X81809491Y-46038015D01*
X81911985Y-46140509D01*
X81911986Y-46140510D01*
X81911988Y-46140511D01*
X82037511Y-46212982D01*
X82037512Y-46212982D01*
X82037515Y-46212984D01*
X82177525Y-46250500D01*
X82177528Y-46250500D01*
X82322472Y-46250500D01*
X82322475Y-46250500D01*
X82462485Y-46212984D01*
X82588015Y-46140509D01*
X82690509Y-46038015D01*
X82762984Y-45912485D01*
X82800500Y-45772475D01*
X82800500Y-45627525D01*
X82762984Y-45487515D01*
X82719665Y-45412485D01*
X82690511Y-45361988D01*
X82690506Y-45361982D01*
X82588017Y-45259493D01*
X82588015Y-45259491D01*
X82541346Y-45232546D01*
X82497769Y-45207387D01*
X82449553Y-45156820D01*
X82436331Y-45088213D01*
X82462299Y-45023348D01*
X82497769Y-44992613D01*
X82523898Y-44977527D01*
X82523901Y-44977525D01*
X99699500Y-44977525D01*
X99699500Y-45122475D01*
X99736213Y-45259489D01*
X99737017Y-45262488D01*
X99809488Y-45388011D01*
X99809490Y-45388013D01*
X99809491Y-45388015D01*
X99911985Y-45490509D01*
X99911986Y-45490510D01*
X99911988Y-45490511D01*
X100037511Y-45562982D01*
X100037512Y-45562982D01*
X100037515Y-45562984D01*
X100177525Y-45600500D01*
X100177528Y-45600500D01*
X100322472Y-45600500D01*
X100322475Y-45600500D01*
X100462485Y-45562984D01*
X100588015Y-45490509D01*
X100690509Y-45388015D01*
X100762984Y-45262485D01*
X100799147Y-45127525D01*
X107149500Y-45127525D01*
X107149500Y-45272475D01*
X107180460Y-45388017D01*
X107187017Y-45412488D01*
X107259488Y-45538011D01*
X107259490Y-45538013D01*
X107259491Y-45538015D01*
X107361985Y-45640509D01*
X107432000Y-45680932D01*
X107452231Y-45692613D01*
X107500446Y-45743181D01*
X107513668Y-45811788D01*
X107487700Y-45876653D01*
X107452231Y-45907387D01*
X107361985Y-45959491D01*
X107361982Y-45959493D01*
X107259493Y-46061982D01*
X107259488Y-46061988D01*
X107187017Y-46187511D01*
X107187016Y-46187515D01*
X107149500Y-46327525D01*
X107149500Y-46472475D01*
X107187016Y-46612485D01*
X107187017Y-46612488D01*
X107259488Y-46738011D01*
X107259490Y-46738013D01*
X107259491Y-46738015D01*
X107361985Y-46840509D01*
X107361986Y-46840510D01*
X107361988Y-46840511D01*
X107487511Y-46912982D01*
X107487512Y-46912982D01*
X107487515Y-46912984D01*
X107627525Y-46950500D01*
X107627528Y-46950500D01*
X107772472Y-46950500D01*
X107772475Y-46950500D01*
X107912485Y-46912984D01*
X108038015Y-46840509D01*
X108140509Y-46738015D01*
X108212984Y-46612485D01*
X108250500Y-46472475D01*
X108250500Y-46327525D01*
X136449500Y-46327525D01*
X136449500Y-46472475D01*
X136487016Y-46612485D01*
X136487017Y-46612488D01*
X136559488Y-46738011D01*
X136559490Y-46738013D01*
X136559491Y-46738015D01*
X136661985Y-46840509D01*
X136661986Y-46840510D01*
X136661988Y-46840511D01*
X136787511Y-46912982D01*
X136787512Y-46912982D01*
X136787515Y-46912984D01*
X136927525Y-46950500D01*
X136927528Y-46950500D01*
X137072472Y-46950500D01*
X137072475Y-46950500D01*
X137212485Y-46912984D01*
X137338015Y-46840509D01*
X137440509Y-46738015D01*
X137512984Y-46612485D01*
X137550500Y-46472475D01*
X137550500Y-46327525D01*
X137512984Y-46187515D01*
X137485843Y-46140506D01*
X137440511Y-46061988D01*
X137440506Y-46061982D01*
X137338017Y-45959493D01*
X137338011Y-45959488D01*
X137212488Y-45887017D01*
X137212489Y-45887017D01*
X137173810Y-45876653D01*
X137072475Y-45849500D01*
X136927525Y-45849500D01*
X136826190Y-45876653D01*
X136787511Y-45887017D01*
X136661988Y-45959488D01*
X136661982Y-45959493D01*
X136559493Y-46061982D01*
X136559488Y-46061988D01*
X136487017Y-46187511D01*
X136487016Y-46187515D01*
X136449500Y-46327525D01*
X108250500Y-46327525D01*
X108212984Y-46187515D01*
X108185843Y-46140506D01*
X108140511Y-46061988D01*
X108140506Y-46061982D01*
X108038017Y-45959493D01*
X108038015Y-45959491D01*
X107956604Y-45912488D01*
X107947769Y-45907387D01*
X107899553Y-45856820D01*
X107886331Y-45788213D01*
X107912299Y-45723348D01*
X107947769Y-45692613D01*
X107964082Y-45683194D01*
X108038015Y-45640509D01*
X108140509Y-45538015D01*
X108212984Y-45412485D01*
X108250500Y-45272475D01*
X108250500Y-45127525D01*
X108212984Y-44987515D01*
X108207217Y-44977527D01*
X108140511Y-44861988D01*
X108140506Y-44861982D01*
X108038017Y-44759493D01*
X108038011Y-44759488D01*
X107912488Y-44687017D01*
X107912489Y-44687017D01*
X107901006Y-44683940D01*
X107772475Y-44649500D01*
X107627525Y-44649500D01*
X107498993Y-44683940D01*
X107487511Y-44687017D01*
X107361988Y-44759488D01*
X107361982Y-44759493D01*
X107259493Y-44861982D01*
X107259488Y-44861988D01*
X107187017Y-44987511D01*
X107187016Y-44987515D01*
X107149500Y-45127525D01*
X100799147Y-45127525D01*
X100800500Y-45122475D01*
X100800500Y-44977525D01*
X100762984Y-44837515D01*
X100706977Y-44740509D01*
X100690511Y-44711988D01*
X100690506Y-44711982D01*
X100588017Y-44609493D01*
X100588011Y-44609488D01*
X100462488Y-44537017D01*
X100462489Y-44537017D01*
X100451006Y-44533940D01*
X100322475Y-44499500D01*
X100177525Y-44499500D01*
X100048993Y-44533940D01*
X100037511Y-44537017D01*
X99911988Y-44609488D01*
X99911982Y-44609493D01*
X99809493Y-44711982D01*
X99809488Y-44711988D01*
X99737017Y-44837511D01*
X99737016Y-44837515D01*
X99699500Y-44977525D01*
X82523901Y-44977525D01*
X82588015Y-44940509D01*
X82690509Y-44838015D01*
X82762984Y-44712485D01*
X82800500Y-44572475D01*
X82800500Y-44427525D01*
X82762984Y-44287515D01*
X82733478Y-44236410D01*
X82690511Y-44161988D01*
X82690506Y-44161982D01*
X82588017Y-44059493D01*
X82588011Y-44059488D01*
X82462488Y-43987017D01*
X82462489Y-43987017D01*
X82451006Y-43983940D01*
X82322475Y-43949500D01*
X82177525Y-43949500D01*
X82048993Y-43983940D01*
X82037511Y-43987017D01*
X81911988Y-44059488D01*
X81911982Y-44059493D01*
X81809493Y-44161982D01*
X81809488Y-44161988D01*
X81737017Y-44287511D01*
X81737016Y-44287515D01*
X81699500Y-44427525D01*
X80517285Y-44427525D01*
X80519873Y-44422445D01*
X80573402Y-44257701D01*
X80600500Y-44086611D01*
X80600500Y-43913389D01*
X80573402Y-43742299D01*
X80519873Y-43577555D01*
X80498770Y-43536137D01*
X90775006Y-43536137D01*
X90775006Y-43681087D01*
X90812522Y-43821097D01*
X90812523Y-43821100D01*
X90884994Y-43946623D01*
X90884996Y-43946625D01*
X90884997Y-43946627D01*
X90987491Y-44049121D01*
X90987492Y-44049122D01*
X90987494Y-44049123D01*
X91113017Y-44121594D01*
X91113018Y-44121594D01*
X91113021Y-44121596D01*
X91253031Y-44159112D01*
X91253034Y-44159112D01*
X91397978Y-44159112D01*
X91397981Y-44159112D01*
X91537991Y-44121596D01*
X91663521Y-44049121D01*
X91679378Y-44033264D01*
X91740701Y-43999779D01*
X91810393Y-44004763D01*
X91840652Y-44021145D01*
X91848150Y-44026674D01*
X91861985Y-44040509D01*
X91884683Y-44053614D01*
X91890268Y-44057732D01*
X91907375Y-44080244D01*
X91926891Y-44100712D01*
X91928237Y-44107698D01*
X91932541Y-44113362D01*
X91934761Y-44141551D01*
X91940113Y-44169319D01*
X91937910Y-44181527D01*
X91938028Y-44183016D01*
X91937447Y-44184098D01*
X91936450Y-44189623D01*
X91899500Y-44327523D01*
X91899500Y-44472473D01*
X91936214Y-44609491D01*
X91937017Y-44612486D01*
X92009488Y-44738009D01*
X92009490Y-44738011D01*
X92009491Y-44738013D01*
X92111985Y-44840507D01*
X92111986Y-44840508D01*
X92111988Y-44840509D01*
X92237511Y-44912980D01*
X92237512Y-44912980D01*
X92237515Y-44912982D01*
X92377525Y-44950498D01*
X92377528Y-44950498D01*
X92522472Y-44950498D01*
X92522475Y-44950498D01*
X92662485Y-44912982D01*
X92788015Y-44840507D01*
X92890509Y-44738013D01*
X92962984Y-44612483D01*
X93000500Y-44472473D01*
X93000500Y-44327523D01*
X92962984Y-44187513D01*
X92961012Y-44184098D01*
X92890511Y-44061986D01*
X92890506Y-44061980D01*
X92788017Y-43959491D01*
X92788015Y-43959489D01*
X92771322Y-43949851D01*
X92723108Y-43899283D01*
X92709886Y-43830676D01*
X92713546Y-43810387D01*
X92750500Y-43672475D01*
X92750500Y-43593750D01*
X94919500Y-43593750D01*
X94919500Y-43738700D01*
X94951867Y-43859493D01*
X94957017Y-43878713D01*
X95029488Y-44004236D01*
X95029490Y-44004238D01*
X95029491Y-44004240D01*
X95131985Y-44106734D01*
X95131986Y-44106735D01*
X95131988Y-44106736D01*
X95257511Y-44179207D01*
X95257512Y-44179207D01*
X95257515Y-44179209D01*
X95397525Y-44216725D01*
X95397528Y-44216725D01*
X95425500Y-44216725D01*
X95492539Y-44236410D01*
X95538294Y-44289214D01*
X95549500Y-44340725D01*
X95549500Y-44372475D01*
X95576294Y-44472470D01*
X95587017Y-44512488D01*
X95659488Y-44638011D01*
X95659490Y-44638013D01*
X95659491Y-44638015D01*
X95761985Y-44740509D01*
X95761986Y-44740510D01*
X95761988Y-44740511D01*
X95887511Y-44812982D01*
X95887512Y-44812982D01*
X95887515Y-44812984D01*
X96027525Y-44850500D01*
X96027528Y-44850500D01*
X96172473Y-44850500D01*
X96172475Y-44850500D01*
X96312485Y-44812984D01*
X96438015Y-44740509D01*
X96540509Y-44638015D01*
X96612984Y-44512485D01*
X96650500Y-44372475D01*
X96650500Y-44227525D01*
X96612984Y-44087515D01*
X96540509Y-43961985D01*
X96491913Y-43913389D01*
X109399500Y-43913389D01*
X109399500Y-44086611D01*
X109402840Y-44107698D01*
X109421818Y-44227525D01*
X109426598Y-44257701D01*
X109480127Y-44422445D01*
X109558768Y-44576788D01*
X109660586Y-44716928D01*
X109783072Y-44839414D01*
X109923212Y-44941232D01*
X110077555Y-45019873D01*
X110242299Y-45073402D01*
X110413389Y-45100500D01*
X110413390Y-45100500D01*
X110586610Y-45100500D01*
X110586611Y-45100500D01*
X110757701Y-45073402D01*
X110922445Y-45019873D01*
X111076788Y-44941232D01*
X111216928Y-44839414D01*
X111339414Y-44716928D01*
X111441232Y-44576788D01*
X111519873Y-44422445D01*
X111573402Y-44257701D01*
X111600500Y-44086611D01*
X111600500Y-43913389D01*
X111573402Y-43742299D01*
X111519873Y-43577555D01*
X111441232Y-43423212D01*
X111339414Y-43283072D01*
X111216928Y-43160586D01*
X111076788Y-43058768D01*
X111040952Y-43040509D01*
X110922447Y-42980128D01*
X110922446Y-42980127D01*
X110922445Y-42980127D01*
X110757701Y-42926598D01*
X110757699Y-42926597D01*
X110757698Y-42926597D01*
X110700928Y-42917606D01*
X110678740Y-42914091D01*
X110586611Y-42899500D01*
X110413389Y-42899500D01*
X110373728Y-42905781D01*
X110242302Y-42926597D01*
X110077552Y-42980128D01*
X109923211Y-43058768D01*
X109872477Y-43095629D01*
X109783072Y-43160586D01*
X109783070Y-43160588D01*
X109783069Y-43160588D01*
X109660588Y-43283069D01*
X109660588Y-43283070D01*
X109660586Y-43283072D01*
X109627791Y-43328210D01*
X109558768Y-43423211D01*
X109480128Y-43577552D01*
X109426597Y-43742302D01*
X109408036Y-43859493D01*
X109399500Y-43913389D01*
X96491913Y-43913389D01*
X96438015Y-43859491D01*
X96438013Y-43859490D01*
X96438011Y-43859488D01*
X96312488Y-43787017D01*
X96312489Y-43787017D01*
X96301006Y-43783940D01*
X96172475Y-43749500D01*
X96144500Y-43749500D01*
X96077461Y-43729815D01*
X96031706Y-43677011D01*
X96020500Y-43625500D01*
X96020500Y-43593752D01*
X96020500Y-43593750D01*
X95982984Y-43453740D01*
X95910509Y-43328210D01*
X95808015Y-43225716D01*
X95808013Y-43225715D01*
X95808011Y-43225713D01*
X95682488Y-43153242D01*
X95682489Y-43153242D01*
X95671006Y-43150165D01*
X95542475Y-43115725D01*
X95397525Y-43115725D01*
X95268993Y-43150165D01*
X95257511Y-43153242D01*
X95131988Y-43225713D01*
X95131982Y-43225718D01*
X95029493Y-43328207D01*
X95029488Y-43328213D01*
X94957017Y-43453736D01*
X94957016Y-43453740D01*
X94919500Y-43593750D01*
X92750500Y-43593750D01*
X92750500Y-43527525D01*
X92712984Y-43387515D01*
X92678742Y-43328207D01*
X92640511Y-43261988D01*
X92640506Y-43261982D01*
X92538017Y-43159493D01*
X92538011Y-43159488D01*
X92412488Y-43087017D01*
X92412489Y-43087017D01*
X92401006Y-43083940D01*
X92272475Y-43049500D01*
X92127525Y-43049500D01*
X91998993Y-43083940D01*
X91987511Y-43087017D01*
X91861988Y-43159488D01*
X91861979Y-43159495D01*
X91846123Y-43175351D01*
X91784798Y-43208833D01*
X91715107Y-43203846D01*
X91670765Y-43175347D01*
X91663523Y-43168105D01*
X91663517Y-43168100D01*
X91537994Y-43095629D01*
X91537995Y-43095629D01*
X91510344Y-43088220D01*
X91397981Y-43058112D01*
X91253031Y-43058112D01*
X91140668Y-43088220D01*
X91113017Y-43095629D01*
X90987494Y-43168100D01*
X90987488Y-43168105D01*
X90884999Y-43270594D01*
X90884994Y-43270600D01*
X90812523Y-43396123D01*
X90812522Y-43396127D01*
X90775006Y-43536137D01*
X80498770Y-43536137D01*
X80441232Y-43423212D01*
X80339414Y-43283072D01*
X80216928Y-43160586D01*
X80076788Y-43058768D01*
X80040952Y-43040509D01*
X79922447Y-42980128D01*
X79922446Y-42980127D01*
X79922445Y-42980127D01*
X79757701Y-42926598D01*
X79757699Y-42926597D01*
X79757698Y-42926597D01*
X79626271Y-42905781D01*
X79586611Y-42899500D01*
X79413389Y-42899500D01*
X79373728Y-42905781D01*
X79242302Y-42926597D01*
X79077552Y-42980128D01*
X78923211Y-43058768D01*
X78872477Y-43095629D01*
X78783072Y-43160586D01*
X78783070Y-43160588D01*
X78783069Y-43160588D01*
X78660588Y-43283069D01*
X78660588Y-43283070D01*
X78660586Y-43283072D01*
X78627791Y-43328210D01*
X78558768Y-43423211D01*
X78480128Y-43577552D01*
X78426597Y-43742302D01*
X78408036Y-43859493D01*
X78399500Y-43913389D01*
X66100500Y-43913389D01*
X66073402Y-43742299D01*
X66019873Y-43577555D01*
X65941232Y-43423212D01*
X65839414Y-43283072D01*
X65716928Y-43160586D01*
X65576788Y-43058768D01*
X65540952Y-43040509D01*
X65422447Y-42980128D01*
X65422446Y-42980127D01*
X65422445Y-42980127D01*
X65257701Y-42926598D01*
X65257699Y-42926597D01*
X65257698Y-42926597D01*
X65126271Y-42905781D01*
X65086611Y-42899500D01*
X64913389Y-42899500D01*
X64873728Y-42905781D01*
X64742302Y-42926597D01*
X64577552Y-42980128D01*
X64423211Y-43058768D01*
X64372477Y-43095629D01*
X64283072Y-43160586D01*
X64283070Y-43160588D01*
X64283069Y-43160588D01*
X64160588Y-43283069D01*
X64160588Y-43283070D01*
X64160586Y-43283072D01*
X64127791Y-43328210D01*
X64058768Y-43423211D01*
X63980128Y-43577552D01*
X63926597Y-43742302D01*
X63908036Y-43859493D01*
X63899500Y-43913389D01*
X50500500Y-43913389D01*
X50500500Y-41927525D01*
X92319500Y-41927525D01*
X92319500Y-42072475D01*
X92357016Y-42212485D01*
X92357017Y-42212488D01*
X92429488Y-42338011D01*
X92429490Y-42338013D01*
X92429491Y-42338015D01*
X92531985Y-42440509D01*
X92531986Y-42440510D01*
X92531988Y-42440511D01*
X92657511Y-42512982D01*
X92657512Y-42512982D01*
X92657515Y-42512984D01*
X92797525Y-42550500D01*
X92797528Y-42550500D01*
X92942472Y-42550500D01*
X92942475Y-42550500D01*
X93082485Y-42512984D01*
X93208015Y-42440509D01*
X93310509Y-42338015D01*
X93382984Y-42212485D01*
X93420500Y-42072475D01*
X93420500Y-41927525D01*
X93382984Y-41787515D01*
X93316565Y-41672475D01*
X93310511Y-41661988D01*
X93310506Y-41661982D01*
X93208017Y-41559493D01*
X93208011Y-41559488D01*
X93152650Y-41527525D01*
X93649500Y-41527525D01*
X93649500Y-41672475D01*
X93686037Y-41808830D01*
X93687017Y-41812488D01*
X93759488Y-41938011D01*
X93759493Y-41938017D01*
X93867732Y-42046256D01*
X93865507Y-42048480D01*
X93897957Y-42092953D01*
X93902087Y-42162701D01*
X93868935Y-42222540D01*
X93829494Y-42261981D01*
X93829488Y-42261988D01*
X93757017Y-42387511D01*
X93757016Y-42387515D01*
X93719500Y-42527525D01*
X93719500Y-42672475D01*
X93754544Y-42803260D01*
X93757017Y-42812488D01*
X93829488Y-42938011D01*
X93829490Y-42938013D01*
X93829491Y-42938015D01*
X93931985Y-43040509D01*
X93931986Y-43040510D01*
X93931988Y-43040511D01*
X94057511Y-43112982D01*
X94057512Y-43112982D01*
X94057515Y-43112984D01*
X94197525Y-43150500D01*
X94197528Y-43150500D01*
X94342472Y-43150500D01*
X94342475Y-43150500D01*
X94482485Y-43112984D01*
X94608015Y-43040509D01*
X94710509Y-42938015D01*
X94782984Y-42812485D01*
X94785456Y-42803260D01*
X130925235Y-42803260D01*
X130925235Y-42948210D01*
X130962429Y-43087017D01*
X130962752Y-43088223D01*
X131035223Y-43213746D01*
X131035225Y-43213748D01*
X131035226Y-43213750D01*
X131137720Y-43316244D01*
X131137721Y-43316245D01*
X131137723Y-43316246D01*
X131263246Y-43388717D01*
X131263247Y-43388717D01*
X131263250Y-43388719D01*
X131403260Y-43426235D01*
X131403263Y-43426235D01*
X131548207Y-43426235D01*
X131548210Y-43426235D01*
X131688220Y-43388719D01*
X131813750Y-43316244D01*
X131916244Y-43213750D01*
X131988719Y-43088220D01*
X132026235Y-42948210D01*
X132026235Y-42803260D01*
X131988719Y-42663250D01*
X131916244Y-42537720D01*
X131813750Y-42435226D01*
X131813748Y-42435225D01*
X131813746Y-42435223D01*
X131688223Y-42362752D01*
X131688224Y-42362752D01*
X131676741Y-42359675D01*
X131548210Y-42325235D01*
X131403260Y-42325235D01*
X131274728Y-42359675D01*
X131263246Y-42362752D01*
X131137723Y-42435223D01*
X131137717Y-42435228D01*
X131035228Y-42537717D01*
X131035223Y-42537723D01*
X130962752Y-42663246D01*
X130962751Y-42663250D01*
X130925235Y-42803260D01*
X94785456Y-42803260D01*
X94820500Y-42672475D01*
X94820500Y-42527525D01*
X94782984Y-42387515D01*
X94722529Y-42282805D01*
X94722526Y-42282798D01*
X94710512Y-42261991D01*
X94710509Y-42261985D01*
X94608015Y-42159491D01*
X94602268Y-42153744D01*
X94604490Y-42151521D01*
X94572037Y-42107032D01*
X94567915Y-42037284D01*
X94588251Y-41992497D01*
X94594051Y-41984472D01*
X94640509Y-41938015D01*
X94691605Y-41849513D01*
X94695317Y-41844379D01*
X94718119Y-41826707D01*
X94738991Y-41806806D01*
X94745391Y-41805572D01*
X94750544Y-41801579D01*
X94779277Y-41799040D01*
X94807598Y-41793582D01*
X94813649Y-41796004D01*
X94820142Y-41795431D01*
X94845686Y-41808830D01*
X94872463Y-41819550D01*
X94876243Y-41824859D01*
X94882016Y-41827887D01*
X94896261Y-41852969D01*
X94912992Y-41876464D01*
X94913730Y-41883729D01*
X94916521Y-41888642D01*
X94915719Y-41903282D01*
X94917358Y-41919398D01*
X94919500Y-41919398D01*
X94919500Y-41927525D01*
X94919500Y-42072475D01*
X94957016Y-42212485D01*
X95017466Y-42317188D01*
X95017468Y-42317191D01*
X95029488Y-42338011D01*
X95029490Y-42338013D01*
X95029491Y-42338015D01*
X95131985Y-42440509D01*
X95131986Y-42440510D01*
X95131988Y-42440511D01*
X95257511Y-42512982D01*
X95257512Y-42512982D01*
X95257515Y-42512984D01*
X95397525Y-42550500D01*
X95397528Y-42550500D01*
X95542472Y-42550500D01*
X95542475Y-42550500D01*
X95682485Y-42512984D01*
X95808015Y-42440509D01*
X95910509Y-42338015D01*
X95982984Y-42212485D01*
X96020500Y-42072475D01*
X96020500Y-41927525D01*
X95982984Y-41787515D01*
X95916565Y-41672475D01*
X95910511Y-41661988D01*
X95910506Y-41661982D01*
X95808017Y-41559493D01*
X95808011Y-41559488D01*
X95682488Y-41487017D01*
X95682489Y-41487017D01*
X95671006Y-41483940D01*
X95542475Y-41449500D01*
X95397525Y-41449500D01*
X95268993Y-41483940D01*
X95257511Y-41487017D01*
X95131988Y-41559488D01*
X95131982Y-41559493D01*
X95029493Y-41661982D01*
X95029491Y-41661985D01*
X94981574Y-41744979D01*
X94931006Y-41793194D01*
X94862399Y-41806416D01*
X94797534Y-41780448D01*
X94757007Y-41723533D01*
X94752651Y-41680602D01*
X94750500Y-41680602D01*
X94750500Y-41527527D01*
X94750500Y-41527525D01*
X94712984Y-41387515D01*
X94684406Y-41338017D01*
X94640511Y-41261988D01*
X94640506Y-41261982D01*
X94538017Y-41159493D01*
X94538011Y-41159488D01*
X94412488Y-41087017D01*
X94412489Y-41087017D01*
X94401006Y-41083940D01*
X94272475Y-41049500D01*
X94127525Y-41049500D01*
X93998993Y-41083940D01*
X93987511Y-41087017D01*
X93861988Y-41159488D01*
X93861982Y-41159493D01*
X93759493Y-41261982D01*
X93759488Y-41261988D01*
X93687017Y-41387511D01*
X93687016Y-41387515D01*
X93649500Y-41527525D01*
X93152650Y-41527525D01*
X93082488Y-41487017D01*
X93082489Y-41487017D01*
X93071006Y-41483940D01*
X92942475Y-41449500D01*
X92797525Y-41449500D01*
X92668993Y-41483940D01*
X92657511Y-41487017D01*
X92531988Y-41559488D01*
X92531982Y-41559493D01*
X92429493Y-41661982D01*
X92429488Y-41661988D01*
X92357017Y-41787511D01*
X92357016Y-41787515D01*
X92319500Y-41927525D01*
X50500500Y-41927525D01*
X50500500Y-40927525D01*
X91119500Y-40927525D01*
X91119500Y-41072475D01*
X91142817Y-41159493D01*
X91157017Y-41212488D01*
X91229488Y-41338011D01*
X91229490Y-41338013D01*
X91229491Y-41338015D01*
X91331985Y-41440509D01*
X91331986Y-41440510D01*
X91331988Y-41440511D01*
X91457511Y-41512982D01*
X91457512Y-41512982D01*
X91457515Y-41512984D01*
X91597525Y-41550500D01*
X91597528Y-41550500D01*
X91742472Y-41550500D01*
X91742475Y-41550500D01*
X91882485Y-41512984D01*
X92008015Y-41440509D01*
X92110509Y-41338015D01*
X92182984Y-41212485D01*
X92220500Y-41072475D01*
X92220500Y-40927525D01*
X92182984Y-40787515D01*
X92116565Y-40672475D01*
X92110511Y-40661988D01*
X92110506Y-40661982D01*
X92008017Y-40559493D01*
X92008011Y-40559488D01*
X91952650Y-40527525D01*
X95649500Y-40527525D01*
X95649500Y-40672475D01*
X95687016Y-40812485D01*
X95687017Y-40812488D01*
X95759488Y-40938011D01*
X95759490Y-40938013D01*
X95759491Y-40938015D01*
X95861985Y-41040509D01*
X95861986Y-41040510D01*
X95861988Y-41040511D01*
X95987511Y-41112982D01*
X95987512Y-41112982D01*
X95987515Y-41112984D01*
X96127525Y-41150500D01*
X96127528Y-41150500D01*
X96272472Y-41150500D01*
X96272475Y-41150500D01*
X96412485Y-41112984D01*
X96538015Y-41040509D01*
X96640509Y-40938015D01*
X96712984Y-40812485D01*
X96750500Y-40672475D01*
X96750500Y-40527525D01*
X96712984Y-40387515D01*
X96640509Y-40261985D01*
X96538015Y-40159491D01*
X96538013Y-40159490D01*
X96538011Y-40159488D01*
X96412488Y-40087017D01*
X96412489Y-40087017D01*
X96401006Y-40083940D01*
X96272475Y-40049500D01*
X96127525Y-40049500D01*
X95998993Y-40083940D01*
X95987511Y-40087017D01*
X95861988Y-40159488D01*
X95861982Y-40159493D01*
X95759493Y-40261982D01*
X95759488Y-40261988D01*
X95687017Y-40387511D01*
X95687016Y-40387515D01*
X95649500Y-40527525D01*
X91952650Y-40527525D01*
X91882488Y-40487017D01*
X91882489Y-40487017D01*
X91871006Y-40483940D01*
X91742475Y-40449500D01*
X91597525Y-40449500D01*
X91468993Y-40483940D01*
X91457511Y-40487017D01*
X91331988Y-40559488D01*
X91331982Y-40559493D01*
X91229493Y-40661982D01*
X91229488Y-40661988D01*
X91157017Y-40787511D01*
X91157016Y-40787515D01*
X91119500Y-40927525D01*
X50500500Y-40927525D01*
X50500500Y-37327525D01*
X128449500Y-37327525D01*
X128449500Y-37472475D01*
X128487016Y-37612485D01*
X128487017Y-37612488D01*
X128559488Y-37738011D01*
X128559490Y-37738013D01*
X128559491Y-37738015D01*
X128661985Y-37840509D01*
X128661986Y-37840510D01*
X128661988Y-37840511D01*
X128787511Y-37912982D01*
X128787512Y-37912982D01*
X128787515Y-37912984D01*
X128927525Y-37950500D01*
X128927528Y-37950500D01*
X129072472Y-37950500D01*
X129072475Y-37950500D01*
X129212485Y-37912984D01*
X129338015Y-37840509D01*
X129440509Y-37738015D01*
X129512984Y-37612485D01*
X129550500Y-37472475D01*
X129550500Y-37327525D01*
X131649500Y-37327525D01*
X131649500Y-37472475D01*
X131687016Y-37612485D01*
X131687017Y-37612488D01*
X131759488Y-37738011D01*
X131759490Y-37738013D01*
X131759491Y-37738015D01*
X131861985Y-37840509D01*
X131861986Y-37840510D01*
X131861988Y-37840511D01*
X131987511Y-37912982D01*
X131987512Y-37912982D01*
X131987515Y-37912984D01*
X132127525Y-37950500D01*
X132127528Y-37950500D01*
X132272472Y-37950500D01*
X132272475Y-37950500D01*
X132412485Y-37912984D01*
X132538015Y-37840509D01*
X132640509Y-37738015D01*
X132712984Y-37612485D01*
X132750500Y-37472475D01*
X132750500Y-37327525D01*
X132712984Y-37187515D01*
X132640509Y-37061985D01*
X132538015Y-36959491D01*
X132538013Y-36959490D01*
X132538011Y-36959488D01*
X132412488Y-36887017D01*
X132412489Y-36887017D01*
X132401006Y-36883940D01*
X132272475Y-36849500D01*
X132127525Y-36849500D01*
X131998993Y-36883940D01*
X131987511Y-36887017D01*
X131861988Y-36959488D01*
X131861982Y-36959493D01*
X131759493Y-37061982D01*
X131759488Y-37061988D01*
X131687017Y-37187511D01*
X131687016Y-37187515D01*
X131649500Y-37327525D01*
X129550500Y-37327525D01*
X129512984Y-37187515D01*
X129440509Y-37061985D01*
X129338015Y-36959491D01*
X129338013Y-36959490D01*
X129338011Y-36959488D01*
X129212488Y-36887017D01*
X129212489Y-36887017D01*
X129201006Y-36883940D01*
X129072475Y-36849500D01*
X128927525Y-36849500D01*
X128798993Y-36883940D01*
X128787511Y-36887017D01*
X128661988Y-36959488D01*
X128661982Y-36959493D01*
X128559493Y-37061982D01*
X128559488Y-37061988D01*
X128487017Y-37187511D01*
X128487016Y-37187515D01*
X128449500Y-37327525D01*
X50500500Y-37327525D01*
X50500500Y-33003750D01*
X50500726Y-32996263D01*
X50509736Y-32847302D01*
X50518271Y-32706201D01*
X50520076Y-32691340D01*
X50521687Y-32682552D01*
X50571780Y-32409198D01*
X50575364Y-32394664D01*
X50577419Y-32388069D01*
X50626575Y-32230321D01*
X60899500Y-32230321D01*
X60899500Y-33979678D01*
X60914032Y-34052735D01*
X60914033Y-34052739D01*
X60914034Y-34052740D01*
X60969399Y-34135601D01*
X61052260Y-34190966D01*
X61052264Y-34190967D01*
X61125321Y-34205499D01*
X61125324Y-34205500D01*
X61125326Y-34205500D01*
X62874676Y-34205500D01*
X62874677Y-34205499D01*
X62947740Y-34190966D01*
X63030601Y-34135601D01*
X63085966Y-34052740D01*
X63100500Y-33979674D01*
X63100500Y-33018389D01*
X63439500Y-33018389D01*
X63439500Y-33191611D01*
X63466598Y-33362701D01*
X63520127Y-33527445D01*
X63598768Y-33681788D01*
X63700586Y-33821928D01*
X63823072Y-33944414D01*
X63963212Y-34046232D01*
X64117555Y-34124873D01*
X64282299Y-34178402D01*
X64453389Y-34205500D01*
X64453390Y-34205500D01*
X64626610Y-34205500D01*
X64626611Y-34205500D01*
X64797701Y-34178402D01*
X64962445Y-34124873D01*
X65116788Y-34046232D01*
X65256928Y-33944414D01*
X65379414Y-33821928D01*
X65481232Y-33681788D01*
X65559873Y-33527445D01*
X65613402Y-33362701D01*
X65640500Y-33191611D01*
X65640500Y-33018389D01*
X68519500Y-33018389D01*
X68519500Y-33191611D01*
X68546598Y-33362701D01*
X68600127Y-33527445D01*
X68678768Y-33681788D01*
X68780586Y-33821928D01*
X68903072Y-33944414D01*
X69043212Y-34046232D01*
X69197555Y-34124873D01*
X69362299Y-34178402D01*
X69533389Y-34205500D01*
X69533390Y-34205500D01*
X69706610Y-34205500D01*
X69706611Y-34205500D01*
X69877701Y-34178402D01*
X70042445Y-34124873D01*
X70196788Y-34046232D01*
X70336928Y-33944414D01*
X70459414Y-33821928D01*
X70561232Y-33681788D01*
X70639873Y-33527445D01*
X70693402Y-33362701D01*
X70720500Y-33191611D01*
X70720500Y-33018389D01*
X71059500Y-33018389D01*
X71059500Y-33191611D01*
X71086598Y-33362701D01*
X71140127Y-33527445D01*
X71218768Y-33681788D01*
X71320586Y-33821928D01*
X71443072Y-33944414D01*
X71583212Y-34046232D01*
X71737555Y-34124873D01*
X71902299Y-34178402D01*
X72073389Y-34205500D01*
X72073390Y-34205500D01*
X72246610Y-34205500D01*
X72246611Y-34205500D01*
X72417701Y-34178402D01*
X72582445Y-34124873D01*
X72736788Y-34046232D01*
X72876928Y-33944414D01*
X72999414Y-33821928D01*
X73101232Y-33681788D01*
X73179873Y-33527445D01*
X73233402Y-33362701D01*
X73260500Y-33191611D01*
X73260500Y-33018389D01*
X73599500Y-33018389D01*
X73599500Y-33191611D01*
X73626598Y-33362701D01*
X73680127Y-33527445D01*
X73758768Y-33681788D01*
X73860586Y-33821928D01*
X73983072Y-33944414D01*
X74123212Y-34046232D01*
X74277555Y-34124873D01*
X74442299Y-34178402D01*
X74613389Y-34205500D01*
X74613390Y-34205500D01*
X74786610Y-34205500D01*
X74786611Y-34205500D01*
X74957701Y-34178402D01*
X75122445Y-34124873D01*
X75276788Y-34046232D01*
X75416928Y-33944414D01*
X75539414Y-33821928D01*
X75641232Y-33681788D01*
X75719873Y-33527445D01*
X75773402Y-33362701D01*
X75800500Y-33191611D01*
X75800500Y-33018389D01*
X75786245Y-32928389D01*
X114199500Y-32928389D01*
X114199500Y-33101610D01*
X114213754Y-33191611D01*
X114226598Y-33272701D01*
X114280127Y-33437445D01*
X114358768Y-33591788D01*
X114460586Y-33731928D01*
X114583072Y-33854414D01*
X114723212Y-33956232D01*
X114877555Y-34034873D01*
X115042299Y-34088402D01*
X115213389Y-34115500D01*
X115213390Y-34115500D01*
X115386610Y-34115500D01*
X115386611Y-34115500D01*
X115557701Y-34088402D01*
X115722445Y-34034873D01*
X115876788Y-33956232D01*
X116016928Y-33854414D01*
X116139414Y-33731928D01*
X116241232Y-33591788D01*
X116319873Y-33437445D01*
X116373402Y-33272701D01*
X116400500Y-33101611D01*
X116400500Y-32928389D01*
X116739500Y-32928389D01*
X116739500Y-33101610D01*
X116753754Y-33191611D01*
X116766598Y-33272701D01*
X116820127Y-33437445D01*
X116898768Y-33591788D01*
X117000586Y-33731928D01*
X117123072Y-33854414D01*
X117263212Y-33956232D01*
X117417555Y-34034873D01*
X117582299Y-34088402D01*
X117753389Y-34115500D01*
X117753390Y-34115500D01*
X117926610Y-34115500D01*
X117926611Y-34115500D01*
X118097701Y-34088402D01*
X118262445Y-34034873D01*
X118416788Y-33956232D01*
X118556928Y-33854414D01*
X118679414Y-33731928D01*
X118781232Y-33591788D01*
X118859873Y-33437445D01*
X118913402Y-33272701D01*
X118940500Y-33101611D01*
X118940500Y-32928389D01*
X119279500Y-32928389D01*
X119279500Y-33101610D01*
X119293754Y-33191611D01*
X119306598Y-33272701D01*
X119360127Y-33437445D01*
X119438768Y-33591788D01*
X119540586Y-33731928D01*
X119663072Y-33854414D01*
X119803212Y-33956232D01*
X119957555Y-34034873D01*
X120122299Y-34088402D01*
X120293389Y-34115500D01*
X120293390Y-34115500D01*
X120466610Y-34115500D01*
X120466611Y-34115500D01*
X120637701Y-34088402D01*
X120802445Y-34034873D01*
X120956788Y-33956232D01*
X121096928Y-33854414D01*
X121219414Y-33731928D01*
X121321232Y-33591788D01*
X121399873Y-33437445D01*
X121453402Y-33272701D01*
X121480500Y-33101611D01*
X121480500Y-32928389D01*
X124359500Y-32928389D01*
X124359500Y-33101610D01*
X124373754Y-33191611D01*
X124386598Y-33272701D01*
X124440127Y-33437445D01*
X124518768Y-33591788D01*
X124620586Y-33731928D01*
X124743072Y-33854414D01*
X124883212Y-33956232D01*
X125037555Y-34034873D01*
X125202299Y-34088402D01*
X125373389Y-34115500D01*
X125373390Y-34115500D01*
X125546610Y-34115500D01*
X125546611Y-34115500D01*
X125717701Y-34088402D01*
X125882445Y-34034873D01*
X126036788Y-33956232D01*
X126176928Y-33854414D01*
X126299414Y-33731928D01*
X126401232Y-33591788D01*
X126479873Y-33437445D01*
X126533402Y-33272701D01*
X126560500Y-33101611D01*
X126560500Y-32928389D01*
X126533402Y-32757299D01*
X126479873Y-32592555D01*
X126401232Y-32438212D01*
X126299414Y-32298072D01*
X126176928Y-32175586D01*
X126128390Y-32140321D01*
X126899500Y-32140321D01*
X126899500Y-33889678D01*
X126914032Y-33962735D01*
X126914033Y-33962739D01*
X126914034Y-33962740D01*
X126969399Y-34045601D01*
X127052260Y-34100966D01*
X127052264Y-34100967D01*
X127125321Y-34115499D01*
X127125324Y-34115500D01*
X127125326Y-34115500D01*
X128874676Y-34115500D01*
X128874677Y-34115499D01*
X128947740Y-34100966D01*
X129030601Y-34045601D01*
X129085966Y-33962740D01*
X129100500Y-33889674D01*
X129100500Y-32140326D01*
X129100500Y-32140323D01*
X129100499Y-32140321D01*
X129085967Y-32067264D01*
X129085966Y-32067260D01*
X129030601Y-31984399D01*
X128947740Y-31929034D01*
X128947739Y-31929033D01*
X128947735Y-31929032D01*
X128874677Y-31914500D01*
X128874674Y-31914500D01*
X127125326Y-31914500D01*
X127125323Y-31914500D01*
X127052264Y-31929032D01*
X127052260Y-31929033D01*
X126969399Y-31984399D01*
X126914033Y-32067260D01*
X126914032Y-32067264D01*
X126899500Y-32140321D01*
X126128390Y-32140321D01*
X126036788Y-32073768D01*
X125882445Y-31995127D01*
X125717701Y-31941598D01*
X125717699Y-31941597D01*
X125717698Y-31941597D01*
X125586271Y-31920781D01*
X125546611Y-31914500D01*
X125373389Y-31914500D01*
X125333728Y-31920781D01*
X125202302Y-31941597D01*
X125037552Y-31995128D01*
X124883211Y-32073768D01*
X124818444Y-32120825D01*
X124743072Y-32175586D01*
X124743070Y-32175588D01*
X124743069Y-32175588D01*
X124620588Y-32298069D01*
X124620588Y-32298070D01*
X124620586Y-32298072D01*
X124576859Y-32358256D01*
X124518768Y-32438211D01*
X124440128Y-32592552D01*
X124386597Y-32757302D01*
X124359500Y-32928389D01*
X121480500Y-32928389D01*
X121453402Y-32757299D01*
X121399873Y-32592555D01*
X121321232Y-32438212D01*
X121219414Y-32298072D01*
X121096928Y-32175586D01*
X120956788Y-32073768D01*
X120802445Y-31995127D01*
X120637701Y-31941598D01*
X120637699Y-31941597D01*
X120637698Y-31941597D01*
X120506271Y-31920781D01*
X120466611Y-31914500D01*
X120293389Y-31914500D01*
X120253728Y-31920781D01*
X120122302Y-31941597D01*
X119957552Y-31995128D01*
X119803211Y-32073768D01*
X119738444Y-32120825D01*
X119663072Y-32175586D01*
X119663070Y-32175588D01*
X119663069Y-32175588D01*
X119540588Y-32298069D01*
X119540588Y-32298070D01*
X119540586Y-32298072D01*
X119496859Y-32358256D01*
X119438768Y-32438211D01*
X119360128Y-32592552D01*
X119306597Y-32757302D01*
X119279500Y-32928389D01*
X118940500Y-32928389D01*
X118913402Y-32757299D01*
X118859873Y-32592555D01*
X118781232Y-32438212D01*
X118679414Y-32298072D01*
X118556928Y-32175586D01*
X118416788Y-32073768D01*
X118262445Y-31995127D01*
X118097701Y-31941598D01*
X118097699Y-31941597D01*
X118097698Y-31941597D01*
X117966271Y-31920781D01*
X117926611Y-31914500D01*
X117753389Y-31914500D01*
X117713728Y-31920781D01*
X117582302Y-31941597D01*
X117417552Y-31995128D01*
X117263211Y-32073768D01*
X117198444Y-32120825D01*
X117123072Y-32175586D01*
X117123070Y-32175588D01*
X117123069Y-32175588D01*
X117000588Y-32298069D01*
X117000588Y-32298070D01*
X117000586Y-32298072D01*
X116956859Y-32358256D01*
X116898768Y-32438211D01*
X116820128Y-32592552D01*
X116766597Y-32757302D01*
X116739500Y-32928389D01*
X116400500Y-32928389D01*
X116373402Y-32757299D01*
X116319873Y-32592555D01*
X116241232Y-32438212D01*
X116139414Y-32298072D01*
X116016928Y-32175586D01*
X115876788Y-32073768D01*
X115722445Y-31995127D01*
X115557701Y-31941598D01*
X115557699Y-31941597D01*
X115557698Y-31941597D01*
X115426271Y-31920781D01*
X115386611Y-31914500D01*
X115213389Y-31914500D01*
X115173728Y-31920781D01*
X115042302Y-31941597D01*
X114877552Y-31995128D01*
X114723211Y-32073768D01*
X114658444Y-32120825D01*
X114583072Y-32175586D01*
X114583070Y-32175588D01*
X114583069Y-32175588D01*
X114460588Y-32298069D01*
X114460588Y-32298070D01*
X114460586Y-32298072D01*
X114416859Y-32358256D01*
X114358768Y-32438211D01*
X114280128Y-32592552D01*
X114226597Y-32757302D01*
X114199500Y-32928389D01*
X75786245Y-32928389D01*
X75773402Y-32847299D01*
X75719873Y-32682555D01*
X75641232Y-32528212D01*
X75539414Y-32388072D01*
X75416928Y-32265586D01*
X75276788Y-32163768D01*
X75122445Y-32085127D01*
X74957701Y-32031598D01*
X74957699Y-32031597D01*
X74957698Y-32031597D01*
X74826271Y-32010781D01*
X74786611Y-32004500D01*
X74613389Y-32004500D01*
X74573728Y-32010781D01*
X74442302Y-32031597D01*
X74277552Y-32085128D01*
X74123211Y-32163768D01*
X74043256Y-32221859D01*
X73983072Y-32265586D01*
X73983070Y-32265588D01*
X73983069Y-32265588D01*
X73860588Y-32388069D01*
X73860588Y-32388070D01*
X73860586Y-32388072D01*
X73845234Y-32409202D01*
X73758768Y-32528211D01*
X73680128Y-32682552D01*
X73626597Y-32847302D01*
X73601819Y-33003750D01*
X73599500Y-33018389D01*
X73260500Y-33018389D01*
X73233402Y-32847299D01*
X73179873Y-32682555D01*
X73101232Y-32528212D01*
X72999414Y-32388072D01*
X72876928Y-32265586D01*
X72736788Y-32163768D01*
X72582445Y-32085127D01*
X72417701Y-32031598D01*
X72417699Y-32031597D01*
X72417698Y-32031597D01*
X72286271Y-32010781D01*
X72246611Y-32004500D01*
X72073389Y-32004500D01*
X72033728Y-32010781D01*
X71902302Y-32031597D01*
X71737552Y-32085128D01*
X71583211Y-32163768D01*
X71503256Y-32221859D01*
X71443072Y-32265586D01*
X71443070Y-32265588D01*
X71443069Y-32265588D01*
X71320588Y-32388069D01*
X71320588Y-32388070D01*
X71320586Y-32388072D01*
X71305234Y-32409202D01*
X71218768Y-32528211D01*
X71140128Y-32682552D01*
X71086597Y-32847302D01*
X71061819Y-33003750D01*
X71059500Y-33018389D01*
X70720500Y-33018389D01*
X70693402Y-32847299D01*
X70639873Y-32682555D01*
X70561232Y-32528212D01*
X70459414Y-32388072D01*
X70336928Y-32265586D01*
X70196788Y-32163768D01*
X70042445Y-32085127D01*
X69877701Y-32031598D01*
X69877699Y-32031597D01*
X69877698Y-32031597D01*
X69746271Y-32010781D01*
X69706611Y-32004500D01*
X69533389Y-32004500D01*
X69493728Y-32010781D01*
X69362302Y-32031597D01*
X69197552Y-32085128D01*
X69043211Y-32163768D01*
X68963256Y-32221859D01*
X68903072Y-32265586D01*
X68903070Y-32265588D01*
X68903069Y-32265588D01*
X68780588Y-32388069D01*
X68780588Y-32388070D01*
X68780586Y-32388072D01*
X68765234Y-32409202D01*
X68678768Y-32528211D01*
X68600128Y-32682552D01*
X68546597Y-32847302D01*
X68521819Y-33003750D01*
X68519500Y-33018389D01*
X65640500Y-33018389D01*
X65613402Y-32847299D01*
X65559873Y-32682555D01*
X65481232Y-32528212D01*
X65379414Y-32388072D01*
X65256928Y-32265586D01*
X65116788Y-32163768D01*
X64962445Y-32085127D01*
X64797701Y-32031598D01*
X64797699Y-32031597D01*
X64797698Y-32031597D01*
X64666271Y-32010781D01*
X64626611Y-32004500D01*
X64453389Y-32004500D01*
X64413728Y-32010781D01*
X64282302Y-32031597D01*
X64117552Y-32085128D01*
X63963211Y-32163768D01*
X63883256Y-32221859D01*
X63823072Y-32265586D01*
X63823070Y-32265588D01*
X63823069Y-32265588D01*
X63700588Y-32388069D01*
X63700588Y-32388070D01*
X63700586Y-32388072D01*
X63685234Y-32409202D01*
X63598768Y-32528211D01*
X63520128Y-32682552D01*
X63466597Y-32847302D01*
X63441819Y-33003750D01*
X63439500Y-33018389D01*
X63100500Y-33018389D01*
X63100500Y-32230326D01*
X63100500Y-32230323D01*
X63100499Y-32230321D01*
X63085967Y-32157264D01*
X63085966Y-32157260D01*
X63056837Y-32113665D01*
X63030601Y-32074399D01*
X62947740Y-32019034D01*
X62947739Y-32019033D01*
X62947735Y-32019032D01*
X62874677Y-32004500D01*
X62874674Y-32004500D01*
X61125326Y-32004500D01*
X61125323Y-32004500D01*
X61052264Y-32019032D01*
X61052260Y-32019033D01*
X60969399Y-32074399D01*
X60914033Y-32157260D01*
X60914032Y-32157264D01*
X60899500Y-32230321D01*
X50626575Y-32230321D01*
X50660699Y-32120812D01*
X50665997Y-32106842D01*
X50783727Y-31845258D01*
X50790680Y-31832012D01*
X50830959Y-31765381D01*
X50939075Y-31586534D01*
X50947567Y-31574230D01*
X51124481Y-31348417D01*
X51134396Y-31337226D01*
X51337226Y-31134396D01*
X51348417Y-31124481D01*
X51574230Y-30947567D01*
X51586534Y-30939075D01*
X51832012Y-30790680D01*
X51845258Y-30783727D01*
X52106842Y-30665997D01*
X52120812Y-30660699D01*
X52394668Y-30575362D01*
X52409198Y-30571780D01*
X52691344Y-30520075D01*
X52706201Y-30518271D01*
X52996264Y-30500726D01*
X53003751Y-30500500D01*
X53065892Y-30500500D01*
X136934108Y-30500500D01*
X136996249Y-30500500D01*
X137003736Y-30500726D01*
G37*
%TD.AperFunction*%
%TD*%
M02*
