M48
; DRILL file KiCad 10.0.1 date 2026-07-31T18:47:29
; FORMAT={-:-/ absolute / metric / decimal}
; #@! TF.CreationDate,2026-07-31T18:47:29+02:00
; #@! TF.GenerationSoftware,Kicad,Pcbnew,10.0.1
; #@! TF.FileFunction,Plated,1,4,PTH
FMAT,2
METRIC
; #@! TA.AperFunction,Plated,PTH,ViaDrill
T1C0.300
; #@! TA.AperFunction,Plated,PTH,ComponentDrill
T2C0.800
; #@! TA.AperFunction,Plated,PTH,ComponentDrill
T3C1.000
; #@! TA.AperFunction,Plated,PTH,ComponentDrill
T4C1.100
; #@! TA.AperFunction,Plated,PTH,ComponentDrill
T5C2.000
; #@! TA.AperFunction,Plated,PTH,ComponentDrill
T6C3.200
%
G90
G05
T1
X51.53Y-68.33
X52.0Y-79.0
X52.0Y-80.25
X52.0Y-82.79
X52.0Y-84.0
X53.75Y-86.0
X53.75Y-86.75
X54.0Y-75.0
X54.5Y-68.5
X55.0Y-74.0
X55.0Y-79.0
X55.0Y-80.25
X55.0Y-82.75
X56.5Y-84.0
X57.75Y-60.25
X57.75Y-61.0
X57.75Y-74.75
X58.0Y-67.0
X58.0Y-67.75
X58.75Y-61.75
X58.75Y-84.75
X60.25Y-85.0
X60.5Y-61.75
X60.75Y-74.75
X61.5Y-62.75
X61.5Y-65.75
X62.65Y-84.25
X63.85Y-84.25
X65.2Y-94.6
X66.0Y-94.6
X67.25Y-94.5
X67.25Y-97.0
X67.25Y-97.75
X67.75Y-96.25
X68.25Y-79.5
X68.5Y-82.462
X69.25Y-92.175
X69.25Y-92.925
X69.25Y-93.675
X69.951Y-65.951
X70.5Y-92.175
X70.5Y-93.675
X70.7Y-64.9
X71.25Y-97.0
X71.5Y-65.25
X71.75Y-92.175
X71.75Y-92.925
X71.75Y-93.675
X72.25Y-81.55
X72.4Y-63.15
X72.5Y-85.25
X72.5Y-87.5
X72.75Y-79.5
X73.4Y-91.8
X73.4Y-92.8
X73.4Y-93.8
X74.0Y-66.0
X74.204Y-62.674
X74.5Y-84.25
X75.0Y-62.75
X75.5Y-66.2
X75.5Y-69.4
X75.5Y-70.25
X75.75Y-63.15
X76.2Y-92.0
X76.25Y-61.5
X76.4Y-51.95
X76.8Y-87.3
X76.8Y-88.15
X77.0Y-61.5
X77.0Y-83.25
X77.2Y-57.05
X77.5Y-50.4
X77.518Y-52.182
X77.75Y-61.5
X77.8Y-37.4
X78.2Y-94.6
X78.5Y-51.3
X79.4Y-37.4
X79.75Y-81.55
X80.5Y-36.3
X80.5Y-70.9
X80.5Y-72.4
X80.95Y-46.05
X80.95Y-47.05
X81.232Y-79.532
X82.0Y-76.75
X82.25Y-44.5
X82.25Y-45.7
X83.1Y-36.2
X83.1Y-39.6
X83.2Y-95.5
X83.3Y-33.7
X83.5Y-58.25
X84.2Y-95.5
X84.3Y-68.9
X84.3Y-69.7
X85.2Y-95.5
X85.25Y-60.5
X85.3Y-36.2
X85.3Y-39.6
X85.402Y-75.362
X86.5Y-53.4
X86.5Y-57.35
X86.5Y-81.25
X87.25Y-53.4
X87.9Y-36.2
X87.9Y-39.6
X88.2Y-33.7
X88.25Y-45.05
X88.25Y-45.8
X88.25Y-46.55
X88.25Y-48.55
X88.25Y-49.3
X88.25Y-83.75
X88.75Y-68.0
X88.75Y-70.0
X89.0Y-83.75
X89.0Y-96.0
X89.0Y-97.25
X89.163Y-72.238
X89.5Y-50.05
X89.5Y-50.8
X90.0Y-84.75
X90.0Y-85.5
X90.1Y-36.2
X90.25Y-51.55
X90.3Y-39.6
X90.5Y-49.3
X90.5Y-88.5
X90.5Y-89.25
X90.5Y-90.0
X90.75Y-47.8
X90.925Y-64.0
X90.997Y-59.741
X91.0Y-51.55
X91.0Y-90.75
X91.0Y-91.5
X91.25Y-60.5
X91.25Y-72.25
X91.25Y-73.25
X91.326Y-43.609
X91.525Y-65.0
X91.67Y-41.0
X91.8Y-77.4
X92.0Y-66.4
X92.0Y-87.5
X92.15Y-54.6
X92.2Y-43.6
X92.25Y-61.5
X92.25Y-73.25
X92.3Y-75.6
X92.45Y-44.4
X92.5Y-95.25
X92.5Y-96.0
X92.6Y-51.4
X92.75Y-66.0
X92.816Y-73.816
X92.87Y-42.0
X93.0Y-50.05
X93.0Y-58.25
X93.25Y-60.0
X93.3Y-35.0
X93.75Y-92.0
X93.893Y-53.763
X94.018Y-80.537
X94.1Y-66.1
X94.15Y-74.5
X94.15Y-78.701
X94.2Y-41.6
X94.27Y-42.6
X94.513Y-70.987
X94.65Y-54.023
X94.75Y-58.75
X94.75Y-64.0
X95.0Y-92.0
X95.078Y-71.553
X95.25Y-94.75
X95.47Y-42.0
X95.47Y-43.666
X95.65Y-91.5
X95.7Y-42.9
X95.75Y-72.0
X95.8Y-35.0
X96.05Y-90.0
X96.1Y-44.3
X96.2Y-40.6
X96.475Y-71.025
X96.5Y-75.75
X96.52Y-52.422
X96.65Y-90.75
X96.75Y-63.25
X96.75Y-65.25
X97.086Y-52.988
X97.25Y-89.0
X97.4Y-35.0
X97.4Y-37.7
X97.5Y-44.3
X97.5Y-73.25
X97.531Y-50.65
X97.6Y-40.5
X97.75Y-87.0
X98.0Y-61.35
X98.0Y-76.5
X98.0Y-79.75
X98.1Y-35.0
X98.1Y-37.7
X98.25Y-44.3
X98.25Y-88.75
X98.5Y-87.0
X98.65Y-69.8
X98.75Y-65.25
X98.75Y-79.75
X98.8Y-61.9
X98.8Y-62.6
X99.0Y-36.7
X99.0Y-37.8
X99.0Y-38.8
X99.0Y-44.3
X99.231Y-87.0
X99.25Y-45.05
X99.25Y-75.25
X99.4Y-61.9
X99.4Y-62.6
X99.5Y-48.4
X99.5Y-49.6
X99.5Y-51.283
X99.5Y-79.75
X99.8Y-43.0
X100.0Y-93.8
X100.1Y-52.0
X100.25Y-45.05
X100.25Y-79.75
X100.25Y-80.5
X100.6Y-57.9
X100.8Y-69.4
X101.0Y-33.8
X101.419Y-76.535
X101.6Y-96.2
X101.6Y-97.05
X101.65Y-67.5
X101.75Y-45.3
X101.75Y-46.05
X101.75Y-46.8
X101.75Y-52.3
X101.8Y-33.8
X101.85Y-93.5
X102.2Y-48.55
X102.6Y-93.5
X102.7Y-41.3
X103.2Y-53.4
X103.6Y-49.8
X103.6Y-93.3
X103.7Y-61.0
X103.9Y-37.0
X104.0Y-65.2
X104.3Y-61.0
X104.9Y-61.0
X105.1Y-34.0
X105.5Y-61.0
X105.8Y-91.9
X105.85Y-92.75
X106.1Y-61.0
X106.3Y-37.0
X106.35Y-90.8
X106.7Y-61.0
X106.8Y-76.6
X107.0Y-90.8
X107.35Y-93.25
X107.35Y-94.0
X107.5Y-41.3
X107.6Y-95.25
X107.6Y-96.0
X107.7Y-45.2
X107.7Y-46.4
X107.8Y-81.2
X107.8Y-82.0
X107.8Y-82.8
X107.8Y-83.6
X107.8Y-84.4
X107.8Y-85.2
X108.3Y-34.0
X108.7Y-37.0
X109.0Y-66.0
X109.0Y-66.75
X109.0Y-68.25
X109.0Y-69.0
X109.0Y-69.75
X109.2Y-89.4
X110.0Y-89.4
X110.239Y-59.4
X111.2Y-37.0
X111.2Y-91.2
X111.2Y-93.2
X111.8Y-38.0
X112.0Y-91.2
X112.2Y-70.2
X112.8Y-38.0
X112.8Y-83.4
X112.8Y-84.2
X112.8Y-85.0
X112.8Y-85.8
X113.25Y-94.535
X113.25Y-95.285
X113.539Y-57.75
X113.539Y-58.7
X113.539Y-59.5
X113.539Y-60.4
X113.539Y-61.25
X114.136Y-78.87
X114.2Y-86.8
X114.2Y-87.6
X114.2Y-89.4
X114.4Y-81.8
X114.5Y-74.75
X114.704Y-79.434
X115.0Y-89.8
X115.1Y-50.1
X115.2Y-81.8
X115.379Y-69.321
X115.6Y-64.4
X115.85Y-57.15
X116.327Y-49.488
X116.6Y-57.15
X116.6Y-63.0
X116.8Y-88.0
X117.3Y-47.35
X117.35Y-57.15
X117.5Y-48.5
X117.55Y-66.25
X117.55Y-66.95
X117.55Y-67.65
X117.688Y-74.85
X118.1Y-57.15
X118.25Y-78.75
X118.438Y-74.85
X118.799Y-79.451
X118.85Y-57.15
X119.188Y-73.35
X119.188Y-74.1
X119.188Y-74.85
X119.4Y-68.8
X119.5Y-64.0
X119.5Y-64.75
X119.5Y-65.5
X119.6Y-57.15
X120.0Y-61.25
X120.4Y-64.6
X121.2Y-70.6
X122.16Y-74.41
X122.6Y-67.8
X122.6Y-69.8
X122.8Y-88.0
X122.8Y-89.4
X122.91Y-74.41
X123.0Y-63.25
X123.0Y-90.2
X123.3Y-67.8
X123.66Y-74.41
X123.85Y-57.9
X124.41Y-74.41
X124.6Y-57.9
X125.16Y-74.41
X125.35Y-57.9
X125.6Y-58.65
X125.6Y-59.4
X125.91Y-74.41
X126.75Y-81.75
X126.75Y-82.75
X126.8Y-97.55
X127.2Y-42.2
X127.2Y-43.0
X127.5Y-83.5
X127.5Y-97.55
X128.0Y-61.95
X128.0Y-66.4
X128.0Y-80.5
X128.25Y-83.5
X128.6Y-64.4
X129.0Y-37.4
X129.5Y-78.0
X129.55Y-81.5
X129.6Y-42.6
X129.6Y-43.4
X130.0Y-64.4
X130.0Y-66.4
X130.75Y-88.5
X130.75Y-89.25
X131.0Y-80.5
X131.0Y-85.5
X131.0Y-86.25
X131.25Y-88.0
X131.476Y-42.876
X131.6Y-55.4
X131.6Y-71.2
X131.75Y-86.25
X132.0Y-88.0
X132.2Y-37.4
X132.5Y-86.25
X132.6Y-59.6
X132.6Y-71.2
X132.75Y-87.75
X133.4Y-59.4
X133.6Y-51.0
X133.6Y-52.6
X133.6Y-54.2
X134.0Y-62.2
X134.0Y-63.0
X134.2Y-42.4
X134.6Y-52.2
X134.6Y-55.2
X134.8Y-63.8
X134.8Y-64.6
X135.4Y-52.2
X135.4Y-55.2
X136.4Y-44.4
X137.0Y-46.4
X137.0Y-65.2
X137.25Y-78.75
X137.25Y-79.5
X137.25Y-80.25
X137.25Y-81.0
X137.4Y-41.0
X137.4Y-41.8
X137.4Y-42.6
X137.4Y-66.2
T2
X61.7Y-93.25
X61.7Y-95.25
X61.7Y-97.25
X137.35Y-73.65
X137.35Y-75.65
T3
X62.0Y-33.105
X64.54Y-33.105
X67.08Y-33.105
X69.62Y-33.105
X72.16Y-33.105
X74.7Y-33.105
X115.3Y-33.015
X117.84Y-33.015
X120.38Y-33.015
X122.92Y-33.015
X125.46Y-33.015
X128.0Y-33.015
T4
X65.0Y-44.0
X65.0Y-49.0
X79.5Y-44.0
X79.5Y-46.5
X79.5Y-49.0
X110.5Y-44.0
X110.5Y-46.5
X110.5Y-49.0
X125.0Y-44.0
X125.0Y-49.0
T6
X54.0Y-34.0
X54.0Y-96.0
X136.0Y-34.0
X136.0Y-96.0
T5
G00X72.5Y-40.7
M15
G01X71.5Y-40.7
M16
G05
G00X72.5Y-52.3
M15
G01X71.5Y-52.3
M16
G05
G00X117.5Y-40.7
M15
G01X118.5Y-40.7
M16
G05
G00X117.5Y-52.3
M15
G01X118.5Y-52.3
M16
G05
M30
