%TF.GenerationSoftware,KiCad,Pcbnew,10.0.1*%
%TF.CreationDate,2026-07-31T18:47:37+02:00*%
%TF.ProjectId,Levelmeter,4c657665-6c6d-4657-9465-722e6b696361,rev?*%
%TF.SameCoordinates,Original*%
%TF.FileFunction,Soldermask,Bot*%
%TF.FilePolarity,Negative*%
%FSLAX46Y46*%
G04 Gerber Fmt 4.6, Leading zero omitted, Abs format (unit mm)*
G04 Created by KiCad (PCBNEW 10.0.1) date 2026-07-31 18:47:37*
%MOMM*%
%LPD*%
G01*
G04 APERTURE LIST*
G04 Aperture macros list*
%AMFreePoly0*
4,1,5,1.500000,-2.000000,-1.500000,-2.000000,-1.500000,2.000000,1.500000,2.000000,1.500000,-2.000000,1.500000,-2.000000,$1*%
G04 Aperture macros list end*
%ADD10R,1.500000X1.500000*%
%ADD11C,1.500000*%
%ADD12R,1.700000X1.700000*%
%ADD13C,1.700000*%
%ADD14C,3.600000*%
%ADD15C,5.600000*%
%ADD16R,0.300000X1.308000*%
%ADD17R,1.800000X2.300000*%
%ADD18FreePoly0,90.000000*%
%ADD19FreePoly0,270.000000*%
G04 APERTURE END LIST*
D10*
%TO.C,J1*%
X137350000Y-73650000D03*
D11*
X137350000Y-75650000D03*
%TD*%
D12*
%TO.C,J5*%
X62000000Y-33105000D03*
D13*
X64540000Y-33105000D03*
X67080000Y-33105000D03*
X69620000Y-33105000D03*
X72160000Y-33105000D03*
X74700000Y-33105000D03*
%TD*%
D12*
%TO.C,J6*%
X128000000Y-33015000D03*
D13*
X125460000Y-33015000D03*
X122920000Y-33015000D03*
X120380000Y-33015000D03*
X117840000Y-33015000D03*
X115300000Y-33015000D03*
%TD*%
D10*
%TO.C,J4*%
X61700000Y-97250000D03*
D11*
X61700000Y-95250000D03*
X61700000Y-93250000D03*
%TD*%
D14*
%TO.C,H2*%
X54000000Y-34000000D03*
D15*
X54000000Y-34000000D03*
%TD*%
D14*
%TO.C,H3*%
X136000000Y-34000000D03*
D15*
X136000000Y-34000000D03*
%TD*%
D14*
%TO.C,H4*%
X54000000Y-96000000D03*
D15*
X54000000Y-96000000D03*
%TD*%
D14*
%TO.C,H1*%
X136000000Y-96000000D03*
D15*
X136000000Y-96000000D03*
%TD*%
D16*
%TO.C,DS1*%
X97250000Y-93370000D03*
X96750000Y-93370000D03*
X96250000Y-93370000D03*
X95750000Y-93370000D03*
X95250000Y-93370000D03*
X94750000Y-93370000D03*
X94250000Y-93370000D03*
X93750000Y-93370000D03*
X93250000Y-93370000D03*
X92750000Y-93370000D03*
D17*
X90450000Y-96630000D03*
X99550000Y-96630000D03*
%TD*%
D13*
%TO.C,SW1*%
X110500000Y-49000000D03*
D12*
X110500000Y-46500000D03*
D13*
X110500000Y-44000000D03*
X125000000Y-49000000D03*
X125000000Y-44000000D03*
D18*
X118000000Y-52300000D03*
X118000000Y-40700000D03*
%TD*%
D13*
%TO.C,SW2*%
X79500000Y-44000000D03*
D12*
X79500000Y-46500000D03*
D13*
X79500000Y-49000000D03*
X65000000Y-44000000D03*
X65000000Y-49000000D03*
D19*
X72000000Y-40700000D03*
X72000000Y-52300000D03*
%TD*%
M02*
