%TF.GenerationSoftware,KiCad,Pcbnew,10.0.1*%
%TF.CreationDate,2026-07-31T18:47:37+02:00*%
%TF.ProjectId,Levelmeter,4c657665-6c6d-4657-9465-722e6b696361,rev?*%
%TF.SameCoordinates,Original*%
%TF.FileFunction,Legend,Bot*%
%TF.FilePolarity,Positive*%
%FSLAX46Y46*%
G04 Gerber Fmt 4.6, Leading zero omitted, Abs format (unit mm)*
G04 Created by KiCad (PCBNEW 10.0.1) date 2026-07-31 18:47:37*
%MOMM*%
%LPD*%
G01*
G04 APERTURE LIST*
%ADD10C,0.150000*%
%ADD11C,0.250000*%
%ADD12C,0.060000*%
%ADD13C,0.000000*%
%ADD14C,0.100000*%
G04 APERTURE END LIST*
D10*
X96214285Y-89828819D02*
X96214285Y-88828819D01*
X96214285Y-88828819D02*
X95976190Y-88828819D01*
X95976190Y-88828819D02*
X95833333Y-88876438D01*
X95833333Y-88876438D02*
X95738095Y-88971676D01*
X95738095Y-88971676D02*
X95690476Y-89066914D01*
X95690476Y-89066914D02*
X95642857Y-89257390D01*
X95642857Y-89257390D02*
X95642857Y-89400247D01*
X95642857Y-89400247D02*
X95690476Y-89590723D01*
X95690476Y-89590723D02*
X95738095Y-89685961D01*
X95738095Y-89685961D02*
X95833333Y-89781200D01*
X95833333Y-89781200D02*
X95976190Y-89828819D01*
X95976190Y-89828819D02*
X96214285Y-89828819D01*
X95261904Y-89781200D02*
X95119047Y-89828819D01*
X95119047Y-89828819D02*
X94880952Y-89828819D01*
X94880952Y-89828819D02*
X94785714Y-89781200D01*
X94785714Y-89781200D02*
X94738095Y-89733580D01*
X94738095Y-89733580D02*
X94690476Y-89638342D01*
X94690476Y-89638342D02*
X94690476Y-89543104D01*
X94690476Y-89543104D02*
X94738095Y-89447866D01*
X94738095Y-89447866D02*
X94785714Y-89400247D01*
X94785714Y-89400247D02*
X94880952Y-89352628D01*
X94880952Y-89352628D02*
X95071428Y-89305009D01*
X95071428Y-89305009D02*
X95166666Y-89257390D01*
X95166666Y-89257390D02*
X95214285Y-89209771D01*
X95214285Y-89209771D02*
X95261904Y-89114533D01*
X95261904Y-89114533D02*
X95261904Y-89019295D01*
X95261904Y-89019295D02*
X95214285Y-88924057D01*
X95214285Y-88924057D02*
X95166666Y-88876438D01*
X95166666Y-88876438D02*
X95071428Y-88828819D01*
X95071428Y-88828819D02*
X94833333Y-88828819D01*
X94833333Y-88828819D02*
X94690476Y-88876438D01*
X93738095Y-89828819D02*
X94309523Y-89828819D01*
X94023809Y-89828819D02*
X94023809Y-88828819D01*
X94023809Y-88828819D02*
X94119047Y-88971676D01*
X94119047Y-88971676D02*
X94214285Y-89066914D01*
X94214285Y-89066914D02*
X94309523Y-89114533D01*
X126657200Y-45166667D02*
X126704819Y-45309524D01*
X126704819Y-45309524D02*
X126704819Y-45547619D01*
X126704819Y-45547619D02*
X126657200Y-45642857D01*
X126657200Y-45642857D02*
X126609580Y-45690476D01*
X126609580Y-45690476D02*
X126514342Y-45738095D01*
X126514342Y-45738095D02*
X126419104Y-45738095D01*
X126419104Y-45738095D02*
X126323866Y-45690476D01*
X126323866Y-45690476D02*
X126276247Y-45642857D01*
X126276247Y-45642857D02*
X126228628Y-45547619D01*
X126228628Y-45547619D02*
X126181009Y-45357143D01*
X126181009Y-45357143D02*
X126133390Y-45261905D01*
X126133390Y-45261905D02*
X126085771Y-45214286D01*
X126085771Y-45214286D02*
X125990533Y-45166667D01*
X125990533Y-45166667D02*
X125895295Y-45166667D01*
X125895295Y-45166667D02*
X125800057Y-45214286D01*
X125800057Y-45214286D02*
X125752438Y-45261905D01*
X125752438Y-45261905D02*
X125704819Y-45357143D01*
X125704819Y-45357143D02*
X125704819Y-45595238D01*
X125704819Y-45595238D02*
X125752438Y-45738095D01*
X125704819Y-46071429D02*
X126704819Y-46309524D01*
X126704819Y-46309524D02*
X125990533Y-46500000D01*
X125990533Y-46500000D02*
X126704819Y-46690476D01*
X126704819Y-46690476D02*
X125704819Y-46928572D01*
X126704819Y-47833333D02*
X126704819Y-47261905D01*
X126704819Y-47547619D02*
X125704819Y-47547619D01*
X125704819Y-47547619D02*
X125847676Y-47452381D01*
X125847676Y-47452381D02*
X125942914Y-47357143D01*
X125942914Y-47357143D02*
X125990533Y-47261905D01*
X63907200Y-45166667D02*
X63954819Y-45309524D01*
X63954819Y-45309524D02*
X63954819Y-45547619D01*
X63954819Y-45547619D02*
X63907200Y-45642857D01*
X63907200Y-45642857D02*
X63859580Y-45690476D01*
X63859580Y-45690476D02*
X63764342Y-45738095D01*
X63764342Y-45738095D02*
X63669104Y-45738095D01*
X63669104Y-45738095D02*
X63573866Y-45690476D01*
X63573866Y-45690476D02*
X63526247Y-45642857D01*
X63526247Y-45642857D02*
X63478628Y-45547619D01*
X63478628Y-45547619D02*
X63431009Y-45357143D01*
X63431009Y-45357143D02*
X63383390Y-45261905D01*
X63383390Y-45261905D02*
X63335771Y-45214286D01*
X63335771Y-45214286D02*
X63240533Y-45166667D01*
X63240533Y-45166667D02*
X63145295Y-45166667D01*
X63145295Y-45166667D02*
X63050057Y-45214286D01*
X63050057Y-45214286D02*
X63002438Y-45261905D01*
X63002438Y-45261905D02*
X62954819Y-45357143D01*
X62954819Y-45357143D02*
X62954819Y-45595238D01*
X62954819Y-45595238D02*
X63002438Y-45738095D01*
X62954819Y-46071429D02*
X63954819Y-46309524D01*
X63954819Y-46309524D02*
X63240533Y-46500000D01*
X63240533Y-46500000D02*
X63954819Y-46690476D01*
X63954819Y-46690476D02*
X62954819Y-46928572D01*
X63050057Y-47261905D02*
X63002438Y-47309524D01*
X63002438Y-47309524D02*
X62954819Y-47404762D01*
X62954819Y-47404762D02*
X62954819Y-47642857D01*
X62954819Y-47642857D02*
X63002438Y-47738095D01*
X63002438Y-47738095D02*
X63050057Y-47785714D01*
X63050057Y-47785714D02*
X63145295Y-47833333D01*
X63145295Y-47833333D02*
X63240533Y-47833333D01*
X63240533Y-47833333D02*
X63383390Y-47785714D01*
X63383390Y-47785714D02*
X63954819Y-47214286D01*
X63954819Y-47214286D02*
X63954819Y-47833333D01*
%TO.C,DS1*%
D11*
X126500000Y-98000000D02*
X126500000Y-55000000D01*
X99040000Y-94020000D02*
X97790000Y-94020000D01*
X99040000Y-95120000D02*
X99040000Y-94020000D01*
X99040000Y-95240000D02*
X99040000Y-95120000D01*
X99040000Y-99630000D02*
X99040000Y-98010000D01*
X99040000Y-99630000D02*
X90960000Y-99630000D01*
X97640000Y-94020000D02*
X97790000Y-94020000D01*
X90960000Y-94020000D02*
X92360000Y-94020000D01*
X90960000Y-95280000D02*
X90960000Y-94020000D01*
X90960000Y-99630000D02*
X90960000Y-97970000D01*
X63500000Y-55000000D02*
X126500000Y-55000000D01*
X63500000Y-55000000D02*
X63500000Y-98000000D01*
X63500000Y-98000000D02*
X126500000Y-98000000D01*
D12*
X99580000Y-93220000D02*
G75*
G02*
X99520000Y-93220000I-30000J0D01*
G01*
X99520000Y-93220000D02*
G75*
G02*
X99580000Y-93220000I30000J0D01*
G01*
D11*
X99250000Y-93250000D02*
G75*
G02*
X98750000Y-93250000I-250000J0D01*
G01*
X98750000Y-93250000D02*
G75*
G02*
X99250000Y-93250000I250000J0D01*
G01*
D13*
G36*
X97798724Y-99250334D02*
G01*
X96823720Y-99250309D01*
X97298725Y-98050337D01*
X97798724Y-99250334D01*
G37*
%TO.C,SW1*%
D14*
X125000000Y-53000000D02*
X125000000Y-50000000D01*
X120250000Y-53000000D02*
X125000000Y-53000000D01*
X111000000Y-53000000D02*
X115750000Y-53000000D01*
X111000000Y-50000000D02*
X111000000Y-53000000D01*
X111000000Y-47500000D02*
X111000000Y-48000000D01*
X125000000Y-45000000D02*
X125000000Y-48000000D01*
X111000000Y-45000000D02*
X111000000Y-45500000D01*
X125000000Y-43000000D02*
X125000000Y-40000000D01*
X125000000Y-40000000D02*
X120250000Y-40000000D01*
X115750000Y-40000000D02*
X111000000Y-40000000D01*
X111000000Y-40000000D02*
X111000000Y-43000000D01*
%TO.C,SW2*%
X65000000Y-40000000D02*
X65000000Y-43000000D01*
X69750000Y-40000000D02*
X65000000Y-40000000D01*
X79000000Y-40000000D02*
X74250000Y-40000000D01*
X79000000Y-43000000D02*
X79000000Y-40000000D01*
X79000000Y-45500000D02*
X79000000Y-45000000D01*
X65000000Y-48000000D02*
X65000000Y-45000000D01*
X79000000Y-48000000D02*
X79000000Y-47500000D01*
X65000000Y-50000000D02*
X65000000Y-53000000D01*
X65000000Y-53000000D02*
X69750000Y-53000000D01*
X74250000Y-53000000D02*
X79000000Y-53000000D01*
X79000000Y-53000000D02*
X79000000Y-50000000D01*
%TD*%
M02*
