%TF.GenerationSoftware,KiCad,Pcbnew,10.0.5*%
%TF.CreationDate,2026-08-10T22:55:46+02:00*%
%TF.ProjectId,Leveltronic,4c657665-6c74-4726-9f6e-69632e6b6963,rev?*%
%TF.SameCoordinates,Original*%
%TF.FileFunction,Copper,L2,Bot*%
%TF.FilePolarity,Positive*%
%FSLAX46Y46*%
G04 Gerber Fmt 4.6, Leading zero omitted, Abs format (unit mm)*
G04 Created by KiCad (PCBNEW 10.0.5) date 2026-08-10 22:55:46*
%MOMM*%
%LPD*%
G01*
G04 APERTURE LIST*
%TA.AperFunction,ComponentPad*%
%ADD10R,1.440000X1.440000*%
%TD*%
%TA.AperFunction,ComponentPad*%
%ADD11C,1.440000*%
%TD*%
%TA.AperFunction,ComponentPad*%
%ADD12R,1.000000X1.000000*%
%TD*%
%TA.AperFunction,ComponentPad*%
%ADD13C,1.000000*%
%TD*%
%TA.AperFunction,ComponentPad*%
%ADD14C,3.600000*%
%TD*%
%TA.AperFunction,ConnectorPad*%
%ADD15C,5.600000*%
%TD*%
%TA.AperFunction,ComponentPad*%
%ADD16R,1.700000X1.700000*%
%TD*%
%TA.AperFunction,ComponentPad*%
%ADD17C,1.700000*%
%TD*%
%TA.AperFunction,ViaPad*%
%ADD18C,0.600000*%
%TD*%
%TA.AperFunction,Conductor*%
%ADD19C,0.200000*%
%TD*%
G04 APERTURE END LIST*
D10*
%TO.P,RV2,1,CCW_1*%
%TO.N,Net-(RV2-CCW)*%
X80450000Y-42000000D03*
D11*
%TO.P,RV2,2,Wiper_2*%
%TO.N,Net-(RV2-Wiper)*%
X82990000Y-42000000D03*
%TO.P,RV2,3,CW_3*%
%TO.N,Net-(RV2-CW)*%
X85530000Y-42000000D03*
%TD*%
D12*
%TO.P,J4,01,1_01*%
%TO.N,GND*%
X72000000Y-63560000D03*
D13*
%TO.P,J4,02,2_02*%
%TO.N,ExciterB*%
X72000000Y-64840000D03*
%TD*%
D14*
%TO.P,H3,1,1_1*%
%TO.N,GND*%
X92000000Y-38000000D03*
D15*
X92000000Y-38000000D03*
%TD*%
D14*
%TO.P,H2,1,1_1*%
%TO.N,GND*%
X41000000Y-68000000D03*
D15*
X41000000Y-68000000D03*
%TD*%
D10*
%TO.P,RV1,1,CCW_1*%
%TO.N,Net-(RV1-CCW)*%
X80450000Y-65200000D03*
D11*
%TO.P,RV1,2,Wiper_2*%
%TO.N,Net-(RV1-Wiper)*%
X82990000Y-65200000D03*
%TO.P,RV1,3,CW_3*%
%TO.N,Net-(RV1-CW)*%
X85530000Y-65200000D03*
%TD*%
D14*
%TO.P,H4,1,1_1*%
%TO.N,GND*%
X92000000Y-68000000D03*
D15*
X92000000Y-68000000D03*
%TD*%
D16*
%TO.P,J5,1,1_1*%
%TO.N,GND*%
X78075000Y-47475000D03*
D17*
%TO.P,J5,2,2_2*%
%TO.N,Net-(U4-OUT)*%
X80615000Y-47475000D03*
%TD*%
D12*
%TO.P,J6,01,1_01*%
%TO.N,PendulumShield*%
X77760000Y-55000000D03*
D13*
%TO.P,J6,02,2_02*%
%TO.N,Pendulum*%
X79040000Y-55000000D03*
%TD*%
D14*
%TO.P,H1,1,1_1*%
%TO.N,GND*%
X41000000Y-38000000D03*
D15*
X41000000Y-38000000D03*
%TD*%
D12*
%TO.P,J3,01,1_01*%
%TO.N,GND*%
X69200000Y-63560000D03*
D13*
%TO.P,J3,02,2_02*%
%TO.N,ExciterA*%
X69200000Y-64840000D03*
%TD*%
D16*
%TO.P,J1,1,1_1*%
%TO.N,GND*%
X44145000Y-46650000D03*
D17*
%TO.P,J1,2,2_2*%
%TO.N,5V0*%
X44145000Y-49190000D03*
%TO.P,J1,3,3_3*%
%TO.N,-5V0*%
X44145000Y-51730000D03*
%TO.P,J1,4,4_4*%
%TO.N,ExciterA*%
X44145000Y-54270000D03*
%TO.P,J1,5,5_5*%
%TO.N,ExciterB*%
X44145000Y-56810000D03*
%TO.P,J1,6,6_6*%
%TO.N,Output*%
X44145000Y-59350000D03*
%TD*%
D16*
%TO.P,J2,1,1_1*%
%TO.N,GND*%
X71515000Y-51655000D03*
D17*
%TO.P,J2,2,2_2*%
%TO.N,PendulumShield*%
X74055000Y-51655000D03*
%TO.P,J2,3,3_3*%
%TO.N,Pendulum*%
X76595000Y-51655000D03*
%TD*%
D18*
%TO.N,GND*%
X66000000Y-57600000D03*
X68775000Y-51710000D03*
X54800000Y-64400000D03*
X73000000Y-48600000D03*
X73400000Y-39400000D03*
X67600000Y-63400000D03*
X64375000Y-52310000D03*
X67600000Y-58400000D03*
X80600000Y-51410000D03*
X57800000Y-48400000D03*
X55850000Y-61000000D03*
X62000000Y-56600000D03*
X85800000Y-56400000D03*
X59000000Y-58600000D03*
X65575000Y-52310000D03*
X68800000Y-50600000D03*
X88400000Y-52400000D03*
X90000000Y-48200000D03*
X68850000Y-52660000D03*
X56000000Y-46000000D03*
X79400000Y-57000000D03*
X72000000Y-40200000D03*
X90400000Y-52400000D03*
X77000000Y-57000000D03*
X68600000Y-60200000D03*
X82400000Y-53200000D03*
X61600000Y-51800000D03*
X85000000Y-56400000D03*
X55800000Y-58200000D03*
X73000000Y-46200000D03*
X89400000Y-52400000D03*
X90000000Y-46600000D03*
X56800000Y-48800000D03*
X73000000Y-47800000D03*
X80800000Y-53200000D03*
X65450000Y-60860000D03*
X58000000Y-58600000D03*
X61600000Y-58000000D03*
X87400000Y-52400000D03*
X90000000Y-47400000D03*
X77800000Y-57000000D03*
X66000000Y-58400000D03*
X56800000Y-46000000D03*
X68600000Y-59260000D03*
X73000000Y-47000000D03*
X87800000Y-56400000D03*
X64600000Y-60860000D03*
X56800000Y-61000000D03*
X72000000Y-37800000D03*
X72000000Y-39400000D03*
X81600000Y-53200000D03*
X76200000Y-57000000D03*
X58600000Y-47600000D03*
X78600000Y-57000000D03*
X72000000Y-38600000D03*
X61800000Y-55400000D03*
X58600000Y-48400000D03*
X59400000Y-56800000D03*
X56600000Y-58200000D03*
X80000000Y-53200000D03*
X73400000Y-40200000D03*
X87000000Y-56400000D03*
X56000000Y-48800000D03*
X60400000Y-48800000D03*
X66800000Y-58400000D03*
%TO.N,1V8*%
X68800000Y-43200000D03*
X68824265Y-47624265D03*
%TD*%
%TO.N,1V8*%
D19*
X68824265Y-47624265D02*
X68824265Y-43224265D01*
X68824265Y-43224265D02*
X68800000Y-43200000D01*
%TD*%
%TA.AperFunction,Conductor*%
%TO.N,GND*%
G36*
X92808363Y-35520185D02*
G01*
X92829005Y-35536819D01*
X94463181Y-37170995D01*
X94496666Y-37232318D01*
X94499500Y-37258676D01*
X94499500Y-68741324D01*
X94479815Y-68808363D01*
X94463181Y-68829005D01*
X92829005Y-70463181D01*
X92767682Y-70496666D01*
X92741324Y-70499500D01*
X40258676Y-70499500D01*
X40191637Y-70479815D01*
X40170995Y-70463181D01*
X38536819Y-68829005D01*
X38503334Y-68767682D01*
X38500500Y-68741324D01*
X38500500Y-64938543D01*
X68199499Y-64938543D01*
X68237947Y-65131829D01*
X68237950Y-65131839D01*
X68313364Y-65313907D01*
X68313371Y-65313920D01*
X68422860Y-65477781D01*
X68422863Y-65477785D01*
X68562214Y-65617136D01*
X68562218Y-65617139D01*
X68726079Y-65726628D01*
X68726092Y-65726635D01*
X68908160Y-65802049D01*
X68908165Y-65802051D01*
X68908169Y-65802051D01*
X68908170Y-65802052D01*
X69101456Y-65840500D01*
X69101459Y-65840500D01*
X69298543Y-65840500D01*
X69428582Y-65814632D01*
X69491835Y-65802051D01*
X69673914Y-65726632D01*
X69837782Y-65617139D01*
X69977139Y-65477782D01*
X70086632Y-65313914D01*
X70162051Y-65131835D01*
X70200500Y-64938543D01*
X70999499Y-64938543D01*
X71037947Y-65131829D01*
X71037950Y-65131839D01*
X71113364Y-65313907D01*
X71113371Y-65313920D01*
X71222860Y-65477781D01*
X71222863Y-65477785D01*
X71362214Y-65617136D01*
X71362218Y-65617139D01*
X71526079Y-65726628D01*
X71526092Y-65726635D01*
X71708160Y-65802049D01*
X71708165Y-65802051D01*
X71708169Y-65802051D01*
X71708170Y-65802052D01*
X71901456Y-65840500D01*
X71901459Y-65840500D01*
X72098543Y-65840500D01*
X72228582Y-65814632D01*
X72291835Y-65802051D01*
X72473914Y-65726632D01*
X72637782Y-65617139D01*
X72777139Y-65477782D01*
X72886632Y-65313914D01*
X72962051Y-65131835D01*
X73000500Y-64938541D01*
X73000500Y-64741459D01*
X73000500Y-64741456D01*
X72962052Y-64548170D01*
X72962051Y-64548169D01*
X72962051Y-64548165D01*
X72962049Y-64548160D01*
X72932267Y-64476258D01*
X72913991Y-64432135D01*
X79229500Y-64432135D01*
X79229500Y-65967870D01*
X79229501Y-65967876D01*
X79235908Y-66027483D01*
X79286202Y-66162328D01*
X79286206Y-66162335D01*
X79372452Y-66277544D01*
X79372455Y-66277547D01*
X79487664Y-66363793D01*
X79487671Y-66363797D01*
X79622517Y-66414091D01*
X79622516Y-66414091D01*
X79629444Y-66414835D01*
X79682127Y-66420500D01*
X81217872Y-66420499D01*
X81277483Y-66414091D01*
X81412331Y-66363796D01*
X81527546Y-66277546D01*
X81613796Y-66162331D01*
X81664091Y-66027483D01*
X81670500Y-65967873D01*
X81670499Y-65815211D01*
X81690183Y-65748175D01*
X81742987Y-65702420D01*
X81812145Y-65692476D01*
X81875701Y-65721501D01*
X81904983Y-65758918D01*
X81946133Y-65839679D01*
X81946730Y-65840500D01*
X82059055Y-65995102D01*
X82194898Y-66130945D01*
X82350319Y-66243865D01*
X82521491Y-66331082D01*
X82521493Y-66331083D01*
X82612845Y-66360764D01*
X82704199Y-66390447D01*
X82893945Y-66420500D01*
X82893946Y-66420500D01*
X83086054Y-66420500D01*
X83086055Y-66420500D01*
X83275801Y-66390447D01*
X83458509Y-66331082D01*
X83629681Y-66243865D01*
X83785102Y-66130945D01*
X83920945Y-65995102D01*
X84033865Y-65839681D01*
X84121082Y-65668509D01*
X84121084Y-65668504D01*
X84142069Y-65603919D01*
X84181506Y-65546243D01*
X84245864Y-65519044D01*
X84314711Y-65530958D01*
X84366187Y-65578202D01*
X84377931Y-65603919D01*
X84398915Y-65668504D01*
X84425919Y-65721501D01*
X84486135Y-65839681D01*
X84599055Y-65995102D01*
X84734898Y-66130945D01*
X84890319Y-66243865D01*
X85061491Y-66331082D01*
X85061493Y-66331083D01*
X85152845Y-66360764D01*
X85244199Y-66390447D01*
X85433945Y-66420500D01*
X85433946Y-66420500D01*
X85626054Y-66420500D01*
X85626055Y-66420500D01*
X85815801Y-66390447D01*
X85998509Y-66331082D01*
X86169681Y-66243865D01*
X86325102Y-66130945D01*
X86460945Y-65995102D01*
X86573865Y-65839681D01*
X86661082Y-65668509D01*
X86720447Y-65485801D01*
X86750500Y-65296055D01*
X86750500Y-65103945D01*
X86720447Y-64914199D01*
X86690424Y-64821797D01*
X86661083Y-64731493D01*
X86649455Y-64708672D01*
X86573865Y-64560319D01*
X86460945Y-64404898D01*
X86325102Y-64269055D01*
X86169681Y-64156135D01*
X86103575Y-64122452D01*
X85998506Y-64068916D01*
X85815802Y-64009553D01*
X85720928Y-63994526D01*
X85626055Y-63979500D01*
X85433945Y-63979500D01*
X85370696Y-63989517D01*
X85244197Y-64009553D01*
X85061493Y-64068916D01*
X84890318Y-64156135D01*
X84826891Y-64202218D01*
X84734898Y-64269055D01*
X84734896Y-64269057D01*
X84734895Y-64269057D01*
X84599057Y-64404895D01*
X84599057Y-64404896D01*
X84599055Y-64404898D01*
X84579271Y-64432129D01*
X84486135Y-64560318D01*
X84398916Y-64731493D01*
X84377931Y-64796081D01*
X84338494Y-64853756D01*
X84274135Y-64880955D01*
X84205289Y-64869041D01*
X84153813Y-64821797D01*
X84142069Y-64796081D01*
X84121083Y-64731493D01*
X84109455Y-64708672D01*
X84033865Y-64560319D01*
X83920945Y-64404898D01*
X83785102Y-64269055D01*
X83629681Y-64156135D01*
X83563575Y-64122452D01*
X83458506Y-64068916D01*
X83275802Y-64009553D01*
X83180928Y-63994526D01*
X83086055Y-63979500D01*
X82893945Y-63979500D01*
X82830696Y-63989517D01*
X82704197Y-64009553D01*
X82521493Y-64068916D01*
X82350318Y-64156135D01*
X82286891Y-64202218D01*
X82194898Y-64269055D01*
X82194896Y-64269057D01*
X82194895Y-64269057D01*
X82059057Y-64404895D01*
X82059057Y-64404896D01*
X82059055Y-64404898D01*
X82039280Y-64432116D01*
X81946133Y-64560320D01*
X81904983Y-64641082D01*
X81857009Y-64691877D01*
X81789187Y-64708672D01*
X81723053Y-64686134D01*
X81679602Y-64631419D01*
X81670499Y-64584786D01*
X81670499Y-64432129D01*
X81670498Y-64432123D01*
X81670497Y-64432116D01*
X81664091Y-64372517D01*
X81661692Y-64366086D01*
X81613797Y-64237671D01*
X81613793Y-64237664D01*
X81527547Y-64122455D01*
X81527544Y-64122452D01*
X81412335Y-64036206D01*
X81412328Y-64036202D01*
X81277482Y-63985908D01*
X81277483Y-63985908D01*
X81217883Y-63979501D01*
X81217881Y-63979500D01*
X81217873Y-63979500D01*
X81217864Y-63979500D01*
X79682129Y-63979500D01*
X79682123Y-63979501D01*
X79622516Y-63985908D01*
X79487671Y-64036202D01*
X79487664Y-64036206D01*
X79372455Y-64122452D01*
X79372452Y-64122455D01*
X79286206Y-64237664D01*
X79286202Y-64237671D01*
X79235908Y-64372517D01*
X79229501Y-64432116D01*
X79229501Y-64432123D01*
X79229500Y-64432135D01*
X72913991Y-64432135D01*
X72886635Y-64366092D01*
X72886628Y-64366079D01*
X72777139Y-64202218D01*
X72777136Y-64202214D01*
X72637785Y-64062863D01*
X72637781Y-64062860D01*
X72473920Y-63953371D01*
X72473907Y-63953364D01*
X72291839Y-63877950D01*
X72291829Y-63877947D01*
X72098543Y-63839500D01*
X72098541Y-63839500D01*
X71901459Y-63839500D01*
X71901457Y-63839500D01*
X71708170Y-63877947D01*
X71708160Y-63877950D01*
X71526092Y-63953364D01*
X71526079Y-63953371D01*
X71362218Y-64062860D01*
X71362214Y-64062863D01*
X71222863Y-64202214D01*
X71222860Y-64202218D01*
X71113371Y-64366079D01*
X71113364Y-64366092D01*
X71037950Y-64548160D01*
X71037947Y-64548170D01*
X70999500Y-64741456D01*
X70999500Y-64741459D01*
X70999500Y-64938541D01*
X70999500Y-64938543D01*
X70999499Y-64938543D01*
X70200500Y-64938543D01*
X70200500Y-64938541D01*
X70200500Y-64741459D01*
X70200500Y-64741456D01*
X70162052Y-64548170D01*
X70162051Y-64548169D01*
X70162051Y-64548165D01*
X70162049Y-64548160D01*
X70086635Y-64366092D01*
X70086628Y-64366079D01*
X69977139Y-64202218D01*
X69977136Y-64202214D01*
X69837785Y-64062863D01*
X69837781Y-64062860D01*
X69673920Y-63953371D01*
X69673907Y-63953364D01*
X69491839Y-63877950D01*
X69491829Y-63877947D01*
X69298543Y-63839500D01*
X69298541Y-63839500D01*
X69101459Y-63839500D01*
X69101457Y-63839500D01*
X68908170Y-63877947D01*
X68908160Y-63877950D01*
X68726092Y-63953364D01*
X68726079Y-63953371D01*
X68562218Y-64062860D01*
X68562214Y-64062863D01*
X68422863Y-64202214D01*
X68422860Y-64202218D01*
X68313371Y-64366079D01*
X68313364Y-64366092D01*
X68237950Y-64548160D01*
X68237947Y-64548170D01*
X68199500Y-64741456D01*
X68199500Y-64741459D01*
X68199500Y-64938541D01*
X68199500Y-64938543D01*
X68199499Y-64938543D01*
X38500500Y-64938543D01*
X38500500Y-49083713D01*
X42794500Y-49083713D01*
X42794500Y-49296286D01*
X42827753Y-49506239D01*
X42893444Y-49708414D01*
X42989951Y-49897820D01*
X43114890Y-50069786D01*
X43265213Y-50220109D01*
X43437182Y-50345050D01*
X43445946Y-50349516D01*
X43496742Y-50397491D01*
X43513536Y-50465312D01*
X43490998Y-50531447D01*
X43445946Y-50570484D01*
X43437182Y-50574949D01*
X43265213Y-50699890D01*
X43114890Y-50850213D01*
X42989951Y-51022179D01*
X42893444Y-51211585D01*
X42827753Y-51413760D01*
X42794500Y-51623713D01*
X42794500Y-51836286D01*
X42827753Y-52046239D01*
X42893444Y-52248414D01*
X42989951Y-52437820D01*
X43114890Y-52609786D01*
X43265213Y-52760109D01*
X43437182Y-52885050D01*
X43445946Y-52889516D01*
X43496742Y-52937491D01*
X43513536Y-53005312D01*
X43490998Y-53071447D01*
X43445946Y-53110484D01*
X43437182Y-53114949D01*
X43265213Y-53239890D01*
X43114890Y-53390213D01*
X42989951Y-53562179D01*
X42893444Y-53751585D01*
X42827753Y-53953760D01*
X42794500Y-54163713D01*
X42794500Y-54376286D01*
X42827753Y-54586239D01*
X42827753Y-54586241D01*
X42827754Y-54586243D01*
X42867367Y-54708160D01*
X42893444Y-54788414D01*
X42989951Y-54977820D01*
X43114890Y-55149786D01*
X43265213Y-55300109D01*
X43437182Y-55425050D01*
X43445946Y-55429516D01*
X43496742Y-55477491D01*
X43513536Y-55545312D01*
X43490998Y-55611447D01*
X43445946Y-55650484D01*
X43437182Y-55654949D01*
X43265213Y-55779890D01*
X43114890Y-55930213D01*
X42989951Y-56102179D01*
X42893444Y-56291585D01*
X42827753Y-56493760D01*
X42794500Y-56703713D01*
X42794500Y-56916286D01*
X42827753Y-57126239D01*
X42893444Y-57328414D01*
X42989951Y-57517820D01*
X43114890Y-57689786D01*
X43265213Y-57840109D01*
X43437182Y-57965050D01*
X43445946Y-57969516D01*
X43496742Y-58017491D01*
X43513536Y-58085312D01*
X43490998Y-58151447D01*
X43445946Y-58190484D01*
X43437182Y-58194949D01*
X43265213Y-58319890D01*
X43114890Y-58470213D01*
X42989951Y-58642179D01*
X42893444Y-58831585D01*
X42827753Y-59033760D01*
X42794500Y-59243713D01*
X42794500Y-59456286D01*
X42827753Y-59666239D01*
X42893444Y-59868414D01*
X42989951Y-60057820D01*
X43114890Y-60229786D01*
X43265213Y-60380109D01*
X43437179Y-60505048D01*
X43437181Y-60505049D01*
X43437184Y-60505051D01*
X43626588Y-60601557D01*
X43828757Y-60667246D01*
X44038713Y-60700500D01*
X44038714Y-60700500D01*
X44251286Y-60700500D01*
X44251287Y-60700500D01*
X44461243Y-60667246D01*
X44663412Y-60601557D01*
X44852816Y-60505051D01*
X44874789Y-60489086D01*
X45024786Y-60380109D01*
X45024788Y-60380106D01*
X45024792Y-60380104D01*
X45175104Y-60229792D01*
X45175106Y-60229788D01*
X45175109Y-60229786D01*
X45300048Y-60057820D01*
X45300047Y-60057820D01*
X45300051Y-60057816D01*
X45396557Y-59868412D01*
X45462246Y-59666243D01*
X45495500Y-59456287D01*
X45495500Y-59243713D01*
X45462246Y-59033757D01*
X45396557Y-58831588D01*
X45300051Y-58642184D01*
X45300049Y-58642181D01*
X45300048Y-58642179D01*
X45175109Y-58470213D01*
X45024786Y-58319890D01*
X44852820Y-58194951D01*
X44852115Y-58194591D01*
X44844054Y-58190485D01*
X44793259Y-58142512D01*
X44776463Y-58074692D01*
X44798999Y-58008556D01*
X44844054Y-57969515D01*
X44852816Y-57965051D01*
X44874789Y-57949086D01*
X45024786Y-57840109D01*
X45024788Y-57840106D01*
X45024792Y-57840104D01*
X45175104Y-57689792D01*
X45175106Y-57689788D01*
X45175109Y-57689786D01*
X45300048Y-57517820D01*
X45300047Y-57517820D01*
X45300051Y-57517816D01*
X45396557Y-57328412D01*
X45462246Y-57126243D01*
X45495500Y-56916287D01*
X45495500Y-56703713D01*
X45462246Y-56493757D01*
X45396557Y-56291588D01*
X45300051Y-56102184D01*
X45300049Y-56102181D01*
X45300048Y-56102179D01*
X45175109Y-55930213D01*
X45024786Y-55779890D01*
X44852820Y-55654951D01*
X44852115Y-55654591D01*
X44844054Y-55650485D01*
X44793259Y-55602512D01*
X44776463Y-55534692D01*
X44798999Y-55468556D01*
X44844054Y-55429515D01*
X44852816Y-55425051D01*
X44874789Y-55409086D01*
X45024786Y-55300109D01*
X45024788Y-55300106D01*
X45024792Y-55300104D01*
X45175104Y-55149792D01*
X45175106Y-55149788D01*
X45175109Y-55149786D01*
X45300048Y-54977820D01*
X45300047Y-54977820D01*
X45300051Y-54977816D01*
X45396557Y-54788412D01*
X45462246Y-54586243D01*
X45483487Y-54452135D01*
X76759500Y-54452135D01*
X76759500Y-55547870D01*
X76759501Y-55547876D01*
X76765908Y-55607483D01*
X76816202Y-55742328D01*
X76816206Y-55742335D01*
X76902452Y-55857544D01*
X76902455Y-55857547D01*
X77017664Y-55943793D01*
X77017671Y-55943797D01*
X77152517Y-55994091D01*
X77152516Y-55994091D01*
X77159444Y-55994835D01*
X77212127Y-56000500D01*
X78307872Y-56000499D01*
X78367483Y-55994091D01*
X78502331Y-55943796D01*
X78517674Y-55932309D01*
X78583135Y-55907892D01*
X78639437Y-55917015D01*
X78748160Y-55962049D01*
X78748165Y-55962051D01*
X78748169Y-55962051D01*
X78748170Y-55962052D01*
X78941456Y-56000500D01*
X78941459Y-56000500D01*
X79138543Y-56000500D01*
X79268582Y-55974632D01*
X79331835Y-55962051D01*
X79513914Y-55886632D01*
X79677782Y-55777139D01*
X79817139Y-55637782D01*
X79926632Y-55473914D01*
X80002051Y-55291835D01*
X80014632Y-55228582D01*
X80040500Y-55098543D01*
X80040500Y-54901456D01*
X80002052Y-54708170D01*
X80002051Y-54708169D01*
X80002051Y-54708165D01*
X79951550Y-54586243D01*
X79926635Y-54526092D01*
X79926628Y-54526079D01*
X79817139Y-54362218D01*
X79817136Y-54362214D01*
X79677785Y-54222863D01*
X79677781Y-54222860D01*
X79513920Y-54113371D01*
X79513907Y-54113364D01*
X79331839Y-54037950D01*
X79331829Y-54037947D01*
X79138543Y-53999500D01*
X79138541Y-53999500D01*
X78941459Y-53999500D01*
X78941457Y-53999500D01*
X78748171Y-54037947D01*
X78748168Y-54037948D01*
X78748166Y-54037948D01*
X78748165Y-54037949D01*
X78748163Y-54037950D01*
X78639436Y-54082985D01*
X78569967Y-54090452D01*
X78517673Y-54067689D01*
X78502331Y-54056204D01*
X78502328Y-54056202D01*
X78367482Y-54005908D01*
X78367483Y-54005908D01*
X78307883Y-53999501D01*
X78307881Y-53999500D01*
X78307873Y-53999500D01*
X78307864Y-53999500D01*
X77212129Y-53999500D01*
X77212123Y-53999501D01*
X77152516Y-54005908D01*
X77017671Y-54056202D01*
X77017664Y-54056206D01*
X76902455Y-54142452D01*
X76902452Y-54142455D01*
X76816206Y-54257664D01*
X76816202Y-54257671D01*
X76765908Y-54392517D01*
X76759501Y-54452116D01*
X76759500Y-54452135D01*
X45483487Y-54452135D01*
X45495500Y-54376287D01*
X45495500Y-54163713D01*
X45462246Y-53953757D01*
X45396557Y-53751588D01*
X45300051Y-53562184D01*
X45300049Y-53562181D01*
X45300048Y-53562179D01*
X45175109Y-53390213D01*
X45024786Y-53239890D01*
X44852820Y-53114951D01*
X44852115Y-53114591D01*
X44844054Y-53110485D01*
X44793259Y-53062512D01*
X44776463Y-52994692D01*
X44798999Y-52928556D01*
X44844054Y-52889515D01*
X44852816Y-52885051D01*
X44874789Y-52869086D01*
X45024786Y-52760109D01*
X45024788Y-52760106D01*
X45024792Y-52760104D01*
X45175104Y-52609792D01*
X45175106Y-52609788D01*
X45175109Y-52609786D01*
X45300048Y-52437820D01*
X45300047Y-52437820D01*
X45300051Y-52437816D01*
X45396557Y-52248412D01*
X45462246Y-52046243D01*
X45495500Y-51836287D01*
X45495500Y-51623713D01*
X45483621Y-51548713D01*
X72704500Y-51548713D01*
X72704500Y-51761286D01*
X72737753Y-51971239D01*
X72803444Y-52173414D01*
X72899951Y-52362820D01*
X73024890Y-52534786D01*
X73175213Y-52685109D01*
X73347179Y-52810048D01*
X73347181Y-52810049D01*
X73347184Y-52810051D01*
X73536588Y-52906557D01*
X73738757Y-52972246D01*
X73948713Y-53005500D01*
X73948714Y-53005500D01*
X74161286Y-53005500D01*
X74161287Y-53005500D01*
X74371243Y-52972246D01*
X74573412Y-52906557D01*
X74762816Y-52810051D01*
X74831563Y-52760104D01*
X74934786Y-52685109D01*
X74934788Y-52685106D01*
X74934792Y-52685104D01*
X75085104Y-52534792D01*
X75085106Y-52534788D01*
X75085109Y-52534786D01*
X75210048Y-52362820D01*
X75210047Y-52362820D01*
X75210051Y-52362816D01*
X75214514Y-52354054D01*
X75262488Y-52303259D01*
X75330308Y-52286463D01*
X75396444Y-52308999D01*
X75435486Y-52354056D01*
X75439951Y-52362820D01*
X75564890Y-52534786D01*
X75715213Y-52685109D01*
X75887179Y-52810048D01*
X75887181Y-52810049D01*
X75887184Y-52810051D01*
X76076588Y-52906557D01*
X76278757Y-52972246D01*
X76488713Y-53005500D01*
X76488714Y-53005500D01*
X76701286Y-53005500D01*
X76701287Y-53005500D01*
X76911243Y-52972246D01*
X77113412Y-52906557D01*
X77302816Y-52810051D01*
X77371563Y-52760104D01*
X77474786Y-52685109D01*
X77474788Y-52685106D01*
X77474792Y-52685104D01*
X77625104Y-52534792D01*
X77625106Y-52534788D01*
X77625109Y-52534786D01*
X77750048Y-52362820D01*
X77750047Y-52362820D01*
X77750051Y-52362816D01*
X77846557Y-52173412D01*
X77912246Y-51971243D01*
X77945500Y-51761287D01*
X77945500Y-51548713D01*
X77912246Y-51338757D01*
X77846557Y-51136588D01*
X77750051Y-50947184D01*
X77750049Y-50947181D01*
X77750048Y-50947179D01*
X77625109Y-50775213D01*
X77474786Y-50624890D01*
X77302820Y-50499951D01*
X77113414Y-50403444D01*
X77113413Y-50403443D01*
X77113412Y-50403443D01*
X76911243Y-50337754D01*
X76911241Y-50337753D01*
X76911240Y-50337753D01*
X76749957Y-50312208D01*
X76701287Y-50304500D01*
X76488713Y-50304500D01*
X76440042Y-50312208D01*
X76278760Y-50337753D01*
X76076585Y-50403444D01*
X75887179Y-50499951D01*
X75715213Y-50624890D01*
X75564890Y-50775213D01*
X75439949Y-50947182D01*
X75435484Y-50955946D01*
X75387509Y-51006742D01*
X75319688Y-51023536D01*
X75253553Y-51000998D01*
X75214516Y-50955946D01*
X75210050Y-50947182D01*
X75085109Y-50775213D01*
X74934786Y-50624890D01*
X74762820Y-50499951D01*
X74573414Y-50403444D01*
X74573413Y-50403443D01*
X74573412Y-50403443D01*
X74371243Y-50337754D01*
X74371241Y-50337753D01*
X74371240Y-50337753D01*
X74209957Y-50312208D01*
X74161287Y-50304500D01*
X73948713Y-50304500D01*
X73900042Y-50312208D01*
X73738760Y-50337753D01*
X73536585Y-50403444D01*
X73347179Y-50499951D01*
X73175213Y-50624890D01*
X73024890Y-50775213D01*
X72899951Y-50947179D01*
X72803444Y-51136585D01*
X72737753Y-51338760D01*
X72704500Y-51548713D01*
X45483621Y-51548713D01*
X45462246Y-51413757D01*
X45396557Y-51211588D01*
X45300051Y-51022184D01*
X45300049Y-51022181D01*
X45300048Y-51022179D01*
X45175109Y-50850213D01*
X45024786Y-50699890D01*
X44852820Y-50574951D01*
X44852115Y-50574591D01*
X44844054Y-50570485D01*
X44793259Y-50522512D01*
X44776463Y-50454692D01*
X44798999Y-50388556D01*
X44844054Y-50349515D01*
X44852816Y-50345051D01*
X44908630Y-50304500D01*
X45024786Y-50220109D01*
X45024788Y-50220106D01*
X45024792Y-50220104D01*
X45175104Y-50069792D01*
X45175106Y-50069788D01*
X45175109Y-50069786D01*
X45300048Y-49897820D01*
X45300047Y-49897820D01*
X45300051Y-49897816D01*
X45396557Y-49708412D01*
X45462246Y-49506243D01*
X45495500Y-49296287D01*
X45495500Y-49083713D01*
X45462246Y-48873757D01*
X45396557Y-48671588D01*
X45300051Y-48482184D01*
X45300049Y-48482181D01*
X45300048Y-48482179D01*
X45175109Y-48310213D01*
X45024786Y-48159890D01*
X44852820Y-48034951D01*
X44663414Y-47938444D01*
X44663413Y-47938443D01*
X44663412Y-47938443D01*
X44461243Y-47872754D01*
X44461241Y-47872753D01*
X44461240Y-47872753D01*
X44299957Y-47847208D01*
X44251287Y-47839500D01*
X44038713Y-47839500D01*
X43990042Y-47847208D01*
X43828760Y-47872753D01*
X43626585Y-47938444D01*
X43437179Y-48034951D01*
X43265213Y-48159890D01*
X43114890Y-48310213D01*
X42989951Y-48482179D01*
X42893444Y-48671585D01*
X42827753Y-48873760D01*
X42794500Y-49083713D01*
X38500500Y-49083713D01*
X38500500Y-43121153D01*
X67999500Y-43121153D01*
X67999500Y-43278846D01*
X68030261Y-43433489D01*
X68030264Y-43433501D01*
X68090602Y-43579172D01*
X68090609Y-43579185D01*
X68178210Y-43710288D01*
X68178212Y-43710291D01*
X68187443Y-43719521D01*
X68220930Y-43780842D01*
X68223765Y-43807205D01*
X68223765Y-47044499D01*
X68204080Y-47111538D01*
X68202867Y-47113390D01*
X68114874Y-47245079D01*
X68114867Y-47245092D01*
X68054529Y-47390763D01*
X68054526Y-47390775D01*
X68023765Y-47545418D01*
X68023765Y-47703111D01*
X68054526Y-47857754D01*
X68054529Y-47857766D01*
X68114867Y-48003437D01*
X68114874Y-48003450D01*
X68202475Y-48134553D01*
X68202478Y-48134557D01*
X68313972Y-48246051D01*
X68313976Y-48246054D01*
X68445079Y-48333655D01*
X68445092Y-48333662D01*
X68590763Y-48394000D01*
X68590768Y-48394002D01*
X68745418Y-48424764D01*
X68745421Y-48424765D01*
X68745423Y-48424765D01*
X68903109Y-48424765D01*
X68903110Y-48424764D01*
X69057762Y-48394002D01*
X69203444Y-48333659D01*
X69334554Y-48246054D01*
X69446054Y-48134554D01*
X69533659Y-48003444D01*
X69594002Y-47857762D01*
X69624765Y-47703107D01*
X69624765Y-47545423D01*
X69624765Y-47545420D01*
X69594002Y-47390770D01*
X69594002Y-47390768D01*
X69584867Y-47368713D01*
X79264500Y-47368713D01*
X79264500Y-47581286D01*
X79283794Y-47703107D01*
X79297754Y-47791243D01*
X79345582Y-47938443D01*
X79363444Y-47993414D01*
X79459951Y-48182820D01*
X79584890Y-48354786D01*
X79735213Y-48505109D01*
X79907179Y-48630048D01*
X79907181Y-48630049D01*
X79907184Y-48630051D01*
X80096588Y-48726557D01*
X80298757Y-48792246D01*
X80508713Y-48825500D01*
X80508714Y-48825500D01*
X80721286Y-48825500D01*
X80721287Y-48825500D01*
X80931243Y-48792246D01*
X81133412Y-48726557D01*
X81322816Y-48630051D01*
X81344789Y-48614086D01*
X81494786Y-48505109D01*
X81494788Y-48505106D01*
X81494792Y-48505104D01*
X81645104Y-48354792D01*
X81645106Y-48354788D01*
X81645109Y-48354786D01*
X81770048Y-48182820D01*
X81770047Y-48182820D01*
X81770051Y-48182816D01*
X81866557Y-47993412D01*
X81932246Y-47791243D01*
X81965500Y-47581287D01*
X81965500Y-47368713D01*
X81932246Y-47158757D01*
X81866557Y-46956588D01*
X81770051Y-46767184D01*
X81770049Y-46767181D01*
X81770048Y-46767179D01*
X81645109Y-46595213D01*
X81494786Y-46444890D01*
X81322820Y-46319951D01*
X81133414Y-46223444D01*
X81133413Y-46223443D01*
X81133412Y-46223443D01*
X80931243Y-46157754D01*
X80931241Y-46157753D01*
X80931240Y-46157753D01*
X80769957Y-46132208D01*
X80721287Y-46124500D01*
X80508713Y-46124500D01*
X80460042Y-46132208D01*
X80298760Y-46157753D01*
X80096585Y-46223444D01*
X79907179Y-46319951D01*
X79735213Y-46444890D01*
X79584890Y-46595213D01*
X79459951Y-46767179D01*
X79363444Y-46956585D01*
X79297753Y-47158760D01*
X79264500Y-47368713D01*
X69584867Y-47368713D01*
X69533662Y-47245092D01*
X69533655Y-47245079D01*
X69445663Y-47113390D01*
X69424785Y-47046712D01*
X69424765Y-47044499D01*
X69424765Y-43743450D01*
X69444450Y-43676411D01*
X69445663Y-43674559D01*
X69446030Y-43674009D01*
X69509394Y-43579179D01*
X69569737Y-43433497D01*
X69600500Y-43278842D01*
X69600500Y-43121158D01*
X69600500Y-43121155D01*
X69600499Y-43121153D01*
X69591825Y-43077546D01*
X69569737Y-42966503D01*
X69555007Y-42930942D01*
X69509397Y-42820827D01*
X69509390Y-42820814D01*
X69421789Y-42689711D01*
X69421786Y-42689707D01*
X69310292Y-42578213D01*
X69310288Y-42578210D01*
X69179185Y-42490609D01*
X69179172Y-42490602D01*
X69033501Y-42430264D01*
X69033489Y-42430261D01*
X68878845Y-42399500D01*
X68878842Y-42399500D01*
X68721158Y-42399500D01*
X68721155Y-42399500D01*
X68566510Y-42430261D01*
X68566498Y-42430264D01*
X68420827Y-42490602D01*
X68420814Y-42490609D01*
X68289711Y-42578210D01*
X68289707Y-42578213D01*
X68178213Y-42689707D01*
X68178210Y-42689711D01*
X68090609Y-42820814D01*
X68090602Y-42820827D01*
X68030264Y-42966498D01*
X68030261Y-42966510D01*
X67999500Y-43121153D01*
X38500500Y-43121153D01*
X38500500Y-41232135D01*
X79229500Y-41232135D01*
X79229500Y-42767870D01*
X79229501Y-42767876D01*
X79235908Y-42827483D01*
X79286202Y-42962328D01*
X79286206Y-42962335D01*
X79372452Y-43077544D01*
X79372455Y-43077547D01*
X79487664Y-43163793D01*
X79487671Y-43163797D01*
X79622517Y-43214091D01*
X79622516Y-43214091D01*
X79629444Y-43214835D01*
X79682127Y-43220500D01*
X81217872Y-43220499D01*
X81277483Y-43214091D01*
X81412331Y-43163796D01*
X81527546Y-43077546D01*
X81613796Y-42962331D01*
X81664091Y-42827483D01*
X81670500Y-42767873D01*
X81670499Y-42615211D01*
X81690183Y-42548175D01*
X81742987Y-42502420D01*
X81812145Y-42492476D01*
X81875701Y-42521501D01*
X81904983Y-42558918D01*
X81946133Y-42639679D01*
X81980060Y-42686374D01*
X82059055Y-42795102D01*
X82194898Y-42930945D01*
X82350319Y-43043865D01*
X82502004Y-43121153D01*
X82521493Y-43131083D01*
X82612845Y-43160764D01*
X82704199Y-43190447D01*
X82893945Y-43220500D01*
X82893946Y-43220500D01*
X83086054Y-43220500D01*
X83086055Y-43220500D01*
X83275801Y-43190447D01*
X83458509Y-43131082D01*
X83629681Y-43043865D01*
X83785102Y-42930945D01*
X83920945Y-42795102D01*
X84033865Y-42639681D01*
X84121082Y-42468509D01*
X84121084Y-42468504D01*
X84142069Y-42403919D01*
X84181506Y-42346243D01*
X84245864Y-42319044D01*
X84314711Y-42330958D01*
X84366187Y-42378202D01*
X84377931Y-42403919D01*
X84398915Y-42468504D01*
X84425919Y-42521501D01*
X84486135Y-42639681D01*
X84599055Y-42795102D01*
X84734898Y-42930945D01*
X84890319Y-43043865D01*
X85042004Y-43121153D01*
X85061493Y-43131083D01*
X85152845Y-43160764D01*
X85244199Y-43190447D01*
X85433945Y-43220500D01*
X85433946Y-43220500D01*
X85626054Y-43220500D01*
X85626055Y-43220500D01*
X85815801Y-43190447D01*
X85998509Y-43131082D01*
X86169681Y-43043865D01*
X86325102Y-42930945D01*
X86460945Y-42795102D01*
X86573865Y-42639681D01*
X86661082Y-42468509D01*
X86720447Y-42285801D01*
X86750500Y-42096055D01*
X86750500Y-41903945D01*
X86720447Y-41714199D01*
X86690424Y-41621797D01*
X86661083Y-41531493D01*
X86649455Y-41508672D01*
X86573865Y-41360319D01*
X86460945Y-41204898D01*
X86325102Y-41069055D01*
X86169681Y-40956135D01*
X86103575Y-40922452D01*
X85998506Y-40868916D01*
X85815802Y-40809553D01*
X85720928Y-40794526D01*
X85626055Y-40779500D01*
X85433945Y-40779500D01*
X85370696Y-40789517D01*
X85244197Y-40809553D01*
X85061493Y-40868916D01*
X84890318Y-40956135D01*
X84801645Y-41020560D01*
X84734898Y-41069055D01*
X84734896Y-41069057D01*
X84734895Y-41069057D01*
X84599057Y-41204895D01*
X84599057Y-41204896D01*
X84599055Y-41204898D01*
X84579271Y-41232129D01*
X84486135Y-41360318D01*
X84398916Y-41531493D01*
X84377931Y-41596081D01*
X84338494Y-41653756D01*
X84274135Y-41680955D01*
X84205289Y-41669041D01*
X84153813Y-41621797D01*
X84142069Y-41596081D01*
X84121083Y-41531493D01*
X84109455Y-41508672D01*
X84033865Y-41360319D01*
X83920945Y-41204898D01*
X83785102Y-41069055D01*
X83629681Y-40956135D01*
X83563575Y-40922452D01*
X83458506Y-40868916D01*
X83275802Y-40809553D01*
X83180928Y-40794526D01*
X83086055Y-40779500D01*
X82893945Y-40779500D01*
X82830696Y-40789517D01*
X82704197Y-40809553D01*
X82521493Y-40868916D01*
X82350318Y-40956135D01*
X82261645Y-41020560D01*
X82194898Y-41069055D01*
X82194896Y-41069057D01*
X82194895Y-41069057D01*
X82059057Y-41204895D01*
X82059057Y-41204896D01*
X82059055Y-41204898D01*
X82039280Y-41232116D01*
X81946133Y-41360320D01*
X81904983Y-41441082D01*
X81857009Y-41491877D01*
X81789187Y-41508672D01*
X81723053Y-41486134D01*
X81679602Y-41431419D01*
X81670499Y-41384786D01*
X81670499Y-41232129D01*
X81670498Y-41232123D01*
X81670497Y-41232116D01*
X81664091Y-41172517D01*
X81613796Y-41037669D01*
X81613795Y-41037668D01*
X81613793Y-41037664D01*
X81527547Y-40922455D01*
X81527544Y-40922452D01*
X81412335Y-40836206D01*
X81412328Y-40836202D01*
X81277482Y-40785908D01*
X81277483Y-40785908D01*
X81217883Y-40779501D01*
X81217881Y-40779500D01*
X81217873Y-40779500D01*
X81217864Y-40779500D01*
X79682129Y-40779500D01*
X79682123Y-40779501D01*
X79622516Y-40785908D01*
X79487671Y-40836202D01*
X79487664Y-40836206D01*
X79372455Y-40922452D01*
X79372452Y-40922455D01*
X79286206Y-41037664D01*
X79286202Y-41037671D01*
X79235908Y-41172517D01*
X79229501Y-41232116D01*
X79229501Y-41232123D01*
X79229500Y-41232135D01*
X38500500Y-41232135D01*
X38500500Y-37258676D01*
X38520185Y-37191637D01*
X38536819Y-37170995D01*
X40170995Y-35536819D01*
X40232318Y-35503334D01*
X40258676Y-35500500D01*
X92741324Y-35500500D01*
X92808363Y-35520185D01*
G37*
%TD.AperFunction*%
%TD*%
M02*
