%TF.GenerationSoftware,KiCad,Pcbnew,10.0.5*%
%TF.CreationDate,2026-08-10T22:55:46+02:00*%
%TF.ProjectId,Leveltronic,4c657665-6c74-4726-9f6e-69632e6b6963,rev?*%
%TF.SameCoordinates,Original*%
%TF.FileFunction,Legend,Top*%
%TF.FilePolarity,Positive*%
%FSLAX46Y46*%
G04 Gerber Fmt 4.6, Leading zero omitted, Abs format (unit mm)*
G04 Created by KiCad (PCBNEW 10.0.5) date 2026-08-10 22:55:46*
%MOMM*%
%LPD*%
G01*
G04 APERTURE LIST*
%ADD10C,0.595312*%
%ADD11C,0.100000*%
%ADD12C,0.463020*%
%ADD13C,0.330729*%
%ADD14C,0.150000*%
%ADD15C,0.120000*%
%ADD16C,0.250000*%
%ADD17C,0.060000*%
%ADD18C,0.000000*%
G04 APERTURE END LIST*
D10*
X55125000Y-66055209D02*
X46658333Y-69494792D01*
X46658333Y-62615626D01*
X55125000Y-66055209D01*
D11*
X45600000Y-64600000D02*
X46658333Y-64600000D01*
D12*
X45600000Y-64600000D02*
X46658333Y-64600000D01*
D11*
X45600000Y-67510417D02*
X46658333Y-67510417D01*
D12*
X45600000Y-67510417D02*
X46658333Y-67510417D01*
D11*
X47452083Y-64600000D02*
X48510417Y-64600000D01*
D13*
X47452083Y-64600000D02*
X48510417Y-64600000D01*
D11*
X47452083Y-67510417D02*
X48510417Y-67510417D01*
D13*
X47452083Y-67510417D02*
X48510417Y-67510417D01*
D11*
X47981250Y-64070834D02*
X47981250Y-65129167D01*
D13*
X47981250Y-64070834D02*
X47981250Y-65129167D01*
D11*
X55125000Y-66055209D02*
X56183333Y-66055209D01*
D12*
X55125000Y-66055209D02*
X56183333Y-66055209D01*
D14*
X39412969Y-46004485D02*
X39298684Y-45947342D01*
X39298684Y-45947342D02*
X39127255Y-45947342D01*
X39127255Y-45947342D02*
X38955826Y-46004485D01*
X38955826Y-46004485D02*
X38841541Y-46118771D01*
X38841541Y-46118771D02*
X38784398Y-46233057D01*
X38784398Y-46233057D02*
X38727255Y-46461628D01*
X38727255Y-46461628D02*
X38727255Y-46633057D01*
X38727255Y-46633057D02*
X38784398Y-46861628D01*
X38784398Y-46861628D02*
X38841541Y-46975914D01*
X38841541Y-46975914D02*
X38955826Y-47090200D01*
X38955826Y-47090200D02*
X39127255Y-47147342D01*
X39127255Y-47147342D02*
X39241541Y-47147342D01*
X39241541Y-47147342D02*
X39412969Y-47090200D01*
X39412969Y-47090200D02*
X39470112Y-47033057D01*
X39470112Y-47033057D02*
X39470112Y-46633057D01*
X39470112Y-46633057D02*
X39241541Y-46633057D01*
X39984398Y-47147342D02*
X39984398Y-45947342D01*
X39984398Y-45947342D02*
X40670112Y-47147342D01*
X40670112Y-47147342D02*
X40670112Y-45947342D01*
X41241541Y-47147342D02*
X41241541Y-45947342D01*
X41241541Y-45947342D02*
X41527255Y-45947342D01*
X41527255Y-45947342D02*
X41698684Y-46004485D01*
X41698684Y-46004485D02*
X41812969Y-46118771D01*
X41812969Y-46118771D02*
X41870112Y-46233057D01*
X41870112Y-46233057D02*
X41927255Y-46461628D01*
X41927255Y-46461628D02*
X41927255Y-46633057D01*
X41927255Y-46633057D02*
X41870112Y-46861628D01*
X41870112Y-46861628D02*
X41812969Y-46975914D01*
X41812969Y-46975914D02*
X41698684Y-47090200D01*
X41698684Y-47090200D02*
X41527255Y-47147342D01*
X41527255Y-47147342D02*
X41241541Y-47147342D01*
X38784398Y-49490200D02*
X39698684Y-49490200D01*
X39241541Y-49947342D02*
X39241541Y-49033057D01*
X40841540Y-48747342D02*
X40270112Y-48747342D01*
X40270112Y-48747342D02*
X40212969Y-49318771D01*
X40212969Y-49318771D02*
X40270112Y-49261628D01*
X40270112Y-49261628D02*
X40384398Y-49204485D01*
X40384398Y-49204485D02*
X40670112Y-49204485D01*
X40670112Y-49204485D02*
X40784398Y-49261628D01*
X40784398Y-49261628D02*
X40841540Y-49318771D01*
X40841540Y-49318771D02*
X40898683Y-49433057D01*
X40898683Y-49433057D02*
X40898683Y-49718771D01*
X40898683Y-49718771D02*
X40841540Y-49833057D01*
X40841540Y-49833057D02*
X40784398Y-49890200D01*
X40784398Y-49890200D02*
X40670112Y-49947342D01*
X40670112Y-49947342D02*
X40384398Y-49947342D01*
X40384398Y-49947342D02*
X40270112Y-49890200D01*
X40270112Y-49890200D02*
X40212969Y-49833057D01*
X41241540Y-48747342D02*
X41641540Y-49947342D01*
X41641540Y-49947342D02*
X42041540Y-48747342D01*
X38784398Y-52090200D02*
X39698684Y-52090200D01*
X40841540Y-51347342D02*
X40270112Y-51347342D01*
X40270112Y-51347342D02*
X40212969Y-51918771D01*
X40212969Y-51918771D02*
X40270112Y-51861628D01*
X40270112Y-51861628D02*
X40384398Y-51804485D01*
X40384398Y-51804485D02*
X40670112Y-51804485D01*
X40670112Y-51804485D02*
X40784398Y-51861628D01*
X40784398Y-51861628D02*
X40841540Y-51918771D01*
X40841540Y-51918771D02*
X40898683Y-52033057D01*
X40898683Y-52033057D02*
X40898683Y-52318771D01*
X40898683Y-52318771D02*
X40841540Y-52433057D01*
X40841540Y-52433057D02*
X40784398Y-52490200D01*
X40784398Y-52490200D02*
X40670112Y-52547342D01*
X40670112Y-52547342D02*
X40384398Y-52547342D01*
X40384398Y-52547342D02*
X40270112Y-52490200D01*
X40270112Y-52490200D02*
X40212969Y-52433057D01*
X41241540Y-51347342D02*
X41641540Y-52547342D01*
X41641540Y-52547342D02*
X42041540Y-51347342D01*
X39412969Y-58747342D02*
X39641541Y-58747342D01*
X39641541Y-58747342D02*
X39755826Y-58804485D01*
X39755826Y-58804485D02*
X39870112Y-58918771D01*
X39870112Y-58918771D02*
X39927255Y-59147342D01*
X39927255Y-59147342D02*
X39927255Y-59547342D01*
X39927255Y-59547342D02*
X39870112Y-59775914D01*
X39870112Y-59775914D02*
X39755826Y-59890200D01*
X39755826Y-59890200D02*
X39641541Y-59947342D01*
X39641541Y-59947342D02*
X39412969Y-59947342D01*
X39412969Y-59947342D02*
X39298684Y-59890200D01*
X39298684Y-59890200D02*
X39184398Y-59775914D01*
X39184398Y-59775914D02*
X39127255Y-59547342D01*
X39127255Y-59547342D02*
X39127255Y-59147342D01*
X39127255Y-59147342D02*
X39184398Y-58918771D01*
X39184398Y-58918771D02*
X39298684Y-58804485D01*
X39298684Y-58804485D02*
X39412969Y-58747342D01*
X40955827Y-59147342D02*
X40955827Y-59947342D01*
X40441541Y-59147342D02*
X40441541Y-59775914D01*
X40441541Y-59775914D02*
X40498684Y-59890200D01*
X40498684Y-59890200D02*
X40612969Y-59947342D01*
X40612969Y-59947342D02*
X40784398Y-59947342D01*
X40784398Y-59947342D02*
X40898684Y-59890200D01*
X40898684Y-59890200D02*
X40955827Y-59833057D01*
X41355826Y-59147342D02*
X41812969Y-59147342D01*
X41527255Y-58747342D02*
X41527255Y-59775914D01*
X41527255Y-59775914D02*
X41584398Y-59890200D01*
X41584398Y-59890200D02*
X41698683Y-59947342D01*
X41698683Y-59947342D02*
X41812969Y-59947342D01*
X41127255Y-54604485D02*
X41698684Y-54604485D01*
X41012969Y-54947342D02*
X41412969Y-53747342D01*
X41412969Y-53747342D02*
X41812969Y-54947342D01*
X41584398Y-56918771D02*
X41755826Y-56975914D01*
X41755826Y-56975914D02*
X41812969Y-57033057D01*
X41812969Y-57033057D02*
X41870112Y-57147342D01*
X41870112Y-57147342D02*
X41870112Y-57318771D01*
X41870112Y-57318771D02*
X41812969Y-57433057D01*
X41812969Y-57433057D02*
X41755826Y-57490200D01*
X41755826Y-57490200D02*
X41641541Y-57547342D01*
X41641541Y-57547342D02*
X41184398Y-57547342D01*
X41184398Y-57547342D02*
X41184398Y-56347342D01*
X41184398Y-56347342D02*
X41584398Y-56347342D01*
X41584398Y-56347342D02*
X41698684Y-56404485D01*
X41698684Y-56404485D02*
X41755826Y-56461628D01*
X41755826Y-56461628D02*
X41812969Y-56575914D01*
X41812969Y-56575914D02*
X41812969Y-56690200D01*
X41812969Y-56690200D02*
X41755826Y-56804485D01*
X41755826Y-56804485D02*
X41698684Y-56861628D01*
X41698684Y-56861628D02*
X41584398Y-56918771D01*
X41584398Y-56918771D02*
X41184398Y-56918771D01*
X68927255Y-66804485D02*
X69498684Y-66804485D01*
X68812969Y-67147342D02*
X69212969Y-65947342D01*
X69212969Y-65947342D02*
X69612969Y-67147342D01*
X72184398Y-66518771D02*
X72355826Y-66575914D01*
X72355826Y-66575914D02*
X72412969Y-66633057D01*
X72412969Y-66633057D02*
X72470112Y-66747342D01*
X72470112Y-66747342D02*
X72470112Y-66918771D01*
X72470112Y-66918771D02*
X72412969Y-67033057D01*
X72412969Y-67033057D02*
X72355826Y-67090200D01*
X72355826Y-67090200D02*
X72241541Y-67147342D01*
X72241541Y-67147342D02*
X71784398Y-67147342D01*
X71784398Y-67147342D02*
X71784398Y-65947342D01*
X71784398Y-65947342D02*
X72184398Y-65947342D01*
X72184398Y-65947342D02*
X72298684Y-66004485D01*
X72298684Y-66004485D02*
X72355826Y-66061628D01*
X72355826Y-66061628D02*
X72412969Y-66175914D01*
X72412969Y-66175914D02*
X72412969Y-66290200D01*
X72412969Y-66290200D02*
X72355826Y-66404485D01*
X72355826Y-66404485D02*
X72298684Y-66461628D01*
X72298684Y-66461628D02*
X72184398Y-66518771D01*
X72184398Y-66518771D02*
X71784398Y-66518771D01*
X82012969Y-37604485D02*
X81898684Y-37547342D01*
X81898684Y-37547342D02*
X81727255Y-37547342D01*
X81727255Y-37547342D02*
X81555826Y-37604485D01*
X81555826Y-37604485D02*
X81441541Y-37718771D01*
X81441541Y-37718771D02*
X81384398Y-37833057D01*
X81384398Y-37833057D02*
X81327255Y-38061628D01*
X81327255Y-38061628D02*
X81327255Y-38233057D01*
X81327255Y-38233057D02*
X81384398Y-38461628D01*
X81384398Y-38461628D02*
X81441541Y-38575914D01*
X81441541Y-38575914D02*
X81555826Y-38690200D01*
X81555826Y-38690200D02*
X81727255Y-38747342D01*
X81727255Y-38747342D02*
X81841541Y-38747342D01*
X81841541Y-38747342D02*
X82012969Y-38690200D01*
X82012969Y-38690200D02*
X82070112Y-38633057D01*
X82070112Y-38633057D02*
X82070112Y-38233057D01*
X82070112Y-38233057D02*
X81841541Y-38233057D01*
X83098684Y-38747342D02*
X83098684Y-38118771D01*
X83098684Y-38118771D02*
X83041541Y-38004485D01*
X83041541Y-38004485D02*
X82927255Y-37947342D01*
X82927255Y-37947342D02*
X82698684Y-37947342D01*
X82698684Y-37947342D02*
X82584398Y-38004485D01*
X83098684Y-38690200D02*
X82984398Y-38747342D01*
X82984398Y-38747342D02*
X82698684Y-38747342D01*
X82698684Y-38747342D02*
X82584398Y-38690200D01*
X82584398Y-38690200D02*
X82527255Y-38575914D01*
X82527255Y-38575914D02*
X82527255Y-38461628D01*
X82527255Y-38461628D02*
X82584398Y-38347342D01*
X82584398Y-38347342D02*
X82698684Y-38290200D01*
X82698684Y-38290200D02*
X82984398Y-38290200D01*
X82984398Y-38290200D02*
X83098684Y-38233057D01*
X83670112Y-38747342D02*
X83670112Y-37947342D01*
X83670112Y-37547342D02*
X83612969Y-37604485D01*
X83612969Y-37604485D02*
X83670112Y-37661628D01*
X83670112Y-37661628D02*
X83727255Y-37604485D01*
X83727255Y-37604485D02*
X83670112Y-37547342D01*
X83670112Y-37547342D02*
X83670112Y-37661628D01*
X84241541Y-37947342D02*
X84241541Y-38747342D01*
X84241541Y-38061628D02*
X84298684Y-38004485D01*
X84298684Y-38004485D02*
X84412969Y-37947342D01*
X84412969Y-37947342D02*
X84584398Y-37947342D01*
X84584398Y-37947342D02*
X84698684Y-38004485D01*
X84698684Y-38004485D02*
X84755827Y-38118771D01*
X84755827Y-38118771D02*
X84755827Y-38747342D01*
X81470112Y-68547342D02*
X82270112Y-68547342D01*
X82270112Y-68547342D02*
X81470112Y-69747342D01*
X81470112Y-69747342D02*
X82270112Y-69747342D01*
X83184398Y-69690200D02*
X83070112Y-69747342D01*
X83070112Y-69747342D02*
X82841541Y-69747342D01*
X82841541Y-69747342D02*
X82727255Y-69690200D01*
X82727255Y-69690200D02*
X82670112Y-69575914D01*
X82670112Y-69575914D02*
X82670112Y-69118771D01*
X82670112Y-69118771D02*
X82727255Y-69004485D01*
X82727255Y-69004485D02*
X82841541Y-68947342D01*
X82841541Y-68947342D02*
X83070112Y-68947342D01*
X83070112Y-68947342D02*
X83184398Y-69004485D01*
X83184398Y-69004485D02*
X83241541Y-69118771D01*
X83241541Y-69118771D02*
X83241541Y-69233057D01*
X83241541Y-69233057D02*
X82670112Y-69347342D01*
X83755826Y-69747342D02*
X83755826Y-68947342D01*
X83755826Y-69175914D02*
X83812969Y-69061628D01*
X83812969Y-69061628D02*
X83870112Y-69004485D01*
X83870112Y-69004485D02*
X83984397Y-68947342D01*
X83984397Y-68947342D02*
X84098683Y-68947342D01*
X84670111Y-69747342D02*
X84555826Y-69690200D01*
X84555826Y-69690200D02*
X84498683Y-69633057D01*
X84498683Y-69633057D02*
X84441540Y-69518771D01*
X84441540Y-69518771D02*
X84441540Y-69175914D01*
X84441540Y-69175914D02*
X84498683Y-69061628D01*
X84498683Y-69061628D02*
X84555826Y-69004485D01*
X84555826Y-69004485D02*
X84670111Y-68947342D01*
X84670111Y-68947342D02*
X84841540Y-68947342D01*
X84841540Y-68947342D02*
X84955826Y-69004485D01*
X84955826Y-69004485D02*
X85012969Y-69061628D01*
X85012969Y-69061628D02*
X85070111Y-69175914D01*
X85070111Y-69175914D02*
X85070111Y-69518771D01*
X85070111Y-69518771D02*
X85012969Y-69633057D01*
X85012969Y-69633057D02*
X84955826Y-69690200D01*
X84955826Y-69690200D02*
X84841540Y-69747342D01*
X84841540Y-69747342D02*
X84670111Y-69747342D01*
D11*
G36*
X57893232Y-66255729D02*
G01*
X57884887Y-66335741D01*
X57861033Y-66403588D01*
X57822050Y-66461851D01*
X57766458Y-66512099D01*
X57701904Y-66549519D01*
X57623388Y-66577907D01*
X57528201Y-66596270D01*
X57413148Y-66602884D01*
X57343474Y-66599840D01*
X57250043Y-66589377D01*
X57157688Y-66573609D01*
X57091810Y-66556722D01*
X57091810Y-66269150D01*
X57215235Y-66317914D01*
X57314447Y-66343585D01*
X57394000Y-66351216D01*
X57454961Y-66345660D01*
X57489754Y-66332279D01*
X57507694Y-66313816D01*
X57513593Y-66289410D01*
X57507079Y-66266636D01*
X57485811Y-66247095D01*
X57446696Y-66229163D01*
X57340486Y-66191444D01*
X57256257Y-66158650D01*
X57194631Y-66122276D01*
X57151051Y-66082964D01*
X57118863Y-66034874D01*
X57098889Y-65977093D01*
X57091810Y-65907036D01*
X57099623Y-65834220D01*
X57122145Y-65771378D01*
X57159310Y-65716325D01*
X57212772Y-65667763D01*
X57274497Y-65631548D01*
X57349876Y-65604043D01*
X57441595Y-65586225D01*
X57552831Y-65579799D01*
X57682311Y-65588779D01*
X57824417Y-65617071D01*
X57824417Y-65891648D01*
X57762274Y-65868313D01*
X57692428Y-65848650D01*
X57623172Y-65835308D01*
X57571894Y-65831467D01*
X57534179Y-65835144D01*
X57507780Y-65844803D01*
X57489664Y-65861105D01*
X57483930Y-65881903D01*
X57490177Y-65906482D01*
X57509747Y-65926612D01*
X57542464Y-65942949D01*
X57613012Y-65967474D01*
X57711081Y-66002618D01*
X57780714Y-66040309D01*
X57828178Y-66079715D01*
X57863830Y-66128791D01*
X57885599Y-66186637D01*
X57893232Y-66255729D01*
G37*
G36*
X58681801Y-65587405D02*
G01*
X58781606Y-65609074D01*
X58868872Y-65643657D01*
X58948529Y-65692505D01*
X59013353Y-65751340D01*
X59064975Y-65820781D01*
X59102768Y-65898778D01*
X59125582Y-65982732D01*
X59133363Y-66074159D01*
X59126745Y-66173269D01*
X59107854Y-66259886D01*
X59077649Y-66335903D01*
X59036400Y-66402871D01*
X58983679Y-66461919D01*
X58905233Y-66521308D01*
X58811522Y-66565136D01*
X58699512Y-66592960D01*
X58565315Y-66602884D01*
X58431857Y-66593171D01*
X58320530Y-66565956D01*
X58227482Y-66523147D01*
X58149687Y-66465253D01*
X58085984Y-66391862D01*
X58039945Y-66305936D01*
X58011185Y-66204994D01*
X58001036Y-66085699D01*
X58414178Y-66085699D01*
X58422246Y-66173156D01*
X58443084Y-66232198D01*
X58473758Y-66270778D01*
X58514591Y-66293764D01*
X58569077Y-66301976D01*
X58621418Y-66293704D01*
X58661099Y-66270321D01*
X58691333Y-66230505D01*
X58712115Y-66168740D01*
X58720214Y-66076382D01*
X58712543Y-65998567D01*
X58692552Y-65945361D01*
X58662657Y-65909966D01*
X58622108Y-65888478D01*
X58567196Y-65880706D01*
X58512859Y-65888657D01*
X58472421Y-65910784D01*
X58442312Y-65947592D01*
X58422007Y-66003450D01*
X58414178Y-66085699D01*
X58001036Y-66085699D01*
X58001029Y-66085614D01*
X58009211Y-65984083D01*
X58032713Y-65894961D01*
X58070785Y-65816080D01*
X58123487Y-65746239D01*
X58189250Y-65688032D01*
X58269708Y-65640750D01*
X58357756Y-65607583D01*
X58456320Y-65586972D01*
X58567196Y-65579799D01*
X58681801Y-65587405D01*
G37*
G36*
X59285954Y-66581000D02*
G01*
X59285954Y-65131174D01*
X59693375Y-65131174D01*
X59693375Y-66581000D01*
X59285954Y-66581000D01*
G37*
G36*
X60950689Y-66581000D02*
G01*
X60543267Y-66581000D01*
X60543267Y-66466108D01*
X60539420Y-66466108D01*
X60483863Y-66522476D01*
X60412219Y-66566296D01*
X60333124Y-66594012D01*
X60257320Y-66602884D01*
X60175650Y-66595801D01*
X60102562Y-66575245D01*
X60036427Y-66541505D01*
X59978343Y-66495392D01*
X59930879Y-66438531D01*
X59893410Y-66369510D01*
X59867919Y-66294386D01*
X59851814Y-66208004D01*
X59846137Y-66108524D01*
X59846580Y-66101685D01*
X60259286Y-66101685D01*
X60266845Y-66185310D01*
X60286314Y-66241548D01*
X60314836Y-66278094D01*
X60352588Y-66299743D01*
X60402730Y-66307448D01*
X60445190Y-66301207D01*
X60480755Y-66283053D01*
X60511210Y-66251968D01*
X60532485Y-66212807D01*
X60546625Y-66160204D01*
X60551901Y-66090316D01*
X60551901Y-66064670D01*
X60547032Y-66007711D01*
X60533731Y-65963426D01*
X60513176Y-65929091D01*
X60484439Y-65902285D01*
X60450131Y-65886285D01*
X60408457Y-65880706D01*
X60367542Y-65887274D01*
X60332212Y-65906757D01*
X60300832Y-65940973D01*
X60278711Y-65983068D01*
X60264458Y-66035768D01*
X60259286Y-66101685D01*
X59846580Y-66101685D01*
X59852762Y-66006215D01*
X59871829Y-65914969D01*
X59902557Y-65833177D01*
X59946057Y-65757972D01*
X59998815Y-65696248D01*
X60061303Y-65646478D01*
X60132011Y-65609544D01*
X60208020Y-65587353D01*
X60290830Y-65579799D01*
X60349574Y-65584192D01*
X60402217Y-65596896D01*
X60450687Y-65617232D01*
X60491121Y-65642802D01*
X60523499Y-65673292D01*
X60539420Y-65700162D01*
X60543267Y-65700162D01*
X60543267Y-65131174D01*
X60950689Y-65131174D01*
X60950689Y-66581000D01*
G37*
G36*
X61723743Y-65586898D02*
G01*
X61809693Y-65607043D01*
X61883928Y-65639126D01*
X61950556Y-65684260D01*
X62004829Y-65739397D01*
X62047889Y-65805480D01*
X62078337Y-65878829D01*
X62097273Y-65961729D01*
X62103881Y-66055951D01*
X62103881Y-66208969D01*
X61498476Y-66208969D01*
X61510927Y-66246435D01*
X61534517Y-66278231D01*
X61571139Y-66305396D01*
X61614016Y-66323824D01*
X61667995Y-66335874D01*
X61735612Y-66340274D01*
X61829475Y-66334120D01*
X61919095Y-66315881D01*
X62005317Y-66285563D01*
X62005317Y-66543643D01*
X61904765Y-66575305D01*
X61785940Y-66595629D01*
X61645767Y-66602884D01*
X61517485Y-66593655D01*
X61410606Y-66567819D01*
X61321414Y-66527231D01*
X61246980Y-66472434D01*
X61185807Y-66402725D01*
X61141691Y-66321314D01*
X61114180Y-66225887D01*
X61104476Y-66113226D01*
X61111817Y-66010012D01*
X61115137Y-65995598D01*
X61496596Y-65995598D01*
X61743306Y-65995598D01*
X61736978Y-65927016D01*
X61720637Y-65880716D01*
X61696582Y-65850462D01*
X61664560Y-65832436D01*
X61621831Y-65825996D01*
X61590356Y-65831004D01*
X61562393Y-65846004D01*
X61536774Y-65872500D01*
X61510251Y-65924233D01*
X61496596Y-65995598D01*
X61115137Y-65995598D01*
X61132957Y-65918231D01*
X61167137Y-65836083D01*
X61215432Y-65762040D01*
X61276803Y-65699641D01*
X61352639Y-65647931D01*
X61436841Y-65610274D01*
X61526760Y-65587537D01*
X61623797Y-65579799D01*
X61723743Y-65586898D01*
G37*
G36*
X62980872Y-65951830D02*
G01*
X62918639Y-65933023D01*
X62853670Y-65924475D01*
X62790325Y-65931337D01*
X62741845Y-65950174D01*
X62704693Y-65979990D01*
X62676955Y-66022026D01*
X62658671Y-66079538D01*
X62651840Y-66157336D01*
X62651840Y-66581000D01*
X62244419Y-66581000D01*
X62244419Y-65601683D01*
X62651840Y-65601683D01*
X62651840Y-65771286D01*
X62655687Y-65771286D01*
X62685017Y-65713832D01*
X62720349Y-65668195D01*
X62761774Y-65632714D01*
X62809633Y-65606614D01*
X62862768Y-65590742D01*
X62922486Y-65585270D01*
X62954579Y-65588282D01*
X62980872Y-65596725D01*
X62980872Y-65951830D01*
G37*
G36*
X63732969Y-66581000D02*
G01*
X63732969Y-66045692D01*
X63724942Y-65962071D01*
X63705699Y-65914986D01*
X63684616Y-65893506D01*
X63655981Y-65880125D01*
X63617222Y-65875235D01*
X63584277Y-65879950D01*
X63557366Y-65893505D01*
X63534986Y-65916439D01*
X63513193Y-65961741D01*
X63505322Y-66021757D01*
X63505322Y-66581000D01*
X63097901Y-66581000D01*
X63097901Y-65601683D01*
X63505322Y-65601683D01*
X63505322Y-65754872D01*
X63509169Y-65754872D01*
X63545637Y-65703208D01*
X63589097Y-65660405D01*
X63640132Y-65625705D01*
X63696502Y-65600236D01*
X63755851Y-65584965D01*
X63819052Y-65579799D01*
X63905286Y-65588266D01*
X63974440Y-65611837D01*
X64030210Y-65649308D01*
X64074921Y-65701605D01*
X64109214Y-65771645D01*
X64131958Y-65863993D01*
X64140390Y-65984485D01*
X64140390Y-66581000D01*
X63732969Y-66581000D01*
G37*
G36*
X64901049Y-65586898D02*
G01*
X64986999Y-65607043D01*
X65061235Y-65639126D01*
X65127863Y-65684260D01*
X65182135Y-65739397D01*
X65225195Y-65805480D01*
X65255643Y-65878829D01*
X65274579Y-65961729D01*
X65281188Y-66055951D01*
X65281188Y-66208969D01*
X64675783Y-66208969D01*
X64688234Y-66246435D01*
X64711824Y-66278231D01*
X64748445Y-66305396D01*
X64791322Y-66323824D01*
X64845301Y-66335874D01*
X64912918Y-66340274D01*
X65006781Y-66334120D01*
X65096402Y-66315881D01*
X65182623Y-66285563D01*
X65182623Y-66543643D01*
X65082072Y-66575305D01*
X64963247Y-66595629D01*
X64823073Y-66602884D01*
X64694791Y-66593655D01*
X64587912Y-66567819D01*
X64498720Y-66527231D01*
X64424286Y-66472434D01*
X64363113Y-66402725D01*
X64318997Y-66321314D01*
X64291486Y-66225887D01*
X64281782Y-66113226D01*
X64289124Y-66010012D01*
X64292444Y-65995598D01*
X64673902Y-65995598D01*
X64920612Y-65995598D01*
X64914284Y-65927016D01*
X64897943Y-65880716D01*
X64873889Y-65850462D01*
X64841866Y-65832436D01*
X64799138Y-65825996D01*
X64767662Y-65831004D01*
X64739699Y-65846004D01*
X64714080Y-65872500D01*
X64687558Y-65924233D01*
X64673902Y-65995598D01*
X64292444Y-65995598D01*
X64310263Y-65918231D01*
X64344443Y-65836083D01*
X64392738Y-65762040D01*
X64454109Y-65699641D01*
X64529945Y-65647931D01*
X64614147Y-65610274D01*
X64704066Y-65587537D01*
X64801104Y-65579799D01*
X64901049Y-65586898D01*
G37*
G36*
X66158178Y-65951830D02*
G01*
X66095945Y-65933023D01*
X66030976Y-65924475D01*
X65967631Y-65931337D01*
X65919151Y-65950174D01*
X65882000Y-65979990D01*
X65854261Y-66022026D01*
X65835977Y-66079538D01*
X65829146Y-66157336D01*
X65829146Y-66581000D01*
X65421725Y-66581000D01*
X65421725Y-65601683D01*
X65829146Y-65601683D01*
X65829146Y-65771286D01*
X65832993Y-65771286D01*
X65862323Y-65713832D01*
X65897656Y-65668195D01*
X65939080Y-65632714D01*
X65986939Y-65606614D01*
X66040074Y-65590742D01*
X66099792Y-65585270D01*
X66131885Y-65588282D01*
X66158178Y-65596725D01*
X66158178Y-65951830D01*
G37*
G36*
X67336760Y-66581000D02*
G01*
X66929338Y-66581000D01*
X66929338Y-66466108D01*
X66925491Y-66466108D01*
X66869934Y-66522476D01*
X66798290Y-66566296D01*
X66719195Y-66594012D01*
X66643391Y-66602884D01*
X66561721Y-66595801D01*
X66488633Y-66575245D01*
X66422498Y-66541505D01*
X66364415Y-66495392D01*
X66316951Y-66438531D01*
X66279481Y-66369510D01*
X66253990Y-66294386D01*
X66237885Y-66208004D01*
X66232208Y-66108524D01*
X66232651Y-66101685D01*
X66645357Y-66101685D01*
X66652916Y-66185310D01*
X66672385Y-66241548D01*
X66700907Y-66278094D01*
X66738659Y-66299743D01*
X66788801Y-66307448D01*
X66831262Y-66301207D01*
X66866827Y-66283053D01*
X66897281Y-66251968D01*
X66918557Y-66212807D01*
X66932696Y-66160204D01*
X66937972Y-66090316D01*
X66937972Y-66064670D01*
X66933103Y-66007711D01*
X66919802Y-65963426D01*
X66899248Y-65929091D01*
X66870511Y-65902285D01*
X66836202Y-65886285D01*
X66794528Y-65880706D01*
X66753613Y-65887274D01*
X66718283Y-65906757D01*
X66686903Y-65940973D01*
X66664783Y-65983068D01*
X66650529Y-66035768D01*
X66645357Y-66101685D01*
X66232651Y-66101685D01*
X66238834Y-66006215D01*
X66257900Y-65914969D01*
X66288628Y-65833177D01*
X66332129Y-65757972D01*
X66384886Y-65696248D01*
X66447374Y-65646478D01*
X66518082Y-65609544D01*
X66594091Y-65587353D01*
X66676901Y-65579799D01*
X66735646Y-65584192D01*
X66788288Y-65596896D01*
X66836758Y-65617232D01*
X66877192Y-65642802D01*
X66909570Y-65673292D01*
X66925491Y-65700162D01*
X66929338Y-65700162D01*
X66929338Y-65131174D01*
X67336760Y-65131174D01*
X67336760Y-66581000D01*
G37*
D14*
G36*
X49248661Y-37353995D02*
G01*
X49239719Y-37439723D01*
X49214162Y-37512416D01*
X49172394Y-37574840D01*
X49112831Y-37628677D01*
X49043666Y-37668770D01*
X48959542Y-37699186D01*
X48857556Y-37718861D01*
X48734285Y-37725947D01*
X48659634Y-37722685D01*
X48559529Y-37711475D01*
X48460578Y-37694581D01*
X48389994Y-37676488D01*
X48389994Y-37368375D01*
X48522235Y-37420622D01*
X48628533Y-37448127D01*
X48713769Y-37456303D01*
X48779084Y-37450350D01*
X48816363Y-37436013D01*
X48835584Y-37416231D01*
X48841905Y-37390082D01*
X48834925Y-37365682D01*
X48812138Y-37344745D01*
X48770229Y-37325532D01*
X48656433Y-37285119D01*
X48566187Y-37249982D01*
X48500160Y-37211010D01*
X48453467Y-37168890D01*
X48418979Y-37117365D01*
X48397579Y-37055457D01*
X48389994Y-36980396D01*
X48398365Y-36902378D01*
X48422495Y-36835048D01*
X48462315Y-36776063D01*
X48519596Y-36724032D01*
X48585730Y-36685230D01*
X48666493Y-36655760D01*
X48764764Y-36636670D01*
X48883945Y-36629785D01*
X49022674Y-36639406D01*
X49174930Y-36669719D01*
X49174930Y-36963909D01*
X49108349Y-36938907D01*
X49033513Y-36917839D01*
X48959311Y-36903544D01*
X48904370Y-36899429D01*
X48863961Y-36903368D01*
X48835676Y-36913717D01*
X48816267Y-36931184D01*
X48810123Y-36953468D01*
X48816816Y-36979802D01*
X48837783Y-37001370D01*
X48872837Y-37018874D01*
X48948425Y-37045150D01*
X49053499Y-37082805D01*
X49128106Y-37123188D01*
X49178960Y-37165409D01*
X49217158Y-37217990D01*
X49240482Y-37279969D01*
X49248661Y-37353995D01*
G37*
G36*
X50093556Y-36637934D02*
G01*
X50200490Y-36661151D01*
X50293989Y-36698203D01*
X50379336Y-36750541D01*
X50448790Y-36813578D01*
X50504099Y-36887980D01*
X50544592Y-36971548D01*
X50569036Y-37061498D01*
X50577372Y-37159456D01*
X50570281Y-37265645D01*
X50550041Y-37358449D01*
X50517678Y-37439896D01*
X50473483Y-37511647D01*
X50416996Y-37574913D01*
X50332948Y-37638544D01*
X50232542Y-37685502D01*
X50112531Y-37715315D01*
X49968750Y-37725947D01*
X49825758Y-37715540D01*
X49706480Y-37686382D01*
X49606786Y-37640515D01*
X49523434Y-37578485D01*
X49455180Y-37499852D01*
X49405853Y-37407789D01*
X49375038Y-37299637D01*
X49364165Y-37171821D01*
X49806817Y-37171821D01*
X49815461Y-37265525D01*
X49837788Y-37328784D01*
X49870652Y-37370119D01*
X49914402Y-37394748D01*
X49972780Y-37403546D01*
X50028860Y-37394683D01*
X50071375Y-37369630D01*
X50103769Y-37326969D01*
X50126035Y-37260793D01*
X50134713Y-37161837D01*
X50126494Y-37078465D01*
X50105074Y-37021458D01*
X50073044Y-36983535D01*
X50029599Y-36960512D01*
X49970765Y-36952185D01*
X49912546Y-36960704D01*
X49869220Y-36984411D01*
X49836960Y-37023848D01*
X49815205Y-37083697D01*
X49806817Y-37171821D01*
X49364165Y-37171821D01*
X49364157Y-37171729D01*
X49372923Y-37062946D01*
X49398105Y-36967459D01*
X49438895Y-36882943D01*
X49495362Y-36808113D01*
X49565822Y-36745749D01*
X49652028Y-36695089D01*
X49746365Y-36659554D01*
X49851969Y-36637470D01*
X49970765Y-36629785D01*
X50093556Y-36637934D01*
G37*
G36*
X50740862Y-37702500D02*
G01*
X50740862Y-36149115D01*
X51177385Y-36149115D01*
X51177385Y-37702500D01*
X50740862Y-37702500D01*
G37*
G36*
X52524507Y-37702500D02*
G01*
X52087984Y-37702500D01*
X52087984Y-37579401D01*
X52083862Y-37579401D01*
X52024337Y-37639796D01*
X51947575Y-37686746D01*
X51862830Y-37716442D01*
X51781612Y-37725947D01*
X51694108Y-37718358D01*
X51615800Y-37696334D01*
X51544940Y-37660184D01*
X51482708Y-37610777D01*
X51431854Y-37549854D01*
X51391708Y-37475903D01*
X51364397Y-37395413D01*
X51347141Y-37302861D01*
X51341059Y-37196276D01*
X51341534Y-37188948D01*
X51783718Y-37188948D01*
X51791817Y-37278546D01*
X51812677Y-37338801D01*
X51843236Y-37377958D01*
X51883685Y-37401154D01*
X51937408Y-37409408D01*
X51982902Y-37402722D01*
X52021007Y-37383271D01*
X52053637Y-37349965D01*
X52076432Y-37308007D01*
X52091582Y-37251647D01*
X52097234Y-37176767D01*
X52097234Y-37149289D01*
X52092017Y-37088261D01*
X52077767Y-37040814D01*
X52055744Y-37004026D01*
X52024954Y-36975305D01*
X51988194Y-36958163D01*
X51943545Y-36952185D01*
X51899706Y-36959222D01*
X51861853Y-36980096D01*
X51828231Y-37016757D01*
X51804531Y-37061858D01*
X51789259Y-37118323D01*
X51783718Y-37188948D01*
X51341534Y-37188948D01*
X51348157Y-37086659D01*
X51368586Y-36988895D01*
X51401509Y-36901261D01*
X51448116Y-36820685D01*
X51504642Y-36754551D01*
X51571593Y-36701226D01*
X51647352Y-36661654D01*
X51728790Y-36637878D01*
X51817515Y-36629785D01*
X51880456Y-36634491D01*
X51936858Y-36648103D01*
X51988790Y-36669892D01*
X52032113Y-36697288D01*
X52066804Y-36729956D01*
X52083862Y-36758745D01*
X52087984Y-36758745D01*
X52087984Y-36149115D01*
X52524507Y-36149115D01*
X52524507Y-37702500D01*
G37*
G36*
X53352779Y-36637391D02*
G01*
X53444869Y-36658975D01*
X53524406Y-36693349D01*
X53595793Y-36741707D01*
X53653943Y-36800783D01*
X53700078Y-36871585D01*
X53732702Y-36950174D01*
X53752990Y-37038995D01*
X53760070Y-37139947D01*
X53760070Y-37303895D01*
X53111422Y-37303895D01*
X53124763Y-37344038D01*
X53150037Y-37378105D01*
X53189275Y-37407210D01*
X53235214Y-37426954D01*
X53293049Y-37439865D01*
X53365496Y-37444579D01*
X53466063Y-37437986D01*
X53562085Y-37418444D01*
X53654466Y-37385961D01*
X53654466Y-37662474D01*
X53546732Y-37696398D01*
X53419419Y-37718174D01*
X53269234Y-37725947D01*
X53131789Y-37716059D01*
X53017275Y-37688377D01*
X52921713Y-37644890D01*
X52841961Y-37586179D01*
X52776419Y-37511491D01*
X52729152Y-37424265D01*
X52699676Y-37322022D01*
X52689279Y-37201313D01*
X52697145Y-37090728D01*
X52700702Y-37075284D01*
X53109407Y-37075284D01*
X53373739Y-37075284D01*
X53366960Y-37001803D01*
X53349451Y-36952196D01*
X53323678Y-36919781D01*
X53289369Y-36900467D01*
X53243588Y-36893567D01*
X53209865Y-36898933D01*
X53179904Y-36915005D01*
X53152455Y-36943393D01*
X53124038Y-36998822D01*
X53109407Y-37075284D01*
X52700702Y-37075284D01*
X52719794Y-36992391D01*
X52756415Y-36904375D01*
X52808160Y-36825043D01*
X52873915Y-36758186D01*
X52955168Y-36702783D01*
X53045384Y-36662437D01*
X53141726Y-36638076D01*
X53245695Y-36629785D01*
X53352779Y-36637391D01*
G37*
G36*
X54699703Y-37028389D02*
G01*
X54633025Y-37008239D01*
X54563415Y-36999080D01*
X54495545Y-37006432D01*
X54443602Y-37026615D01*
X54403797Y-37058561D01*
X54374078Y-37103600D01*
X54354488Y-37165219D01*
X54347169Y-37248574D01*
X54347169Y-37702500D01*
X53910646Y-37702500D01*
X53910646Y-36653232D01*
X54347169Y-36653232D01*
X54347169Y-36834949D01*
X54351291Y-36834949D01*
X54382715Y-36773391D01*
X54420572Y-36724494D01*
X54464955Y-36686480D01*
X54516233Y-36658515D01*
X54573163Y-36641510D01*
X54637146Y-36635647D01*
X54671532Y-36638873D01*
X54699703Y-36647920D01*
X54699703Y-37028389D01*
G37*
G36*
X55505521Y-37702500D02*
G01*
X55505521Y-37128956D01*
X55496921Y-37039362D01*
X55476304Y-36988913D01*
X55453715Y-36965900D01*
X55423034Y-36951562D01*
X55381507Y-36946324D01*
X55346208Y-36951375D01*
X55317375Y-36965898D01*
X55293396Y-36990471D01*
X55270047Y-37039009D01*
X55261614Y-37103311D01*
X55261614Y-37702500D01*
X54825091Y-37702500D01*
X54825091Y-36653232D01*
X55261614Y-36653232D01*
X55261614Y-36817363D01*
X55265736Y-36817363D01*
X55304808Y-36762009D01*
X55351373Y-36716148D01*
X55406053Y-36678969D01*
X55466449Y-36651682D01*
X55530038Y-36635319D01*
X55597753Y-36629785D01*
X55690147Y-36638856D01*
X55764240Y-36664111D01*
X55823993Y-36704259D01*
X55871898Y-36760291D01*
X55908641Y-36835334D01*
X55933010Y-36934279D01*
X55942044Y-37063377D01*
X55942044Y-37702500D01*
X55505521Y-37702500D01*
G37*
G36*
X56757036Y-36637391D02*
G01*
X56849125Y-36658975D01*
X56928663Y-36693349D01*
X57000050Y-36741707D01*
X57058199Y-36800783D01*
X57104335Y-36871585D01*
X57136958Y-36950174D01*
X57157247Y-37038995D01*
X57164327Y-37139947D01*
X57164327Y-37303895D01*
X56515679Y-37303895D01*
X56529019Y-37344038D01*
X56554294Y-37378105D01*
X56593531Y-37407210D01*
X56639471Y-37426954D01*
X56697306Y-37439865D01*
X56769753Y-37444579D01*
X56870320Y-37437986D01*
X56966342Y-37418444D01*
X57058722Y-37385961D01*
X57058722Y-37662474D01*
X56950988Y-37696398D01*
X56823676Y-37718174D01*
X56673490Y-37725947D01*
X56536045Y-37716059D01*
X56421532Y-37688377D01*
X56325969Y-37644890D01*
X56246218Y-37586179D01*
X56180676Y-37511491D01*
X56133409Y-37424265D01*
X56103933Y-37322022D01*
X56093536Y-37201313D01*
X56101401Y-37090728D01*
X56104958Y-37075284D01*
X56513664Y-37075284D01*
X56777996Y-37075284D01*
X56771216Y-37001803D01*
X56753708Y-36952196D01*
X56727935Y-36919781D01*
X56693626Y-36900467D01*
X56647845Y-36893567D01*
X56614122Y-36898933D01*
X56584161Y-36915005D01*
X56556712Y-36943393D01*
X56528295Y-36998822D01*
X56513664Y-37075284D01*
X56104958Y-37075284D01*
X56124051Y-36992391D01*
X56160672Y-36904375D01*
X56212417Y-36825043D01*
X56278171Y-36758186D01*
X56359425Y-36702783D01*
X56449641Y-36662437D01*
X56545983Y-36638076D01*
X56649952Y-36629785D01*
X56757036Y-36637391D01*
G37*
G36*
X58103960Y-37028389D02*
G01*
X58037281Y-37008239D01*
X57967672Y-36999080D01*
X57899802Y-37006432D01*
X57847859Y-37026615D01*
X57808054Y-37058561D01*
X57778335Y-37103600D01*
X57758745Y-37165219D01*
X57751426Y-37248574D01*
X57751426Y-37702500D01*
X57314903Y-37702500D01*
X57314903Y-36653232D01*
X57751426Y-36653232D01*
X57751426Y-36834949D01*
X57755547Y-36834949D01*
X57786972Y-36773391D01*
X57824829Y-36724494D01*
X57869212Y-36686480D01*
X57920489Y-36658515D01*
X57977420Y-36641510D01*
X58041403Y-36635647D01*
X58075789Y-36638873D01*
X58103960Y-36647920D01*
X58103960Y-37028389D01*
G37*
G36*
X59366726Y-37702500D02*
G01*
X58930203Y-37702500D01*
X58930203Y-37579401D01*
X58926081Y-37579401D01*
X58866556Y-37639796D01*
X58789794Y-37686746D01*
X58705049Y-37716442D01*
X58623831Y-37725947D01*
X58536327Y-37718358D01*
X58458019Y-37696334D01*
X58387159Y-37660184D01*
X58324927Y-37610777D01*
X58274073Y-37549854D01*
X58233927Y-37475903D01*
X58206616Y-37395413D01*
X58189360Y-37302861D01*
X58183278Y-37196276D01*
X58183753Y-37188948D01*
X58625937Y-37188948D01*
X58634036Y-37278546D01*
X58654896Y-37338801D01*
X58685455Y-37377958D01*
X58725904Y-37401154D01*
X58779627Y-37409408D01*
X58825121Y-37402722D01*
X58863226Y-37383271D01*
X58895856Y-37349965D01*
X58918651Y-37308007D01*
X58933801Y-37251647D01*
X58939453Y-37176767D01*
X58939453Y-37149289D01*
X58934236Y-37088261D01*
X58919986Y-37040814D01*
X58897963Y-37004026D01*
X58867173Y-36975305D01*
X58830414Y-36958163D01*
X58785764Y-36952185D01*
X58741925Y-36959222D01*
X58704072Y-36980096D01*
X58670451Y-37016757D01*
X58646750Y-37061858D01*
X58631479Y-37118323D01*
X58625937Y-37188948D01*
X58183753Y-37188948D01*
X58190376Y-37086659D01*
X58210805Y-36988895D01*
X58243728Y-36901261D01*
X58290335Y-36820685D01*
X58346861Y-36754551D01*
X58413812Y-36701226D01*
X58489571Y-36661654D01*
X58571009Y-36637878D01*
X58659734Y-36629785D01*
X58722675Y-36634491D01*
X58779078Y-36648103D01*
X58831009Y-36669892D01*
X58874332Y-36697288D01*
X58909023Y-36729956D01*
X58926081Y-36758745D01*
X58930203Y-36758745D01*
X58930203Y-36149115D01*
X59366726Y-36149115D01*
X59366726Y-37702500D01*
G37*
G36*
X60052010Y-37517669D02*
G01*
X60044446Y-37576975D01*
X60022711Y-37626476D01*
X59986431Y-37668519D01*
X59939549Y-37699283D01*
X59880242Y-37718857D01*
X59805081Y-37725947D01*
X59737023Y-37718846D01*
X59680276Y-37698690D01*
X59632432Y-37665955D01*
X59594835Y-37622350D01*
X59572804Y-37573558D01*
X59565295Y-37517669D01*
X59572847Y-37460581D01*
X59594652Y-37412634D01*
X59631332Y-37371581D01*
X59678372Y-37341474D01*
X59736664Y-37322455D01*
X59809202Y-37315619D01*
X59879581Y-37322366D01*
X59937266Y-37341306D01*
X59984874Y-37371581D01*
X60022220Y-37412716D01*
X60044357Y-37460662D01*
X60052010Y-37517669D01*
G37*
G36*
X61113551Y-37670168D02*
G01*
X61064861Y-37690969D01*
X60981293Y-37710468D01*
X60887728Y-37721813D01*
X60773381Y-37725947D01*
X60664368Y-37718183D01*
X60566045Y-37695688D01*
X60476718Y-37659085D01*
X60395421Y-37607970D01*
X60328462Y-37545802D01*
X60274393Y-37471782D01*
X60234825Y-37388944D01*
X60210867Y-37299333D01*
X60202677Y-37201313D01*
X60211741Y-37083628D01*
X60237563Y-36981989D01*
X60278973Y-36893659D01*
X60336779Y-36815300D01*
X60408779Y-36750263D01*
X60496685Y-36697654D01*
X60593162Y-36660767D01*
X60701761Y-36637796D01*
X60824581Y-36629785D01*
X60924436Y-36633347D01*
X61008496Y-36643249D01*
X61082272Y-36659730D01*
X61113551Y-36674115D01*
X61113551Y-37016666D01*
X61076311Y-36993959D01*
X61019303Y-36971694D01*
X60958612Y-36956805D01*
X60905547Y-36952185D01*
X60822168Y-36959766D01*
X60758990Y-36980297D01*
X60711374Y-37011903D01*
X60675508Y-37055666D01*
X60653290Y-37110545D01*
X60645337Y-37179881D01*
X60653160Y-37247915D01*
X60675031Y-37301844D01*
X60710367Y-37344928D01*
X60757020Y-37376444D01*
X60815523Y-37396363D01*
X60889153Y-37403546D01*
X60968858Y-37396933D01*
X61043270Y-37377420D01*
X61113551Y-37344928D01*
X61113551Y-37670168D01*
G37*
G36*
X61971085Y-36637934D02*
G01*
X62078020Y-36661151D01*
X62171519Y-36698203D01*
X62256865Y-36750541D01*
X62326320Y-36813578D01*
X62381629Y-36887980D01*
X62422122Y-36971548D01*
X62446565Y-37061498D01*
X62454902Y-37159456D01*
X62447811Y-37265645D01*
X62427571Y-37358449D01*
X62395208Y-37439896D01*
X62351013Y-37511647D01*
X62294526Y-37574913D01*
X62210477Y-37638544D01*
X62110072Y-37685502D01*
X61990061Y-37715315D01*
X61846279Y-37725947D01*
X61703288Y-37715540D01*
X61584009Y-37686382D01*
X61484315Y-37640515D01*
X61400963Y-37578485D01*
X61332710Y-37499852D01*
X61283383Y-37407789D01*
X61252568Y-37299637D01*
X61241695Y-37171821D01*
X61684346Y-37171821D01*
X61692991Y-37265525D01*
X61715318Y-37328784D01*
X61748182Y-37370119D01*
X61791932Y-37394748D01*
X61850309Y-37403546D01*
X61906390Y-37394683D01*
X61948904Y-37369630D01*
X61981299Y-37326969D01*
X62003564Y-37260793D01*
X62012242Y-37161837D01*
X62004023Y-37078465D01*
X61982604Y-37021458D01*
X61950574Y-36983535D01*
X61907129Y-36960512D01*
X61848294Y-36952185D01*
X61790076Y-36960704D01*
X61746750Y-36984411D01*
X61714490Y-37023848D01*
X61692735Y-37083697D01*
X61684346Y-37171821D01*
X61241695Y-37171821D01*
X61241687Y-37171729D01*
X61250453Y-37062946D01*
X61275634Y-36967459D01*
X61316425Y-36882943D01*
X61372892Y-36808113D01*
X61443352Y-36745749D01*
X61529557Y-36695089D01*
X61623894Y-36659554D01*
X61729499Y-36637470D01*
X61848294Y-36629785D01*
X61971085Y-36637934D01*
G37*
G36*
X63979160Y-37702500D02*
G01*
X63979160Y-37097174D01*
X63971435Y-37027173D01*
X63951958Y-36983784D01*
X63931152Y-36963687D01*
X63902525Y-36950999D01*
X63863389Y-36946324D01*
X63825390Y-36951599D01*
X63794562Y-36966689D01*
X63769142Y-36992028D01*
X63744599Y-37043572D01*
X63735345Y-37118698D01*
X63735345Y-37702500D01*
X63298822Y-37702500D01*
X63298822Y-37107432D01*
X63289969Y-37028880D01*
X63267852Y-36981688D01*
X63235242Y-36955486D01*
X63189187Y-36946324D01*
X63147112Y-36951878D01*
X63114380Y-36967446D01*
X63088712Y-36993035D01*
X63064316Y-37046181D01*
X63054915Y-37126941D01*
X63054915Y-37702500D01*
X62618392Y-37702500D01*
X62618392Y-36653232D01*
X63054915Y-36653232D01*
X63054915Y-36817363D01*
X63059037Y-36817363D01*
X63089143Y-36775827D01*
X63137347Y-36729619D01*
X63194329Y-36689388D01*
X63258797Y-36657354D01*
X63328596Y-36636806D01*
X63405342Y-36629785D01*
X63478805Y-36635007D01*
X63540842Y-36649706D01*
X63593379Y-36672924D01*
X63640161Y-36706025D01*
X63682624Y-36750830D01*
X63720965Y-36809212D01*
X63761995Y-36756098D01*
X63810916Y-36712042D01*
X63868518Y-36676405D01*
X63931475Y-36650760D01*
X63999466Y-36635135D01*
X64073499Y-36629785D01*
X64154544Y-36637137D01*
X64222113Y-36657880D01*
X64278847Y-36691078D01*
X64326565Y-36737221D01*
X64362905Y-36792527D01*
X64390411Y-36860716D01*
X64408232Y-36944456D01*
X64414676Y-37046982D01*
X64414676Y-37702500D01*
X63979160Y-37702500D01*
G37*
G36*
X49448696Y-40222500D02*
G01*
X49448696Y-38751181D01*
X49891355Y-38751181D01*
X49891355Y-39876652D01*
X50397579Y-39876652D01*
X50397579Y-40222500D01*
X49448696Y-40222500D01*
G37*
G36*
X50584425Y-40222500D02*
G01*
X50584425Y-38751181D01*
X51499511Y-38751181D01*
X51499511Y-39097028D01*
X51027084Y-39097028D01*
X51027084Y-39313916D01*
X51470843Y-39313916D01*
X51470843Y-39659764D01*
X51027084Y-39659764D01*
X51027084Y-39876652D01*
X51533308Y-39876652D01*
X51533308Y-40222500D01*
X50584425Y-40222500D01*
G37*
G36*
X52579370Y-40222500D02*
G01*
X52082397Y-40222500D01*
X51607955Y-38751181D01*
X52084412Y-38751181D01*
X52308810Y-39659306D01*
X52330876Y-39762826D01*
X52338577Y-39823895D01*
X52348835Y-39823895D01*
X52359011Y-39751331D01*
X52380617Y-39653169D01*
X52598879Y-38751181D01*
X53059948Y-38751181D01*
X52579370Y-40222500D01*
G37*
G36*
X53216386Y-40222500D02*
G01*
X53216386Y-38751181D01*
X54131472Y-38751181D01*
X54131472Y-39097028D01*
X53659045Y-39097028D01*
X53659045Y-39313916D01*
X54102804Y-39313916D01*
X54102804Y-39659764D01*
X53659045Y-39659764D01*
X53659045Y-39876652D01*
X54165269Y-39876652D01*
X54165269Y-40222500D01*
X53216386Y-40222500D01*
G37*
G36*
X54374097Y-40222500D02*
G01*
X54374097Y-38751181D01*
X54816757Y-38751181D01*
X54816757Y-39876652D01*
X55322980Y-39876652D01*
X55322980Y-40222500D01*
X54374097Y-40222500D01*
G37*
G36*
X56252721Y-39097028D02*
G01*
X56252721Y-40222500D01*
X55808047Y-40222500D01*
X55808047Y-39097028D01*
X55397169Y-39097028D01*
X55397169Y-38751181D01*
X56668819Y-38751181D01*
X56668819Y-39097028D01*
X56252721Y-39097028D01*
G37*
G36*
X57592469Y-38759040D02*
G01*
X57717513Y-38780288D01*
X57814388Y-38812027D01*
X57888446Y-38852297D01*
X57952261Y-38908513D01*
X57997519Y-38976057D01*
X58025594Y-39057169D01*
X58035541Y-39155464D01*
X58025531Y-39253593D01*
X57996862Y-39337408D01*
X57949995Y-39409904D01*
X57886913Y-39469612D01*
X57803502Y-39519419D01*
X57695372Y-39558647D01*
X57695372Y-39562769D01*
X57781621Y-39600998D01*
X57850619Y-39656192D01*
X57906312Y-39731129D01*
X57961811Y-39847984D01*
X58106250Y-40222500D01*
X57607262Y-40222500D01*
X57497535Y-39906236D01*
X57459525Y-39820332D01*
X57415103Y-39759873D01*
X57378760Y-39729297D01*
X57342419Y-39712213D01*
X57304919Y-39706659D01*
X57287517Y-39706659D01*
X57287517Y-40222500D01*
X56844858Y-40222500D01*
X56844858Y-39395982D01*
X57287517Y-39395982D01*
X57367476Y-39395982D01*
X57424903Y-39389924D01*
X57471967Y-39372842D01*
X57510908Y-39345240D01*
X57541103Y-39308437D01*
X57559045Y-39266472D01*
X57565221Y-39217654D01*
X57559835Y-39169858D01*
X57544670Y-39131190D01*
X57520067Y-39099593D01*
X57487215Y-39076756D01*
X57441509Y-39061665D01*
X57378742Y-39055996D01*
X57287517Y-39055996D01*
X57287517Y-39395982D01*
X56844858Y-39395982D01*
X56844858Y-38751181D01*
X57433055Y-38751181D01*
X57592469Y-38759040D01*
G37*
G36*
X59087050Y-38738540D02*
G01*
X59212160Y-38769964D01*
X59326426Y-38821431D01*
X59404978Y-38873259D01*
X59473582Y-38934615D01*
X59533004Y-39006073D01*
X59583614Y-39088602D01*
X59633295Y-39207323D01*
X59663778Y-39337786D01*
X59674289Y-39482260D01*
X59663273Y-39627192D01*
X59631268Y-39758301D01*
X59578942Y-39877934D01*
X59526186Y-39960840D01*
X59464528Y-40033178D01*
X59393558Y-40095808D01*
X59312504Y-40149227D01*
X59195134Y-40202526D01*
X59068152Y-40234878D01*
X58929379Y-40245947D01*
X58793828Y-40235271D01*
X58668955Y-40203987D01*
X58552756Y-40152341D01*
X58472348Y-40100503D01*
X58402040Y-40039726D01*
X58341032Y-39969561D01*
X58288882Y-39889200D01*
X58237106Y-39772995D01*
X58205500Y-39645956D01*
X58194635Y-39505799D01*
X58195900Y-39488855D01*
X58665047Y-39488855D01*
X58674332Y-39607079D01*
X58699601Y-39698932D01*
X58738320Y-39769948D01*
X58778777Y-39814528D01*
X58824622Y-39845510D01*
X58876934Y-39864280D01*
X58937530Y-39870790D01*
X58987281Y-39865714D01*
X59033039Y-39850731D01*
X59075833Y-39825544D01*
X59129403Y-39771858D01*
X59171179Y-39695851D01*
X59195986Y-39606593D01*
X59204976Y-39495083D01*
X59196150Y-39375208D01*
X59172088Y-39281239D01*
X59135275Y-39207945D01*
X59096271Y-39161039D01*
X59052308Y-39128860D01*
X59002410Y-39109554D01*
X58944766Y-39102890D01*
X58880852Y-39109520D01*
X58826424Y-39128499D01*
X58779476Y-39159545D01*
X58738778Y-39203824D01*
X58699943Y-39274871D01*
X58674457Y-39367887D01*
X58665047Y-39488855D01*
X58195900Y-39488855D01*
X58205617Y-39358736D01*
X58237576Y-39225030D01*
X58289890Y-39102432D01*
X58342906Y-39017189D01*
X58404841Y-38943206D01*
X58476066Y-38879519D01*
X58557336Y-38825553D01*
X58645016Y-38783300D01*
X58738828Y-38752809D01*
X58839720Y-38734131D01*
X58948796Y-38727733D01*
X59087050Y-38738540D01*
G37*
G36*
X60909486Y-40222500D02*
G01*
X60390989Y-39512669D01*
X60290605Y-39360811D01*
X60286483Y-39360811D01*
X60292620Y-39604993D01*
X60292620Y-40222500D01*
X59882750Y-40222500D01*
X59882750Y-38751181D01*
X60300863Y-38751181D01*
X60797836Y-39425566D01*
X60820368Y-39457348D01*
X60847021Y-39495266D01*
X60872117Y-39533185D01*
X60890069Y-39565975D01*
X60894190Y-39565975D01*
X60887962Y-39410178D01*
X60887962Y-38751181D01*
X61297832Y-38751181D01*
X61297832Y-40222500D01*
X60909486Y-40222500D01*
G37*
G36*
X61587077Y-40222500D02*
G01*
X61587077Y-38751181D01*
X62029736Y-38751181D01*
X62029736Y-40222500D01*
X61587077Y-40222500D01*
G37*
G36*
X63411754Y-40180734D02*
G01*
X63288454Y-40215963D01*
X63148842Y-40238162D01*
X62990618Y-40245947D01*
X62836229Y-40235269D01*
X62702366Y-40204879D01*
X62585786Y-40156371D01*
X62505067Y-40106340D01*
X62435452Y-40047512D01*
X62375962Y-39979491D01*
X62326033Y-39901473D01*
X62277048Y-39788135D01*
X62246839Y-39661845D01*
X62236366Y-39520088D01*
X62242961Y-39404329D01*
X62262183Y-39297574D01*
X62293488Y-39198653D01*
X62336750Y-39106554D01*
X62392414Y-39020756D01*
X62457862Y-38946011D01*
X62533611Y-38881436D01*
X62620590Y-38826560D01*
X62713654Y-38784124D01*
X62814306Y-38753284D01*
X62923619Y-38734275D01*
X63042825Y-38727733D01*
X63169274Y-38732945D01*
X63292094Y-38748431D01*
X63411754Y-38774078D01*
X63411754Y-39184956D01*
X63346139Y-39151152D01*
X63265208Y-39124506D01*
X63179535Y-39108284D01*
X63093017Y-39102890D01*
X63003640Y-39110046D01*
X62927982Y-39130279D01*
X62863591Y-39162531D01*
X62808627Y-39206846D01*
X62764216Y-39261785D01*
X62731973Y-39325820D01*
X62711793Y-39400722D01*
X62704671Y-39488855D01*
X62711803Y-39576520D01*
X62731991Y-39650830D01*
X62764228Y-39714190D01*
X62808627Y-39768391D01*
X62863543Y-39812242D01*
X62927030Y-39844001D01*
X63000740Y-39863817D01*
X63086880Y-39870790D01*
X63192390Y-39862024D01*
X63300236Y-39835169D01*
X63411754Y-39788724D01*
X63411754Y-40180734D01*
G37*
G36*
X49968018Y-42742500D02*
G01*
X49968018Y-42624805D01*
X49976197Y-42504541D01*
X49998701Y-42407734D01*
X50037867Y-42319170D01*
X50095512Y-42234719D01*
X50176318Y-42151255D01*
X50325681Y-42026898D01*
X50431764Y-41940035D01*
X50480836Y-41894366D01*
X50515464Y-41853125D01*
X50538264Y-41816056D01*
X50552439Y-41776796D01*
X50557223Y-41734082D01*
X50550009Y-41680848D01*
X50530225Y-41641928D01*
X50498042Y-41613598D01*
X50450262Y-41594862D01*
X50381002Y-41587719D01*
X50294121Y-41595485D01*
X50209390Y-41618862D01*
X50125593Y-41658680D01*
X50041749Y-41716680D01*
X50041749Y-41358558D01*
X50163065Y-41304970D01*
X50269719Y-41272371D01*
X50376863Y-41253931D01*
X50487522Y-41247733D01*
X50608108Y-41255956D01*
X50707851Y-41278871D01*
X50790341Y-41314626D01*
X50858466Y-41362497D01*
X50914758Y-41424080D01*
X50955333Y-41496597D01*
X50980667Y-41582231D01*
X50989624Y-41684073D01*
X50981429Y-41787987D01*
X50958159Y-41876901D01*
X50920931Y-41953442D01*
X50868621Y-42021231D01*
X50786368Y-42097547D01*
X50665758Y-42183886D01*
X50536325Y-42271562D01*
X50476714Y-42318616D01*
X50439173Y-42361579D01*
X50429087Y-42390790D01*
X51002905Y-42390790D01*
X51002905Y-42742500D01*
X49968018Y-42742500D01*
G37*
G36*
X51898322Y-41256838D02*
G01*
X51993641Y-41282594D01*
X52074918Y-41323710D01*
X52144487Y-41380355D01*
X52203687Y-41454138D01*
X52252743Y-41547966D01*
X52290745Y-41665839D01*
X52315735Y-41812648D01*
X52324839Y-41994017D01*
X52317867Y-42151547D01*
X52298396Y-42284653D01*
X52268265Y-42396668D01*
X52228820Y-42490573D01*
X52180858Y-42568934D01*
X52118527Y-42639334D01*
X52046899Y-42693544D01*
X51964742Y-42732848D01*
X51870067Y-42757346D01*
X51760272Y-42765947D01*
X51646579Y-42757774D01*
X51550003Y-42734698D01*
X51467695Y-42698126D01*
X51397395Y-42648402D01*
X51337579Y-42584780D01*
X51291660Y-42512902D01*
X51253483Y-42424196D01*
X51223978Y-42315570D01*
X51204693Y-42183417D01*
X51197719Y-42023693D01*
X51198115Y-42015083D01*
X51630121Y-42015083D01*
X51639377Y-42222006D01*
X51661353Y-42342888D01*
X51689578Y-42407314D01*
X51722199Y-42439398D01*
X51760272Y-42449408D01*
X51797867Y-42438956D01*
X51831315Y-42404543D01*
X51861517Y-42333588D01*
X51884814Y-42205653D01*
X51894453Y-41994475D01*
X51885312Y-41788625D01*
X51863678Y-41669235D01*
X51835819Y-41606007D01*
X51803070Y-41574263D01*
X51764302Y-41564272D01*
X51726612Y-41574687D01*
X51693146Y-41608904D01*
X51662980Y-41679305D01*
X51639734Y-41806054D01*
X51630121Y-42015083D01*
X51198115Y-42015083D01*
X51205014Y-41865201D01*
X51225391Y-41731328D01*
X51256957Y-41618665D01*
X51298359Y-41524181D01*
X51348845Y-41445295D01*
X51413831Y-41374931D01*
X51488376Y-41320561D01*
X51573779Y-41281047D01*
X51672059Y-41256389D01*
X51785826Y-41247733D01*
X51898322Y-41256838D01*
G37*
G36*
X52482742Y-42742500D02*
G01*
X52482742Y-42624805D01*
X52490921Y-42504541D01*
X52513425Y-42407734D01*
X52552591Y-42319170D01*
X52610237Y-42234719D01*
X52691043Y-42151255D01*
X52840405Y-42026898D01*
X52946488Y-41940035D01*
X52995560Y-41894366D01*
X53030188Y-41853125D01*
X53052988Y-41816056D01*
X53067163Y-41776796D01*
X53071947Y-41734082D01*
X53064734Y-41680848D01*
X53044949Y-41641928D01*
X53012767Y-41613598D01*
X52964986Y-41594862D01*
X52895726Y-41587719D01*
X52808845Y-41595485D01*
X52724114Y-41618862D01*
X52640318Y-41658680D01*
X52556473Y-41716680D01*
X52556473Y-41358558D01*
X52677789Y-41304970D01*
X52784443Y-41272371D01*
X52891588Y-41253931D01*
X53002247Y-41247733D01*
X53122832Y-41255956D01*
X53222575Y-41278871D01*
X53305065Y-41314626D01*
X53373190Y-41362497D01*
X53429483Y-41424080D01*
X53470057Y-41496597D01*
X53495392Y-41582231D01*
X53504349Y-41684073D01*
X53496153Y-41787987D01*
X53472883Y-41876901D01*
X53435656Y-41953442D01*
X53383345Y-42021231D01*
X53301092Y-42097547D01*
X53180483Y-42183886D01*
X53051050Y-42271562D01*
X52991439Y-42318616D01*
X52953898Y-42361579D01*
X52943811Y-42390790D01*
X53517630Y-42390790D01*
X53517630Y-42742500D01*
X52482742Y-42742500D01*
G37*
G36*
X54572656Y-41252634D02*
G01*
X54661477Y-41265911D01*
X54730936Y-41285744D01*
X54730936Y-41628752D01*
X54660735Y-41593517D01*
X54581470Y-41571819D01*
X54491151Y-41564272D01*
X54401539Y-41574954D01*
X54326682Y-41605519D01*
X54263181Y-41656046D01*
X54214544Y-41721860D01*
X54182057Y-41801512D01*
X54166369Y-41898396D01*
X54172506Y-41898396D01*
X54228362Y-41845621D01*
X54294761Y-41807559D01*
X54373832Y-41783743D01*
X54468620Y-41775298D01*
X54552699Y-41783652D01*
X54624936Y-41807609D01*
X54687764Y-41846753D01*
X54742752Y-41902335D01*
X54785479Y-41967973D01*
X54816914Y-42043871D01*
X54836704Y-42131874D01*
X54843685Y-42234261D01*
X54835949Y-42330841D01*
X54813213Y-42420378D01*
X54775541Y-42504271D01*
X54723864Y-42579972D01*
X54660022Y-42643677D01*
X54582834Y-42696338D01*
X54497521Y-42734772D01*
X54405996Y-42758020D01*
X54306778Y-42765947D01*
X54199175Y-42758060D01*
X54105956Y-42735586D01*
X54024771Y-42699611D01*
X53953762Y-42650242D01*
X53891687Y-42586612D01*
X53831413Y-42494174D01*
X53786023Y-42381611D01*
X53759357Y-42256975D01*
X54176627Y-42256975D01*
X54186021Y-42330923D01*
X54211981Y-42386851D01*
X54238585Y-42415744D01*
X54268359Y-42432162D01*
X54302657Y-42437684D01*
X54338961Y-42432059D01*
X54369173Y-42415651D01*
X54394889Y-42387309D01*
X54419445Y-42331089D01*
X54428686Y-42250747D01*
X54420105Y-42174350D01*
X54397453Y-42121512D01*
X54373356Y-42095494D01*
X54342497Y-42079823D01*
X54302657Y-42074251D01*
X54264990Y-42079879D01*
X54234512Y-42096066D01*
X54209417Y-42123619D01*
X54185592Y-42178563D01*
X54176627Y-42256975D01*
X53759357Y-42256975D01*
X53756770Y-42244886D01*
X53746241Y-42079105D01*
X53756594Y-41915579D01*
X53786381Y-41769658D01*
X53834351Y-41638827D01*
X53884317Y-41546182D01*
X53942102Y-41467627D01*
X54007753Y-41401653D01*
X54081739Y-41347201D01*
X54163064Y-41304591D01*
X54252427Y-41273577D01*
X54351072Y-41254379D01*
X54460468Y-41247733D01*
X54572656Y-41252634D01*
G37*
G36*
X55635032Y-42338033D02*
G01*
X55635032Y-42044942D01*
X56195478Y-42044942D01*
X56195478Y-42338033D01*
X55635032Y-42338033D01*
G37*
G36*
X57818150Y-41279040D02*
G01*
X57943195Y-41300288D01*
X58040069Y-41332027D01*
X58114127Y-41372297D01*
X58177942Y-41428513D01*
X58223200Y-41496057D01*
X58251275Y-41577169D01*
X58261223Y-41675464D01*
X58251212Y-41773593D01*
X58222543Y-41857408D01*
X58175676Y-41929904D01*
X58112594Y-41989612D01*
X58029183Y-42039419D01*
X57921053Y-42078647D01*
X57921053Y-42082769D01*
X58007303Y-42120998D01*
X58076300Y-42176192D01*
X58131993Y-42251129D01*
X58187492Y-42367984D01*
X58331931Y-42742500D01*
X57832943Y-42742500D01*
X57723217Y-42426236D01*
X57685206Y-42340332D01*
X57640785Y-42279873D01*
X57604441Y-42249297D01*
X57568100Y-42232213D01*
X57530601Y-42226659D01*
X57513198Y-42226659D01*
X57513198Y-42742500D01*
X57070539Y-42742500D01*
X57070539Y-41915982D01*
X57513198Y-41915982D01*
X57593157Y-41915982D01*
X57650584Y-41909924D01*
X57697648Y-41892842D01*
X57736589Y-41865240D01*
X57766784Y-41828437D01*
X57784726Y-41786472D01*
X57790902Y-41737654D01*
X57785516Y-41689858D01*
X57770351Y-41651190D01*
X57745748Y-41619593D01*
X57712897Y-41596756D01*
X57667190Y-41581665D01*
X57604423Y-41575996D01*
X57513198Y-41575996D01*
X57513198Y-41915982D01*
X57070539Y-41915982D01*
X57070539Y-41271181D01*
X57658736Y-41271181D01*
X57818150Y-41279040D01*
G37*
G36*
X59079786Y-41677391D02*
G01*
X59171876Y-41698975D01*
X59251414Y-41733349D01*
X59322801Y-41781707D01*
X59380950Y-41840783D01*
X59427085Y-41911585D01*
X59459709Y-41990174D01*
X59479997Y-42078995D01*
X59487077Y-42179947D01*
X59487077Y-42343895D01*
X58838429Y-42343895D01*
X58851770Y-42384038D01*
X58877045Y-42418105D01*
X58916282Y-42447210D01*
X58962221Y-42466954D01*
X59020056Y-42479865D01*
X59092503Y-42484579D01*
X59193070Y-42477986D01*
X59289093Y-42458444D01*
X59381473Y-42425961D01*
X59381473Y-42702474D01*
X59273739Y-42736398D01*
X59146426Y-42758174D01*
X58996241Y-42765947D01*
X58858796Y-42756059D01*
X58744282Y-42728377D01*
X58648720Y-42684890D01*
X58568969Y-42626179D01*
X58503426Y-42551491D01*
X58456159Y-42464265D01*
X58426683Y-42362022D01*
X58416286Y-42241313D01*
X58424152Y-42130728D01*
X58427709Y-42115284D01*
X58836414Y-42115284D01*
X59100746Y-42115284D01*
X59093967Y-42041803D01*
X59076458Y-41992196D01*
X59050686Y-41959781D01*
X59016376Y-41940467D01*
X58970595Y-41933567D01*
X58936872Y-41938933D01*
X58906911Y-41955005D01*
X58879462Y-41983393D01*
X58851046Y-42038822D01*
X58836414Y-42115284D01*
X58427709Y-42115284D01*
X58446801Y-42032391D01*
X58483422Y-41944375D01*
X58535167Y-41865043D01*
X58600922Y-41798186D01*
X58682175Y-41742783D01*
X58772391Y-41702437D01*
X58868733Y-41678076D01*
X58972702Y-41669785D01*
X59079786Y-41677391D01*
G37*
G36*
X60402072Y-42742500D02*
G01*
X59883575Y-42742500D01*
X59533148Y-41693232D01*
X59988081Y-41693232D01*
X60116216Y-42265127D01*
X60141437Y-42395098D01*
X60150014Y-42472855D01*
X60156150Y-42472855D01*
X60161829Y-42430907D01*
X60313962Y-41693232D01*
X60766879Y-41693232D01*
X60402072Y-42742500D01*
G37*
G36*
X62896555Y-42742500D02*
G01*
X62415977Y-42742500D01*
X62351405Y-42472855D01*
X61912867Y-42472855D01*
X61843166Y-42742500D01*
X61364694Y-42742500D01*
X61566377Y-42156317D01*
X61988704Y-42156317D01*
X62269431Y-42156317D01*
X62166940Y-41757987D01*
X62148446Y-41671225D01*
X62137265Y-41593581D01*
X62127007Y-41593581D01*
X62112627Y-41674273D01*
X61988704Y-42156317D01*
X61566377Y-42156317D01*
X61870918Y-41271181D01*
X62420098Y-41271181D01*
X62896555Y-42742500D01*
G37*
X89454819Y-42595238D02*
X88978628Y-42928571D01*
X89454819Y-43166666D02*
X88454819Y-43166666D01*
X88454819Y-43166666D02*
X88454819Y-42785714D01*
X88454819Y-42785714D02*
X88502438Y-42690476D01*
X88502438Y-42690476D02*
X88550057Y-42642857D01*
X88550057Y-42642857D02*
X88645295Y-42595238D01*
X88645295Y-42595238D02*
X88788152Y-42595238D01*
X88788152Y-42595238D02*
X88883390Y-42642857D01*
X88883390Y-42642857D02*
X88931009Y-42690476D01*
X88931009Y-42690476D02*
X88978628Y-42785714D01*
X88978628Y-42785714D02*
X88978628Y-43166666D01*
X88454819Y-42309523D02*
X89454819Y-41976190D01*
X89454819Y-41976190D02*
X88454819Y-41642857D01*
X88550057Y-41357142D02*
X88502438Y-41309523D01*
X88502438Y-41309523D02*
X88454819Y-41214285D01*
X88454819Y-41214285D02*
X88454819Y-40976190D01*
X88454819Y-40976190D02*
X88502438Y-40880952D01*
X88502438Y-40880952D02*
X88550057Y-40833333D01*
X88550057Y-40833333D02*
X88645295Y-40785714D01*
X88645295Y-40785714D02*
X88740533Y-40785714D01*
X88740533Y-40785714D02*
X88883390Y-40833333D01*
X88883390Y-40833333D02*
X89454819Y-41404761D01*
X89454819Y-41404761D02*
X89454819Y-40785714D01*
X71666666Y-61054819D02*
X71666666Y-61769104D01*
X71666666Y-61769104D02*
X71619047Y-61911961D01*
X71619047Y-61911961D02*
X71523809Y-62007200D01*
X71523809Y-62007200D02*
X71380952Y-62054819D01*
X71380952Y-62054819D02*
X71285714Y-62054819D01*
X72571428Y-61388152D02*
X72571428Y-62054819D01*
X72333333Y-61007200D02*
X72095238Y-61721485D01*
X72095238Y-61721485D02*
X72714285Y-61721485D01*
X61013095Y-52314819D02*
X61013095Y-53124342D01*
X61013095Y-53124342D02*
X61060714Y-53219580D01*
X61060714Y-53219580D02*
X61108333Y-53267200D01*
X61108333Y-53267200D02*
X61203571Y-53314819D01*
X61203571Y-53314819D02*
X61394047Y-53314819D01*
X61394047Y-53314819D02*
X61489285Y-53267200D01*
X61489285Y-53267200D02*
X61536904Y-53219580D01*
X61536904Y-53219580D02*
X61584523Y-53124342D01*
X61584523Y-53124342D02*
X61584523Y-52314819D01*
X62013095Y-52410057D02*
X62060714Y-52362438D01*
X62060714Y-52362438D02*
X62155952Y-52314819D01*
X62155952Y-52314819D02*
X62394047Y-52314819D01*
X62394047Y-52314819D02*
X62489285Y-52362438D01*
X62489285Y-52362438D02*
X62536904Y-52410057D01*
X62536904Y-52410057D02*
X62584523Y-52505295D01*
X62584523Y-52505295D02*
X62584523Y-52600533D01*
X62584523Y-52600533D02*
X62536904Y-52743390D01*
X62536904Y-52743390D02*
X61965476Y-53314819D01*
X61965476Y-53314819D02*
X62584523Y-53314819D01*
X89654819Y-64395238D02*
X89178628Y-64728571D01*
X89654819Y-64966666D02*
X88654819Y-64966666D01*
X88654819Y-64966666D02*
X88654819Y-64585714D01*
X88654819Y-64585714D02*
X88702438Y-64490476D01*
X88702438Y-64490476D02*
X88750057Y-64442857D01*
X88750057Y-64442857D02*
X88845295Y-64395238D01*
X88845295Y-64395238D02*
X88988152Y-64395238D01*
X88988152Y-64395238D02*
X89083390Y-64442857D01*
X89083390Y-64442857D02*
X89131009Y-64490476D01*
X89131009Y-64490476D02*
X89178628Y-64585714D01*
X89178628Y-64585714D02*
X89178628Y-64966666D01*
X88654819Y-64109523D02*
X89654819Y-63776190D01*
X89654819Y-63776190D02*
X88654819Y-63442857D01*
X89654819Y-62585714D02*
X89654819Y-63157142D01*
X89654819Y-62871428D02*
X88654819Y-62871428D01*
X88654819Y-62871428D02*
X88797676Y-62966666D01*
X88797676Y-62966666D02*
X88892914Y-63061904D01*
X88892914Y-63061904D02*
X88940533Y-63157142D01*
X71854819Y-43961904D02*
X72664342Y-43961904D01*
X72664342Y-43961904D02*
X72759580Y-43914285D01*
X72759580Y-43914285D02*
X72807200Y-43866666D01*
X72807200Y-43866666D02*
X72854819Y-43771428D01*
X72854819Y-43771428D02*
X72854819Y-43580952D01*
X72854819Y-43580952D02*
X72807200Y-43485714D01*
X72807200Y-43485714D02*
X72759580Y-43438095D01*
X72759580Y-43438095D02*
X72664342Y-43390476D01*
X72664342Y-43390476D02*
X71854819Y-43390476D01*
X71854819Y-42438095D02*
X71854819Y-42914285D01*
X71854819Y-42914285D02*
X72331009Y-42961904D01*
X72331009Y-42961904D02*
X72283390Y-42914285D01*
X72283390Y-42914285D02*
X72235771Y-42819047D01*
X72235771Y-42819047D02*
X72235771Y-42580952D01*
X72235771Y-42580952D02*
X72283390Y-42485714D01*
X72283390Y-42485714D02*
X72331009Y-42438095D01*
X72331009Y-42438095D02*
X72426247Y-42390476D01*
X72426247Y-42390476D02*
X72664342Y-42390476D01*
X72664342Y-42390476D02*
X72759580Y-42438095D01*
X72759580Y-42438095D02*
X72807200Y-42485714D01*
X72807200Y-42485714D02*
X72854819Y-42580952D01*
X72854819Y-42580952D02*
X72854819Y-42819047D01*
X72854819Y-42819047D02*
X72807200Y-42914285D01*
X72807200Y-42914285D02*
X72759580Y-42961904D01*
X75454819Y-47733333D02*
X76169104Y-47733333D01*
X76169104Y-47733333D02*
X76311961Y-47780952D01*
X76311961Y-47780952D02*
X76407200Y-47876190D01*
X76407200Y-47876190D02*
X76454819Y-48019047D01*
X76454819Y-48019047D02*
X76454819Y-48114285D01*
X75454819Y-46780952D02*
X75454819Y-47257142D01*
X75454819Y-47257142D02*
X75931009Y-47304761D01*
X75931009Y-47304761D02*
X75883390Y-47257142D01*
X75883390Y-47257142D02*
X75835771Y-47161904D01*
X75835771Y-47161904D02*
X75835771Y-46923809D01*
X75835771Y-46923809D02*
X75883390Y-46828571D01*
X75883390Y-46828571D02*
X75931009Y-46780952D01*
X75931009Y-46780952D02*
X76026247Y-46733333D01*
X76026247Y-46733333D02*
X76264342Y-46733333D01*
X76264342Y-46733333D02*
X76359580Y-46780952D01*
X76359580Y-46780952D02*
X76407200Y-46828571D01*
X76407200Y-46828571D02*
X76454819Y-46923809D01*
X76454819Y-46923809D02*
X76454819Y-47161904D01*
X76454819Y-47161904D02*
X76407200Y-47257142D01*
X76407200Y-47257142D02*
X76359580Y-47304761D01*
X75254819Y-55333333D02*
X75969104Y-55333333D01*
X75969104Y-55333333D02*
X76111961Y-55380952D01*
X76111961Y-55380952D02*
X76207200Y-55476190D01*
X76207200Y-55476190D02*
X76254819Y-55619047D01*
X76254819Y-55619047D02*
X76254819Y-55714285D01*
X75254819Y-54428571D02*
X75254819Y-54619047D01*
X75254819Y-54619047D02*
X75302438Y-54714285D01*
X75302438Y-54714285D02*
X75350057Y-54761904D01*
X75350057Y-54761904D02*
X75492914Y-54857142D01*
X75492914Y-54857142D02*
X75683390Y-54904761D01*
X75683390Y-54904761D02*
X76064342Y-54904761D01*
X76064342Y-54904761D02*
X76159580Y-54857142D01*
X76159580Y-54857142D02*
X76207200Y-54809523D01*
X76207200Y-54809523D02*
X76254819Y-54714285D01*
X76254819Y-54714285D02*
X76254819Y-54523809D01*
X76254819Y-54523809D02*
X76207200Y-54428571D01*
X76207200Y-54428571D02*
X76159580Y-54380952D01*
X76159580Y-54380952D02*
X76064342Y-54333333D01*
X76064342Y-54333333D02*
X75826247Y-54333333D01*
X75826247Y-54333333D02*
X75731009Y-54380952D01*
X75731009Y-54380952D02*
X75683390Y-54428571D01*
X75683390Y-54428571D02*
X75635771Y-54523809D01*
X75635771Y-54523809D02*
X75635771Y-54714285D01*
X75635771Y-54714285D02*
X75683390Y-54809523D01*
X75683390Y-54809523D02*
X75731009Y-54857142D01*
X75731009Y-54857142D02*
X75826247Y-54904761D01*
X81463095Y-60864819D02*
X81463095Y-61674342D01*
X81463095Y-61674342D02*
X81510714Y-61769580D01*
X81510714Y-61769580D02*
X81558333Y-61817200D01*
X81558333Y-61817200D02*
X81653571Y-61864819D01*
X81653571Y-61864819D02*
X81844047Y-61864819D01*
X81844047Y-61864819D02*
X81939285Y-61817200D01*
X81939285Y-61817200D02*
X81986904Y-61769580D01*
X81986904Y-61769580D02*
X82034523Y-61674342D01*
X82034523Y-61674342D02*
X82034523Y-60864819D01*
X83034523Y-61864819D02*
X82463095Y-61864819D01*
X82748809Y-61864819D02*
X82748809Y-60864819D01*
X82748809Y-60864819D02*
X82653571Y-61007676D01*
X82653571Y-61007676D02*
X82558333Y-61102914D01*
X82558333Y-61102914D02*
X82463095Y-61150533D01*
X84038095Y-52264819D02*
X84038095Y-53074342D01*
X84038095Y-53074342D02*
X84085714Y-53169580D01*
X84085714Y-53169580D02*
X84133333Y-53217200D01*
X84133333Y-53217200D02*
X84228571Y-53264819D01*
X84228571Y-53264819D02*
X84419047Y-53264819D01*
X84419047Y-53264819D02*
X84514285Y-53217200D01*
X84514285Y-53217200D02*
X84561904Y-53169580D01*
X84561904Y-53169580D02*
X84609523Y-53074342D01*
X84609523Y-53074342D02*
X84609523Y-52264819D01*
X85514285Y-52598152D02*
X85514285Y-53264819D01*
X85276190Y-52217200D02*
X85038095Y-52931485D01*
X85038095Y-52931485D02*
X85657142Y-52931485D01*
X60488095Y-58514819D02*
X60488095Y-59324342D01*
X60488095Y-59324342D02*
X60535714Y-59419580D01*
X60535714Y-59419580D02*
X60583333Y-59467200D01*
X60583333Y-59467200D02*
X60678571Y-59514819D01*
X60678571Y-59514819D02*
X60869047Y-59514819D01*
X60869047Y-59514819D02*
X60964285Y-59467200D01*
X60964285Y-59467200D02*
X61011904Y-59419580D01*
X61011904Y-59419580D02*
X61059523Y-59324342D01*
X61059523Y-59324342D02*
X61059523Y-58514819D01*
X61440476Y-58514819D02*
X62059523Y-58514819D01*
X62059523Y-58514819D02*
X61726190Y-58895771D01*
X61726190Y-58895771D02*
X61869047Y-58895771D01*
X61869047Y-58895771D02*
X61964285Y-58943390D01*
X61964285Y-58943390D02*
X62011904Y-58991009D01*
X62011904Y-58991009D02*
X62059523Y-59086247D01*
X62059523Y-59086247D02*
X62059523Y-59324342D01*
X62059523Y-59324342D02*
X62011904Y-59419580D01*
X62011904Y-59419580D02*
X61964285Y-59467200D01*
X61964285Y-59467200D02*
X61869047Y-59514819D01*
X61869047Y-59514819D02*
X61583333Y-59514819D01*
X61583333Y-59514819D02*
X61488095Y-59467200D01*
X61488095Y-59467200D02*
X61440476Y-59419580D01*
X68866666Y-61054819D02*
X68866666Y-61769104D01*
X68866666Y-61769104D02*
X68819047Y-61911961D01*
X68819047Y-61911961D02*
X68723809Y-62007200D01*
X68723809Y-62007200D02*
X68580952Y-62054819D01*
X68580952Y-62054819D02*
X68485714Y-62054819D01*
X69247619Y-61054819D02*
X69866666Y-61054819D01*
X69866666Y-61054819D02*
X69533333Y-61435771D01*
X69533333Y-61435771D02*
X69676190Y-61435771D01*
X69676190Y-61435771D02*
X69771428Y-61483390D01*
X69771428Y-61483390D02*
X69819047Y-61531009D01*
X69819047Y-61531009D02*
X69866666Y-61626247D01*
X69866666Y-61626247D02*
X69866666Y-61864342D01*
X69866666Y-61864342D02*
X69819047Y-61959580D01*
X69819047Y-61959580D02*
X69771428Y-62007200D01*
X69771428Y-62007200D02*
X69676190Y-62054819D01*
X69676190Y-62054819D02*
X69390476Y-62054819D01*
X69390476Y-62054819D02*
X69295238Y-62007200D01*
X69295238Y-62007200D02*
X69247619Y-61959580D01*
X43811666Y-43754819D02*
X43811666Y-44469104D01*
X43811666Y-44469104D02*
X43764047Y-44611961D01*
X43764047Y-44611961D02*
X43668809Y-44707200D01*
X43668809Y-44707200D02*
X43525952Y-44754819D01*
X43525952Y-44754819D02*
X43430714Y-44754819D01*
X44811666Y-44754819D02*
X44240238Y-44754819D01*
X44525952Y-44754819D02*
X44525952Y-43754819D01*
X44525952Y-43754819D02*
X44430714Y-43897676D01*
X44430714Y-43897676D02*
X44335476Y-43992914D01*
X44335476Y-43992914D02*
X44240238Y-44040533D01*
X73866666Y-49054819D02*
X73866666Y-49769104D01*
X73866666Y-49769104D02*
X73819047Y-49911961D01*
X73819047Y-49911961D02*
X73723809Y-50007200D01*
X73723809Y-50007200D02*
X73580952Y-50054819D01*
X73580952Y-50054819D02*
X73485714Y-50054819D01*
X74295238Y-49150057D02*
X74342857Y-49102438D01*
X74342857Y-49102438D02*
X74438095Y-49054819D01*
X74438095Y-49054819D02*
X74676190Y-49054819D01*
X74676190Y-49054819D02*
X74771428Y-49102438D01*
X74771428Y-49102438D02*
X74819047Y-49150057D01*
X74819047Y-49150057D02*
X74866666Y-49245295D01*
X74866666Y-49245295D02*
X74866666Y-49340533D01*
X74866666Y-49340533D02*
X74819047Y-49483390D01*
X74819047Y-49483390D02*
X74247619Y-50054819D01*
X74247619Y-50054819D02*
X74866666Y-50054819D01*
%TO.C,R10*%
D15*
X87538748Y-46675000D02*
X88061252Y-46675000D01*
X87538748Y-48145000D02*
X88061252Y-48145000D01*
%TO.C,C15*%
X89265000Y-50148748D02*
X89265000Y-50671252D01*
X90735000Y-50148748D02*
X90735000Y-50671252D01*
%TO.C,R14*%
X82338748Y-54275000D02*
X82861252Y-54275000D01*
X82338748Y-55745000D02*
X82861252Y-55745000D01*
%TO.C,C1*%
X55275000Y-57160000D02*
X55275000Y-58160000D01*
X57225000Y-57160000D02*
X57225000Y-58160000D01*
%TO.C,RV2*%
X78105000Y-39460000D02*
X87875000Y-39460000D01*
X78105000Y-44530000D02*
X78105000Y-39460000D01*
X87875000Y-39460000D02*
X87875000Y-44530000D01*
X87875000Y-44530000D02*
X78105000Y-44530000D01*
%TO.C,J4*%
X70940000Y-62870000D02*
X73060000Y-62870000D01*
X70940000Y-65530000D02*
X70940000Y-62870000D01*
X73060000Y-62870000D02*
X73060000Y-65530000D01*
X73060000Y-65530000D02*
X70940000Y-65530000D01*
D16*
X72250000Y-62570000D02*
G75*
G02*
X71750000Y-62570000I-250000J0D01*
G01*
X71750000Y-62570000D02*
G75*
G02*
X72250000Y-62570000I250000J0D01*
G01*
%TO.C,R15*%
D15*
X75338748Y-37065000D02*
X75861252Y-37065000D01*
X75338748Y-38535000D02*
X75861252Y-38535000D01*
%TO.C,R7*%
X88865000Y-53938748D02*
X88865000Y-54461252D01*
X90335000Y-53938748D02*
X90335000Y-54461252D01*
%TO.C,D2*%
X54810000Y-54460000D02*
X50800000Y-54460000D01*
X54810000Y-56460000D02*
X50800000Y-56460000D01*
X54810000Y-56460000D02*
X54810000Y-54460000D01*
%TO.C,D1*%
X54810000Y-49460000D02*
X50800000Y-49460000D01*
X54810000Y-51460000D02*
X50800000Y-51460000D01*
X54810000Y-51460000D02*
X54810000Y-49460000D01*
%TO.C,C19*%
X69638748Y-37205000D02*
X70161252Y-37205000D01*
X69638748Y-38675000D02*
X70161252Y-38675000D01*
%TO.C,C7*%
X66200000Y-49010000D02*
X66200000Y-50010000D01*
X68150000Y-49010000D02*
X68150000Y-50010000D01*
%TO.C,U2*%
D11*
X60875000Y-49110000D02*
X60875000Y-48960000D01*
X60875000Y-50060000D02*
X60875000Y-50010000D01*
X60875000Y-51010000D02*
X60875000Y-50960000D01*
X60875000Y-52060000D02*
X60875000Y-51910000D01*
X62675000Y-48960000D02*
X60875000Y-48960000D01*
X62675000Y-49110000D02*
X62675000Y-48960000D01*
X62675000Y-51010000D02*
X62675000Y-50010000D01*
X62675000Y-52060000D02*
X60875000Y-52060000D01*
X62675000Y-52060000D02*
X62675000Y-51910000D01*
D17*
X60405000Y-49060000D02*
G75*
G02*
X60345000Y-49060000I-30000J0D01*
G01*
X60345000Y-49060000D02*
G75*
G02*
X60405000Y-49060000I30000J0D01*
G01*
D18*
%TO.C,C11*%
D15*
X86690000Y-58471252D02*
X86690000Y-57948748D01*
X88160000Y-58471252D02*
X88160000Y-57948748D01*
%TO.C,C14*%
X76090000Y-59271252D02*
X76090000Y-58748748D01*
X77560000Y-59271252D02*
X77560000Y-58748748D01*
%TO.C,R11*%
X84138748Y-46675000D02*
X84661252Y-46675000D01*
X84138748Y-48145000D02*
X84661252Y-48145000D01*
%TO.C,R3*%
X48311252Y-54725000D02*
X47788748Y-54725000D01*
X48311252Y-56195000D02*
X47788748Y-56195000D01*
%TO.C,RV1*%
X78105000Y-62660000D02*
X87875000Y-62660000D01*
X78105000Y-67730000D02*
X78105000Y-62660000D01*
X87875000Y-62660000D02*
X87875000Y-67730000D01*
X87875000Y-67730000D02*
X78105000Y-67730000D01*
%TO.C,U5*%
D14*
X68400000Y-42390000D02*
X68400000Y-43890000D01*
X71400000Y-42390000D02*
X71400000Y-43890000D01*
X68530000Y-44490000D02*
G75*
G02*
X68470000Y-44490000I-30000J0D01*
G01*
X68470000Y-44490000D02*
G75*
G02*
X68530000Y-44490000I30000J0D01*
G01*
%TO.C,R4*%
D15*
X47788748Y-44525000D02*
X48311252Y-44525000D01*
X47788748Y-45995000D02*
X48311252Y-45995000D01*
%TO.C,C21*%
X69638748Y-39205000D02*
X70161252Y-39205000D01*
X69638748Y-40675000D02*
X70161252Y-40675000D01*
%TO.C,D6*%
X50090000Y-46860000D02*
X50090000Y-48860000D01*
X50090000Y-46860000D02*
X54100000Y-46860000D01*
X50090000Y-48860000D02*
X54100000Y-48860000D01*
%TO.C,R17*%
X90890000Y-57948748D02*
X90890000Y-58471252D01*
X92360000Y-57948748D02*
X92360000Y-58471252D01*
%TO.C,D5*%
X54810000Y-44260000D02*
X50800000Y-44260000D01*
X54810000Y-46260000D02*
X50800000Y-46260000D01*
X54810000Y-46260000D02*
X54810000Y-44260000D01*
%TO.C,R2*%
X47788748Y-52125000D02*
X48311252Y-52125000D01*
X47788748Y-53595000D02*
X48311252Y-53595000D01*
%TO.C,C20*%
X70588748Y-47725000D02*
X71111252Y-47725000D01*
X70588748Y-49195000D02*
X71111252Y-49195000D01*
%TO.C,C4*%
X64115000Y-56398748D02*
X64115000Y-56921252D01*
X65585000Y-56398748D02*
X65585000Y-56921252D01*
%TO.C,J5*%
X76745000Y-46145000D02*
X81945000Y-46145000D01*
X76745000Y-47475000D02*
X76745000Y-46145000D01*
X81945000Y-46145000D02*
X81945000Y-48805000D01*
X81945000Y-48805000D02*
X76745000Y-48805000D01*
D16*
X78325000Y-49105000D02*
G75*
G02*
X77825000Y-49105000I-250000J0D01*
G01*
X77825000Y-49105000D02*
G75*
G02*
X78325000Y-49105000I250000J0D01*
G01*
%TO.C,C18*%
D15*
X80865000Y-50948748D02*
X80865000Y-51471252D01*
X82335000Y-50948748D02*
X82335000Y-51471252D01*
%TO.C,C22*%
X70588748Y-45725000D02*
X71111252Y-45725000D01*
X70588748Y-47195000D02*
X71111252Y-47195000D01*
%TO.C,R5*%
X47788748Y-47125000D02*
X48311252Y-47125000D01*
X47788748Y-48595000D02*
X48311252Y-48595000D01*
%TO.C,C5*%
X55400000Y-49810000D02*
X55400000Y-48810000D01*
X57350000Y-49810000D02*
X57350000Y-48810000D01*
%TO.C,R12*%
X75861252Y-64265000D02*
X75338748Y-64265000D01*
X75861252Y-65735000D02*
X75338748Y-65735000D01*
%TO.C,C9*%
X63788748Y-58725000D02*
X64311252Y-58725000D01*
X63788748Y-60195000D02*
X64311252Y-60195000D01*
%TO.C,J6*%
X77070000Y-53940000D02*
X79730000Y-53940000D01*
X77070000Y-56060000D02*
X77070000Y-53940000D01*
X79730000Y-53940000D02*
X79730000Y-56060000D01*
X79730000Y-56060000D02*
X77070000Y-56060000D01*
D16*
X77020000Y-55000000D02*
G75*
G02*
X76520000Y-55000000I-250000J0D01*
G01*
X76520000Y-55000000D02*
G75*
G02*
X77020000Y-55000000I250000J0D01*
G01*
%TO.C,R8*%
D15*
X64436252Y-46975000D02*
X63913748Y-46975000D01*
X64436252Y-48445000D02*
X63913748Y-48445000D01*
%TO.C,C6*%
X57840000Y-50771252D02*
X57840000Y-50248748D01*
X59310000Y-50771252D02*
X59310000Y-50248748D01*
%TO.C,R9*%
X88690000Y-58471252D02*
X88690000Y-57948748D01*
X90160000Y-58471252D02*
X90160000Y-57948748D01*
%TO.C,U1*%
D14*
X81475000Y-57510000D02*
X82975000Y-57510000D01*
X81475000Y-60510000D02*
X82975000Y-60510000D01*
X83605000Y-60410000D02*
G75*
G02*
X83545000Y-60410000I-30000J0D01*
G01*
X83545000Y-60410000D02*
G75*
G02*
X83605000Y-60410000I30000J0D01*
G01*
%TO.C,U4*%
X85550000Y-48910000D02*
X84050000Y-48910000D01*
X85550000Y-51910000D02*
X84050000Y-51910000D01*
X83480000Y-49010000D02*
G75*
G02*
X83420000Y-49010000I-30000J0D01*
G01*
X83420000Y-49010000D02*
G75*
G02*
X83480000Y-49010000I30000J0D01*
G01*
%TO.C,U3*%
D11*
X60750000Y-55260000D02*
X60750000Y-55110000D01*
X60750000Y-56210000D02*
X60750000Y-56160000D01*
X60750000Y-57160000D02*
X60750000Y-57110000D01*
X60750000Y-58210000D02*
X60750000Y-58060000D01*
X62550000Y-55110000D02*
X60750000Y-55110000D01*
X62550000Y-55260000D02*
X62550000Y-55110000D01*
X62550000Y-57160000D02*
X62550000Y-56160000D01*
X62550000Y-58210000D02*
X60750000Y-58210000D01*
X62550000Y-58210000D02*
X62550000Y-58060000D01*
D17*
X60280000Y-55210000D02*
G75*
G02*
X60220000Y-55210000I-30000J0D01*
G01*
X60220000Y-55210000D02*
G75*
G02*
X60280000Y-55210000I30000J0D01*
G01*
D18*
%TO.C,C16*%
D15*
X78865000Y-50948748D02*
X78865000Y-51471252D01*
X80335000Y-50948748D02*
X80335000Y-51471252D01*
%TO.C,R1*%
X86138748Y-54275000D02*
X86661252Y-54275000D01*
X86138748Y-55745000D02*
X86661252Y-55745000D01*
%TO.C,C13*%
X78090000Y-59271252D02*
X78090000Y-58748748D01*
X79560000Y-59271252D02*
X79560000Y-58748748D01*
%TO.C,C23*%
X74065000Y-44661252D02*
X74065000Y-44138748D01*
X75535000Y-44661252D02*
X75535000Y-44138748D01*
%TO.C,R13*%
X75338748Y-66265000D02*
X75861252Y-66265000D01*
X75338748Y-67735000D02*
X75861252Y-67735000D01*
%TO.C,R16*%
X75861252Y-39065000D02*
X75338748Y-39065000D01*
X75861252Y-40535000D02*
X75338748Y-40535000D01*
%TO.C,J3*%
X68140000Y-62870000D02*
X70260000Y-62870000D01*
X68140000Y-65530000D02*
X68140000Y-62870000D01*
X70260000Y-62870000D02*
X70260000Y-65530000D01*
X70260000Y-65530000D02*
X68140000Y-65530000D01*
D16*
X69450000Y-62570000D02*
G75*
G02*
X68950000Y-62570000I-250000J0D01*
G01*
X68950000Y-62570000D02*
G75*
G02*
X69450000Y-62570000I250000J0D01*
G01*
%TO.C,J1*%
D15*
X42815000Y-60680000D02*
X42815000Y-45320000D01*
X44145000Y-45320000D02*
X45475000Y-45320000D01*
X45475000Y-45320000D02*
X45475000Y-60680000D01*
X45475000Y-60680000D02*
X42815000Y-60680000D01*
D16*
X42765000Y-46650000D02*
G75*
G02*
X42265000Y-46650000I-250000J0D01*
G01*
X42265000Y-46650000D02*
G75*
G02*
X42765000Y-46650000I250000J0D01*
G01*
%TO.C,C12*%
D15*
X84690000Y-58471252D02*
X84690000Y-57948748D01*
X86160000Y-58471252D02*
X86160000Y-57948748D01*
%TO.C,D4*%
X50090000Y-56860000D02*
X50090000Y-58860000D01*
X50090000Y-56860000D02*
X54100000Y-56860000D01*
X50090000Y-58860000D02*
X54100000Y-58860000D01*
%TO.C,C2*%
X57715000Y-56198748D02*
X57715000Y-56721252D01*
X59185000Y-56198748D02*
X59185000Y-56721252D01*
%TO.C,C3*%
X66075000Y-57360000D02*
X66075000Y-58360000D01*
X68025000Y-57360000D02*
X68025000Y-58360000D01*
%TO.C,C17*%
X87265000Y-50148748D02*
X87265000Y-50671252D01*
X88735000Y-50148748D02*
X88735000Y-50671252D01*
%TO.C,D3*%
X50090000Y-51860000D02*
X50090000Y-53860000D01*
X50090000Y-51860000D02*
X54100000Y-51860000D01*
X50090000Y-53860000D02*
X54100000Y-53860000D01*
%TO.C,R6*%
X61036252Y-46975000D02*
X60513748Y-46975000D01*
X61036252Y-48445000D02*
X60513748Y-48445000D01*
%TO.C,C8*%
X64240000Y-50448748D02*
X64240000Y-50971252D01*
X65710000Y-50448748D02*
X65710000Y-50971252D01*
%TO.C,J2*%
X70185000Y-50325000D02*
X77925000Y-50325000D01*
X70185000Y-51655000D02*
X70185000Y-50325000D01*
X77925000Y-50325000D02*
X77925000Y-52985000D01*
X77925000Y-52985000D02*
X70185000Y-52985000D01*
D16*
X71765000Y-53285000D02*
G75*
G02*
X71265000Y-53285000I-250000J0D01*
G01*
X71265000Y-53285000D02*
G75*
G02*
X71765000Y-53285000I250000J0D01*
G01*
%TD*%
M02*
