%TF.GenerationSoftware,KiCad,Pcbnew,10.0.5*%
%TF.CreationDate,2026-08-10T22:55:45+02:00*%
%TF.ProjectId,Leveltronic,4c657665-6c74-4726-9f6e-69632e6b6963,rev?*%
%TF.SameCoordinates,Original*%
%TF.FileFunction,Copper,L1,Top*%
%TF.FilePolarity,Positive*%
%FSLAX46Y46*%
G04 Gerber Fmt 4.6, Leading zero omitted, Abs format (unit mm)*
G04 Created by KiCad (PCBNEW 10.0.5) date 2026-08-10 22:55:45*
%MOMM*%
%LPD*%
G01*
G04 APERTURE LIST*
G04 Aperture macros list*
%AMRoundRect*
0 Rectangle with rounded corners*
0 $1 Rounding radius*
0 $2 $3 $4 $5 $6 $7 $8 $9 X,Y pos of 4 corners*
0 Add a 4 corners polygon primitive as box body*
4,1,4,$2,$3,$4,$5,$6,$7,$8,$9,$2,$3,0*
0 Add four circle primitives for the rounded corners*
1,1,$1+$1,$2,$3*
1,1,$1+$1,$4,$5*
1,1,$1+$1,$6,$7*
1,1,$1+$1,$8,$9*
0 Add four rect primitives between the rounded corners*
20,1,$1+$1,$2,$3,$4,$5,0*
20,1,$1+$1,$4,$5,$6,$7,0*
20,1,$1+$1,$6,$7,$8,$9,0*
20,1,$1+$1,$8,$9,$2,$3,0*%
G04 Aperture macros list end*
%TA.AperFunction,SMDPad,CuDef*%
%ADD10RoundRect,0.250000X-0.250000X-0.475000X0.250000X-0.475000X0.250000X0.475000X-0.250000X0.475000X0*%
%TD*%
%TA.AperFunction,SMDPad,CuDef*%
%ADD11RoundRect,0.250000X-0.475000X0.250000X-0.475000X-0.250000X0.475000X-0.250000X0.475000X0.250000X0*%
%TD*%
%TA.AperFunction,SMDPad,CuDef*%
%ADD12RoundRect,0.450000X-0.450000X0.500000X-0.450000X-0.500000X0.450000X-0.500000X0.450000X0.500000X0*%
%TD*%
%TA.AperFunction,ComponentPad*%
%ADD13R,1.440000X1.440000*%
%TD*%
%TA.AperFunction,ComponentPad*%
%ADD14C,1.440000*%
%TD*%
%TA.AperFunction,ComponentPad*%
%ADD15R,1.000000X1.000000*%
%TD*%
%TA.AperFunction,ComponentPad*%
%ADD16C,1.000000*%
%TD*%
%TA.AperFunction,SMDPad,CuDef*%
%ADD17RoundRect,0.225000X0.225000X0.375000X-0.225000X0.375000X-0.225000X-0.375000X0.225000X-0.375000X0*%
%TD*%
%TA.AperFunction,ComponentPad*%
%ADD18C,3.600000*%
%TD*%
%TA.AperFunction,ConnectorPad*%
%ADD19C,5.600000*%
%TD*%
%TA.AperFunction,SMDPad,CuDef*%
%ADD20R,1.100000X0.600000*%
%TD*%
%TA.AperFunction,SMDPad,CuDef*%
%ADD21RoundRect,0.250000X0.475000X-0.250000X0.475000X0.250000X-0.475000X0.250000X-0.475000X-0.250000X0*%
%TD*%
%TA.AperFunction,SMDPad,CuDef*%
%ADD22RoundRect,0.250000X0.250000X0.475000X-0.250000X0.475000X-0.250000X-0.475000X0.250000X-0.475000X0*%
%TD*%
%TA.AperFunction,SMDPad,CuDef*%
%ADD23R,0.600000X1.100000*%
%TD*%
%TA.AperFunction,SMDPad,CuDef*%
%ADD24RoundRect,0.225000X-0.225000X-0.375000X0.225000X-0.375000X0.225000X0.375000X-0.225000X0.375000X0*%
%TD*%
%TA.AperFunction,ComponentPad*%
%ADD25R,1.700000X1.700000*%
%TD*%
%TA.AperFunction,ComponentPad*%
%ADD26C,1.700000*%
%TD*%
%TA.AperFunction,SMDPad,CuDef*%
%ADD27RoundRect,0.450000X0.450000X-0.500000X0.450000X0.500000X-0.450000X0.500000X-0.450000X-0.500000X0*%
%TD*%
%TA.AperFunction,ViaPad*%
%ADD28C,0.600000*%
%TD*%
%TA.AperFunction,Conductor*%
%ADD29C,0.200000*%
%TD*%
G04 APERTURE END LIST*
D10*
%TO.P,R10,1*%
%TO.N,Net-(U4--IN)*%
X86850000Y-47410000D03*
%TO.P,R10,2*%
%TO.N,GND*%
X88750000Y-47410000D03*
%TD*%
D11*
%TO.P,C15,1*%
%TO.N,1V8*%
X90000000Y-49460000D03*
%TO.P,C15,2*%
%TO.N,GND*%
X90000000Y-51360000D03*
%TD*%
D10*
%TO.P,R14,1*%
%TO.N,Pendulum*%
X81650000Y-55010000D03*
%TO.P,R14,2*%
%TO.N,Net-(U1-+IN)*%
X83550000Y-55010000D03*
%TD*%
D12*
%TO.P,C1,1*%
%TO.N,Net-(D1-K)*%
X56250000Y-55785000D03*
%TO.P,C1,2*%
%TO.N,GND*%
X56250000Y-59535000D03*
%TD*%
D13*
%TO.P,RV2,1,CCW_1*%
%TO.N,Net-(RV2-CCW)*%
X80450000Y-42000000D03*
D14*
%TO.P,RV2,2,Wiper_2*%
%TO.N,Net-(RV2-Wiper)*%
X82990000Y-42000000D03*
%TO.P,RV2,3,CW_3*%
%TO.N,Net-(RV2-CW)*%
X85530000Y-42000000D03*
%TD*%
D15*
%TO.P,J4,01,1_01*%
%TO.N,GND*%
X72000000Y-63560000D03*
D16*
%TO.P,J4,02,2_02*%
%TO.N,ExciterB*%
X72000000Y-64840000D03*
%TD*%
D10*
%TO.P,R15,1*%
%TO.N,Output*%
X74650000Y-37800000D03*
%TO.P,R15,2*%
%TO.N,Net-(RV2-CW)*%
X76550000Y-37800000D03*
%TD*%
D11*
%TO.P,R7,1*%
%TO.N,GND*%
X89600000Y-53250000D03*
%TO.P,R7,2*%
%TO.N,Net-(R1-Pad2)*%
X89600000Y-55150000D03*
%TD*%
D17*
%TO.P,D2,1,K_1*%
%TO.N,Net-(D1-K)*%
X54100000Y-55460000D03*
%TO.P,D2,2,A_2*%
%TO.N,Net-(D2-A)*%
X50800000Y-55460000D03*
%TD*%
%TO.P,D1,1,K_1*%
%TO.N,Net-(D1-K)*%
X54100000Y-50460000D03*
%TO.P,D1,2,A_2*%
%TO.N,Net-(D1-A)*%
X50800000Y-50460000D03*
%TD*%
D10*
%TO.P,C19,1*%
%TO.N,1V8*%
X68950000Y-37940000D03*
%TO.P,C19,2*%
%TO.N,GND*%
X70850000Y-37940000D03*
%TD*%
D18*
%TO.P,H3,1,1_1*%
%TO.N,GND*%
X92000000Y-38000000D03*
D19*
X92000000Y-38000000D03*
%TD*%
D12*
%TO.P,C7,1*%
%TO.N,-1V8*%
X67175000Y-47635000D03*
%TO.P,C7,2*%
%TO.N,GND*%
X67175000Y-51385000D03*
%TD*%
D20*
%TO.P,U2,1,GND_1*%
%TO.N,GND*%
X60475000Y-49560000D03*
%TO.P,U2,2,IN_2*%
%TO.N,Net-(D3-A)*%
X60475000Y-50510000D03*
%TO.P,U2,3,~{SHDN}_3*%
X60475000Y-51460000D03*
%TO.P,U2,4,ADJ_4*%
%TO.N,Net-(U2-ADJ)*%
X63075000Y-51460000D03*
%TO.P,U2,5,OUT_5*%
%TO.N,-1V8*%
X63075000Y-49560000D03*
%TD*%
D18*
%TO.P,H2,1,1_1*%
%TO.N,GND*%
X41000000Y-68000000D03*
D19*
X41000000Y-68000000D03*
%TD*%
D21*
%TO.P,C11,1*%
%TO.N,-1V8*%
X87425000Y-59160000D03*
%TO.P,C11,2*%
%TO.N,GND*%
X87425000Y-57260000D03*
%TD*%
%TO.P,C14,1*%
%TO.N,1V8*%
X76825000Y-59960000D03*
%TO.P,C14,2*%
%TO.N,GND*%
X76825000Y-58060000D03*
%TD*%
D10*
%TO.P,R11,1*%
%TO.N,Net-(U4-OUT)*%
X83450000Y-47410000D03*
%TO.P,R11,2*%
%TO.N,Net-(U4--IN)*%
X85350000Y-47410000D03*
%TD*%
D22*
%TO.P,R3,1*%
%TO.N,Net-(D2-A)*%
X49000000Y-55460000D03*
%TO.P,R3,2*%
%TO.N,ExciterB*%
X47100000Y-55460000D03*
%TD*%
D13*
%TO.P,RV1,1,CCW_1*%
%TO.N,Net-(RV1-CCW)*%
X80450000Y-65200000D03*
D14*
%TO.P,RV1,2,Wiper_2*%
%TO.N,Net-(RV1-Wiper)*%
X82990000Y-65200000D03*
%TO.P,RV1,3,CW_3*%
%TO.N,Net-(RV1-CW)*%
X85530000Y-65200000D03*
%TD*%
D23*
%TO.P,U5,1,OUT_1*%
%TO.N,Output*%
X68950000Y-44490000D03*
%TO.P,U5,2,V-_2*%
%TO.N,-1V8*%
X69900000Y-44490000D03*
%TO.P,U5,3,+IN_3*%
%TO.N,Net-(RV1-Wiper)*%
X70850000Y-44490000D03*
%TO.P,U5,4,-IN_4*%
%TO.N,Net-(RV2-Wiper)*%
X70850000Y-41790000D03*
%TO.P,U5,5,EN_5*%
%TO.N,1V8*%
X69900000Y-41790000D03*
%TO.P,U5,6,V+_6*%
X68950000Y-41790000D03*
%TD*%
D10*
%TO.P,R4,1*%
%TO.N,5V0*%
X47100000Y-45260000D03*
%TO.P,R4,2*%
%TO.N,Net-(D5-A)*%
X49000000Y-45260000D03*
%TD*%
%TO.P,C21,1*%
%TO.N,1V8*%
X68950000Y-39940000D03*
%TO.P,C21,2*%
%TO.N,GND*%
X70850000Y-39940000D03*
%TD*%
D24*
%TO.P,D6,1,K_1*%
%TO.N,Net-(D6-K)*%
X50800000Y-47860000D03*
%TO.P,D6,2,A_2*%
%TO.N,Net-(D3-A)*%
X54100000Y-47860000D03*
%TD*%
D11*
%TO.P,R17,1*%
%TO.N,Net-(R1-Pad2)*%
X91625000Y-57260000D03*
%TO.P,R17,2*%
%TO.N,Net-(RV1-Wiper)*%
X91625000Y-59160000D03*
%TD*%
D18*
%TO.P,H4,1,1_1*%
%TO.N,GND*%
X92000000Y-68000000D03*
D19*
X92000000Y-68000000D03*
%TD*%
D17*
%TO.P,D5,1,K_1*%
%TO.N,Net-(D1-K)*%
X54100000Y-45260000D03*
%TO.P,D5,2,A_2*%
%TO.N,Net-(D5-A)*%
X50800000Y-45260000D03*
%TD*%
D10*
%TO.P,R2,1*%
%TO.N,ExciterA*%
X47100000Y-52860000D03*
%TO.P,R2,2*%
%TO.N,Net-(D1-A)*%
X49000000Y-52860000D03*
%TD*%
%TO.P,C20,1*%
%TO.N,-1V8*%
X69900000Y-48460000D03*
%TO.P,C20,2*%
%TO.N,GND*%
X71800000Y-48460000D03*
%TD*%
D11*
%TO.P,C4,1*%
%TO.N,1V8*%
X64850000Y-55710000D03*
%TO.P,C4,2*%
%TO.N,GND*%
X64850000Y-57610000D03*
%TD*%
D25*
%TO.P,J5,1,1_1*%
%TO.N,GND*%
X78075000Y-47475000D03*
D26*
%TO.P,J5,2,2_2*%
%TO.N,Net-(U4-OUT)*%
X80615000Y-47475000D03*
%TD*%
D11*
%TO.P,C18,1*%
%TO.N,-1V8*%
X81600000Y-50260000D03*
%TO.P,C18,2*%
%TO.N,GND*%
X81600000Y-52160000D03*
%TD*%
D10*
%TO.P,C22,1*%
%TO.N,-1V8*%
X69900000Y-46460000D03*
%TO.P,C22,2*%
%TO.N,GND*%
X71800000Y-46460000D03*
%TD*%
%TO.P,R5,1*%
%TO.N,-5V0*%
X47100000Y-47860000D03*
%TO.P,R5,2*%
%TO.N,Net-(D6-K)*%
X49000000Y-47860000D03*
%TD*%
D27*
%TO.P,C5,1*%
%TO.N,Net-(D3-A)*%
X56375000Y-51185000D03*
%TO.P,C5,2*%
%TO.N,GND*%
X56375000Y-47435000D03*
%TD*%
D22*
%TO.P,R12,1*%
%TO.N,Net-(RV1-CCW)*%
X76550000Y-65000000D03*
%TO.P,R12,2*%
%TO.N,ExciterB*%
X74650000Y-65000000D03*
%TD*%
D10*
%TO.P,C9,1*%
%TO.N,Net-(U3-BYP)*%
X63100000Y-59460000D03*
%TO.P,C9,2*%
%TO.N,GND*%
X65000000Y-59460000D03*
%TD*%
D15*
%TO.P,J6,01,1_01*%
%TO.N,PendulumShield*%
X77760000Y-55000000D03*
D16*
%TO.P,J6,02,2_02*%
%TO.N,Pendulum*%
X79040000Y-55000000D03*
%TD*%
D22*
%TO.P,R8,1*%
%TO.N,-1V8*%
X65125000Y-47710000D03*
%TO.P,R8,2*%
%TO.N,Net-(U2-ADJ)*%
X63225000Y-47710000D03*
%TD*%
D21*
%TO.P,C6,1*%
%TO.N,Net-(D3-A)*%
X58575000Y-51460000D03*
%TO.P,C6,2*%
%TO.N,GND*%
X58575000Y-49560000D03*
%TD*%
%TO.P,R9,1*%
%TO.N,PendulumShield*%
X89425000Y-59160000D03*
%TO.P,R9,2*%
%TO.N,Net-(R1-Pad2)*%
X89425000Y-57260000D03*
%TD*%
D20*
%TO.P,U1,1,OUT_1*%
%TO.N,PendulumShield*%
X83575000Y-59960000D03*
%TO.P,U1,2,V-_2*%
%TO.N,-1V8*%
X83575000Y-59010000D03*
%TO.P,U1,3,+IN_3*%
%TO.N,Net-(U1-+IN)*%
X83575000Y-58060000D03*
%TO.P,U1,4,-IN_4*%
%TO.N,PendulumShield*%
X80875000Y-58060000D03*
%TO.P,U1,5,EN_5*%
%TO.N,1V8*%
X80875000Y-59010000D03*
%TO.P,U1,6,V+_6*%
X80875000Y-59960000D03*
%TD*%
%TO.P,U4,1,OUT_1*%
%TO.N,Net-(U4-OUT)*%
X83450000Y-49460000D03*
%TO.P,U4,2,V-_2*%
%TO.N,-1V8*%
X83450000Y-50410000D03*
%TO.P,U4,3,+IN_3*%
%TO.N,Net-(U1-+IN)*%
X83450000Y-51360000D03*
%TO.P,U4,4,-IN_4*%
%TO.N,Net-(U4--IN)*%
X86150000Y-51360000D03*
%TO.P,U4,5,EN_5*%
%TO.N,1V8*%
X86150000Y-50410000D03*
%TO.P,U4,6,V+_6*%
X86150000Y-49460000D03*
%TD*%
%TO.P,U3,1,IN_1*%
%TO.N,Net-(D1-K)*%
X60350000Y-55710000D03*
%TO.P,U3,2,GND_2*%
%TO.N,GND*%
X60350000Y-56660000D03*
%TO.P,U3,3,EN_3*%
%TO.N,Net-(D1-K)*%
X60350000Y-57610000D03*
%TO.P,U3,4,BYP_4*%
%TO.N,Net-(U3-BYP)*%
X62950000Y-57610000D03*
%TO.P,U3,5,OUT_5*%
%TO.N,1V8*%
X62950000Y-55710000D03*
%TD*%
D11*
%TO.P,C16,1*%
%TO.N,-1V8*%
X79600000Y-50260000D03*
%TO.P,C16,2*%
%TO.N,GND*%
X79600000Y-52160000D03*
%TD*%
D10*
%TO.P,R1,1*%
%TO.N,Net-(U1-+IN)*%
X85450000Y-55010000D03*
%TO.P,R1,2*%
%TO.N,Net-(R1-Pad2)*%
X87350000Y-55010000D03*
%TD*%
D21*
%TO.P,C13,1*%
%TO.N,1V8*%
X78825000Y-59960000D03*
%TO.P,C13,2*%
%TO.N,GND*%
X78825000Y-58060000D03*
%TD*%
%TO.P,C23,1*%
%TO.N,Net-(U4-OUT)*%
X74800000Y-45350000D03*
%TO.P,C23,2*%
%TO.N,Net-(RV1-Wiper)*%
X74800000Y-43450000D03*
%TD*%
D10*
%TO.P,R13,1*%
%TO.N,ExciterA*%
X74650000Y-67000000D03*
%TO.P,R13,2*%
%TO.N,Net-(RV1-CW)*%
X76550000Y-67000000D03*
%TD*%
D18*
%TO.P,H1,1,1_1*%
%TO.N,GND*%
X41000000Y-38000000D03*
D19*
X41000000Y-38000000D03*
%TD*%
D22*
%TO.P,R16,1*%
%TO.N,Net-(RV2-CCW)*%
X76550000Y-39800000D03*
%TO.P,R16,2*%
%TO.N,GND*%
X74650000Y-39800000D03*
%TD*%
D15*
%TO.P,J3,01,1_01*%
%TO.N,GND*%
X69200000Y-63560000D03*
D16*
%TO.P,J3,02,2_02*%
%TO.N,ExciterA*%
X69200000Y-64840000D03*
%TD*%
D25*
%TO.P,J1,1,1_1*%
%TO.N,GND*%
X44145000Y-46650000D03*
D26*
%TO.P,J1,2,2_2*%
%TO.N,5V0*%
X44145000Y-49190000D03*
%TO.P,J1,3,3_3*%
%TO.N,-5V0*%
X44145000Y-51730000D03*
%TO.P,J1,4,4_4*%
%TO.N,ExciterA*%
X44145000Y-54270000D03*
%TO.P,J1,5,5_5*%
%TO.N,ExciterB*%
X44145000Y-56810000D03*
%TO.P,J1,6,6_6*%
%TO.N,Output*%
X44145000Y-59350000D03*
%TD*%
D21*
%TO.P,C12,1*%
%TO.N,-1V8*%
X85425000Y-59160000D03*
%TO.P,C12,2*%
%TO.N,GND*%
X85425000Y-57260000D03*
%TD*%
D24*
%TO.P,D4,1,K_1*%
%TO.N,Net-(D2-A)*%
X50800000Y-57860000D03*
%TO.P,D4,2,A_2*%
%TO.N,Net-(D3-A)*%
X54100000Y-57860000D03*
%TD*%
D11*
%TO.P,C2,1*%
%TO.N,Net-(D1-K)*%
X58450000Y-55510000D03*
%TO.P,C2,2*%
%TO.N,GND*%
X58450000Y-57410000D03*
%TD*%
D12*
%TO.P,C3,1*%
%TO.N,1V8*%
X67050000Y-55985000D03*
%TO.P,C3,2*%
%TO.N,GND*%
X67050000Y-59735000D03*
%TD*%
D11*
%TO.P,C17,1*%
%TO.N,1V8*%
X88000000Y-49460000D03*
%TO.P,C17,2*%
%TO.N,GND*%
X88000000Y-51360000D03*
%TD*%
D24*
%TO.P,D3,1,K_1*%
%TO.N,Net-(D1-A)*%
X50800000Y-52860000D03*
%TO.P,D3,2,A_2*%
%TO.N,Net-(D3-A)*%
X54100000Y-52860000D03*
%TD*%
D22*
%TO.P,R6,1*%
%TO.N,Net-(U2-ADJ)*%
X61725000Y-47710000D03*
%TO.P,R6,2*%
%TO.N,GND*%
X59825000Y-47710000D03*
%TD*%
D11*
%TO.P,C8,1*%
%TO.N,-1V8*%
X64975000Y-49760000D03*
%TO.P,C8,2*%
%TO.N,GND*%
X64975000Y-51660000D03*
%TD*%
D25*
%TO.P,J2,1,1_1*%
%TO.N,GND*%
X71515000Y-51655000D03*
D26*
%TO.P,J2,2,2_2*%
%TO.N,PendulumShield*%
X74055000Y-51655000D03*
%TO.P,J2,3,3_3*%
%TO.N,Pendulum*%
X76595000Y-51655000D03*
%TD*%
D28*
%TO.N,GND*%
X66000000Y-57600000D03*
X68775000Y-51710000D03*
X54800000Y-64400000D03*
X73000000Y-48600000D03*
X73400000Y-39400000D03*
X67600000Y-63400000D03*
X64375000Y-52310000D03*
X67600000Y-58400000D03*
X80600000Y-51410000D03*
X57800000Y-48400000D03*
X55850000Y-61000000D03*
X62000000Y-56600000D03*
X85800000Y-56400000D03*
X59000000Y-58600000D03*
X65575000Y-52310000D03*
X68800000Y-50600000D03*
X88400000Y-52400000D03*
X90000000Y-48200000D03*
X68850000Y-52660000D03*
X56000000Y-46000000D03*
X79400000Y-57000000D03*
X72000000Y-40200000D03*
X90400000Y-52400000D03*
X77000000Y-57000000D03*
X68600000Y-60200000D03*
X82400000Y-53200000D03*
X61600000Y-51800000D03*
X85000000Y-56400000D03*
X55800000Y-58200000D03*
X73000000Y-46200000D03*
X89400000Y-52400000D03*
X90000000Y-46600000D03*
X56800000Y-48800000D03*
X73000000Y-47800000D03*
X80800000Y-53200000D03*
X65450000Y-60860000D03*
X58000000Y-58600000D03*
X61600000Y-58000000D03*
X87400000Y-52400000D03*
X90000000Y-47400000D03*
X77800000Y-57000000D03*
X66000000Y-58400000D03*
X56800000Y-46000000D03*
X68600000Y-59260000D03*
X73000000Y-47000000D03*
X87800000Y-56400000D03*
X64600000Y-60860000D03*
X56800000Y-61000000D03*
X72000000Y-37800000D03*
X72000000Y-39400000D03*
X81600000Y-53200000D03*
X76200000Y-57000000D03*
X58600000Y-47600000D03*
X78600000Y-57000000D03*
X72000000Y-38600000D03*
X61800000Y-55400000D03*
X58600000Y-48400000D03*
X59400000Y-56800000D03*
X56600000Y-58200000D03*
X80000000Y-53200000D03*
X73400000Y-40200000D03*
X87000000Y-56400000D03*
X56000000Y-48800000D03*
X60400000Y-48800000D03*
X66800000Y-58400000D03*
%TO.N,1V8*%
X68800000Y-43200000D03*
X68824265Y-47624265D03*
%TD*%
%TO.N,Net-(U4--IN)*%
D29*
X85300000Y-47460000D02*
X85350000Y-47410000D01*
X85350000Y-47410000D02*
X86850000Y-47410000D01*
X85300000Y-51010000D02*
X85300000Y-47460000D01*
X85650000Y-51360000D02*
X85300000Y-51010000D01*
X86250000Y-51460000D02*
X86150000Y-51360000D01*
X86150000Y-51360000D02*
X85650000Y-51360000D01*
%TO.N,GND*%
X72050000Y-51648654D02*
X71800000Y-51398654D01*
%TO.N,1V8*%
X64850000Y-55710000D02*
X66775000Y-55710000D01*
X62950000Y-55710000D02*
X64850000Y-55710000D01*
X76825000Y-59960000D02*
X78825000Y-59960000D01*
X69800000Y-50400000D02*
X69800000Y-55960000D01*
X69775000Y-55985000D02*
X73750000Y-59960000D01*
X67050000Y-55985000D02*
X69400000Y-55985000D01*
X92650000Y-57985000D02*
X92650000Y-56060000D01*
X69400000Y-55985000D02*
X69775000Y-55985000D01*
X91065256Y-58210000D02*
X92425000Y-58210000D01*
X90600000Y-58675256D02*
X91065256Y-58210000D01*
X66775000Y-55710000D02*
X67050000Y-55985000D01*
X80875000Y-59010000D02*
X80875000Y-59960000D01*
X69800000Y-55960000D02*
X69775000Y-55985000D01*
X88000000Y-49460000D02*
X90000000Y-49460000D01*
X78825000Y-59960000D02*
X80875000Y-59960000D01*
X80875000Y-60475000D02*
X81200000Y-60800000D01*
X73750000Y-59960000D02*
X77200000Y-59960000D01*
X86150000Y-49460000D02*
X88000000Y-49460000D01*
X80875000Y-59960000D02*
X80875000Y-60475000D01*
X68950000Y-41790000D02*
X68950000Y-43050000D01*
X68950000Y-41790000D02*
X68950000Y-39940000D01*
X68950000Y-43050000D02*
X68800000Y-43200000D01*
X68950000Y-37940000D02*
X68950000Y-39940000D01*
X69800000Y-50400000D02*
X68824265Y-49424265D01*
X91400000Y-54810000D02*
X91400000Y-50010000D01*
X91400000Y-50010000D02*
X90850000Y-49460000D01*
X92650000Y-56060000D02*
X91400000Y-54810000D01*
X92425000Y-58210000D02*
X92650000Y-57985000D01*
X90850000Y-49460000D02*
X90000000Y-49460000D01*
X90600000Y-59600000D02*
X90600000Y-58675256D01*
X68824265Y-49424265D02*
X68824265Y-47624265D01*
X81200000Y-60800000D02*
X89400000Y-60800000D01*
X68950000Y-41790000D02*
X69900000Y-41790000D01*
X86150000Y-49460000D02*
X86150000Y-50410000D01*
X89400000Y-60800000D02*
X90600000Y-59600000D01*
%TO.N,Pendulum*%
X81650000Y-55010000D02*
X79050000Y-55010000D01*
X79050000Y-55010000D02*
X79040000Y-55000000D01*
X79040000Y-54100000D02*
X79040000Y-55000000D01*
X81585000Y-55075000D02*
X81650000Y-55010000D01*
X76595000Y-51655000D02*
X79040000Y-54100000D01*
%TO.N,Net-(U1-+IN)*%
X83550000Y-55010000D02*
X83550000Y-55350000D01*
X83450000Y-51360000D02*
X83450000Y-54910000D01*
X83450000Y-54910000D02*
X83550000Y-55010000D01*
X83550000Y-55350000D02*
X83575000Y-55375000D01*
X83575000Y-55375000D02*
X83575000Y-58060000D01*
X83550000Y-55010000D02*
X85450000Y-55010000D01*
%TO.N,Net-(D1-K)*%
X54100000Y-55460000D02*
X55050000Y-55460000D01*
X54100000Y-45260000D02*
X54850000Y-45260000D01*
X55050000Y-45460000D02*
X55050000Y-50060000D01*
X60350000Y-55710000D02*
X61110000Y-55710000D01*
X55050000Y-58460000D02*
X54750000Y-58760000D01*
X54850000Y-45260000D02*
X55050000Y-45460000D01*
X56525000Y-55510000D02*
X56250000Y-55785000D01*
X61200000Y-55800000D02*
X61200000Y-57510000D01*
X53450000Y-45260000D02*
X54100000Y-45260000D01*
X61200000Y-57510000D02*
X61100000Y-57610000D01*
X61110000Y-55710000D02*
X61200000Y-55800000D01*
X58650000Y-55710000D02*
X58450000Y-55510000D01*
X53560000Y-58760000D02*
X52800000Y-58000000D01*
X55050000Y-50060000D02*
X54650000Y-50460000D01*
X55925000Y-55460000D02*
X56250000Y-55785000D01*
X60350000Y-55710000D02*
X58650000Y-55710000D01*
X61100000Y-57610000D02*
X60350000Y-57610000D01*
X54750000Y-58760000D02*
X53560000Y-58760000D01*
X52800000Y-45910000D02*
X53450000Y-45260000D01*
X52800000Y-58000000D02*
X52800000Y-45910000D01*
X58450000Y-55510000D02*
X56525000Y-55510000D01*
X55050000Y-55460000D02*
X55050000Y-58460000D01*
X54650000Y-50460000D02*
X54100000Y-50460000D01*
X55050000Y-55460000D02*
X55925000Y-55460000D01*
%TO.N,Net-(RV2-CCW)*%
X79600000Y-42000000D02*
X80450000Y-42000000D01*
X76550000Y-39800000D02*
X77400000Y-39800000D01*
X77400000Y-39800000D02*
X79600000Y-42000000D01*
%TO.N,Net-(RV2-Wiper)*%
X77390000Y-41790000D02*
X70850000Y-41790000D01*
X81970000Y-43020000D02*
X78620000Y-43020000D01*
X78620000Y-43020000D02*
X77390000Y-41790000D01*
X82990000Y-42000000D02*
X81970000Y-43020000D01*
%TO.N,Net-(RV2-CW)*%
X81330000Y-37800000D02*
X85530000Y-42000000D01*
X76550000Y-37800000D02*
X81330000Y-37800000D01*
%TO.N,ExciterB*%
X71292894Y-64840000D02*
X70600000Y-64147106D01*
X74650000Y-65000000D02*
X72160000Y-65000000D01*
X72000000Y-64840000D02*
X71292894Y-64840000D01*
X44145000Y-56810000D02*
X45495000Y-55460000D01*
X72160000Y-65000000D02*
X72000000Y-64840000D01*
X70000000Y-62600000D02*
X55400000Y-62600000D01*
X70600000Y-63200000D02*
X70000000Y-62600000D01*
X47135000Y-59800000D02*
X44145000Y-56810000D01*
X45495000Y-55460000D02*
X47100000Y-55460000D01*
X55400000Y-62600000D02*
X52600000Y-59800000D01*
X52600000Y-59800000D02*
X47135000Y-59800000D01*
X47100000Y-55910000D02*
X47100000Y-55460000D01*
X70600000Y-64147106D02*
X70600000Y-63200000D01*
%TO.N,Output*%
X67600000Y-41200000D02*
X67600000Y-36900000D01*
X71600000Y-36400000D02*
X73000000Y-37800000D01*
X68950000Y-44490000D02*
X67800000Y-44490000D01*
X67800000Y-44490000D02*
X67600000Y-44290000D01*
X44000000Y-41200000D02*
X67600000Y-41200000D01*
X44145000Y-59350000D02*
X41150000Y-59350000D01*
X67600000Y-44290000D02*
X67600000Y-41200000D01*
X41150000Y-59350000D02*
X40600000Y-58800000D01*
X73000000Y-37800000D02*
X74650000Y-37800000D01*
X67600000Y-36900000D02*
X68100000Y-36400000D01*
X40600000Y-44600000D02*
X44000000Y-41200000D01*
X68100000Y-36400000D02*
X71600000Y-36400000D01*
X40600000Y-58800000D02*
X40600000Y-44600000D01*
%TO.N,Net-(R1-Pad2)*%
X89600000Y-55150000D02*
X87490000Y-55150000D01*
X89750000Y-55010000D02*
X89800000Y-54960000D01*
X89600000Y-57085000D02*
X89425000Y-57260000D01*
X91625000Y-57260000D02*
X89425000Y-57260000D01*
X87490000Y-55150000D02*
X87350000Y-55010000D01*
X89600000Y-55150000D02*
X89600000Y-57085000D01*
%TO.N,Net-(D2-A)*%
X50800000Y-55460000D02*
X50800000Y-57860000D01*
X49000000Y-55460000D02*
X50800000Y-55460000D01*
%TO.N,Net-(D1-A)*%
X50800000Y-50460000D02*
X50800000Y-52860000D01*
X49000000Y-52860000D02*
X50800000Y-52860000D01*
%TO.N,-1V8*%
X82625000Y-54425000D02*
X82625000Y-58810000D01*
X69850000Y-46410000D02*
X69900000Y-46460000D01*
X82825000Y-59010000D02*
X83575000Y-59010000D01*
X67965000Y-47635000D02*
X67175000Y-47635000D01*
X64975000Y-49760000D02*
X66325000Y-49760000D01*
X70200000Y-50000000D02*
X78200000Y-50000000D01*
X78450000Y-50260000D02*
X78450000Y-52660000D01*
X82185000Y-53985000D02*
X82625000Y-54425000D01*
X63075000Y-49560000D02*
X64775000Y-49560000D01*
X69900000Y-46460000D02*
X69140000Y-46460000D01*
X78460000Y-50260000D02*
X79600000Y-50260000D01*
X69900000Y-49700000D02*
X70200000Y-50000000D01*
X85425000Y-59160000D02*
X87425000Y-59160000D01*
X69900000Y-44490000D02*
X69900000Y-46460000D01*
X64775000Y-49560000D02*
X64975000Y-49760000D01*
X79775000Y-53985000D02*
X82185000Y-53985000D01*
X67175000Y-48910000D02*
X67175000Y-47635000D01*
X83450000Y-50410000D02*
X81750000Y-50410000D01*
X85275000Y-59010000D02*
X85425000Y-59160000D01*
X69900000Y-48460000D02*
X69900000Y-49700000D01*
X83575000Y-59010000D02*
X85275000Y-59010000D01*
X69140000Y-46460000D02*
X67965000Y-47635000D01*
X78450000Y-52660000D02*
X79775000Y-53985000D01*
X65125000Y-49610000D02*
X64975000Y-49760000D01*
X65125000Y-47710000D02*
X65125000Y-49610000D01*
X81600000Y-50260000D02*
X79600000Y-50260000D01*
X66325000Y-49760000D02*
X67175000Y-48910000D01*
X78200000Y-50000000D02*
X78460000Y-50260000D01*
X69900000Y-46460000D02*
X69900000Y-48460000D01*
X81750000Y-50410000D02*
X81600000Y-50260000D01*
X78450000Y-50260000D02*
X78460000Y-50260000D01*
X82625000Y-58810000D02*
X82825000Y-59010000D01*
%TO.N,Net-(D3-A)*%
X53650000Y-57860000D02*
X53250000Y-57460000D01*
X56375000Y-52535000D02*
X56375000Y-51185000D01*
X56050000Y-52860000D02*
X56375000Y-52535000D01*
X58575000Y-51460000D02*
X56650000Y-51460000D01*
X53250000Y-52660000D02*
X53250000Y-48060000D01*
X54100000Y-52860000D02*
X53450000Y-52860000D01*
X54100000Y-57860000D02*
X53650000Y-57860000D01*
X53250000Y-53060000D02*
X53450000Y-52860000D01*
X53250000Y-57460000D02*
X53250000Y-53060000D01*
X53450000Y-52860000D02*
X53250000Y-52660000D01*
X58575000Y-51460000D02*
X60475000Y-51460000D01*
X60475000Y-51460000D02*
X60475000Y-50510000D01*
X56100000Y-50910000D02*
X56375000Y-51185000D01*
X54100000Y-52860000D02*
X56050000Y-52860000D01*
X56650000Y-51460000D02*
X56375000Y-51185000D01*
X53250000Y-48060000D02*
X53450000Y-47860000D01*
X53450000Y-47860000D02*
X54100000Y-47860000D01*
%TO.N,Net-(U2-ADJ)*%
X63075000Y-51460000D02*
X62325000Y-51460000D01*
X62325000Y-51460000D02*
X61725000Y-50860000D01*
X63225000Y-47710000D02*
X61725000Y-47710000D01*
X61725000Y-50860000D02*
X61725000Y-47710000D01*
%TO.N,Net-(U4-OUT)*%
X83450000Y-47410000D02*
X83200000Y-47410000D01*
X74250000Y-45050000D02*
X74800000Y-45600000D01*
X74800000Y-45350000D02*
X78490000Y-45350000D01*
X78490000Y-45350000D02*
X80615000Y-47475000D01*
X83450000Y-49460000D02*
X83450000Y-47410000D01*
X83200000Y-47410000D02*
X83135000Y-47475000D01*
X80680000Y-47410000D02*
X80615000Y-47475000D01*
X83450000Y-47410000D02*
X80680000Y-47410000D01*
%TO.N,Net-(RV1-CCW)*%
X78600000Y-65200000D02*
X78400000Y-65000000D01*
X80450000Y-65200000D02*
X78600000Y-65200000D01*
X78400000Y-65000000D02*
X76550000Y-65000000D01*
%TO.N,Net-(RV1-Wiper)*%
X70850000Y-44490000D02*
X71710000Y-44490000D01*
X82990000Y-63610000D02*
X85200000Y-61400000D01*
X74750000Y-43400000D02*
X74800000Y-43450000D01*
X78250000Y-43450000D02*
X80400000Y-45600000D01*
X92000000Y-47000000D02*
X90600000Y-45600000D01*
X90600000Y-45600000D02*
X80400000Y-45600000D01*
X85200000Y-61400000D02*
X90400000Y-61400000D01*
X71710000Y-44490000D02*
X72800000Y-43400000D01*
X93050000Y-55850000D02*
X92000000Y-54800000D01*
X91625000Y-60175000D02*
X91625000Y-59160000D01*
X82990000Y-65200000D02*
X82990000Y-63610000D01*
X90400000Y-61400000D02*
X91625000Y-60175000D01*
X92000000Y-54800000D02*
X92000000Y-47000000D01*
X92440000Y-59160000D02*
X93050000Y-58550000D01*
X93050000Y-58550000D02*
X93050000Y-55850000D01*
X91625000Y-59160000D02*
X92440000Y-59160000D01*
X72800000Y-43400000D02*
X74750000Y-43400000D01*
X74800000Y-43450000D02*
X78250000Y-43450000D01*
%TO.N,Net-(RV1-CW)*%
X76150000Y-66800000D02*
X83930000Y-66800000D01*
X83930000Y-66800000D02*
X85530000Y-65200000D01*
%TO.N,5V0*%
X44145000Y-49190000D02*
X47100000Y-46235000D01*
X47100000Y-46235000D02*
X47100000Y-45260000D01*
X47050000Y-45310000D02*
X47100000Y-45260000D01*
%TO.N,Net-(D5-A)*%
X49000000Y-45260000D02*
X50800000Y-45260000D01*
%TO.N,Net-(D6-K)*%
X49000000Y-47860000D02*
X50800000Y-47860000D01*
%TO.N,ExciterA*%
X74650000Y-67000000D02*
X71360000Y-67000000D01*
X71360000Y-67000000D02*
X69200000Y-64840000D01*
X42600000Y-55815000D02*
X44145000Y-54270000D01*
X55200000Y-63200000D02*
X52400000Y-60400000D01*
X44145000Y-54270000D02*
X45555000Y-52860000D01*
X52400000Y-60400000D02*
X46821346Y-60400000D01*
X66200000Y-63200000D02*
X55200000Y-63200000D01*
X46821346Y-60400000D02*
X44421346Y-58000000D01*
X69200000Y-64840000D02*
X67840000Y-64840000D01*
X42600000Y-57000000D02*
X42600000Y-55815000D01*
X44421346Y-58000000D02*
X43600000Y-58000000D01*
X67840000Y-64840000D02*
X66200000Y-63200000D01*
X45555000Y-52860000D02*
X47100000Y-52860000D01*
X43600000Y-58000000D02*
X42600000Y-57000000D01*
%TO.N,-5V0*%
X47100000Y-48775000D02*
X47100000Y-47860000D01*
X44145000Y-51730000D02*
X47100000Y-48775000D01*
X47090000Y-47850000D02*
X47100000Y-47860000D01*
%TO.N,Net-(U3-BYP)*%
X63100000Y-57760000D02*
X62950000Y-57610000D01*
X63100000Y-59460000D02*
X63100000Y-57760000D01*
%TO.N,PendulumShield*%
X84375000Y-59960000D02*
X83575000Y-59960000D01*
X82000000Y-59385000D02*
X82575000Y-59960000D01*
X80200000Y-56200000D02*
X80875000Y-56875000D01*
X74055000Y-51655000D02*
X77400000Y-55000000D01*
X89425000Y-59160000D02*
X89425000Y-59810000D01*
X80875000Y-58060000D02*
X81660000Y-58060000D01*
X82575000Y-59960000D02*
X83575000Y-59960000D01*
X84625000Y-60210000D02*
X84375000Y-59960000D01*
X82000000Y-58400000D02*
X82000000Y-59385000D01*
X77760000Y-55000000D02*
X77760000Y-55560000D01*
X89025000Y-60210000D02*
X84625000Y-60210000D01*
X89425000Y-59810000D02*
X89025000Y-60210000D01*
X78400000Y-56200000D02*
X80200000Y-56200000D01*
X80875000Y-56875000D02*
X80875000Y-58060000D01*
X81660000Y-58060000D02*
X82000000Y-58400000D01*
X77400000Y-55000000D02*
X77760000Y-55000000D01*
X77760000Y-55560000D02*
X78400000Y-56200000D01*
%TD*%
%TA.AperFunction,Conductor*%
%TO.N,GND*%
G36*
X69870495Y-62970185D02*
G01*
X69891137Y-62986819D01*
X70213181Y-63308863D01*
X70246666Y-63370186D01*
X70249500Y-63396544D01*
X70249500Y-64193250D01*
X70263107Y-64244032D01*
X70269207Y-64266796D01*
X70269207Y-64266798D01*
X70273385Y-64282393D01*
X70319527Y-64362314D01*
X70319529Y-64362317D01*
X70319530Y-64362318D01*
X71077682Y-65120470D01*
X71157606Y-65166614D01*
X71246750Y-65190500D01*
X71265298Y-65190500D01*
X71332337Y-65210185D01*
X71368400Y-65245609D01*
X71417048Y-65318415D01*
X71417051Y-65318419D01*
X71521580Y-65422948D01*
X71521584Y-65422951D01*
X71644498Y-65505080D01*
X71644511Y-65505087D01*
X71754149Y-65550500D01*
X71781087Y-65561658D01*
X71781091Y-65561658D01*
X71781092Y-65561659D01*
X71926079Y-65590500D01*
X71926082Y-65590500D01*
X72073920Y-65590500D01*
X72176046Y-65570185D01*
X72218913Y-65561658D01*
X72355495Y-65505084D01*
X72478416Y-65422951D01*
X72514547Y-65386820D01*
X72575869Y-65353334D01*
X72602229Y-65350500D01*
X73775501Y-65350500D01*
X73842540Y-65370185D01*
X73888295Y-65422989D01*
X73899501Y-65474500D01*
X73899501Y-65522876D01*
X73905908Y-65582483D01*
X73956202Y-65717328D01*
X73956206Y-65717335D01*
X74042452Y-65832544D01*
X74042455Y-65832547D01*
X74133540Y-65900734D01*
X74175411Y-65956668D01*
X74180395Y-66026359D01*
X74146909Y-66087682D01*
X74133540Y-66099266D01*
X74042455Y-66167452D01*
X74042452Y-66167455D01*
X73956206Y-66282664D01*
X73956202Y-66282671D01*
X73905908Y-66417517D01*
X73902470Y-66449500D01*
X73899501Y-66477123D01*
X73899500Y-66477135D01*
X73899500Y-66525500D01*
X73879815Y-66592539D01*
X73827011Y-66638294D01*
X73775500Y-66649500D01*
X71556543Y-66649500D01*
X71489504Y-66629815D01*
X71468862Y-66613181D01*
X69967353Y-65111671D01*
X69933868Y-65050348D01*
X69933417Y-64999798D01*
X69950500Y-64913920D01*
X69950500Y-64766079D01*
X69921659Y-64621092D01*
X69921658Y-64621091D01*
X69921658Y-64621087D01*
X69867153Y-64489500D01*
X69865087Y-64484511D01*
X69865080Y-64484498D01*
X69782951Y-64361584D01*
X69782948Y-64361580D01*
X69678419Y-64257051D01*
X69678415Y-64257048D01*
X69555501Y-64174919D01*
X69555488Y-64174912D01*
X69418917Y-64118343D01*
X69418907Y-64118340D01*
X69273920Y-64089500D01*
X69273918Y-64089500D01*
X69126082Y-64089500D01*
X69126080Y-64089500D01*
X68981092Y-64118340D01*
X68981082Y-64118343D01*
X68844511Y-64174912D01*
X68844498Y-64174919D01*
X68721584Y-64257048D01*
X68721580Y-64257051D01*
X68617051Y-64361580D01*
X68617048Y-64361584D01*
X68568400Y-64434391D01*
X68514787Y-64479196D01*
X68465298Y-64489500D01*
X68036543Y-64489500D01*
X67969504Y-64469815D01*
X67948862Y-64453181D01*
X66657863Y-63162181D01*
X66624378Y-63100858D01*
X66629362Y-63031166D01*
X66671234Y-62975233D01*
X66736698Y-62950816D01*
X66745544Y-62950500D01*
X69803456Y-62950500D01*
X69870495Y-62970185D01*
G37*
%TD.AperFunction*%
%TA.AperFunction,Conductor*%
G36*
X73792681Y-50370185D02*
G01*
X73838436Y-50422989D01*
X73848380Y-50492147D01*
X73819355Y-50555703D01*
X73763961Y-50592430D01*
X73649873Y-50629500D01*
X73632552Y-50635128D01*
X73478211Y-50713768D01*
X73400752Y-50770046D01*
X73338072Y-50815586D01*
X73338070Y-50815588D01*
X73338069Y-50815588D01*
X73215588Y-50938069D01*
X73215588Y-50938070D01*
X73215586Y-50938072D01*
X73185847Y-50979004D01*
X73113768Y-51078211D01*
X73035128Y-51232552D01*
X72981597Y-51397302D01*
X72969718Y-51472304D01*
X72954500Y-51568389D01*
X72954500Y-51741611D01*
X72957055Y-51757740D01*
X72980467Y-51905565D01*
X72981598Y-51912701D01*
X73035127Y-52077445D01*
X73113768Y-52231788D01*
X73215586Y-52371928D01*
X73338072Y-52494414D01*
X73478212Y-52596232D01*
X73632555Y-52674873D01*
X73797299Y-52728402D01*
X73968389Y-52755500D01*
X73968390Y-52755500D01*
X74141610Y-52755500D01*
X74141611Y-52755500D01*
X74312701Y-52728402D01*
X74477445Y-52674873D01*
X74477447Y-52674871D01*
X74481971Y-52673402D01*
X74551812Y-52671407D01*
X74607970Y-52703652D01*
X76973181Y-55068862D01*
X77006666Y-55130185D01*
X77009500Y-55156543D01*
X77009500Y-55524678D01*
X77024032Y-55597735D01*
X77024033Y-55597739D01*
X77024034Y-55597740D01*
X77079399Y-55680601D01*
X77149332Y-55727328D01*
X77162260Y-55735966D01*
X77162264Y-55735967D01*
X77235321Y-55750499D01*
X77235324Y-55750500D01*
X77235326Y-55750500D01*
X77403456Y-55750500D01*
X77470495Y-55770185D01*
X77491137Y-55786819D01*
X78184788Y-56480470D01*
X78264712Y-56526614D01*
X78353856Y-56550500D01*
X78353857Y-56550500D01*
X78446144Y-56550500D01*
X80003456Y-56550500D01*
X80070495Y-56570185D01*
X80091137Y-56586819D01*
X80488181Y-56983863D01*
X80521666Y-57045186D01*
X80524500Y-57071544D01*
X80524500Y-57385500D01*
X80504815Y-57452539D01*
X80452011Y-57498294D01*
X80400500Y-57509500D01*
X80300323Y-57509500D01*
X80227264Y-57524032D01*
X80227260Y-57524033D01*
X80144399Y-57579399D01*
X80089033Y-57662260D01*
X80089032Y-57662264D01*
X80074500Y-57735321D01*
X80074500Y-57735326D01*
X80074500Y-58384674D01*
X80074500Y-58384676D01*
X80074499Y-58384676D01*
X80089033Y-58457739D01*
X80094628Y-58466113D01*
X80115503Y-58532791D01*
X80097016Y-58600171D01*
X80094628Y-58603887D01*
X80089033Y-58612260D01*
X80074500Y-58685323D01*
X80074500Y-58685326D01*
X80074500Y-59334674D01*
X80074500Y-59334676D01*
X80074499Y-59334676D01*
X80089033Y-59407739D01*
X80094628Y-59416113D01*
X80115503Y-59482791D01*
X80097016Y-59550171D01*
X80094729Y-59553735D01*
X80094396Y-59554235D01*
X80040851Y-59599121D01*
X79991190Y-59609500D01*
X79882791Y-59609500D01*
X79815752Y-59589815D01*
X79769997Y-59537011D01*
X79766609Y-59528833D01*
X79743797Y-59467671D01*
X79743793Y-59467664D01*
X79657547Y-59352455D01*
X79657544Y-59352452D01*
X79542335Y-59266206D01*
X79542328Y-59266202D01*
X79407482Y-59215908D01*
X79407483Y-59215908D01*
X79347883Y-59209501D01*
X79347881Y-59209500D01*
X79347873Y-59209500D01*
X79347864Y-59209500D01*
X78302129Y-59209500D01*
X78302123Y-59209501D01*
X78242516Y-59215908D01*
X78107671Y-59266202D01*
X78107664Y-59266206D01*
X77992455Y-59352452D01*
X77992452Y-59352455D01*
X77924266Y-59443540D01*
X77868332Y-59485411D01*
X77798641Y-59490395D01*
X77737318Y-59456909D01*
X77725734Y-59443540D01*
X77657547Y-59352455D01*
X77657544Y-59352452D01*
X77542335Y-59266206D01*
X77542328Y-59266202D01*
X77407482Y-59215908D01*
X77407483Y-59215908D01*
X77347883Y-59209501D01*
X77347881Y-59209500D01*
X77347873Y-59209500D01*
X77347864Y-59209500D01*
X76302129Y-59209500D01*
X76302123Y-59209501D01*
X76242516Y-59215908D01*
X76107671Y-59266202D01*
X76107664Y-59266206D01*
X75992455Y-59352452D01*
X75992452Y-59352455D01*
X75906206Y-59467664D01*
X75906202Y-59467671D01*
X75883391Y-59528833D01*
X75841520Y-59584767D01*
X75776056Y-59609184D01*
X75767209Y-59609500D01*
X73946544Y-59609500D01*
X73879505Y-59589815D01*
X73858863Y-59573181D01*
X70186819Y-55901137D01*
X70153334Y-55839814D01*
X70150500Y-55813456D01*
X70150500Y-50474500D01*
X70170185Y-50407461D01*
X70222989Y-50361706D01*
X70274500Y-50350500D01*
X73725642Y-50350500D01*
X73792681Y-50370185D01*
G37*
%TD.AperFunction*%
%TA.AperFunction,Conductor*%
G36*
X73790599Y-43770185D02*
G01*
X73836354Y-43822989D01*
X73839742Y-43831167D01*
X73881202Y-43942328D01*
X73881206Y-43942335D01*
X73967452Y-44057544D01*
X73967455Y-44057547D01*
X74082664Y-44143793D01*
X74082671Y-44143797D01*
X74217517Y-44194091D01*
X74217516Y-44194091D01*
X74224444Y-44194835D01*
X74277127Y-44200500D01*
X75322872Y-44200499D01*
X75382483Y-44194091D01*
X75517331Y-44143796D01*
X75632546Y-44057546D01*
X75718796Y-43942331D01*
X75741609Y-43881167D01*
X75783480Y-43825233D01*
X75848944Y-43800816D01*
X75857791Y-43800500D01*
X78053456Y-43800500D01*
X78120495Y-43820185D01*
X78141137Y-43836819D01*
X80184788Y-45880470D01*
X80264712Y-45926614D01*
X80353856Y-45950500D01*
X90403456Y-45950500D01*
X90470495Y-45970185D01*
X90491137Y-45986819D01*
X91613181Y-47108863D01*
X91646666Y-47170186D01*
X91649500Y-47196544D01*
X91649500Y-49464456D01*
X91629815Y-49531495D01*
X91577011Y-49577250D01*
X91507853Y-49587194D01*
X91444297Y-49558169D01*
X91437819Y-49552137D01*
X91065213Y-49179531D01*
X91065208Y-49179527D01*
X91017923Y-49152227D01*
X90969707Y-49101660D01*
X90963741Y-49088173D01*
X90918797Y-48967671D01*
X90918793Y-48967664D01*
X90832547Y-48852455D01*
X90832544Y-48852452D01*
X90717335Y-48766206D01*
X90717328Y-48766202D01*
X90582482Y-48715908D01*
X90582483Y-48715908D01*
X90522883Y-48709501D01*
X90522881Y-48709500D01*
X90522873Y-48709500D01*
X90522864Y-48709500D01*
X89477129Y-48709500D01*
X89477123Y-48709501D01*
X89417516Y-48715908D01*
X89282671Y-48766202D01*
X89282664Y-48766206D01*
X89167455Y-48852452D01*
X89167452Y-48852455D01*
X89099266Y-48943540D01*
X89043332Y-48985411D01*
X88973641Y-48990395D01*
X88912318Y-48956909D01*
X88900734Y-48943540D01*
X88832547Y-48852455D01*
X88832544Y-48852452D01*
X88717335Y-48766206D01*
X88717328Y-48766202D01*
X88582482Y-48715908D01*
X88582483Y-48715908D01*
X88522883Y-48709501D01*
X88522881Y-48709500D01*
X88522873Y-48709500D01*
X88522864Y-48709500D01*
X87477129Y-48709500D01*
X87477123Y-48709501D01*
X87417516Y-48715908D01*
X87282671Y-48766202D01*
X87282664Y-48766206D01*
X87167455Y-48852452D01*
X87076059Y-48974541D01*
X87020125Y-49016411D01*
X86950434Y-49021395D01*
X86889112Y-48987910D01*
X86880603Y-48979401D01*
X86880601Y-48979400D01*
X86880601Y-48979399D01*
X86797740Y-48924034D01*
X86797739Y-48924033D01*
X86797735Y-48924032D01*
X86724677Y-48909500D01*
X86724674Y-48909500D01*
X85774500Y-48909500D01*
X85707461Y-48889815D01*
X85661706Y-48837011D01*
X85650500Y-48785500D01*
X85650500Y-48486439D01*
X85670185Y-48419400D01*
X85722989Y-48373645D01*
X85731168Y-48370257D01*
X85742770Y-48365930D01*
X85772085Y-48354996D01*
X85842326Y-48328798D01*
X85842326Y-48328797D01*
X85842331Y-48328796D01*
X85957546Y-48242546D01*
X86000734Y-48184854D01*
X86056667Y-48142984D01*
X86126359Y-48138000D01*
X86187682Y-48171485D01*
X86199263Y-48184850D01*
X86242454Y-48242546D01*
X86250766Y-48248768D01*
X86357664Y-48328793D01*
X86357671Y-48328797D01*
X86379973Y-48337115D01*
X86492517Y-48379091D01*
X86552127Y-48385500D01*
X87147872Y-48385499D01*
X87207483Y-48379091D01*
X87342331Y-48328796D01*
X87457546Y-48242546D01*
X87543796Y-48127331D01*
X87594091Y-47992483D01*
X87600500Y-47932873D01*
X87600499Y-46887128D01*
X87594091Y-46827517D01*
X87580546Y-46791202D01*
X87543797Y-46692671D01*
X87543793Y-46692664D01*
X87457547Y-46577455D01*
X87457544Y-46577452D01*
X87342335Y-46491206D01*
X87342328Y-46491202D01*
X87207486Y-46440910D01*
X87207485Y-46440909D01*
X87207483Y-46440909D01*
X87147873Y-46434500D01*
X87147863Y-46434500D01*
X86552129Y-46434500D01*
X86552123Y-46434501D01*
X86492516Y-46440908D01*
X86357671Y-46491202D01*
X86357664Y-46491206D01*
X86242455Y-46577452D01*
X86199266Y-46635145D01*
X86143332Y-46677015D01*
X86073640Y-46681999D01*
X86012317Y-46648513D01*
X86000734Y-46635145D01*
X85959100Y-46579530D01*
X85957546Y-46577454D01*
X85957544Y-46577453D01*
X85957544Y-46577452D01*
X85842335Y-46491206D01*
X85842328Y-46491202D01*
X85707486Y-46440910D01*
X85707485Y-46440909D01*
X85707483Y-46440909D01*
X85647873Y-46434500D01*
X85647863Y-46434500D01*
X85052129Y-46434500D01*
X85052123Y-46434501D01*
X84992516Y-46440908D01*
X84857671Y-46491202D01*
X84857664Y-46491206D01*
X84742455Y-46577452D01*
X84742452Y-46577455D01*
X84656206Y-46692664D01*
X84656202Y-46692671D01*
X84605908Y-46827517D01*
X84599782Y-46884500D01*
X84599501Y-46887123D01*
X84599500Y-46887135D01*
X84599500Y-47932870D01*
X84599501Y-47932876D01*
X84605908Y-47992483D01*
X84656202Y-48127328D01*
X84656206Y-48127335D01*
X84742452Y-48242544D01*
X84742455Y-48242547D01*
X84857665Y-48328794D01*
X84857667Y-48328794D01*
X84857669Y-48328796D01*
X84868830Y-48332958D01*
X84924764Y-48374826D01*
X84949184Y-48440289D01*
X84949500Y-48449141D01*
X84949500Y-51056144D01*
X84955413Y-51078211D01*
X84955766Y-51079526D01*
X84955767Y-51079532D01*
X84973384Y-51145285D01*
X84973385Y-51145286D01*
X85019527Y-51225208D01*
X85019531Y-51225213D01*
X85313181Y-51518863D01*
X85346666Y-51580186D01*
X85349500Y-51606544D01*
X85349500Y-51684678D01*
X85364032Y-51757735D01*
X85364033Y-51757739D01*
X85364034Y-51757740D01*
X85419399Y-51840601D01*
X85485100Y-51884500D01*
X85502260Y-51895966D01*
X85502264Y-51895967D01*
X85575321Y-51910499D01*
X85575324Y-51910500D01*
X85575326Y-51910500D01*
X86724676Y-51910500D01*
X86724677Y-51910499D01*
X86797740Y-51895966D01*
X86880601Y-51840601D01*
X86935966Y-51757740D01*
X86950500Y-51684674D01*
X86950500Y-51035326D01*
X86950500Y-51035323D01*
X86950499Y-51035321D01*
X86935967Y-50962264D01*
X86935967Y-50962263D01*
X86935966Y-50962262D01*
X86935966Y-50962260D01*
X86930372Y-50953889D01*
X86909495Y-50887216D01*
X86927978Y-50819836D01*
X86930338Y-50816161D01*
X86935966Y-50807740D01*
X86950500Y-50734674D01*
X86950500Y-50149954D01*
X86970185Y-50082915D01*
X87022989Y-50037160D01*
X87092147Y-50027216D01*
X87155703Y-50056241D01*
X87162181Y-50062273D01*
X87167455Y-50067547D01*
X87282664Y-50153793D01*
X87282671Y-50153797D01*
X87417517Y-50204091D01*
X87417516Y-50204091D01*
X87424444Y-50204835D01*
X87477127Y-50210500D01*
X88522872Y-50210499D01*
X88582483Y-50204091D01*
X88717331Y-50153796D01*
X88832546Y-50067546D01*
X88900734Y-49976457D01*
X88956667Y-49934588D01*
X89026359Y-49929604D01*
X89087682Y-49963089D01*
X89099261Y-49976452D01*
X89167454Y-50067546D01*
X89191201Y-50085323D01*
X89282664Y-50153793D01*
X89282671Y-50153797D01*
X89417517Y-50204091D01*
X89417516Y-50204091D01*
X89424444Y-50204835D01*
X89477127Y-50210500D01*
X90522872Y-50210499D01*
X90582483Y-50204091D01*
X90717331Y-50153796D01*
X90820486Y-50076573D01*
X90885950Y-50052157D01*
X90954223Y-50067008D01*
X90982478Y-50088160D01*
X91013181Y-50118863D01*
X91046666Y-50180186D01*
X91049500Y-50206544D01*
X91049500Y-54856144D01*
X91061909Y-54902455D01*
X91073385Y-54945287D01*
X91119527Y-55025208D01*
X91119531Y-55025213D01*
X92263181Y-56168863D01*
X92296666Y-56230186D01*
X92299500Y-56256544D01*
X92299500Y-56387756D01*
X92279815Y-56454795D01*
X92227011Y-56500550D01*
X92162247Y-56511045D01*
X92147873Y-56509500D01*
X92147864Y-56509500D01*
X91102129Y-56509500D01*
X91102123Y-56509501D01*
X91042516Y-56515908D01*
X90907671Y-56566202D01*
X90907664Y-56566206D01*
X90792455Y-56652452D01*
X90792452Y-56652455D01*
X90706206Y-56767664D01*
X90706202Y-56767671D01*
X90683391Y-56828833D01*
X90641520Y-56884767D01*
X90576056Y-56909184D01*
X90567209Y-56909500D01*
X90482791Y-56909500D01*
X90415752Y-56889815D01*
X90369997Y-56837011D01*
X90366609Y-56828833D01*
X90343797Y-56767671D01*
X90343793Y-56767664D01*
X90257547Y-56652455D01*
X90257544Y-56652452D01*
X90142335Y-56566206D01*
X90142329Y-56566203D01*
X90031166Y-56524741D01*
X89975233Y-56482869D01*
X89950816Y-56417405D01*
X89950500Y-56408559D01*
X89950500Y-56024499D01*
X89970185Y-55957460D01*
X90022989Y-55911705D01*
X90074500Y-55900499D01*
X90122871Y-55900499D01*
X90122872Y-55900499D01*
X90182483Y-55894091D01*
X90317331Y-55843796D01*
X90432546Y-55757546D01*
X90518796Y-55642331D01*
X90569091Y-55507483D01*
X90575500Y-55447873D01*
X90575499Y-54852128D01*
X90569091Y-54792517D01*
X90564353Y-54779815D01*
X90518797Y-54657671D01*
X90518793Y-54657664D01*
X90432547Y-54542455D01*
X90432544Y-54542452D01*
X90317335Y-54456206D01*
X90317328Y-54456202D01*
X90182482Y-54405908D01*
X90182483Y-54405908D01*
X90122883Y-54399501D01*
X90122881Y-54399500D01*
X90122873Y-54399500D01*
X90122864Y-54399500D01*
X89077129Y-54399500D01*
X89077123Y-54399501D01*
X89017516Y-54405908D01*
X88882671Y-54456202D01*
X88882664Y-54456206D01*
X88767455Y-54542452D01*
X88767452Y-54542455D01*
X88681206Y-54657664D01*
X88681202Y-54657671D01*
X88658391Y-54718833D01*
X88616520Y-54774767D01*
X88551056Y-54799184D01*
X88542209Y-54799500D01*
X88224499Y-54799500D01*
X88157460Y-54779815D01*
X88111705Y-54727011D01*
X88100499Y-54675500D01*
X88100499Y-54487129D01*
X88100498Y-54487123D01*
X88100497Y-54487116D01*
X88094091Y-54427517D01*
X88086031Y-54405908D01*
X88043797Y-54292671D01*
X88043793Y-54292664D01*
X87957547Y-54177455D01*
X87957544Y-54177452D01*
X87842335Y-54091206D01*
X87842328Y-54091202D01*
X87707486Y-54040910D01*
X87707485Y-54040909D01*
X87707483Y-54040909D01*
X87647873Y-54034500D01*
X87647863Y-54034500D01*
X87052129Y-54034500D01*
X87052123Y-54034501D01*
X86992516Y-54040908D01*
X86857671Y-54091202D01*
X86857664Y-54091206D01*
X86742455Y-54177452D01*
X86742452Y-54177455D01*
X86656206Y-54292664D01*
X86656202Y-54292671D01*
X86605908Y-54427517D01*
X86601045Y-54472755D01*
X86599501Y-54487123D01*
X86599500Y-54487135D01*
X86599500Y-55532870D01*
X86599501Y-55532876D01*
X86605908Y-55592483D01*
X86656202Y-55727328D01*
X86656206Y-55727335D01*
X86742452Y-55842544D01*
X86742455Y-55842547D01*
X86857664Y-55928793D01*
X86857671Y-55928797D01*
X86899784Y-55944504D01*
X86992517Y-55979091D01*
X87052127Y-55985500D01*
X87647872Y-55985499D01*
X87707483Y-55979091D01*
X87842331Y-55928796D01*
X87957546Y-55842546D01*
X88043796Y-55727331D01*
X88074766Y-55644297D01*
X88096802Y-55585215D01*
X88098944Y-55586013D01*
X88127826Y-55535279D01*
X88189733Y-55502886D01*
X88213940Y-55500500D01*
X88542209Y-55500500D01*
X88609248Y-55520185D01*
X88655003Y-55572989D01*
X88658391Y-55581167D01*
X88681202Y-55642328D01*
X88681206Y-55642335D01*
X88767452Y-55757544D01*
X88767455Y-55757547D01*
X88882664Y-55843793D01*
X88882671Y-55843797D01*
X88890774Y-55846819D01*
X89017517Y-55894091D01*
X89077127Y-55900500D01*
X89125500Y-55900499D01*
X89192537Y-55920182D01*
X89238293Y-55972985D01*
X89249500Y-56024499D01*
X89249500Y-56385500D01*
X89229815Y-56452539D01*
X89177011Y-56498294D01*
X89125501Y-56509500D01*
X88902130Y-56509500D01*
X88902123Y-56509501D01*
X88842516Y-56515908D01*
X88707671Y-56566202D01*
X88707664Y-56566206D01*
X88592455Y-56652452D01*
X88592452Y-56652455D01*
X88506206Y-56767664D01*
X88506202Y-56767671D01*
X88455910Y-56902513D01*
X88455909Y-56902517D01*
X88449500Y-56962127D01*
X88449500Y-56962134D01*
X88449500Y-56962135D01*
X88449500Y-57557870D01*
X88449501Y-57557876D01*
X88455908Y-57617483D01*
X88506202Y-57752328D01*
X88506206Y-57752335D01*
X88592452Y-57867544D01*
X88592455Y-57867547D01*
X88707664Y-57953793D01*
X88707671Y-57953797D01*
X88842517Y-58004091D01*
X88842516Y-58004091D01*
X88849444Y-58004835D01*
X88902127Y-58010500D01*
X89947872Y-58010499D01*
X90007483Y-58004091D01*
X90142331Y-57953796D01*
X90257546Y-57867546D01*
X90343796Y-57752331D01*
X90366609Y-57691167D01*
X90408480Y-57635233D01*
X90473944Y-57610816D01*
X90482791Y-57610500D01*
X90567209Y-57610500D01*
X90634248Y-57630185D01*
X90680003Y-57682989D01*
X90683391Y-57691167D01*
X90706202Y-57752328D01*
X90706203Y-57752330D01*
X90779254Y-57849913D01*
X90803671Y-57915377D01*
X90788820Y-57983650D01*
X90767668Y-58011905D01*
X90316122Y-58463451D01*
X90254799Y-58496936D01*
X90185107Y-58491952D01*
X90154129Y-58475036D01*
X90142331Y-58466204D01*
X90142328Y-58466202D01*
X90007482Y-58415908D01*
X90007483Y-58415908D01*
X89947883Y-58409501D01*
X89947881Y-58409500D01*
X89947873Y-58409500D01*
X89947864Y-58409500D01*
X88902129Y-58409500D01*
X88902123Y-58409501D01*
X88842516Y-58415908D01*
X88707671Y-58466202D01*
X88707664Y-58466206D01*
X88592455Y-58552452D01*
X88592452Y-58552455D01*
X88524266Y-58643540D01*
X88468332Y-58685411D01*
X88398641Y-58690395D01*
X88337318Y-58656909D01*
X88325734Y-58643540D01*
X88257547Y-58552455D01*
X88257544Y-58552452D01*
X88142335Y-58466206D01*
X88142328Y-58466202D01*
X88007482Y-58415908D01*
X88007483Y-58415908D01*
X87947883Y-58409501D01*
X87947881Y-58409500D01*
X87947873Y-58409500D01*
X87947864Y-58409500D01*
X86902129Y-58409500D01*
X86902123Y-58409501D01*
X86842516Y-58415908D01*
X86707671Y-58466202D01*
X86707664Y-58466206D01*
X86592455Y-58552452D01*
X86592452Y-58552455D01*
X86524266Y-58643540D01*
X86468332Y-58685411D01*
X86398641Y-58690395D01*
X86337318Y-58656909D01*
X86325734Y-58643540D01*
X86257547Y-58552455D01*
X86257544Y-58552452D01*
X86142335Y-58466206D01*
X86142328Y-58466202D01*
X86007482Y-58415908D01*
X86007483Y-58415908D01*
X85947883Y-58409501D01*
X85947881Y-58409500D01*
X85947873Y-58409500D01*
X85947864Y-58409500D01*
X84902129Y-58409500D01*
X84902123Y-58409501D01*
X84842516Y-58415908D01*
X84707671Y-58466202D01*
X84707664Y-58466206D01*
X84592457Y-58552451D01*
X84592449Y-58552459D01*
X84578000Y-58571760D01*
X84522065Y-58613630D01*
X84452373Y-58618612D01*
X84391051Y-58585126D01*
X84357568Y-58523802D01*
X84361398Y-58470278D01*
X84358584Y-58469719D01*
X84375499Y-58384678D01*
X84375500Y-58384676D01*
X84375500Y-57735323D01*
X84375499Y-57735321D01*
X84360967Y-57662264D01*
X84360966Y-57662260D01*
X84342907Y-57635233D01*
X84305601Y-57579399D01*
X84222740Y-57524034D01*
X84222739Y-57524033D01*
X84222735Y-57524032D01*
X84149677Y-57509500D01*
X84149674Y-57509500D01*
X84049500Y-57509500D01*
X83982461Y-57489815D01*
X83936706Y-57437011D01*
X83925500Y-57385500D01*
X83925500Y-56058466D01*
X83945185Y-55991427D01*
X83997989Y-55945672D01*
X84006156Y-55942288D01*
X84042331Y-55928796D01*
X84157546Y-55842546D01*
X84243796Y-55727331D01*
X84294091Y-55592483D01*
X84300500Y-55532873D01*
X84300500Y-55484500D01*
X84320185Y-55417461D01*
X84372989Y-55371706D01*
X84424500Y-55360500D01*
X84575501Y-55360500D01*
X84642540Y-55380185D01*
X84688295Y-55432989D01*
X84699501Y-55484500D01*
X84699501Y-55532876D01*
X84705908Y-55592483D01*
X84756202Y-55727328D01*
X84756206Y-55727335D01*
X84842452Y-55842544D01*
X84842455Y-55842547D01*
X84957664Y-55928793D01*
X84957671Y-55928797D01*
X84999784Y-55944504D01*
X85092517Y-55979091D01*
X85152127Y-55985500D01*
X85747872Y-55985499D01*
X85807483Y-55979091D01*
X85942331Y-55928796D01*
X86057546Y-55842546D01*
X86143796Y-55727331D01*
X86194091Y-55592483D01*
X86200500Y-55532873D01*
X86200499Y-54487128D01*
X86194091Y-54427517D01*
X86186031Y-54405908D01*
X86143797Y-54292671D01*
X86143793Y-54292664D01*
X86057547Y-54177455D01*
X86057544Y-54177452D01*
X85942335Y-54091206D01*
X85942328Y-54091202D01*
X85807486Y-54040910D01*
X85807485Y-54040909D01*
X85807483Y-54040909D01*
X85747873Y-54034500D01*
X85747863Y-54034500D01*
X85152129Y-54034500D01*
X85152123Y-54034501D01*
X85092516Y-54040908D01*
X84957671Y-54091202D01*
X84957664Y-54091206D01*
X84842455Y-54177452D01*
X84842452Y-54177455D01*
X84756206Y-54292664D01*
X84756202Y-54292671D01*
X84705908Y-54427517D01*
X84701045Y-54472755D01*
X84699501Y-54487123D01*
X84699500Y-54487135D01*
X84699500Y-54535500D01*
X84679815Y-54602539D01*
X84627011Y-54648294D01*
X84575500Y-54659500D01*
X84424499Y-54659500D01*
X84357460Y-54639815D01*
X84311705Y-54587011D01*
X84300499Y-54535500D01*
X84300499Y-54487129D01*
X84300498Y-54487123D01*
X84300497Y-54487116D01*
X84294091Y-54427517D01*
X84286031Y-54405908D01*
X84243797Y-54292671D01*
X84243793Y-54292664D01*
X84157547Y-54177455D01*
X84157544Y-54177452D01*
X84042335Y-54091206D01*
X84042328Y-54091202D01*
X83907482Y-54040908D01*
X83899938Y-54039126D01*
X83900474Y-54036853D01*
X83846688Y-54014571D01*
X83806843Y-53957177D01*
X83800500Y-53918024D01*
X83800500Y-52034500D01*
X83820185Y-51967461D01*
X83872989Y-51921706D01*
X83924500Y-51910500D01*
X84024676Y-51910500D01*
X84024677Y-51910499D01*
X84097740Y-51895966D01*
X84180601Y-51840601D01*
X84235966Y-51757740D01*
X84250500Y-51684674D01*
X84250500Y-51035326D01*
X84250500Y-51035323D01*
X84250499Y-51035321D01*
X84235967Y-50962264D01*
X84235967Y-50962263D01*
X84235966Y-50962262D01*
X84235966Y-50962260D01*
X84230372Y-50953889D01*
X84209495Y-50887216D01*
X84227978Y-50819836D01*
X84230338Y-50816161D01*
X84235966Y-50807740D01*
X84250500Y-50734674D01*
X84250500Y-50085326D01*
X84250500Y-50085323D01*
X84250499Y-50085321D01*
X84235967Y-50012264D01*
X84235967Y-50012263D01*
X84235966Y-50012262D01*
X84235966Y-50012260D01*
X84230372Y-50003889D01*
X84209495Y-49937216D01*
X84227978Y-49869836D01*
X84230338Y-49866161D01*
X84235966Y-49857740D01*
X84250500Y-49784674D01*
X84250500Y-49135326D01*
X84250500Y-49135323D01*
X84250499Y-49135321D01*
X84235967Y-49062264D01*
X84235966Y-49062260D01*
X84224625Y-49045287D01*
X84180601Y-48979399D01*
X84097740Y-48924034D01*
X84097739Y-48924033D01*
X84097735Y-48924032D01*
X84024677Y-48909500D01*
X84024674Y-48909500D01*
X83924500Y-48909500D01*
X83857461Y-48889815D01*
X83811706Y-48837011D01*
X83800500Y-48785500D01*
X83800500Y-48467790D01*
X83820185Y-48400751D01*
X83872989Y-48354996D01*
X83881146Y-48351616D01*
X83942331Y-48328796D01*
X84057546Y-48242546D01*
X84143796Y-48127331D01*
X84194091Y-47992483D01*
X84200500Y-47932873D01*
X84200499Y-46887128D01*
X84194091Y-46827517D01*
X84180546Y-46791202D01*
X84143797Y-46692671D01*
X84143793Y-46692664D01*
X84057547Y-46577455D01*
X84057544Y-46577452D01*
X83942335Y-46491206D01*
X83942328Y-46491202D01*
X83807486Y-46440910D01*
X83807485Y-46440909D01*
X83807483Y-46440909D01*
X83747873Y-46434500D01*
X83747863Y-46434500D01*
X83152129Y-46434500D01*
X83152123Y-46434501D01*
X83092516Y-46440908D01*
X82957671Y-46491202D01*
X82957664Y-46491206D01*
X82842455Y-46577452D01*
X82842452Y-46577455D01*
X82756206Y-46692664D01*
X82756202Y-46692671D01*
X82705908Y-46827517D01*
X82699782Y-46884500D01*
X82699501Y-46887123D01*
X82699500Y-46887135D01*
X82699500Y-46935500D01*
X82679815Y-47002539D01*
X82627011Y-47048294D01*
X82575500Y-47059500D01*
X81714399Y-47059500D01*
X81647360Y-47039815D01*
X81603914Y-46991794D01*
X81556233Y-46898213D01*
X81540937Y-46877160D01*
X81454414Y-46758072D01*
X81331928Y-46635586D01*
X81191788Y-46533768D01*
X81037445Y-46455127D01*
X80872701Y-46401598D01*
X80872699Y-46401597D01*
X80872698Y-46401597D01*
X80741271Y-46380781D01*
X80701611Y-46374500D01*
X80528389Y-46374500D01*
X80496192Y-46379599D01*
X80357301Y-46401597D01*
X80188028Y-46456597D01*
X80118186Y-46458592D01*
X80062029Y-46426347D01*
X78705213Y-45069531D01*
X78705208Y-45069527D01*
X78625290Y-45023387D01*
X78625289Y-45023386D01*
X78625288Y-45023386D01*
X78536144Y-44999500D01*
X78536143Y-44999500D01*
X75857791Y-44999500D01*
X75790752Y-44979815D01*
X75744997Y-44927011D01*
X75741609Y-44918833D01*
X75718797Y-44857671D01*
X75718793Y-44857664D01*
X75632547Y-44742455D01*
X75632544Y-44742452D01*
X75517335Y-44656206D01*
X75517328Y-44656202D01*
X75382482Y-44605908D01*
X75382483Y-44605908D01*
X75322883Y-44599501D01*
X75322881Y-44599500D01*
X75322873Y-44599500D01*
X75322864Y-44599500D01*
X74277129Y-44599500D01*
X74277123Y-44599501D01*
X74217516Y-44605908D01*
X74082671Y-44656202D01*
X74082664Y-44656206D01*
X73967455Y-44742452D01*
X73967452Y-44742455D01*
X73881206Y-44857664D01*
X73881202Y-44857671D01*
X73830910Y-44992513D01*
X73830909Y-44992517D01*
X73824500Y-45052127D01*
X73824500Y-45052134D01*
X73824500Y-45052135D01*
X73824500Y-45647870D01*
X73824501Y-45647876D01*
X73830908Y-45707483D01*
X73881202Y-45842328D01*
X73881206Y-45842335D01*
X73967452Y-45957544D01*
X73967455Y-45957547D01*
X74082664Y-46043793D01*
X74082671Y-46043797D01*
X74217517Y-46094091D01*
X74217516Y-46094091D01*
X74224444Y-46094835D01*
X74277127Y-46100500D01*
X75322872Y-46100499D01*
X75382483Y-46094091D01*
X75517331Y-46043796D01*
X75632546Y-45957546D01*
X75718796Y-45842331D01*
X75740969Y-45782883D01*
X75741609Y-45781167D01*
X75783480Y-45725233D01*
X75848944Y-45700816D01*
X75857791Y-45700500D01*
X78293456Y-45700500D01*
X78360495Y-45720185D01*
X78381137Y-45736819D01*
X79566347Y-46922029D01*
X79599832Y-46983352D01*
X79596597Y-47048028D01*
X79541597Y-47217301D01*
X79514500Y-47388389D01*
X79514500Y-47561610D01*
X79537405Y-47706232D01*
X79541598Y-47732701D01*
X79595127Y-47897445D01*
X79673768Y-48051788D01*
X79775586Y-48191928D01*
X79898072Y-48314414D01*
X80038212Y-48416232D01*
X80192555Y-48494873D01*
X80357299Y-48548402D01*
X80528389Y-48575500D01*
X80528390Y-48575500D01*
X80701610Y-48575500D01*
X80701611Y-48575500D01*
X80872701Y-48548402D01*
X81037445Y-48494873D01*
X81191788Y-48416232D01*
X81331928Y-48314414D01*
X81454414Y-48191928D01*
X81556232Y-48051788D01*
X81634873Y-47897445D01*
X81651530Y-47846181D01*
X81690968Y-47788506D01*
X81755327Y-47761308D01*
X81769461Y-47760500D01*
X82575501Y-47760500D01*
X82642540Y-47780185D01*
X82688295Y-47832989D01*
X82699501Y-47884500D01*
X82699501Y-47932876D01*
X82705908Y-47992483D01*
X82756202Y-48127328D01*
X82756206Y-48127335D01*
X82842452Y-48242544D01*
X82842455Y-48242547D01*
X82957664Y-48328793D01*
X82957666Y-48328794D01*
X82957669Y-48328796D01*
X83018833Y-48351608D01*
X83074766Y-48393478D01*
X83099184Y-48458942D01*
X83099500Y-48467790D01*
X83099500Y-48785500D01*
X83079815Y-48852539D01*
X83027011Y-48898294D01*
X82975500Y-48909500D01*
X82875323Y-48909500D01*
X82802264Y-48924032D01*
X82802260Y-48924033D01*
X82719399Y-48979399D01*
X82664033Y-49062260D01*
X82664032Y-49062264D01*
X82649500Y-49135321D01*
X82649500Y-49570046D01*
X82629815Y-49637085D01*
X82577011Y-49682840D01*
X82507853Y-49692784D01*
X82444297Y-49663759D01*
X82437819Y-49657727D01*
X82432544Y-49652452D01*
X82317335Y-49566206D01*
X82317328Y-49566202D01*
X82182482Y-49515908D01*
X82182483Y-49515908D01*
X82122883Y-49509501D01*
X82122881Y-49509500D01*
X82122873Y-49509500D01*
X82122864Y-49509500D01*
X81077129Y-49509500D01*
X81077123Y-49509501D01*
X81017516Y-49515908D01*
X80882671Y-49566202D01*
X80882664Y-49566206D01*
X80767455Y-49652452D01*
X80767452Y-49652455D01*
X80699266Y-49743540D01*
X80643332Y-49785411D01*
X80573641Y-49790395D01*
X80512318Y-49756909D01*
X80500734Y-49743540D01*
X80432547Y-49652455D01*
X80432544Y-49652452D01*
X80317335Y-49566206D01*
X80317328Y-49566202D01*
X80182482Y-49515908D01*
X80182483Y-49515908D01*
X80122883Y-49509501D01*
X80122881Y-49509500D01*
X80122873Y-49509500D01*
X80122864Y-49509500D01*
X79077129Y-49509500D01*
X79077123Y-49509501D01*
X79017516Y-49515908D01*
X78882671Y-49566202D01*
X78882664Y-49566206D01*
X78767455Y-49652452D01*
X78767452Y-49652455D01*
X78675888Y-49774769D01*
X78673710Y-49773138D01*
X78634213Y-49812616D01*
X78565937Y-49827451D01*
X78500478Y-49803018D01*
X78487132Y-49791450D01*
X78415213Y-49719531D01*
X78415208Y-49719527D01*
X78335290Y-49673387D01*
X78335289Y-49673386D01*
X78335288Y-49673386D01*
X78246144Y-49649500D01*
X78246143Y-49649500D01*
X70396544Y-49649500D01*
X70329505Y-49629815D01*
X70308863Y-49613181D01*
X70297259Y-49601577D01*
X70263774Y-49540254D01*
X70268758Y-49470562D01*
X70310630Y-49414629D01*
X70341602Y-49397716D01*
X70392331Y-49378796D01*
X70507546Y-49292546D01*
X70593796Y-49177331D01*
X70644091Y-49042483D01*
X70650500Y-48982873D01*
X70650499Y-47937128D01*
X70644091Y-47877517D01*
X70638071Y-47861377D01*
X70593797Y-47742671D01*
X70593793Y-47742664D01*
X70507547Y-47627456D01*
X70507548Y-47627456D01*
X70507546Y-47627454D01*
X70416457Y-47559265D01*
X70374588Y-47503333D01*
X70369604Y-47433641D01*
X70403089Y-47372318D01*
X70416452Y-47360738D01*
X70507546Y-47292546D01*
X70593796Y-47177331D01*
X70644091Y-47042483D01*
X70650500Y-46982873D01*
X70650499Y-45937128D01*
X70644409Y-45880472D01*
X70644091Y-45877516D01*
X70593797Y-45742671D01*
X70593793Y-45742664D01*
X70507547Y-45627455D01*
X70507544Y-45627452D01*
X70392335Y-45541206D01*
X70392328Y-45541202D01*
X70331167Y-45518391D01*
X70275233Y-45476520D01*
X70250816Y-45411056D01*
X70250500Y-45402209D01*
X70250500Y-45373810D01*
X70270185Y-45306771D01*
X70305620Y-45270700D01*
X70306123Y-45270364D01*
X70372802Y-45249495D01*
X70440180Y-45267989D01*
X70443889Y-45270373D01*
X70452258Y-45275965D01*
X70452259Y-45275965D01*
X70452260Y-45275966D01*
X70452262Y-45275966D01*
X70452264Y-45275967D01*
X70525321Y-45290499D01*
X70525324Y-45290500D01*
X70525326Y-45290500D01*
X71174676Y-45290500D01*
X71174677Y-45290499D01*
X71247740Y-45275966D01*
X71330601Y-45220601D01*
X71385966Y-45137740D01*
X71400500Y-45064674D01*
X71400500Y-44964500D01*
X71420185Y-44897461D01*
X71472989Y-44851706D01*
X71524500Y-44840500D01*
X71756142Y-44840500D01*
X71756144Y-44840500D01*
X71845288Y-44816614D01*
X71847700Y-44815220D01*
X71847719Y-44815216D01*
X71847717Y-44815211D01*
X71925212Y-44770470D01*
X72908863Y-43786819D01*
X72970186Y-43753334D01*
X72996544Y-43750500D01*
X73723560Y-43750500D01*
X73790599Y-43770185D01*
G37*
%TD.AperFunction*%
%TA.AperFunction,Conductor*%
G36*
X80687682Y-50763089D02*
G01*
X80699261Y-50776452D01*
X80767454Y-50867546D01*
X80798234Y-50890588D01*
X80882664Y-50953793D01*
X80882671Y-50953797D01*
X81017517Y-51004091D01*
X81017516Y-51004091D01*
X81024444Y-51004835D01*
X81077127Y-51010500D01*
X82122872Y-51010499D01*
X82182483Y-51004091D01*
X82317331Y-50953796D01*
X82432546Y-50867546D01*
X82446996Y-50848243D01*
X82502927Y-50806371D01*
X82572618Y-50801384D01*
X82633943Y-50834867D01*
X82667429Y-50896189D01*
X82663602Y-50949723D01*
X82666416Y-50950283D01*
X82649500Y-51035323D01*
X82649500Y-51684678D01*
X82664032Y-51757735D01*
X82664033Y-51757739D01*
X82664034Y-51757740D01*
X82719399Y-51840601D01*
X82785100Y-51884500D01*
X82802260Y-51895966D01*
X82802264Y-51895967D01*
X82875321Y-51910499D01*
X82875324Y-51910500D01*
X82875326Y-51910500D01*
X82975500Y-51910500D01*
X83042539Y-51930185D01*
X83088294Y-51982989D01*
X83099500Y-52034500D01*
X83099500Y-53997819D01*
X83079815Y-54064858D01*
X83049811Y-54097085D01*
X82988827Y-54142738D01*
X82923363Y-54167156D01*
X82855090Y-54152305D01*
X82826835Y-54131153D01*
X82400213Y-53704531D01*
X82400208Y-53704527D01*
X82320290Y-53658387D01*
X82320285Y-53658385D01*
X82313727Y-53656627D01*
X82313727Y-53656628D01*
X82231144Y-53634500D01*
X82231143Y-53634500D01*
X79971544Y-53634500D01*
X79904505Y-53614815D01*
X79883863Y-53598181D01*
X78836819Y-52551137D01*
X78803334Y-52489814D01*
X78800500Y-52463456D01*
X78800500Y-51101742D01*
X78820185Y-51034703D01*
X78872989Y-50988948D01*
X78942147Y-50979004D01*
X78967830Y-50985559D01*
X79017517Y-51004091D01*
X79077127Y-51010500D01*
X80122872Y-51010499D01*
X80182483Y-51004091D01*
X80317331Y-50953796D01*
X80432546Y-50867546D01*
X80500734Y-50776457D01*
X80556667Y-50734588D01*
X80626359Y-50729604D01*
X80687682Y-50763089D01*
G37*
%TD.AperFunction*%
%TA.AperFunction,Conductor*%
G36*
X92808363Y-35520185D02*
G01*
X92829005Y-35536819D01*
X94463181Y-37170995D01*
X94496666Y-37232318D01*
X94499500Y-37258676D01*
X94499500Y-68741324D01*
X94479815Y-68808363D01*
X94463181Y-68829005D01*
X92829005Y-70463181D01*
X92767682Y-70496666D01*
X92741324Y-70499500D01*
X40258676Y-70499500D01*
X40191637Y-70479815D01*
X40170995Y-70463181D01*
X38536819Y-68829005D01*
X38503334Y-68767682D01*
X38500500Y-68741324D01*
X38500500Y-44553856D01*
X40249500Y-44553856D01*
X40249500Y-44566458D01*
X40249500Y-58846144D01*
X40264065Y-58900501D01*
X40264065Y-58900502D01*
X40273384Y-58935284D01*
X40273385Y-58935286D01*
X40273386Y-58935288D01*
X40274448Y-58937127D01*
X40319527Y-59015208D01*
X40319529Y-59015211D01*
X40319530Y-59015212D01*
X40934787Y-59630469D01*
X41011418Y-59674712D01*
X41014712Y-59676614D01*
X41103856Y-59700500D01*
X43012481Y-59700500D01*
X43079520Y-59720185D01*
X43122966Y-59768205D01*
X43186182Y-59892274D01*
X43203768Y-59926788D01*
X43305586Y-60066928D01*
X43428072Y-60189414D01*
X43568212Y-60291232D01*
X43722555Y-60369873D01*
X43887299Y-60423402D01*
X44058389Y-60450500D01*
X44058390Y-60450500D01*
X44231610Y-60450500D01*
X44231611Y-60450500D01*
X44402701Y-60423402D01*
X44567445Y-60369873D01*
X44721788Y-60291232D01*
X44861928Y-60189414D01*
X44984414Y-60066928D01*
X45086232Y-59926788D01*
X45164873Y-59772445D01*
X45218402Y-59607701D01*
X45223396Y-59576166D01*
X45253324Y-59513035D01*
X45312636Y-59476103D01*
X45382498Y-59477101D01*
X45433550Y-59507886D01*
X46606134Y-60680470D01*
X46658148Y-60710500D01*
X46658150Y-60710501D01*
X46686055Y-60726613D01*
X46686057Y-60726613D01*
X46686058Y-60726614D01*
X46775202Y-60750500D01*
X46775203Y-60750500D01*
X46867490Y-60750500D01*
X52203456Y-60750500D01*
X52270495Y-60770185D01*
X52291137Y-60786819D01*
X54984788Y-63480470D01*
X55064712Y-63526614D01*
X55153856Y-63550500D01*
X66003456Y-63550500D01*
X66070495Y-63570185D01*
X66091137Y-63586819D01*
X67559531Y-65055212D01*
X67624788Y-65120469D01*
X67624791Y-65120470D01*
X67624794Y-65120473D01*
X67704706Y-65166611D01*
X67704707Y-65166611D01*
X67704712Y-65166614D01*
X67793856Y-65190500D01*
X68465298Y-65190500D01*
X68532337Y-65210185D01*
X68568400Y-65245609D01*
X68617048Y-65318415D01*
X68617051Y-65318419D01*
X68721580Y-65422948D01*
X68721584Y-65422951D01*
X68844498Y-65505080D01*
X68844511Y-65505087D01*
X68954149Y-65550500D01*
X68981087Y-65561658D01*
X68981091Y-65561658D01*
X68981092Y-65561659D01*
X69126079Y-65590500D01*
X69126082Y-65590500D01*
X69273919Y-65590500D01*
X69359798Y-65573417D01*
X69429389Y-65579644D01*
X69471671Y-65607353D01*
X71079531Y-67215212D01*
X71144788Y-67280469D01*
X71144791Y-67280470D01*
X71144794Y-67280473D01*
X71224706Y-67326611D01*
X71224707Y-67326611D01*
X71224712Y-67326614D01*
X71313856Y-67350500D01*
X73775501Y-67350500D01*
X73842540Y-67370185D01*
X73888295Y-67422989D01*
X73899501Y-67474500D01*
X73899501Y-67522876D01*
X73905908Y-67582483D01*
X73956202Y-67717328D01*
X73956206Y-67717335D01*
X74042452Y-67832544D01*
X74042455Y-67832547D01*
X74157664Y-67918793D01*
X74157671Y-67918797D01*
X74202618Y-67935561D01*
X74292517Y-67969091D01*
X74352127Y-67975500D01*
X74947872Y-67975499D01*
X75007483Y-67969091D01*
X75142331Y-67918796D01*
X75257546Y-67832546D01*
X75343796Y-67717331D01*
X75394091Y-67582483D01*
X75400500Y-67522873D01*
X75400499Y-66477128D01*
X75394091Y-66417517D01*
X75378983Y-66377011D01*
X75343797Y-66282671D01*
X75343793Y-66282664D01*
X75257547Y-66167456D01*
X75257548Y-66167456D01*
X75257546Y-66167454D01*
X75166457Y-66099265D01*
X75124588Y-66043333D01*
X75119604Y-65973641D01*
X75153089Y-65912318D01*
X75166452Y-65900738D01*
X75257546Y-65832546D01*
X75343796Y-65717331D01*
X75394091Y-65582483D01*
X75400500Y-65522873D01*
X75400499Y-64477135D01*
X75799500Y-64477135D01*
X75799500Y-65522870D01*
X75799501Y-65522876D01*
X75805908Y-65582483D01*
X75856202Y-65717328D01*
X75856206Y-65717335D01*
X75942452Y-65832544D01*
X75942455Y-65832547D01*
X76033540Y-65900734D01*
X76075411Y-65956668D01*
X76080395Y-66026359D01*
X76046909Y-66087682D01*
X76033540Y-66099266D01*
X75942455Y-66167452D01*
X75942452Y-66167455D01*
X75856206Y-66282664D01*
X75856202Y-66282671D01*
X75805908Y-66417517D01*
X75802470Y-66449500D01*
X75799501Y-66477123D01*
X75799500Y-66477135D01*
X75799500Y-67522870D01*
X75799501Y-67522876D01*
X75805908Y-67582483D01*
X75856202Y-67717328D01*
X75856206Y-67717335D01*
X75942452Y-67832544D01*
X75942455Y-67832547D01*
X76057664Y-67918793D01*
X76057671Y-67918797D01*
X76102618Y-67935561D01*
X76192517Y-67969091D01*
X76252127Y-67975500D01*
X76847872Y-67975499D01*
X76907483Y-67969091D01*
X77042331Y-67918796D01*
X77157546Y-67832546D01*
X77243796Y-67717331D01*
X77294091Y-67582483D01*
X77300500Y-67522873D01*
X77300500Y-67274500D01*
X77320185Y-67207461D01*
X77372989Y-67161706D01*
X77424500Y-67150500D01*
X83976142Y-67150500D01*
X83976144Y-67150500D01*
X84065288Y-67126614D01*
X84145212Y-67080470D01*
X85079126Y-66146554D01*
X85140447Y-66113071D01*
X85210138Y-66118055D01*
X85214206Y-66119655D01*
X85246916Y-66133204D01*
X85246920Y-66133204D01*
X85246921Y-66133205D01*
X85434411Y-66170500D01*
X85434414Y-66170500D01*
X85625588Y-66170500D01*
X85751729Y-66145408D01*
X85813084Y-66133204D01*
X85922289Y-66087970D01*
X85989700Y-66060048D01*
X85989701Y-66060047D01*
X85989704Y-66060046D01*
X86148658Y-65953837D01*
X86283837Y-65818658D01*
X86390046Y-65659704D01*
X86393704Y-65650874D01*
X86431515Y-65559589D01*
X86463204Y-65483084D01*
X86475408Y-65421729D01*
X86500500Y-65295588D01*
X86500500Y-65104411D01*
X86463205Y-64916921D01*
X86463204Y-64916920D01*
X86463204Y-64916916D01*
X86411686Y-64792539D01*
X86390048Y-64740299D01*
X86283835Y-64581339D01*
X86148660Y-64446164D01*
X85989700Y-64339951D01*
X85813088Y-64266797D01*
X85813078Y-64266794D01*
X85625588Y-64229500D01*
X85625586Y-64229500D01*
X85434414Y-64229500D01*
X85434412Y-64229500D01*
X85246921Y-64266794D01*
X85246911Y-64266797D01*
X85070299Y-64339951D01*
X84911339Y-64446164D01*
X84776164Y-64581339D01*
X84669951Y-64740299D01*
X84596797Y-64916911D01*
X84596794Y-64916921D01*
X84559500Y-65104411D01*
X84559500Y-65104414D01*
X84559500Y-65295586D01*
X84559500Y-65295588D01*
X84559499Y-65295588D01*
X84596794Y-65483077D01*
X84596796Y-65483085D01*
X84610323Y-65515743D01*
X84617790Y-65585213D01*
X84586514Y-65647691D01*
X84583442Y-65650874D01*
X83821137Y-66413181D01*
X83759814Y-66446666D01*
X83733456Y-66449500D01*
X77392115Y-66449500D01*
X77325076Y-66429815D01*
X77279321Y-66377011D01*
X77275933Y-66368833D01*
X77243797Y-66282671D01*
X77243793Y-66282664D01*
X77157547Y-66167456D01*
X77157548Y-66167456D01*
X77157546Y-66167454D01*
X77066457Y-66099265D01*
X77024588Y-66043333D01*
X77019604Y-65973641D01*
X77053089Y-65912318D01*
X77066452Y-65900738D01*
X77157546Y-65832546D01*
X77243796Y-65717331D01*
X77294091Y-65582483D01*
X77300500Y-65522873D01*
X77300500Y-65474500D01*
X77320185Y-65407461D01*
X77372989Y-65361706D01*
X77424500Y-65350500D01*
X78203456Y-65350500D01*
X78270495Y-65370185D01*
X78291137Y-65386819D01*
X78384788Y-65480470D01*
X78384789Y-65480471D01*
X78384791Y-65480472D01*
X78424750Y-65503542D01*
X78464712Y-65526614D01*
X78553856Y-65550500D01*
X78553857Y-65550500D01*
X78646144Y-65550500D01*
X79355500Y-65550500D01*
X79422539Y-65570185D01*
X79468294Y-65622989D01*
X79479500Y-65674500D01*
X79479500Y-65944678D01*
X79494032Y-66017735D01*
X79494033Y-66017739D01*
X79494034Y-66017740D01*
X79549399Y-66100601D01*
X79618177Y-66146556D01*
X79632260Y-66155966D01*
X79632264Y-66155967D01*
X79705321Y-66170499D01*
X79705324Y-66170500D01*
X79705326Y-66170500D01*
X81194676Y-66170500D01*
X81194677Y-66170499D01*
X81267740Y-66155966D01*
X81350601Y-66100601D01*
X81405966Y-66017740D01*
X81420500Y-65944674D01*
X81420500Y-64455326D01*
X81420500Y-64455323D01*
X81420499Y-64455321D01*
X81405967Y-64382264D01*
X81405966Y-64382260D01*
X81392641Y-64362318D01*
X81350601Y-64299399D01*
X81267740Y-64244034D01*
X81267739Y-64244033D01*
X81267735Y-64244032D01*
X81194677Y-64229500D01*
X81194674Y-64229500D01*
X79705326Y-64229500D01*
X79705323Y-64229500D01*
X79632264Y-64244032D01*
X79632260Y-64244033D01*
X79549399Y-64299399D01*
X79494033Y-64382260D01*
X79494032Y-64382264D01*
X79479500Y-64455321D01*
X79479500Y-64725500D01*
X79459815Y-64792539D01*
X79407011Y-64838294D01*
X79355500Y-64849500D01*
X78796544Y-64849500D01*
X78729505Y-64829815D01*
X78708863Y-64813181D01*
X78615213Y-64719531D01*
X78615208Y-64719527D01*
X78535290Y-64673387D01*
X78535289Y-64673386D01*
X78535288Y-64673386D01*
X78446144Y-64649500D01*
X78446143Y-64649500D01*
X77424499Y-64649500D01*
X77357460Y-64629815D01*
X77311705Y-64577011D01*
X77300499Y-64525500D01*
X77300499Y-64477129D01*
X77300498Y-64477123D01*
X77300497Y-64477116D01*
X77294091Y-64417517D01*
X77280942Y-64382264D01*
X77243797Y-64282671D01*
X77243793Y-64282664D01*
X77157547Y-64167455D01*
X77157544Y-64167452D01*
X77042335Y-64081206D01*
X77042328Y-64081202D01*
X76907486Y-64030910D01*
X76907485Y-64030909D01*
X76907483Y-64030909D01*
X76847873Y-64024500D01*
X76847863Y-64024500D01*
X76252129Y-64024500D01*
X76252123Y-64024501D01*
X76192516Y-64030908D01*
X76057671Y-64081202D01*
X76057664Y-64081206D01*
X75942455Y-64167452D01*
X75942452Y-64167455D01*
X75856206Y-64282664D01*
X75856202Y-64282671D01*
X75805908Y-64417517D01*
X75800286Y-64469815D01*
X75799501Y-64477123D01*
X75799500Y-64477135D01*
X75400499Y-64477135D01*
X75400499Y-64477128D01*
X75394091Y-64417517D01*
X75380942Y-64382264D01*
X75343797Y-64282671D01*
X75343793Y-64282664D01*
X75257547Y-64167455D01*
X75257544Y-64167452D01*
X75142335Y-64081206D01*
X75142328Y-64081202D01*
X75007486Y-64030910D01*
X75007485Y-64030909D01*
X75007483Y-64030909D01*
X74947873Y-64024500D01*
X74947863Y-64024500D01*
X74352129Y-64024500D01*
X74352123Y-64024501D01*
X74292516Y-64030908D01*
X74157671Y-64081202D01*
X74157664Y-64081206D01*
X74042455Y-64167452D01*
X74042452Y-64167455D01*
X73956206Y-64282664D01*
X73956202Y-64282671D01*
X73905908Y-64417517D01*
X73900286Y-64469815D01*
X73899501Y-64477123D01*
X73899500Y-64477135D01*
X73899500Y-64525500D01*
X73879815Y-64592539D01*
X73827011Y-64638294D01*
X73775500Y-64649500D01*
X72816281Y-64649500D01*
X72749242Y-64629815D01*
X72703487Y-64577011D01*
X72701720Y-64572952D01*
X72665087Y-64484511D01*
X72665080Y-64484498D01*
X72582951Y-64361584D01*
X72582948Y-64361580D01*
X72478419Y-64257051D01*
X72478415Y-64257048D01*
X72355501Y-64174919D01*
X72355488Y-64174912D01*
X72218917Y-64118343D01*
X72218907Y-64118340D01*
X72073920Y-64089500D01*
X72073918Y-64089500D01*
X71926082Y-64089500D01*
X71926080Y-64089500D01*
X71781092Y-64118340D01*
X71781082Y-64118343D01*
X71644511Y-64174912D01*
X71644498Y-64174919D01*
X71521584Y-64257048D01*
X71521580Y-64257051D01*
X71451285Y-64327347D01*
X71389962Y-64360832D01*
X71320270Y-64355848D01*
X71275923Y-64327347D01*
X70986819Y-64038243D01*
X70953334Y-63976920D01*
X70950500Y-63950562D01*
X70950500Y-63153858D01*
X70950500Y-63153856D01*
X70926614Y-63064712D01*
X70880470Y-62984788D01*
X70215212Y-62319530D01*
X70215211Y-62319529D01*
X70215208Y-62319527D01*
X70135290Y-62273387D01*
X70135289Y-62273386D01*
X70135288Y-62273386D01*
X70046144Y-62249500D01*
X70046143Y-62249500D01*
X55596544Y-62249500D01*
X55529505Y-62229815D01*
X55508863Y-62213181D01*
X52815213Y-59519531D01*
X52815208Y-59519527D01*
X52735290Y-59473387D01*
X52735289Y-59473386D01*
X52735288Y-59473386D01*
X52646144Y-59449500D01*
X52646143Y-59449500D01*
X47331544Y-59449500D01*
X47264505Y-59429815D01*
X47243863Y-59413181D01*
X45193652Y-57362970D01*
X45160167Y-57301647D01*
X45163402Y-57236971D01*
X45170472Y-57215212D01*
X45218402Y-57067701D01*
X45245500Y-56896611D01*
X45245500Y-56723389D01*
X45218402Y-56552299D01*
X45164873Y-56387555D01*
X45164869Y-56387549D01*
X45163401Y-56383028D01*
X45161406Y-56313186D01*
X45193649Y-56257030D01*
X45603862Y-55846819D01*
X45665185Y-55813334D01*
X45691543Y-55810500D01*
X46225501Y-55810500D01*
X46292540Y-55830185D01*
X46338295Y-55882989D01*
X46349501Y-55934500D01*
X46349501Y-55982876D01*
X46355908Y-56042483D01*
X46406202Y-56177328D01*
X46406206Y-56177335D01*
X46492452Y-56292544D01*
X46492455Y-56292547D01*
X46607664Y-56378793D01*
X46607671Y-56378797D01*
X46622962Y-56384500D01*
X46742517Y-56429091D01*
X46802127Y-56435500D01*
X47397872Y-56435499D01*
X47457483Y-56429091D01*
X47592331Y-56378796D01*
X47707546Y-56292546D01*
X47793796Y-56177331D01*
X47844091Y-56042483D01*
X47850500Y-55982873D01*
X47850499Y-54937135D01*
X48249500Y-54937135D01*
X48249500Y-55982870D01*
X48249501Y-55982876D01*
X48255908Y-56042483D01*
X48306202Y-56177328D01*
X48306206Y-56177335D01*
X48392452Y-56292544D01*
X48392455Y-56292547D01*
X48507664Y-56378793D01*
X48507671Y-56378797D01*
X48522962Y-56384500D01*
X48642517Y-56429091D01*
X48702127Y-56435500D01*
X49297872Y-56435499D01*
X49357483Y-56429091D01*
X49492331Y-56378796D01*
X49607546Y-56292546D01*
X49693796Y-56177331D01*
X49744091Y-56042483D01*
X49750500Y-55982873D01*
X49750500Y-55934500D01*
X49770185Y-55867461D01*
X49822989Y-55821706D01*
X49874500Y-55810500D01*
X49980592Y-55810500D01*
X50047631Y-55830185D01*
X50093386Y-55882989D01*
X50103882Y-55921246D01*
X50105588Y-55937115D01*
X50141978Y-56034678D01*
X50153372Y-56065226D01*
X50235313Y-56174687D01*
X50313494Y-56233212D01*
X50344661Y-56256544D01*
X50344774Y-56256628D01*
X50368836Y-56265602D01*
X50424767Y-56307473D01*
X50449184Y-56372937D01*
X50449500Y-56381783D01*
X50449500Y-56938216D01*
X50429815Y-57005255D01*
X50377011Y-57051010D01*
X50368835Y-57054397D01*
X50344776Y-57063370D01*
X50344773Y-57063372D01*
X50235313Y-57145313D01*
X50153373Y-57254771D01*
X50105587Y-57382889D01*
X50099500Y-57439498D01*
X50099500Y-58280481D01*
X50099501Y-58280490D01*
X50105587Y-58337114D01*
X50132314Y-58408768D01*
X50153372Y-58465226D01*
X50235313Y-58574687D01*
X50344774Y-58656628D01*
X50472886Y-58704412D01*
X50529515Y-58710500D01*
X51070484Y-58710499D01*
X51127114Y-58704412D01*
X51255226Y-58656628D01*
X51364687Y-58574687D01*
X51446628Y-58465226D01*
X51494412Y-58337114D01*
X51496687Y-58315944D01*
X51500499Y-58280501D01*
X51500499Y-58280490D01*
X51500500Y-58280485D01*
X51500499Y-57439516D01*
X51494412Y-57382886D01*
X51446628Y-57254774D01*
X51364687Y-57145313D01*
X51255226Y-57063372D01*
X51255223Y-57063370D01*
X51231165Y-57054397D01*
X51175232Y-57012525D01*
X51150816Y-56947060D01*
X51150500Y-56938216D01*
X51150500Y-56381783D01*
X51170185Y-56314744D01*
X51222989Y-56268989D01*
X51231142Y-56265610D01*
X51255226Y-56256628D01*
X51364687Y-56174687D01*
X51446628Y-56065226D01*
X51494412Y-55937114D01*
X51498280Y-55901137D01*
X51500499Y-55880501D01*
X51500499Y-55880494D01*
X51500500Y-55880485D01*
X51500499Y-55039516D01*
X51494847Y-54986929D01*
X51494412Y-54982885D01*
X51464411Y-54902452D01*
X51446628Y-54854774D01*
X51364687Y-54745313D01*
X51292316Y-54691137D01*
X51255228Y-54663373D01*
X51255226Y-54663372D01*
X51127114Y-54615588D01*
X51127112Y-54615587D01*
X51127110Y-54615587D01*
X51070493Y-54609500D01*
X50529518Y-54609500D01*
X50529509Y-54609501D01*
X50472885Y-54615587D01*
X50344773Y-54663372D01*
X50235313Y-54745313D01*
X50153373Y-54854771D01*
X50114311Y-54959500D01*
X50105588Y-54982886D01*
X50103881Y-54998756D01*
X50077145Y-55063305D01*
X50019753Y-55103154D01*
X49980593Y-55109500D01*
X49874499Y-55109500D01*
X49807460Y-55089815D01*
X49761705Y-55037011D01*
X49750499Y-54985500D01*
X49750499Y-54937129D01*
X49750498Y-54937123D01*
X49750497Y-54937116D01*
X49744091Y-54877517D01*
X49736119Y-54856144D01*
X49693797Y-54742671D01*
X49693793Y-54742664D01*
X49607547Y-54627455D01*
X49607544Y-54627452D01*
X49492335Y-54541206D01*
X49492328Y-54541202D01*
X49357486Y-54490910D01*
X49357485Y-54490909D01*
X49357483Y-54490909D01*
X49297873Y-54484500D01*
X49297863Y-54484500D01*
X48702129Y-54484500D01*
X48702123Y-54484501D01*
X48642516Y-54490908D01*
X48507671Y-54541202D01*
X48507664Y-54541206D01*
X48392455Y-54627452D01*
X48392452Y-54627455D01*
X48306206Y-54742664D01*
X48306202Y-54742671D01*
X48255908Y-54877517D01*
X48250317Y-54929528D01*
X48249501Y-54937123D01*
X48249500Y-54937135D01*
X47850499Y-54937135D01*
X47850499Y-54937128D01*
X47844091Y-54877517D01*
X47836119Y-54856144D01*
X47793797Y-54742671D01*
X47793793Y-54742664D01*
X47707547Y-54627455D01*
X47707544Y-54627452D01*
X47592335Y-54541206D01*
X47592328Y-54541202D01*
X47457486Y-54490910D01*
X47457485Y-54490909D01*
X47457483Y-54490909D01*
X47397873Y-54484500D01*
X47397863Y-54484500D01*
X46802129Y-54484500D01*
X46802123Y-54484501D01*
X46742516Y-54490908D01*
X46607671Y-54541202D01*
X46607664Y-54541206D01*
X46492455Y-54627452D01*
X46492452Y-54627455D01*
X46406206Y-54742664D01*
X46406202Y-54742671D01*
X46355908Y-54877517D01*
X46350317Y-54929528D01*
X46349501Y-54937123D01*
X46349500Y-54937135D01*
X46349500Y-54985500D01*
X46329815Y-55052539D01*
X46277011Y-55098294D01*
X46225500Y-55109500D01*
X45448856Y-55109500D01*
X45359712Y-55133386D01*
X45359711Y-55133386D01*
X45359709Y-55133387D01*
X45359706Y-55133388D01*
X45279794Y-55179526D01*
X45279785Y-55179533D01*
X44697970Y-55761347D01*
X44636647Y-55794832D01*
X44571971Y-55791597D01*
X44402698Y-55736597D01*
X44264480Y-55714706D01*
X44231611Y-55709500D01*
X44058389Y-55709500D01*
X44025520Y-55714706D01*
X43887302Y-55736597D01*
X43722552Y-55790128D01*
X43568211Y-55868768D01*
X43523660Y-55901137D01*
X43428072Y-55970586D01*
X43428070Y-55970588D01*
X43428069Y-55970588D01*
X43305588Y-56093069D01*
X43305588Y-56093070D01*
X43305586Y-56093072D01*
X43287805Y-56117546D01*
X43203768Y-56233211D01*
X43184985Y-56270076D01*
X43137010Y-56320872D01*
X43069189Y-56337667D01*
X43003055Y-56315130D01*
X42959603Y-56260415D01*
X42950500Y-56213781D01*
X42950500Y-56011543D01*
X42970185Y-55944504D01*
X42986815Y-55923866D01*
X43592031Y-55318649D01*
X43653352Y-55285166D01*
X43718029Y-55288401D01*
X43722547Y-55289869D01*
X43722555Y-55289873D01*
X43887299Y-55343402D01*
X44058389Y-55370500D01*
X44058390Y-55370500D01*
X44231610Y-55370500D01*
X44231611Y-55370500D01*
X44402701Y-55343402D01*
X44567445Y-55289873D01*
X44721788Y-55211232D01*
X44861928Y-55109414D01*
X44984414Y-54986928D01*
X45086232Y-54846788D01*
X45164873Y-54692445D01*
X45218402Y-54527701D01*
X45245500Y-54356611D01*
X45245500Y-54183389D01*
X45218402Y-54012299D01*
X45164873Y-53847555D01*
X45164869Y-53847547D01*
X45163401Y-53843029D01*
X45161406Y-53773188D01*
X45193649Y-53717031D01*
X45663863Y-53246819D01*
X45725186Y-53213334D01*
X45751544Y-53210500D01*
X46225501Y-53210500D01*
X46292540Y-53230185D01*
X46338295Y-53282989D01*
X46349501Y-53334500D01*
X46349501Y-53382876D01*
X46355908Y-53442483D01*
X46406202Y-53577328D01*
X46406206Y-53577335D01*
X46492452Y-53692544D01*
X46492455Y-53692547D01*
X46607664Y-53778793D01*
X46607671Y-53778797D01*
X46652618Y-53795561D01*
X46742517Y-53829091D01*
X46802127Y-53835500D01*
X47397872Y-53835499D01*
X47457483Y-53829091D01*
X47592331Y-53778796D01*
X47707546Y-53692546D01*
X47793796Y-53577331D01*
X47844091Y-53442483D01*
X47850500Y-53382873D01*
X47850499Y-52337135D01*
X48249500Y-52337135D01*
X48249500Y-53382870D01*
X48249501Y-53382876D01*
X48255908Y-53442483D01*
X48306202Y-53577328D01*
X48306206Y-53577335D01*
X48392452Y-53692544D01*
X48392455Y-53692547D01*
X48507664Y-53778793D01*
X48507671Y-53778797D01*
X48552618Y-53795561D01*
X48642517Y-53829091D01*
X48702127Y-53835500D01*
X49297872Y-53835499D01*
X49357483Y-53829091D01*
X49492331Y-53778796D01*
X49607546Y-53692546D01*
X49693796Y-53577331D01*
X49744091Y-53442483D01*
X49750500Y-53382873D01*
X49750500Y-53334500D01*
X49770185Y-53267461D01*
X49822989Y-53221706D01*
X49874500Y-53210500D01*
X49980592Y-53210500D01*
X50047631Y-53230185D01*
X50093386Y-53282989D01*
X50103882Y-53321246D01*
X50105588Y-53337115D01*
X50144889Y-53442482D01*
X50153372Y-53465226D01*
X50235313Y-53574687D01*
X50344774Y-53656628D01*
X50472886Y-53704412D01*
X50529515Y-53710500D01*
X51070484Y-53710499D01*
X51127114Y-53704412D01*
X51255226Y-53656628D01*
X51364687Y-53574687D01*
X51446628Y-53465226D01*
X51494412Y-53337114D01*
X51500231Y-53282989D01*
X51500499Y-53280501D01*
X51500499Y-53280494D01*
X51500500Y-53280485D01*
X51500499Y-52439516D01*
X51494412Y-52382886D01*
X51494411Y-52382884D01*
X51474118Y-52328477D01*
X51446628Y-52254774D01*
X51364687Y-52145313D01*
X51255226Y-52063372D01*
X51255223Y-52063370D01*
X51231165Y-52054397D01*
X51175232Y-52012525D01*
X51150816Y-51947060D01*
X51150500Y-51938216D01*
X51150500Y-51381783D01*
X51170185Y-51314744D01*
X51222989Y-51268989D01*
X51231142Y-51265610D01*
X51255226Y-51256628D01*
X51364687Y-51174687D01*
X51446628Y-51065226D01*
X51494412Y-50937114D01*
X51497570Y-50907740D01*
X51500499Y-50880501D01*
X51500499Y-50880490D01*
X51500500Y-50880485D01*
X51500499Y-50039516D01*
X51495275Y-49990913D01*
X51494412Y-49982885D01*
X51474539Y-49929604D01*
X51446628Y-49854774D01*
X51364687Y-49745313D01*
X51294516Y-49692784D01*
X51255228Y-49663373D01*
X51255226Y-49663372D01*
X51127114Y-49615588D01*
X51127112Y-49615587D01*
X51127110Y-49615587D01*
X51070493Y-49609500D01*
X50529518Y-49609500D01*
X50529509Y-49609501D01*
X50472885Y-49615587D01*
X50344773Y-49663372D01*
X50235313Y-49745313D01*
X50153373Y-49854771D01*
X50133919Y-49906928D01*
X50106703Y-49979898D01*
X50105587Y-49982889D01*
X50099500Y-50039498D01*
X50099500Y-50880481D01*
X50099501Y-50880490D01*
X50105587Y-50937114D01*
X50152266Y-51062260D01*
X50153372Y-51065226D01*
X50235313Y-51174687D01*
X50344774Y-51256628D01*
X50368836Y-51265602D01*
X50424767Y-51307473D01*
X50449184Y-51372937D01*
X50449500Y-51381783D01*
X50449500Y-51938216D01*
X50429815Y-52005255D01*
X50377011Y-52051010D01*
X50368835Y-52054397D01*
X50344776Y-52063370D01*
X50344773Y-52063372D01*
X50235313Y-52145313D01*
X50153373Y-52254771D01*
X50144889Y-52277517D01*
X50105588Y-52382886D01*
X50103881Y-52398756D01*
X50077145Y-52463305D01*
X50019753Y-52503154D01*
X49980593Y-52509500D01*
X49874499Y-52509500D01*
X49807460Y-52489815D01*
X49761705Y-52437011D01*
X49750499Y-52385500D01*
X49750499Y-52337129D01*
X49750498Y-52337123D01*
X49750497Y-52337116D01*
X49744091Y-52277517D01*
X49735608Y-52254774D01*
X49693797Y-52142671D01*
X49693793Y-52142664D01*
X49607547Y-52027455D01*
X49607544Y-52027452D01*
X49492335Y-51941206D01*
X49492328Y-51941202D01*
X49357486Y-51890910D01*
X49357485Y-51890909D01*
X49357483Y-51890909D01*
X49297873Y-51884500D01*
X49297863Y-51884500D01*
X48702129Y-51884500D01*
X48702123Y-51884501D01*
X48642516Y-51890908D01*
X48507671Y-51941202D01*
X48507664Y-51941206D01*
X48392455Y-52027452D01*
X48392452Y-52027455D01*
X48306206Y-52142664D01*
X48306202Y-52142671D01*
X48255908Y-52277517D01*
X48250430Y-52328477D01*
X48249501Y-52337123D01*
X48249500Y-52337135D01*
X47850499Y-52337135D01*
X47850499Y-52337128D01*
X47844091Y-52277517D01*
X47835608Y-52254774D01*
X47793797Y-52142671D01*
X47793793Y-52142664D01*
X47707547Y-52027455D01*
X47707544Y-52027452D01*
X47592335Y-51941206D01*
X47592328Y-51941202D01*
X47457486Y-51890910D01*
X47457485Y-51890909D01*
X47457483Y-51890909D01*
X47397873Y-51884500D01*
X47397863Y-51884500D01*
X46802129Y-51884500D01*
X46802123Y-51884501D01*
X46742516Y-51890908D01*
X46607671Y-51941202D01*
X46607664Y-51941206D01*
X46492455Y-52027452D01*
X46492452Y-52027455D01*
X46406206Y-52142664D01*
X46406202Y-52142671D01*
X46355908Y-52277517D01*
X46350430Y-52328477D01*
X46349501Y-52337123D01*
X46349500Y-52337135D01*
X46349500Y-52385500D01*
X46329815Y-52452539D01*
X46277011Y-52498294D01*
X46225500Y-52509500D01*
X45508856Y-52509500D01*
X45419712Y-52533386D01*
X45419709Y-52533387D01*
X45339791Y-52579527D01*
X45339786Y-52579531D01*
X44697969Y-53221347D01*
X44636646Y-53254832D01*
X44571970Y-53251597D01*
X44402698Y-53196597D01*
X44271271Y-53175781D01*
X44231611Y-53169500D01*
X44058389Y-53169500D01*
X44018728Y-53175781D01*
X43887302Y-53196597D01*
X43722552Y-53250128D01*
X43568211Y-53328768D01*
X43556723Y-53337115D01*
X43428072Y-53430586D01*
X43428070Y-53430588D01*
X43428069Y-53430588D01*
X43305588Y-53553069D01*
X43305588Y-53553070D01*
X43305586Y-53553072D01*
X43289882Y-53574687D01*
X43203768Y-53693211D01*
X43125128Y-53847552D01*
X43071597Y-54012302D01*
X43044500Y-54183389D01*
X43044500Y-54356610D01*
X43071597Y-54527698D01*
X43126597Y-54696970D01*
X43128592Y-54766811D01*
X43096347Y-54822969D01*
X42319531Y-55599786D01*
X42319527Y-55599791D01*
X42275983Y-55675213D01*
X42273389Y-55679706D01*
X42273385Y-55679715D01*
X42249500Y-55768856D01*
X42249500Y-57046145D01*
X42270551Y-57124709D01*
X42273385Y-57135287D01*
X42273387Y-57135291D01*
X42319527Y-57215208D01*
X42319529Y-57215211D01*
X42319530Y-57215212D01*
X43384788Y-58280470D01*
X43384789Y-58280471D01*
X43384791Y-58280472D01*
X43420028Y-58300816D01*
X43468243Y-58351382D01*
X43481467Y-58419989D01*
X43455499Y-58484854D01*
X43430922Y-58508515D01*
X43428075Y-58510583D01*
X43428069Y-58510588D01*
X43305588Y-58633069D01*
X43305588Y-58633070D01*
X43305586Y-58633072D01*
X43274969Y-58675213D01*
X43203768Y-58773211D01*
X43122966Y-58931795D01*
X43074991Y-58982591D01*
X43012481Y-58999500D01*
X41346544Y-58999500D01*
X41279505Y-58979815D01*
X41258863Y-58963181D01*
X40986819Y-58691137D01*
X40953334Y-58629814D01*
X40950500Y-58603456D01*
X40950500Y-49103389D01*
X43044500Y-49103389D01*
X43044500Y-49276610D01*
X43065547Y-49409500D01*
X43071598Y-49447701D01*
X43125127Y-49612445D01*
X43203768Y-49766788D01*
X43305586Y-49906928D01*
X43428072Y-50029414D01*
X43568212Y-50131232D01*
X43722555Y-50209873D01*
X43887299Y-50263402D01*
X44058389Y-50290500D01*
X44058390Y-50290500D01*
X44231610Y-50290500D01*
X44231611Y-50290500D01*
X44402701Y-50263402D01*
X44567445Y-50209873D01*
X44721788Y-50131232D01*
X44861928Y-50029414D01*
X44984414Y-49906928D01*
X45086232Y-49766788D01*
X45164873Y-49612445D01*
X45218402Y-49447701D01*
X45245500Y-49276611D01*
X45245500Y-49103389D01*
X45218402Y-48932299D01*
X45164873Y-48767555D01*
X45164869Y-48767547D01*
X45163401Y-48763029D01*
X45161406Y-48693188D01*
X45193649Y-48637031D01*
X46137821Y-47692859D01*
X46199142Y-47659376D01*
X46268834Y-47664360D01*
X46324767Y-47706232D01*
X46349184Y-47771696D01*
X46349500Y-47780542D01*
X46349500Y-48382870D01*
X46349501Y-48382876D01*
X46355908Y-48442483D01*
X46406202Y-48577328D01*
X46406206Y-48577335D01*
X46482943Y-48679841D01*
X46492454Y-48692546D01*
X46492457Y-48692548D01*
X46498728Y-48698820D01*
X46496960Y-48700587D01*
X46530886Y-48745893D01*
X46535881Y-48815584D01*
X46502405Y-48876912D01*
X46502392Y-48876924D01*
X44697969Y-50681347D01*
X44636646Y-50714832D01*
X44571970Y-50711597D01*
X44402698Y-50656597D01*
X44267138Y-50635127D01*
X44231611Y-50629500D01*
X44058389Y-50629500D01*
X44022862Y-50635127D01*
X43887302Y-50656597D01*
X43887299Y-50656598D01*
X43785072Y-50689814D01*
X43722552Y-50710128D01*
X43568211Y-50788768D01*
X43505028Y-50834674D01*
X43428072Y-50890586D01*
X43428070Y-50890588D01*
X43428069Y-50890588D01*
X43305588Y-51013069D01*
X43305588Y-51013070D01*
X43305586Y-51013072D01*
X43274293Y-51056143D01*
X43203768Y-51153211D01*
X43125128Y-51307552D01*
X43071597Y-51472302D01*
X43056379Y-51568389D01*
X43044500Y-51643389D01*
X43044500Y-51816611D01*
X43048300Y-51840601D01*
X43070851Y-51982989D01*
X43071598Y-51987701D01*
X43125127Y-52152445D01*
X43203768Y-52306788D01*
X43305586Y-52446928D01*
X43428072Y-52569414D01*
X43568212Y-52671232D01*
X43722555Y-52749873D01*
X43887299Y-52803402D01*
X44058389Y-52830500D01*
X44058390Y-52830500D01*
X44231610Y-52830500D01*
X44231611Y-52830500D01*
X44402701Y-52803402D01*
X44567445Y-52749873D01*
X44721788Y-52671232D01*
X44861928Y-52569414D01*
X44984414Y-52446928D01*
X45086232Y-52306788D01*
X45164873Y-52152445D01*
X45218402Y-51987701D01*
X45245500Y-51816611D01*
X45245500Y-51643389D01*
X45218402Y-51472299D01*
X45164873Y-51307555D01*
X45164869Y-51307547D01*
X45163401Y-51303029D01*
X45161406Y-51233188D01*
X45193649Y-51177031D01*
X47380470Y-48990212D01*
X47426614Y-48910288D01*
X47430812Y-48894617D01*
X47467176Y-48834957D01*
X47507256Y-48810527D01*
X47592326Y-48778798D01*
X47592326Y-48778797D01*
X47592331Y-48778796D01*
X47707546Y-48692546D01*
X47793796Y-48577331D01*
X47844091Y-48442483D01*
X47850500Y-48382873D01*
X47850499Y-47337135D01*
X48249500Y-47337135D01*
X48249500Y-48382870D01*
X48249501Y-48382876D01*
X48255908Y-48442483D01*
X48306202Y-48577328D01*
X48306206Y-48577335D01*
X48392452Y-48692544D01*
X48392455Y-48692547D01*
X48507664Y-48778793D01*
X48507671Y-48778797D01*
X48525643Y-48785500D01*
X48642517Y-48829091D01*
X48702127Y-48835500D01*
X49297872Y-48835499D01*
X49357483Y-48829091D01*
X49492331Y-48778796D01*
X49607546Y-48692546D01*
X49693796Y-48577331D01*
X49744091Y-48442483D01*
X49750500Y-48382873D01*
X49750500Y-48334500D01*
X49770185Y-48267461D01*
X49822989Y-48221706D01*
X49874500Y-48210500D01*
X49980592Y-48210500D01*
X50047631Y-48230185D01*
X50093386Y-48282989D01*
X50103882Y-48321246D01*
X50105588Y-48337115D01*
X50151028Y-48458942D01*
X50153372Y-48465226D01*
X50235313Y-48574687D01*
X50286777Y-48613212D01*
X50338066Y-48651607D01*
X50344774Y-48656628D01*
X50472886Y-48704412D01*
X50529515Y-48710500D01*
X51070484Y-48710499D01*
X51127114Y-48704412D01*
X51255226Y-48656628D01*
X51364687Y-48574687D01*
X51446628Y-48465226D01*
X51494412Y-48337114D01*
X51498222Y-48301674D01*
X51500499Y-48280501D01*
X51500499Y-48280494D01*
X51500500Y-48280485D01*
X51500499Y-47439516D01*
X51494412Y-47382886D01*
X51492886Y-47378796D01*
X51458368Y-47286250D01*
X51446628Y-47254774D01*
X51364687Y-47145313D01*
X51275280Y-47078384D01*
X51255228Y-47063373D01*
X51255226Y-47063372D01*
X51127114Y-47015588D01*
X51127112Y-47015587D01*
X51127110Y-47015587D01*
X51070493Y-47009500D01*
X50529518Y-47009500D01*
X50529509Y-47009501D01*
X50472885Y-47015587D01*
X50344773Y-47063372D01*
X50235313Y-47145313D01*
X50153373Y-47254771D01*
X50122660Y-47337116D01*
X50105588Y-47382886D01*
X50103881Y-47398756D01*
X50077145Y-47463305D01*
X50019753Y-47503154D01*
X49980593Y-47509500D01*
X49874499Y-47509500D01*
X49807460Y-47489815D01*
X49761705Y-47437011D01*
X49750499Y-47385500D01*
X49750499Y-47337129D01*
X49750498Y-47337123D01*
X49750497Y-47337116D01*
X49744091Y-47277517D01*
X49735608Y-47254774D01*
X49693797Y-47142671D01*
X49693793Y-47142664D01*
X49607547Y-47027455D01*
X49607544Y-47027452D01*
X49492335Y-46941206D01*
X49492328Y-46941202D01*
X49357486Y-46890910D01*
X49357485Y-46890909D01*
X49357483Y-46890909D01*
X49297873Y-46884500D01*
X49297863Y-46884500D01*
X48702129Y-46884500D01*
X48702123Y-46884501D01*
X48642516Y-46890908D01*
X48507671Y-46941202D01*
X48507664Y-46941206D01*
X48392455Y-47027452D01*
X48392452Y-47027455D01*
X48306206Y-47142664D01*
X48306202Y-47142671D01*
X48255908Y-47277517D01*
X48249501Y-47337116D01*
X48249501Y-47337123D01*
X48249500Y-47337135D01*
X47850499Y-47337135D01*
X47850499Y-47337128D01*
X47844091Y-47277517D01*
X47835608Y-47254774D01*
X47793797Y-47142671D01*
X47793793Y-47142664D01*
X47707547Y-47027455D01*
X47707544Y-47027452D01*
X47592335Y-46941206D01*
X47592328Y-46941202D01*
X47457482Y-46890908D01*
X47457483Y-46890908D01*
X47397883Y-46884501D01*
X47397881Y-46884500D01*
X47397873Y-46884500D01*
X47397865Y-46884500D01*
X47245543Y-46884500D01*
X47178504Y-46864815D01*
X47132749Y-46812011D01*
X47122805Y-46742853D01*
X47151830Y-46679297D01*
X47157862Y-46672819D01*
X47380470Y-46450212D01*
X47426614Y-46370288D01*
X47430486Y-46355837D01*
X47438827Y-46324711D01*
X47444748Y-46302611D01*
X47448675Y-46287954D01*
X47485036Y-46228296D01*
X47525117Y-46203865D01*
X47592326Y-46178798D01*
X47592326Y-46178797D01*
X47592331Y-46178796D01*
X47707546Y-46092546D01*
X47793796Y-45977331D01*
X47844091Y-45842483D01*
X47850500Y-45782873D01*
X47850499Y-44737135D01*
X48249500Y-44737135D01*
X48249500Y-45782870D01*
X48249501Y-45782876D01*
X48255908Y-45842483D01*
X48306202Y-45977328D01*
X48306206Y-45977335D01*
X48392452Y-46092544D01*
X48392455Y-46092547D01*
X48507664Y-46178793D01*
X48507671Y-46178797D01*
X48546162Y-46193153D01*
X48642517Y-46229091D01*
X48702127Y-46235500D01*
X49297872Y-46235499D01*
X49357483Y-46229091D01*
X49492331Y-46178796D01*
X49607546Y-46092546D01*
X49693796Y-45977331D01*
X49744091Y-45842483D01*
X49750500Y-45782873D01*
X49750500Y-45734500D01*
X49770185Y-45667461D01*
X49822989Y-45621706D01*
X49874500Y-45610500D01*
X49980592Y-45610500D01*
X50047631Y-45630185D01*
X50093386Y-45682989D01*
X50103882Y-45721246D01*
X50105588Y-45737115D01*
X50122659Y-45782883D01*
X50153372Y-45865226D01*
X50235313Y-45974687D01*
X50344774Y-46056628D01*
X50472886Y-46104412D01*
X50529515Y-46110500D01*
X51070484Y-46110499D01*
X51127114Y-46104412D01*
X51255226Y-46056628D01*
X51364687Y-45974687D01*
X51446628Y-45865226D01*
X51494412Y-45737114D01*
X51497598Y-45707483D01*
X51500499Y-45680501D01*
X51500499Y-45680494D01*
X51500500Y-45680485D01*
X51500499Y-44839516D01*
X51494412Y-44782886D01*
X51489780Y-44770468D01*
X51466802Y-44708863D01*
X51446628Y-44654774D01*
X51364687Y-44545313D01*
X51298911Y-44496074D01*
X51255228Y-44463373D01*
X51255226Y-44463372D01*
X51127114Y-44415588D01*
X51127112Y-44415587D01*
X51127110Y-44415587D01*
X51070493Y-44409500D01*
X50529518Y-44409500D01*
X50529509Y-44409501D01*
X50472885Y-44415587D01*
X50344773Y-44463372D01*
X50235313Y-44545313D01*
X50153373Y-44654771D01*
X50125498Y-44729505D01*
X50105588Y-44782886D01*
X50103881Y-44798756D01*
X50077145Y-44863305D01*
X50019753Y-44903154D01*
X49980593Y-44909500D01*
X49874499Y-44909500D01*
X49807460Y-44889815D01*
X49761705Y-44837011D01*
X49750499Y-44785500D01*
X49750499Y-44737129D01*
X49750498Y-44737123D01*
X49750497Y-44737116D01*
X49744091Y-44677517D01*
X49735608Y-44654774D01*
X49693797Y-44542671D01*
X49693793Y-44542664D01*
X49607547Y-44427455D01*
X49607544Y-44427452D01*
X49492335Y-44341206D01*
X49492328Y-44341202D01*
X49357486Y-44290910D01*
X49357485Y-44290909D01*
X49357483Y-44290909D01*
X49297873Y-44284500D01*
X49297863Y-44284500D01*
X48702129Y-44284500D01*
X48702123Y-44284501D01*
X48642516Y-44290908D01*
X48507671Y-44341202D01*
X48507664Y-44341206D01*
X48392455Y-44427452D01*
X48392452Y-44427455D01*
X48306206Y-44542664D01*
X48306202Y-44542671D01*
X48255908Y-44677517D01*
X48250319Y-44729505D01*
X48249501Y-44737123D01*
X48249500Y-44737135D01*
X47850499Y-44737135D01*
X47850499Y-44737128D01*
X47844091Y-44677517D01*
X47835608Y-44654774D01*
X47793797Y-44542671D01*
X47793793Y-44542664D01*
X47707547Y-44427455D01*
X47707544Y-44427452D01*
X47592335Y-44341206D01*
X47592328Y-44341202D01*
X47457486Y-44290910D01*
X47457485Y-44290909D01*
X47457483Y-44290909D01*
X47397873Y-44284500D01*
X47397863Y-44284500D01*
X46802129Y-44284500D01*
X46802123Y-44284501D01*
X46742516Y-44290908D01*
X46607671Y-44341202D01*
X46607664Y-44341206D01*
X46492455Y-44427452D01*
X46492452Y-44427455D01*
X46406206Y-44542664D01*
X46406202Y-44542671D01*
X46355908Y-44677517D01*
X46350319Y-44729505D01*
X46349501Y-44737123D01*
X46349500Y-44737135D01*
X46349500Y-45782870D01*
X46349501Y-45782876D01*
X46355908Y-45842483D01*
X46406202Y-45977328D01*
X46406206Y-45977335D01*
X46492452Y-46092544D01*
X46492455Y-46092547D01*
X46523335Y-46115664D01*
X46565206Y-46171597D01*
X46570190Y-46241289D01*
X46536705Y-46302611D01*
X44697969Y-48141347D01*
X44636646Y-48174832D01*
X44571970Y-48171597D01*
X44402698Y-48116597D01*
X44271271Y-48095781D01*
X44231611Y-48089500D01*
X44058389Y-48089500D01*
X44018728Y-48095781D01*
X43887302Y-48116597D01*
X43722552Y-48170128D01*
X43568211Y-48248768D01*
X43495393Y-48301674D01*
X43428072Y-48350586D01*
X43428070Y-48350588D01*
X43428069Y-48350588D01*
X43305588Y-48473069D01*
X43305588Y-48473070D01*
X43305586Y-48473072D01*
X43289748Y-48494871D01*
X43203768Y-48613211D01*
X43125128Y-48767552D01*
X43071597Y-48932302D01*
X43044500Y-49103389D01*
X40950500Y-49103389D01*
X40950500Y-44796544D01*
X40970185Y-44729505D01*
X40986819Y-44708863D01*
X44108863Y-41586819D01*
X44170186Y-41553334D01*
X44196544Y-41550500D01*
X67125500Y-41550500D01*
X67192539Y-41570185D01*
X67238294Y-41622989D01*
X67249500Y-41674500D01*
X67249500Y-44336144D01*
X67260848Y-44378495D01*
X67269155Y-44409497D01*
X67269155Y-44409498D01*
X67273385Y-44425287D01*
X67319527Y-44505208D01*
X67319529Y-44505211D01*
X67319530Y-44505212D01*
X67584788Y-44770470D01*
X67662282Y-44815211D01*
X67662281Y-44815213D01*
X67662293Y-44815217D01*
X67664712Y-44816614D01*
X67664714Y-44816614D01*
X67664715Y-44816615D01*
X67679333Y-44820531D01*
X67753856Y-44840500D01*
X67753857Y-44840500D01*
X67846144Y-44840500D01*
X68275500Y-44840500D01*
X68342539Y-44860185D01*
X68388294Y-44912989D01*
X68399500Y-44964500D01*
X68399500Y-45064678D01*
X68414032Y-45137735D01*
X68414033Y-45137739D01*
X68414034Y-45137740D01*
X68469399Y-45220601D01*
X68543889Y-45270373D01*
X68552260Y-45275966D01*
X68552264Y-45275967D01*
X68625321Y-45290499D01*
X68625324Y-45290500D01*
X68625326Y-45290500D01*
X69274676Y-45290500D01*
X69274677Y-45290499D01*
X69347740Y-45275966D01*
X69356108Y-45270374D01*
X69422784Y-45249496D01*
X69490165Y-45267980D01*
X69493782Y-45270302D01*
X69494283Y-45270636D01*
X69539144Y-45324201D01*
X69549500Y-45373810D01*
X69549500Y-45402209D01*
X69529815Y-45469248D01*
X69477011Y-45515003D01*
X69468833Y-45518391D01*
X69407671Y-45541202D01*
X69407664Y-45541206D01*
X69292455Y-45627452D01*
X69292452Y-45627455D01*
X69206206Y-45742664D01*
X69206202Y-45742671D01*
X69155908Y-45877517D01*
X69149501Y-45937116D01*
X69149501Y-45937123D01*
X69149500Y-45937135D01*
X69149500Y-45999441D01*
X69129815Y-46066480D01*
X69077011Y-46112235D01*
X69057593Y-46119216D01*
X69019103Y-46129529D01*
X69004714Y-46133385D01*
X69004709Y-46133387D01*
X68924791Y-46179527D01*
X68924786Y-46179531D01*
X68376794Y-46727522D01*
X68315471Y-46761007D01*
X68245779Y-46756023D01*
X68189846Y-46714151D01*
X68182997Y-46703992D01*
X68180471Y-46699814D01*
X68180468Y-46699810D01*
X68060188Y-46579530D01*
X67914606Y-46491522D01*
X67908021Y-46489470D01*
X67752196Y-46440914D01*
X67752194Y-46440913D01*
X67752192Y-46440913D01*
X67702778Y-46436423D01*
X67681616Y-46434500D01*
X66668384Y-46434500D01*
X66649145Y-46436248D01*
X66597807Y-46440913D01*
X66435393Y-46491522D01*
X66289811Y-46579530D01*
X66169530Y-46699811D01*
X66081522Y-46845394D01*
X66043873Y-46966213D01*
X66005136Y-47024361D01*
X65941111Y-47052335D01*
X65872125Y-47041253D01*
X65825038Y-46999075D01*
X65824112Y-46999769D01*
X65820648Y-46995142D01*
X65820082Y-46994635D01*
X65819428Y-46993513D01*
X65732547Y-46877455D01*
X65732544Y-46877452D01*
X65617335Y-46791206D01*
X65617328Y-46791202D01*
X65482486Y-46740910D01*
X65482485Y-46740909D01*
X65482483Y-46740909D01*
X65422873Y-46734500D01*
X65422863Y-46734500D01*
X64827129Y-46734500D01*
X64827123Y-46734501D01*
X64767516Y-46740908D01*
X64632671Y-46791202D01*
X64632664Y-46791206D01*
X64517455Y-46877452D01*
X64517452Y-46877455D01*
X64431206Y-46992664D01*
X64431202Y-46992671D01*
X64380908Y-47127517D01*
X64374862Y-47183756D01*
X64374501Y-47187123D01*
X64374500Y-47187135D01*
X64374500Y-48232870D01*
X64374501Y-48232876D01*
X64380908Y-48292483D01*
X64431202Y-48427328D01*
X64431206Y-48427335D01*
X64517452Y-48542544D01*
X64517455Y-48542547D01*
X64632664Y-48628793D01*
X64632669Y-48628796D01*
X64693833Y-48651608D01*
X64749766Y-48693478D01*
X64774184Y-48758942D01*
X64774500Y-48767790D01*
X64774500Y-48885500D01*
X64754815Y-48952539D01*
X64702011Y-48998294D01*
X64650501Y-49009500D01*
X64452130Y-49009500D01*
X64452123Y-49009501D01*
X64392516Y-49015908D01*
X64257671Y-49066202D01*
X64257664Y-49066206D01*
X64142457Y-49152451D01*
X64142451Y-49152457D01*
X64136948Y-49159809D01*
X64081015Y-49201681D01*
X64037680Y-49209500D01*
X63958811Y-49209500D01*
X63891772Y-49189815D01*
X63855709Y-49154391D01*
X63805601Y-49079399D01*
X63722739Y-49024033D01*
X63722735Y-49024032D01*
X63649677Y-49009500D01*
X63649674Y-49009500D01*
X62500326Y-49009500D01*
X62500323Y-49009500D01*
X62427264Y-49024032D01*
X62427260Y-49024033D01*
X62344398Y-49079399D01*
X62302602Y-49141953D01*
X62248990Y-49186758D01*
X62179665Y-49195465D01*
X62116637Y-49165311D01*
X62079918Y-49105868D01*
X62075500Y-49073062D01*
X62075500Y-48767790D01*
X62095185Y-48700751D01*
X62147989Y-48654996D01*
X62156146Y-48651616D01*
X62217331Y-48628796D01*
X62332546Y-48542546D01*
X62375734Y-48484854D01*
X62431667Y-48442984D01*
X62501359Y-48438000D01*
X62562682Y-48471485D01*
X62574263Y-48484850D01*
X62617454Y-48542546D01*
X62625277Y-48548402D01*
X62732664Y-48628793D01*
X62732671Y-48628797D01*
X62777618Y-48645561D01*
X62867517Y-48679091D01*
X62927127Y-48685500D01*
X63522872Y-48685499D01*
X63582483Y-48679091D01*
X63717331Y-48628796D01*
X63832546Y-48542546D01*
X63918796Y-48427331D01*
X63969091Y-48292483D01*
X63975500Y-48232873D01*
X63975499Y-47187128D01*
X63969091Y-47127517D01*
X63963035Y-47111281D01*
X63918797Y-46992671D01*
X63918793Y-46992664D01*
X63832547Y-46877455D01*
X63832544Y-46877452D01*
X63717335Y-46791206D01*
X63717328Y-46791202D01*
X63582486Y-46740910D01*
X63582485Y-46740909D01*
X63582483Y-46740909D01*
X63522873Y-46734500D01*
X63522863Y-46734500D01*
X62927129Y-46734500D01*
X62927123Y-46734501D01*
X62867516Y-46740908D01*
X62732671Y-46791202D01*
X62732664Y-46791206D01*
X62617455Y-46877452D01*
X62574266Y-46935145D01*
X62518332Y-46977015D01*
X62448640Y-46981999D01*
X62387317Y-46948513D01*
X62375734Y-46935145D01*
X62342618Y-46890909D01*
X62332546Y-46877454D01*
X62332544Y-46877453D01*
X62332544Y-46877452D01*
X62217335Y-46791206D01*
X62217328Y-46791202D01*
X62082486Y-46740910D01*
X62082485Y-46740909D01*
X62082483Y-46740909D01*
X62022873Y-46734500D01*
X62022863Y-46734500D01*
X61427129Y-46734500D01*
X61427123Y-46734501D01*
X61367516Y-46740908D01*
X61232671Y-46791202D01*
X61232664Y-46791206D01*
X61117455Y-46877452D01*
X61117452Y-46877455D01*
X61031206Y-46992664D01*
X61031202Y-46992671D01*
X60980908Y-47127517D01*
X60974862Y-47183756D01*
X60974501Y-47187123D01*
X60974500Y-47187135D01*
X60974500Y-48232870D01*
X60974501Y-48232876D01*
X60980908Y-48292483D01*
X61031202Y-48427328D01*
X61031206Y-48427335D01*
X61117452Y-48542544D01*
X61117455Y-48542547D01*
X61232664Y-48628793D01*
X61232669Y-48628796D01*
X61293833Y-48651608D01*
X61349766Y-48693478D01*
X61374184Y-48758942D01*
X61374500Y-48767790D01*
X61374500Y-49910266D01*
X61354815Y-49977305D01*
X61302011Y-50023060D01*
X61232853Y-50033004D01*
X61181610Y-50013369D01*
X61122739Y-49974033D01*
X61122735Y-49974032D01*
X61049677Y-49959500D01*
X61049674Y-49959500D01*
X59900326Y-49959500D01*
X59900323Y-49959500D01*
X59827264Y-49974032D01*
X59827260Y-49974033D01*
X59744399Y-50029399D01*
X59689033Y-50112260D01*
X59689032Y-50112264D01*
X59674500Y-50185321D01*
X59674500Y-50836501D01*
X59654815Y-50903540D01*
X59602011Y-50949295D01*
X59532853Y-50959239D01*
X59469297Y-50930214D01*
X59451234Y-50910813D01*
X59418845Y-50867548D01*
X59407546Y-50852454D01*
X59407544Y-50852453D01*
X59407544Y-50852452D01*
X59292335Y-50766206D01*
X59292328Y-50766202D01*
X59157482Y-50715908D01*
X59157483Y-50715908D01*
X59097883Y-50709501D01*
X59097881Y-50709500D01*
X59097873Y-50709500D01*
X59097864Y-50709500D01*
X58052129Y-50709500D01*
X58052123Y-50709501D01*
X57992516Y-50715908D01*
X57857671Y-50766202D01*
X57857664Y-50766206D01*
X57742455Y-50852452D01*
X57737181Y-50857727D01*
X57675858Y-50891212D01*
X57606166Y-50886228D01*
X57550233Y-50844356D01*
X57525816Y-50778892D01*
X57525500Y-50770046D01*
X57525500Y-50628386D01*
X57523487Y-50606232D01*
X57519086Y-50557804D01*
X57468478Y-50395394D01*
X57380472Y-50249815D01*
X57380470Y-50249813D01*
X57380469Y-50249811D01*
X57260188Y-50129530D01*
X57240253Y-50117479D01*
X57114606Y-50041522D01*
X56952196Y-49990914D01*
X56952194Y-49990913D01*
X56952192Y-49990913D01*
X56902778Y-49986423D01*
X56881616Y-49984500D01*
X55868384Y-49984500D01*
X55849145Y-49986248D01*
X55797807Y-49990913D01*
X55635393Y-50041522D01*
X55588650Y-50069780D01*
X55521095Y-50087616D01*
X55454621Y-50066098D01*
X55410334Y-50012058D01*
X55400500Y-49963663D01*
X55400500Y-45413858D01*
X55400500Y-45413856D01*
X55376614Y-45324712D01*
X55373622Y-45319530D01*
X55364573Y-45303855D01*
X55364573Y-45303856D01*
X55330470Y-45244788D01*
X55065212Y-44979530D01*
X55065211Y-44979529D01*
X55065208Y-44979527D01*
X54985290Y-44933387D01*
X54985289Y-44933386D01*
X54985288Y-44933386D01*
X54896144Y-44909500D01*
X54896143Y-44909500D01*
X54888294Y-44907397D01*
X54889161Y-44904159D01*
X54839475Y-44882137D01*
X54801045Y-44823785D01*
X54796334Y-44800769D01*
X54796117Y-44798754D01*
X54794412Y-44782886D01*
X54789780Y-44770468D01*
X54766802Y-44708863D01*
X54746628Y-44654774D01*
X54664687Y-44545313D01*
X54598911Y-44496074D01*
X54555228Y-44463373D01*
X54555226Y-44463372D01*
X54427114Y-44415588D01*
X54427112Y-44415587D01*
X54427110Y-44415587D01*
X54370493Y-44409500D01*
X53829518Y-44409500D01*
X53829509Y-44409501D01*
X53772885Y-44415587D01*
X53644773Y-44463372D01*
X53535313Y-44545313D01*
X53453373Y-44654771D01*
X53444889Y-44677517D01*
X53422653Y-44737135D01*
X53405587Y-44782889D01*
X53400709Y-44828261D01*
X53373970Y-44892812D01*
X53321725Y-44929084D01*
X53322219Y-44930277D01*
X53316738Y-44932547D01*
X53316577Y-44932659D01*
X53316181Y-44932777D01*
X53314709Y-44933387D01*
X53234791Y-44979527D01*
X53234786Y-44979531D01*
X52519531Y-45694786D01*
X52519525Y-45694794D01*
X52493156Y-45740468D01*
X52493156Y-45740470D01*
X52473386Y-45774711D01*
X52449500Y-45863856D01*
X52449500Y-58046143D01*
X52466744Y-58110500D01*
X52466744Y-58110501D01*
X52473384Y-58135285D01*
X52473385Y-58135286D01*
X52519527Y-58215208D01*
X52519529Y-58215211D01*
X52519530Y-58215212D01*
X53279531Y-58975212D01*
X53344788Y-59040469D01*
X53344791Y-59040470D01*
X53344794Y-59040473D01*
X53424706Y-59086611D01*
X53424707Y-59086611D01*
X53424712Y-59086614D01*
X53513856Y-59110500D01*
X53513858Y-59110500D01*
X54796142Y-59110500D01*
X54796144Y-59110500D01*
X54885288Y-59086614D01*
X54885292Y-59086612D01*
X54887892Y-59085110D01*
X54895931Y-59080469D01*
X54965212Y-59040470D01*
X55330470Y-58675212D01*
X55376614Y-58595288D01*
X55385935Y-58560500D01*
X55400500Y-58506144D01*
X55400500Y-57062753D01*
X55420185Y-56995714D01*
X55472989Y-56949959D01*
X55542147Y-56940015D01*
X55561382Y-56944366D01*
X55672804Y-56979086D01*
X55743384Y-56985500D01*
X55743387Y-56985500D01*
X56756613Y-56985500D01*
X56756616Y-56985500D01*
X56827196Y-56979086D01*
X56989606Y-56928478D01*
X57135185Y-56840472D01*
X57255472Y-56720185D01*
X57343478Y-56574606D01*
X57394086Y-56412196D01*
X57400500Y-56341616D01*
X57400500Y-56199954D01*
X57420185Y-56132915D01*
X57472989Y-56087160D01*
X57542147Y-56077216D01*
X57605703Y-56106241D01*
X57612181Y-56112273D01*
X57617455Y-56117547D01*
X57732664Y-56203793D01*
X57732671Y-56203797D01*
X57867517Y-56254091D01*
X57867516Y-56254091D01*
X57874444Y-56254835D01*
X57927127Y-56260500D01*
X58972872Y-56260499D01*
X59032483Y-56254091D01*
X59167331Y-56203796D01*
X59282546Y-56117546D01*
X59288052Y-56110191D01*
X59343985Y-56068319D01*
X59387320Y-56060500D01*
X59466189Y-56060500D01*
X59533228Y-56080185D01*
X59569291Y-56115609D01*
X59619398Y-56190600D01*
X59619399Y-56190601D01*
X59683172Y-56233212D01*
X59702260Y-56245966D01*
X59702264Y-56245967D01*
X59775321Y-56260499D01*
X59775324Y-56260500D01*
X59775326Y-56260500D01*
X60725500Y-56260500D01*
X60792539Y-56280185D01*
X60838294Y-56332989D01*
X60849500Y-56384500D01*
X60849500Y-56935500D01*
X60829815Y-57002539D01*
X60777011Y-57048294D01*
X60725500Y-57059500D01*
X59775323Y-57059500D01*
X59702264Y-57074032D01*
X59702260Y-57074033D01*
X59619399Y-57129399D01*
X59564033Y-57212260D01*
X59564032Y-57212264D01*
X59549500Y-57285321D01*
X59549500Y-57934678D01*
X59564032Y-58007735D01*
X59564033Y-58007739D01*
X59564034Y-58007740D01*
X59619399Y-58090601D01*
X59686276Y-58135286D01*
X59702260Y-58145966D01*
X59702264Y-58145967D01*
X59775321Y-58160499D01*
X59775324Y-58160500D01*
X59775326Y-58160500D01*
X60924676Y-58160500D01*
X60924677Y-58160499D01*
X60997740Y-58145966D01*
X61080601Y-58090601D01*
X61110306Y-58046143D01*
X61142752Y-57997585D01*
X61145297Y-57999285D01*
X61177134Y-57959769D01*
X61215767Y-57941844D01*
X61235288Y-57936614D01*
X61247556Y-57929531D01*
X61315212Y-57890470D01*
X61480469Y-57725212D01*
X61526614Y-57645288D01*
X61535935Y-57610500D01*
X61550500Y-57556144D01*
X61550500Y-57285321D01*
X62149500Y-57285321D01*
X62149500Y-57934678D01*
X62164032Y-58007735D01*
X62164033Y-58007739D01*
X62164034Y-58007740D01*
X62219399Y-58090601D01*
X62286276Y-58135286D01*
X62302260Y-58145966D01*
X62302264Y-58145967D01*
X62375321Y-58160499D01*
X62375324Y-58160500D01*
X62375326Y-58160500D01*
X62625500Y-58160500D01*
X62692539Y-58180185D01*
X62738294Y-58232989D01*
X62749500Y-58284500D01*
X62749500Y-58402209D01*
X62729815Y-58469248D01*
X62677011Y-58515003D01*
X62668833Y-58518391D01*
X62607671Y-58541202D01*
X62607664Y-58541206D01*
X62492455Y-58627452D01*
X62492452Y-58627455D01*
X62406206Y-58742664D01*
X62406202Y-58742671D01*
X62355908Y-58877517D01*
X62350529Y-58927555D01*
X62349501Y-58937123D01*
X62349500Y-58937135D01*
X62349500Y-59982870D01*
X62349501Y-59982876D01*
X62355908Y-60042483D01*
X62406202Y-60177328D01*
X62406206Y-60177335D01*
X62492452Y-60292544D01*
X62492455Y-60292547D01*
X62607664Y-60378793D01*
X62607671Y-60378797D01*
X62640837Y-60391167D01*
X62742517Y-60429091D01*
X62802127Y-60435500D01*
X63397872Y-60435499D01*
X63457483Y-60429091D01*
X63592331Y-60378796D01*
X63707546Y-60292546D01*
X63793796Y-60177331D01*
X63844091Y-60042483D01*
X63850500Y-59982873D01*
X63850499Y-58937128D01*
X63844091Y-58877517D01*
X63838351Y-58862128D01*
X63793797Y-58742671D01*
X63793793Y-58742664D01*
X63707547Y-58627455D01*
X63707544Y-58627452D01*
X63592335Y-58541206D01*
X63592328Y-58541202D01*
X63531167Y-58518391D01*
X63475233Y-58476520D01*
X63450816Y-58411056D01*
X63450500Y-58402209D01*
X63450500Y-58277018D01*
X63470185Y-58209979D01*
X63522989Y-58164224D01*
X63550305Y-58155401D01*
X63597740Y-58145966D01*
X63680601Y-58090601D01*
X63735966Y-58007740D01*
X63750500Y-57934674D01*
X63750500Y-57285326D01*
X63750500Y-57285323D01*
X63750499Y-57285321D01*
X63735967Y-57212264D01*
X63735966Y-57212260D01*
X63680601Y-57129399D01*
X63597740Y-57074034D01*
X63597739Y-57074033D01*
X63597735Y-57074032D01*
X63524677Y-57059500D01*
X63524674Y-57059500D01*
X62375326Y-57059500D01*
X62375323Y-57059500D01*
X62302264Y-57074032D01*
X62302260Y-57074033D01*
X62219399Y-57129399D01*
X62164033Y-57212260D01*
X62164032Y-57212264D01*
X62149500Y-57285321D01*
X61550500Y-57285321D01*
X61550500Y-55753856D01*
X61526614Y-55664712D01*
X61522962Y-55658386D01*
X61480470Y-55584788D01*
X61325212Y-55429530D01*
X61325211Y-55429529D01*
X61325208Y-55429527D01*
X61245290Y-55383387D01*
X61245289Y-55383386D01*
X61233342Y-55380185D01*
X61214521Y-55375142D01*
X61154863Y-55338778D01*
X61143971Y-55321600D01*
X61142752Y-55322415D01*
X61080601Y-55229399D01*
X60997739Y-55174033D01*
X60997735Y-55174032D01*
X60924677Y-55159500D01*
X60924674Y-55159500D01*
X59775326Y-55159500D01*
X59775323Y-55159500D01*
X59702264Y-55174032D01*
X59702260Y-55174033D01*
X59610515Y-55235335D01*
X59543837Y-55256212D01*
X59476457Y-55237727D01*
X59429768Y-55185747D01*
X59422379Y-55159712D01*
X59420876Y-55160068D01*
X59419092Y-55152520D01*
X59368797Y-55017671D01*
X59368793Y-55017664D01*
X59282547Y-54902455D01*
X59282544Y-54902452D01*
X59167335Y-54816206D01*
X59167328Y-54816202D01*
X59032482Y-54765908D01*
X59032483Y-54765908D01*
X58972883Y-54759501D01*
X58972881Y-54759500D01*
X58972873Y-54759500D01*
X58972864Y-54759500D01*
X57927129Y-54759500D01*
X57927123Y-54759501D01*
X57867516Y-54765908D01*
X57732671Y-54816202D01*
X57732664Y-54816206D01*
X57617455Y-54902452D01*
X57545023Y-54999208D01*
X57489089Y-55041078D01*
X57419397Y-55046062D01*
X57358074Y-55012576D01*
X57339640Y-54989046D01*
X57338361Y-54986930D01*
X57255472Y-54849815D01*
X57255470Y-54849813D01*
X57255469Y-54849811D01*
X57135188Y-54729530D01*
X57073842Y-54692445D01*
X56989606Y-54641522D01*
X56827196Y-54590914D01*
X56827194Y-54590913D01*
X56827192Y-54590913D01*
X56777778Y-54586423D01*
X56756616Y-54584500D01*
X55743384Y-54584500D01*
X55724145Y-54586248D01*
X55672807Y-54590913D01*
X55510393Y-54641522D01*
X55364811Y-54729530D01*
X55244530Y-54849811D01*
X55212706Y-54902454D01*
X55164084Y-54982886D01*
X55156521Y-54995396D01*
X55148109Y-55022391D01*
X55109371Y-55080539D01*
X55045346Y-55108512D01*
X55029724Y-55109500D01*
X54919408Y-55109500D01*
X54852369Y-55089815D01*
X54806614Y-55037011D01*
X54796118Y-54998754D01*
X54795074Y-54989046D01*
X54794412Y-54982886D01*
X54746628Y-54854774D01*
X54664687Y-54745313D01*
X54592316Y-54691137D01*
X54555228Y-54663373D01*
X54555226Y-54663372D01*
X54427114Y-54615588D01*
X54427112Y-54615587D01*
X54427110Y-54615587D01*
X54370493Y-54609500D01*
X53829518Y-54609500D01*
X53829509Y-54609501D01*
X53772882Y-54615588D01*
X53767829Y-54617473D01*
X53698138Y-54622455D01*
X53636816Y-54588968D01*
X53603333Y-54527644D01*
X53600500Y-54501290D01*
X53600500Y-53818708D01*
X53620185Y-53751669D01*
X53672989Y-53705914D01*
X53742147Y-53695970D01*
X53767830Y-53702526D01*
X53772886Y-53704412D01*
X53829515Y-53710500D01*
X54370484Y-53710499D01*
X54427114Y-53704412D01*
X54555226Y-53656628D01*
X54664687Y-53574687D01*
X54746628Y-53465226D01*
X54794412Y-53337114D01*
X54796118Y-53321243D01*
X54822855Y-53256695D01*
X54880247Y-53216846D01*
X54919407Y-53210500D01*
X56096142Y-53210500D01*
X56096144Y-53210500D01*
X56185288Y-53186614D01*
X56214930Y-53169500D01*
X56265212Y-53140470D01*
X56655469Y-52750212D01*
X56701614Y-52670288D01*
X56725500Y-52581144D01*
X56725500Y-52509500D01*
X56745185Y-52442461D01*
X56797989Y-52396706D01*
X56849500Y-52385500D01*
X56881613Y-52385500D01*
X56881616Y-52385500D01*
X56952196Y-52379086D01*
X57114606Y-52328478D01*
X57260185Y-52240472D01*
X57380472Y-52120185D01*
X57464642Y-51980950D01*
X57516168Y-51933766D01*
X57585027Y-51921927D01*
X57649356Y-51949196D01*
X57670023Y-51970792D01*
X57742452Y-52067544D01*
X57742455Y-52067547D01*
X57857664Y-52153793D01*
X57857671Y-52153797D01*
X57992517Y-52204091D01*
X57992516Y-52204091D01*
X57999444Y-52204835D01*
X58052127Y-52210500D01*
X59097872Y-52210499D01*
X59157483Y-52204091D01*
X59292331Y-52153796D01*
X59407546Y-52067546D01*
X59493796Y-51952331D01*
X59493796Y-51952329D01*
X59493798Y-51952327D01*
X59501704Y-51931128D01*
X59543573Y-51875193D01*
X59609036Y-51850773D01*
X59677310Y-51865623D01*
X59720989Y-51905565D01*
X59744399Y-51940601D01*
X59816787Y-51988968D01*
X59827260Y-51995966D01*
X59827264Y-51995967D01*
X59900321Y-52010499D01*
X59900324Y-52010500D01*
X59900326Y-52010500D01*
X61049676Y-52010500D01*
X61049677Y-52010499D01*
X61122740Y-51995966D01*
X61205601Y-51940601D01*
X61260966Y-51857740D01*
X61275500Y-51784674D01*
X61275500Y-51205544D01*
X61295185Y-51138505D01*
X61347989Y-51092750D01*
X61417147Y-51082806D01*
X61480703Y-51111831D01*
X61487181Y-51117863D01*
X62109788Y-51740470D01*
X62186352Y-51784674D01*
X62189712Y-51786614D01*
X62209227Y-51791843D01*
X62268885Y-51828205D01*
X62281496Y-51848086D01*
X62282248Y-51847585D01*
X62337439Y-51930185D01*
X62344399Y-51940601D01*
X62384599Y-51967461D01*
X62427260Y-51995966D01*
X62427264Y-51995967D01*
X62500321Y-52010499D01*
X62500324Y-52010500D01*
X62500326Y-52010500D01*
X63649676Y-52010500D01*
X63649677Y-52010499D01*
X63722740Y-51995966D01*
X63805601Y-51940601D01*
X63860966Y-51857740D01*
X63875500Y-51784674D01*
X63875500Y-51135326D01*
X63875500Y-51135323D01*
X63875499Y-51135321D01*
X63860967Y-51062264D01*
X63860966Y-51062260D01*
X63856879Y-51056143D01*
X63805601Y-50979399D01*
X63742310Y-50937110D01*
X63722739Y-50924033D01*
X63722735Y-50924032D01*
X63649677Y-50909500D01*
X63649674Y-50909500D01*
X62500326Y-50909500D01*
X62500323Y-50909500D01*
X62427264Y-50924032D01*
X62427252Y-50924037D01*
X62426413Y-50924598D01*
X62424308Y-50925256D01*
X62415979Y-50928707D01*
X62415669Y-50927960D01*
X62359734Y-50945469D01*
X62292355Y-50926978D01*
X62269852Y-50909170D01*
X62111819Y-50751137D01*
X62078334Y-50689814D01*
X62075500Y-50663456D01*
X62075500Y-50046937D01*
X62095185Y-49979898D01*
X62147989Y-49934143D01*
X62217147Y-49924199D01*
X62280703Y-49953224D01*
X62302600Y-49978044D01*
X62344399Y-50040601D01*
X62427259Y-50095965D01*
X62427260Y-50095966D01*
X62427264Y-50095967D01*
X62500321Y-50110499D01*
X62500324Y-50110500D01*
X62500326Y-50110500D01*
X63649676Y-50110500D01*
X63649677Y-50110499D01*
X63722740Y-50095966D01*
X63805601Y-50040601D01*
X63805602Y-50040598D01*
X63814483Y-50034665D01*
X63881160Y-50013787D01*
X63948541Y-50032271D01*
X63995231Y-50084250D01*
X64002636Y-50110283D01*
X64004124Y-50109932D01*
X64005907Y-50117479D01*
X64056202Y-50252328D01*
X64056206Y-50252335D01*
X64142452Y-50367544D01*
X64142455Y-50367547D01*
X64257664Y-50453793D01*
X64257671Y-50453797D01*
X64392517Y-50504091D01*
X64392516Y-50504091D01*
X64399444Y-50504835D01*
X64452127Y-50510500D01*
X65497872Y-50510499D01*
X65557483Y-50504091D01*
X65692331Y-50453796D01*
X65807546Y-50367546D01*
X65893796Y-50252331D01*
X65909633Y-50209871D01*
X65916609Y-50191167D01*
X65958480Y-50135233D01*
X66023944Y-50110816D01*
X66032791Y-50110500D01*
X66371142Y-50110500D01*
X66371144Y-50110500D01*
X66460288Y-50086614D01*
X66465876Y-50083387D01*
X66465880Y-50083386D01*
X66540205Y-50040474D01*
X66540204Y-50040474D01*
X66540212Y-50040470D01*
X67455470Y-49125212D01*
X67501614Y-49045288D01*
X67511203Y-49009500D01*
X67525500Y-48956144D01*
X67525500Y-48956136D01*
X67526561Y-48948085D01*
X67528766Y-48948375D01*
X67545185Y-48892461D01*
X67597989Y-48846706D01*
X67649500Y-48835500D01*
X67681613Y-48835500D01*
X67681616Y-48835500D01*
X67752196Y-48829086D01*
X67914606Y-48778478D01*
X68060185Y-48690472D01*
X68180472Y-48570185D01*
X68243650Y-48465675D01*
X68295176Y-48418491D01*
X68364035Y-48406652D01*
X68428364Y-48433921D01*
X68467738Y-48491639D01*
X68473765Y-48529828D01*
X68473765Y-49470409D01*
X68484234Y-49509481D01*
X68484240Y-49509502D01*
X68497650Y-49559552D01*
X68543792Y-49639473D01*
X68543796Y-49639478D01*
X69413181Y-50508863D01*
X69446666Y-50570186D01*
X69449500Y-50596544D01*
X69449500Y-55510500D01*
X69429815Y-55577539D01*
X69377011Y-55623294D01*
X69325500Y-55634500D01*
X68324500Y-55634500D01*
X68257461Y-55614815D01*
X68211706Y-55562011D01*
X68200500Y-55510500D01*
X68200500Y-55428386D01*
X68196587Y-55385326D01*
X68194086Y-55357804D01*
X68143478Y-55195394D01*
X68055472Y-55049815D01*
X68055470Y-55049813D01*
X68055469Y-55049811D01*
X67935188Y-54929530D01*
X67789606Y-54841522D01*
X67708356Y-54816204D01*
X67627196Y-54790914D01*
X67627194Y-54790913D01*
X67627192Y-54790913D01*
X67577778Y-54786423D01*
X67556616Y-54784500D01*
X66543384Y-54784500D01*
X66524145Y-54786248D01*
X66472807Y-54790913D01*
X66310393Y-54841522D01*
X66164811Y-54929530D01*
X66044531Y-55049810D01*
X66044528Y-55049814D01*
X65960358Y-55189047D01*
X65908830Y-55236234D01*
X65839971Y-55248072D01*
X65775642Y-55220803D01*
X65754976Y-55199207D01*
X65682547Y-55102455D01*
X65682544Y-55102452D01*
X65567335Y-55016206D01*
X65567328Y-55016202D01*
X65432482Y-54965908D01*
X65432483Y-54965908D01*
X65372883Y-54959501D01*
X65372881Y-54959500D01*
X65372873Y-54959500D01*
X65372864Y-54959500D01*
X64327129Y-54959500D01*
X64327123Y-54959501D01*
X64267516Y-54965908D01*
X64132671Y-55016202D01*
X64132664Y-55016206D01*
X64017455Y-55102452D01*
X64017452Y-55102455D01*
X63931206Y-55217664D01*
X63931203Y-55217669D01*
X63923294Y-55238876D01*
X63881422Y-55294809D01*
X63815958Y-55319226D01*
X63747685Y-55304374D01*
X63704010Y-55264433D01*
X63680601Y-55229399D01*
X63597739Y-55174033D01*
X63597735Y-55174032D01*
X63524677Y-55159500D01*
X63524674Y-55159500D01*
X62375326Y-55159500D01*
X62375323Y-55159500D01*
X62302264Y-55174032D01*
X62302260Y-55174033D01*
X62219399Y-55229399D01*
X62164033Y-55312260D01*
X62164032Y-55312264D01*
X62149500Y-55385321D01*
X62149500Y-56034678D01*
X62164032Y-56107735D01*
X62164033Y-56107739D01*
X62167063Y-56112273D01*
X62219399Y-56190601D01*
X62283172Y-56233212D01*
X62302260Y-56245966D01*
X62302264Y-56245967D01*
X62375321Y-56260499D01*
X62375324Y-56260500D01*
X62375326Y-56260500D01*
X63524676Y-56260500D01*
X63524677Y-56260499D01*
X63597740Y-56245966D01*
X63680601Y-56190601D01*
X63704010Y-56155565D01*
X63757621Y-56110761D01*
X63826946Y-56102054D01*
X63889974Y-56132208D01*
X63923294Y-56181124D01*
X63931202Y-56202328D01*
X63931206Y-56202335D01*
X64017452Y-56317544D01*
X64017455Y-56317547D01*
X64132664Y-56403793D01*
X64132671Y-56403797D01*
X64267517Y-56454091D01*
X64267516Y-56454091D01*
X64274065Y-56454795D01*
X64327127Y-56460500D01*
X65372872Y-56460499D01*
X65432483Y-56454091D01*
X65567331Y-56403796D01*
X65682546Y-56317546D01*
X65682548Y-56317542D01*
X65687819Y-56312273D01*
X65749142Y-56278788D01*
X65818834Y-56283772D01*
X65874767Y-56325644D01*
X65899184Y-56391108D01*
X65899500Y-56399954D01*
X65899500Y-56541613D01*
X65905913Y-56612192D01*
X65905913Y-56612194D01*
X65905914Y-56612196D01*
X65956522Y-56774606D01*
X66030276Y-56896610D01*
X66044530Y-56920188D01*
X66164811Y-57040469D01*
X66164813Y-57040470D01*
X66164815Y-57040472D01*
X66310394Y-57128478D01*
X66472804Y-57179086D01*
X66543384Y-57185500D01*
X66543387Y-57185500D01*
X67556613Y-57185500D01*
X67556616Y-57185500D01*
X67627196Y-57179086D01*
X67789606Y-57128478D01*
X67935185Y-57040472D01*
X68055472Y-56920185D01*
X68143478Y-56774606D01*
X68194086Y-56612196D01*
X68200500Y-56541616D01*
X68200500Y-56459500D01*
X68220185Y-56392461D01*
X68272989Y-56346706D01*
X68324500Y-56335500D01*
X69353856Y-56335500D01*
X69578456Y-56335500D01*
X69645495Y-56355185D01*
X69666137Y-56371819D01*
X73534788Y-60240470D01*
X73534790Y-60240471D01*
X73534794Y-60240474D01*
X73576771Y-60264709D01*
X73576773Y-60264710D01*
X73576777Y-60264712D01*
X73614712Y-60286614D01*
X73703856Y-60310500D01*
X75767209Y-60310500D01*
X75834248Y-60330185D01*
X75880003Y-60382989D01*
X75883391Y-60391167D01*
X75906202Y-60452328D01*
X75906206Y-60452335D01*
X75992452Y-60567544D01*
X75992455Y-60567547D01*
X76107664Y-60653793D01*
X76107671Y-60653797D01*
X76242517Y-60704091D01*
X76242516Y-60704091D01*
X76249444Y-60704835D01*
X76302127Y-60710500D01*
X77347872Y-60710499D01*
X77407483Y-60704091D01*
X77542331Y-60653796D01*
X77657546Y-60567546D01*
X77725734Y-60476457D01*
X77781667Y-60434588D01*
X77851359Y-60429604D01*
X77912682Y-60463089D01*
X77924261Y-60476452D01*
X77992454Y-60567546D01*
X78038643Y-60602123D01*
X78107664Y-60653793D01*
X78107671Y-60653797D01*
X78242517Y-60704091D01*
X78242516Y-60704091D01*
X78249444Y-60704835D01*
X78302127Y-60710500D01*
X79347872Y-60710499D01*
X79407483Y-60704091D01*
X79542331Y-60653796D01*
X79657546Y-60567546D01*
X79743796Y-60452331D01*
X79766609Y-60391167D01*
X79808480Y-60335233D01*
X79873944Y-60310816D01*
X79882791Y-60310500D01*
X79991189Y-60310500D01*
X80058228Y-60330185D01*
X80094291Y-60365609D01*
X80144398Y-60440600D01*
X80144399Y-60440601D01*
X80198065Y-60476459D01*
X80227260Y-60495966D01*
X80227264Y-60495967D01*
X80300321Y-60510499D01*
X80300324Y-60510500D01*
X80300326Y-60510500D01*
X80426500Y-60510500D01*
X80493539Y-60530185D01*
X80539294Y-60582989D01*
X80546271Y-60602396D01*
X80548386Y-60610288D01*
X80548387Y-60610291D01*
X80594527Y-60690208D01*
X80594529Y-60690211D01*
X80594530Y-60690212D01*
X80919531Y-61015212D01*
X80984788Y-61080469D01*
X80984791Y-61080470D01*
X80984794Y-61080473D01*
X81064706Y-61126611D01*
X81064707Y-61126611D01*
X81064712Y-61126614D01*
X81153856Y-61150500D01*
X84654456Y-61150500D01*
X84721495Y-61170185D01*
X84767250Y-61222989D01*
X84777194Y-61292147D01*
X84748169Y-61355703D01*
X84742137Y-61362181D01*
X82709531Y-63394786D01*
X82709527Y-63394791D01*
X82663387Y-63474709D01*
X82663386Y-63474712D01*
X82639500Y-63563856D01*
X82639500Y-64211865D01*
X82619815Y-64278904D01*
X82567011Y-64324659D01*
X82562955Y-64326425D01*
X82530299Y-64339952D01*
X82371339Y-64446164D01*
X82236164Y-64581339D01*
X82129951Y-64740299D01*
X82056797Y-64916911D01*
X82056794Y-64916921D01*
X82019500Y-65104411D01*
X82019500Y-65104414D01*
X82019500Y-65295586D01*
X82019500Y-65295588D01*
X82019499Y-65295588D01*
X82056794Y-65483078D01*
X82056797Y-65483088D01*
X82129951Y-65659700D01*
X82236164Y-65818660D01*
X82371339Y-65953835D01*
X82530299Y-66060048D01*
X82674256Y-66119676D01*
X82706916Y-66133204D01*
X82706920Y-66133204D01*
X82706921Y-66133205D01*
X82894411Y-66170500D01*
X82894414Y-66170500D01*
X83085588Y-66170500D01*
X83211729Y-66145408D01*
X83273084Y-66133204D01*
X83382289Y-66087970D01*
X83449700Y-66060048D01*
X83449701Y-66060047D01*
X83449704Y-66060046D01*
X83608658Y-65953837D01*
X83743837Y-65818658D01*
X83850046Y-65659704D01*
X83853704Y-65650874D01*
X83891515Y-65559589D01*
X83923204Y-65483084D01*
X83935408Y-65421729D01*
X83960500Y-65295588D01*
X83960500Y-65104411D01*
X83923205Y-64916921D01*
X83923204Y-64916920D01*
X83923204Y-64916916D01*
X83871686Y-64792539D01*
X83850048Y-64740299D01*
X83743835Y-64581339D01*
X83608660Y-64446164D01*
X83555673Y-64410760D01*
X83449704Y-64339954D01*
X83449701Y-64339952D01*
X83449700Y-64339952D01*
X83417045Y-64326425D01*
X83362643Y-64282583D01*
X83340579Y-64216289D01*
X83340500Y-64211865D01*
X83340500Y-63806544D01*
X83360185Y-63739505D01*
X83376819Y-63718863D01*
X85308863Y-61786819D01*
X85370186Y-61753334D01*
X85396544Y-61750500D01*
X90446142Y-61750500D01*
X90446144Y-61750500D01*
X90535288Y-61726614D01*
X90615212Y-61680470D01*
X91905470Y-60390212D01*
X91951614Y-60310288D01*
X91965145Y-60259788D01*
X91975500Y-60221144D01*
X91975500Y-60034499D01*
X91995185Y-59967460D01*
X92047989Y-59921705D01*
X92099500Y-59910499D01*
X92147871Y-59910499D01*
X92147872Y-59910499D01*
X92207483Y-59904091D01*
X92342331Y-59853796D01*
X92457546Y-59767546D01*
X92543796Y-59652331D01*
X92577390Y-59562260D01*
X92596802Y-59510215D01*
X92599021Y-59511042D01*
X92627760Y-59460562D01*
X92651873Y-59442397D01*
X92655212Y-59440470D01*
X93330469Y-58765212D01*
X93343483Y-58742671D01*
X93376612Y-58685292D01*
X93376612Y-58685291D01*
X93376614Y-58685288D01*
X93382127Y-58664712D01*
X93400500Y-58596144D01*
X93400500Y-55803856D01*
X93376614Y-55714712D01*
X93372654Y-55707853D01*
X93330473Y-55634794D01*
X93330470Y-55634791D01*
X93330469Y-55634788D01*
X93265212Y-55569531D01*
X92829067Y-55133386D01*
X92386819Y-54691137D01*
X92353334Y-54629814D01*
X92350500Y-54603456D01*
X92350500Y-46953858D01*
X92350500Y-46953856D01*
X92326614Y-46864712D01*
X92315461Y-46845394D01*
X92280470Y-46784788D01*
X90815212Y-45319530D01*
X90815211Y-45319529D01*
X90815208Y-45319527D01*
X90735290Y-45273387D01*
X90735289Y-45273386D01*
X90735288Y-45273386D01*
X90646144Y-45249500D01*
X90646143Y-45249500D01*
X80596544Y-45249500D01*
X80529505Y-45229815D01*
X80508863Y-45213181D01*
X78877863Y-43582181D01*
X78844378Y-43520858D01*
X78849362Y-43451166D01*
X78891234Y-43395233D01*
X78956698Y-43370816D01*
X78965544Y-43370500D01*
X82016142Y-43370500D01*
X82016144Y-43370500D01*
X82105288Y-43346614D01*
X82124905Y-43335288D01*
X82185212Y-43300470D01*
X82539126Y-42946554D01*
X82600447Y-42913071D01*
X82670138Y-42918055D01*
X82674206Y-42919655D01*
X82706916Y-42933204D01*
X82706920Y-42933204D01*
X82706921Y-42933205D01*
X82894411Y-42970500D01*
X82894414Y-42970500D01*
X83085588Y-42970500D01*
X83211729Y-42945408D01*
X83273084Y-42933204D01*
X83445016Y-42861988D01*
X83449700Y-42860048D01*
X83449701Y-42860047D01*
X83449704Y-42860046D01*
X83608658Y-42753837D01*
X83743837Y-42618658D01*
X83850046Y-42459704D01*
X83853704Y-42450874D01*
X83923202Y-42283088D01*
X83923204Y-42283084D01*
X83944342Y-42176819D01*
X83960500Y-42095588D01*
X83960500Y-41904411D01*
X83923205Y-41716921D01*
X83923204Y-41716917D01*
X83923204Y-41716916D01*
X83923202Y-41716910D01*
X83850048Y-41540299D01*
X83743835Y-41381339D01*
X83608660Y-41246164D01*
X83449700Y-41139951D01*
X83273088Y-41066797D01*
X83273078Y-41066794D01*
X83085588Y-41029500D01*
X83085586Y-41029500D01*
X82894414Y-41029500D01*
X82894412Y-41029500D01*
X82706921Y-41066794D01*
X82706911Y-41066797D01*
X82530299Y-41139951D01*
X82371339Y-41246164D01*
X82236164Y-41381339D01*
X82129951Y-41540299D01*
X82056797Y-41716911D01*
X82056794Y-41716921D01*
X82019500Y-41904411D01*
X82019500Y-41904414D01*
X82019500Y-42095586D01*
X82019500Y-42095588D01*
X82019499Y-42095588D01*
X82056794Y-42283077D01*
X82056796Y-42283085D01*
X82070323Y-42315743D01*
X82077790Y-42385213D01*
X82046514Y-42447691D01*
X82043443Y-42450874D01*
X81861135Y-42633182D01*
X81799815Y-42666666D01*
X81773456Y-42669500D01*
X81544500Y-42669500D01*
X81477461Y-42649815D01*
X81431706Y-42597011D01*
X81420500Y-42545500D01*
X81420500Y-41255323D01*
X81420499Y-41255321D01*
X81405967Y-41182264D01*
X81405966Y-41182260D01*
X81379239Y-41142260D01*
X81350601Y-41099399D01*
X81285134Y-41055656D01*
X81267739Y-41044033D01*
X81267735Y-41044032D01*
X81194677Y-41029500D01*
X81194674Y-41029500D01*
X79705326Y-41029500D01*
X79705323Y-41029500D01*
X79632264Y-41044032D01*
X79632260Y-41044033D01*
X79549398Y-41099400D01*
X79491422Y-41186167D01*
X79437809Y-41230972D01*
X79368484Y-41239679D01*
X79305457Y-41209524D01*
X79300639Y-41204957D01*
X77615213Y-39519531D01*
X77615208Y-39519527D01*
X77535290Y-39473387D01*
X77535289Y-39473386D01*
X77535288Y-39473386D01*
X77446144Y-39449500D01*
X77446143Y-39449500D01*
X77424499Y-39449500D01*
X77357460Y-39429815D01*
X77311705Y-39377011D01*
X77300499Y-39325500D01*
X77300499Y-39277129D01*
X77300498Y-39277123D01*
X77300497Y-39277116D01*
X77294091Y-39217517D01*
X77253039Y-39107452D01*
X77243797Y-39082671D01*
X77243793Y-39082664D01*
X77157547Y-38967456D01*
X77157548Y-38967456D01*
X77157546Y-38967454D01*
X77066457Y-38899265D01*
X77024588Y-38843333D01*
X77019604Y-38773641D01*
X77053089Y-38712318D01*
X77066452Y-38700738D01*
X77157546Y-38632546D01*
X77243796Y-38517331D01*
X77294091Y-38382483D01*
X77300500Y-38322873D01*
X77300500Y-38274500D01*
X77320185Y-38207461D01*
X77372989Y-38161706D01*
X77424500Y-38150500D01*
X81133456Y-38150500D01*
X81200495Y-38170185D01*
X81221137Y-38186819D01*
X84583442Y-41549124D01*
X84616927Y-41610447D01*
X84611943Y-41680139D01*
X84610323Y-41684255D01*
X84596797Y-41716910D01*
X84596795Y-41716917D01*
X84559500Y-41904411D01*
X84559500Y-41904414D01*
X84559500Y-42095586D01*
X84559500Y-42095588D01*
X84559499Y-42095588D01*
X84596794Y-42283078D01*
X84596797Y-42283088D01*
X84669951Y-42459700D01*
X84776164Y-42618660D01*
X84911339Y-42753835D01*
X85070299Y-42860048D01*
X85214256Y-42919676D01*
X85246916Y-42933204D01*
X85246920Y-42933204D01*
X85246921Y-42933205D01*
X85434411Y-42970500D01*
X85434414Y-42970500D01*
X85625588Y-42970500D01*
X85751729Y-42945408D01*
X85813084Y-42933204D01*
X85985016Y-42861988D01*
X85989700Y-42860048D01*
X85989701Y-42860047D01*
X85989704Y-42860046D01*
X86148658Y-42753837D01*
X86283837Y-42618658D01*
X86390046Y-42459704D01*
X86393704Y-42450874D01*
X86463202Y-42283088D01*
X86463204Y-42283084D01*
X86484342Y-42176819D01*
X86500500Y-42095588D01*
X86500500Y-41904411D01*
X86463205Y-41716921D01*
X86463204Y-41716917D01*
X86463204Y-41716916D01*
X86463202Y-41716910D01*
X86390048Y-41540299D01*
X86283835Y-41381339D01*
X86148660Y-41246164D01*
X85989700Y-41139951D01*
X85813088Y-41066797D01*
X85813078Y-41066794D01*
X85625588Y-41029500D01*
X85625586Y-41029500D01*
X85434414Y-41029500D01*
X85434412Y-41029500D01*
X85246917Y-41066795D01*
X85246910Y-41066797D01*
X85214255Y-41080323D01*
X85144786Y-41087790D01*
X85082307Y-41056514D01*
X85079124Y-41053442D01*
X81545213Y-37519531D01*
X81545208Y-37519527D01*
X81465290Y-37473387D01*
X81465289Y-37473386D01*
X81465288Y-37473386D01*
X81376144Y-37449500D01*
X81376143Y-37449500D01*
X77424499Y-37449500D01*
X77357460Y-37429815D01*
X77311705Y-37377011D01*
X77300499Y-37325500D01*
X77300499Y-37277129D01*
X77300498Y-37277123D01*
X77300497Y-37277116D01*
X77294091Y-37217517D01*
X77284438Y-37191637D01*
X77243797Y-37082671D01*
X77243793Y-37082664D01*
X77157547Y-36967455D01*
X77157544Y-36967452D01*
X77042335Y-36881206D01*
X77042328Y-36881202D01*
X76907486Y-36830910D01*
X76907485Y-36830909D01*
X76907483Y-36830909D01*
X76847873Y-36824500D01*
X76847863Y-36824500D01*
X76252129Y-36824500D01*
X76252123Y-36824501D01*
X76192516Y-36830908D01*
X76057671Y-36881202D01*
X76057664Y-36881206D01*
X75942455Y-36967452D01*
X75942452Y-36967455D01*
X75856206Y-37082664D01*
X75856202Y-37082671D01*
X75805908Y-37217517D01*
X75799501Y-37277116D01*
X75799501Y-37277123D01*
X75799500Y-37277135D01*
X75799500Y-38322870D01*
X75799501Y-38322876D01*
X75805908Y-38382483D01*
X75856202Y-38517328D01*
X75856206Y-38517335D01*
X75942452Y-38632544D01*
X75942455Y-38632547D01*
X76033540Y-38700734D01*
X76075411Y-38756668D01*
X76080395Y-38826359D01*
X76046909Y-38887682D01*
X76033540Y-38899266D01*
X75942455Y-38967452D01*
X75942452Y-38967455D01*
X75856206Y-39082664D01*
X75856202Y-39082671D01*
X75805908Y-39217517D01*
X75799501Y-39277116D01*
X75799501Y-39277123D01*
X75799500Y-39277135D01*
X75799500Y-40322870D01*
X75799501Y-40322876D01*
X75805908Y-40382483D01*
X75856202Y-40517328D01*
X75856206Y-40517335D01*
X75942452Y-40632544D01*
X75942455Y-40632547D01*
X76057664Y-40718793D01*
X76057671Y-40718797D01*
X76075643Y-40725500D01*
X76192517Y-40769091D01*
X76252127Y-40775500D01*
X76847872Y-40775499D01*
X76907483Y-40769091D01*
X77042331Y-40718796D01*
X77157546Y-40632546D01*
X77243796Y-40517331D01*
X77264106Y-40462876D01*
X77279014Y-40422907D01*
X77320885Y-40366973D01*
X77386349Y-40342556D01*
X77454622Y-40357407D01*
X77482877Y-40378559D01*
X79384788Y-42280470D01*
X79417500Y-42299356D01*
X79465715Y-42349922D01*
X79479500Y-42406743D01*
X79479500Y-42545500D01*
X79459815Y-42612539D01*
X79407011Y-42658294D01*
X79355500Y-42669500D01*
X78816544Y-42669500D01*
X78749505Y-42649815D01*
X78728863Y-42633181D01*
X77605213Y-41509531D01*
X77605208Y-41509527D01*
X77525290Y-41463387D01*
X77525289Y-41463386D01*
X77525288Y-41463386D01*
X77436144Y-41439500D01*
X77436143Y-41439500D01*
X71524500Y-41439500D01*
X71457461Y-41419815D01*
X71411706Y-41367011D01*
X71400500Y-41315500D01*
X71400500Y-41215323D01*
X71400499Y-41215321D01*
X71385967Y-41142264D01*
X71385966Y-41142260D01*
X71384423Y-41139951D01*
X71330601Y-41059399D01*
X71259686Y-41012016D01*
X71247739Y-41004033D01*
X71247735Y-41004032D01*
X71174677Y-40989500D01*
X71174674Y-40989500D01*
X70525326Y-40989500D01*
X70525324Y-40989500D01*
X70452260Y-41004033D01*
X70443887Y-41009628D01*
X70377209Y-41030503D01*
X70309829Y-41012016D01*
X70306113Y-41009628D01*
X70301109Y-41006285D01*
X70297740Y-41004034D01*
X70297739Y-41004033D01*
X70297740Y-41004033D01*
X70224676Y-40989500D01*
X70224674Y-40989500D01*
X69639954Y-40989500D01*
X69572915Y-40969815D01*
X69527160Y-40917011D01*
X69517216Y-40847853D01*
X69546241Y-40784297D01*
X69552273Y-40777819D01*
X69557542Y-40772548D01*
X69557546Y-40772546D01*
X69643796Y-40657331D01*
X69694091Y-40522483D01*
X69700500Y-40462873D01*
X69700499Y-39417128D01*
X69694091Y-39357517D01*
X69682149Y-39325500D01*
X69643797Y-39222671D01*
X69643793Y-39222664D01*
X69557547Y-39107456D01*
X69557548Y-39107456D01*
X69557546Y-39107454D01*
X69466457Y-39039265D01*
X69424588Y-38983333D01*
X69419604Y-38913641D01*
X69453089Y-38852318D01*
X69466452Y-38840738D01*
X69557546Y-38772546D01*
X69643796Y-38657331D01*
X69694091Y-38522483D01*
X69700500Y-38462873D01*
X69700499Y-37417128D01*
X69694091Y-37357517D01*
X69682149Y-37325500D01*
X69643797Y-37222671D01*
X69643793Y-37222664D01*
X69557547Y-37107455D01*
X69557544Y-37107452D01*
X69442335Y-37021206D01*
X69442328Y-37021202D01*
X69360498Y-36990682D01*
X69304564Y-36948811D01*
X69280147Y-36883347D01*
X69294998Y-36815074D01*
X69344403Y-36765668D01*
X69403831Y-36750500D01*
X71403456Y-36750500D01*
X71470495Y-36770185D01*
X71491137Y-36786819D01*
X72784788Y-38080470D01*
X72864712Y-38126614D01*
X72953856Y-38150500D01*
X73775501Y-38150500D01*
X73842540Y-38170185D01*
X73888295Y-38222989D01*
X73899501Y-38274500D01*
X73899501Y-38322876D01*
X73905908Y-38382483D01*
X73956202Y-38517328D01*
X73956206Y-38517335D01*
X74042452Y-38632544D01*
X74042455Y-38632547D01*
X74157664Y-38718793D01*
X74157671Y-38718797D01*
X74202618Y-38735561D01*
X74292517Y-38769091D01*
X74352127Y-38775500D01*
X74947872Y-38775499D01*
X75007483Y-38769091D01*
X75142331Y-38718796D01*
X75257546Y-38632546D01*
X75343796Y-38517331D01*
X75394091Y-38382483D01*
X75400500Y-38322873D01*
X75400499Y-37277128D01*
X75394091Y-37217517D01*
X75384438Y-37191637D01*
X75343797Y-37082671D01*
X75343793Y-37082664D01*
X75257547Y-36967455D01*
X75257544Y-36967452D01*
X75142335Y-36881206D01*
X75142328Y-36881202D01*
X75007486Y-36830910D01*
X75007485Y-36830909D01*
X75007483Y-36830909D01*
X74947873Y-36824500D01*
X74947863Y-36824500D01*
X74352129Y-36824500D01*
X74352123Y-36824501D01*
X74292516Y-36830908D01*
X74157671Y-36881202D01*
X74157664Y-36881206D01*
X74042455Y-36967452D01*
X74042452Y-36967455D01*
X73956206Y-37082664D01*
X73956202Y-37082671D01*
X73905908Y-37217517D01*
X73899501Y-37277116D01*
X73899501Y-37277123D01*
X73899500Y-37277135D01*
X73899500Y-37325500D01*
X73879815Y-37392539D01*
X73827011Y-37438294D01*
X73775500Y-37449500D01*
X73196544Y-37449500D01*
X73129505Y-37429815D01*
X73108863Y-37413181D01*
X71815213Y-36119531D01*
X71815208Y-36119527D01*
X71735290Y-36073387D01*
X71735289Y-36073386D01*
X71735288Y-36073386D01*
X71646144Y-36049500D01*
X68146144Y-36049500D01*
X68053856Y-36049500D01*
X67964712Y-36073386D01*
X67964709Y-36073387D01*
X67884791Y-36119527D01*
X67884786Y-36119531D01*
X67319529Y-36684788D01*
X67295383Y-36726613D01*
X67295381Y-36726615D01*
X67273388Y-36764706D01*
X67273387Y-36764709D01*
X67273386Y-36764711D01*
X67273386Y-36764712D01*
X67262105Y-36806814D01*
X67249500Y-36853856D01*
X67249500Y-40725500D01*
X67229815Y-40792539D01*
X67177011Y-40838294D01*
X67125500Y-40849500D01*
X43953856Y-40849500D01*
X43864712Y-40873386D01*
X43864709Y-40873387D01*
X43784791Y-40919527D01*
X43784786Y-40919531D01*
X40319529Y-44384788D01*
X40305262Y-44409501D01*
X40294897Y-44427454D01*
X40273386Y-44464712D01*
X40249500Y-44553856D01*
X38500500Y-44553856D01*
X38500500Y-37258676D01*
X38520185Y-37191637D01*
X38536819Y-37170995D01*
X40170995Y-35536819D01*
X40232318Y-35503334D01*
X40258676Y-35500500D01*
X92741324Y-35500500D01*
X92808363Y-35520185D01*
G37*
%TD.AperFunction*%
%TD*%
M02*
