%TF.GenerationSoftware,KiCad,Pcbnew,10.0.5*%
%TF.CreationDate,2026-08-10T22:55:46+02:00*%
%TF.ProjectId,Leveltronic,4c657665-6c74-4726-9f6e-69632e6b6963,rev?*%
%TF.SameCoordinates,Original*%
%TF.FileFunction,Soldermask,Top*%
%TF.FilePolarity,Negative*%
%FSLAX46Y46*%
G04 Gerber Fmt 4.6, Leading zero omitted, Abs format (unit mm)*
G04 Created by KiCad (PCBNEW 10.0.5) date 2026-08-10 22:55:46*
%MOMM*%
%LPD*%
G01*
G04 APERTURE LIST*
G04 Aperture macros list*
%AMRoundRect*
0 Rectangle with rounded corners*
0 $1 Rounding radius*
0 $2 $3 $4 $5 $6 $7 $8 $9 X,Y pos of 4 corners*
0 Add a 4 corners polygon primitive as box body*
4,1,4,$2,$3,$4,$5,$6,$7,$8,$9,$2,$3,0*
0 Add four circle primitives for the rounded corners*
1,1,$1+$1,$2,$3*
1,1,$1+$1,$4,$5*
1,1,$1+$1,$6,$7*
1,1,$1+$1,$8,$9*
0 Add four rect primitives between the rounded corners*
20,1,$1+$1,$2,$3,$4,$5,0*
20,1,$1+$1,$4,$5,$6,$7,0*
20,1,$1+$1,$6,$7,$8,$9,0*
20,1,$1+$1,$8,$9,$2,$3,0*%
G04 Aperture macros list end*
%ADD10RoundRect,0.250000X-0.250000X-0.475000X0.250000X-0.475000X0.250000X0.475000X-0.250000X0.475000X0*%
%ADD11RoundRect,0.250000X-0.475000X0.250000X-0.475000X-0.250000X0.475000X-0.250000X0.475000X0.250000X0*%
%ADD12RoundRect,0.450000X-0.450000X0.500000X-0.450000X-0.500000X0.450000X-0.500000X0.450000X0.500000X0*%
%ADD13R,1.440000X1.440000*%
%ADD14C,1.440000*%
%ADD15R,1.000000X1.000000*%
%ADD16C,1.000000*%
%ADD17RoundRect,0.225000X0.225000X0.375000X-0.225000X0.375000X-0.225000X-0.375000X0.225000X-0.375000X0*%
%ADD18C,3.600000*%
%ADD19C,5.600000*%
%ADD20R,1.100000X0.600000*%
%ADD21RoundRect,0.250000X0.475000X-0.250000X0.475000X0.250000X-0.475000X0.250000X-0.475000X-0.250000X0*%
%ADD22RoundRect,0.250000X0.250000X0.475000X-0.250000X0.475000X-0.250000X-0.475000X0.250000X-0.475000X0*%
%ADD23R,0.600000X1.100000*%
%ADD24RoundRect,0.225000X-0.225000X-0.375000X0.225000X-0.375000X0.225000X0.375000X-0.225000X0.375000X0*%
%ADD25R,1.700000X1.700000*%
%ADD26C,1.700000*%
%ADD27RoundRect,0.450000X0.450000X-0.500000X0.450000X0.500000X-0.450000X0.500000X-0.450000X-0.500000X0*%
G04 APERTURE END LIST*
D10*
%TO.C,R10*%
X86850000Y-47410000D03*
X88750000Y-47410000D03*
%TD*%
D11*
%TO.C,C15*%
X90000000Y-49460000D03*
X90000000Y-51360000D03*
%TD*%
D10*
%TO.C,R14*%
X81650000Y-55010000D03*
X83550000Y-55010000D03*
%TD*%
D12*
%TO.C,C1*%
X56250000Y-55785000D03*
X56250000Y-59535000D03*
%TD*%
D13*
%TO.C,RV2*%
X80450000Y-42000000D03*
D14*
X82990000Y-42000000D03*
X85530000Y-42000000D03*
%TD*%
D15*
%TO.C,J4*%
X72000000Y-63560000D03*
D16*
X72000000Y-64840000D03*
%TD*%
D10*
%TO.C,R15*%
X74650000Y-37800000D03*
X76550000Y-37800000D03*
%TD*%
D11*
%TO.C,R7*%
X89600000Y-53250000D03*
X89600000Y-55150000D03*
%TD*%
D17*
%TO.C,D2*%
X54100000Y-55460000D03*
X50800000Y-55460000D03*
%TD*%
%TO.C,D1*%
X54100000Y-50460000D03*
X50800000Y-50460000D03*
%TD*%
D10*
%TO.C,C19*%
X68950000Y-37940000D03*
X70850000Y-37940000D03*
%TD*%
D18*
%TO.C,H3*%
X92000000Y-38000000D03*
D19*
X92000000Y-38000000D03*
%TD*%
D12*
%TO.C,C7*%
X67175000Y-47635000D03*
X67175000Y-51385000D03*
%TD*%
D20*
%TO.C,U2*%
X60475000Y-49560000D03*
X60475000Y-50510000D03*
X60475000Y-51460000D03*
X63075000Y-51460000D03*
X63075000Y-49560000D03*
%TD*%
D18*
%TO.C,H2*%
X41000000Y-68000000D03*
D19*
X41000000Y-68000000D03*
%TD*%
D21*
%TO.C,C11*%
X87425000Y-59160000D03*
X87425000Y-57260000D03*
%TD*%
%TO.C,C14*%
X76825000Y-59960000D03*
X76825000Y-58060000D03*
%TD*%
D10*
%TO.C,R11*%
X83450000Y-47410000D03*
X85350000Y-47410000D03*
%TD*%
D22*
%TO.C,R3*%
X49000000Y-55460000D03*
X47100000Y-55460000D03*
%TD*%
D13*
%TO.C,RV1*%
X80450000Y-65200000D03*
D14*
X82990000Y-65200000D03*
X85530000Y-65200000D03*
%TD*%
D23*
%TO.C,U5*%
X68950000Y-44490000D03*
X69900000Y-44490000D03*
X70850000Y-44490000D03*
X70850000Y-41790000D03*
X69900000Y-41790000D03*
X68950000Y-41790000D03*
%TD*%
D10*
%TO.C,R4*%
X47100000Y-45260000D03*
X49000000Y-45260000D03*
%TD*%
%TO.C,C21*%
X68950000Y-39940000D03*
X70850000Y-39940000D03*
%TD*%
D24*
%TO.C,D6*%
X50800000Y-47860000D03*
X54100000Y-47860000D03*
%TD*%
D11*
%TO.C,R17*%
X91625000Y-57260000D03*
X91625000Y-59160000D03*
%TD*%
D18*
%TO.C,H4*%
X92000000Y-68000000D03*
D19*
X92000000Y-68000000D03*
%TD*%
D17*
%TO.C,D5*%
X54100000Y-45260000D03*
X50800000Y-45260000D03*
%TD*%
D10*
%TO.C,R2*%
X47100000Y-52860000D03*
X49000000Y-52860000D03*
%TD*%
%TO.C,C20*%
X69900000Y-48460000D03*
X71800000Y-48460000D03*
%TD*%
D11*
%TO.C,C4*%
X64850000Y-55710000D03*
X64850000Y-57610000D03*
%TD*%
D25*
%TO.C,J5*%
X78075000Y-47475000D03*
D26*
X80615000Y-47475000D03*
%TD*%
D11*
%TO.C,C18*%
X81600000Y-50260000D03*
X81600000Y-52160000D03*
%TD*%
D10*
%TO.C,C22*%
X69900000Y-46460000D03*
X71800000Y-46460000D03*
%TD*%
%TO.C,R5*%
X47100000Y-47860000D03*
X49000000Y-47860000D03*
%TD*%
D27*
%TO.C,C5*%
X56375000Y-51185000D03*
X56375000Y-47435000D03*
%TD*%
D22*
%TO.C,R12*%
X76550000Y-65000000D03*
X74650000Y-65000000D03*
%TD*%
D10*
%TO.C,C9*%
X63100000Y-59460000D03*
X65000000Y-59460000D03*
%TD*%
D15*
%TO.C,J6*%
X77760000Y-55000000D03*
D16*
X79040000Y-55000000D03*
%TD*%
D22*
%TO.C,R8*%
X65125000Y-47710000D03*
X63225000Y-47710000D03*
%TD*%
D21*
%TO.C,C6*%
X58575000Y-51460000D03*
X58575000Y-49560000D03*
%TD*%
%TO.C,R9*%
X89425000Y-59160000D03*
X89425000Y-57260000D03*
%TD*%
D20*
%TO.C,U1*%
X83575000Y-59960000D03*
X83575000Y-59010000D03*
X83575000Y-58060000D03*
X80875000Y-58060000D03*
X80875000Y-59010000D03*
X80875000Y-59960000D03*
%TD*%
%TO.C,U4*%
X83450000Y-49460000D03*
X83450000Y-50410000D03*
X83450000Y-51360000D03*
X86150000Y-51360000D03*
X86150000Y-50410000D03*
X86150000Y-49460000D03*
%TD*%
%TO.C,U3*%
X60350000Y-55710000D03*
X60350000Y-56660000D03*
X60350000Y-57610000D03*
X62950000Y-57610000D03*
X62950000Y-55710000D03*
%TD*%
D11*
%TO.C,C16*%
X79600000Y-50260000D03*
X79600000Y-52160000D03*
%TD*%
D10*
%TO.C,R1*%
X85450000Y-55010000D03*
X87350000Y-55010000D03*
%TD*%
D21*
%TO.C,C13*%
X78825000Y-59960000D03*
X78825000Y-58060000D03*
%TD*%
%TO.C,C23*%
X74800000Y-45350000D03*
X74800000Y-43450000D03*
%TD*%
D10*
%TO.C,R13*%
X74650000Y-67000000D03*
X76550000Y-67000000D03*
%TD*%
D18*
%TO.C,H1*%
X41000000Y-38000000D03*
D19*
X41000000Y-38000000D03*
%TD*%
D22*
%TO.C,R16*%
X76550000Y-39800000D03*
X74650000Y-39800000D03*
%TD*%
D15*
%TO.C,J3*%
X69200000Y-63560000D03*
D16*
X69200000Y-64840000D03*
%TD*%
D25*
%TO.C,J1*%
X44145000Y-46650000D03*
D26*
X44145000Y-49190000D03*
X44145000Y-51730000D03*
X44145000Y-54270000D03*
X44145000Y-56810000D03*
X44145000Y-59350000D03*
%TD*%
D21*
%TO.C,C12*%
X85425000Y-59160000D03*
X85425000Y-57260000D03*
%TD*%
D24*
%TO.C,D4*%
X50800000Y-57860000D03*
X54100000Y-57860000D03*
%TD*%
D11*
%TO.C,C2*%
X58450000Y-55510000D03*
X58450000Y-57410000D03*
%TD*%
D12*
%TO.C,C3*%
X67050000Y-55985000D03*
X67050000Y-59735000D03*
%TD*%
D11*
%TO.C,C17*%
X88000000Y-49460000D03*
X88000000Y-51360000D03*
%TD*%
D24*
%TO.C,D3*%
X50800000Y-52860000D03*
X54100000Y-52860000D03*
%TD*%
D22*
%TO.C,R6*%
X61725000Y-47710000D03*
X59825000Y-47710000D03*
%TD*%
D11*
%TO.C,C8*%
X64975000Y-49760000D03*
X64975000Y-51660000D03*
%TD*%
D25*
%TO.C,J2*%
X71515000Y-51655000D03*
D26*
X74055000Y-51655000D03*
X76595000Y-51655000D03*
%TD*%
M02*
