M48
; DRILL file KiCad 10.0.5 date 2026-08-10T22:55:41
; FORMAT={-:-/ absolute / metric / decimal}
; #@! TF.CreationDate,2026-08-10T22:55:41+02:00
; #@! TF.GenerationSoftware,Kicad,Pcbnew,10.0.5
; #@! TF.FileFunction,Plated,1,2,PTH
FMAT,2
METRIC
; #@! TA.AperFunction,Plated,PTH,ViaDrill
T1C0.300
; #@! TA.AperFunction,Plated,PTH,ComponentDrill
T2C0.650
; #@! TA.AperFunction,Plated,PTH,ComponentDrill
T3C0.800
; #@! TA.AperFunction,Plated,PTH,ComponentDrill
T4C1.000
; #@! TA.AperFunction,Plated,PTH,ComponentDrill
T5C3.200
%
G90
G05
T1
X54.8Y-64.4
X55.8Y-58.2
X55.85Y-61.0
X56.0Y-46.0
X56.0Y-48.8
X56.6Y-58.2
X56.8Y-46.0
X56.8Y-48.8
X56.8Y-61.0
X57.8Y-48.4
X58.0Y-58.6
X58.6Y-47.6
X58.6Y-48.4
X59.0Y-58.6
X59.4Y-56.8
X60.4Y-48.8
X61.6Y-51.8
X61.6Y-58.0
X61.8Y-55.4
X62.0Y-56.6
X64.375Y-52.31
X64.6Y-60.86
X65.45Y-60.86
X65.575Y-52.31
X66.0Y-57.6
X66.0Y-58.4
X66.8Y-58.4
X67.6Y-58.4
X67.6Y-63.4
X68.6Y-59.26
X68.6Y-60.2
X68.775Y-51.71
X68.8Y-43.2
X68.8Y-50.6
X68.824Y-47.624
X68.85Y-52.66
X72.0Y-37.8
X72.0Y-38.6
X72.0Y-39.4
X72.0Y-40.2
X73.0Y-46.2
X73.0Y-47.0
X73.0Y-47.8
X73.0Y-48.6
X73.4Y-39.4
X73.4Y-40.2
X76.2Y-57.0
X77.0Y-57.0
X77.8Y-57.0
X78.6Y-57.0
X79.4Y-57.0
X80.0Y-53.2
X80.6Y-51.41
X80.8Y-53.2
X81.6Y-53.2
X82.4Y-53.2
X85.0Y-56.4
X85.8Y-56.4
X87.0Y-56.4
X87.4Y-52.4
X87.8Y-56.4
X88.4Y-52.4
X89.4Y-52.4
X90.0Y-46.6
X90.0Y-47.4
X90.0Y-48.2
X90.4Y-52.4
T2
X69.2Y-63.56
X69.2Y-64.84
X72.0Y-63.56
X72.0Y-64.84
X77.76Y-55.0
X79.04Y-55.0
T3
X80.45Y-42.0
X80.45Y-65.2
X82.99Y-42.0
X82.99Y-65.2
X85.53Y-42.0
X85.53Y-65.2
T4
X44.145Y-46.65
X44.145Y-49.19
X44.145Y-51.73
X44.145Y-54.27
X44.145Y-56.81
X44.145Y-59.35
X71.515Y-51.655
X74.055Y-51.655
X76.595Y-51.655
X78.075Y-47.475
X80.615Y-47.475
T5
X41.0Y-38.0
X41.0Y-68.0
X92.0Y-38.0
X92.0Y-68.0
M30
